<svg width="539" height="519" viewBox="0 0 539 519" fill="none" xmlns="http://www.w3.org/2000/svg">
<g clip-path="url(#clip0_90_93)">
<path d="M315.919 249.664C315.371 250.422 320.062 258.454 322.685 262.711C323.062 263.324 325.355 264.276 325.357 263.462C325.365 262.008 317.754 247.126 315.919 249.664Z" fill="#492525"/>
<path d="M204.28 192.64C204.085 192.453 203.872 192.297 203.643 192.167C203.453 191.927 203.321 191.566 203.115 191.541C202.991 191.529 202.151 191.434 202.112 191.434C201.309 191.456 199.375 191.446 199.513 191.854C199.663 192.305 202.133 193.706 202.595 193.671C202.642 193.696 202.689 193.719 202.736 193.749C202.757 193.762 202.777 193.774 202.798 193.787C202.837 193.812 202.853 193.827 202.855 193.827C202.889 193.859 202.923 193.899 202.946 193.922C203.292 194.257 203.934 194.282 204.28 193.922C204.626 193.559 204.649 193.001 204.28 192.64Z" fill="#DE8537"/>
<path d="M292.743 341.858C292.806 365.057 297.043 438.832 297.674 441.118C299.59 440.665 312.103 441.118 317.676 437.904C318.778 435.716 318.139 414.094 317.978 409.236C317.96 408.703 317.557 408.282 317.071 408.297C316.023 408.325 314.63 408.365 313.918 408.385C312.397 380.778 310.364 353.216 307.801 325.727C306.92 316.301 305.979 306.887 304.978 297.481C304.835 296.117 304.141 294.971 302.93 294.954C302.813 294.954 302.699 294.969 302.582 294.999C300.718 292.598 297.479 292.643 295.244 294.541C291.974 297.316 292.062 302.702 292.208 307.05C292.595 318.646 292.712 330.249 292.743 341.858Z" fill="#B9D386"/>
<path d="M303.861 345.469C303.726 332.324 303.481 319.182 303.135 306.039C303.104 304.71 302.036 303.991 300.908 303.891C294.386 292.02 286.622 280.752 277.73 270.24C269.126 260.068 259.581 249.791 247.585 242.846C234.96 235.542 220.11 233.753 205.437 234.093C198.08 234.261 190.732 234.857 183.412 235.495C176.163 236.123 168.799 236.959 161.939 239.307C148.306 243.977 139.083 254.409 130.44 264.618C121.096 275.661 112.752 287.297 106.81 300.2C100.829 313.185 96.9815 326.888 93.6673 340.616C90.413 354.104 87.8448 367.745 86.3008 381.489C83.2518 408.615 84.3695 436.532 93.2774 462.715C94.377 465.956 95.6038 469.16 96.9347 472.326C97.4026 473.44 98.5047 473.885 99.5444 473.828C100.207 474.196 101.052 474.296 101.931 473.905C149.176 452.716 214.55 441.773 265.949 457.975C273.04 460.207 296.754 467.966 296.754 477.955C296.754 480.22 301.345 486.523 301.443 484.315C302.488 461.131 303.219 437.936 303.622 414.735C304.022 391.648 304.102 368.556 303.861 345.469Z" fill="#496822"/>
<path d="M330.335 221.579C335.659 215.965 343.709 216.36 349.768 211.577C353.02 209.012 355.676 205.993 357.717 202.444C358.632 200.85 359.754 198.635 359.094 196.775C359.068 196.7 359.034 196.625 359.001 196.547C358.512 195.481 357.337 194.853 356.126 194.908C353.903 195.013 351.683 195.143 349.469 195.306C347.244 195.466 345.024 195.656 342.812 195.874C340.92 196.059 338.838 196.069 337.018 196.652C335.38 197.173 334.369 198.372 333.4 199.683C332.092 201.463 330.803 203.258 329.503 205.045C326.239 209.535 322.766 213.827 320.065 218.668C317.11 223.976 314.185 229.303 311.308 234.651C311.17 234.907 319.909 250.309 319.831 249.539C321.89 244.222 330.125 221.804 330.335 221.579Z" fill="#FFAB82"/>
<path d="M508.876 673.213C508.952 673.146 509.022 673.081 509.092 673.016C509.575 672.56 500.475 671.431 500.051 671.351C490.756 669.589 483.044 653.999 478.09 646.235C469.239 624.625 461.987 598.88 464.066 575.2C465.769 555.855 469.592 536.653 472.787 517.476C479.134 479.359 485.677 441.265 491.728 403.109C497.608 366.038 503.267 328.637 503.859 291.134C504.158 272.17 502.427 251.621 497.98 233.032C493.894 215.945 484.006 194.978 470.447 182.841C468.079 180.721 452.616 187.547 447.979 189.494C437.659 193.829 429.854 201.568 424.689 210.626C419.129 220.377 416.402 231.187 414.473 241.947C412.178 254.747 410.834 267.67 409.904 280.607C408.024 306.742 407.808 332.98 404.601 359.028C401.554 383.734 395.571 408.052 388.789 432.112C375.538 479.147 349.409 535.557 346.932 584.308C344.457 633.109 357.945 661.232 370.76 678.645C374.734 684.048 381.243 687.195 388.121 687.114C408.175 686.887 428.315 685.362 448.28 683.668C460.687 682.614 503.664 677.849 508.876 673.213Z" fill="#DDE6ED"/>
<path d="M449.557 204.436C449.281 205.37 449.091 206.298 449.008 207.204C449.128 206.919 449.32 205.873 449.557 204.436Z" fill="#492525"/>
<path d="M444.48 467.678C444.522 467.273 395.841 580.571 395.644 580.346C395.779 580.188 395.916 580.03 396.057 579.875C396.982 578.807 395.391 577.26 394.458 578.336C380.593 594.319 365.19 609.036 348.465 622.244C349.739 630.944 350.464 635.009 352.721 641.922C385.571 613.046 435.286 554.801 444.48 467.678Z" fill="#492525"/>
<path d="M471.617 184.085C471.615 184.028 471.617 183.97 471.615 183.913C471.227 183.55 470.843 183.189 470.448 182.841C468.672 181.252 459.546 184.686 453.131 187.327C452.975 187.699 452.811 188.072 452.634 188.448C452.377 189.006 452.12 189.564 451.865 190.127C451.478 191.038 440.433 221.046 445.055 244.836C447.183 226.487 453.609 208.626 457.144 200.254C459.211 195.336 464.23 183.294 479.106 193.511C479.764 191.484 471.685 184.568 471.617 184.085Z" fill="#492525"/>
<path d="M161.024 165.381C161.3 164.848 161.614 164.315 161.955 163.782C162.241 163.907 162.527 164.007 162.815 164.075C162.365 165.386 162.028 166.738 161.859 168.147C161.604 170.312 161.898 172.602 162.722 174.647C159.467 173.05 159.488 168.352 161.024 165.381ZM183.225 167.769C182.76 165.349 182.49 162.896 182.417 160.438C182.352 158.228 182.44 156.018 182.687 153.823C182.859 152.276 183.285 150.491 182.237 149.132C181.239 147.833 179.259 147.523 177.715 147.29C175.83 147.005 173.964 147.012 172.087 147.235C170.426 144.96 168.269 142.885 166.319 140.803C166.329 140.317 166.005 139.849 165.482 139.904C164.926 139.391 164.164 139.847 164.032 140.455C161.287 141.611 158.609 142.898 156.026 144.364C153.798 145.631 149.961 147.906 149.096 150.256C147.648 154.176 150 154.739 151.425 156.128C153.621 158.26 156.205 160.103 158.765 161.81C159.431 162.253 160.198 162.828 161.009 163.299C160.083 164.663 159.335 166.135 159.002 167.744C158.287 171.22 159.831 174.95 163.361 175.991C164.739 178.479 169.048 182.874 171.091 180.516C172.329 179.09 174.803 181.743 175.438 181.818C176.625 181.963 176.789 178.279 177.811 177.73C180.644 177.27 183.345 176.219 183.792 173.075C184.047 171.293 183.56 169.513 183.225 167.769Z" fill="#403E4F"/>
<path d="M227.583 159.679C229.688 157.377 231.344 154.544 232.054 151.54C232.088 151.402 232.114 151.265 232.142 151.127C231.167 148.822 229.912 146.552 227.38 145.831C227.37 145.826 227.362 145.831 227.352 145.826C223.016 143.553 219.746 151.708 218.285 154.323C216.593 157.354 214.857 160.363 213.211 163.416C212.65 164.455 212.104 165.586 211.828 166.748C217.757 165.764 223.442 164.207 227.583 159.679Z" fill="#403E4F"/>
<path d="M175.739 150.974C175.882 150.794 175.625 150.541 175.479 150.719C172.394 154.529 169.129 158.581 168.443 163.511C168.146 165.651 168.339 167.884 169.262 169.871C170.351 172.222 173.426 174.291 172.656 177.15C172.596 177.373 172.953 177.465 173.012 177.242C173.618 174.995 171.988 173.24 170.717 171.548C169.168 169.488 168.547 167.061 168.708 164.535C169.046 159.284 172.508 154.962 175.739 150.974Z" fill="#2A2740"/>
<path d="M216.169 222.092C215.509 212.894 213.222 203.69 210.084 194.998C209.738 194.042 208.787 193.749 207.981 193.929C205.119 193.351 202.362 192.447 199.778 191.118C197.407 189.894 195.489 187.85 192.682 187.907C189.362 187.977 186.149 188.11 182.846 187.614C179.664 187.136 176.571 186.298 173.574 185.172C172.745 184.859 172.105 185.204 171.778 185.767C171.219 185.732 170.642 185.937 170.249 186.513C168.027 189.769 164.276 190.973 160.403 191.511C159.982 191.569 159.68 191.737 159.48 191.969C158.331 192.317 157.559 193.679 158.737 194.57C164.83 199.18 168.57 205.715 172.807 211.815C177.267 218.237 182.373 224.252 188.042 229.715C190.833 232.409 193.732 235.162 196.947 237.384C200.074 239.547 203.492 240.29 207.295 239.765C215.236 238.671 216.619 228.344 216.169 222.092Z" fill="#FFAB82"/>
<path d="M223.304 160.523C223.141 158.048 222.137 155.607 219.897 154.231C219.694 154.103 219.504 154.416 219.707 154.544C221.828 155.845 222.774 158.183 222.928 160.523C223.083 162.866 222.881 165.694 221.48 167.694C220.258 169.436 218.173 170.705 215.935 170.552C213.741 170.407 211.735 168.98 211.114 166.933C211.049 166.708 210.682 166.803 210.75 167.028C211.376 169.098 213.302 170.575 215.504 170.872C217.804 171.19 220.053 170.067 221.454 168.345C223.182 166.22 223.479 163.131 223.304 160.523Z" fill="#F2F3F7"/>
<path d="M219.429 155.545C219.286 155.36 218.958 155.542 219.104 155.73C220.531 157.597 220.832 160.148 220.136 162.35C219.759 163.539 218.984 164.643 217.791 165.191C216.453 165.807 214.818 165.451 214.043 164.195C213.918 163.995 213.593 164.175 213.718 164.378C215.202 166.785 218.503 165.904 219.842 163.857C221.428 161.437 221.168 157.82 219.429 155.545Z" fill="#7B9ABA"/>
<path d="M200.344 172.587C201.109 165.541 195.853 159.197 192.494 153.325C188.419 146.207 184.616 138.951 181.062 131.577C180.428 130.263 178.57 131.134 178.655 132.376C178.484 132.563 178.359 132.804 178.32 133.099C177.626 138.16 178.141 143.311 177.751 148.402C177.353 153.593 176.508 158.741 175.567 163.867C173.756 173.751 171.57 183.284 167.023 192.392C166.945 192.548 166.906 192.703 166.891 192.85C166.888 192.858 166.886 192.866 166.883 192.871C168.57 193.989 170.267 195.083 172.152 195.881C174.632 196.935 177.361 197.588 180.046 197.894C184.902 198.449 190.054 198.044 194.55 196.114C195.811 188.403 197.75 180.827 200.37 173.436C200.487 173.11 200.456 172.82 200.344 172.587Z" fill="#FFAB82"/>
<path d="M200.37 173.436C199.079 177.082 197.953 180.779 196.994 184.511C184.322 178.679 182.05 160.934 181.821 155.104C181.871 154.716 182.581 153.513 182.503 153.112C182.469 151.025 178.837 149.991 179.022 147.976C179.095 147.175 178.754 146.432 178.206 145.854C178.136 145.621 178.032 145.406 177.896 145.205C177.977 141.163 177.772 137.104 178.32 133.099C178.359 132.804 178.484 132.563 178.655 132.376C178.57 131.134 180.428 130.263 181.062 131.577C184.616 138.951 188.419 146.207 192.494 153.325C195.853 159.197 201.109 165.541 200.344 172.587C200.456 172.82 200.487 173.11 200.37 173.436Z" fill="#DE775F"/>
<path d="M226.348 119.338C224.937 116.332 222.473 114.062 218.42 113.294C211.049 111.899 203.089 111.481 195.837 113.679C191.195 115.088 187.116 117.876 183.937 121.4C181.494 124.109 179.149 127.2 178.128 130.701C176.956 134.718 178.96 137.507 179.823 141.301C180.823 145.701 180.046 150.344 180.727 154.804C181.445 159.53 182.963 163.992 185.619 168.039C190.132 174.927 200.131 185.65 208.483 176.99C218.09 167.026 223.323 153.422 226.385 140.377C227.721 134.693 229.236 125.483 226.348 119.338Z" fill="#FFAB82"/>
<path d="M483.855 199.02C483.283 196.832 474.77 183.55 470.848 181.825C463.125 178.436 396.611 162.746 356.575 166.265C336.545 168.024 332.394 193.924 331.149 208.318C325.225 276.742 339.628 352.312 332.973 420.854C324.549 507.687 270.134 612.495 172.96 631.845C152.47 635.923 131.371 636.961 110.498 636.155C87.8838 635.282 66.7434 626.376 45.2676 621.206C43.1491 620.697 163.543 684.977 212.811 685.505C312.605 686.571 392.147 612.633 426.563 527.675C428.052 524.001 429.471 520.299 430.818 516.572C449.388 465.348 454.511 410.6 452.647 356.64C450.877 305.508 436.497 251.466 452.005 201.43C463.058 165.754 484.411 201.14 483.855 199.02Z" fill="#F2F3F7"/>
<path d="M425.107 204.612C420.085 203.375 415.053 202.136 409.945 201.308C404.962 200.497 399.961 200.284 394.926 200.034C389.772 199.776 384.752 199.2 379.798 197.764C374.984 196.369 370.292 194.65 365.307 193.882C359.71 193.021 354.028 193.028 348.385 193.043C348.122 193.043 348.122 193.434 348.385 193.434C353.43 193.424 358.507 193.411 363.523 194.027C368.608 194.655 373.378 196.227 378.238 197.711C382.951 199.148 387.666 199.979 392.597 200.294C397.767 200.627 402.948 200.684 408.089 201.418C413.803 202.236 419.404 203.613 424.998 204.987C425.25 205.05 425.359 204.672 425.107 204.612Z" fill="#492525"/>
<path d="M417.104 245.561C412.37 244.803 407.629 244.047 402.846 243.672C398.188 243.304 393.556 243.489 388.896 243.639C384.121 243.794 379.444 243.649 374.758 242.7C370.204 241.782 365.738 240.55 361.078 240.225C355.848 239.857 350.61 240.298 345.401 240.741C345.162 240.758 345.19 241.121 345.435 241.101C350.093 240.706 354.766 240.31 359.445 240.493C364.189 240.686 368.712 241.774 373.315 242.771C377.781 243.737 382.197 244.142 386.769 244.057C391.565 243.972 396.345 243.629 401.146 243.912C406.483 244.232 411.765 245.073 417.034 245.917C417.273 245.957 417.343 245.599 417.104 245.561Z" fill="#492525"/>
<path d="M420.179 289.319C415.396 289.007 410.603 288.694 405.804 288.764C401.131 288.834 396.54 289.45 391.914 290.033C387.18 290.631 382.507 290.919 377.75 290.413C373.123 289.92 368.556 289.114 363.882 289.222C358.642 289.342 353.472 290.268 348.333 291.192C348.094 291.234 348.161 291.592 348.401 291.55C352.999 290.721 357.613 289.893 362.289 289.642C367.025 289.39 371.636 290.05 376.32 290.616C380.861 291.162 385.298 291.157 389.837 290.646C394.604 290.115 399.332 289.327 404.136 289.162C409.477 288.984 414.819 289.332 420.15 289.682C420.392 289.697 420.423 289.335 420.179 289.319Z" fill="#492525"/>
<path d="M426.355 340.031C421.569 339.718 416.776 339.405 411.978 339.472C407.304 339.54 402.714 340.158 398.087 340.741C393.351 341.342 388.68 341.627 383.92 341.122C379.296 340.631 374.729 339.825 370.058 339.933C364.815 340.051 359.645 340.977 354.506 341.903C354.267 341.945 354.335 342.301 354.574 342.258C359.172 341.432 363.783 340.601 368.462 340.353C373.198 340.101 377.809 340.761 382.493 341.325C387.034 341.873 391.472 341.865 396.013 341.357C400.777 340.824 405.505 340.036 410.309 339.875C415.653 339.695 420.992 340.043 426.324 340.391C426.565 340.409 426.596 340.046 426.355 340.031Z" fill="#492525"/>
<path d="M426.355 362.682C421.569 362.366 416.776 362.054 411.978 362.124C407.304 362.194 402.714 362.807 398.087 363.39C393.351 363.991 388.68 364.279 383.92 363.771C379.296 363.283 374.729 362.474 370.058 362.582C364.815 362.702 359.645 363.625 354.506 364.552C354.267 364.594 354.335 364.949 354.574 364.909C359.172 364.081 363.783 363.253 368.462 363.002C373.198 362.749 377.809 363.413 382.493 363.976C387.034 364.521 391.472 364.514 396.013 364.006C400.777 363.473 405.505 362.687 410.309 362.524C415.653 362.344 420.992 362.692 426.324 363.04C426.565 363.057 426.596 362.694 426.355 362.682Z" fill="#492525"/>
<path d="M426.355 392.844C421.601 392.238 416.839 391.63 412.043 391.402C407.377 391.182 402.753 391.515 398.097 391.813C393.333 392.116 388.654 392.116 383.936 391.315C379.353 390.541 374.849 389.453 370.178 389.272C364.94 389.07 359.721 389.673 354.53 390.276C354.288 390.306 354.332 390.667 354.574 390.637C359.214 390.096 363.877 389.553 368.558 389.593C373.305 389.635 377.861 390.579 382.499 391.43C386.993 392.256 391.42 392.521 395.989 392.296C400.777 392.058 405.547 391.565 410.353 391.698C415.698 391.848 421.003 392.529 426.3 393.204C426.537 393.232 426.594 392.877 426.355 392.844Z" fill="#492525"/>
<path d="M426.189 420.106C421.489 419.182 416.781 418.256 412.017 417.708C407.377 417.175 402.737 417.197 398.074 417.18C393.299 417.165 388.631 416.852 383.983 415.738C379.468 414.655 375.052 413.27 370.407 412.775C365.195 412.222 359.944 412.474 354.722 412.73C354.48 412.742 354.499 413.105 354.74 413.093C359.409 412.862 364.098 412.635 368.766 412.988C373.497 413.345 377.976 414.592 382.54 415.756C386.962 416.877 391.36 417.443 395.935 417.523C400.731 417.608 405.524 417.433 410.307 417.891C415.627 418.399 420.873 419.433 426.103 420.461C426.342 420.509 426.425 420.153 426.189 420.106Z" fill="#492525"/>
<path d="M422.191 444.597C417.553 443.41 412.914 442.221 408.188 441.405C403.587 440.609 398.958 440.369 394.302 440.091C389.535 439.806 384.895 439.228 380.326 437.856C375.881 436.522 371.558 434.89 366.952 434.132C361.782 433.283 356.526 433.241 351.299 433.203C351.052 433.201 351.049 433.564 351.294 433.566C355.967 433.601 360.664 433.636 365.304 434.255C369.998 434.878 374.397 436.375 378.883 437.791C383.227 439.165 387.586 439.974 392.145 440.312C396.93 440.665 401.726 440.765 406.472 441.49C411.752 442.299 416.924 443.625 422.084 444.947C422.321 445.005 422.425 444.657 422.191 444.597Z" fill="#492525"/>
<path d="M417.221 471.998C412.596 470.789 407.959 469.573 403.241 468.734C398.643 467.919 394.014 467.656 389.358 467.353C384.596 467.043 379.956 466.442 375.392 465.048C370.963 463.689 366.645 462.032 362.042 461.256C356.877 460.382 351.621 460.312 346.394 460.245C346.152 460.242 346.147 460.605 346.386 460.608C351.062 460.665 355.757 460.723 360.391 461.366C365.088 462.017 369.476 463.536 373.955 464.975C378.293 466.367 382.644 467.2 387.201 467.563C391.984 467.939 396.779 468.061 401.523 468.812C406.797 469.646 411.962 470.997 417.117 472.346C417.353 472.409 417.457 472.058 417.221 471.998Z" fill="#492525"/>
<path d="M408.461 504.641C403.946 503.089 399.423 501.532 394.786 500.346C390.271 499.19 385.675 498.579 381.056 497.931C376.33 497.272 371.758 496.324 367.319 494.594C363.006 492.91 358.837 490.938 354.311 489.821C349.232 488.565 343.997 488.102 338.791 487.646C338.549 487.626 338.513 487.987 338.754 488.007C343.412 488.417 348.086 488.823 352.656 489.806C357.288 490.805 361.54 492.647 365.886 494.414C370.102 496.129 374.373 497.282 378.891 497.981C383.624 498.717 388.394 499.192 393.065 500.293C398.259 501.52 403.299 503.249 408.328 504.979C408.56 505.059 408.692 504.719 408.461 504.641Z" fill="#492525"/>
<path d="M398.305 531.229C393.866 529.482 389.416 527.735 384.836 526.353C380.378 525.004 375.818 524.201 371.236 523.355C366.544 522.491 362.016 521.353 357.665 519.433C353.435 517.568 349.362 515.421 344.891 514.109C339.875 512.638 334.666 511.954 329.485 511.278C329.246 511.246 329.191 511.606 329.433 511.634C334.068 512.24 338.718 512.848 343.241 514.027C347.818 515.22 351.982 517.243 356.245 519.193C360.373 521.087 364.589 522.421 369.068 523.312C373.765 524.246 378.509 524.927 383.123 526.228C388.256 527.672 393.211 529.62 398.155 531.559C398.381 531.649 398.529 531.317 398.305 531.229Z" fill="#492525"/>
<path d="M422.635 312.351C417.847 312.036 413.056 311.723 408.258 311.793C403.582 311.863 398.991 312.479 394.367 313.064C389.631 313.66 384.96 313.948 380.201 313.445C375.577 312.952 371.007 312.143 366.333 312.251C361.09 312.374 355.923 313.297 350.787 314.221C350.547 314.266 350.612 314.621 350.852 314.579C355.447 313.75 360.064 312.922 364.74 312.671C369.476 312.419 374.087 313.082 378.771 313.645C383.312 314.193 387.749 314.183 392.293 313.675C397.058 313.142 401.781 312.356 406.587 312.193C411.928 312.013 417.27 312.361 422.601 312.709C422.84 312.726 422.874 312.364 422.635 312.351Z" fill="#492525"/>
<path d="M417.153 269.719C412.402 269.091 407.642 268.46 402.849 268.215C398.183 267.972 393.556 268.283 388.901 268.558C384.134 268.843 379.452 268.823 374.742 268.002C370.162 267.204 365.663 266.095 360.994 265.895C355.757 265.67 350.535 266.25 345.341 266.831C345.099 266.859 345.141 267.219 345.383 267.194C350.025 266.671 354.688 266.148 359.372 266.21C364.116 266.273 368.67 267.236 373.305 268.11C377.794 268.953 382.221 269.241 386.788 269.034C391.581 268.818 396.353 268.345 401.154 268.5C406.501 268.676 411.804 269.376 417.093 270.077C417.332 270.107 417.395 269.752 417.153 269.719Z" fill="#492525"/>
<path d="M416.865 224.327C412.196 223.268 407.525 222.209 402.776 221.526C398.155 220.863 393.52 220.75 388.857 220.6C384.084 220.452 379.426 220.002 374.815 218.758C370.336 217.546 365.962 216.037 361.332 215.409C356.144 214.708 350.885 214.811 345.661 214.918C345.419 214.923 345.424 215.284 345.666 215.284C350.342 215.186 355.034 215.089 359.689 215.574C364.407 216.07 368.844 217.444 373.37 218.735C377.757 219.984 382.137 220.675 386.704 220.88C391.5 221.106 396.296 221.068 401.061 221.659C406.363 222.317 411.575 223.501 416.771 224.68C417.01 224.732 417.101 224.379 416.865 224.327Z" fill="#492525"/>
<path d="M430.771 185.98C426.176 184.669 421.569 183.355 416.867 182.413C412.295 181.497 407.671 181.132 403.026 180.729C398.269 180.316 393.647 179.618 389.117 178.123C384.716 176.669 380.443 174.922 375.855 174.044C370.713 173.058 365.463 172.872 360.233 172.695C359.994 172.687 359.978 173.048 360.222 173.058C364.891 173.218 369.585 173.38 374.204 174.119C378.886 174.87 383.234 176.484 387.679 178.021C391.981 179.508 396.314 180.434 400.866 180.892C405.633 181.375 410.429 181.602 415.152 182.451C420.405 183.402 425.539 184.866 430.662 186.325C430.891 186.391 431.005 186.045 430.771 185.98Z" fill="#492525"/>
<path d="M417.637 171.746C422.36 172.572 427.116 173.14 431.764 174.332C436.929 175.653 441.935 177.48 446.926 179.305C447.155 179.39 447.295 179.052 447.069 178.969C442.585 177.33 438.093 175.691 433.482 174.414C428.991 173.173 424.405 172.474 419.807 171.739C415.547 171.06 411.411 170.144 407.403 168.63C406.92 168.567 406.431 168.502 405.947 168.44C409.727 169.959 413.579 171.04 417.637 171.746Z" fill="#492525"/>
<path d="M211.503 144.405C211.262 147.365 210.859 150.311 210.396 153.245C210.212 154.414 210.191 155.843 209.634 156.914C208.914 158.318 207.217 157.855 205.897 158.083C205.66 158.125 205.761 158.473 205.998 158.433C207.16 158.231 208.6 158.596 209.53 157.71C210.396 156.889 210.419 155.455 210.594 154.384C211.129 151.07 211.605 147.748 211.88 144.405C211.898 144.172 211.522 144.172 211.503 144.405Z" fill="#DE775F"/>
<path d="M217.401 145.383C214.909 145.688 214.594 151.377 216.772 150.962C218.891 150.557 219.855 145.085 217.401 145.383Z" fill="#2B1A17"/>
<path d="M199.739 141.867C196.887 142.385 196.809 148.216 199.289 147.611C201.704 147.018 202.543 141.353 199.739 141.867Z" fill="#2B1A17"/>
<path d="M206.362 156.596C205.242 156.461 204.137 156.476 203.019 156.631C202.78 156.664 202.881 157.015 203.118 156.98C204.202 156.83 205.278 156.83 206.362 156.963C206.601 156.99 206.598 156.624 206.362 156.596Z" fill="#DE775F"/>
<path d="M197.329 164.23C198.881 164.285 200.555 164.721 201.969 165.121C203.383 165.516 204.631 165.779 206.112 165.567C206.895 165.449 207.602 165.334 208.384 165.366C208.595 164.806 208.527 164.235 207.841 163.89C206.669 163.301 205.309 164.167 204.095 163.634C203.001 163.154 202.245 162.643 200.979 162.761C200.191 162.836 199.44 163.094 198.715 163.389C198.382 163.527 197.696 163.797 197.324 164.045C197.256 164.09 197.267 164.185 197.329 164.23Z" fill="#DE775F"/>
<path d="M205.158 167.216C204.238 167.566 203.44 167.298 202.525 167.126C201.873 167.003 201.226 166.981 200.563 167.036C200.321 167.056 200.321 167.416 200.563 167.396C202.146 167.263 203.739 168.144 205.26 167.566C205.483 167.481 205.385 167.128 205.158 167.216Z" fill="#DE775F"/>
<path d="M206.887 135.99C206.9 135.399 206.406 134.948 205.751 134.696C205.143 134.46 204.462 134.433 203.804 134.46C202.024 134.528 200.238 134.931 198.499 135.529C197.641 135.827 196.809 136.192 195.967 136.553C195.504 136.751 194.678 136.938 194.491 137.566C194.02 139.163 204.431 139.343 206.422 137.011C206.739 136.638 206.879 136.295 206.887 135.99Z" fill="#403E4F"/>
<path d="M222.013 141.151C220.336 139.762 216.64 138.918 215.023 140.793C214.815 141.038 214.636 141.341 214.641 141.669C214.646 141.972 214.815 142.257 215.046 142.45C215.735 143.02 216.692 142.798 217.521 142.828C218.966 142.875 220.349 143.171 221.766 143.418C223.502 143.721 222.883 141.874 222.013 141.151Z" fill="#403E4F"/>
<path d="M209.512 134.443C209.429 134.228 209.065 134.323 209.148 134.538C209.783 136.202 209.034 137.762 207.963 139.063C207.815 139.248 208.078 139.506 208.228 139.321C209.385 137.917 210.196 136.232 209.512 134.443Z" fill="#DE775F"/>
<path d="M201.899 135.537C196.339 139.529 189.544 141.281 182.833 142.74C183.55 141.984 184.278 141.246 185.024 140.517C190.633 139.389 196.297 138.08 201.319 135.391C202.356 134.838 203.341 134.225 204.28 133.554C203.542 134.26 202.751 134.926 201.899 135.537ZM214.636 122.644C215.085 123.533 215.792 124.654 215.943 124.979C216.554 126.301 217.139 127.637 217.7 128.979C218.818 131.665 219.827 134.388 220.729 137.143C221.628 139.904 222.421 142.695 223.099 145.508C223.398 146.737 224.531 160.926 225.532 162.097C226.286 161.509 227.003 160.851 227.679 160.115C229.746 157.855 231.368 155.079 232.064 152.136C233.182 147.403 233.938 143.841 233.034 139.188C232.405 135.962 231.643 132.711 231.256 129.445C230.46 122.757 225.797 114.95 221.438 109.599C216.762 103.86 210.323 100.511 202.944 98.9168C201.311 98.5664 199.658 98.296 198 98.0858C184.689 96.4114 170.382 99.7652 163.982 112.117C160.814 118.234 158.81 125.057 158.937 131.84C159.02 136.227 160.055 140.865 162.134 144.865C163.928 148.311 168.313 153.107 174.502 149.455C175.578 148.819 175.84 151.543 176.61 150.662C177.808 149.28 178.125 148.124 179.292 146.72C179.906 145.979 180.537 145.25 181.177 144.532C188.92 142.885 196.926 141.07 203.269 136.292C206.497 133.862 212.912 124.249 213.741 122.644C214.16 122.644 214.22 122.644 214.636 122.644Z" fill="#403E4F"/>
<path d="M194.382 130.493C190.823 133.76 187.14 136.896 183.337 139.894C183.152 140.039 183.415 140.29 183.597 140.147C187.4 137.146 191.086 134.01 194.642 130.746C194.816 130.586 194.553 130.336 194.382 130.493Z" fill="#2A2740"/>
<path d="M175.926 144.39C173.465 144.114 171.713 141.754 170.676 139.779C169.644 137.814 169.129 135.612 169.03 133.422C168.817 128.574 170.707 123.921 173.015 119.701C173.124 119.501 172.807 119.321 172.695 119.523C170.182 124.121 168.162 129.257 168.747 134.538C168.996 136.781 169.685 138.998 170.917 140.926C172.043 142.685 173.675 144.492 175.926 144.742C176.163 144.77 176.16 144.412 175.926 144.39Z" fill="#2A2740"/>
<path d="M174.231 149.428C171.65 151.055 168.638 151.157 166.275 149.125C164.245 147.38 162.482 145.16 161.645 142.65C161.575 142.432 161.219 142.525 161.292 142.742C161.905 144.595 163.031 146.379 164.424 147.881C164.266 148.875 163.002 149.783 162.144 150.204C161.04 150.744 159.698 150.779 158.843 149.806C158.69 149.628 158.43 149.881 158.581 150.056C159.457 151.055 160.886 151.147 162.074 150.627C163.093 150.189 164.375 149.295 164.72 148.196C165.09 148.574 165.472 148.93 165.867 149.265C165.864 149.275 165.856 149.282 165.854 149.293C165.266 151.035 163.338 152.469 161.794 153.425C159.927 154.586 157.382 155.077 155.727 153.28C152.285 149.543 158.222 145.526 161.432 144.402C161.653 144.322 161.557 143.976 161.333 144.056C157.905 145.258 151.734 149.59 155.467 153.53C157.026 155.179 159.397 155.104 161.313 154.116C163.163 153.157 165.43 151.488 166.163 149.508C166.275 149.598 166.387 149.688 166.501 149.771C168.911 151.593 171.949 151.292 174.419 149.736C174.616 149.613 174.432 149.303 174.231 149.428Z" fill="#2A2740"/>
<path d="M172.836 151.055C169.191 154.121 166.459 157.978 163.774 161.815C163.642 162.002 163.961 162.182 164.094 161.992C166.761 158.18 169.477 154.353 173.095 151.307C173.275 151.155 173.012 150.904 172.836 151.055Z" fill="#2A2740"/>
<path d="M174.79 157.197C173.42 160.24 172.038 163.522 173.106 166.853C173.174 167.073 173.532 166.983 173.462 166.763C172.422 163.522 173.779 160.328 175.11 157.377C175.204 157.167 174.886 156.987 174.79 157.197Z" fill="#2A2740"/>
<path d="M201.862 108.641C197.477 110.528 193.779 113.782 191.488 117.851C190.16 120.214 189.284 122.787 187.974 125.167C186.711 127.457 185.307 129.677 184.138 132.018C182.934 134.425 182.022 136.953 181.822 139.631C181.806 139.862 182.175 139.862 182.193 139.631C182.669 133.229 187.194 128.111 189.773 122.419C191.106 119.478 192.323 116.685 194.551 114.245C196.625 111.977 199.185 110.177 202.05 108.948C202.265 108.853 202.076 108.548 201.862 108.641Z" fill="#2A2740"/>
<path d="M183.456 121.678C182.157 124.301 181.556 127.142 181.705 130.043C181.715 130.271 182.084 130.271 182.074 130.043C181.928 127.205 182.503 124.421 183.776 121.858C183.878 121.653 183.558 121.473 183.456 121.678Z" fill="#2A2740"/>
<path d="M184.158 145.478C184.039 143.158 183.836 140.743 182.812 138.678C181.918 136.871 180.225 135.314 177.912 135.627C172.095 136.408 173.186 145.343 174.549 148.777C175.274 150.604 176.376 152.807 178.294 153.823C180.098 154.774 182.339 154.366 183.446 152.716C184.491 151.155 184.353 149.225 184.254 147.468C184.218 146.822 184.189 146.154 184.158 145.478Z" fill="#FFAB82"/>
<path d="M182.747 145.964C182.022 144.229 181.278 142.462 180.051 140.988C179.326 140.12 177.735 138.6 176.654 139.917C176.506 140.097 176.771 140.357 176.922 140.175C177.842 139.053 179.061 140.182 180.119 141.754C179.129 141.176 177.858 141.446 177.2 142.452C177.073 142.65 177.397 142.833 177.525 142.637C178.151 141.676 179.685 141.596 180.524 142.392C180.595 142.457 182.178 145.568 182.383 146.059C182.474 146.269 182.838 146.179 182.747 145.964Z" fill="#DE775F"/>
<path d="M180.894 151.618C180.894 151.618 180.894 151.618 180.891 151.615C180.782 151.503 180.675 151.385 180.556 151.277C180.376 151.12 180.109 151.377 180.288 151.535C180.506 151.728 180.712 151.933 180.904 152.151C180.914 152.161 180.927 152.171 180.938 152.176C183.173 154.418 184.039 157.607 183.802 160.673C183.55 163.97 181.598 167.101 177.774 166.855C174.19 166.63 171.882 163.629 171.487 160.38C171.078 157.001 172.638 153.805 174.603 151.1C174.619 151.087 174.632 151.077 174.645 151.055C174.806 150.804 175.003 150.587 175.237 150.394C175.425 150.241 175.154 149.988 174.972 150.139C174.79 150.286 174.634 150.456 174.494 150.644C174.478 150.654 174.46 150.664 174.447 150.684C172.609 153.162 171.084 156.038 171.047 159.151C171.016 161.667 171.988 164.342 174.114 165.914C176.028 167.331 178.876 167.716 181.021 166.552C183.412 165.258 184.161 162.433 184.213 159.972C184.28 156.894 183.251 153.77 180.894 151.618Z" fill="#F2F3F7"/>
<path d="M179.971 151.901C179.833 151.713 179.505 151.89 179.646 152.083C180.652 153.465 181.161 155.104 181.062 156.794C180.959 158.523 180.145 161.046 178.016 161.214C175.456 161.414 174.673 158.924 174.601 156.936C174.533 155.159 175.055 153.44 176.051 151.951C176.184 151.753 175.859 151.573 175.726 151.768C174.52 153.572 173.987 155.74 174.312 157.872C174.616 159.882 175.64 161.707 178.016 161.574C180.044 161.464 181.031 159.367 181.333 157.687C181.697 155.66 181.195 153.58 179.971 151.901Z" fill="#7B9ABA"/>
<path d="M186.181 160.5C186.846 155.354 188.413 150.341 189.024 145.185C189.328 142.62 189.336 140.044 189.323 137.466C187.472 138.182 185.848 139.353 183.93 139.914C183.646 143.934 182.934 147.323 182.284 151.322C181.458 156.446 180.197 161.524 179.971 166.715C179.859 169.296 180.114 171.648 180.683 173.913C181.348 176.549 182.44 179.064 183.883 181.677C186.253 185.972 188.112 190.302 188.988 194.92C189.123 195.634 190.181 195.641 190.314 194.925C190.553 193.664 190.667 192.377 190.641 191.078C190.566 187.134 189.035 183.374 187.821 179.66C185.835 173.591 185.065 166.855 186.181 160.5Z" fill="#403E4F"/>
<path d="M200.446 100.516C200.217 100.449 200.118 100.789 200.344 100.859C206.767 102.791 211.74 108.167 213.014 114.522C213.058 114.745 213.414 114.65 213.367 114.425C212.073 107.952 206.981 102.483 200.446 100.516Z" fill="#2A2740"/>
<path d="M213.289 201.178C195.957 212.491 169.649 199.115 169.482 199.143C166.927 196.55 174.424 206.919 175.357 208.296C182.289 218.513 187.556 231.473 200.059 236.563C202.172 237.424 205.522 238.796 207.753 237.617C210.219 236.308 211.321 232.601 212.143 230.214C214.5 223.371 215.182 215.927 216.362 208.836C216.525 207.86 214.178 200.597 213.289 201.178Z" fill="#7B9ABA"/>
<path d="M219.886 112.257C218.496 110.415 215.774 109.892 213.77 111.116C213.57 111.239 213.754 111.549 213.955 111.426C215.779 110.307 218.293 110.745 219.569 112.437C219.707 112.618 220.027 112.44 219.886 112.257Z" fill="#2A2740"/>
<path d="M246.259 336.456C244.887 331.353 247.055 334.97 246.844 329.536C246.761 327.353 246.691 324.21 246.496 322.29C246.27 320.083 245.204 319.842 243.462 319.409C242.88 319.284 242.43 319.234 241.82 319.354C236.127 320.468 230.398 320.636 224.596 320.761C218.555 320.888 212.595 320.981 206.549 321.091C194.532 321.309 182.674 320.991 170.657 319.672C169.015 319.494 166.94 319.892 167.083 322.568C167.224 325.244 166.823 330.467 167.125 333.501C153.25 363.846 152.555 397.074 150.905 430.267C149.967 449.164 148.443 515.203 148.061 528.611C146.13 562.195 146.094 650.192 145.883 663.402C145.841 665.997 182.684 668.558 188.632 666.143C188.975 666.003 201.192 591.384 207.898 541.028C209.07 571.003 209.972 648.047 212.626 668.408C212.917 670.64 223.51 670.988 224.716 670.858C230.757 670.207 252.698 673.822 253.654 667.074C261.78 609.835 256.212 415.768 255.794 397.78C255.5 385.243 251.372 355.448 246.259 336.456Z" fill="#B9D386"/>
<path d="M211.68 369.853C220.118 369.064 228.618 369.883 237.037 368.846C242.191 368.213 247.247 367.084 252.248 365.75C252.23 365.63 252.209 365.513 252.191 365.39C248.167 366.466 244.11 367.41 239.984 368.065C235.75 368.739 231.495 369.032 227.206 369.064C222.993 369.094 218.774 368.979 214.565 369.257C210.466 369.527 206.396 370.088 202.307 370.478C198.145 370.881 193.968 371.164 189.789 371.329C181.489 371.657 173.168 371.517 164.884 370.919C161.944 370.709 159.01 370.431 156.08 370.1C156.059 370.218 156.039 370.338 156.018 370.456C166.132 371.592 176.332 372.048 186.516 371.795C190.698 371.692 194.878 371.472 199.047 371.132C203.266 370.789 207.464 370.251 211.68 369.853Z" fill="#FFAE45"/>
<path d="M174.746 320.458L174.556 320.45L174.546 320.631C173.501 336.089 170.327 351.566 167.257 366.536C165.914 373.084 164.525 379.852 163.335 386.524C159.337 408.935 156.496 433.036 154.653 460.205C152.875 486.422 152.244 512.517 151.859 534.588C151.711 543.15 151.589 551.863 151.472 560.288C151.251 576.306 151.019 592.873 150.585 609.159C150.026 630.201 149.197 648.004 148.001 664.518C148.121 664.548 148.243 664.581 148.373 664.613C149.571 648.077 150.401 630.249 150.962 609.167C151.396 592.878 151.628 576.311 151.848 560.29C151.965 551.868 152.088 543.158 152.236 534.593C152.62 512.527 153.252 486.44 155.03 460.23C156.873 433.073 159.712 408.983 163.707 386.587C164.895 379.919 166.283 373.151 167.627 366.606C170.686 351.684 173.852 336.256 174.91 320.833C176.381 320.918 177.899 320.986 179.422 321.036L179.415 321.131C179.391 321.512 179.365 321.89 179.337 322.27C178.13 338.088 174.892 353.919 171.762 369.224C170 377.849 168.178 386.762 166.738 395.575C163.098 417.868 160.551 442.061 158.958 469.538C157.505 494.564 156.967 520.099 156.603 543.966C156.52 549.363 156.444 554.759 156.369 560.158C156.104 579.295 155.828 599.08 155.204 618.533C154.656 635.66 153.871 651.073 152.815 665.432C152.938 665.452 153.06 665.469 153.187 665.487C154.245 651.115 155.03 635.687 155.581 618.545C156.205 599.09 156.481 579.3 156.746 560.16C156.821 554.764 156.896 549.368 156.98 543.971C157.344 520.106 157.882 494.577 159.332 469.555C160.928 442.096 163.473 417.913 167.109 395.632C168.549 386.827 170.371 377.914 172.134 369.297C175.266 353.979 178.502 338.138 179.711 322.295C179.742 321.915 179.765 321.534 179.791 321.156L179.823 320.688L179.628 320.683C177.977 320.628 176.334 320.556 174.746 320.458Z" fill="#9E4B2B"/>
<path d="M194.2 321.106C190.007 343.84 186.661 367.843 183.984 394.451C181.788 416.284 180.028 440.094 178.448 469.385C177.46 487.704 176.638 506.338 175.846 524.356C175.552 531.066 175.256 537.774 174.954 544.482C173.87 568.352 172.604 594.007 170.689 619.889C169.451 636.566 168.045 651.949 166.405 666.741C166.53 666.746 166.654 666.756 166.782 666.763C168.422 651.974 169.828 636.588 171.063 619.914C172.981 594.027 174.247 568.367 175.328 544.497C175.632 537.789 175.929 531.081 176.223 524.374C177.015 506.355 177.837 487.719 178.824 469.405C180.405 440.116 182.162 416.311 184.358 394.486C187.038 367.865 190.384 343.855 194.582 321.111C194.454 321.109 194.327 321.109 194.2 321.106Z" fill="#9E4B2B"/>
<path d="M161.931 666.423C163.889 648.815 165.537 630.013 166.945 609.152C168.661 583.777 169.844 558.15 170.909 534.075L171.331 524.574C172.274 503.079 173.251 480.851 174.525 459.001C176.191 430.345 178.112 406.505 180.576 383.979C183.028 361.53 185.996 340.922 189.64 320.994C189.516 320.986 189.388 320.984 189.261 320.979C185.617 340.902 182.651 361.503 180.2 383.941C177.738 406.475 175.814 430.32 174.148 458.981C172.877 480.833 171.897 503.062 170.954 524.559L170.535 534.06C169.467 558.133 168.284 583.755 166.569 609.129C165.16 629.988 163.514 648.79 161.557 666.393C161.682 666.403 161.807 666.415 161.931 666.423Z" fill="#9E4B2B"/>
<path d="M209.866 355.771C209.242 365.925 208.415 376.245 207.617 386.226C207.298 390.231 206.975 394.238 206.666 398.243L185.965 666.726C186.095 666.708 186.222 666.691 186.347 666.673L207.043 398.27C207.352 394.266 207.672 390.259 207.992 386.254C208.792 376.272 209.616 365.951 210.243 355.791C211.108 341.748 211.062 330.97 210.1 321.029C209.972 321.031 209.848 321.034 209.72 321.034C210.685 330.965 210.731 341.735 209.866 355.771Z" fill="#9E4B2B"/>
<path d="M181.042 667.066L202.46 389.323C202.767 385.343 203.115 381.273 203.453 377.344C205.034 358.862 206.666 339.758 204.787 321.116C204.662 321.121 204.535 321.124 204.407 321.124C206.289 339.74 204.659 358.84 203.076 377.314C202.738 381.246 202.39 385.313 202.083 389.295L180.665 667.074C180.79 667.071 180.92 667.066 181.042 667.066Z" fill="#9E4B2B"/>
<path d="M236.886 394.133C238.539 365.79 237.585 343.119 233.884 322.788L233.858 322.635L233.694 322.641C232.782 322.673 231.872 322.698 230.962 322.728L228.553 322.803L228.592 323.008C233.018 346.653 231.318 420.311 229.52 498.294C227.965 565.636 226.359 635.224 229.01 670.688C229.132 670.688 229.26 670.685 229.387 670.685C226.736 635.247 228.342 565.649 229.896 498.301C231.69 420.524 233.385 347.049 229 323.151L230.973 323.091C231.828 323.063 232.686 323.038 233.543 323.008C237.214 343.272 238.155 365.873 236.509 394.113C235.059 418.982 231.651 622.853 233.957 670.66C234.084 670.66 234.209 670.66 234.336 670.655C232.028 622.89 235.436 419.002 236.886 394.133Z" fill="#9E4B2B"/>
<path d="M219.91 430.908C219.884 431.033 219.85 431.158 219.824 431.284C219.824 431.286 219.824 431.286 219.824 431.286C219.717 431.984 219.621 432.688 219.502 433.384C219.483 433.844 219.468 434.305 219.463 434.77C219.46 434.93 219.452 435.083 219.434 435.233C217.952 501.963 216.315 630.091 217.934 670.465C218.059 670.483 218.186 670.5 218.314 670.518C216.653 629.33 218.405 496.284 219.91 430.908Z" fill="#9E4B2B"/>
<path d="M214.079 496.244C214.022 496.466 213.97 496.694 213.908 496.917C213.858 497.095 213.796 497.262 213.729 497.425C213.708 497.513 213.69 497.598 213.671 497.688C213.648 498.656 213.627 499.63 213.604 500.601C212.109 565.394 210.565 632.266 212.814 668.821C212.91 668.948 213.045 669.066 213.211 669.179C210.932 632.724 212.481 565.621 213.981 500.609C214.014 499.152 214.048 497.698 214.079 496.244Z" fill="#9E4B2B"/>
<path d="M244.143 319.582C243.93 319.524 243.704 319.467 243.462 319.409C243.403 319.394 243.345 319.389 243.291 319.377C241.97 319.612 240.588 319.805 239.069 319.957L238.864 319.977L238.906 320.173C249.165 369.452 248.913 420.076 247.868 463.658C247.637 473.322 247.356 483.144 247.086 492.645C246.652 507.835 246.202 523.543 245.942 538.996C245.518 564.357 245.42 590.08 245.648 615.449C245.807 633.327 246.145 651.683 246.647 670.02C246.774 670.005 246.899 669.987 247.023 669.972C246.522 651.651 246.184 633.31 246.025 615.446C245.797 590.08 245.895 564.362 246.319 539.003C246.579 523.55 247.029 507.842 247.46 492.655C247.733 483.154 248.014 473.33 248.245 463.666C249.288 420.126 249.542 369.55 239.314 320.298C240.92 320.128 242.384 319.92 243.777 319.662C248.588 342.971 251.481 368.096 252.625 396.461C253.992 430.375 252.945 464.885 251.931 498.256C251.442 514.37 250.938 531.036 250.712 547.415C250.153 587.632 250.429 628.557 251.523 669.081C251.65 669.043 251.775 669.008 251.9 668.971C250.806 628.484 250.53 587.597 251.089 547.418C251.315 531.041 251.819 514.38 252.308 498.266C253.322 464.887 254.369 430.373 253.002 396.448C251.856 368.058 248.957 342.914 244.143 319.582Z" fill="#9E4B2B"/>
<path d="M226.478 325.484C229.673 325.251 243.247 323.496 244.255 320.37C244.333 320.125 244.432 319.852 244.528 319.577C244.182 319.469 243.819 319.417 243.457 319.422C242.982 319.262 242.436 319.216 241.827 319.349C236.171 320.563 230.37 320.586 224.596 320.696C218.579 320.806 212.564 320.933 206.549 321.016C194.995 321.174 183.376 321.109 171.895 319.727C170.678 319.815 169.459 319.922 168.243 320.05C167.473 320.483 166.94 321.199 167.062 322.205C167.12 322.688 167.13 323.366 167.114 324.155C190.303 328.132 219.803 325.969 226.478 325.484Z" fill="#492525"/>
<path d="M288.059 286.904C285.299 280.695 284.553 274.177 279.892 269.241C274.376 263.41 264.858 258.917 259.183 253.225C256.436 250.467 253.296 247.068 249.716 245.291C246.678 243.787 244.434 246.295 243.07 248.648C241.229 251.829 239.277 255.743 239.082 259.43C238.942 262.086 240.294 264.696 242.903 265.444C248.487 279.235 254.629 293.019 262.089 305.951C265.637 312.098 272.619 319.73 279.299 320.623C282.572 321.064 290.087 313.197 290.633 312.106C293.835 305.678 289.473 290.085 288.059 286.904Z" fill="#FCEBDE"/>
<path d="M286.978 267.702C285.738 265.594 285.489 262.959 284.438 260.739C282.255 256.111 278.561 252.289 274.473 249.145C270.464 246.069 265.754 242.781 260.873 241.164C255.768 239.469 238.391 225.974 236.831 230.734C235.875 233.658 245.94 246.365 248.755 249.373C250.67 251.426 281.387 282.802 289.572 275.568C289.798 275.368 288.972 272.477 289.073 272.287C289.143 272.225 289.208 272.16 289.271 272.069C290.471 270.235 287.773 269.056 286.978 267.702Z" fill="#492525"/>
<path d="M210.757 116.374C208.798 117.791 207.074 119.438 205.595 121.318C205.452 121.5 205.772 121.678 205.915 121.495C207.352 119.671 209.039 118.056 210.945 116.68C211.132 116.545 210.947 116.237 210.757 116.374Z" fill="#2A2740"/>
<path d="M209.645 119.531C208.098 121.46 206.674 123.47 205.369 125.56C205.247 125.755 205.567 125.933 205.689 125.735C206.991 123.648 208.415 121.638 209.965 119.711C210.11 119.531 209.788 119.353 209.645 119.531Z" fill="#2A2740"/>
<path d="M244.746 271.038C244.783 267.141 246.174 264.238 246.457 260.356C247.029 252.58 247.138 244.51 245.212 236.896C243.65 230.709 242.09 224.522 240.525 218.335C239.483 214.203 238.438 210.068 237.396 205.933C236.644 202.955 236.878 198.855 233.574 197.493C230.432 196.197 214.147 194.017 209.008 193.354C208.314 193.263 207.776 193.914 208.02 194.547C213.133 207.658 212.125 222.302 205.839 235.577C205.244 236.836 202.728 233.815 201.673 232.887C194.382 226.479 174.64 209.142 167.395 190.12C167.172 189.537 166.68 189.099 166.036 189.096C162.046 189.069 158.053 188.961 154.063 188.858C150.33 188.761 146.632 188.896 142.912 188.956C142.621 191.744 142.795 194.688 142.714 197.473C142.356 209.68 141.766 221.909 141.909 234.128C142.046 245.964 140.17 259.27 143.013 270.793C145.789 282.046 157.978 306.574 162.805 313.182C166.181 317.807 161.154 319.197 167.239 321.004C178.237 324.27 191.304 323.431 202.718 323.326C211.514 323.216 220.313 322.868 229.093 322.338C235.282 321.962 250.332 326.102 249.628 318.568C249.251 314.541 244.528 293.384 244.746 271.038Z" fill="#FCEBDE"/>
<path d="M188.822 138.678C187.395 139.068 185.947 139.206 184.465 139.098C184.223 139.078 184.226 139.444 184.465 139.461C185.983 139.571 187.46 139.426 188.923 139.028C189.154 138.966 189.056 138.615 188.822 138.678Z" fill="#2A2740"/>
<path d="M206.939 129.232C206.19 130.08 205.442 130.931 204.691 131.78C204.535 131.955 204.8 132.213 204.956 132.035C205.707 131.187 206.458 130.338 207.207 129.487C207.363 129.309 207.098 129.054 206.939 129.232Z" fill="#2A2740"/>
<path d="M247.704 338.759C247.673 338.639 247.639 338.519 247.608 338.399C237.765 341.793 227.227 343.319 216.796 343.89C208.774 344.326 200.734 344.24 192.708 344.13C184.829 344.023 176.896 343.97 169.108 342.676C167.309 342.378 165.537 341.98 163.785 341.527C163.777 341.54 163.772 341.555 163.766 341.567C163.725 341.682 163.678 341.795 163.636 341.905C164.601 342.151 165.57 342.373 166.548 342.576C174.185 344.123 182.022 344.341 189.799 344.451C205.629 344.688 221.685 345.019 237.229 341.67C240.777 340.904 244.284 339.943 247.704 338.759Z" fill="#FFAE45"/>
<path d="M190.145 340.982C188.978 343.785 187.808 346.586 186.638 349.384C185.57 351.949 184.52 354.532 183.152 356.963C180.496 361.683 176.506 365.132 171.169 366.806C168.287 367.71 165.259 368.083 162.233 368.053C161.989 368.05 161.989 368.413 162.233 368.416C167.541 368.468 173.025 367.265 177.358 364.201C181.85 361.025 184.208 356.129 186.246 351.291C187.678 347.89 189.089 344.486 190.509 341.082C190.6 340.864 190.233 340.771 190.145 340.982Z" fill="#492525"/>
<path d="M223.273 340.108C223.076 338.554 222.584 337.045 222.53 335.473C222.47 333.646 222.678 331.811 222.647 329.981C222.61 328.022 222.457 326.067 222.236 324.12C222.21 323.887 221.833 323.894 221.859 324.127C222.226 327.361 222.345 330.585 222.187 333.836C222.036 336.902 223.039 339.818 223.032 342.886C223.016 349.261 223.016 355.671 222.592 362.036C222.47 363.906 222.301 365.77 222.065 367.627C221.88 369.044 221.742 370.969 220.708 372.118C220.32 372.548 219.112 371.86 218.834 371.602C218.254 371.069 217.916 370.29 217.711 369.56C216.85 366.511 217.014 363.295 217.131 360.139C217.581 348.162 217.29 336.164 216.258 324.222C215.935 324.698 215.969 325.313 216.011 325.882C216.952 337.948 217.193 350.06 216.736 362.154C216.624 365.027 216.499 368.028 217.739 370.648C218.072 371.352 218.537 372.048 219.262 372.385C221.108 373.244 221.914 370.966 222.148 369.657C222.423 368.13 222.579 366.574 222.727 365.029C223.052 361.681 223.187 358.314 223.258 354.948C223.328 351.676 223.349 348.403 223.385 345.131C223.403 343.459 223.486 341.773 223.273 340.108Z" fill="#492525"/>
<path d="M207.217 198.54C204.072 199.303 200.924 200.061 197.779 200.822C197.542 200.88 197.644 201.23 197.878 201.175C201.025 200.412 204.171 199.651 207.318 198.89C207.552 198.835 207.454 198.484 207.217 198.54Z" fill="#DE775F"/>
<path d="M190.233 201.072C184.314 199.14 178.216 197.636 172.217 195.949C171.983 195.884 171.884 196.234 172.118 196.299C178.115 197.986 184.216 199.491 190.134 201.42C190.363 201.493 190.462 201.145 190.233 201.072Z" fill="#DE775F"/>
<path d="M201.093 212.453C198.748 212.158 198.439 214.503 198.551 216.027C195.892 215.794 193.298 214.408 191.231 213.086C186.29 209.93 182.461 205.48 178.484 201.47C175.427 198.387 172.316 195.318 169.878 191.857C172.362 194.557 175.071 197.098 178.016 199.426C181.79 202.414 186.381 206.053 191.288 207.465C195.439 208.654 199.588 207.059 201.86 203.863C203.084 202.136 203.542 200.209 203.49 198.267C204.626 201.706 205.32 205.257 205.444 208.816C205.52 210.929 205.156 213.146 203.625 214.576C203.105 213.507 202.333 212.611 201.093 212.453ZM206.3 209.948C206.528 203.758 204.631 197.638 201.818 192.032C201.597 191.591 200.482 191.201 200.701 191.637C200.734 191.707 201.031 192.352 201.049 192.385C203.006 196.304 203.625 201.245 200.116 204.667C196.269 208.416 191.286 207.124 187.062 204.669C179.498 200.267 172.95 194.587 167.691 188.11C167.377 187.725 166.641 188.097 166.958 188.485C166.971 188.503 166.987 188.518 167 188.535C166.987 188.606 166.987 188.681 167.029 188.761C170.059 194.668 175.313 199.406 180.106 204.234C184.455 208.621 188.915 213.657 195.211 215.967C196.287 216.365 197.462 216.648 198.639 216.743C198.816 217.874 199.203 219.058 199.812 220.117C200.305 221.283 200.984 222.487 202.151 223.171C202.551 223.401 203.258 223.426 203.653 223.171C205.624 221.882 205.132 219.644 204.649 217.807C204.477 217.149 204.28 216.253 203.965 215.384C205.696 214.027 206.227 211.93 206.3 209.948Z" fill="#F2F3F7"/>
<path d="M302.813 267.99C302.574 267.99 302.574 268.354 302.813 268.354C303.06 268.354 303.06 267.99 302.813 267.99Z" fill="#8C7766"/>
<path d="M229.909 311.408C225.602 313.252 221.295 315.102 216.988 316.947C216.871 312.561 216.052 308.184 215.452 303.851C214.628 297.927 213.882 291.995 213.211 286.056C211.873 274.227 210.947 262.383 210.087 250.515C209.746 245.827 209.055 240.581 205.156 237.304C204.971 237.154 204.706 237.41 204.888 237.562C208.603 240.683 209.333 245.637 209.681 250.114C210.123 255.846 210.469 261.588 210.963 267.317C211.971 278.99 213.268 290.639 214.854 302.252C215.522 307.15 216.525 312.133 216.624 317.102C214.482 318.023 212.34 318.941 210.199 319.857C209.978 319.955 210.17 320.265 210.388 320.17C212.468 319.282 214.55 318.388 216.629 317.495C216.642 318.941 216.585 320.383 216.411 321.82C216.382 322.05 216.762 322.05 216.788 321.82C216.967 320.325 217.024 318.831 217.001 317.337C221.368 315.465 225.735 313.593 230.099 311.721C230.32 311.625 230.13 311.313 229.909 311.408Z" fill="#492525"/>
<path d="M156.07 263.269C156.694 260.551 157.458 257.763 157.635 254.98C157.835 251.846 157.38 248.657 157.343 245.519C157.323 243.862 157.284 242.208 157.247 240.548C155.667 245.111 154.128 249.594 152.982 253.013C151.1 258.626 149.218 264.243 147.336 269.857C146.574 272.13 145.171 274.355 144.492 276.655C146.837 282.284 146.72 283.137 149.839 288.901C150.195 287.602 155.355 266.378 156.07 263.269Z" fill="#492525"/>
<path d="M218.743 205.507C218.696 202.074 218.446 198.64 218.179 195.216C218.16 194.985 217.789 195.058 217.807 195.288C218.719 206.889 219.426 219.496 212.06 229.46C209.998 232.251 207.539 234.734 205.088 237.207C204.922 237.377 205.169 237.65 205.335 237.482C209.616 233.159 213.791 228.739 216.068 223.093C218.314 217.511 218.826 211.444 218.743 205.507Z" fill="#492525"/>
<path d="M166.652 366.686C166.044 365.91 164.752 366.111 163.93 366.348C161.271 367.114 159.524 369.42 158.633 371.837C157.471 374.981 157.25 378.518 157.208 381.824C157.167 385.451 157.484 389.067 157.801 392.676C157.817 392.864 158.121 392.947 158.17 392.729C159.935 385.118 162.659 377.744 166.28 370.769C166.306 370.749 166.327 370.724 166.335 370.681C166.34 370.671 166.342 370.658 166.345 370.643C166.475 370.396 166.605 370.145 166.735 369.895C166.808 369.762 166.699 369.637 166.582 369.622C166.68 369.152 166.764 368.681 166.826 368.203C166.893 367.695 166.997 367.127 166.652 366.686Z" fill="#492525"/>
<path d="M205.132 237.207C196.326 234.106 187.366 230.954 179.69 225.773C176.243 223.448 173.075 220.73 170.494 217.574C167.551 213.972 165.656 209.83 163.738 205.705C161.495 200.88 159.254 196.059 157.011 191.236C156.915 191.026 156.545 191.133 156.644 191.341C158.711 195.791 160.78 200.239 162.846 204.687C164.759 208.801 166.561 213.021 169.339 216.708C174.315 223.313 181.658 227.996 189.36 231.508C194.415 233.813 199.687 235.667 204.95 237.522C205.179 237.602 205.364 237.284 205.132 237.207Z" fill="#492525"/>
<path d="M164.655 382.642C164.749 382.63 164.84 382.602 164.931 382.57C166.823 381.856 167.099 373.892 167.497 372.663C168.136 369.427 168.918 366.216 169.703 363.007C170.335 360.424 171.627 357.138 170.98 354.467C170.538 352.648 168.926 351.571 167.473 350.493C165.836 349.271 151.03 340.283 150.811 340.281C150.746 340.248 150.681 340.218 150.616 340.196C148.124 342.035 143.616 345.672 141.04 347.414C140.851 348.198 157.713 357.621 157.549 359.17C157.346 361.11 151.939 370.909 150.239 374.673C148.719 378.047 148.623 381.433 149.616 384.96C150.614 388.492 152.207 390.997 152.607 394.464C152.74 395.59 154.365 396.756 155.069 396.631C156.938 396.298 157.869 395.294 158.253 393.542C159.192 389.293 158.508 384.707 159.901 380.572C160.328 379.306 161.443 377.166 162.243 375.682C162.35 375.482 162.667 375.562 162.657 375.784C162.584 377.504 162.246 379.867 162.581 381.281C162.784 382.134 163.733 382.813 164.655 382.642Z" fill="#FFAB82"/>
<path d="M246.948 247.298C247.785 243.214 247.938 245.541 247.65 241.324C246.15 238.28 241.253 236.553 239.075 235.142C241.469 239.071 246.959 247.243 246.948 247.298Z" fill="#492525"/>
<path d="M119.138 344.719C119.242 344.03 124.184 344.896 123.638 344.899C123.529 341.773 122.874 337.858 119.887 336.184C116.201 334.121 112.728 337.097 111.013 340.086C108.382 344.668 106.966 350.2 105.593 355.233C104.101 360.707 102.986 366.271 102.165 371.875C98.7465 395.222 99.7888 419.26 101.754 442.687C102.898 456.32 104.626 469.903 106.906 483.399C107.07 484.367 110.979 483.829 110.147 483.829C108.33 483.829 112.975 397.119 115.13 378.971L119.138 344.719Z" fill="#492525"/>
<path d="M202.803 256.632C202.538 256.632 202.312 256.694 202.164 256.814L202.125 256.842C202.089 256.859 202.057 256.884 202.034 256.909C201.153 257.873 201.353 259.217 201.948 260.121C202.242 260.571 202.702 260.854 203.149 260.854C203.152 260.854 203.152 260.854 203.152 260.854C203.549 260.852 203.893 260.644 204.145 260.248C204.714 259.36 204.693 257.981 204.095 257.175C203.898 256.909 203.464 256.694 203.011 256.642C202.941 256.634 202.871 256.632 202.803 256.632ZM203.149 261.214C202.564 261.214 201.998 260.879 201.628 260.313C200.96 259.297 200.739 257.775 201.751 256.669C201.8 256.614 201.862 256.567 201.935 256.529C202.203 256.316 202.601 256.229 203.056 256.281C203.614 256.346 204.145 256.617 204.405 256.965C205.091 257.896 205.119 259.42 204.467 260.439C204.145 260.937 203.679 261.214 203.154 261.214C203.152 261.214 203.152 261.214 203.149 261.214Z" fill="#492525"/>
<path d="M205.067 282.982C204.8 282.982 204.574 283.047 204.425 283.17L204.389 283.192C204.35 283.21 204.319 283.232 204.295 283.26C203.414 284.224 203.614 285.57 204.207 286.474C204.503 286.924 204.963 287.204 205.411 287.204C205.411 287.204 205.413 287.204 205.416 287.204C205.811 287.202 206.154 286.994 206.406 286.599C206.975 285.71 206.955 284.334 206.359 283.525C206.159 283.26 205.725 283.045 205.273 282.992C205.203 282.985 205.132 282.982 205.067 282.982ZM205.411 287.567C204.828 287.567 204.259 287.229 203.89 286.669C203.222 285.648 203.001 284.123 204.012 283.017C204.064 282.965 204.126 282.917 204.197 282.879C204.464 282.669 204.862 282.582 205.32 282.632C205.876 282.699 206.406 282.967 206.663 283.317C207.352 284.249 207.381 285.773 206.726 286.786C206.406 287.29 205.941 287.565 205.416 287.567C205.416 287.567 205.413 287.567 205.411 287.567Z" fill="#492525"/>
<path d="M159.6 369.382C158.336 373.282 156.707 377.241 156.353 381.341C155.979 385.643 156.08 390.031 156.254 394.341C156.26 394.504 156.522 394.504 156.514 394.341C156.345 390.108 156.262 385.811 156.595 381.581C156.92 377.421 158.57 373.407 159.852 369.45C159.901 369.294 159.649 369.229 159.6 369.382Z" fill="#DE775F"/>
<path d="M153.754 383.929C153.476 381.043 154.136 378.395 155.007 375.657C155.056 375.504 154.804 375.437 154.755 375.592C153.876 378.357 153.211 381.016 153.491 383.929C153.764 386.785 154.318 389.625 154.809 392.449C154.838 392.611 155.09 392.544 155.064 392.384C154.575 389.58 154.024 386.76 153.754 383.929Z" fill="#DE775F"/>
<path d="M134.306 343.387C134.186 343.249 133.887 343.244 133.773 343.387C132.125 345.419 130.474 347.444 128.834 349.476C128.314 350.122 127.763 350.755 127.433 351.511C126.913 352.7 126.957 353.977 126.289 355.125C126.248 355.196 126.24 355.263 126.245 355.326C126.097 355.639 126.635 355.951 126.944 355.661C129.559 353.221 132.247 350.695 134.942 348.182C135.439 347.722 136.325 347.181 136.367 346.448C136.424 345.479 134.906 344.11 134.306 343.387Z" fill="#492525"/>
<path d="M164.063 366.977C163.231 369.122 162.761 371.359 162.657 373.645C162.649 373.807 162.911 373.807 162.919 373.645C163.023 371.382 163.491 369.167 164.312 367.044C164.375 366.889 164.12 366.827 164.063 366.977Z" fill="#DE775F"/>
<path d="M157.369 343.492C157.356 343.482 157.346 343.475 157.333 343.465C151.225 339.921 139.928 332.414 134.095 328.467C133.276 327.912 132.491 328.628 132.455 329.386C128.811 332.89 125.816 336.922 123.575 341.387C123.373 341.795 123.44 342.181 123.643 342.481C123.568 342.781 123.659 343.109 124.01 343.37C129.871 347.765 141.355 355.496 147.83 359.005C148.698 359.476 149.506 358.745 149.522 358.011C149.618 357.941 149.712 357.861 149.79 357.751C152.787 353.676 155.527 349.437 158.004 345.046C158.391 344.358 157.952 343.715 157.369 343.492Z" fill="#7B9ABA"/>
<path d="M153.185 391.31C151.817 386.92 150.427 382.302 151.617 377.717C151.659 377.559 151.404 377.491 151.365 377.649C150.164 382.279 151.552 386.942 152.932 391.38C152.982 391.533 153.234 391.465 153.185 391.31Z" fill="#DE775F"/>
<path d="M122.642 316.819C122.029 316.318 121.114 316.381 120.576 316.951C114.194 323.719 107.912 330.607 102.326 337.976C102.201 338.141 102.076 338.311 101.952 338.476C101.463 339.122 101.619 340.026 102.297 340.484C107.34 343.908 119.572 352.485 124.236 355.761C125.242 356.47 126.658 356.224 127.352 355.228L142.036 334.066C142.426 333.505 142.309 332.752 141.766 332.327C137.479 328.965 126.843 320.218 122.642 316.819Z" fill="#FCEBDE"/>
<path d="M221.716 324.808C221.997 324.801 222.252 324.768 222.493 324.721C224.492 326.595 226.424 328.545 228.339 330.497C230.544 332.74 232.678 335.05 234.604 337.523C238.773 342.874 241.957 348.893 244.058 355.268C244.073 355.313 244.068 355.356 244.05 355.386C244.055 355.396 244.06 355.404 244.068 355.414C244.195 355.611 243.87 355.791 243.741 355.596C240.117 349.985 238.155 348.275 233.697 343.285C231.407 340.719 226.25 337.478 223.856 335C221.872 332.95 219.652 328.615 217.794 326.453C217.29 325.867 216.824 325.249 216.411 324.598C218.173 324.748 219.938 324.836 221.716 324.808Z" fill="#492525"/>
<path d="M122.918 317.011C118.307 321.722 115.575 327.957 113.454 334.259C112.333 337.588 110.737 341.365 111.291 344.964C111.41 345.735 111.647 346.456 111.943 347.156C113.123 348.052 114.34 348.906 115.541 349.709C116.05 345.009 116.505 340.286 117.55 335.641C118.928 329.516 121.025 323.549 124.095 318.125C124.108 318.095 124.121 318.045 124.134 318.013C123.682 317.647 123.292 317.314 122.918 317.011Z" fill="#492525"/>
<path d="M168.032 189.279C168.139 188.208 167.533 187.895 166.376 187.927C159.002 188.11 137.981 186.728 133.396 186.929C128.823 187.126 124.204 188.698 120.29 190.843C114.584 193.967 111.335 199.836 108.044 204.949C105.133 209.477 73.7122 264.005 67.3256 274.395C63.515 280.597 59.9201 286.962 57.3337 293.702C54.6044 300.823 53.3489 308.254 52.6497 315.76C51.1525 331.831 50.2947 347.977 49.2316 364.076C48.3842 376.901 47.5992 389.726 46.9233 402.558C46.4399 402.543 42.1951 402.01 41.6909 403.879C41.6909 403.879 40.5576 428.545 40.9812 429.524C41.6441 431.063 56.6475 433.867 61.9917 434.595C62.8521 434.713 63.4916 435.396 63.502 436.202C63.5176 437.281 63.8763 459.166 66.2729 464.98C69.5246 472.877 76.4129 478.821 84.2083 482.911C90.4598 486.187 102.263 491.894 109.495 488.845C109.648 488.778 109.698 488.662 109.682 488.547C109.812 488.502 109.916 488.4 109.918 488.234C110.36 459.491 110.8 430.75 111.286 402.012C111.491 389.773 111.683 377.531 112.377 365.307C113.053 353.389 112.676 339.938 117.243 328.622C120.872 319.635 126.861 311.275 132.437 303.243C137.711 295.649 143.232 288.183 147.884 280.239C152.784 271.877 156.332 263.022 158.633 253.748C163.304 234.902 167.133 198.287 168.032 189.279Z" fill="#B9D386"/>
<path d="M258.474 212.028C256.389 208.816 254.387 205.48 251.64 202.729C245.638 196.727 236.603 195.516 228.456 194.452C221.841 193.586 209.091 192.222 202.788 191.504C202.585 191.481 202.468 191.717 202.614 191.854C210.911 199.816 253.353 255.45 267.563 264.135C282.026 272.973 301.046 279.27 300.697 278.75C290.898 264.243 263.459 219.702 258.474 212.028Z" fill="#B9D386"/>
<path d="M349.458 192.59C349.386 192.38 349.243 192.27 349.084 192.235C348.918 192.115 348.697 192.072 348.455 192.177C344.689 193.804 340.782 195.101 336.768 196.004C335.196 196.355 333.368 196.44 331.9 197.12C330.631 197.706 329.942 198.905 329.363 200.091C326.051 206.897 318.703 219.932 316.792 224.933C316.501 225.693 327.273 220.85 327.528 220.512C329.633 217.744 331.273 214.658 332.316 211.367C332.82 209.785 333.145 208.176 333.418 206.544C333.753 204.559 334.25 202.724 336.275 201.793C337.738 201.12 339.391 200.912 340.922 200.424C342.36 199.966 343.745 199.358 345.021 198.565C346.695 197.523 350.262 194.878 349.458 192.59Z" fill="#FFAB82"/>
<path d="M301.059 369.122C301.012 378.02 300.965 386.915 300.916 395.813C300.892 400.386 301.046 405.048 300.861 409.674C300.024 395.545 301.968 382.502 300.401 368.416C298.34 349.917 295.161 326.83 293.69 308.277C296.939 305.924 298.717 302.317 299.512 304.94C300.544 308.357 301.298 324.5 301.28 328.002C301.254 332.572 301.23 337.14 301.204 341.708C301.157 350.846 301.108 359.986 301.059 369.122Z" fill="#492525"/>
<path d="M245.212 330.082C241.531 332.287 236.291 333.253 231.672 334.199C226.756 335.208 221.745 335.998 216.687 336.559C206.783 337.658 196.698 337.903 186.786 337.275C181.192 336.922 175.664 336.281 170.244 335.378C170.013 335.338 169.924 335.581 170.156 335.618C189.773 338.897 210.887 338.566 230.616 334.669C233.353 334.126 236.078 333.533 238.739 332.835C241.175 332.199 243.525 331.421 245.487 330.249C245.667 330.137 245.391 329.974 245.212 330.082Z" fill="#492525"/>
<path d="M303.879 297.687C301.495 299.424 298.969 303.038 296.38 304.487C296.923 328.903 297.565 359.423 297.253 383.839C296.923 409.564 296.12 435.283 294.836 460.983C294.287 471.933 291.852 485.339 300.404 494.472C300.656 494.74 302.655 496.044 303.084 495.072C304.643 491.546 306.691 410.319 306.704 383.461C306.71 370.816 306.029 358.172 305.654 345.545C305.262 332.322 304.271 310.912 303.879 297.687Z" fill="#B9D386"/>
<path d="M305.519 445.65C305.517 445.65 305.509 445.648 305.504 445.648C305.402 445.64 305.322 445.553 305.332 445.453C307.469 419.64 302.273 303.579 302.218 302.41C302.215 302.312 302.296 302.225 302.397 302.222C302.499 302.212 302.592 302.295 302.595 302.397C302.649 303.566 307.848 419.645 305.709 445.48C305.698 445.578 305.618 445.65 305.519 445.65Z" fill="#492525"/>
<path d="M291.849 272.144L284.267 259.84C284.145 259.638 283.82 259.823 283.945 260.023L291.527 272.327C291.646 272.527 291.974 272.345 291.849 272.144Z" fill="#492525"/>
<path d="M250.663 365.863C245.516 357.391 243.312 347.722 241.188 338.228C241.136 338.003 240.772 338.098 240.824 338.326C242.955 347.85 245.173 357.548 250.338 366.046C250.46 366.248 250.785 366.066 250.663 365.863Z" fill="#492525"/>
<path d="M212.819 274.75C212.645 271.481 211.675 267.769 211.262 264.533C211.238 264.113 211.147 263.152 211.095 263.122C211.043 262.646 210.997 262.17 210.952 261.692C210.932 261.462 210.555 261.46 210.575 261.692C210.664 262.686 212.673 282.509 212.707 282.529C212.775 283.35 212.821 284.171 212.832 284.994C212.834 285.084 212.889 285.137 212.954 285.16C212.925 285.492 212.894 285.83 212.865 286.163C212.842 286.396 213.219 286.396 213.24 286.163C213.614 282.129 213.04 278.862 212.819 274.75Z" fill="#492525"/>
<path d="M250.205 333.884C251.458 322.165 245.708 294.085 245.708 291.552C245.708 289.54 241.632 316.764 239.873 317.264C237.497 317.945 235.212 318.849 232.854 319.574C227.851 321.111 222.631 322.017 217.352 322.298C217.3 322.303 217.264 322.323 217.232 322.348C216.515 321.602 230.593 334.349 244.281 356.239C245.058 357.481 249.607 339.505 250.205 333.884Z" fill="#FCEBDE"/>
<path d="M328.648 232.999C328.723 232.804 328.698 232.586 328.575 232.414C326.135 228.897 320.484 223.841 318.547 222.299C318.217 222.039 317.723 222.139 317.536 222.505C315.792 225.876 307.864 241.256 303.887 249.766C303.559 249.996 312.314 262.921 314.365 270.03C314.575 270.75 327.304 236.616 328.648 232.999Z" fill="#7B9ABA"/>
<path d="M325.487 263.69C320.585 256.091 306.146 245.659 307.822 241.654C308.095 241.001 306.447 241.244 306.101 241.865L300.227 252.374C299.808 253.15 299.819 253.323 299.902 253.466C300.131 253.871 275.684 289.189 274.631 292.328C272.593 298.405 265.38 312.289 274.332 318.571C284.888 325.969 295.415 316.939 306.042 300.069C310.83 292.463 319.545 274.235 319.93 273.056C319.94 273.048 320.099 272.996 320.312 272.926C321.019 272.695 325.654 263.95 325.487 263.69Z" fill="#FCEBDE"/>
<path d="M281.059 281.653C277.418 285.783 274.649 290.556 272.897 295.704C272.83 295.907 273.16 296.017 273.23 295.809C274.972 290.686 277.727 285.946 281.348 281.836C281.496 281.671 281.2 281.488 281.059 281.653Z" fill="#492525"/>
<path d="M276.058 285.442C273.5 287.67 271.117 290.065 268.91 292.618C268.757 292.796 269.074 292.994 269.227 292.816C271.413 290.29 273.779 287.918 276.31 285.708C276.49 285.55 276.238 285.282 276.058 285.442Z" fill="#492525"/>
<path d="M316.722 271.937C311.082 267.269 306.055 261.958 301.755 256.114C301.617 255.926 301.287 256.109 301.428 256.299C305.748 262.168 310.793 267.504 316.457 272.192C316.639 272.345 316.907 272.09 316.722 271.937Z" fill="#492525"/>
<path d="M155.95 210.891C155.901 210.891 155.851 210.874 155.815 210.834C155.748 210.769 149.174 204.006 146.278 200.164C145.813 199.551 145.652 198.777 145.834 198.042C146.016 197.308 146.517 196.69 147.211 196.347L161.318 188.057C161.406 188.005 161.521 188.032 161.575 188.118C161.63 188.203 161.601 188.315 161.513 188.365L147.396 196.662C146.788 196.963 146.353 197.496 146.2 198.124C146.044 198.757 146.182 199.426 146.58 199.954C149.465 203.771 156.023 210.518 156.088 210.586C156.161 210.661 156.156 210.774 156.08 210.844C156.044 210.874 155.997 210.891 155.95 210.891Z" fill="#492525"/>
<path d="M142.509 288.937C142.488 288.937 142.467 288.934 142.447 288.927C142.348 288.892 142.298 288.789 142.332 288.694C145.984 278.87 146.359 224.815 145.103 215.026C144.963 213.932 145.698 212.924 146.811 212.676L165.721 208.391C165.82 208.368 165.924 208.429 165.947 208.526C165.971 208.621 165.908 208.721 165.807 208.744L146.897 213.029C145.971 213.237 145.36 214.073 145.477 214.981C146.736 224.785 146.351 278.96 142.688 288.816C142.66 288.892 142.587 288.937 142.509 288.937Z" fill="#492525"/>
<path d="M124.909 253.082C124.88 253.082 124.849 253.075 124.823 253.062C124.73 253.022 124.693 252.912 124.74 252.822C124.792 252.72 130.035 242.633 131.111 238.035C132.182 233.452 127.55 208.849 127.503 208.601C127.485 208.501 127.552 208.406 127.656 208.391C127.758 208.371 127.857 208.436 127.875 208.536C128.067 209.552 132.567 233.457 131.477 238.113C130.393 242.756 125.13 252.882 125.075 252.982C125.044 253.047 124.976 253.082 124.909 253.082Z" fill="#492525"/>
<path d="M90.8497 404.926C90.7509 404.926 90.6677 404.851 90.6625 404.753C90.1245 393.492 92.5055 335.213 95.8508 318.613C99.7368 299.346 121.621 258.902 121.813 258.634C121.87 258.554 121.99 258.531 122.076 258.591C122.159 258.647 122.18 258.759 122.122 258.842C121.907 259.172 100.129 299.299 96.2225 318.683C92.8798 335.265 90.5014 393.482 91.0394 404.74C91.0446 404.836 90.9641 404.921 90.8601 404.926C90.8575 404.926 90.8549 404.926 90.8497 404.926Z" fill="#492525"/>
<path d="M67.6947 435.423C66.1351 435.423 65.1864 435.411 65.15 435.408C65.046 435.408 64.9628 435.326 64.9654 435.226C64.968 435.128 65.0408 435.043 65.1552 435.045C65.2877 435.048 78.4014 435.208 88.2478 434.312C90.3376 434.119 91.8556 433.046 91.9388 431.699C92.7368 418.872 93.2645 405.621 92.6692 404.595C80.0286 406.432 48.3504 402.673 48.0333 402.635C47.9293 402.625 47.8565 402.535 47.8695 402.433C47.8825 402.335 47.9735 402.265 48.0775 402.278C48.3972 402.315 80.1326 406.082 92.6796 404.225C92.7602 404.215 92.8382 404.24 92.9032 404.295C93.8571 405.131 92.8096 423.752 92.3157 431.719C92.2222 433.248 90.5612 434.465 88.2815 434.673C81.0346 435.333 72.0201 435.423 67.6947 435.423Z" fill="#492525"/>
<path d="M92.2195 304.845C86.1085 316.889 81.0735 329.436 77.2161 342.316C76.114 345.993 75.1106 349.694 74.1983 353.416C74.1411 353.644 74.505 353.742 74.5622 353.511C77.7646 340.441 82.1367 327.639 87.6447 315.3C89.1913 311.838 90.8263 308.414 92.547 305.028C92.6536 304.817 92.3261 304.632 92.2195 304.845Z" fill="#492525"/>
<path d="M84.8608 332.687C84.658 337.202 84.2265 341.705 83.5611 346.178C83.5273 346.405 83.8912 346.503 83.925 346.273C84.5931 341.768 85.0323 337.237 85.2377 332.687C85.2455 332.452 84.8686 332.457 84.8608 332.687Z" fill="#492525"/>
<path d="M308.144 409.361C306.78 409.361 306.044 409.318 306.029 409.318C305.925 409.308 305.847 409.226 305.854 409.123C305.86 409.025 305.943 408.943 306.052 408.955C306.081 408.955 308.724 409.11 313.364 408.825C313.476 408.815 313.559 408.898 313.564 408.995C313.569 409.095 313.491 409.18 313.387 409.188C311.157 409.323 309.39 409.361 308.144 409.361Z" fill="#492525"/>
<path d="M55.561 381.228C55.4596 381.228 55.3764 381.151 55.3712 381.053C54.3705 352.31 56.6371 313.56 56.6605 313.17C56.6657 313.072 56.7567 312.997 56.8581 313.002C56.962 313.009 57.0426 313.092 57.0348 313.192C57.0114 313.58 54.7474 352.315 55.7481 381.041C55.7533 381.141 55.6702 381.226 55.5662 381.228C55.5636 381.228 55.5636 381.228 55.561 381.228Z" fill="#492525"/>
<path d="M226.535 210.711C226.517 210.711 226.499 210.711 226.483 210.704C226.385 210.676 226.325 210.578 226.353 210.481L228.394 203.46C228.605 202.364 228.007 201.263 226.938 200.797L210.409 192.658C210.318 192.61 210.282 192.503 210.329 192.412C210.375 192.322 210.49 192.287 210.583 192.332L227.099 200.472C228.321 201 229.007 202.264 228.76 203.54L226.715 210.581C226.691 210.661 226.616 210.711 226.535 210.711Z" fill="#492525"/>
<path d="M262.266 260.176C262.206 260.176 262.146 260.151 262.113 260.101C254.497 249.811 240.788 224.334 238.063 215.412C237.772 214.455 237.112 213.732 236.299 213.472L216.138 207.793C216.039 207.765 215.982 207.663 216.011 207.567C216.039 207.472 216.146 207.417 216.245 207.445L236.408 213.126C237.346 213.422 238.097 214.238 238.425 215.311C241.139 224.209 254.819 249.624 262.419 259.888C262.479 259.971 262.458 260.083 262.373 260.143C262.341 260.166 262.305 260.176 262.266 260.176Z" fill="#492525"/>
<path d="M247.341 233.622C247.242 233.622 247.159 233.55 247.151 233.452C247.12 233.064 246.368 223.911 246.368 223.351C246.368 223.251 246.454 223.17 246.558 223.17C246.662 223.17 246.745 223.251 246.745 223.351C246.745 223.896 247.517 233.33 247.528 233.425C247.536 233.525 247.458 233.612 247.354 233.617C247.348 233.622 247.343 233.622 247.341 233.622Z" fill="#492525"/>
<path d="M93.4386 408.85C93.3581 408.85 93.2827 408.8 93.2593 408.722C93.2281 408.627 93.2827 408.525 93.3815 408.497L100.431 406.405C101.218 406.169 101.718 405.429 101.619 404.643L100.233 393.522C100.2 393.26 100.049 393.022 99.8174 392.877C99.5861 392.729 99.3002 392.689 99.0324 392.761L91.1616 394.977C91.0628 395.004 90.9589 394.947 90.9303 394.851C90.8991 394.756 90.9563 394.656 91.0576 394.629L98.9285 392.414C99.3002 392.311 99.7005 392.369 100.023 392.571C100.348 392.776 100.561 393.109 100.608 393.48L101.993 404.6C102.115 405.561 101.504 406.465 100.543 406.75L93.4932 408.843C93.475 408.848 93.4568 408.85 93.4386 408.85Z" fill="#492525"/>
<path d="M305.841 419.535C305.784 419.535 305.727 419.51 305.691 419.46L303.759 416.887C303.58 416.652 303.486 416.374 303.486 416.081V400.883C303.486 400.648 303.65 400.458 303.889 400.41C304.128 400.365 304.355 400.478 304.448 400.696L306.016 404.232C306.055 404.322 306.013 404.428 305.917 404.47C305.821 404.508 305.709 404.465 305.67 404.375L304.102 400.838C304.069 400.756 303.993 400.761 303.965 400.766C303.934 400.771 303.863 400.793 303.863 400.883V416.081C303.863 416.296 303.934 416.502 304.064 416.674L305.995 419.25C306.055 419.33 306.036 419.442 305.953 419.505C305.919 419.528 305.88 419.535 305.841 419.535Z" fill="#492525"/>
<path d="M225.86 317.027C223.902 317.595 221.914 317.988 219.881 318.205C219.642 318.228 219.639 318.591 219.881 318.568C221.945 318.346 223.97 317.953 225.961 317.377C226.192 317.312 226.094 316.961 225.86 317.027Z" fill="#492525"/>
<path d="M257.099 455.504C257.096 455.381 257.093 455.256 257.093 455.134C243.727 458.087 229.821 460.825 216.177 462.004C208.265 462.69 200.295 462.895 192.362 462.42C184.327 461.937 176.358 460.735 168.482 459.156C162.285 457.914 156.145 456.438 150.024 454.901C150.019 455.014 150.016 455.131 150.013 455.246C150.013 455.249 150.013 455.256 150.011 455.259C150.011 455.261 150.011 455.266 150.011 455.274C162.862 458.503 175.827 461.441 189.079 462.547C205.169 463.889 221.339 462.322 237.182 459.571C243.696 458.437 250.6 456.943 257.099 455.504Z" fill="#FFAE45"/>
<path d="M232.524 520.597C236.546 520.029 240.533 519.238 244.463 518.239C248.799 517.135 253.678 515.531 257.902 513.892C257.897 513.739 257.897 513.586 257.894 513.434C254.416 514.798 250.335 516.254 246.813 517.233C238.906 519.441 230.869 520.577 222.681 521.243C219.073 521.538 215.452 521.851 211.899 522.539C211.873 522.679 211.847 522.822 211.826 522.965C214.693 522.406 217.588 522.041 220.521 521.786C224.529 521.435 228.54 521.16 232.524 520.597Z" fill="#FFAE45"/>
<path d="M194.756 435.413C203.401 434.004 211.914 432.074 220.645 431.123C228.706 430.242 236.818 429.792 244.861 428.746C248.778 428.232 252.68 427.559 256.501 426.628C256.495 426.508 256.493 426.383 256.49 426.263C245.661 428.913 234.157 429.399 223.065 430.505C214.643 431.344 206.435 432.968 198.132 434.465C189.682 435.991 181.156 436.827 172.544 436.632C165.196 436.464 157.884 435.606 150.733 434.094C150.728 434.212 150.726 434.332 150.718 434.455V434.457C150.718 434.46 150.718 434.462 150.718 434.462C165.134 437.488 180.14 437.796 194.756 435.413Z" fill="#FFAE45"/>
<path d="M128.465 328.124C124.15 332.965 120.862 338.569 118.774 344.623C118.699 344.844 119.063 344.939 119.138 344.718C121.202 338.724 124.459 333.175 128.733 328.382C128.888 328.204 128.623 327.947 128.465 328.124Z" fill="#492525"/>
<path d="M130.401 293.94C129.234 292.668 127.272 293.85 126.341 294.803C125.286 295.889 124.516 297.541 125.122 299.041C126.089 301.438 128.771 299.041 129.647 297.922C130.409 296.951 131.498 295.134 130.401 293.94Z" fill="#492525"/>
<path d="M111.109 325.494C109.44 324.68 107.987 326.582 107.459 327.874C106.862 329.343 106.776 331.26 107.979 332.507C109.913 334.507 111.577 331.135 111.985 329.701C112.341 328.457 112.674 326.26 111.109 325.494Z" fill="#492525"/>
<path d="M104.751 371.142C102.924 370.769 102.027 372.969 101.863 374.348C101.676 375.912 102.102 377.787 103.602 378.695C106.001 380.149 106.711 376.478 106.724 374.993C106.734 373.702 106.469 371.494 104.751 371.142Z" fill="#492525"/>
<path d="M62.496 434.402C62.496 434.402 63.515 436.507 63.5332 437.311C82.8645 437.316 89.9529 434.237 89.9425 434.232C89.8567 434.205 83.8055 435.771 62.496 434.402Z" fill="#492525"/>
<path d="M236.795 333.153C233.348 328.637 228.937 324.898 223.842 322.187C223.632 322.075 223.442 322.388 223.655 322.5C228.688 325.183 233.062 328.873 236.47 333.333C236.613 333.521 236.941 333.338 236.795 333.153Z" fill="#492525"/>
<path d="M241.705 317.83C237.011 319.429 232.249 321.021 227.227 321.241C226.988 321.254 226.985 321.617 227.227 321.604C232.283 321.382 237.078 319.792 241.807 318.183C242.033 318.103 241.937 317.752 241.705 317.83Z" fill="#492525"/>
<path d="M187.525 206.058C188.569 205.282 187.639 202.754 186.214 203.067C185.622 203.197 185.349 203.648 185.302 204.171C185.201 205.375 186.295 206.977 187.525 206.058Z" fill="#492525"/>
<path d="M201.371 196.027C201.421 195.576 201.626 195.201 202.042 195.03C203.134 194.587 203.887 195.839 204.116 196.685C204.314 197.426 204.186 198.58 203.211 198.685C202.146 198.795 201.249 197.17 201.371 196.027Z" fill="#492525"/>
<path d="M190.548 215.364C191.143 215.779 192.123 215.446 192.276 214.748C192.437 214.002 192.341 213.317 192.006 212.631C191.735 212.08 190.961 211.985 190.459 212.24C190.007 212.468 189.846 213.134 189.895 213.805C189.942 214.453 190.184 215.106 190.548 215.364Z" fill="#492525"/>
<path d="M164.502 308.361C168.269 313.775 174.086 317.677 180.665 319.216C180.899 319.271 180.8 319.619 180.563 319.567C173.888 318.005 167.998 314.035 164.177 308.544C164.042 308.349 164.367 308.166 164.502 308.361Z" fill="#492525"/>
<path d="M248.282 492.915C251.203 492.449 254.671 491.811 257.66 491.185C257.66 491.05 257.657 490.92 257.657 490.787C257.429 490.837 257.223 490.885 257.127 490.905C243.08 493.888 228.654 495.112 214.28 494.587C214.038 494.579 214.038 494.942 214.28 494.95C218.407 495.1 222.54 495.115 226.668 494.977C233.907 494.734 241.133 494.044 248.282 492.915Z" fill="#FFAE45"/>
<path d="M214.256 495.242C209.206 495.718 204.134 495.913 199.063 495.888C189.981 495.846 180.92 495.142 171.884 494.311C164.25 493.613 156.587 492.98 149.002 491.851C149 491.974 148.997 492.096 148.994 492.216C152.548 492.74 156.117 493.148 159.691 493.51C177.743 495.345 196.063 497.317 214.209 495.608C214.22 495.485 214.235 495.365 214.256 495.242Z" fill="#FFAE45"/>
<path d="M244.788 270.04C244.918 268.423 245.789 262.573 246.296 259.307C246.298 259.287 246.309 259.277 246.316 259.267C246.537 256.509 246.602 253.738 246.504 250.968C246.496 250.735 246.873 250.735 246.88 250.968C246.997 254.284 246.883 257.603 246.545 260.904C246.855 265.685 247.273 274.895 247.481 276.397C246.569 274.285 245.669 272.162 244.788 270.04Z" fill="#492525"/>
<path d="M241.401 283.077C242.134 279.571 242.867 276.059 243.603 272.547C243.65 272.322 244.013 272.417 243.964 272.645C243.231 276.154 242.498 279.666 241.765 283.172C241.716 283.4 241.352 283.305 241.401 283.077Z" fill="#492525"/>
<path d="M214.277 492.645C214.386 491.884 209.447 564.806 208.829 573.538C208.512 560.633 208.215 549.115 207.898 541.028C207.883 541.108 207.87 541.191 207.854 541.273C207.898 541.028 214.277 492.645 214.277 492.645Z" fill="#492525"/>
<path d="M226.491 137.757C224.893 139.013 224.895 141.336 224.534 143.048C223.983 145.653 223.442 148.261 222.938 150.877C221.984 155.813 221.152 160.776 220.627 165.759C220.12 170.562 219.803 175.383 220.549 180.178C221.425 185.785 222.436 190.695 220.858 196.267C220.388 197.931 222.434 195.286 222.652 194.913C223.268 193.859 223.798 192.755 224.238 191.617C225.127 189.316 225.644 186.886 225.906 184.436C226.418 179.678 225.997 174.885 225.641 170.134C225.246 164.873 225.324 159.797 226.14 154.574C226.959 149.328 227.177 144.062 226.751 138.778C226.743 138.693 226.702 138.628 226.645 138.575C226.756 138.448 226.884 138.327 227.024 138.215C227.383 137.932 226.85 137.476 226.491 137.757Z" fill="#403E4F"/>
<path d="M224.3 137.892C223.515 134.731 223.445 131.497 223.097 128.281C222.587 123.545 221.02 118.149 216.177 115.919C215.964 115.821 215.777 116.127 215.99 116.227C221.212 118.632 222.421 124.619 222.857 129.627C223.102 132.433 223.263 135.239 223.944 137.987C224.664 140.893 225.717 143.734 225.771 146.755C225.774 146.982 226.143 146.982 226.14 146.755C226.086 143.701 225.028 140.83 224.3 137.892Z" fill="#2A2740"/>
<path d="M223.996 149.248C223.96 149.017 223.598 149.115 223.632 149.345C224.035 151.886 224.435 154.426 224.838 156.969C224.874 157.199 225.236 157.104 225.199 156.874C224.799 154.329 224.399 151.788 223.996 149.248Z" fill="#2A2740"/>
<path d="M167.455 269.391C165.524 266.906 163.886 264.236 162.553 261.41C162.454 261.2 162.129 261.385 162.228 261.592C163.561 264.418 165.199 267.089 167.13 269.574C167.273 269.757 167.6 269.577 167.455 269.391Z" fill="#492525"/>
<path d="M244.073 393.758C247.884 392.426 251.658 390.944 255.245 389.125C255.232 388.992 255.222 388.855 255.209 388.722C252.417 390.149 249.519 391.372 246.569 392.474C237.7 395.78 228.482 398.185 219.151 399.925C200.352 403.429 181.146 404.237 162.046 404.53C158.773 404.583 155.503 404.62 152.233 404.653C152.225 404.788 152.218 404.926 152.207 405.061C164.164 404.961 176.119 404.725 188.042 403.967C207.048 402.761 226.109 400.05 244.073 393.758Z" fill="#FFAE45"/>
<path d="M225.392 406.332C227.643 405.278 229.818 404.092 231.913 402.77C232.116 402.645 232.337 402.941 232.132 403.068C230.011 404.405 227.807 405.606 225.524 406.673C225.306 406.775 225.176 406.432 225.392 406.332Z" fill="#492525"/>
<path d="M221.958 155.723C221.558 158.371 221.157 161.019 220.757 163.664C220.723 163.894 221.087 163.992 221.121 163.764C221.521 161.114 221.922 158.466 222.322 155.82C222.356 155.592 221.992 155.492 221.958 155.723Z" fill="#2A2740"/>
<path d="M213.05 507.962C213.042 507.962 213.037 507.962 213.032 507.962C212.928 507.955 212.852 507.867 212.86 507.765L221.828 407.414C221.838 407.313 221.924 407.241 222.033 407.248C222.137 407.258 222.213 407.346 222.205 407.446L213.237 507.797C213.229 507.89 213.146 507.962 213.05 507.962Z" fill="#492525"/>
<path d="M226.762 402.656C223.861 405.506 220.778 408.167 217.521 410.632C217.331 410.777 217.599 411.033 217.789 410.89C221.046 408.425 224.128 405.762 227.027 402.911C227.198 402.746 226.931 402.488 226.762 402.656Z" fill="#492525"/>
<path d="M354.127 96.4039L369.169 77.4294L388.576 105.071C388.576 105.071 419.383 47.212 484.884 34.3296C455.457 48.3483 403.39 104.553 394.398 141.378C369.411 109.522 354.127 96.4039 354.127 96.4039Z" fill="#8EBA3A"/>
<line y1="-0.5" x2="430.005" y2="-0.5" transform="matrix(-0.999989 0.00467588 -0.00417078 -0.999991 499 517)" stroke="black"/>
</g>
<defs>
<clipPath id="clip0_90_93">
<rect width="539" height="519" fill="white"/>
</clipPath>
</defs>
</svg>
