<svg width="55" height="55" viewBox="0 0 55 55" fill="none" xmlns="http://www.w3.org/2000/svg">
<mask id="mask0_2754_69416" style="mask-type:luminance" maskUnits="userSpaceOnUse" x="0" y="0" width="55" height="55">
<path d="M0 0H54.8865V54.921H0V0Z" fill="white"/>
</mask>
<g mask="url(#mask0_2754_69416)">
<path d="M3.52632 4.86829C4.78097 3.13778 6.62221 2.16867 8.40462 1.19786C9.68898 0.498485 11.1396 0.150221 12.6849 0.079942C15.1153 -0.0301708 17.2596 0.647294 19.144 2.00677C20.2901 2.8339 21.3033 3.87357 22.2235 4.94084C23.0421 5.8906 23.6982 6.98319 24.3412 8.06014C25.3179 9.69561 26.0221 11.4475 26.4881 13.2864C26.945 15.0891 27.3309 16.9019 27.3906 18.7661C27.3933 18.8472 27.4601 18.9263 27.4968 19.0063C27.5883 18.9135 27.7457 18.8301 27.7616 18.7263C27.9846 17.2803 28.5865 15.959 29.1483 14.6202C29.7337 13.2252 30.478 11.9203 31.4791 10.7743C32.3887 9.73317 33.3385 8.71911 34.3393 7.75967C35.7355 6.42096 37.1281 5.0649 38.6463 3.86304C40.1987 2.63388 41.9873 1.76151 43.9847 1.3552C47.0565 0.730661 49.9329 1.00125 52.2575 3.26439C53.6077 4.57892 54.3658 6.24256 54.6085 8.08916C54.745 9.12541 54.893 10.177 54.8515 11.2147C54.7809 12.9811 54.4073 14.7084 53.9069 16.4176C53.163 18.9599 52.006 21.3277 50.8646 23.7118C49.9176 25.6904 49.1151 27.7331 48.1826 29.7182C47.6087 30.9406 46.9209 32.1137 46.2654 33.299C45.6368 34.4363 45.0167 35.5795 44.3348 36.6869C42.8807 39.0485 41.3939 41.3916 39.9113 43.737C38.0097 46.7447 36.1217 49.761 34.1761 52.7421C33.7157 53.4474 33.1011 54.083 32.459 54.6453C31.9083 55.1273 31.2767 54.907 30.7931 54.3272C30.3812 53.8329 29.8755 53.4113 29.404 52.9648C27.5621 51.2204 25.6538 49.5363 23.895 47.717C22.635 46.4136 21.5445 44.9516 20.4322 43.5213C19.4873 42.3064 18.2839 41.3717 17.0848 40.4262C16.0484 39.609 15.0003 38.8055 13.9466 38.0094C11.642 36.2681 9.45982 34.3948 7.45267 32.3376C5.91914 30.7659 4.63683 29.0134 3.48367 27.16C2.12782 24.9808 1.23735 22.6252 0.571045 20.1902C0.305699 19.2211 0.265397 18.1908 0.16126 17.1847C0.0838919 16.4392 -0.0131857 15.6818 0.0412366 14.9392C0.210975 12.6348 0.602816 10.3685 1.68391 8.27211C2.26843 7.13855 2.88943 6.02291 3.52632 4.86829ZM39.6533 6.82585C38.4981 7.28593 37.3805 7.80178 36.5915 8.79422C35.4557 10.2231 34.2072 11.5835 33.2159 13.1009C32.0177 14.9347 30.9996 16.8828 29.975 18.8171C29.0436 20.5763 28.8662 22.5407 28.5547 24.4561C28.3973 25.4258 28.3894 26.4171 28.2799 27.395C28.177 28.3135 27.3415 28.7912 26.7667 28.2421C26.5378 28.0233 26.5755 27.5458 26.4852 27.1876C26.4552 27.0681 26.404 26.9535 26.3625 26.8365C26.2757 26.9335 26.1586 27.0178 26.1069 27.1301C25.8806 27.619 25.6962 28.1269 25.4523 28.6066C25.2576 28.9898 24.5115 29.2604 24.2203 29.0336C23.8655 28.7574 23.4837 28.4748 23.7758 27.8822C24.2515 26.9162 24.6504 25.9138 25.0584 24.9182C25.247 24.4587 25.4361 24.0311 25.1634 23.4779C24.4565 22.0459 23.8297 20.576 23.196 19.1113C22.1605 16.7175 20.7805 14.5204 19.1455 12.4743C18.3095 11.4281 17.4025 10.4348 16.5185 9.42474C14.8144 7.47771 12.9184 5.75687 10.4282 4.78179C9.45894 4.40223 8.45492 4.12936 7.39589 4.46454C6.4257 4.77183 5.8959 5.57933 5.31196 6.28496C4.911 6.76951 4.60859 7.37015 4.41267 7.96539C4.09937 8.91828 3.90698 9.89734 4.12261 10.9248C4.28205 11.6828 4.22969 12.4863 4.42091 13.2337C4.96042 15.3435 5.76822 17.3688 6.81902 19.2891C7.89922 21.2629 9.01209 23.2224 10.1847 25.1458C11.4667 27.2494 12.7987 29.3264 14.1731 31.375C15.7216 33.6834 17.3278 35.956 18.9372 38.2254C19.5609 39.1048 20.1763 40.0162 20.9512 40.7614C21.7722 41.5512 22.7574 42.1891 23.7085 42.8424C25.3402 43.9635 26.9761 45.0822 28.6579 46.131C29.9302 46.9246 31.277 47.606 32.5887 48.3401C32.9655 48.5509 33.2497 48.58 33.4771 48.1156C33.6989 47.6632 34.0178 47.256 34.282 46.8221C35.3257 45.1081 36.3638 43.3907 37.4055 41.6753C38.3157 40.1764 39.2111 38.6684 40.1434 37.1823C41.1833 35.5246 42.2764 33.898 43.3119 32.2377C44.6328 30.12 45.8501 27.9391 47.2371 25.8634C49.2128 22.9063 49.9347 19.61 50.228 16.1937C50.3268 15.0419 50.2094 13.8654 50.11 12.7068C50.0032 11.4623 49.6808 10.2724 48.9727 9.18886C47.6163 7.11265 45.6765 5.96031 43.1604 5.99844C42.009 6.01608 40.865 6.49437 39.6533 6.82585ZM25.3952 17.7632C25.1084 16.3673 24.9463 14.9329 24.5024 13.5854C23.9944 12.0433 23.3322 10.5301 22.5647 9.09013C21.2727 6.6668 19.5621 4.55758 17.0833 3.1318C15.1877 2.04149 13.1794 1.74671 11.0487 2.31862C10.833 2.37666 10.6362 2.50015 10.4306 2.59347C10.6371 2.67855 10.8436 2.76305 11.0495 2.8487C11.1043 2.87146 11.156 2.90105 11.2116 2.91983C13.0482 3.53925 14.5761 4.65119 15.9461 5.92418C17.2749 7.15875 18.4627 8.53815 19.6815 9.88056C21.5027 11.8865 22.8886 14.1761 24.165 16.5266C24.6051 17.3369 24.926 18.2073 25.3161 19.0441C25.3588 19.136 25.4991 19.1855 25.5941 19.2547C25.6244 19.1411 25.695 19.0219 25.6785 18.9155C25.6218 18.5496 25.5347 18.1885 25.3952 17.7632ZM2.40228 13.5373C2.2955 13.8014 2.0984 14.0651 2.09781 14.3295C2.09634 15.1813 2.16076 16.0338 2.21195 16.8851C2.24225 17.3859 2.23107 17.9003 2.34992 18.3831C2.73205 19.9355 3.10712 21.48 3.72195 22.9831C4.92894 25.9357 6.68958 28.5224 8.88 30.8427C9.9658 31.9925 11.1804 33.0301 12.3563 34.0986C13.0096 34.6918 13.6995 35.2478 14.3819 35.81C14.4893 35.8985 14.6455 35.9315 14.7788 35.9901C14.7311 35.8487 14.7158 35.6848 14.6302 35.5699C14.0954 34.85 13.5003 34.1686 13.0087 33.4225C11.9224 31.7745 10.8689 30.1052 9.83283 28.4267C8.41079 26.1232 6.93639 23.845 5.63408 21.4788C4.25381 18.971 2.88208 16.4335 2.40228 13.5373ZM43.5067 4.09152C44.381 3.93076 45.207 4.14843 46.0198 4.41389C48.3503 5.17472 50.0068 6.71374 51.134 8.77089C51.9351 10.2325 52.2937 11.8276 52.1839 13.5015C52.1751 13.6346 52.2622 13.7738 52.3049 13.9103C52.3907 13.7709 52.5449 13.6346 52.552 13.4915C52.6131 12.2478 52.704 11.0016 52.6708 9.75906C52.6496 8.95982 52.5022 8.14834 52.2934 7.37215C51.5397 4.57209 49.2513 2.98897 46.2855 3.11644C45.3032 3.15883 44.3289 3.41548 43.3569 3.60242C43.0792 3.65591 42.8221 3.80927 42.5553 3.91654C42.8298 3.97486 43.104 4.03319 43.5067 4.09152ZM27.065 47.4686C26.9464 47.3952 26.8355 47.3053 26.7079 47.2529C26.5361 47.1829 26.3516 47.1422 26.1725 47.089C26.2616 47.2208 26.3278 47.3758 26.4428 47.4808C27.7789 48.7017 29.1168 49.9209 30.4742 51.12C30.5895 51.2218 30.8942 51.2551 31.0249 51.18C31.274 51.0369 31.5005 50.8166 31.6565 50.5791C31.7253 50.4741 31.6573 50.1557 31.5511 50.0925C30.0873 49.2224 28.6062 48.3799 27.065 47.4686Z" fill="#B9D386"/>
</g>
</svg>
