<svg width="538" height="560" viewBox="0 0 538 560" fill="none" xmlns="http://www.w3.org/2000/svg">
<g clip-path="url(#clip0_1819_126208)">
<mask id="mask0_1819_126208" style="mask-type:luminance" maskUnits="userSpaceOnUse" x="0" y="2" width="537" height="537">
<path d="M0 2.85455H536.672V538.568H0V2.85455Z" fill="white"/>
</mask>
<g mask="url(#mask0_1819_126208)">
<path d="M536.045 403.98C510.886 350.146 482.647 299.323 457.485 245.489C443.205 214.929 432.009 181.355 417.727 150.794C402.512 118.233 367.44 37.814 352.225 5.2581C351.377 3.44058 349.496 3.076 347.812 3.68094C235.425 43.9282 137.155 67.7774 7.3148 104.071C5.06276 104.7 -0.0147197 114.449 0.672829 116.491C2.73028 122.619 90.5237 379.156 126.728 480.756C131.416 493.91 136.283 506.998 141.392 519.982C143.496 525.338 145.349 533.853 150.942 536.742C157.906 540.342 168.985 535.033 175.733 533.337C188.674 530.085 201.59 526.712 214.472 523.218C265.291 509.434 315.624 493.74 365.377 476.24C422.628 456.096 479.025 433.454 534.532 408.574C536.169 407.842 536.794 405.587 536.045 403.98Z" fill="#FFE5DE"/>
<path d="M187.631 101.453C186.854 100.324 185.793 99.4593 184.763 98.5029L183.349 97.0684C182.854 96.5393 182.37 95.7763 181.794 95.4406C180.097 94.5554 180.057 97.1294 179.956 98.1672C179.855 99.4491 179.683 100.741 179.683 102.064C179.643 103.091 179.35 105.126 180.461 105.665C181.471 106.164 182.814 105.391 183.783 105.045C185.369 104.495 189.52 104.048 187.631 101.453ZM180.572 80.7392C181.875 82.54 183.571 83.883 185.066 85.5413C186.833 87.3014 188.49 89.2243 190.217 91.0861C191.984 92.8869 193.832 94.6368 195.226 96.7021C197.781 100.538 201.033 103.742 204.144 107.161C205.517 108.677 207.446 110.956 205.214 112.736C204.376 113.428 203.194 113.774 202.164 114.12C201.053 114.517 199.75 114.741 198.619 114.12C196.832 113.204 196.024 110.376 193.65 110.437C191.903 110.498 189.964 111.342 188.318 111.912C186.601 112.523 185.016 113.306 183.39 113.947C182.45 114.364 181.38 114.578 180.552 115.097C179.552 115.758 179.249 116.877 179.077 117.945C178.643 120.265 178.299 122.167 175.916 123.083C174.179 123.836 171.2 124.803 170.129 122.391C169.675 121.465 169.927 120.214 170.058 119.237L170.331 115.565C170.513 113.184 171.008 110.844 171.19 108.443C171.432 105.808 171.19 103.102 171.19 100.385C171.21 97.8111 171.967 95.3083 172.119 92.6122C172.3 89.9975 172.583 87.2607 172.664 84.5951C172.644 83.4353 172.593 82.1432 172.896 81.0241C173.23 79.9864 174.31 78.6637 175.502 78.562C177.845 77.7481 179.168 78.8977 180.572 80.7392Z" fill="#161E2B"/>
<path d="M229.228 78.1477C227.78 76.7658 225.846 75.3376 223.854 75.0875C219.76 74.6665 215.526 76.705 213.851 80.9193C212.189 85.3893 212.642 90.4204 216.007 93.8788C217.62 95.6276 219.906 97.3609 222.222 97.5394C224.85 97.7362 227.073 96.8364 229.191 95.2933C230.03 94.7609 230.902 94.0466 231.564 93.2372C232.179 92.4505 232.484 91.4144 232.738 90.4213C233.335 88.3717 233.359 85.8389 232.733 83.7857C232.004 81.4729 230.887 79.7009 229.228 78.1477ZM236.251 73.9944C237.471 75.4494 238.288 76.9788 239.048 78.7642C239.975 80.9255 240.851 83.1297 241.215 85.4582C241.574 87.8742 241.204 89.8506 240.563 92.1046C239.889 94.3004 239.115 96.313 237.805 98.091C236.515 99.9116 234.99 101.913 233.164 103.086C230.262 105.377 226.371 106.426 222.79 106.457C220.876 106.474 218.92 105.714 217.189 104.94C215.453 104.177 213.872 103.303 212.431 102.082C209.565 99.6369 206.783 96.1502 205.735 92.2938C204.715 88.4775 204.357 84.0538 205.245 80.2324C205.739 78.3271 206.738 76.5397 207.685 74.8918C208.685 73.1044 209.911 71.5512 211.299 70.145C212.62 68.8536 214.35 67.986 216.066 67.3046C217.82 66.6028 219.656 66.1472 221.59 66.2788C223.567 66.3697 225.39 66.8205 227.289 67.3942C228.978 67.94 230.958 68.52 232.3 69.7298C233.741 70.9501 235.081 72.4964 236.251 73.9944Z" fill="#161E2B"/>
</g>
<path d="M181.461 419.011C181.622 418.803 181.854 418.73 182.064 418.642C182.307 418.546 182.6 418.433 182.872 418.445C183.453 418.478 183.51 419.11 183.607 419.612C183.714 420.228 183.868 420.809 184.021 421.392C184.163 421.938 184.352 422.45 184.527 422.986C184.729 423.551 184.87 424.159 184.978 424.773C185.028 425.033 185.078 425.294 185.149 425.566C185.201 425.827 185.25 426.225 185.478 426.408C185.837 426.688 186.53 426.251 186.884 426.101C187.122 425.986 187.361 425.87 187.614 425.809C187.899 425.738 188.174 425.69 188.455 425.602C188.881 425.448 189.408 425.141 189.795 425.59C189.951 425.777 190.023 426.05 190.118 426.276C190.202 426.524 190.311 426.807 190.29 427.07C190.242 427.775 189.498 427.872 188.992 427.994C188.465 428.102 187.976 428.217 187.483 428.453C186.977 428.713 186.438 428.705 185.926 428.87C185.451 429.038 184.932 429.381 184.417 429.328C183.922 429.288 183.701 428.647 183.532 428.209C183.295 427.575 183.233 426.864 183.046 426.216C182.878 425.578 182.778 424.921 182.627 424.279C182.46 423.642 182.189 423.019 182.04 422.375C181.903 421.788 181.746 421.186 181.588 420.588L181.579 420.551L181.57 420.514C181.434 420.064 181.162 419.441 181.461 419.011Z" fill="#161E2B"/>
<path d="M56.9436 180.739C56.5519 180.709 56.2016 180.439 56.0771 180.026C55.9136 179.488 56.2016 178.911 56.7179 178.74L361.271 78.7797C361.787 78.6042 362.34 78.9093 362.503 79.4468C362.666 79.9869 362.378 80.5594 361.862 80.7296L57.3095 180.696C57.1875 180.733 57.063 180.75 56.9436 180.739Z" fill="#CCA69B"/>
<path d="M278.971 365.412L139.656 417.718C138.242 418.247 136.677 417.515 136.122 416.062L99.1036 323.267C97.0591 317.925 95.1833 312.518 93.4761 307.049L62.731 208.536C62.2562 207.016 63.0527 205.382 64.5134 204.882L205.009 156.887C206.473 156.39 208.048 157.219 208.528 158.742L238.393 253.812C240.082 259.221 241.942 264.571 243.966 269.856L280.614 361.61C281.197 363.13 280.453 364.856 278.971 365.412Z" fill="#E0C2BA"/>
<path d="M443.401 278.312L404.052 195.835L368.58 102.324C368.087 100.803 366.504 99.9849 365.046 100.498L224.963 149.787C223.507 150.3 222.724 151.942 223.211 153.454L261.304 254.017L302.264 351.658C302.832 353.106 304.402 353.821 305.811 353.279C305.811 353.279 404.968 309.304 437.962 294.054C443.751 291.375 446.216 284.221 443.401 278.312Z" fill="#E0C2BA"/>
<path d="M219.597 466.796C216.792 459.391 212.024 446.655 207.961 437.314C207.678 436.657 206.534 435.704 205.724 436.115C195.408 439.444 163.052 452.135 152.643 455.13C151.208 455.543 151.704 456.574 151.94 457.163C154.76 464.236 152.274 461.66 162.022 486.052C162.398 487.059 163.197 488.477 165.395 487.718C170.724 485.868 208.378 472.514 215.863 469.486C220.969 467.417 219.091 466.783 219.597 466.796Z" fill="#E0C2BA"/>
<path d="M292.031 437.8C289.229 430.392 284.46 417.656 280.397 408.314C280.112 407.658 278.968 406.708 278.161 407.115C267.842 410.443 235.489 423.133 225.077 426.133C223.645 426.544 224.138 427.573 224.376 428.164C227.197 435.237 224.709 432.663 234.459 457.055C234.835 458.063 235.634 459.475 237.829 458.716C243.161 456.866 280.812 443.517 288.298 440.487C293.404 438.421 291.525 437.786 292.031 437.8Z" fill="#E0C2BA"/>
<mask id="mask1_1819_126208" style="mask-type:luminance" maskUnits="userSpaceOnUse" x="163" y="278" width="375" height="260">
<path d="M163.393 278.245H537.997V537.069H163.393V278.245Z" fill="white"/>
</mask>
<g mask="url(#mask1_1819_126208)">
<path d="M216.105 522.821C266.924 509.037 317.26 493.343 367.01 475.843C424.263 455.699 480.663 433.055 536.168 408.177C537.807 407.445 538.427 405.19 537.68 403.583C517.944 361.351 496.222 320.742 476.491 278.512C463.319 281.988 456.931 294.629 450.071 305.939C425.672 346.179 401.294 386.431 376.905 426.679C376.807 426.706 376.724 426.7 376.625 426.746C340.12 443.744 303.275 459.929 266.088 475.222C247.74 482.768 229.313 490.1 210.809 497.219C197.416 502.372 179.395 506.015 169.159 517.244C163.976 522.931 162.515 530.101 164.297 536.796C169.032 535.73 173.804 533.834 177.369 532.943C190.31 529.688 203.223 526.318 216.105 522.821Z" fill="#F0D1C9"/>
</g>
<path d="M493.631 399.77C490.645 392.44 468.581 341.52 464.29 332.289C463.989 331.641 462.821 330.72 462.025 331.15C451.794 334.752 419.76 348.299 409.426 351.574C408.001 352.023 408.523 353.041 408.775 353.624C411.766 360.619 426.205 396.426 436.549 420.548C436.948 421.547 437.784 422.941 439.961 422.123C445.243 420.135 482.558 405.784 489.965 402.554C495.019 400.353 493.125 399.77 493.631 399.77Z" fill="#E0C2BA"/>
<path d="M480.518 286.903C479.602 287.184 480.365 285.633 479.602 286.587C477.871 288.747 476.167 290.927 474.454 293.101C472.529 290.91 469.068 290.3 467.031 293.571C455.239 312.518 443.447 331.468 431.658 350.419C430.591 350.632 429.556 351.199 428.71 352.285C418.706 365.096 408.701 377.914 398.699 390.725C391.437 402.711 384.173 414.696 376.911 426.679C376.815 426.706 376.729 426.7 376.63 426.746C374.119 427.916 294.846 463.402 266.093 475.225C247.745 482.77 229.319 490.1 210.817 497.221C197.424 502.372 179.403 506.015 169.167 517.244C163.983 522.931 162.523 530.101 164.305 536.802C169.04 535.732 173.809 533.836 177.374 532.943C180.718 532.1 184.052 531.23 187.389 530.377C227.186 512.526 267.756 496.549 308.239 480.443C337.375 468.851 366.501 457.185 395.238 444.554C407.103 439.345 416.145 433.525 423.923 422.703C433.339 409.616 442.303 396.124 451.342 382.75C466.707 360.011 479.97 339.062 493.778 315.278C489.357 305.821 484.936 296.36 480.518 286.903Z" fill="#CCA69B"/>
<path d="M367.776 408.544C364.795 401.214 346.055 355.725 341.766 346.495C341.465 345.846 340.3 344.925 339.498 345.352C329.268 348.958 297.233 362.504 286.899 365.78C285.478 366.228 285.997 367.243 286.248 367.829C289.24 374.824 300.352 405.198 310.696 429.325C311.096 430.322 311.931 431.715 314.108 430.897C319.391 428.907 356.705 414.558 364.112 411.331C369.167 409.127 367.27 408.544 367.776 408.544Z" fill="#E0C2BA"/>
<path d="M215.284 449.456L154.847 471.946C154.222 472.162 153.638 472.1 153.545 471.806L151.158 466.923C151.062 466.629 150.333 466.47 150.958 466.253L212.554 443.506C213.18 443.287 213.763 443.352 213.857 443.647L216.246 448.529C216.34 448.824 215.909 449.24 215.284 449.456Z" fill="#FFE5DE"/>
<path d="M187.683 388.64C187.473 388.135 187.26 387.633 187.029 387.12C186.246 385.359 185.068 384.363 183.773 383.947C182.045 379.766 180.315 375.586 178.587 371.402C177.699 369.258 176.047 368.256 174.285 368.097C172.448 362.223 170.611 356.349 168.777 350.475C167.749 347.191 164.966 345.79 162.366 345.944C161.196 342.417 159.989 338.9 158.705 335.406C157.828 333.027 155.784 332.065 153.672 332.125C153.085 330.526 152.486 328.933 151.855 327.347C150.965 325.117 148.436 325.324 147.118 326.734C146.666 326.356 146.218 325.978 145.769 325.597C140.626 321.252 135.455 328.441 137.22 333.483C138.029 335.795 138.818 338.131 139.604 340.472C139.42 340.98 139.391 341.58 139.594 342.268C146.21 364.672 151.458 388.457 161.476 409.608L192.46 397.974C192.639 397.531 192.831 397.101 192.984 396.602C194.317 392.203 191.074 389.037 187.683 388.64Z" fill="#ED8074"/>
<path d="M295.667 431.251L235.227 453.747C234.605 453.963 234.021 453.898 233.927 453.606L231.538 448.724C231.445 448.429 230.715 448.27 231.341 448.051L292.937 425.304C293.56 425.088 294.144 425.15 294.237 425.444L296.627 430.327C296.72 430.621 296.289 431.035 295.667 431.251Z" fill="#FFE5DE"/>
<path d="M281.635 402.292L221.195 424.786C220.57 425.002 219.986 424.937 219.893 424.645L217.506 419.762C217.41 419.468 216.684 419.309 217.306 419.093L278.903 396.343C279.528 396.127 280.112 396.191 280.205 396.483L282.595 401.368C282.688 401.66 282.258 402.073 281.635 402.292Z" fill="#FFE5DE"/>
<path d="M362.694 392.764L302.254 415.258C301.629 415.476 301.045 415.412 300.952 415.115L298.562 410.235C298.469 409.938 297.742 409.784 298.365 409.565L359.964 386.815C360.587 386.599 361.171 386.661 361.264 386.958L363.654 391.838C363.747 392.135 363.316 392.548 362.694 392.764Z" fill="#FFE5DE"/>
<path d="M247.063 283.983C245.101 275.02 242.46 266.216 238.732 257.682C238.508 257.172 238.226 256.761 237.917 256.399C234.949 251.001 230.426 246.72 224.586 243.612C215.394 238.726 206.77 237.978 199.751 230.476C196.887 227.416 187.71 212.482 185.79 209.055C186.919 195.014 183.401 179.167 179.864 165.413L120.803 185.589C122.461 197.923 124.126 214.251 131.848 223.765C137.914 231.24 146.504 230.625 154.848 228.659C159.775 236.264 164.964 243.669 170.423 250.874C162.266 260.126 151.187 266.456 144.05 276.967C141.305 281.007 139.071 285.326 137.273 289.819C132.104 300.541 129.079 312.294 127.232 324.325C132.496 323.718 137.405 328.509 137.234 333.283C138.715 333.661 140.147 334.253 141.468 335.033C143.378 336.159 144.914 337.715 146.294 339.424C147.373 339.303 148.491 339.389 149.605 339.778C156.89 342.311 164.11 346.908 165.615 355.21C166.702 355.434 167.792 355.623 168.879 355.868C173.627 356.954 175.109 362.201 173.902 366.514C175.438 367.573 176.663 369.228 177.179 371.632C177.353 372.442 177.415 373.314 177.454 374.195C185.399 382.335 193.348 390.431 198.353 395.613L237.33 380.981C237.325 380.914 237.315 380.849 237.31 380.779C235.548 351.755 241.902 322.926 239.689 293.938C239.274 288.523 243.054 284.907 247.063 283.983Z" fill="#ED8074"/>
<path d="M249.33 331.023C248.459 318.341 252.737 313.852 256.704 302.129L243.983 269.73C241.959 264.444 240.099 259.095 238.41 253.685L235.572 244.649C225.837 241.959 210.213 238.805 208.459 238.751C207.333 238.716 206.526 239.542 206.376 240.671C206.207 241.927 202.146 273.886 200.875 280.543C199.695 286.725 197.811 307.371 199.482 331.366C201.062 354.067 206.119 380.247 207.764 383.655C203.747 380.765 199.936 377.819 196.711 373.684C189.179 364.022 188.206 351.526 180.744 341.855C175.07 334.496 168.602 328.611 164.614 320.917C163.766 318.149 162.839 315.405 161.833 312.675C161.745 312.432 161.625 312.229 161.495 312.043C161.278 310.946 161.091 309.823 160.979 308.64C159.402 292.142 160.79 274.901 160.87 258.33C160.875 257.058 159.957 256.356 159.007 256.253C157.778 255.262 155.129 254.838 154.047 256.591C138.542 281.691 127.65 309.253 124.511 339.146C124.407 340.129 124.957 341.407 125.816 341.887C132.543 345.649 145.716 344.115 152.806 345.876C157.622 353.365 160.126 359.306 164.759 367.108C169.974 375.888 173.402 385.508 179.538 393.731C181.315 396.116 183.238 398.355 185.266 400.475L260.793 373.193C260.585 366.25 249.862 338.776 249.33 331.023Z" fill="white"/>
<path d="M164.61 291.467C165.692 288.034 165.601 285.59 167.467 282.398C169.016 279.743 170.809 278.434 172.799 276.303C175.019 273.924 176.688 271.631 177.419 268.333C179.407 259.373 169.021 253.253 167.724 244.538C167.314 241.767 169.343 238.019 167.825 239.553C166.048 233.873 163.902 228.329 161.346 222.871C160.337 220.713 157.405 220.956 156.199 222.485C155.418 220.438 154.621 218.402 153.89 216.328C153.345 214.869 152.216 214.432 151.124 214.648C150.909 213.859 150.665 213.081 150.455 212.293C149.487 208.639 144.254 209.595 144.638 213.198C144.635 213.195 144.632 213.189 144.632 213.184C143.877 210.872 141.335 210.448 139.84 211.434C139.319 209.209 138.823 207.019 138.382 204.89C137.913 202.608 135.803 202.093 134.247 202.903C133.217 202.514 131.992 202.822 131.154 203.581C129.885 203.635 128.614 204.472 128.274 205.884C127.957 205.809 127.638 205.779 127.319 205.806C126.468 199.014 125.503 193.316 125.176 191.104C124.867 189.024 123.228 188.465 121.757 188.905C121.577 187.785 121.38 186.656 121.183 185.524L110.551 189.157C110.603 200.353 110.556 211.564 110.878 222.75C111.111 230.843 111.656 239.834 116.388 246.637C117.675 248.489 119.201 250.11 121.113 251.244C125.365 253.761 133.489 252.122 136.068 257.45C137.975 261.393 137.093 269.257 137.962 273.656C138.888 278.353 140.206 283.049 142.126 287.424C146.895 298.291 159.538 307.557 164.61 291.467Z" fill="#161E2B"/>
<path d="M321.097 116.877C321.344 117.539 321.621 118.187 321.876 118.843C322.41 121.25 323.139 123.61 324.112 125.914C325.225 128.544 326.891 133.013 329.641 134.577C329.563 134.72 329.496 134.866 329.413 135.004C328.419 136.667 330.15 139.012 331.94 137.972C336.745 135.171 342.928 130.437 340.458 123.726C339.293 120.561 336.345 119.367 334.355 116.915C333.279 115.589 332.368 114.012 331.548 112.335L320.814 116.113C320.91 116.367 321.004 116.621 321.097 116.877Z" fill="#161E2B"/>
<path d="M170.497 251.047C170.175 251.414 171.493 251.889 172.492 251.8C172.92 251.387 173.341 250.952 173.774 250.552C181.926 243.031 191.713 237.047 202.197 232.882C201.388 232.207 200.596 231.478 199.826 230.654C196.961 227.589 187.784 212.657 185.865 209.23C186.993 195.19 183.475 179.34 179.939 165.586L120.877 185.762C122.535 198.096 124.201 214.426 131.922 223.941C137.988 231.416 146.578 230.8 154.922 228.837C159.847 236.439 165.038 243.844 170.497 251.047Z" fill="#ED8074"/>
<path d="M149.498 175.77C150.881 176.329 152.394 176.812 154.057 177.301C164.502 180.361 165.102 184.517 166.988 193.515C167.911 197.92 169.071 202.311 170.69 206.503C177.68 224.616 193.063 233.833 210.023 239.99C210.384 240.12 224.737 244.838 227.668 246.691C227.975 246.885 229.389 247.595 230.559 247.382C231.804 247.152 232.79 245.964 232.479 244.927C230.53 238.427 228.597 231.756 225.084 225.95C221.205 219.544 215.451 214.71 210.804 208.949C199.86 195.382 196.077 178.119 189.43 162.126L149.498 175.77Z" fill="#161E2B"/>
<path d="M317.154 201.199C319.564 205.711 327.81 203.689 327.55 198.223C327.231 191.441 326.907 184.663 326.588 177.879C326.525 176.142 326.445 174.4 326.375 172.664C337.736 157.751 330.998 132.525 324.001 115.057L275.743 132.039C275.722 132.646 275.769 133.284 275.979 133.983C278.01 140.832 283.731 154.359 291.333 164.557C293.17 176.423 294.143 188.503 296.86 200.183C297.534 203.076 300.017 204.566 302.477 204.653C304.635 208.609 311.794 208.831 312.818 203.694C312.92 203.181 312.966 202.665 313.052 202.152C314.5 202.317 315.966 201.995 317.112 201.201C317.125 201.201 317.138 201.199 317.154 201.199Z" fill="#ED8074"/>
<path d="M405.158 238.594C395.981 231.108 386.355 224.194 376.426 217.84C367.548 212.152 358.389 206.959 349.025 202.182C342.765 198.987 335.985 196.335 330.14 192.395C329.956 190.053 329.444 187.669 328.682 186.767C326.279 183.912 320.262 186.899 317.408 187.455C313.792 188.163 310.159 188.779 306.514 189.292C303.678 189.691 299.055 189.324 296.523 190.526C294.146 191.655 294.143 194.436 294.374 197.126C282.499 219.052 267.072 242.534 266.867 266.997L292.989 329.265C293.435 329.821 293.884 331.112 294.343 332.875L302.256 351.739C302.827 353.187 304.397 353.908 305.806 353.365C305.806 353.365 376.678 321.935 418.522 303.001C432.481 293.927 443.248 286.73 444.449 285.153C444.47 284.991 444.48 284.826 444.496 284.664C441.761 275.828 411.616 243.863 405.158 238.594Z" fill="#161E2B"/>
<path d="M264.649 139.179C264.665 142.325 265.342 145.42 267.692 147.586C270.912 150.549 277.907 151.667 281.9 149.298C282.601 149.244 283.299 149.128 283.991 148.953C287.821 149.803 291.936 149.819 295.467 147.88C299.519 145.658 299.159 142.682 299.756 138.485C300.671 132.052 306.911 129.316 307.498 122.856C307.568 122.09 307.552 121.341 307.487 120.601L264.784 135.628C264.704 136.8 264.641 137.975 264.649 139.179Z" fill="#161E2B"/>
<path d="M296.765 169.304C292.704 160.962 287.694 153.238 282.632 145.534C281.911 144.432 280.373 144.734 279.623 145.644C279.454 145.423 279.317 145.193 279.138 144.977C278.32 143.997 276.906 144.172 276.172 145.031C276.066 144.977 275.967 144.912 275.861 144.861C275.002 144.451 274.05 144.948 273.565 145.731C273.596 145.539 273.64 145.353 273.619 145.139C273.614 145.085 273.609 145.026 273.604 144.975C273.515 144.083 272.592 143.416 271.795 143.351C271.73 143.346 271.66 143.341 271.595 143.335C270.555 143.257 269.546 144.159 269.512 145.258C269.439 147.575 271.157 149.617 272.488 151.34C275.002 154.597 277.399 157.508 279.317 161.23C280.666 163.852 281.761 166.62 284.158 168.435C287.041 170.614 290.969 171.424 294.373 172.17C295.966 172.518 297.608 171.044 296.765 169.304Z" fill="#161E2B"/>
<path d="M234.725 405.221C234.567 404.495 234.131 403.911 233.988 403.182C233.905 402.82 233.84 402.45 233.711 402.107C233.532 401.699 233.345 401.313 233.223 400.887C233.148 400.603 233.049 400.249 233.259 399.987C233.48 399.704 233.993 399.698 234.315 399.607C234.995 399.38 235.633 399.045 236.303 398.807C236.975 398.561 237.675 398.348 238.344 398.105C238.679 397.986 239.019 397.884 239.38 397.775C239.686 397.686 240.013 397.649 240.296 397.854C240.558 398.048 240.646 398.429 240.726 398.729C240.812 399.045 240.864 399.38 240.685 399.669C240.498 399.944 240.174 400.039 239.886 400.122C239.528 400.233 239.175 400.419 238.83 400.568C238.176 400.862 237.475 401.014 236.832 401.33C236.591 401.438 236.331 401.554 236.274 401.862C236.264 402.007 236.321 402.175 236.344 402.307C236.412 402.512 236.466 402.739 236.536 402.942C236.624 403.258 236.767 403.452 237.097 403.374C237.449 403.309 237.8 403.117 238.114 402.988C238.49 402.809 238.84 402.623 239.211 402.488C239.572 402.377 239.909 402.275 240.262 402.439C240.882 402.747 241.17 403.919 240.558 404.389C240.244 404.627 239.79 404.686 239.398 404.83C239.029 404.959 238.648 405.118 238.264 405.281C237.953 405.41 237.553 405.578 237.6 406.012C237.639 406.372 237.828 406.752 237.963 407.098L237.999 407.209C238.194 407.857 238.396 408.527 238.547 409.21C238.604 409.499 238.645 409.793 238.376 409.993C238.106 410.193 237.704 410.301 237.405 410.406C237.146 410.52 236.811 410.703 236.549 410.506C236.3 410.29 236.233 409.799 236.131 409.485C236.012 409.14 235.862 408.802 235.74 408.435C235.61 408.049 235.501 407.657 235.34 407.301C235.073 406.617 234.87 405.95 234.725 405.221Z" fill="#161E2B"/>
<path d="M243.194 402.11C243.036 401.383 242.6 400.8 242.457 400.071C242.374 399.709 242.309 399.339 242.179 398.996C242 398.588 241.814 398.202 241.692 397.775C241.616 397.492 241.518 397.138 241.728 396.876C241.949 396.593 242.462 396.587 242.784 396.495C243.464 396.269 244.102 395.934 244.771 395.696C245.443 395.45 246.144 395.237 246.813 394.994C247.148 394.875 247.488 394.772 247.848 394.664C248.155 394.575 248.482 394.537 248.764 394.743C249.026 394.937 249.115 395.318 249.195 395.618C249.281 395.934 249.333 396.269 249.153 396.557C248.967 396.833 248.642 396.927 248.354 397.011C247.996 397.122 247.643 397.308 247.298 397.457C246.645 397.751 245.944 397.902 245.301 398.218C245.059 398.326 244.8 398.443 244.743 398.75C244.732 398.896 244.79 399.064 244.813 399.196C244.88 399.401 244.935 399.628 245.005 399.831C245.093 400.147 245.236 400.341 245.565 400.263C245.918 400.198 246.268 400.006 246.582 399.877C246.959 399.698 247.309 399.512 247.68 399.377C248.04 399.266 248.378 399.164 248.731 399.328C249.351 399.636 249.639 400.808 249.026 401.278C248.712 401.516 248.258 401.575 247.867 401.718C247.498 401.848 247.117 402.007 246.733 402.169C246.421 402.299 246.022 402.466 246.069 402.901C246.108 403.26 246.297 403.641 246.432 403.987L246.468 404.098C246.663 404.746 246.865 405.416 247.016 406.099C247.073 406.388 247.114 406.682 246.844 406.882C246.575 407.082 246.172 407.19 245.874 407.295C245.615 407.409 245.28 407.592 245.018 407.395C244.769 407.179 244.701 406.687 244.6 406.374C244.481 406.029 244.33 405.691 244.208 405.324C244.079 404.937 243.97 404.546 243.809 404.189C243.542 403.506 243.339 402.839 243.194 402.11Z" fill="#161E2B"/>
<path d="M150.278 438.065C150.078 437.765 149.806 437.535 149.541 437.281L149.178 436.901C149.051 436.76 148.926 436.558 148.778 436.468C148.342 436.233 148.332 436.917 148.306 437.192C148.28 437.532 148.236 437.875 148.236 438.227C148.226 438.499 148.15 439.039 148.436 439.183C148.695 439.315 149.04 439.11 149.289 439.018C149.697 438.872 150.763 438.753 150.278 438.065ZM148.464 432.566C148.799 433.044 149.235 433.401 149.619 433.841C150.073 434.308 150.498 434.818 150.942 435.313C151.396 435.791 151.871 436.255 152.229 436.803C152.885 437.821 153.721 438.672 154.52 439.58C154.873 439.982 155.368 440.587 154.795 441.059C154.58 441.243 154.276 441.335 154.011 441.427C153.726 441.532 153.391 441.592 153.101 441.427C152.642 441.184 152.434 440.433 151.824 440.449C151.375 440.465 150.877 440.69 150.454 440.841C150.013 441.003 149.606 441.211 149.188 441.381C148.947 441.492 148.672 441.548 148.459 441.686C148.202 441.862 148.124 442.159 148.08 442.442C147.969 443.058 147.881 443.563 147.268 443.806C146.822 444.006 146.057 444.262 145.782 443.622C145.665 443.377 145.73 443.044 145.763 442.785L145.834 441.81C145.88 441.178 146.007 440.557 146.054 439.92C146.116 439.22 146.054 438.502 146.054 437.781C146.059 437.098 146.254 436.433 146.293 435.718C146.339 435.024 146.412 434.297 146.433 433.59C146.428 433.282 146.415 432.939 146.493 432.642C146.578 432.366 146.856 432.015 147.162 431.988C147.764 431.772 148.104 432.077 148.464 432.566Z" fill="#161E2B"/>
<path d="M230.894 405.83C230.569 405.33 230.107 404.777 229.539 404.55C228.364 404.11 226.96 404.35 226.146 405.406C225.315 406.532 225.066 407.98 225.795 409.216C226.14 409.832 226.68 410.505 227.349 410.734C228.11 410.994 228.834 410.918 229.576 410.651C229.866 410.567 230.175 410.434 230.434 410.262C230.673 410.089 230.842 409.824 230.992 409.562C231.327 409.03 231.524 408.32 231.496 407.693C231.459 406.986 231.262 406.397 230.894 405.83ZM233.281 405.217C233.527 405.725 233.652 406.216 233.742 406.778C233.849 407.458 233.94 408.147 233.87 408.833C233.792 409.535 233.532 410.064 233.174 410.648C232.808 411.212 232.424 411.72 231.903 412.114C231.387 412.527 230.785 412.97 230.154 413.159C229.124 413.573 227.897 413.562 226.836 413.289C226.273 413.143 225.754 412.773 225.302 412.422C224.848 412.071 224.451 411.701 224.117 411.245C223.46 410.326 222.902 409.133 222.887 407.966C222.879 406.813 223.107 405.538 223.66 404.534C223.951 404.039 224.384 403.615 224.786 403.221C225.217 402.8 225.697 402.462 226.216 402.173C226.701 401.917 227.279 401.803 227.835 401.752C228.405 401.69 228.984 401.706 229.542 401.895C230.12 402.079 230.624 402.349 231.14 402.657C231.594 402.946 232.136 403.262 232.437 403.707C232.769 404.164 233.047 404.704 233.281 405.217Z" fill="#161E2B"/>
<path d="M159.501 430.346C158.92 429.838 157.988 430.195 157.366 430.397C157.023 430.505 156.388 430.549 156.263 430.94C156.175 431.162 156.274 431.391 156.323 431.602L156.536 432.242C156.665 432.628 156.753 433.068 156.966 433.406C157.153 433.73 157.418 433.692 157.729 433.563C158.463 433.276 159.348 433.144 159.823 432.372C160.209 431.759 160.054 430.808 159.501 430.346ZM162.148 432.706C161.867 433.282 161.494 433.949 160.975 434.343C160.835 434.456 159.312 435.107 159.301 435.069L159.283 435.078C158.876 435.223 157.999 435.377 157.934 435.896C157.911 436.131 158.056 436.387 158.123 436.587C158.232 436.857 158.287 437.125 158.378 437.403C158.523 437.905 158.894 438.596 158.57 439.102C158.411 439.347 158.165 439.434 157.916 439.523C157.669 439.615 157.381 439.696 157.122 439.69C156.489 439.625 156.351 438.915 156.18 438.402C156.001 437.87 155.877 437.319 155.653 436.822C155.446 436.32 155.228 435.845 155.062 435.35C154.854 434.724 154.657 434.073 154.413 433.463C154.011 432.436 153.627 431.34 153.42 430.241C153.313 429.62 153.518 429.236 154.097 429.009C154.618 428.799 155.129 428.612 155.64 428.369C156.203 428.102 156.728 427.894 157.311 427.745C157.859 427.605 158.406 427.411 158.967 427.432C159.569 427.462 160.049 427.6 160.56 427.945C161.001 428.264 161.481 428.626 161.808 429.082C162.576 430.125 162.723 431.532 162.148 432.706Z" fill="#161E2B"/>
<path d="M193.845 414.561C194.46 414.564 195.643 414.793 195.604 415.636C195.591 416.008 195.396 416.492 195.152 416.762C194.825 417.148 194.447 417.143 194.003 417.056C193.227 416.921 192.306 416.886 191.717 417.488C191.466 417.748 191.222 418.204 191.421 418.563C191.585 418.877 192.023 419.066 192.337 419.12C192.776 419.187 193.243 419.16 193.676 419.209C194.102 419.244 194.499 419.263 194.908 419.238C195.723 419.195 196.546 419.284 197.158 419.887C197.472 420.165 197.734 420.481 197.97 420.829C198.227 421.188 198.315 421.569 198.344 422.009C198.471 423.694 197.186 425.291 195.78 425.941C195.381 426.106 194.966 426.176 194.561 426.257C194.172 426.338 193.772 426.441 193.388 426.479C192.963 426.508 192.527 426.438 192.125 426.357C191.785 426.295 191.224 426.209 190.983 425.909C190.76 425.598 190.926 425.08 191.012 424.742C191.118 424.353 191.274 423.992 191.699 423.897C192.099 423.797 192.532 423.967 192.929 424.029C193.331 424.11 193.751 424.064 194.141 423.983C194.569 423.91 194.932 423.757 195.272 423.47C195.526 423.276 195.874 422.841 195.767 422.468C195.645 422.101 195.142 421.893 194.81 421.847C194.408 421.766 193.969 421.758 193.562 421.723C192.706 421.639 191.86 421.658 191.032 421.485C190.21 421.329 189.582 420.691 189.159 419.957C188.97 419.617 188.871 419.217 188.819 418.828C188.772 418.39 188.887 418.02 189.047 417.613C189.208 417.202 189.442 416.829 189.688 416.457C189.898 416.13 190.132 415.757 190.446 415.522C190.532 415.428 191.491 414.917 191.507 414.971C192.267 414.699 193.027 414.547 193.845 414.561Z" fill="#161E2B"/>
<path d="M159.501 430.346C158.92 429.838 157.988 430.195 157.366 430.397C157.023 430.505 156.388 430.549 156.263 430.94C156.175 431.162 156.274 431.391 156.323 431.602L156.536 432.242C156.665 432.628 156.753 433.068 156.966 433.406C157.153 433.73 157.418 433.692 157.729 433.563C158.463 433.276 159.348 433.144 159.823 432.372C160.209 431.759 160.054 430.808 159.501 430.346ZM162.148 432.706C161.867 433.282 161.494 433.949 160.975 434.343C160.835 434.456 159.312 435.107 159.301 435.069L159.283 435.078C158.876 435.223 157.999 435.377 157.934 435.896C157.911 436.131 158.056 436.387 158.123 436.587C158.232 436.857 158.287 437.125 158.378 437.403C158.523 437.905 158.894 438.596 158.57 439.102C158.411 439.347 158.165 439.434 157.916 439.523C157.669 439.615 157.381 439.696 157.122 439.69C156.489 439.625 156.351 438.915 156.18 438.402C156.001 437.87 155.877 437.319 155.653 436.822C155.446 436.32 155.228 435.845 155.062 435.35C154.854 434.724 154.657 434.073 154.413 433.463C154.011 432.436 153.627 431.34 153.42 430.241C153.313 429.62 153.518 429.236 154.097 429.009C154.618 428.799 155.129 428.612 155.64 428.369C156.203 428.102 156.728 427.894 157.311 427.745C157.859 427.605 158.406 427.411 158.967 427.432C159.569 427.462 160.049 427.6 160.56 427.945C161.001 428.264 161.481 428.626 161.808 429.082C162.576 430.125 162.723 431.532 162.148 432.706Z" fill="#161E2B"/>
<path d="M168.468 427.235C167.887 426.727 166.955 427.084 166.333 427.286C165.99 427.394 165.354 427.438 165.23 427.829C165.142 428.051 165.24 428.28 165.29 428.491L165.502 429.131C165.632 429.517 165.72 429.957 165.933 430.295C166.12 430.619 166.384 430.581 166.696 430.451C167.43 430.165 168.315 430.033 168.79 429.26C169.176 428.647 169.021 427.697 168.468 427.235ZM171.114 429.595C170.834 430.171 170.46 430.838 169.942 431.232C169.801 431.345 168.278 431.996 168.268 431.958L168.25 431.967C167.843 432.112 166.966 432.266 166.901 432.785C166.877 433.02 167.023 433.276 167.09 433.476C167.199 433.746 167.254 434.014 167.344 434.292C167.49 434.794 167.861 435.485 167.536 435.99C167.378 436.236 167.132 436.323 166.883 436.412C166.636 436.504 166.348 436.585 166.089 436.579C165.456 436.514 165.318 435.804 165.147 435.291C164.968 434.759 164.843 434.208 164.62 433.711C164.413 433.209 164.195 432.733 164.029 432.239C163.821 431.613 163.624 430.962 163.38 430.352C162.978 429.325 162.594 428.229 162.386 427.13C162.28 426.509 162.485 426.125 163.064 425.898C163.585 425.688 164.096 425.501 164.607 425.258C165.17 424.991 165.694 424.783 166.278 424.634C166.826 424.494 167.373 424.299 167.933 424.321C168.535 424.351 169.015 424.488 169.526 424.834C169.968 425.153 170.448 425.515 170.774 425.971C171.542 427.014 171.69 428.421 171.114 429.595Z" fill="#161E2B"/>
<path d="M181.873 429.063C182.021 429.444 182.185 429.941 182.12 430.335C182.013 430.786 181.684 430.927 181.305 431.043C180.861 431.183 180.402 431.345 179.974 431.542C179.115 431.937 178.184 432.169 177.32 432.542C176.928 432.725 176.505 432.879 176.095 433.025C175.766 433.163 175.265 433.43 174.964 433.128C174.666 432.823 174.616 432.264 174.487 431.88C174.359 431.432 174.212 430.992 174.1 430.535C173.973 430.09 173.877 429.63 173.713 429.196C173.568 428.753 173.381 428.326 173.2 427.899C173.018 427.47 172.914 427.038 172.808 426.6C172.707 426.122 172.533 425.652 172.395 425.185C172.242 424.726 172.131 424.27 171.96 423.819C171.851 423.487 171.511 422.952 171.799 422.62C172.037 422.331 172.556 422.287 172.878 422.131C173.28 421.963 173.672 421.78 174.077 421.631C174.948 421.34 175.836 421.161 176.661 420.724C177.271 420.419 178.472 419.754 178.978 420.562C179.167 420.886 179.312 421.45 179.302 421.823C179.271 422.266 178.908 422.482 178.568 422.644C177.738 423.006 176.858 423.2 176.01 423.508C175.639 423.64 175.156 423.794 174.868 424.064C174.564 424.34 174.73 424.775 174.824 425.11C174.933 425.442 175.096 425.936 175.535 425.882C175.973 425.828 176.409 425.544 176.832 425.393C177.481 425.139 178.677 424.58 179.185 425.385C179.38 425.685 179.53 426.187 179.416 426.557C179.279 426.976 178.902 427.154 178.534 427.286C178.428 427.327 177.294 427.778 177.294 427.778L177.273 427.783C177.066 427.862 176.871 427.932 176.671 427.983C176.471 428.034 176.212 428.086 176.111 428.267C176.012 428.448 176.08 428.647 176.152 428.807C176.24 429.001 176.305 429.204 176.373 429.409C176.43 429.571 176.466 429.803 176.614 429.895C176.778 430.022 176.99 429.949 177.164 429.882L178.363 429.449C179.183 429.174 180.026 428.745 180.89 428.601C181.302 428.531 181.707 428.631 181.873 429.063Z" fill="#161E2B"/>
<path d="M269.723 396.22C269.871 396.601 270.034 397.098 269.969 397.492C269.863 397.943 269.533 398.084 269.155 398.2C268.711 398.34 268.252 398.502 267.824 398.699C266.965 399.094 266.033 399.326 265.169 399.699C264.778 399.882 264.355 400.036 263.945 400.182C263.615 400.32 263.115 400.587 262.814 400.285C262.515 399.98 262.466 399.421 262.336 399.037C262.209 398.589 262.061 398.149 261.95 397.692C261.822 397.247 261.726 396.787 261.563 396.353C261.418 395.91 261.231 395.483 261.049 395.056C260.868 394.627 260.764 394.195 260.658 393.757C260.556 393.279 260.383 392.809 260.245 392.342C260.092 391.883 259.98 391.427 259.809 390.976C259.7 390.644 259.36 390.109 259.648 389.777C259.887 389.488 260.406 389.444 260.728 389.288C261.13 389.12 261.522 388.937 261.926 388.788C262.798 388.497 263.685 388.318 264.51 387.881C265.12 387.576 266.321 386.911 266.827 387.719C267.017 388.043 267.162 388.607 267.152 388.98C267.12 389.423 266.757 389.639 266.417 389.801C265.587 390.163 264.708 390.357 263.859 390.665C263.488 390.797 263.006 390.951 262.718 391.221C262.414 391.497 262.58 391.932 262.673 392.267C262.782 392.599 262.946 393.093 263.384 393.039C263.823 392.985 264.259 392.701 264.682 392.55C265.33 392.296 266.526 391.737 267.035 392.542C267.229 392.842 267.38 393.344 267.266 393.714C267.128 394.133 266.752 394.311 266.384 394.443C266.277 394.484 265.143 394.935 265.143 394.935L265.123 394.94C264.915 395.019 264.721 395.089 264.521 395.14C264.321 395.191 264.062 395.243 263.96 395.424C263.862 395.605 263.929 395.804 264.002 395.964C264.09 396.158 264.155 396.361 264.222 396.566C264.279 396.728 264.316 396.96 264.464 397.052C264.627 397.179 264.84 397.106 265.014 397.039L266.212 396.607C267.032 396.331 267.876 395.902 268.739 395.759C269.152 395.688 269.557 395.788 269.723 396.22Z" fill="#161E2B"/>
<path d="M255.744 397.636C256.034 397.449 256.382 397.12 256.556 396.809C256.911 396.102 256.751 395.092 256.05 394.706C255.752 394.525 255.298 394.462 254.963 394.525C254.61 394.589 254.288 394.808 253.951 394.927C253.653 395.038 253.178 395.046 252.976 395.321C252.784 395.637 253.043 396.183 253.175 396.464C253.362 396.893 253.536 397.304 253.684 397.744C253.847 398.241 254.179 398.16 254.584 398.014C254.96 397.836 255.386 397.871 255.744 397.636ZM250.801 396.928C250.555 396.302 250.321 395.667 250.158 395.005C250.018 394.333 249.953 393.615 250.708 393.385C251.351 393.174 252.003 393.061 252.623 392.777C253.24 392.51 253.889 392.135 254.571 392.051C255.233 391.956 255.918 391.997 256.582 392.145C256.883 392.224 257.189 392.318 257.451 392.451C257.768 392.623 257.978 392.896 258.191 393.174C258.603 393.76 259.039 394.303 259.078 395.073C259.114 395.778 259.249 396.596 258.951 397.236C258.79 397.584 258.587 397.865 258.377 398.187C258.162 398.489 258.172 398.754 258.463 398.978C258.715 399.197 259.052 399.383 259.366 399.494C259.701 399.602 260.025 399.507 260.354 399.55C261.034 399.634 261.522 400.385 261.353 401.063C261.262 401.381 261.011 401.576 260.728 401.679C260.411 401.792 260.022 401.873 259.68 401.854C258.971 401.862 258.341 401.635 257.752 401.233C257.212 400.852 256.559 400.49 255.894 400.401C255.627 400.377 255.186 400.347 254.945 400.52C254.623 400.739 254.833 401.198 254.927 401.473C255.056 401.857 255.16 402.232 255.272 402.624C255.368 402.975 255.409 403.337 255.134 403.642C254.903 403.89 254.514 404.028 254.203 404.101C253.878 404.198 253.536 404.236 253.271 403.985C253.027 403.72 252.903 403.294 252.778 402.969C252.628 402.529 252.485 402.086 252.353 401.638C252.272 401.403 251.686 399.164 251.613 399.191C251.357 398.416 251.105 397.668 250.801 396.928Z" fill="#161E2B"/>
<path d="M274.034 384.742C274.648 384.744 275.832 384.974 275.793 385.816C275.78 386.189 275.585 386.672 275.341 386.945C275.017 387.329 274.635 387.323 274.192 387.237C273.419 387.102 272.495 387.067 271.909 387.674C271.657 387.928 271.413 388.382 271.61 388.744C271.776 389.057 272.215 389.246 272.526 389.297C272.967 389.368 273.432 389.341 273.862 389.389C274.288 389.424 274.69 389.443 275.097 389.419C275.912 389.37 276.734 389.468 277.349 390.064C277.661 390.345 277.925 390.661 278.159 391.01C278.418 391.369 278.506 391.75 278.535 392.19C278.662 393.872 277.373 395.471 275.969 396.122C275.57 396.287 275.157 396.354 274.752 396.438C274.36 396.519 273.963 396.622 273.58 396.659C273.151 396.689 272.716 396.619 272.313 396.538C271.976 396.476 271.413 396.392 271.174 396.09C270.951 395.779 271.117 395.26 271.2 394.923C271.309 394.534 271.465 394.169 271.888 394.078C272.287 393.975 272.723 394.148 273.118 394.21C273.522 394.291 273.94 394.24 274.327 394.164C274.757 394.091 275.123 393.94 275.463 393.648C275.715 393.456 276.062 393.019 275.959 392.649C275.837 392.282 275.333 392.074 274.999 392.028C274.597 391.95 274.161 391.939 273.753 391.904C272.897 391.82 272.049 391.839 271.221 391.666C270.399 391.509 269.771 390.872 269.35 390.137C269.156 389.797 269.062 389.397 269.011 389.003C268.964 388.571 269.078 388.198 269.239 387.791C269.4 387.383 269.633 387.013 269.88 386.632C270.087 386.311 270.321 385.938 270.637 385.703C270.723 385.608 271.68 385.098 271.698 385.152C272.456 384.879 273.219 384.728 274.034 384.742Z" fill="#161E2B"/>
<mask id="mask2_1819_126208" style="mask-type:luminance" maskUnits="userSpaceOnUse" x="0" y="105" width="158" height="434">
<path d="M0.498047 105.778H157.249V538.951H0.498047V105.778Z" fill="white"/>
</mask>
<g mask="url(#mask2_1819_126208)">
<path d="M6.19528 105.829C3.7227 108.284 0.054045 115.727 0.645596 117.482C2.70305 123.61 90.4965 380.15 126.7 481.75C131.389 494.904 136.256 507.992 141.365 520.976C143.469 526.329 145.321 534.844 150.915 537.736C152.768 538.695 154.916 539.011 157.191 538.941L6.19528 105.829Z" fill="#F0D1C9"/>
</g>
<path d="M372.399 397.598C357.32 388.446 339.957 386.674 322.979 383.928C320.418 383.374 317.847 382.858 315.265 382.38C306.125 380.444 296.94 378.759 287.659 377.546C285.145 377.217 283.889 380.244 284.969 382.199C284.25 382.07 283.531 381.935 282.813 381.805C280.125 381.311 279.227 384.247 280.185 386.272C272.282 383.774 282.333 382.675 274.637 379.496C271.099 378.038 251.066 382.47 254.592 383.922C275.758 392.667 298.242 397.539 319.398 406.356C330.376 410.937 341.145 416.038 352.045 420.799C357.444 423.157 369.07 430.775 375.126 428.855C377.803 428.007 379.064 425.269 379.744 422.142C380.413 420.062 380.598 417.794 380.592 415.536C380.681 414.542 380.769 413.613 380.886 412.827C382.217 404.039 379.91 402.154 372.399 397.598Z" fill="#CCA69B"/>
<path d="M501.762 250.966C496.864 246.202 285.221 359.728 254.281 381.152C253.114 381.959 253.729 384.009 255.239 384.163C277.528 386.475 299.787 389.091 322.003 392.07C332.838 393.523 343.665 395.057 354.482 396.669C360.444 397.561 366.64 397.431 371.144 401.882C375.993 406.667 375.764 413.03 375.477 419.606C375.381 421.809 376.136 427.94 377.474 426.241C414.187 379.653 451.011 336.937 485.754 288.739C489.895 282.992 494.025 277.232 498.14 271.461C500.571 268.052 506.126 262.821 506.087 258.012C506.064 254.806 503.815 252.959 501.762 250.966Z" fill="#F0D1C9"/>
<path d="M430.03 341.901C422.487 340.596 383.271 335.457 373.487 334.28C372.797 334.199 372.073 335.109 371.347 335.662C363.597 341.544 334.673 358.123 316.013 373.215C314.838 374.168 316.719 374.797 317.326 374.892C324.601 376.007 368.332 383.034 393.439 386.872C394.461 387.055 396.041 387.071 396.545 384.716C397.762 379.01 428.968 354.858 430.323 346.619C431.246 340.996 429.76 342.349 430.03 341.901Z" fill="#E0C2BA"/>
<path d="M448.992 286.838C448.305 286.733 447.552 287.618 446.81 288.145C438.881 293.76 409.369 309.218 390.242 323.669C389.041 324.579 390.898 325.273 391.503 325.387C397.247 326.47 425.815 332.052 449.846 336.654C461.171 322.254 472.358 307.606 483.338 292.426C469.93 290.184 454.607 287.71 448.992 286.838Z" fill="#E0C2BA"/>
<path d="M498.129 271.631C500.56 268.223 506.113 262.992 506.079 258.182C506.053 254.973 503.798 253.129 501.754 251.139C501.749 251.133 501.738 251.136 501.736 251.13C491.708 261.382 451.641 306.447 443.823 315.5C426.209 334.226 381.036 386.121 369.719 400.88C370.201 401.236 370.681 401.603 371.13 402.052C375.982 406.837 375.751 413.203 375.46 419.773C375.367 421.98 376.122 428.11 377.461 426.411C414.173 379.823 450.995 337.107 485.741 288.909C489.884 283.16 494.012 277.402 498.129 271.631Z" fill="#E0C2BA"/>
<path d="M217.412 411.054C217.255 410.74 217.052 410.486 216.805 410.228C216.32 409.733 215.745 409.472 215.06 409.382C214.376 409.296 213.622 409.435 213.014 409.737C212.724 409.893 212.452 410.043 212.466 410.435C212.482 410.716 212.602 411.045 212.708 411.334C213.224 412.746 213.608 414.21 214.251 415.55C214.383 415.853 214.507 416.133 214.596 416.432C214.692 416.814 214.825 417.183 215.278 417.051C215.558 416.986 215.805 416.823 216.026 416.715C216.322 416.578 216.613 416.421 216.886 416.272C217.214 416.099 217.471 415.911 217.66 415.595C217.872 415.224 218.044 414.804 218.109 414.384C218.226 413.52 218.098 412.753 217.801 411.939C217.82 411.933 217.44 411.13 217.412 411.054ZM215.02 419.557C214.539 419.788 213.927 420.136 213.382 419.952C212.752 419.774 212.657 419.039 212.458 418.497L211.638 416.255C211.433 415.695 211.305 415.105 211.091 414.524C210.907 414.022 210.635 413.576 210.482 413.039C210.31 412.509 210.158 411.972 209.947 411.459C209.723 410.905 209.458 410.3 209.366 409.694C209.278 408.978 209.915 408.578 210.498 408.329C210.784 408.217 211.098 408.184 211.399 408.114C211.671 408.029 211.925 407.886 212.176 407.742C212.706 407.471 213.215 407.252 213.795 407.114C214.451 406.948 215.181 407.039 215.827 407.142C217.12 407.347 218.452 407.779 219.224 408.936C219.887 409.915 220.438 411.004 220.696 412.185C220.852 412.852 220.974 413.535 220.847 414.202C220.698 414.922 220.493 415.73 220.097 416.37C219.682 417.018 219.196 417.538 218.575 417.977C218.043 418.363 217.405 418.587 216.796 418.823C216.187 419.058 215.617 419.281 215.02 419.557Z" fill="#161E2B"/>
<path d="M220.933 402.059L220.708 406.05L219.539 405.107L219.108 400.588L220.933 402.059Z" fill="#161E2B"/>
</g>
<defs>
<clipPath id="clip0_1819_126208">
<rect width="538" height="560" fill="white"/>
</clipPath>
</defs>
</svg>
