<svg width="405" height="507" viewBox="0 0 405 507" fill="none" xmlns="http://www.w3.org/2000/svg">
<path d="M227.329 272.321C227.329 272.321 211.546 289.45 202.456 297.769C193.369 306.097 183.504 307.681 181.792 310.375C181.298 311.162 178.604 317.86 175.028 326.969C174.888 327.321 174.748 327.683 174.608 328.042C172.171 334.232 169.38 341.441 166.606 348.625C165.931 350.355 165.27 352.078 164.613 353.792C158.116 370.662 152.268 386.001 152.268 386.001C152.268 386.001 103.909 375.72 91.3572 370.214C78.8052 364.711 61.4561 354.064 61.4561 354.064C61.4561 354.064 69.5715 337.915 76.6486 319.517C77.4765 317.382 78.2811 315.207 79.0656 313.028C79.0722 313.011 79.0722 313.005 79.0722 312.992C79.2425 312.52 79.4127 312.058 79.573 311.587C81.7896 305.287 83.7392 298.961 85.0812 293.123C85.1613 292.777 85.2381 292.432 85.3182 292.093C85.415 291.668 85.5118 291.243 85.6053 290.825C90.9866 266.894 90.9866 258.556 90.9866 258.556L103.539 227.778L227.329 272.321Z" fill="#FEA689"/>
<path d="M264.279 121.207C264.279 121.207 282.383 129.008 288.642 131.157C294.902 133.302 300.186 139.014 301.051 144.081C301.915 149.146 294.204 158.507 280.604 157.866C267 157.229 257.72 145.506 257.72 145.506L264.279 121.207Z" fill="#FEA689"/>
<path d="M116.801 333.896C116.747 333.896 116.694 333.883 116.64 333.86C116.43 333.774 116.333 333.531 116.423 333.322L131.215 299.094C131.305 298.884 131.546 298.788 131.756 298.878C131.966 298.967 132.063 299.21 131.973 299.419L117.181 333.647C117.114 333.8 116.961 333.896 116.801 333.896Z" fill="#EB754D"/>
<path d="M131.593 313.858C131.54 313.858 131.487 313.848 131.437 313.825C131.226 313.738 131.126 313.496 131.213 313.287L135.643 302.763C135.733 302.554 135.973 302.457 136.184 302.544C136.394 302.63 136.491 302.869 136.404 303.078L131.974 313.606C131.907 313.762 131.757 313.858 131.593 313.858Z" fill="#EB754D"/>
<path d="M106.652 257.888L110.101 262.59V257.513L106.652 257.888Z" fill="#9BA9C4"/>
<path d="M251.17 285.302L115.452 265.828C110.939 265.181 107.811 261.02 108.462 256.533L144.078 11.0109C144.729 6.52444 148.915 3.41278 153.425 4.06035L289.147 23.5307C293.66 24.1782 296.792 28.3426 296.141 32.8291L260.521 278.348C259.87 282.835 255.684 285.946 251.17 285.302Z" fill="#9BA9C4"/>
<path d="M247.702 280.872L112.223 261.435C107.713 260.787 104.582 256.626 105.233 252.14L140.793 7.03585C141.444 2.54934 145.626 -0.562318 150.14 0.0852533L285.618 19.5223C290.128 20.1699 293.256 24.3343 292.605 28.8208L257.049 273.921C256.398 278.408 252.212 281.52 247.702 280.872Z" fill="#D7DFED"/>
<path d="M284.229 51.1897L255.37 250.104C254.796 254.122 251.05 256.905 247.011 256.324L119.862 238.085C115.832 237.504 113.025 233.785 113.609 229.767L142.469 30.8493C143.05 26.8344 146.795 24.0548 150.828 24.6326L277.977 42.8775C282.013 43.4587 284.814 47.1781 284.229 51.1897Z" fill="#EBEFF5"/>
<path d="M193.632 267.472L167.9 263.779C164.064 263.228 161.407 259.691 161.958 255.879L162.008 255.553C162.559 251.741 166.118 249.094 169.95 249.645L195.681 253.338C199.514 253.886 202.174 257.423 201.624 261.235L201.574 261.561C201.023 265.376 197.464 268.02 193.632 267.472Z" fill="#BCC8E0"/>
<path d="M193.504 266.174L168.39 262.57C165.235 262.115 163.045 259.206 163.503 256.068L163.539 255.802C163.997 252.664 166.921 250.489 170.076 250.941L195.19 254.547C198.345 254.999 200.534 257.908 200.077 261.046L200.037 261.312C199.583 264.45 196.659 266.625 193.504 266.174Z" fill="white"/>
<path d="M232.106 25.6226C232.025 25.6226 231.945 25.6193 231.862 25.606L199.971 20.99C199.07 20.8605 198.446 20.0269 198.576 19.1303C198.709 18.2337 199.544 17.616 200.449 17.7422L232.339 22.3582C233.241 22.4877 233.865 23.3213 233.735 24.2179C233.615 25.0381 232.91 25.6226 232.106 25.6226Z" fill="#BCC8E0"/>
<path d="M193.611 18.2173C193.611 17.2709 192.84 16.5071 191.889 16.5071C190.937 16.5071 190.166 17.2709 190.166 18.2173C190.166 19.1638 190.937 19.9309 191.889 19.9309C192.84 19.9309 193.611 19.1638 193.611 18.2173Z" fill="#BCC8E0"/>
<path d="M284.229 51.1897L142.469 30.8493C143.05 26.8344 146.795 24.0548 150.828 24.6326L277.977 42.8775C282.013 43.4587 284.814 47.1781 284.229 51.1897Z" fill="white"/>
<path d="M274.018 48.198L263.092 46.6305L263.689 42.5193L274.616 44.0867L274.018 48.198Z" fill="#D7DFED"/>
<path d="M273.437 47.4241L269.981 46.9293L270.382 44.1697L273.841 44.6645L273.437 47.4241Z" fill="white"/>
<path d="M159.632 29.1923C159.451 29.1923 159.288 29.0761 159.234 28.8968C159.221 28.847 158.794 27.5419 156.881 27.2264C154.925 26.9009 153.903 27.9205 153.86 27.9669C153.699 28.1263 153.439 28.133 153.275 27.9769C153.112 27.8208 153.105 27.5618 153.262 27.3991C153.315 27.3393 154.611 26.0143 157.018 26.4194C159.458 26.8212 160.005 28.5946 160.029 28.6677C160.092 28.8868 159.965 29.1126 159.748 29.1757C159.708 29.1857 159.668 29.1923 159.632 29.1923Z" fill="#D7DFED"/>
<path d="M158.496 29.9076C158.333 29.9076 158.179 29.8146 158.113 29.6551C158.103 29.6252 157.765 28.881 156.674 28.7016C155.352 28.4889 154.587 29.077 154.557 29.1036C154.38 29.2431 154.12 29.2132 153.976 29.0405C153.833 28.8677 153.86 28.6119 154.033 28.4657C154.077 28.4325 155.098 27.6118 156.811 27.8942C158.37 28.1501 158.857 29.2963 158.877 29.3461C158.964 29.5554 158.864 29.7946 158.653 29.8777C158.6 29.901 158.547 29.9076 158.496 29.9076Z" fill="#D7DFED"/>
<path d="M157.719 30.9737C157.585 30.9737 157.455 30.9106 157.375 30.791C157.365 30.7743 157.021 30.2992 156.287 30.2228C155.579 30.1497 155.055 30.472 155.051 30.4753C154.858 30.5949 154.604 30.5384 154.481 30.3491C154.357 30.1564 154.414 29.9006 154.604 29.7809C154.637 29.7643 155.372 29.3058 156.373 29.4055C157.502 29.5251 158.039 30.3026 158.063 30.3358C158.189 30.5218 158.139 30.7777 157.949 30.9072C157.879 30.9537 157.799 30.9737 157.719 30.9737Z" fill="#D7DFED"/>
<path d="M156.095 31.2584C156.035 31.2584 155.981 31.3083 155.981 31.3714C155.981 31.4943 156.208 31.4943 156.208 31.3714C156.208 31.3083 156.158 31.2584 156.095 31.2584ZM156.095 32.0824C155.704 32.0824 155.384 31.7634 155.384 31.3714C155.384 30.9827 155.704 30.6604 156.095 30.6604C156.489 30.6604 156.806 30.9827 156.806 31.3714C156.806 31.7634 156.489 32.0824 156.095 32.0824Z" fill="#D7DFED"/>
<path d="M257.914 46.1326C257.894 46.1326 257.87 46.1326 257.847 46.1292C257.62 46.0927 257.47 45.8802 257.506 45.6577L257.83 43.7283C257.867 43.5058 258.084 43.3497 258.304 43.3895C258.528 43.4294 258.682 43.6419 258.645 43.8644L258.321 45.7938C258.288 45.9931 258.111 46.1326 257.914 46.1326Z" fill="#D7DFED"/>
<path d="M256.605 45.9041C256.585 45.9041 256.562 45.9041 256.538 45.9008C256.311 45.8642 256.161 45.6516 256.198 45.429L256.375 44.3791C256.412 44.1532 256.632 44.0004 256.849 44.0403C257.073 44.0801 257.226 44.2894 257.189 44.512L257.012 45.5652C256.979 45.7646 256.805 45.9041 256.605 45.9041Z" fill="#D7DFED"/>
<path d="M259.16 46.408C259.14 46.408 259.116 46.408 259.093 46.4013C258.866 46.3681 258.716 46.1556 258.753 45.9298L259.233 43.0672C259.27 42.8414 259.487 42.6919 259.707 42.7318C259.934 42.7683 260.085 42.9775 260.048 43.2033L259.567 46.0659C259.534 46.2685 259.357 46.408 259.16 46.408Z" fill="#D7DFED"/>
<path d="M260.514 46.667C260.491 46.667 260.468 46.667 260.448 46.6637C260.221 46.6272 260.07 46.4146 260.107 46.1888L260.745 42.3864C260.781 42.1639 260.995 42.0112 261.219 42.051C261.442 42.0875 261.596 42.3001 261.559 42.5226L260.918 46.325C260.888 46.5275 260.711 46.667 260.514 46.667Z" fill="#D7DFED"/>
<path d="M166.676 206.961C166.676 197.487 159.207 189.804 149.993 189.804C140.784 189.804 133.315 197.487 133.315 206.961C133.315 216.435 140.784 224.112 149.993 224.112C159.207 224.112 166.676 216.435 166.676 206.961Z" fill="#B9D386"/>
<path d="M203.611 214.925C203.611 206.466 196.943 199.606 188.716 199.606C180.494 199.606 173.825 206.466 173.825 214.925C173.825 223.384 180.494 230.239 188.716 230.239C196.943 230.239 203.611 223.384 203.611 214.925Z" fill="#79B3D1"/>
<path d="M246.502 220.433C246.502 210.96 239.032 203.282 229.822 203.282C220.606 203.282 213.142 210.96 213.142 220.433C213.142 229.907 220.606 237.59 229.822 237.59C239.032 237.59 246.502 229.907 246.502 220.433Z" fill="#D892C0"/>
<path d="M137.077 294.235C137.024 294.235 136.971 294.225 136.917 294.202C136.707 294.115 136.61 293.873 136.697 293.664C136.717 293.621 138.536 289.3 140.215 282.562C141.871 275.904 140.242 271.095 140.225 271.049C140.149 270.833 140.262 270.6 140.479 270.527C140.696 270.451 140.93 270.564 141.003 270.78C141.077 270.982 142.732 275.871 141.017 282.758C139.321 289.566 137.478 293.939 137.458 293.983C137.391 294.142 137.238 294.235 137.077 294.235Z" fill="#EB754D"/>
<path d="M177.034 310.062C175.955 310.062 174.633 310.026 173.091 309.913C167.543 309.494 165.513 307.256 165.43 307.16C165.28 306.99 165.296 306.731 165.467 306.582C165.637 306.433 165.9 306.449 166.051 306.622C166.067 306.642 167.977 308.704 173.155 309.093C177.611 309.428 180.242 309.096 180.269 309.093C180.492 309.063 180.703 309.222 180.729 309.448C180.759 309.674 180.602 309.88 180.375 309.91C180.302 309.916 179.134 310.062 177.034 310.062Z" fill="#EB754D"/>
<path d="M146.094 275.974C145.954 275.974 145.817 275.9 145.74 275.774C145.624 275.578 145.69 275.326 145.884 275.21L151.496 271.905C151.693 271.793 151.946 271.859 152.06 272.052C152.177 272.244 152.113 272.497 151.916 272.613L146.305 275.917C146.241 275.957 146.168 275.974 146.094 275.974Z" fill="#EB754D"/>
<path d="M23.4753 418.452C24.4467 417.068 25.3647 415.653 26.2026 414.195C32.7757 402.784 35.3629 390.072 39.3021 377.679C43.5117 364.435 51.6238 356.983 57.7629 345.001C64.4094 332.037 63.8419 326.899 71.8772 331.303C79.9125 335.709 167.77 373.813 169.983 374.215C172.2 374.623 168.17 411.336 168.17 411.336C168.17 411.336 169.836 409.865 170.651 428.963C171.188 441.685 165.166 452.063 163.076 464.168C160.863 476.97 161.193 488.782 146.261 490.021C136.931 490.794 125.307 487.181 116.093 485.786C94.9448 482.592 69.0697 481.197 49.6408 471.54C31.9245 462.73 -2.7771 467.87 0.177294 453.913C3.22182 439.55 15.3165 430.056 23.4753 418.452Z" fill="#485A7E"/>
<path d="M159.281 408.075C159.187 408.075 159.097 408.045 159.02 407.982C158.757 407.773 132.194 386.708 112.271 382.733C106.923 381.671 102.647 381.006 98.8709 380.422C88.3653 378.795 83.0908 377.978 74.8586 371.519C63.8823 362.908 57.5195 355.877 57.456 355.808C57.3025 355.641 57.3192 355.376 57.4894 355.226C57.6597 355.077 57.9201 355.09 58.0703 355.26C58.1337 355.329 64.4565 362.313 75.3693 370.874C83.4313 377.201 88.6324 378.004 98.9978 379.612C102.78 380.199 107.07 380.86 112.431 381.93C132.554 385.941 159.271 407.132 159.538 407.344C159.718 407.484 159.745 407.743 159.601 407.919C159.521 408.018 159.401 408.075 159.281 408.075Z" fill="#232C44"/>
<path d="M53.5804 432.062C53.4302 432.062 53.2833 431.975 53.2098 431.832C53.1931 431.793 51.1902 427.851 45.8656 420.634C40.4442 413.285 38.9553 398.537 38.8952 397.913C38.8752 397.69 39.0388 397.488 39.2658 397.465C39.4994 397.451 39.6964 397.607 39.7164 397.833C39.7331 397.986 41.2454 412.983 46.5299 420.146C51.9045 427.436 53.9309 431.427 53.9509 431.464C54.0511 431.666 53.9676 431.915 53.764 432.015C53.7039 432.048 53.6438 432.062 53.5804 432.062Z" fill="#232C44"/>
<path d="M165.403 389.066H165.41H165.403ZM152.291 382.604C151.236 382.604 150.738 382.85 150.638 383.095C150.515 383.397 150.818 384.111 152.077 385.121C153.302 386.107 155.071 387.09 157.058 387.891C161.511 389.694 164.699 389.704 165.019 388.91C165.34 388.123 163.053 385.921 158.6 384.115C156.614 383.314 154.657 382.793 153.092 382.644C152.795 382.617 152.528 382.604 152.291 382.604ZM163.36 390.232C161.574 390.232 159.087 389.601 156.747 388.651C154.687 387.818 152.845 386.795 151.559 385.762C150.131 384.613 149.546 383.587 149.874 382.786C150.201 381.989 151.342 381.657 153.169 381.823C154.811 381.979 156.854 382.521 158.914 383.358C162.863 384.958 166.495 387.485 165.784 389.222C165.494 389.93 164.596 390.232 163.36 390.232Z" fill="#232C44"/>
<path d="M349.126 416.473L361.945 459.06C361.945 459.06 347.176 474.476 325.764 483.289C304.356 492.1 275.48 490.632 275.48 490.632C275.48 490.632 268.339 448.779 259.399 432.629C250.459 416.473 244.146 400.785 244.146 400.785L349.126 416.473Z" fill="#FEA689"/>
<path d="M264.978 472.277C264.978 472.277 320.597 455.208 340.53 445.75C360.467 436.296 362.683 426.755 367.851 435.562C373.019 444.375 377.445 456.859 380.4 459.06C383.354 461.262 402.549 475.21 404.028 484.023C405.504 492.834 397.382 503.115 370.805 506.051C344.223 508.99 287.458 503.849 271.912 506.051C256.365 508.256 264.978 472.277 264.978 472.277Z" fill="#485A7E"/>
<path d="M269.191 494.713C268.964 494.713 268.78 494.527 268.78 494.301C268.78 494.079 268.964 493.893 269.191 493.893C272.392 493.893 327.107 489.605 348.953 479.248C370.211 469.166 374.858 463.278 374.905 463.218C375.042 463.038 375.302 463.002 375.482 463.138C375.662 463.274 375.699 463.53 375.562 463.713C375.382 463.955 370.825 469.783 349.307 479.988C327.344 490.406 272.406 494.713 269.191 494.713Z" fill="#232C44"/>
<path d="M124.425 159.726C122.245 165.511 116.797 176.922 115.985 179.977C115.181 183.039 106.985 242.024 106.985 242.024L97.7049 280.324C97.7049 280.324 78.236 259.479 77.7486 242.961C77.2679 226.439 80.9767 203.728 83.1633 196.093C85.6236 187.495 89.3658 168.965 93.5521 161.809C97.7383 154.645 106.024 144.138 107.746 139.489C107.984 138.848 108.284 137.935 108.638 136.826C110.838 129.921 116.229 116.628 118.139 116.1C118.459 116.01 118.85 115.931 119.307 115.884C122.018 115.628 127.833 116.605 130.447 127.979C133.695 142.106 126.601 153.948 124.425 159.726Z" fill="#FEA689"/>
<path d="M123.707 122.463C123.641 119.381 118.46 116.01 118.139 116.097C116.56 116.535 112.19 125.389 109.93 132.671C109.813 133.057 109.697 133.428 109.583 133.797C109.246 134.896 108.929 135.926 108.642 136.822C110.855 137.842 114.841 138.768 116.954 137.676C116.991 137.666 117.017 137.646 117.051 137.633C118.149 137.045 119.094 136.165 119.715 134.996C121.087 132.426 123.761 125.299 123.707 122.463Z" fill="#FFC2AE"/>
<path d="M108.04 165.276C107.92 165.276 107.797 165.223 107.717 165.123C107.697 165.093 105.717 162.622 103.09 161.576C100.452 160.527 96.0492 161.105 96.0058 161.111C95.7788 161.151 95.5718 160.985 95.5418 160.759C95.5117 160.537 95.6686 160.328 95.8956 160.298C96.0826 160.271 100.559 159.687 103.393 160.816C106.234 161.942 108.281 164.505 108.364 164.612C108.504 164.791 108.474 165.047 108.294 165.189C108.221 165.246 108.13 165.276 108.04 165.276Z" fill="#EB754D"/>
<path d="M102.967 164.542C102.934 164.542 102.904 164.538 102.87 164.532C102.827 164.522 98.4938 163.489 97.2853 163.25C96.0568 163.007 94.8751 162.695 94.8617 162.692C94.6414 162.635 94.5112 162.41 94.568 162.19C94.6281 161.971 94.8517 161.842 95.0721 161.898C95.0854 161.902 96.2438 162.204 97.4489 162.443C98.6741 162.685 102.884 163.691 103.064 163.735C103.284 163.784 103.421 164.007 103.368 164.226C103.321 164.415 103.154 164.542 102.967 164.542Z" fill="#EB754D"/>
<path d="M105.458 168.155C105.388 168.155 105.317 168.135 105.251 168.095C105.241 168.091 104.079 167.464 100.867 167.172C97.4424 166.859 93.4698 164.827 93.3029 164.741C93.0993 164.634 93.0225 164.389 93.126 164.189C93.2295 163.987 93.4765 163.907 93.6801 164.013C93.7202 164.033 97.6794 166.059 100.941 166.355C104.376 166.664 105.615 167.358 105.665 167.384C105.862 167.5 105.928 167.753 105.815 167.949C105.738 168.078 105.601 168.155 105.458 168.155Z" fill="#EB754D"/>
<path d="M116.954 137.675C114.841 138.768 110.855 137.842 108.642 136.822C108.929 135.925 109.246 134.896 109.583 133.797C109.697 133.428 109.813 133.056 109.93 132.671C112.197 133.428 115.475 135.809 116.954 137.675Z" fill="#FFD3C4"/>
<path d="M279.306 185.596C275.45 186.994 272.699 187.655 269.217 189.09C264.53 191.016 255.053 194.596 252.483 199.285C250.376 203.134 251.237 208.643 253.731 212.857C256.225 217.068 263.579 217.29 273.818 213.554C284.056 209.815 288.312 204.811 288.035 197C287.812 190.737 282.684 184.371 279.306 185.596Z" fill="#FEA689"/>
<path d="M273.311 207.743C273.141 208.048 272.94 208.314 272.707 208.54C272.61 208.643 272.5 208.746 272.39 208.835C272.299 208.908 272.203 208.975 272.092 209.041C271.007 209.702 269.806 210.2 268.661 210.752C266.931 211.575 265.412 211.804 263.446 212.249C262.017 212.578 260.462 212.691 259.14 211.93C258.128 211.346 257.427 210.34 256.953 209.274C256.125 207.411 255.317 205.05 255.658 202.991C256.125 200.198 259.517 198.458 261.687 197.156C261.901 197.03 262.114 196.903 262.328 196.777C263.523 196.077 267.632 194.692 269.095 194.466C269.171 194.459 269.228 194.449 269.295 194.443C269.515 194.429 269.699 194.459 269.836 194.546C271.495 195.605 272.426 197.651 273.037 199.421C274.302 203.143 274.256 206.023 273.311 207.743Z" fill="#FFC2AE"/>
<path d="M265.285 191.57C265.128 191.57 264.978 191.48 264.911 191.331C264.815 191.125 264.908 190.879 265.115 190.786L277.807 185.071C278.011 184.975 278.258 185.068 278.351 185.274C278.448 185.48 278.355 185.722 278.148 185.818L265.456 191.533C265.402 191.56 265.342 191.57 265.285 191.57Z" fill="#EB754D"/>
<path d="M273.31 207.743C273.14 208.048 272.939 208.314 272.706 208.54C272.115 207.617 271.657 206.567 271.273 205.458C270.048 201.918 269.044 198.209 269.094 194.466C269.17 194.459 269.227 194.449 269.294 194.443C269.514 194.429 269.698 194.459 269.835 194.546C271.494 195.605 272.425 197.651 273.036 199.421C274.301 203.143 274.255 206.023 273.31 207.743Z" fill="#FFD3C4"/>
<path d="M271.894 218.283C268.242 218.243 263.088 219.512 260.083 220.913C254.031 223.739 248.823 227.844 250.299 234.682C252.015 242.628 260.868 242.519 267.965 239.54C272.225 237.75 277.696 237.229 279.455 232.427C281.078 227.99 280.49 221.77 276.361 219.362C275.002 218.569 273.46 218.296 271.894 218.283Z" fill="#FEA689"/>
<path d="M267.812 234.24C267.715 234.695 267.558 235.077 267.358 235.406C267.288 235.545 267.197 235.671 267.107 235.788C266.186 237 264.614 237.425 263.018 238.043C261.506 238.63 259.726 239.145 258.027 239.042C255.547 238.889 254.001 236.455 253.53 234.038C252.759 230.099 255.891 227.472 259.065 225.872C260.04 225.38 262.891 224.613 264.193 224.384C264.353 224.357 264.503 224.341 264.634 224.341C264.821 224.347 264.974 224.384 265.088 224.467C266.413 225.466 267.064 227.25 267.454 228.784C267.898 230.517 268.209 232.46 267.812 234.24Z" fill="#FFC2AE"/>
<path d="M267.812 234.24C267.715 234.695 267.558 235.077 267.358 235.406C266.003 234.24 264.961 232.822 264.4 230.899C263.793 228.82 263.556 226.469 264.193 224.384C264.354 224.357 264.504 224.341 264.634 224.341C264.821 224.347 264.975 224.384 265.088 224.467C266.413 225.466 267.064 227.25 267.455 228.784C267.899 230.517 268.209 232.46 267.812 234.24Z" fill="#FFD3C4"/>
<path d="M145.231 200.832L155.542 212.497" stroke="white" stroke-linecap="round"/>
<path d="M145.231 200.832L155.542 212.497" stroke="white" stroke-linecap="round"/>
<path d="M145.231 200.832L155.542 212.497" stroke="white" stroke-linecap="round"/>
<path d="M156.132 202.057L144.039 212.424" stroke="white" stroke-linecap="round"/>
<path d="M156.132 202.057L144.039 212.424" stroke="white" stroke-linecap="round"/>
<path d="M156.132 202.057L144.039 212.424" stroke="white" stroke-linecap="round"/>
<path d="M228.792 229.153L228.607 228.981C228.586 228.961 226.46 226.976 224.448 224.405C223.26 222.885 222.339 221.46 221.711 220.166C220.915 218.512 220.591 217.057 220.752 215.848C221.119 213.096 223.72 211.282 226.548 211.807C227.597 212.002 228.571 212.504 229.357 213.262C229.928 213.811 230.367 214.458 230.658 215.162C231.119 214.594 231.706 214.138 232.391 213.825C233.337 213.39 234.394 213.265 235.443 213.46C238.271 213.985 240.274 216.655 239.907 219.407L239.907 219.411C239.735 220.61 239.045 221.865 237.854 223.146C236.919 224.15 235.676 225.172 234.15 226.192C231.568 227.918 229.038 229.045 229.013 229.056L228.792 229.153ZM226.455 212.505C224.022 212.053 221.784 213.613 221.468 215.981C221.326 217.052 221.625 218.365 222.361 219.885C222.961 221.128 223.852 222.509 225.006 223.985C226.639 226.073 228.352 227.771 228.906 228.302C229.571 227.994 231.633 226.99 233.728 225.59C235.206 224.6 236.41 223.612 237.308 222.647C238.404 221.467 239.037 220.335 239.187 219.273C239.503 216.905 237.779 214.612 235.346 214.16C233.542 213.825 231.742 214.63 230.863 216.163L230.417 216.944L230.2 216.04C229.762 214.262 228.259 212.84 226.455 212.505Z" fill="white"/>
<path d="M189.651 207.698C190.769 207.865 191.619 208.289 192.201 208.97C192.785 209.64 193.001 210.513 192.848 211.59C192.706 212.594 192.267 213.331 191.533 213.804C190.808 214.278 189.901 214.444 188.812 214.302L188.612 215.712L186.065 215.33L186.511 212.178L187.571 212.336C188.331 212.45 188.937 212.433 189.389 212.285C189.842 212.127 190.108 211.768 190.188 211.208C190.238 210.849 190.178 210.554 190.006 210.323C189.834 210.092 189.579 209.952 189.242 209.901C188.862 209.844 188.545 209.915 188.29 210.115C188.048 210.305 187.902 210.574 187.853 210.923L185.305 210.541C185.374 209.904 185.587 209.348 185.945 208.873C186.315 208.39 186.817 208.044 187.45 207.837C188.084 207.619 188.817 207.573 189.651 207.698ZM188.57 217.032L188.187 219.741L185.37 219.319L185.754 216.61L188.57 217.032Z" fill="white"/>
<path d="M212.536 319.641C212.536 319.641 208.002 290.059 206.771 284.55C205.542 279.043 197.907 248.933 195.838 241.584C193.768 234.235 184.744 213.997 187.422 204.699C189.121 198.785 200.905 195.64 205.959 201.514C211.01 207.389 218.221 231.319 220.618 235.968C223.015 240.621 232.926 266.58 234.368 270.243C235.81 273.906 241.065 289.813 241.065 289.813C241.065 289.813 251.16 288.1 257.389 289.079C263.618 290.059 268.542 294.662 268.542 294.662C268.542 294.662 278.387 290.059 287 292.506C295.613 294.954 299.305 301.805 299.305 301.805C299.305 301.805 310.381 299.849 316.777 303.764C316.777 303.764 325.884 310.127 328.592 316.735C331.299 323.344 351.175 421.453 351.175 421.453C351.175 421.453 308.355 442.377 299.495 444.214C290.635 446.05 276.09 453.931 264.647 449.159C253.203 444.387 224.32 436.775 216.939 424.661C209.555 412.546 201.336 397.157 196.923 387.613C192.506 378.065 190.66 372.327 192.139 364.918C193.614 357.509 212.536 319.641 212.536 319.641Z" fill="#FEA689"/>
<path d="M209.262 215.429C208.928 215.721 205.997 218.085 203.133 218.869C197.538 220.397 195.314 220.456 194.967 220.184C194.85 220.091 194.7 219.875 194.54 219.576C193.765 218.145 192.597 214.665 192.066 212.314C191.415 209.464 190.804 207.106 191.639 205.21C192.47 203.307 199.046 199.95 202.835 202.517C205.817 204.546 208.167 211.38 209.008 214.143C209.238 214.884 209.328 215.369 209.262 215.429Z" fill="#FFC2AE"/>
<path d="M219.656 373.158C219.533 373.158 219.409 373.108 219.329 373.001C219.189 372.822 219.222 372.563 219.403 372.424C219.446 372.39 223.702 369.016 222.998 361.282C222.27 353.348 213.811 327.605 213.724 327.343C213.654 327.13 213.774 326.898 213.991 326.825C214.201 326.755 214.438 326.871 214.509 327.09C214.859 328.15 223.085 353.179 223.819 361.209C224.57 369.418 220.097 372.928 219.907 373.075C219.83 373.131 219.743 373.158 219.656 373.158Z" fill="#EB754D"/>
<path d="M222.731 366.552C222.681 366.552 222.631 366.546 222.581 366.522C222.521 366.499 216.212 364.105 212.396 364.105H207.228C206.998 364.105 206.814 363.919 206.814 363.696C206.814 363.467 206.998 363.284 207.228 363.284H212.396C216.365 363.284 222.615 365.659 222.882 365.758C223.092 365.841 223.199 366.077 223.115 366.293C223.052 366.453 222.898 366.552 222.731 366.552Z" fill="#EB754D"/>
<path d="M254.724 333.293C254.554 333.293 254.394 333.187 254.334 333.018C254.224 332.705 251.603 325.277 251.797 320.358C251.994 315.271 249.333 310.489 246.993 306.892C244.279 302.718 241.989 292.742 241.892 292.32C241.842 292.098 241.982 291.879 242.206 291.829C242.429 291.776 242.65 291.918 242.697 292.138C242.723 292.241 245.05 302.396 247.687 306.447C250.091 310.143 252.828 315.072 252.621 320.392C252.434 325.15 255.085 332.669 255.112 332.745C255.188 332.958 255.075 333.194 254.861 333.27C254.815 333.283 254.768 333.293 254.724 333.293Z" fill="#EB754D"/>
<path d="M276.135 312.966C275.974 312.966 275.821 312.873 275.754 312.714L269.234 297.285C269.144 297.076 269.244 296.833 269.455 296.747C269.662 296.657 269.905 296.757 269.995 296.966L276.515 312.398C276.605 312.604 276.505 312.847 276.295 312.933C276.245 312.956 276.188 312.966 276.135 312.966Z" fill="#EB754D"/>
<path d="M307.143 317.114C306.989 317.114 306.839 317.027 306.769 316.878L300.617 303.907C300.52 303.704 300.607 303.458 300.814 303.362C301.017 303.266 301.268 303.352 301.364 303.558L307.517 316.529C307.614 316.735 307.524 316.978 307.32 317.074C307.263 317.101 307.203 317.114 307.143 317.114Z" fill="#EB754D"/>
<path d="M285.295 338.653C285.078 338.653 284.894 338.484 284.881 338.265C284.881 338.208 284.584 332.782 284.871 326.23C285.148 319.907 278.898 315.005 278.835 314.956C278.655 314.819 278.621 314.56 278.762 314.381C278.902 314.202 279.162 314.169 279.342 314.308C279.613 314.517 285.992 319.525 285.699 326.266C285.411 332.779 285.705 338.165 285.705 338.218C285.719 338.444 285.545 338.64 285.318 338.653C285.308 338.653 285.301 338.653 285.295 338.653Z" fill="#EB754D"/>
<path d="M312.558 334.051C312.531 334.051 312.505 334.047 312.478 334.044C312.254 334.001 312.111 333.785 312.151 333.562C312.157 333.536 312.625 331.055 312.147 326.479C311.68 321.999 309.13 319.987 309.106 319.967C308.926 319.827 308.893 319.568 309.029 319.389C309.17 319.21 309.43 319.18 309.61 319.316C309.727 319.406 312.465 321.567 312.969 326.396C313.459 331.108 312.982 333.616 312.962 333.719C312.925 333.914 312.752 334.051 312.558 334.051Z" fill="#EB754D"/>
<path d="M269.614 376.587C269.437 376.587 269.274 376.474 269.22 376.298L256.545 336.408C256.478 336.192 256.598 335.96 256.815 335.893C257.032 335.823 257.266 335.943 257.333 336.159L270.008 376.053C270.075 376.268 269.955 376.501 269.738 376.567C269.698 376.581 269.654 376.587 269.614 376.587Z" fill="#EB754D"/>
<path d="M279.085 329.109C278.881 329.109 278.704 328.956 278.677 328.747L277.696 320.913C277.666 320.691 277.826 320.485 278.053 320.458C278.264 320.425 278.484 320.588 278.514 320.813L279.495 328.644C279.525 328.87 279.365 329.076 279.138 329.102C279.121 329.106 279.105 329.109 279.085 329.109Z" fill="#EB754D"/>
<path d="M216.825 268.045C216.678 268.045 216.538 267.969 216.461 267.832C216.351 267.633 216.425 267.381 216.625 267.275C216.785 267.188 220.524 265.156 223.021 264.661C225.481 264.17 228.256 264.047 228.372 264.04C228.596 264.043 228.793 264.206 228.803 264.435C228.813 264.661 228.636 264.854 228.409 264.86C228.382 264.864 225.582 264.99 223.181 265.468C220.811 265.936 217.059 267.972 217.022 267.995C216.959 268.028 216.892 268.045 216.825 268.045Z" fill="#EB754D"/>
<path d="M222.608 268.411C222.414 268.411 222.241 268.275 222.204 268.079C222.16 267.856 222.307 267.64 222.531 267.597L230.159 266.128C230.379 266.089 230.6 266.231 230.643 266.454C230.686 266.677 230.54 266.893 230.316 266.936L222.688 268.404C222.661 268.408 222.635 268.411 222.608 268.411Z" fill="#EB754D"/>
<path d="M218.425 272.083C218.198 272.083 218.011 271.9 218.011 271.671C218.011 271.445 218.198 271.259 218.425 271.259C218.475 271.259 223.536 271.253 225.045 270.675C226.553 270.1 228.096 268.692 228.112 268.679C228.279 268.526 228.54 268.533 228.693 268.702C228.85 268.868 228.84 269.127 228.673 269.28C228.603 269.343 226.994 270.811 225.342 271.442C223.689 272.076 218.638 272.083 218.425 272.083Z" fill="#EB754D"/>
<path d="M209.261 215.429C208.927 215.721 205.996 218.085 203.132 218.869C197.537 220.397 195.314 220.457 194.966 220.184C194.85 220.091 194.699 219.875 194.539 219.577C197.881 215.661 203.856 214.247 209.007 214.144C209.238 214.884 209.328 215.369 209.261 215.429Z" fill="#FFD3C4"/>
<path d="M260.276 59.8325C260.254 59.8279 260.231 59.8245 260.207 59.8221C260.184 59.8198 260.161 59.8186 260.138 59.8185C260.115 59.8185 260.092 59.8194 260.069 59.8218C260.046 59.824 260.024 59.8273 260.001 59.8317C259.979 59.8362 259.957 59.8416 259.935 59.8485C259.913 59.8551 259.892 59.8627 259.871 59.8715C259.85 59.8804 259.83 59.8902 259.81 59.901C259.79 59.9119 259.771 59.9238 259.753 59.9365C259.734 59.9494 259.716 59.9631 259.699 59.9777C259.682 59.9924 259.666 60.0077 259.651 60.0241C259.635 60.0404 259.621 60.0574 259.607 60.0753C259.594 60.0931 259.581 60.1116 259.57 60.1307C259.558 60.15 259.547 60.1697 259.538 60.19C259.528 60.2105 259.519 60.2311 259.512 60.2525C259.504 60.2737 259.498 60.2954 259.493 60.3175C259.487 60.3395 259.483 60.3618 259.48 60.3843C259.477 60.4069 259.475 60.4296 259.474 60.4526C259.474 60.4754 259.474 60.4984 259.476 60.5213C259.477 60.5443 259.48 60.5672 259.484 60.59C259.487 60.6128 259.492 60.6355 259.498 60.658C259.504 60.6805 259.512 60.7026 259.52 60.7245C259.528 60.7464 259.537 60.7678 259.548 60.789C259.558 60.8101 259.569 60.8307 259.582 60.8508C259.594 60.8708 259.607 60.8904 259.621 60.9092C259.635 60.9281 259.651 60.9462 259.667 60.9638C259.682 60.9814 259.699 60.9981 259.717 61.0139C259.734 61.0299 259.753 61.045 259.771 61.0592C259.79 61.0735 259.81 61.0868 259.83 61.0992C259.85 61.1115 259.871 61.1229 259.892 61.1333C259.913 61.1437 259.935 61.153 259.957 61.1614C259.979 61.1697 260.001 61.1769 260.024 61.1832C260.046 61.1894 260.069 61.1943 260.092 61.1982L272.591 63.5241C272.614 63.5287 272.637 63.5323 272.66 63.5346C272.683 63.5368 272.706 63.5381 272.729 63.5381C272.752 63.5382 272.775 63.5372 272.798 63.535C272.821 63.5328 272.844 63.5294 272.866 63.5251C272.889 63.5206 272.911 63.515 272.932 63.5083C272.954 63.5017 272.975 63.4939 272.996 63.4851C273.017 63.4764 273.037 63.4666 273.057 63.4556C273.077 63.4447 273.096 63.433 273.115 63.4201C273.133 63.4074 273.151 63.3936 273.168 63.3791C273.185 63.3644 273.201 63.3489 273.216 63.3326C273.232 63.3162 273.246 63.2992 273.26 63.2814C273.274 63.2635 273.286 63.2451 273.298 63.2259C273.31 63.2067 273.32 63.1869 273.33 63.1666C273.339 63.1463 273.348 63.1255 273.355 63.1041C273.363 63.0829 273.369 63.0612 273.375 63.0392C273.38 63.0171 273.384 62.9948 273.387 62.9723C273.39 62.9498 273.392 62.927 273.393 62.9042C273.394 62.8813 273.393 62.8583 273.392 62.8354C273.39 62.8123 273.388 62.7896 273.384 62.7666C273.38 62.7438 273.375 62.7212 273.369 62.6986C273.363 62.6763 273.356 62.6541 273.348 62.6322C273.339 62.6102 273.33 62.5888 273.32 62.5677C273.309 62.5466 273.298 62.5261 273.286 62.506C273.273 62.4859 273.26 62.4664 273.246 62.4474C273.232 62.4287 273.217 62.4104 273.201 62.3928C273.185 62.3754 273.168 62.3587 273.15 62.3427C273.133 62.3267 273.115 62.3118 273.096 62.2976C273.077 62.2832 273.057 62.27 273.037 62.2576C273.017 62.2452 272.996 62.2339 272.975 62.2235C272.954 62.2129 272.932 62.2036 272.91 62.1953C272.888 62.1869 272.866 62.1797 272.843 62.1735C272.821 62.1674 272.798 62.1623 272.775 62.1584L260.276 59.8325ZM259.724 63.9298C259.701 63.9253 259.678 63.9218 259.655 63.9196C259.631 63.9171 259.608 63.916 259.585 63.916C259.562 63.9158 259.539 63.9169 259.516 63.9191C259.493 63.9213 259.471 63.9246 259.448 63.9291C259.426 63.9336 259.404 63.9391 259.382 63.9458C259.36 63.9524 259.339 63.9602 259.318 63.969C259.297 63.9777 259.277 63.9875 259.257 63.9985C259.237 64.0092 259.218 64.0211 259.2 64.034C259.181 64.0467 259.164 64.0604 259.147 64.075C259.13 64.0897 259.113 64.1052 259.098 64.1216C259.083 64.1377 259.068 64.1549 259.055 64.1728C259.041 64.1904 259.028 64.209 259.017 64.2282C259.005 64.2474 258.994 64.267 258.985 64.2875C258.975 64.3078 258.967 64.3286 258.959 64.3498C258.952 64.3712 258.945 64.3928 258.94 64.4148C258.935 64.437 258.93 64.4591 258.927 64.4818C258.924 64.5044 258.922 64.5271 258.922 64.5499C258.921 64.5729 258.921 64.5957 258.923 64.6188C258.924 64.6416 258.927 64.6645 258.931 64.6873C258.935 64.7103 258.939 64.7329 258.946 64.7553C258.951 64.7778 258.959 64.8001 258.967 64.822C258.975 64.8437 258.984 64.8653 258.995 64.8864C259.005 64.9074 259.016 64.928 259.029 64.9481C259.041 64.9683 259.054 64.9877 259.068 65.0066C259.083 65.0255 259.098 65.0437 259.114 65.0611C259.13 65.0787 259.146 65.0954 259.164 65.1114C259.182 65.1272 259.2 65.1423 259.219 65.1566C259.238 65.1708 259.257 65.1841 259.277 65.1965C259.297 65.2089 259.318 65.2202 259.339 65.2306C259.36 65.241 259.382 65.2505 259.404 65.2588C259.426 65.2672 259.448 65.2744 259.471 65.2805C259.494 65.2867 259.516 65.2918 259.539 65.2957L272.038 67.6216C272.061 67.6262 272.084 67.6296 272.107 67.6319C272.13 67.6343 272.153 67.6356 272.176 67.6356C272.199 67.6357 272.222 67.6345 272.245 67.6323C272.268 67.6301 272.291 67.6269 272.313 67.6224C272.336 67.6179 272.358 67.6123 272.38 67.6057C272.401 67.599 272.423 67.5912 272.443 67.5826C272.464 67.5737 272.485 67.5639 272.504 67.553C272.524 67.5422 272.543 67.5303 272.562 67.5176C272.58 67.5047 272.598 67.491 272.615 67.4764C272.632 67.4617 272.648 67.4462 272.664 67.43C272.679 67.4137 272.693 67.3965 272.707 67.3789C272.721 67.361 272.733 67.3424 272.745 67.3232C272.757 67.3042 272.767 67.2844 272.777 67.2639C272.787 67.2437 272.795 67.2228 272.803 67.2016C272.81 67.1803 272.816 67.1587 272.822 67.1366C272.827 67.1146 272.831 67.0923 272.834 67.0698C272.837 67.0471 272.839 67.0245 272.84 67.0015C272.841 66.9786 272.84 66.9557 272.839 66.9327C272.837 66.9098 272.835 66.8869 272.831 66.8641C272.827 66.8411 272.822 66.8187 272.816 66.7961C272.81 66.7736 272.803 66.7514 272.795 66.7296C272.786 66.7077 272.777 66.6861 272.767 66.6652C272.757 66.6441 272.745 66.6234 272.733 66.6033C272.72 66.5832 272.707 66.5637 272.693 66.5449C272.679 66.526 272.664 66.5077 272.648 66.4903C272.632 66.4727 272.615 66.456 272.598 66.4402C272.58 66.4242 272.562 66.4091 272.543 66.3949C272.524 66.3807 272.504 66.3673 272.484 66.3549C272.464 66.3425 272.443 66.3312 272.422 66.3208C272.401 66.3104 272.38 66.3009 272.358 66.2928C272.336 66.2844 272.313 66.2771 272.291 66.271C272.268 66.2647 272.245 66.2596 272.222 66.2557L259.724 63.9298ZM259.171 68.0273C259.148 68.0227 259.125 68.0193 259.102 68.0169C259.079 68.0146 259.056 68.0134 259.032 68.0133C259.009 68.0133 258.986 68.0142 258.963 68.0164C258.94 68.0186 258.918 68.0221 258.895 68.0265C258.873 68.0309 258.851 68.0364 258.829 68.0431C258.807 68.0497 258.786 68.0575 258.765 68.0663C258.744 68.0752 258.724 68.085 258.704 68.0958C258.684 68.1067 258.665 68.1184 258.647 68.1313C258.628 68.1442 258.611 68.1579 258.594 68.1725C258.577 68.187 258.56 68.2025 258.545 68.2189C258.53 68.2352 258.515 68.2522 258.502 68.2701C258.488 68.2879 258.475 68.3065 258.464 68.3255C258.452 68.3448 258.442 68.3645 258.432 68.3848C258.422 68.4051 258.414 68.4259 258.406 68.4473C258.399 68.4685 258.392 68.4902 258.387 68.5122C258.382 68.5343 258.377 68.5566 258.374 68.5791C258.371 68.6017 258.37 68.6244 258.369 68.6474C258.368 68.6702 258.368 68.6932 258.37 68.7161C258.371 68.7391 258.374 68.762 258.378 68.7848C258.382 68.8076 258.387 68.8303 258.393 68.8528C258.399 68.8751 258.406 68.8974 258.414 68.9193C258.422 68.9412 258.432 68.9626 258.442 68.9838C258.452 69.0049 258.464 69.0255 258.476 69.0454C258.488 69.0656 258.501 69.085 258.516 69.104C258.53 69.1229 258.545 69.141 258.561 69.1586C258.577 69.176 258.594 69.1927 258.611 69.2087C258.629 69.2247 258.647 69.2398 258.666 69.254C258.685 69.2683 258.704 69.2816 258.724 69.2938C258.745 69.3063 258.765 69.3177 258.786 69.3281C258.808 69.3385 258.829 69.3478 258.851 69.3562C258.873 69.3645 258.896 69.3717 258.918 69.378C258.941 69.384 258.964 69.3891 258.986 69.393L271.485 71.7189C271.508 71.7235 271.531 71.7269 271.554 71.7294C271.577 71.7316 271.6 71.7329 271.624 71.7329C271.647 71.733 271.67 71.732 271.692 71.7298C271.715 71.7276 271.738 71.7242 271.761 71.7197C271.783 71.7154 271.805 71.7098 271.827 71.7032C271.849 71.6965 271.87 71.6887 271.891 71.6799C271.911 71.671 271.932 71.6612 271.952 71.6504C271.971 71.6395 271.99 71.6278 272.009 71.6149C272.027 71.602 272.045 71.5884 272.062 71.5737C272.079 71.5592 272.095 71.5437 272.111 71.5274C272.126 71.511 272.141 71.494 272.154 71.4762C272.168 71.4583 272.18 71.4398 272.192 71.4207C272.204 71.4015 272.214 71.3817 272.224 71.3614C272.234 71.3411 272.242 71.3203 272.25 71.2989C272.257 71.2777 272.264 71.256 272.269 71.2341C272.274 71.2119 272.278 71.1896 272.282 71.1671C272.285 71.1446 272.286 71.1218 272.287 71.0989C272.288 71.0761 272.288 71.0531 272.286 71.0302C272.284 71.0071 272.282 70.9842 272.278 70.9614C272.274 70.9386 272.269 70.916 272.263 70.8934C272.257 70.8711 272.25 70.8489 272.242 70.827C272.234 70.805 272.224 70.7836 272.214 70.7625C272.204 70.7414 272.192 70.7208 272.18 70.7008C272.168 70.6807 272.154 70.6612 272.14 70.6422C272.126 70.6233 272.111 70.6052 272.095 70.5876C272.079 70.5702 272.062 70.5535 272.045 70.5375C272.027 70.5215 272.009 70.5064 271.99 70.4922C271.971 70.478 271.952 70.4646 271.932 70.4524C271.911 70.44 271.891 70.4285 271.869 70.4181C271.848 70.4077 271.827 70.3984 271.805 70.3901C271.783 70.3817 271.76 70.3745 271.738 70.3683C271.715 70.3622 271.692 70.3571 271.669 70.3532L259.171 68.0273Z" fill="#BA3A8E"/>
<path d="M272 78.6251L260.578 165.239L257.559 188.107L247.148 186.468L238.611 185.12L209.511 180.53L206.002 179.973L198.485 178.788L196.193 178.43L195.724 178.354L192.585 177.857L191.831 177.741L190.632 177.549L185.301 176.708L182.782 176.314L147.9 170.806L146.132 170.528L142.999 170.031L129 167.826L143.441 58.3435L272 78.6251Z" fill="white"/>
<path d="M217.717 133.598C217.421 133.575 217.124 133.552 216.827 133.525C217.872 130.796 217.702 127.375 217.705 124.49C217.705 122.169 217.938 118.513 216.052 116.877C214.242 115.303 212.15 116.913 210.53 118.006C208.124 119.622 205.735 121.288 203.495 123.179C201.472 124.878 199.229 126.845 197.752 129.154C196.586 130.972 198.508 131.435 199.856 131.747C201.224 132.061 202.556 131.922 203.934 132.012C205.444 132.111 206.758 132.912 208.199 133.31C211.248 134.141 214.596 134.068 217.717 134.33C218.144 134.366 218.144 133.634 217.717 133.598Z" fill="#FAD3B1"/>
<path d="M219.066 110.696C219.111 110.375 219.148 110.054 219.181 109.729C219.523 106.934 219.747 104.122 219.896 101.301C219.977 99.8434 220.032 98.3796 220.071 96.9191C220.138 94.5743 219.862 92.4051 218.391 90.5836C217.38 89.3383 216.075 88.3713 214.74 87.4936C214.019 87.0234 213.296 86.573 212.599 86.1225C209.987 84.4368 207.244 82.8736 204.265 82.1384C199.927 81.0687 195.14 81.8139 192.074 85.6059C188.28 90.2921 186.818 96.0249 186.17 101.999C186.061 102.993 185.97 103.99 185.904 104.987C185.889 105.185 185.876 105.377 185.861 105.593C185.783 106.835 185.719 108.103 185.695 109.395C185.637 111.971 185.698 114.604 185.952 117.197C186.249 120.191 186.797 123.122 187.72 125.845C189.679 131.624 194.205 137.327 200.499 137.585C207.486 137.87 211.897 131.882 214.791 125.845C215.908 123.51 216.856 121.085 217.628 118.592C218.406 116.075 218.721 113.316 219.066 110.696Z" fill="#FEA689"/>
<path d="M188.979 126.531C188.979 126.531 188.198 138.652 187.714 141.378C187.229 144.103 174.075 148.17 174.075 148.17C174.075 148.17 186.409 159.689 193.56 160.557C200.713 161.421 219.765 152.131 219.765 152.131C219.765 152.131 209.995 144.756 209.227 140.934C208.603 137.824 210.749 123.06 210.749 123.06L188.979 126.531Z" fill="#FEA689"/>
<path d="M186.421 106.153C186.421 106.153 185.204 104.427 183.721 105.507C181.886 106.835 183.012 112.846 183.639 115.002C184.269 117.158 186.458 117.28 186.458 117.28L186.421 106.153Z" fill="#FEA689"/>
<path d="M218.348 110.256C218.348 110.256 219.841 108.812 221.109 110.18C222.677 111.872 220.525 117.535 219.532 119.519C218.539 121.503 216.368 121.172 216.368 121.172L218.348 110.256Z" fill="#FEA689"/>
<path d="M218.299 118.029C218.196 118.029 218.09 117.983 218.018 117.89C217.881 117.718 217.899 117.459 218.054 117.314C218.054 117.314 218.239 117.105 218.52 116.446C218.756 115.89 218.696 114.823 218.65 114.462C218.626 114.237 218.768 114.032 218.974 114.002C219.174 113.969 219.368 114.128 219.395 114.353C219.413 114.512 219.568 115.919 219.198 116.79C218.847 117.618 218.593 117.883 218.544 117.926C218.475 117.996 218.387 118.029 218.299 118.029Z" fill="#EB754D"/>
<path d="M185.615 113.78C185.53 113.78 185.445 113.75 185.379 113.684C185.349 113.657 184.652 113.021 184.561 112.111C184.48 111.279 184.943 109.888 184.994 109.729C185.067 109.524 185.282 109.411 185.476 109.491C185.669 109.57 185.769 109.806 185.697 110.018C185.57 110.392 185.252 111.481 185.306 112.021C185.364 112.597 185.848 113.051 185.854 113.054C186.012 113.197 186.036 113.455 185.903 113.631C185.83 113.73 185.721 113.78 185.615 113.78Z" fill="#EB754D"/>
<path d="M200.883 138.649C199.966 138.649 199.009 138.493 198.04 138.115C192.467 135.956 189.585 130.177 189.464 129.932C189.367 129.733 189.436 129.488 189.618 129.379C189.8 129.273 190.027 129.349 190.124 129.548C190.151 129.604 192.997 135.29 198.289 137.344C203.514 139.374 208.485 134.284 208.533 134.227C208.685 134.075 208.921 134.082 209.063 134.247C209.205 134.406 209.199 134.665 209.051 134.824C208.872 135.009 205.312 138.649 200.883 138.649Z" fill="#EB754D"/>
<path d="M194.828 110.988C194.973 109.988 194.901 107.653 193.556 108.11C192.875 108.339 192.636 109.561 192.576 110.216C192.503 110.975 192.751 112.144 193.49 112.459C194.186 112.757 194.68 111.73 194.804 111.134C194.813 111.091 194.822 111.044 194.828 110.988Z" fill="#232C44"/>
<path d="M201.949 122.056C201.225 122.056 200.166 121.934 199.551 121.311C199.212 120.963 199.045 120.493 199.07 119.957C199.17 117.794 200.704 112.541 200.771 112.319C200.835 112.104 201.044 111.985 201.24 112.055C201.437 112.127 201.546 112.356 201.483 112.568C201.467 112.624 199.911 117.94 199.817 119.996C199.805 120.298 199.881 120.526 200.063 120.712C200.65 121.311 202.106 121.265 202.621 121.198C202.827 121.169 203.011 121.334 203.039 121.556C203.063 121.781 202.915 121.983 202.709 122.013C202.633 122.023 202.339 122.056 201.949 122.056Z" fill="#EB754D"/>
<path d="M195.897 105.537C196.272 105.653 196.654 105.802 197.044 105.778C197.992 105.716 198.276 104.57 197.604 103.937C197.059 103.424 196.221 103.245 195.54 103.086C194.162 102.771 192.727 102.785 191.356 103.116C190.635 103.291 188.204 103.917 187.944 104.831C187.838 105.206 188.313 105.474 188.601 105.537C189.037 105.623 189.506 105.573 189.945 105.537C190.732 105.467 191.516 105.358 192.3 105.285C193.502 105.179 194.698 105.162 195.897 105.537Z" fill="#FAD3B1"/>
<path d="M209.162 113.257C209.205 112.244 209.704 109.968 210.936 110.714C211.563 111.088 211.572 112.333 211.515 112.992C211.445 113.751 210.988 114.84 210.207 114.989C209.468 115.128 209.175 114.015 209.162 113.403C209.159 113.36 209.159 113.313 209.162 113.257Z" fill="#232C44"/>
<path d="M217.473 119.513C217.158 119.513 216.774 119.963 216.465 120.695C216.087 121.596 215.842 122.815 215.775 124.133C215.708 125.447 215.829 126.693 216.117 127.63C216.353 128.415 216.698 128.912 217.016 128.932C217.022 128.932 217.028 128.932 217.034 128.932C217.655 128.932 218.587 127.199 218.733 124.312C218.799 122.993 218.678 121.752 218.391 120.814C218.155 120.029 217.809 119.533 217.491 119.513C217.485 119.513 217.479 119.513 217.473 119.513ZM217.04 129.753C217.019 129.753 216.995 129.746 216.974 129.746C216.317 129.71 215.76 129.051 215.403 127.892C215.088 126.855 214.955 125.507 215.027 124.09C215.097 122.669 215.369 121.344 215.787 120.354C216.253 119.244 216.898 118.655 217.534 118.698C218.194 118.734 218.748 119.393 219.102 120.549C219.42 121.589 219.553 122.94 219.481 124.355C219.347 126.994 218.448 129.753 217.04 129.753Z" fill="white"/>
<path d="M212.651 107.911C213.405 108.153 214.152 108.431 214.915 108.67C215.336 108.799 215.787 108.951 216.229 108.961C216.523 108.968 217.038 108.806 217.001 108.418C216.913 107.464 214.646 106.322 213.974 105.994C212.69 105.365 211.285 105.04 209.878 105.05C209.181 105.05 208.328 105.043 207.701 105.428C206.926 105.901 206.996 107.087 207.913 107.352C208.291 107.464 208.691 107.401 209.082 107.372C210.323 107.266 211.491 107.541 212.651 107.911Z" fill="#FAD3B1"/>
<path d="M226.27 98.9894C225.653 93.6839 224.563 87.7358 221.081 83.8577C217.603 79.9828 213.376 77.6646 208.581 76.3531C197.694 73.3725 186.16 78.3832 181.495 89.9879C180.562 92.3028 179.521 94.737 179 97.2639C178.428 100.029 178.585 102.821 178.546 105.63C178.507 108.306 177.623 110.866 176.969 113.419C176.375 115.737 175.946 118.175 175.712 120.569C175.591 121.791 175.622 122.947 175.958 124.02C177.574 125.573 178.87 126.461 180.853 127.365C180.874 127.272 180.874 127.173 180.835 127.084C180.817 127.034 181.131 121.967 181.131 121.967C181.131 121.967 181.991 127.915 182.109 128.077C182.124 128.104 182.152 128.12 182.17 128.147C182.812 128.422 183.021 128.425 183.684 128.62C184.649 128.905 185.63 129.081 186.617 129.213C186.753 129.167 186.862 129.021 186.856 128.865C186.808 127.832 186.684 126.832 186.508 125.828C186.611 126.219 186.705 126.613 186.823 127.004C187.223 128.326 187.61 130.144 189.112 130.246C189.321 130.26 189.502 129.998 189.433 129.783C187.849 124.623 188.512 118.489 188.649 113.121C188.715 110.432 188.833 107.743 189.054 105.063C189.184 103.47 189.351 101.877 189.566 100.291C189.629 99.8372 189.684 99.3703 189.751 98.9C190.871 100.102 193.598 99.4928 194.912 99.506C195.094 99.506 195.242 99.3338 195.245 99.1417C195.285 96.0882 195.993 93.197 197.31 90.5774C196.801 93.4388 196.738 96.3532 197.119 99.2941C197.147 99.4928 197.377 99.5988 197.531 99.5491C197.894 99.4398 198.512 99.1252 198.727 99.155C198.733 99.155 199.054 99.453 199.129 99.4762C199.311 99.5358 199.487 99.4067 199.541 99.2212C200.244 96.9162 201.161 94.7503 202.29 92.6936C201.824 95.0285 201.676 97.4063 201.851 99.8306C201.86 99.9796 201.945 100.155 202.096 100.185C204.231 100.582 206.359 100.758 208.527 100.698C208.626 100.695 208.699 100.652 208.754 100.589C208.923 100.596 209.105 100.48 209.12 100.241C209.22 98.4761 209.501 96.7672 209.952 95.0881C209.85 97.1149 209.753 99.304 210.376 101.119C210.51 101.513 211 101.44 211.033 101.02C211.16 99.5093 211.727 98.1383 212.241 96.7473C212.202 97.1381 212.159 97.5289 212.132 97.9164C212.066 98.8735 211.724 100.609 212.15 101.546C212.511 102.331 213.579 102.858 214.206 103.262C215.026 103.788 216.764 104.603 216.764 104.603C216.764 104.603 217.436 114.191 217.373 117.622C217.327 120.119 217.249 122.613 217.134 125.11C217.064 126.676 217.073 128.259 216.855 129.819C216.734 130.67 216.507 131.452 216.271 132.27C216.029 133.108 215.484 134.366 216.519 134.817C217.149 135.095 217.978 134.929 218.644 135.022C219.068 135.082 219.698 135.327 220.097 135.207C220.464 135.098 220.515 135.019 220.718 134.664C221.317 133.624 221.56 131.882 221.835 130.693C221.902 130.399 221.95 130.104 222.011 129.813C222.017 130.717 222.02 131.617 222.005 132.522C221.989 133.525 221.56 134.565 221.823 135.552C223.122 135.602 224.009 133.78 224.263 132.585C225.035 128.971 225.096 125.063 225.256 121.42C225.477 116.38 226.261 111.372 226.597 106.338C226.624 103.881 226.558 101.434 226.27 98.9894Z" fill="#FAD3B1"/>
<path d="M196.408 124.778C196.408 124.778 198.267 125.596 200.311 125.848C202.354 126.096 204.588 125.249 204.588 125.249C204.588 125.249 203.629 127.438 202.363 127.908C201.098 128.378 198.282 128.06 197.329 126.749C196.941 126.212 196.408 124.778 196.408 124.778Z" fill="#F2835E"/>
<path d="M240.512 174.539C240.285 170.243 236.107 166.289 233.389 163.646C230.543 160.871 227.497 158.241 225.184 154.88C223.413 152.293 216.368 149.365 216.368 149.365C214.827 150.465 213.208 151.468 211.555 152.336C210.383 152.962 209.136 153.641 207.843 153.856C206.393 154.098 204.913 153.926 203.453 154.088C202.227 154.231 201.029 154.608 199.805 154.82C197.305 155.261 195.183 154.293 192.976 153.108C190.042 151.531 187.672 149.286 185.543 146.613C185.368 146.391 183.721 144.467 183.721 144.467C183.721 144.467 175.486 145.063 173.11 145.739C170.436 146.504 167.606 146.497 164.975 147.335C162.181 148.223 159.725 150.025 157.101 151.353C154.113 152.853 152.172 154.231 150.973 157.705C149.514 161.964 149.908 166.809 147.9 170.806L182.782 176.314L185.301 176.708L206.003 179.973L209.511 180.53L238.611 185.12C238.805 184.037 238.971 182.961 239.186 181.974C239.695 179.629 240.645 176.983 240.512 174.539Z" fill="#AB584F"/>
<path d="M216.368 149.366C216.368 149.366 210.925 153.386 208.246 156.254C205.566 159.126 202.89 165.719 201.128 169.011C200.132 170.879 197.922 175.102 196.193 178.43L195.724 178.354L192.585 177.857L191.831 177.741C191.513 176.89 191.286 176.268 191.286 176.208C191.286 176.026 190.06 160.281 189.109 156.565C188.159 152.84 187.269 148.62 187.269 146.554C187.269 144.491 187.538 141.805 187.538 141.805C187.538 141.805 203.953 148.018 205.233 148.203C205.863 148.289 208.56 148.577 211.146 148.839C213.816 149.111 216.368 149.366 216.368 149.366Z" fill="#FEA689"/>
<path d="M192.584 177.857L191.83 177.741L190.631 177.549C189.766 175.572 189.096 173.26 189.19 170.988C189.445 165.129 184.343 161.106 182.509 156.343C180.674 151.584 182.669 151.041 181.664 149.481C180.659 147.925 177.426 145.047 177.426 145.047C177.426 145.047 181.912 143.258 183.338 141.837C184.758 140.41 187.537 141.804 187.537 141.804C187.537 141.804 187.77 143.626 187.931 145.553C188.091 147.471 189.699 151.584 190.28 157.267C190.864 162.934 191.621 166.421 191.452 169.988C191.367 171.78 191.969 175.045 192.584 177.857Z" fill="white"/>
<path d="M222.967 152.866C222.967 152.866 214.439 156.863 212.429 159.003C210.422 161.139 210.758 163.086 208.139 165.467C205.514 167.849 202.796 174.254 199.441 177.797C199.114 178.152 198.79 178.48 198.485 178.788L196.193 178.43L195.724 178.354C197.219 174.724 199.181 169.955 199.989 167.971C201.382 164.55 203.165 158.88 204.588 157.297C206.017 155.707 210.476 149.783 211.145 148.839C211.82 147.895 212.477 145.719 212.477 145.719C212.477 145.719 217.115 147.713 218.29 148.809C219.459 149.908 222.967 152.866 222.967 152.866Z" fill="white"/>
<path d="M189.793 97.7209C189.775 97.7209 189.754 97.7176 189.736 97.7143C189.533 97.6812 189.394 97.4692 189.424 97.2473C189.469 96.9526 190.493 90.0276 191.613 87.2026C192.757 84.3213 194.589 82.9038 194.668 82.8442C194.837 82.7184 195.07 82.7614 195.188 82.9469C195.306 83.1324 195.264 83.3907 195.094 83.5165C195.079 83.5298 193.357 84.8744 192.3 87.5271C191.216 90.2594 190.175 97.307 190.163 97.3765C190.135 97.5785 189.975 97.7209 189.793 97.7209Z" fill="#F2BF91"/>
<path d="M194.879 86.1859C194.849 86.1859 194.821 86.1825 194.788 86.1759C194.588 86.1196 194.467 85.901 194.519 85.6791C194.537 85.603 194.982 83.7185 197.128 81.4036C199.241 79.125 200.304 78.817 200.416 78.7906C200.622 78.7442 200.819 78.88 200.864 79.1019C200.91 79.3238 200.782 79.5423 200.58 79.5887C200.577 79.5887 199.608 79.8801 197.655 81.9865C195.672 84.1226 195.248 85.8646 195.242 85.8812C195.2 86.0666 195.048 86.1859 194.879 86.1859Z" fill="#F2BF91"/>
<path d="M217.004 102.603C217.001 102.603 216.995 102.603 216.989 102.603C216.783 102.593 216.622 102.404 216.631 102.179C216.631 102.109 216.849 95.2208 216.002 90.8061C215.16 86.4213 214.07 84.2951 214.061 84.2752C213.958 84.0798 214.022 83.8281 214.2 83.7155C214.379 83.6062 214.609 83.6758 214.709 83.8712C214.757 83.9606 215.865 86.1133 216.734 90.6372C217.6 95.1479 217.388 101.921 217.376 102.209C217.37 102.427 217.204 102.603 217.004 102.603Z" fill="#F2BF91"/>
<path d="M215.96 133.787C215.923 133.787 215.89 133.783 215.851 133.77C215.654 133.7 215.542 133.472 215.602 133.257C215.605 133.247 215.911 132.127 216.302 129.107C216.698 126.057 216.877 122.162 216.88 122.126C216.889 121.9 217.065 121.722 217.274 121.738C217.479 121.751 217.637 121.94 217.628 122.165C217.625 122.205 217.446 126.133 217.043 129.22C216.641 132.326 216.332 133.449 216.32 133.495C216.268 133.671 216.12 133.787 215.96 133.787Z" fill="#F2BF91"/>
<path d="M219.768 126.219C219.744 126.219 219.717 126.212 219.692 126.212C219.492 126.166 219.359 125.954 219.399 125.732C219.435 125.487 219.653 122.46 219.704 119.393C219.756 116.373 219.402 114.512 219.399 114.492C219.356 114.27 219.486 114.055 219.686 114.008C219.886 113.962 220.089 114.101 220.131 114.32C220.146 114.399 220.507 116.284 220.455 119.41C220.401 122.513 220.174 125.663 220.131 125.888C220.098 126.083 219.941 126.219 219.768 126.219Z" fill="#F2BF91"/>
<path d="M186.457 124.325C186.436 124.325 186.415 124.325 186.391 124.318C186.2 124.282 186.067 124.089 186.085 123.881C186.085 123.748 186.042 122.98 185.994 122.162C185.873 120.039 185.667 116.486 185.667 114.406C185.667 111.349 185.87 109.872 185.882 109.812C185.912 109.59 186.103 109.435 186.309 109.471C186.512 109.508 186.651 109.713 186.621 109.935C186.618 109.951 186.415 111.422 186.415 114.406C186.415 116.462 186.621 119.999 186.742 122.112C186.839 123.781 186.842 123.894 186.826 123.987C186.793 124.186 186.636 124.325 186.457 124.325Z" fill="#F2BF91"/>
<path d="M179.903 101.506C179.697 101.506 179.53 101.324 179.53 101.095C179.53 101.033 179.582 94.8427 181.489 91.7164C183.242 88.8417 183.545 88.3118 183.548 88.3085C183.657 88.1164 183.89 88.0568 184.065 88.1793C184.238 88.2986 184.292 88.5503 184.183 88.7423C184.171 88.7622 183.881 89.2689 182.113 92.1701C180.357 95.0481 180.278 101.036 180.278 101.095C180.278 101.324 180.112 101.506 179.903 101.506Z" fill="#F2BF91"/>
<path d="M195.582 167.342C195.291 167.342 195.012 167.292 194.752 167.19C190.592 165.504 186.275 146.014 186.097 145.183L186.823 144.994C188.034 150.525 191.867 165.15 195.012 166.421C198.091 167.66 205.502 158.139 208.094 154.363L208.693 154.853C207.767 156.204 199.983 167.342 195.582 167.342Z" fill="white"/>
<path d="M194.453 168.627C194.417 168.836 194.414 169.051 194.456 169.253C194.498 169.468 194.544 169.657 194.589 169.836C194.798 170.697 194.965 171.376 194.401 172.969C194.171 173.621 194.286 174.082 194.519 174.194C194.741 174.304 195.11 174.102 195.388 173.505C195.491 173.29 195.591 173.088 195.685 172.899C196.333 171.604 196.599 171.071 195.313 169.886C194.868 169.475 194.601 169.044 194.453 168.627ZM194.638 175.039C194.486 175.039 194.341 175.006 194.211 174.943C193.675 174.681 193.284 173.857 193.702 172.674C194.177 171.333 194.059 170.846 193.866 170.045C193.82 169.859 193.772 169.657 193.726 169.432C193.436 168.011 194.553 166.594 194.601 166.534C194.728 166.375 194.943 166.349 195.101 166.474C195.258 166.597 195.301 166.829 195.204 167.011C195.14 167.134 194.635 168.19 195.797 169.263C197.55 170.876 197.017 171.942 196.345 173.293C196.251 173.476 196.154 173.671 196.054 173.88C195.667 174.711 195.113 175.039 194.638 175.039Z" fill="white"/>
<path d="M160.991 170.303C160.873 170.303 160.758 170.243 160.685 170.131C160.582 169.972 158.118 166.163 157.358 161.729C156.649 157.609 154.872 156.377 154.854 156.364C154.679 156.248 154.621 155.996 154.727 155.801C154.833 155.612 155.06 155.546 155.239 155.661C155.323 155.718 157.318 157.059 158.093 161.583C158.823 165.835 161.269 169.617 161.293 169.654C161.415 169.839 161.375 170.094 161.209 170.23C161.142 170.28 161.066 170.303 160.991 170.303Z" fill="#232C44"/>
<path d="M224.451 182.537C224.403 182.537 224.354 182.527 224.306 182.503C224.118 182.417 224.024 182.179 224.106 181.97C224.175 181.785 225.883 177.41 230.851 175.82C235.486 174.33 236.987 171.892 237.003 171.869C237.118 171.68 237.348 171.627 237.52 171.747C237.693 171.872 237.744 172.124 237.632 172.31C237.569 172.422 235.994 175.022 231.063 176.602C226.449 178.082 224.811 182.242 224.796 182.285C224.736 182.44 224.596 182.537 224.451 182.537Z" fill="#232C44"/>
<path d="M262.852 165.388C258.305 167.617 251.812 171.004 249.562 175.852C247.716 179.828 248.267 186.34 251.034 190.378C253.805 194.416 259.824 194.084 269.792 189.677C279.757 185.274 284.624 184.995 286.013 175.912C286.704 171.386 283.833 162.569 279.29 159.965C277.741 159.075 266.227 163.728 262.852 165.388Z" fill="#FEA689"/>
<path d="M268.806 186.256C268.726 186.389 268.636 186.515 268.549 186.625C268.319 186.911 268.075 187.153 267.802 187.352C267.708 187.415 267.605 187.482 267.491 187.542C266.356 188.159 260.007 189.972 258.02 190.331C252.609 191.314 251.33 184.835 251.848 181.664C252.402 178.243 254.215 176.513 257.036 174.736C259.039 173.488 263.352 171.645 265.802 171.698H265.869C266.089 171.704 266.273 171.747 266.399 171.85C267.972 173.122 268.733 175.39 269.197 177.343C270.165 181.418 269.885 184.503 268.806 186.256Z" fill="#FFC2AE"/>
<path d="M268.807 186.257C268.726 186.39 268.636 186.516 268.55 186.626C265.328 182.66 264.443 176.567 265.802 171.698H265.869C266.089 171.705 266.273 171.748 266.4 171.851C267.972 173.123 268.733 175.391 269.197 177.344C270.165 181.418 269.885 184.504 268.807 186.257Z" fill="#FFD3C4"/>
</svg>
