<svg width="31" height="32" viewBox="0 0 31 32" fill="none" xmlns="http://www.w3.org/2000/svg">
<path d="M24.6641 3.58252H26.3541V4.43254H24.6641V3.58252Z" fill="#66757F"/>
<mask id="mask0_2364_67511" style="mask-type:luminance" maskUnits="userSpaceOnUse" x="1" y="10" width="29" height="21">
<path d="M1.95898 10.375H29.0553V30.8176H1.95898V10.375Z" fill="white"/>
</mask>
<g mask="url(#mask0_2364_67511)">
<path d="M1.95898 10.3831V27.3837C1.95898 29.2615 3.4755 30.784 5.34602 30.784H25.6681C27.5386 30.784 29.0551 29.2615 29.0551 27.3837V10.3831H1.95898Z" fill="#E2EAEF"/>
</g>
<mask id="mask1_2364_67511" style="mask-type:luminance" maskUnits="userSpaceOnUse" x="1" y="3" width="29" height="9">
<path d="M1.95898 3.57373H29.0553V11.2589H1.95898V3.57373Z" fill="white"/>
</mask>
<g mask="url(#mask1_2364_67511)">
<path d="M25.6681 3.58276H5.34602C3.4755 3.58276 1.95898 5.10524 1.95898 6.98286V11.2331H29.0551V6.98286C29.0551 5.10524 27.5386 3.58276 25.6681 3.58276Z" fill="#D892C0"/>
</g>
<path d="M7.74811 7.60397C7.15356 7.60397 6.67188 7.03779 6.67188 6.33832C6.67188 5.63959 7.15356 5.07251 7.74811 5.07251C8.34162 5.07251 8.82346 5.63959 8.82346 6.33832C8.82346 7.03704 8.34162 7.60397 7.74811 7.60397ZM12.8287 7.60397C12.2341 7.60397 11.7524 7.03779 11.7524 6.33832C11.7524 5.63959 12.2341 5.07251 12.8287 5.07251C13.4222 5.07251 13.904 5.63959 13.904 6.33832C13.904 7.03704 13.4222 7.60397 12.8287 7.60397ZM17.9092 7.60397C17.3147 7.60397 16.833 7.03779 16.833 6.33832C16.833 5.63959 17.3147 5.07251 17.9092 5.07251C18.5027 5.07251 18.9855 5.63959 18.9855 6.33832C18.9846 7.03704 18.5027 7.60397 17.9092 7.60397ZM22.9898 7.60397C22.3952 7.60397 21.9135 7.03779 21.9135 6.33832C21.9135 5.63959 22.3952 5.07251 22.9898 5.07251C23.5833 5.07251 24.066 5.63959 24.066 6.33832C24.0651 7.03704 23.5833 7.60397 22.9898 7.60397Z" fill="#292F33"/>
<path d="M23.3948 0.334473C22.3135 0.334473 21.3768 1.01623 20.8596 2.00916C20.3464 1.03755 19.4057 0.334473 18.3142 0.334473C17.2329 0.334473 16.2963 1.01623 15.779 2.00916C15.2658 1.03755 14.3252 0.334473 13.2337 0.334473C12.1523 0.334473 11.2157 1.01623 10.6985 2.00916C10.1852 1.03755 9.2446 0.334473 8.15311 0.334473C6.51536 0.334473 5.18945 1.88067 5.18945 3.73893C5.18945 5.31484 6.07433 6.60437 7.36466 7.07614C8.00735 7.30999 8.40113 6.69623 8.34611 6.20404C8.29962 5.79607 8.02948 5.52994 7.72883 5.33871C7.31816 5.07768 6.88207 4.48178 6.88207 3.74313C6.88207 2.80469 7.45032 1.96232 8.15221 1.96232C8.85411 1.96232 9.42235 2.73159 9.42235 3.58162H10.2827C10.2802 3.63431 10.2691 3.68459 10.2691 3.73803C10.2691 5.31409 11.154 6.60362 12.4445 7.07538C13.0872 7.30909 13.4809 6.69533 13.4258 6.20314C13.3793 5.79607 13.1091 5.52994 12.8085 5.33871C12.3978 5.07768 11.9617 4.48178 11.9617 3.74313C11.9617 2.80469 12.53 1.96232 13.2319 1.96232C13.9339 1.96232 14.5038 2.7325 14.5038 3.58252H15.364C15.3615 3.63521 15.3506 3.68534 15.3506 3.73893C15.3506 5.31484 16.2354 6.60437 17.5258 7.07614C18.1685 7.30999 18.5622 6.69623 18.5072 6.20404C18.4607 5.79682 18.1906 5.53084 17.8899 5.33961C17.4793 5.07858 17.0432 4.48268 17.0432 3.74403C17.0432 2.80559 17.6114 1.96322 18.3133 1.96322C19.0152 1.96322 19.5844 2.7325 19.5844 3.58252H20.4446C20.442 3.63521 20.4311 3.68534 20.4311 3.73893C20.4311 5.31484 21.316 6.60437 22.6063 7.07614C23.249 7.30999 23.6428 6.69623 23.5878 6.20404C23.5413 5.79682 23.2711 5.53084 22.9705 5.33961C22.5598 5.07858 22.1237 4.48268 22.1237 3.74403C22.1237 2.80559 22.692 1.96322 23.3939 1.96322C24.0958 1.96322 24.6649 2.7325 24.6649 3.58252H26.355C26.3372 1.88247 25.0206 0.334473 23.3948 0.334473Z" fill="#66757F"/>
<path d="M9.5795 12.9329H12.9665V16.333H9.5795V12.9329ZM13.8133 12.9329H17.2003V16.333H13.8133V12.9329ZM18.0471 12.9329H21.434V16.333H18.0471V12.9329ZM22.2807 12.9329H25.6678V16.333H22.2807V12.9329ZM5.3457 17.183H8.73274V20.5832H5.3457V17.183ZM9.5795 17.183H12.9665V20.5832H9.5795V17.183ZM13.8133 17.183H17.2003V20.5832H13.8133V17.183ZM18.0471 17.183H21.434V20.5832H18.0471V17.183ZM22.2807 17.183H25.6678V20.5832H22.2807V17.183ZM5.3457 21.4333H8.73274V24.8334H5.3457V21.4333ZM9.5795 21.4333H12.9665V24.8334H9.5795V21.4333ZM13.8133 21.4333H17.2003V24.8334H13.8133V21.4333ZM18.0471 21.4333H21.434V24.8334H18.0471V21.4333ZM22.2807 21.4333H25.6678V24.8334H22.2807V21.4333ZM5.3457 25.6834H8.73274V29.0835H5.3457V25.6834ZM9.5795 25.6834H12.9665V29.0835H9.5795V25.6834ZM13.8133 25.6834H17.2003V29.0835H13.8133V25.6834Z" fill="white"/>
</svg>
