<svg width="24" height="23" viewBox="0 0 24 23" fill="none" xmlns="http://www.w3.org/2000/svg">
<g clip-path="url(#clip0_2331_51142)">
<path d="M19.0449 3.41541H20.3386V4.01853H19.0449V3.41541Z" fill="#66757F"/>
<mask id="mask0_2331_51142" style="mask-type:luminance" maskUnits="userSpaceOnUse" x="1" y="8" width="22" height="15">
<path d="M1.66406 8.23499H22.4052V22.7398H1.66406V8.23499Z" fill="white"/>
</mask>
<g mask="url(#mask0_2331_51142)">
<path d="M1.66406 8.24054V20.3031C1.66406 21.6355 2.8249 22.7157 4.25671 22.7157H19.8125C21.2443 22.7157 22.4051 21.6355 22.4051 20.3031V8.24054H1.66406Z" fill="#E2EAEF"/>
</g>
<mask id="mask1_2331_51142" style="mask-type:luminance" maskUnits="userSpaceOnUse" x="1" y="3" width="22" height="6">
<path d="M1.66406 3.40912H22.4052V8.86204H1.66406V3.40912Z" fill="white"/>
</mask>
<g mask="url(#mask1_2331_51142)">
<path d="M19.8125 3.41553H4.25671C2.8249 3.41553 1.66406 4.49578 1.66406 5.82802V8.84374H22.4051V5.82802C22.4051 4.49578 21.2443 3.41553 19.8125 3.41553Z" fill="#B9D386"/>
</g>
<path d="M6.0953 6.26882C5.6402 6.26882 5.27148 5.86709 5.27148 5.37079C5.27148 4.87502 5.6402 4.47266 6.0953 4.47266C6.54961 4.47266 6.91844 4.87502 6.91844 5.37079C6.91844 5.86656 6.54961 6.26882 6.0953 6.26882ZM9.98428 6.26882C9.52917 6.26882 9.16046 5.86709 9.16046 5.37079C9.16046 4.87502 9.52917 4.47266 9.98428 4.47266C10.4386 4.47266 10.8074 4.87502 10.8074 5.37079C10.8074 5.86656 10.4386 6.26882 9.98428 6.26882ZM13.8733 6.26882C13.4181 6.26882 13.0494 5.86709 13.0494 5.37079C13.0494 4.87502 13.4181 4.47266 13.8733 4.47266C14.3276 4.47266 14.6971 4.87502 14.6971 5.37079C14.6964 5.86656 14.3276 6.26882 13.8733 6.26882ZM17.7622 6.26882C17.3071 6.26882 16.9384 5.86709 16.9384 5.37079C16.9384 4.87502 17.3071 4.47266 17.7622 4.47266C18.2165 4.47266 18.586 4.87502 18.586 5.37079C18.5854 5.86656 18.2165 6.26882 17.7622 6.26882Z" fill="#292F33"/>
<path d="M18.0722 1.11084C17.2445 1.11084 16.5276 1.59457 16.1316 2.29909C15.7388 1.6097 15.0187 1.11084 14.1832 1.11084C13.3555 1.11084 12.6386 1.59457 12.2426 2.29909C11.8498 1.6097 11.1298 1.11084 10.2943 1.11084C9.46655 1.11084 8.74961 1.59457 8.35366 2.29909C7.96081 1.6097 7.24078 1.11084 6.40529 1.11084C5.15165 1.11084 4.13672 2.20792 4.13672 3.52642C4.13672 4.64459 4.81406 5.55955 5.80175 5.89429C6.29371 6.06022 6.59513 5.62473 6.55302 5.27551C6.51743 4.98604 6.31065 4.79721 6.08052 4.66152C5.76616 4.47632 5.43236 4.0535 5.43236 3.5294C5.43236 2.86355 5.86733 2.26586 6.4046 2.26586C6.94187 2.26586 7.37684 2.81168 7.37684 3.41481H8.03542C8.03347 3.45219 8.02501 3.48787 8.02501 3.52578C8.02501 4.64406 8.70235 5.55902 9.69015 5.89376C10.1821 6.05958 10.4835 5.62409 10.4413 5.27487C10.4057 4.98604 10.1989 4.79721 9.9688 4.66152C9.65445 4.47632 9.32064 4.0535 9.32064 3.5294C9.32064 2.86355 9.75561 2.26586 10.2929 2.26586C10.8303 2.26586 11.2665 2.81232 11.2665 3.41545H11.925C11.923 3.45283 11.9147 3.4884 11.9147 3.52642C11.9147 4.64459 12.592 5.55955 13.5797 5.89429C14.0717 6.06022 14.3731 5.62473 14.331 5.27551C14.2954 4.98657 14.0886 4.79785 13.8585 4.66216C13.5441 4.47695 13.2103 4.05414 13.2103 3.53004C13.2103 2.86419 13.6453 2.2665 14.1825 2.2665C14.7198 2.2665 15.1555 2.81232 15.1555 3.41545H15.8139C15.812 3.45283 15.8036 3.4884 15.8036 3.52642C15.8036 4.64459 16.481 5.55955 17.4687 5.89429C17.9606 6.06022 18.2621 5.62473 18.2199 5.27551C18.1844 4.98657 17.9776 4.79785 17.7474 4.66216C17.4331 4.47695 17.0993 4.05414 17.0993 3.53004C17.0993 2.86419 17.5342 2.2665 18.0715 2.2665C18.6088 2.2665 19.0444 2.81232 19.0444 3.41545H20.3381C20.3245 2.2092 19.3167 1.11084 18.0722 1.11084Z" fill="#66757F"/>
<path d="M7.49765 10.0499H10.0903V12.4624H7.49765V10.0499ZM10.7385 10.0499H13.3311V12.4624H10.7385V10.0499ZM13.9793 10.0499H16.5718V12.4624H13.9793V10.0499ZM17.22 10.0499H19.8126V12.4624H17.22V10.0499ZM4.25684 13.0655H6.84948V15.4781H4.25684V13.0655ZM7.49765 13.0655H10.0903V15.4781H7.49765V13.0655ZM10.7385 13.0655H13.3311V15.4781H10.7385V13.0655ZM13.9793 13.0655H16.5718V15.4781H13.9793V13.0655ZM17.22 13.0655H19.8126V15.4781H17.22V13.0655ZM4.25684 16.0812H6.84948V18.4937H4.25684V16.0812ZM7.49765 16.0812H10.0903V18.4937H7.49765V16.0812ZM10.7385 16.0812H13.3311V18.4937H10.7385V16.0812ZM13.9793 16.0812H16.5718V18.4937H13.9793V16.0812ZM17.22 16.0812H19.8126V18.4937H17.22V16.0812ZM4.25684 19.0968H6.84948V21.5093H4.25684V19.0968ZM7.49765 19.0968H10.0903V21.5093H7.49765V19.0968ZM10.7385 19.0968H13.3311V21.5093H10.7385V19.0968Z" fill="white"/>
</g>
<defs>
<clipPath id="clip0_2331_51142">
<rect width="23.7293" height="22.0843" fill="white" transform="translate(0.165039 0.873535)"/>
</clipPath>
</defs>
</svg>
