<svg width="30" height="48" viewBox="0 0 30 48" fill="none" xmlns="http://www.w3.org/2000/svg">
<path d="M29.9958 40.1901C30.1484 45.1299 26.1474 47.3577 20.7725 47.8662C19.1539 48.0115 17.5047 48.0842 15.8555 47.8421C12.8014 47.4061 11.1828 45.6386 10.0526 43.6045C8.37303 40.6018 7.76209 37.3328 7.1208 34.1364C5.99087 28.3248 4.28065 22.6101 2.7841 16.8712C1.92885 13.5538 0.890578 10.2606 0.157628 6.91891C-0.544966 3.72253 1.10424 1.73703 5.04396 0.598823C7.33446 -0.0549874 9.62526 -0.369742 11.8241 0.695796C13.626 1.56739 14.4809 3.06872 15.0919 4.57006C17.749 11.0112 20.3142 17.5009 22.0247 24.1598C23.002 27.9374 23.5516 31.7875 23.8266 35.6134C24.0402 38.6888 21.994 40.2628 18.085 40.3597C16.7717 40.3838 15.3972 40.5292 14.2979 39.7786C13.5037 39.2699 13.1984 38.5194 12.893 37.7929C11.2745 34.1123 10.3276 30.3348 10.2359 26.4119C10.2359 25.7822 10.1139 25.1284 10.0526 24.4989C9.99159 23.9421 10.1139 23.4577 10.8772 23.3366C11.6408 23.2156 11.9768 23.6273 12.1294 24.1598C12.8624 26.7267 12.832 29.3903 13.6566 31.9329C14.2366 33.749 14.6643 35.5894 15.4279 37.3571C15.8248 38.2773 16.4968 38.6161 17.6573 38.5677C19.3982 38.4951 20.8945 37.8655 21.1694 36.9937C21.3527 36.3158 21.3527 35.6134 21.2917 34.9113C20.9861 31.6908 20.6198 28.4701 19.8868 25.298C18.8483 20.8667 17.1687 16.5807 15.5195 12.2947C14.5726 9.82461 13.8093 7.30634 12.5264 4.90911C11.0302 2.31817 9.31964 1.83377 5.99087 2.97198C3.05907 3.96461 2.26482 4.66703 3.05907 8.25083C4.52497 15.031 6.66281 21.7385 8.37303 28.4701C9.4113 32.5867 9.99159 36.7759 11.0912 40.8682C11.3355 41.7398 11.5798 42.6359 12.0684 43.4592C13.1067 45.3236 14.6949 46.5586 17.474 46.6072C20.1312 46.6312 22.6963 46.4375 24.9871 45.2752C26.85 44.331 27.7663 42.9264 27.8579 41.2073C28.0409 38.0836 27.125 35.0809 26.3307 32.0539C25.3841 28.4944 24.4068 24.9347 23.124 21.4479C23.0323 21.2298 23.002 21.0361 22.9713 20.8183C22.9407 20.455 22.9103 20.0435 23.4906 19.9222C24.0402 19.8012 24.3152 20.1645 24.4679 20.4793C25.2008 22.0047 26.0254 23.5303 26.514 25.1284C27.8273 29.4146 29.1405 33.7006 29.8125 38.0836C29.9041 38.7857 29.9345 39.4879 29.9958 40.1901Z" fill="#B9D386"/>
</svg>
