<svg width="19" height="23" viewBox="0 0 19 23" fill="none" xmlns="http://www.w3.org/2000/svg">
<mask id="mask0_2398_404" style="mask-type:luminance" maskUnits="userSpaceOnUse" x="0" y="0" width="19" height="23">
<path d="M0.585938 0.722656H18.1632V22.807H0.585938V0.722656Z" fill="white"/>
</mask>
<g mask="url(#mask0_2398_404)">
<path d="M8.43171 22.807C8.45677 22.807 8.45677 22.807 8.48183 22.807C9.86045 22.807 11.1889 22.4272 12.3418 21.749C12.3669 21.7218 12.4171 21.7218 12.4422 21.6947C13.545 21.0435 14.4724 20.1211 15.1491 19.0087C15.2244 18.9002 15.2745 18.7917 15.3246 18.6832C15.4499 18.5746 15.5752 18.4661 15.7005 18.3305C15.7257 18.3305 15.7257 18.3034 15.7508 18.3034C17.2295 16.8654 18.157 14.8578 18.157 12.6602C18.157 11.8462 18.0317 11.0595 17.7809 10.2727C17.7809 10.2456 17.7559 10.2184 17.7559 10.1912C17.6055 9.67578 17.405 9.16033 17.1042 8.67201C17.1042 8.50923 17.1293 8.34635 17.1293 8.2107C17.1293 7.39683 17.004 6.61009 16.7533 5.82324C16.7533 5.79611 16.7282 5.76898 16.7282 5.76898C15.9763 2.86596 12.9434 0.722656 9.30902 0.722656C5.72468 0.722656 2.69188 2.83883 1.88974 5.6876C1.88974 5.6876 1.88974 5.6876 1.88974 5.71473C1.61408 6.52859 1.48878 7.3697 1.48878 8.2107C1.48878 9.07894 1.63914 9.89281 1.88974 10.6525C1.48878 11.2222 1.18795 11.8462 1.01253 12.4703C0.736762 13.2842 0.611461 14.1253 0.611461 14.9663C0.5864 19.3071 4.12052 22.807 8.43171 22.807ZM16.9288 14.9663C16.6781 15.6445 16.3272 16.2957 15.8761 16.8654V16.1601C16.2771 15.7801 16.628 15.4003 16.9288 14.9663ZM14.8484 11.7106C15.2494 11.3579 15.6003 10.951 15.9011 10.544C15.6504 11.2222 15.2996 11.8733 14.8484 12.4432V11.7106ZM14.5476 17.1096C14.7231 17.0282 14.8734 16.9197 15.0489 16.8112V17.7879C14.8985 17.9236 14.7231 18.0592 14.5476 18.1948V17.1096ZM5.77481 21.3692C5.34878 21.1791 4.92265 20.9621 4.54665 20.7179V19.6057C4.94771 19.7956 5.34878 19.9583 5.77481 20.094V21.3692ZM3.76967 14.9663C4.24592 15.6716 4.87253 16.2686 5.62444 16.7569V17.7065C4.79735 16.9739 4.14568 16.0515 3.76967 14.9663ZM8.0558 21.8846C7.5545 21.8575 7.07825 21.7761 6.62706 21.6676V20.3381C7.07825 20.4467 7.5545 20.5009 8.0558 20.528V21.8846ZM6.4767 18.3847V17.2723C6.87766 17.4622 7.27873 17.6251 7.70486 17.7608V19.0358C7.25367 18.8731 6.8526 18.656 6.4767 18.3847ZM7.50438 14.8849V13.5554C7.95546 13.664 8.43171 13.7182 8.93302 13.7454V15.129C8.45677 15.1019 7.98052 15.0205 7.50438 14.8849ZM8.53195 17.9778C8.98314 18.0592 9.45939 18.1406 9.9607 18.1406V19.5243C9.45939 19.4971 8.98314 19.4156 8.53195 19.3071V17.9778ZM11.7904 21.0435C10.9132 21.5319 9.93564 21.8032 8.90796 21.8846V20.3381C9.38421 20.4195 9.86045 20.4738 10.3618 20.4738C10.3868 20.4738 10.3868 20.4738 10.4119 20.4738C10.8881 20.4738 11.3393 20.4195 11.7904 20.3381V21.0435ZM12.6176 20.5009V20.1211C12.8682 20.0397 13.1189 19.9583 13.3695 19.8498C13.144 20.094 12.8933 20.311 12.6176 20.5009ZM13.6954 18.7103C12.8181 19.1715 11.8405 19.47 10.813 19.5514V18.1677C11.8405 18.1135 12.8181 17.8964 13.6954 17.5165V18.7103ZM13.52 12.6602C13.6954 12.5788 13.8458 12.4703 14.0212 12.3618V13.3384C13.8708 13.4741 13.6954 13.6097 13.52 13.7454V12.6602ZM12.6677 14.288C11.7904 14.7492 10.813 15.0477 9.78527 15.129V13.7454C10.813 13.6911 11.7904 13.4741 12.6677 13.0943V14.288ZM5.79997 7.64099H6.45164C6.42658 7.50535 6.42658 7.39683 6.42658 7.26119C6.42658 7.12554 6.42658 6.9899 6.45164 6.88138H5.79997V5.95889H6.67718C7.17849 4.68371 8.43171 3.76133 9.86045 3.76133C10.3868 3.76133 10.8881 3.86984 11.3393 4.114L11.0134 4.92798C10.6625 4.76521 10.2615 4.65658 9.88551 4.65658C8.93302 4.65658 8.10593 5.17214 7.65474 5.93176H10.6374V6.85425H7.30379C7.27873 6.9899 7.27873 7.12554 7.27873 7.26119C7.27873 7.39683 7.30379 7.53248 7.30379 7.64099H10.6124V8.56349H7.62968C8.08086 9.3231 8.90796 9.83855 9.86045 9.83855C10.2615 9.83855 10.6374 9.75717 10.9633 9.59439L11.3143 10.4355C10.8631 10.6525 10.3618 10.7611 9.86045 10.7611C8.40665 10.7611 7.17849 9.83855 6.67718 8.56349H5.79997V7.64099ZM5.44902 12.8501C5.85009 13.04 6.25105 13.2028 6.67718 13.3384V14.6136C6.25105 14.4237 5.82503 14.2067 5.44902 13.9625V12.8501ZM4.59677 12.3346V13.2842C3.76967 12.5245 3.118 11.5749 2.742 10.5169C3.21824 11.2222 3.84485 11.8462 4.59677 12.3346ZM3.69449 19.1172V20.0669C2.8673 19.3071 2.21563 18.3576 1.83962 17.2995C2.34093 18.0049 2.96754 18.6289 3.69449 19.1172Z" fill="#D892C0"/>
</g>
</svg>
