<svg width="29" height="29" viewBox="0 0 29 29" fill="none" xmlns="http://www.w3.org/2000/svg">
<g clip-path="url(#clip0_2398_365)">
<path d="M14.4286 18.5663C16.3738 18.5663 17.9509 16.6555 17.9509 14.2984C17.9509 11.9412 17.4332 10.0303 14.4286 10.0303C11.4242 10.0303 10.9062 11.9412 10.9062 14.2984C10.9062 16.6555 12.4833 18.5663 14.4286 18.5663Z" fill="#D892C0"/>
<mask id="mask0_2398_365" style="mask-type:luminance" maskUnits="userSpaceOnUse" x="7" y="18" width="15" height="10">
<path d="M7.77539 18.8878H21.082V27.4908H7.77539V18.8878Z" fill="white"/>
</mask>
<g mask="url(#mask0_2398_365)">
<path d="M21.0734 24.9114C21.0081 20.8051 20.4706 19.6353 16.3569 18.8943C16.3569 18.8943 15.7779 19.6303 14.4283 19.6303C13.0785 19.6303 12.4994 18.8943 12.4994 18.8943C8.43074 19.6268 7.86043 20.7796 7.78543 24.7777C7.77932 25.1041 7.77648 25.1213 7.77539 25.0835C7.77566 25.1544 7.77593 25.2858 7.77593 25.5148C7.77593 25.5148 8.7553 27.4845 14.4283 27.4845C20.1013 27.4845 21.0805 25.5148 21.0805 25.5148C21.0805 25.3677 21.0807 25.2654 21.0808 25.1958C21.0797 25.2192 21.0776 25.1738 21.0734 24.9111V24.9114Z" fill="#D892C0"/>
</g>
</g>
<defs>
<clipPath id="clip0_2398_365">
<rect width="28.1236" height="28.0301" fill="white" transform="translate(0.285156 0.927734)"/>
</clipPath>
</defs>
</svg>
