<svg width="24" height="25" viewBox="0 0 24 25" fill="none" xmlns="http://www.w3.org/2000/svg">
<mask id="mask0_3074_3768" style="mask-type:luminance" maskUnits="userSpaceOnUse" x="0" y="0" width="24" height="25">
<path d="M0 0H24V24.3334H0V0Z" fill="white"/>
</mask>
<g mask="url(#mask0_3074_3768)">
<path d="M1.54256 2.15712C2.09118 1.3904 2.89629 0.961024 3.67567 0.530894C4.23728 0.221028 4.87157 0.0667262 5.54727 0.0355884C6.61004 -0.0131984 7.54764 0.28696 8.37166 0.889294C8.87281 1.25576 9.31582 1.7164 9.71818 2.18927C10.0762 2.61007 10.363 3.09415 10.6442 3.57131C11.0713 4.29592 11.3792 5.0721 11.583 5.88685C11.7827 6.68559 11.9515 7.48874 11.9776 8.31471C11.9788 8.35064 12.008 8.38569 12.0241 8.42111C12.0641 8.38002 12.1329 8.34308 12.1398 8.29707C12.2373 7.65641 12.5005 7.07097 12.7462 6.47784C13.0022 5.85974 13.3276 5.28161 13.7653 4.77383C14.1631 4.31256 14.5784 3.86327 15.016 3.43818C15.6265 2.84505 16.2355 2.24423 16.8994 1.71174C17.5781 1.16714 18.3602 0.780626 19.2336 0.600607C20.5768 0.323897 21.8346 0.443784 22.851 1.4465C23.4415 2.02891 23.773 2.76601 23.8791 3.58416C23.9388 4.04329 24.0035 4.50922 23.9853 4.96898C23.9545 5.75158 23.7911 6.51692 23.5723 7.27418C23.247 8.40056 22.7411 9.44967 22.242 10.506C21.8279 11.3826 21.477 12.2876 21.0692 13.1672C20.8183 13.7087 20.5175 14.2285 20.2309 14.7537C19.956 15.2576 19.6849 15.7641 19.3867 16.2547C18.7509 17.3011 18.1008 18.3392 17.4525 19.3783C16.621 20.711 15.7954 22.0474 14.9447 23.3681C14.7433 23.6807 14.4746 23.9623 14.1938 24.2114C13.953 24.4249 13.6768 24.3274 13.4654 24.0704C13.2853 23.8515 13.0642 23.6646 12.858 23.4668C12.0526 22.694 11.2182 21.9478 10.4491 21.1417C9.89814 20.5642 9.4213 19.9165 8.93494 19.2828C8.52177 18.7445 7.99554 18.3304 7.47123 17.9115C7.01806 17.5494 6.55974 17.1934 6.09898 16.8407C5.09127 16.0692 4.13708 15.2392 3.25942 14.3277C2.58885 13.6313 2.02815 12.8549 1.52391 12.0337C0.931038 11.0682 0.541668 10.0245 0.250315 8.94567C0.134288 8.51629 0.116666 8.05981 0.0711297 7.61405C0.0372994 7.28376 -0.00514939 6.94818 0.0186477 6.61915C0.0928686 5.59816 0.264207 4.59406 0.736932 3.66522C0.992525 3.16298 1.26407 2.66869 1.54256 2.15712ZM17.3397 3.02444C16.8345 3.22828 16.3458 3.45684 16.0009 3.89655C15.5042 4.52964 14.9583 5.13236 14.5248 5.80465C14.0009 6.61714 13.5557 7.4803 13.1077 8.33728C12.7004 9.11673 12.6228 9.98708 12.4866 10.8357C12.4178 11.2654 12.4143 11.7046 12.3665 12.1379C12.3214 12.5448 11.9561 12.7565 11.7048 12.5131C11.6047 12.4162 11.6212 12.2047 11.5817 12.046C11.5686 11.993 11.5462 11.9422 11.528 11.8904C11.4901 11.9334 11.4389 11.9707 11.4163 12.0205C11.3173 12.2371 11.2367 12.4621 11.1301 12.6746C11.0449 12.8444 10.7187 12.9643 10.5913 12.8639C10.4362 12.7415 10.2692 12.6163 10.397 12.3537C10.605 11.9257 10.7794 11.4816 10.9578 11.0405C11.0403 10.8369 11.123 10.6474 11.0037 10.4023C10.6946 9.76785 10.4205 9.11661 10.1434 8.46763C9.69066 7.40705 9.08724 6.43359 8.3723 5.52706C8.00673 5.06352 7.61015 4.62344 7.22361 4.17591C6.47844 3.31325 5.64941 2.55082 4.56053 2.1188C4.13669 1.95063 3.69767 1.82973 3.23459 1.97823C2.81036 2.11438 2.57869 2.47215 2.32336 2.78479C2.14803 2.99948 2.0158 3.2656 1.93013 3.52933C1.79313 3.95151 1.70901 4.3853 1.8033 4.84052C1.87301 5.17635 1.85012 5.53236 1.93373 5.86353C2.16964 6.79829 2.52287 7.69561 2.98234 8.54642C3.45468 9.42093 3.9413 10.2891 4.45403 11.1413C5.01461 12.0733 5.59705 12.9936 6.19803 13.9012C6.87515 14.924 7.57748 15.9309 8.28123 16.9364C8.55393 17.326 8.82303 17.7298 9.16185 18.06C9.52086 18.4099 9.95165 18.6926 10.3675 18.982C11.081 19.4787 11.7964 19.9744 12.5318 20.439C13.0881 20.7906 13.677 21.0926 14.2506 21.4178C14.4153 21.5112 14.5396 21.5241 14.639 21.3183C14.736 21.1179 14.8754 20.9375 14.991 20.7453C15.4473 19.9858 15.9013 19.2249 16.3568 18.4649C16.7548 17.8008 17.1463 17.1326 17.554 16.4742C18.0087 15.7398 18.4867 15.019 18.9395 14.2835C19.517 13.3452 20.0493 12.3789 20.6558 11.4593C21.5197 10.1491 21.8354 8.68862 21.9636 7.17497C22.0068 6.66466 21.9555 6.14339 21.912 5.63006C21.8653 5.07865 21.7244 4.55145 21.4147 4.0714C20.8216 3.15151 19.9734 2.64095 18.8732 2.65785C18.3697 2.66566 17.8695 2.87757 17.3397 3.02444ZM11.1051 7.87034C10.9797 7.25187 10.9088 6.61638 10.7147 6.01934C10.4926 5.33607 10.203 4.66567 9.8674 4.02766C9.30244 2.95397 8.55445 2.01946 7.47059 1.38775C6.64168 0.904673 5.7635 0.774071 4.83182 1.02746C4.73753 1.05318 4.65148 1.10789 4.56156 1.14924C4.65186 1.18693 4.74216 1.22437 4.83221 1.26232C4.85613 1.2724 4.87877 1.28551 4.90308 1.29383C5.70614 1.56827 6.37425 2.06093 6.97329 2.62494C7.55433 3.17193 8.07375 3.78309 8.60667 4.37786C9.40303 5.26661 10.009 6.28105 10.5672 7.32246C10.7596 7.68149 10.8999 8.06713 11.0705 8.43788C11.0891 8.4786 11.1505 8.50053 11.1921 8.53117C11.2053 8.48087 11.2362 8.42805 11.229 8.3809C11.2041 8.21878 11.1661 8.0588 11.1051 7.87034ZM1.05105 5.99804C1.00436 6.11502 0.918175 6.23188 0.917918 6.349C0.917274 6.72643 0.945445 7.10412 0.967827 7.48131C0.981076 7.70318 0.976188 7.9311 1.02816 8.14503C1.19525 8.83284 1.35926 9.51711 1.6281 10.1831C2.15588 11.4913 2.92574 12.6373 3.88354 13.6654C4.35832 14.1748 4.88945 14.6346 5.40359 15.1079C5.68928 15.3708 5.99093 15.6171 6.28935 15.8662C6.33631 15.9054 6.40461 15.92 6.46288 15.946C6.44204 15.8833 6.43535 15.8107 6.39792 15.7598C6.16407 15.4409 5.90384 15.1389 5.6889 14.8084C5.21386 14.0782 4.75323 13.3386 4.30018 12.595C3.67837 11.5744 3.03367 10.565 2.46421 9.51661C1.86067 8.40548 1.26085 7.28124 1.05105 5.99804ZM19.0246 1.81296C19.4069 1.74174 19.7681 1.83818 20.1235 1.95579C21.1426 2.29289 21.8669 2.97477 22.3598 3.88621C22.7101 4.5338 22.8669 5.24052 22.8189 5.98215C22.815 6.04115 22.8531 6.1028 22.8718 6.16331C22.9093 6.10153 22.9767 6.04115 22.9798 5.97774C23.0066 5.42671 23.0463 4.87455 23.0318 4.32403C23.0225 3.96992 22.9581 3.61038 22.8667 3.26648C22.5372 2.02589 21.5366 1.32447 20.2397 1.38094C19.8102 1.39973 19.3841 1.51344 18.9591 1.59626C18.8377 1.61996 18.7253 1.68791 18.6086 1.73544C18.7286 1.76128 18.8485 1.78712 19.0246 1.81296ZM11.8352 21.0317C11.7834 20.9991 11.7349 20.9593 11.6791 20.9361C11.6039 20.9051 11.5233 20.8871 11.4449 20.8635C11.4839 20.9219 11.5129 20.9906 11.5632 21.0371C12.1474 21.578 12.7324 22.1182 13.3259 22.6495C13.3764 22.6946 13.5096 22.7093 13.5667 22.676C13.6757 22.6126 13.7747 22.5151 13.8429 22.4098C13.873 22.3633 13.8433 22.2222 13.7969 22.1942C13.1568 21.8087 12.5091 21.4355 11.8352 21.0317Z" fill="#D892C0"/>
</g>
</svg>
