<svg width="360" height="370" viewBox="0 0 360 370" fill="none" xmlns="http://www.w3.org/2000/svg">
<g clip-path="url(#clip0_2882_93748)">
<mask id="mask0_2882_93748" style="mask-type:luminance" maskUnits="userSpaceOnUse" x="260" y="267" width="78" height="37">
<path d="M260.889 267.68H337.778V303.163H260.889V267.68Z" fill="white"/>
</mask>
<g mask="url(#mask0_2882_93748)">
<path d="M337.678 267.994L261.303 291.699L261.209 291.728L261.202 291.729L261.021 291.788V303.031L261.044 303.035L261.299 302.953L261.521 302.883L337.582 279.057L337.77 278.998L337.678 267.994Z" fill="#9E6F4D"/>
</g>
<mask id="mask1_2882_93748" style="mask-type:luminance" maskUnits="userSpaceOnUse" x="0" y="283" width="262" height="21">
<path d="M0 283.666H261.778V303.162H0V283.666Z" fill="white"/>
</mask>
<g mask="url(#mask1_2882_93748)">
<path d="M261.47 302.506L261.255 302.499H261.238V292.239H261.34C261.365 292.069 261.396 291.9 261.436 291.728L261.441 291.702L261.302 291.698L0.269097 283.97L0 283.963V295.306L0.256944 295.315L261.021 303.032L261.043 303.034L261.299 302.952L261.521 302.882C261.5 302.757 261.484 302.631 261.47 302.506Z" fill="#9E6F4D"/>
</g>
<path d="M0.269723 283.97L81.7628 262.277L337.77 267.994L261.27 292.12C261.27 292.12 0.0110426 284.237 0.269723 283.97Z" fill="#C78C61"/>
<path d="M342.866 122.643C342.864 122.696 342.862 122.75 342.859 122.805C342.852 123.094 342.842 123.383 342.831 123.67C342.519 131.764 341.184 139.799 338.899 147.548C338.849 147.716 338.798 147.884 338.746 148.052C338.6 148.542 338.449 149.033 338.295 149.52C336.81 154.183 334.986 158.731 332.838 163.11C332.746 163.293 332.658 163.474 332.566 163.656C330.753 167.294 328.72 170.814 326.472 174.188C325.342 175.885 324.159 177.543 322.921 179.158C322.767 179.358 322.614 179.559 322.458 179.757C318.303 185.1 313.583 189.967 308.388 194.253C301.411 200.011 293.607 204.726 285.333 208.223C283.543 208.979 281.73 209.679 279.901 210.321C279.661 210.407 279.42 210.489 279.177 210.571C277.409 211.176 275.623 211.727 273.824 212.22C275.154 198.111 279.253 184.293 285.84 171.826C287.857 168.013 290.107 164.339 292.571 160.824C292.696 160.649 292.817 160.474 292.941 160.299C296.682 155.035 300.899 150.141 305.52 145.678C305.651 145.553 305.783 145.427 305.914 145.3C309.947 141.449 314.283 137.927 318.873 134.781C319.118 134.614 319.366 134.444 319.612 134.28C319.748 134.187 319.883 134.096 320.024 134.005C327.142 129.262 334.826 125.433 342.866 122.643Z" fill="#8C7D46"/>
<path d="M342.86 122.805C342.853 123.094 342.843 123.383 342.832 123.67C339.501 128.593 336.086 133.455 332.617 138.277C326.688 146.519 320.603 154.643 314.499 162.747C308.303 170.976 302.087 179.19 295.995 187.499C290.494 195.004 285.093 202.586 279.902 210.321C279.662 210.407 279.421 210.489 279.178 210.571C279.572 209.982 279.966 209.395 280.363 208.808C286.063 200.37 292.008 192.11 298.053 183.931C304.06 175.803 310.162 167.756 316.233 159.678C322.391 151.486 328.516 143.262 334.464 134.906C337.311 130.909 340.114 126.878 342.86 122.805Z" fill="#32303A"/>
<path d="M298.154 184.031C296.079 176.201 294.341 168.284 292.94 160.299C292.817 160.474 292.695 160.649 292.57 160.823C293.971 168.737 295.701 176.586 297.76 184.346C297.784 184.439 297.883 184.527 297.98 184.518C306.298 183.797 314.411 181.93 322.457 179.757C322.614 179.559 322.766 179.357 322.921 179.157C318.563 180.342 314.185 181.443 309.758 182.328C305.918 183.096 302.048 183.686 298.154 184.031Z" fill="#32303A"/>
<path d="M310.81 167.252C308.891 160.005 307.258 152.683 305.916 145.301C305.784 145.427 305.652 145.554 305.521 145.679C306.869 153.041 308.501 160.341 310.417 167.568C310.442 167.66 310.539 167.748 310.636 167.741C318.077 167.095 325.355 165.533 332.567 163.656C332.659 163.474 332.747 163.294 332.839 163.11C329.384 164.015 325.916 164.85 322.414 165.549C318.574 166.317 314.704 166.907 310.81 167.252Z" fill="#32303A"/>
<path d="M335.374 148.3C331.535 149.066 327.665 149.658 323.768 150.002C322.367 144.708 321.118 139.373 320.025 134.006C319.884 134.097 319.749 134.188 319.613 134.281C320.714 139.662 321.969 145.01 323.377 150.318C323.401 150.411 323.499 150.498 323.596 150.491C328.714 150.045 333.752 149.169 338.747 148.052C338.799 147.884 338.849 147.717 338.9 147.549C337.728 147.813 336.553 148.065 335.374 148.3Z" fill="#32303A"/>
<path d="M85.6323 220.765C85.45 225.715 84.8285 230.656 83.7625 235.491C83.5212 235.404 83.2799 235.317 83.0403 235.227C82.832 235.149 82.6254 235.069 82.417 234.99C70.5056 230.415 59.8285 222.578 51.6879 212.522C49.5889 209.929 47.6775 207.192 45.9587 204.339C45.8528 204.164 45.7504 203.989 45.6445 203.812C42.2243 198.022 39.6028 191.765 37.832 185.246C37.7868 185.082 37.7417 184.916 37.7 184.75C36.3667 179.713 35.5403 174.524 35.2486 169.28C35.1584 167.665 35.1202 166.05 35.1306 164.436C35.1306 164.27 35.134 164.102 35.1358 163.936C35.2174 157.553 36.0854 151.192 37.7365 145.038C37.7486 144.994 37.759 144.947 37.7729 144.904C37.9483 144.977 38.1236 145.052 38.2972 145.127C42.5854 146.949 46.7122 149.176 50.6132 151.767C51.9344 152.643 53.2295 153.562 54.4969 154.518C54.6323 154.622 54.7677 154.725 54.9049 154.829C58.9552 157.93 62.7156 161.433 66.1132 165.274C66.24 165.417 66.3667 165.562 66.4917 165.706C67.4031 166.75 68.2851 167.817 69.1393 168.907C71.8302 172.342 74.233 176.011 76.3129 179.861C76.4222 180.065 76.5299 180.268 76.6393 180.471C78.634 184.247 80.3198 188.199 81.6584 192.277C84.6636 201.42 85.983 211.125 85.6323 220.765Z" fill="#A18F50"/>
<mask id="mask2_2882_93748" style="mask-type:luminance" maskUnits="userSpaceOnUse" x="149" y="57" width="38" height="87">
<path d="M149.334 57.8652H186.667V143.888H149.334V57.8652Z" fill="white"/>
</mask>
<g mask="url(#mask2_2882_93748)">
<path d="M185.613 133.934C185.222 136.798 184.674 139.638 183.976 142.443C183.913 142.693 183.851 142.943 183.785 143.193C183.733 143.389 183.682 143.585 183.63 143.783C174.641 137.088 166.976 128.538 161.238 118.756C159.493 115.785 157.938 112.702 156.575 109.535C156.483 109.324 156.394 109.115 156.307 108.905C154.222 103.959 152.606 98.8091 151.476 93.547C151.436 93.3597 151.396 93.1759 151.358 92.9885C150.472 88.7418 149.905 84.4219 149.662 80.0789C149.622 79.3687 149.589 78.6585 149.568 77.9466C149.561 77.7806 149.557 77.6094 149.552 77.4434C149.386 71.1554 149.898 64.8531 151.09 58.6793C151.136 58.4509 151.181 58.2243 151.226 57.9941C151.274 58.0245 151.321 58.0548 151.366 58.0851C156.214 61.2167 160.691 64.9281 164.71 69.1123C164.825 69.2319 164.939 69.3514 165.05 69.4728C165.896 70.3596 166.719 71.2714 167.521 72.2028C169.899 74.9632 172.087 77.9002 174.064 80.9817C174.163 81.1352 174.264 81.2922 174.361 81.4492C176.233 84.4077 177.908 87.4946 179.37 90.6868C180.116 92.3194 180.806 93.9753 181.436 95.6543C181.514 95.8649 181.594 96.0754 181.67 96.2878C183.498 101.286 184.804 106.483 185.563 111.774C186.611 119.102 186.618 126.598 185.613 133.934Z" fill="#A18F50"/>
</g>
<mask id="mask3_2882_93748" style="mask-type:luminance" maskUnits="userSpaceOnUse" x="228" y="189" width="132" height="62">
<path d="M228.889 189.41H359.998V250.279H228.889V189.41Z" fill="white"/>
</mask>
<g mask="url(#mask3_2882_93748)">
<path d="M359.998 194.242C359.932 194.36 359.863 194.476 359.795 194.594C355.696 201.667 350.872 208.29 345.425 214.323C345.314 214.452 345.198 214.575 345.083 214.702C342.248 217.815 339.247 220.77 336.092 223.543C334.22 225.19 332.295 226.771 330.323 228.279C330.174 228.395 330.024 228.507 329.875 228.619C324.245 232.886 318.22 236.583 311.892 239.636C311.694 239.732 311.495 239.829 311.295 239.923C308.46 241.269 305.568 242.487 302.622 243.569C289.434 248.406 275.356 250.59 261.37 250.126C250.37 249.762 239.408 247.76 228.984 244.115C229 244.091 229.016 244.068 229.031 244.043C229.168 243.829 229.306 243.615 229.444 243.401C234.354 235.841 240.097 228.864 246.53 222.626C253.91 215.464 262.174 209.272 271.066 204.253C276.957 200.93 283.12 198.13 289.474 195.904C289.67 195.832 289.868 195.766 290.066 195.697C293.514 194.51 297.021 193.491 300.568 192.645C304.481 191.714 308.443 190.991 312.427 190.479C312.604 190.456 312.783 190.435 312.96 190.411C319.894 189.553 326.903 189.325 333.875 189.723C334.038 189.732 334.203 189.741 334.363 189.751C334.517 189.762 334.667 189.771 334.818 189.78C343.219 190.326 351.566 191.784 359.663 194.144C359.776 194.176 359.887 194.209 359.998 194.242Z" fill="#A18F50"/>
</g>
<mask id="mask4_2882_93748" style="mask-type:luminance" maskUnits="userSpaceOnUse" x="228" y="194" width="132" height="51">
<path d="M228.992 194.137H359.997V244.194H228.992V194.137Z" fill="white"/>
</mask>
<g mask="url(#mask4_2882_93748)">
<path d="M359.998 194.245C359.932 194.362 359.863 194.478 359.795 194.596C350.542 198.379 341.269 202.108 331.976 205.784C319.438 210.746 306.861 215.608 294.25 220.374C281.641 225.142 268.997 229.808 256.316 234.38C247.238 237.652 238.144 240.875 229.031 244.045C229.168 243.831 229.306 243.617 229.444 243.403C239.99 239.733 250.512 235.993 261.01 232.183C273.679 227.59 286.318 222.896 298.918 218.105C311.519 213.314 324.085 208.427 336.615 203.441C344.313 200.379 351.995 197.282 359.663 194.146C359.776 194.179 359.887 194.211 359.998 194.245Z" fill="#32303A"/>
</g>
<path d="M275.998 227.091C279.453 219.408 285.437 206.025 290.065 195.697C289.868 195.767 289.67 195.833 289.473 195.904C284.838 206.244 278.93 219.457 275.486 227.111C275.423 227.253 275.472 227.405 275.621 227.457C287.512 231.612 299.404 235.766 311.295 239.924C311.494 239.829 311.694 239.733 311.892 239.637C303.404 236.669 294.914 233.702 286.425 230.734C282.947 229.519 279.472 228.306 275.998 227.091Z" fill="#32303A"/>
<path d="M300.596 217.889C304.718 208.73 308.839 199.573 312.961 190.412C312.784 190.435 312.605 190.457 312.428 190.48C308.313 199.623 304.198 208.766 300.086 217.911C300.021 218.053 300.073 218.203 300.223 218.255C310.106 221.711 319.99 225.164 329.876 228.62C330.025 228.508 330.174 228.395 330.323 228.279C323.891 226.031 317.459 223.783 311.027 221.535C307.549 220.321 304.072 219.106 300.596 217.889Z" fill="#32303A"/>
<path d="M336.741 211.29C333.264 210.073 329.79 208.86 326.312 207.645C328.996 201.679 331.68 195.714 334.363 189.751C334.203 189.74 334.038 189.732 333.875 189.723C331.184 195.704 328.493 201.683 325.802 207.666C325.739 207.809 325.788 207.959 325.937 208.01C332.319 210.241 338.701 212.469 345.083 214.702C345.198 214.575 345.314 214.452 345.425 214.323C342.529 213.312 339.637 212.3 336.741 211.29Z" fill="#32303A"/>
<mask id="mask5_2882_93748" style="mask-type:luminance" maskUnits="userSpaceOnUse" x="150" y="57" width="34" height="87">
<path d="M150.666 57.8652H183.999V143.431H150.666V57.8652Z" fill="white"/>
</mask>
<g mask="url(#mask5_2882_93748)">
<path d="M183.975 142.443C183.913 142.693 183.85 142.943 183.784 143.193C183.324 142.077 182.868 140.959 182.409 139.843C179.05 131.63 175.737 123.395 172.475 115.138C172.404 114.956 172.331 114.775 172.262 114.592C170.152 109.249 168.064 103.898 166 98.5378C165.93 98.3558 165.861 98.1756 165.789 97.9936C165.316 96.7606 164.842 95.5277 164.369 94.2929C162.678 89.8767 161 85.4551 159.34 81.0281C159.272 80.8479 159.204 80.6695 159.138 80.4875V80.4857C156.416 73.2342 153.734 65.963 151.09 58.6793C151.135 58.4509 151.18 58.2243 151.225 57.9941C151.274 58.0245 151.321 58.0548 151.366 58.0851C153.253 63.2954 155.163 68.5003 157.092 73.6927C157.906 75.8857 158.724 78.0751 159.545 80.2627C159.618 80.4625 159.692 80.6624 159.77 80.8622C161.921 86.6006 164.099 92.3283 166.303 98.0454V98.0471C166.373 98.2309 166.444 98.4111 166.515 98.5967C168.593 103.989 170.692 109.371 172.814 114.741V114.743C172.88 114.911 172.946 115.077 173.013 115.243C173.607 116.749 174.204 118.251 174.8 119.757C177.817 127.337 180.873 134.901 183.975 142.443Z" fill="#212333"/>
</g>
<path d="M159.726 80.9559C161.523 77.141 163.322 73.3225 165.051 69.4737C164.94 69.3524 164.825 69.2328 164.711 69.1133C162.988 72.9496 161.197 76.7592 159.407 80.5598C156.074 79.6801 152.787 78.6416 149.553 77.4443C149.558 77.6103 149.561 77.7816 149.568 77.9475C152.817 79.1466 156.12 80.1869 159.469 81.063C159.561 81.0862 159.683 81.0487 159.726 80.9559Z" fill="#212333"/>
<path d="M166.588 98.5189C169.25 92.8679 171.911 87.2062 174.361 81.4499C174.264 81.2929 174.163 81.1359 174.064 80.9824C171.609 86.7619 168.941 92.4468 166.267 98.1228C161.18 96.7809 156.198 95.0662 151.357 92.9892C151.396 93.1766 151.436 93.3604 151.475 93.5477C156.3 95.6015 161.265 97.2984 166.33 98.6259C166.422 98.6491 166.543 98.6117 166.588 98.5189Z" fill="#212333"/>
<path d="M181.435 95.6543C178.765 102.108 175.796 108.435 172.822 114.745C167.173 113.255 161.649 111.303 156.307 108.905C156.393 109.115 156.482 109.324 156.574 109.535C161.854 111.876 167.308 113.789 172.885 115.248C172.977 115.271 173.098 115.234 173.143 115.139C176.079 108.907 179.018 102.656 181.669 96.2877C181.593 96.0754 181.513 95.8648 181.435 95.6543Z" fill="#212333"/>
<path d="M83.0401 235.227C82.8318 235.149 82.6252 235.069 82.4169 234.99C82.3266 234.799 82.2346 234.612 82.1426 234.421C74.2867 218.182 66.337 201.989 58.2988 185.842C51.5089 172.206 44.6565 158.606 37.7363 145.038C37.7485 144.994 37.7589 144.947 37.7728 144.904C37.9481 144.977 38.1235 145.052 38.2971 145.127C41.5818 151.565 44.8492 158.012 48.1044 164.466C56.2207 180.57 64.2485 196.721 72.186 212.921C75.8231 220.346 79.4429 227.78 83.0401 235.227Z" fill="#32303A"/>
<path d="M54.9052 154.828C54.4659 157.073 53.9902 159.307 53.4937 161.537C52.9329 164.057 52.3409 166.567 51.7368 169.076C51.5823 169.715 51.485 170.532 50.6777 170.48C50.1673 170.446 49.6204 170.143 49.1448 169.97C48.5944 169.767 48.0423 169.563 47.4937 169.358C43.3427 167.806 39.2194 166.166 35.1309 164.435C35.1309 164.269 35.1343 164.101 35.1361 163.935C35.2038 163.964 35.2732 163.992 35.3427 164.023C39.5805 165.812 43.8566 167.509 48.1656 169.108C48.8079 169.347 49.4486 169.588 50.0944 169.816C50.5406 169.977 50.7645 170.18 51.1552 169.542C51.2819 169.335 51.3097 168.898 51.367 168.658C51.6274 167.577 51.8861 166.492 52.1378 165.409C52.6691 163.141 53.1847 160.87 53.6673 158.593C53.9573 157.237 54.235 155.879 54.4972 154.518C54.6326 154.621 54.768 154.725 54.9052 154.828Z" fill="#32303A"/>
<path d="M66.4909 165.705C65.8451 169.142 65.1853 172.577 64.4544 175.994C63.826 178.931 63.1228 181.853 62.2669 184.726C62.0517 185.447 61.8277 186.163 61.5933 186.873C61.4249 187.38 61.2982 187.963 61.0135 188.42C60.4388 189.346 59.1662 188.82 58.3225 188.679C51.4926 187.535 44.6628 186.391 37.8312 185.246C37.786 185.081 37.7409 184.915 37.6992 184.749C39.1784 184.997 40.6558 185.244 42.135 185.492C47.8225 186.446 53.5082 187.397 59.194 188.35C59.8138 188.456 60.5569 188.432 60.8155 187.744C60.9388 187.417 61.043 187.08 61.1523 186.748C61.3711 186.084 61.5812 185.417 61.7808 184.746C62.1836 183.408 62.5534 182.055 62.8954 180.699C63.5916 177.932 64.1853 175.135 64.7357 172.334C65.201 169.981 65.6593 167.629 66.1124 165.273C66.2392 165.416 66.3659 165.561 66.4909 165.705Z" fill="#32303A"/>
<path d="M76.6393 180.472C75.714 185.416 74.806 190.368 73.7556 195.283C73.1272 198.22 72.4258 201.141 71.5681 204.016C71.3529 204.737 71.1306 205.451 70.8963 206.162C70.7279 206.669 70.5994 207.253 70.3164 207.709C69.7418 208.636 68.4674 208.109 67.6254 207.968C60.4032 206.758 53.181 205.549 45.9588 204.339C45.8529 204.164 45.7504 203.989 45.6445 203.812C47.5751 204.135 49.5056 204.458 51.4362 204.781C57.1237 205.736 62.8095 206.687 68.4952 207.64C69.1168 207.743 69.8581 207.722 70.1185 207.031C70.2418 206.707 70.3442 206.369 70.4553 206.038C70.6723 205.374 70.8824 204.706 71.0838 204.036C71.4848 202.695 71.8546 201.345 72.1949 199.989C72.8945 197.219 73.4848 194.423 74.0386 191.624C74.8112 187.705 75.5681 183.783 76.3129 179.861C76.4223 180.065 76.5299 180.268 76.6393 180.472Z" fill="#32303A"/>
<path d="M299.237 122.413C297.758 120.527 295.558 119.41 293.202 119.352L105.241 114.678C101.32 114.578 97.9386 117.38 97.1972 121.341L75.1278 239.107C74.6816 241.486 75.2736 243.934 76.7511 245.822C78.2285 247.708 80.4281 248.825 82.784 248.882L270.746 253.559C274.664 253.655 278.05 250.854 278.791 246.896L300.86 129.126C301.307 126.749 300.713 124.301 299.237 122.413Z" fill="#F0E7E1"/>
<path d="M133.271 129.026L133.176 129.547L110.393 251.519C110.228 251.482 110.061 251.45 109.895 251.418L132.662 129.535L132.759 129.016L133.271 129.026Z" fill="#C4A8A3"/>
<path d="M152.55 115.854L150.012 129.444L149.914 129.963L149.4 129.949L149.498 129.431L152.034 115.84L152.55 115.854Z" fill="#C4A8A3"/>
<path d="M201.862 117.079L199.326 130.67L199.229 131.188L198.715 131.175L198.812 130.656L201.35 117.066L201.862 117.079Z" fill="#C4A8A3"/>
<path d="M250.759 118.296L248.222 131.885L248.125 132.404L247.611 132.392L247.709 131.873L250.247 118.281L250.759 118.296Z" fill="#C4A8A3"/>
<path d="M299.458 133.683L96.9497 128.644C96.6233 128.637 96.6355 128.118 96.9619 128.125L299.471 133.162C299.797 133.169 299.785 133.69 299.458 133.683Z" fill="#C4A8A3"/>
<path d="M103.656 119.592C102.34 119.559 101.203 120.5 100.953 121.831L78.4324 242.008C78.2797 242.82 78.4741 243.623 78.9793 244.265C79.4828 244.907 80.2033 245.273 81.0054 245.293L272.816 250.064C274.134 250.098 275.269 249.156 275.521 247.825L298.042 127.648C298.193 126.836 297.998 126.035 297.495 125.391C296.99 124.748 296.271 124.383 295.467 124.363L103.656 119.592ZM272.684 255.69L80.8734 250.921C78.4706 250.86 76.2258 249.721 74.7172 247.794C73.2102 245.869 72.6043 243.371 73.0609 240.944L95.5817 120.767C96.3387 116.726 99.7901 113.867 103.79 113.967L295.601 118.739C298.004 118.798 300.247 119.934 301.755 121.861C303.264 123.787 303.868 126.285 303.413 128.713L280.893 248.89C280.136 252.93 276.682 255.79 272.684 255.69Z" fill="#32303A"/>
<path d="M121.784 139.541L105.203 139.063C104.916 139.054 104.666 139.257 104.605 139.545L104.17 141.677C104.092 142.052 104.364 142.405 104.736 142.416L121.317 142.896C121.604 142.903 121.854 142.699 121.913 142.412L122.35 140.281C122.428 139.907 122.156 139.552 121.784 139.541Z" fill="#C4A8A3"/>
<path d="M120.491 146.066L103.91 145.586C103.623 145.579 103.373 145.781 103.314 146.068L102.877 148.2C102.799 148.575 103.071 148.93 103.443 148.939L120.026 149.419C120.311 149.426 120.561 149.223 120.621 148.935L121.057 146.805C121.135 146.43 120.863 146.075 120.491 146.066Z" fill="#C4A8A3"/>
<path d="M119.013 153.279L102.431 152.799C102.146 152.79 101.896 152.994 101.836 153.283L101.398 155.413C101.32 155.786 101.593 156.143 101.966 156.152L118.547 156.632C118.834 156.639 119.084 156.436 119.143 156.148L119.58 154.018C119.659 153.643 119.386 153.288 119.013 153.279Z" fill="#C4A8A3"/>
<path d="M117.239 160.443L100.657 159.963C100.373 159.956 100.123 160.159 100.062 160.447L99.6243 162.577C99.5479 162.952 99.8187 163.307 100.192 163.316L116.774 163.796C117.06 163.805 117.31 163.601 117.369 163.312L117.807 161.182C117.885 160.809 117.612 160.452 117.239 160.443Z" fill="#C4A8A3"/>
<path d="M265.337 237.941L128.066 235.352L140.924 156.418L278.197 159.009L265.337 237.941Z" fill="#C4A8A3"/>
<path d="M138.532 141.774C138.381 142.882 137.404 143.763 136.352 143.742C135.298 143.722 134.569 142.807 134.721 141.697C134.874 140.589 135.85 139.707 136.902 139.727C137.956 139.75 138.685 140.664 138.532 141.774Z" fill="#C4A8A3"/>
<path d="M158.242 143.626L143.561 143.362C143.23 143.355 142.98 143.037 143.04 142.698L143.386 140.771C143.433 140.51 143.651 140.325 143.907 140.33L158.589 140.594C158.919 140.6 159.169 140.921 159.108 141.258L158.763 143.187C158.716 143.447 158.497 143.631 158.242 143.626Z" fill="#C4A8A3"/>
<path d="M174.628 149.57L142.708 148.938C142.376 148.933 142.126 148.613 142.187 148.274L142.532 146.347C142.579 146.087 142.798 145.901 143.053 145.906L174.973 146.538C175.305 146.543 175.555 146.863 175.494 147.202L175.149 149.129C175.102 149.389 174.883 149.573 174.628 149.57Z" fill="#C4A8A3"/>
<path d="M213.068 100.949C213.882 99.4714 214.393 97.8602 214.058 96.1044C213.62 93.8026 211.877 92.0218 209.709 91.4294C209.516 91.2189 209.311 91.0137 209.098 90.8192C208.556 90.1162 207.941 89.4809 207.346 88.9421C205.37 87.1506 202.948 85.9016 200.393 85.2663C197.469 84.5383 194.396 84.6079 191.467 85.2663C188.566 85.9158 185.632 87.0935 183.311 89.0384C181.186 90.8174 179.671 93.2941 178.969 96.008C178.948 96.0437 178.929 96.0794 178.908 96.1151C178.747 96.372 178.539 96.579 178.297 96.7289C177.934 97.1643 177.526 97.5515 177.263 98.0939C176.962 98.7077 176.789 99.3733 176.731 100.055C176.598 101.63 177.125 103.238 178.236 104.341C178.353 104.457 180.162 105.313 181.101 105.436C181.839 105.531 182.577 105.433 183.316 105.454C184.094 105.476 184.842 105.668 185.549 106.007C187.905 107.139 189.818 109.369 191.367 111.46C192.926 113.566 194.037 115.955 195.535 118.098C196.164 118.997 196.9 119.845 197.825 120.43C198.86 121.087 200.044 121.303 201.243 121.34C203.278 121.401 205.721 121.337 207.384 119.961C208.268 119.231 208.74 118.178 208.926 117.044C209.028 116.424 209.054 115.795 209.059 115.166C209.063 114.87 209.035 114.563 209.061 114.269C209.106 113.741 209.377 113.573 209.816 113.361C211.252 112.667 211.657 111.132 211.676 109.617C211.686 109.612 211.697 109.608 211.707 109.601C212.707 109.105 213.329 108.258 213.757 107.223C214.62 105.138 214.313 102.78 213.068 100.949Z" fill="#32303A"/>
<path d="M186.562 239.784C188.014 239.649 189.469 239.563 190.925 239.554C191.682 239.55 192.523 239.513 193.34 239.565C194.106 239.04 194.87 238.516 195.727 238.162C197.061 237.614 198.597 237.572 200.014 237.629C201.375 237.682 202.724 237.791 204.085 237.807C204.899 237.818 205.714 237.834 206.526 237.8C206.891 237.784 207.255 237.763 207.616 237.722C207.587 237.722 207.943 237.668 207.998 237.657C208.219 237.611 208.436 237.557 208.653 237.5C208.918 237.431 209.184 237.404 209.439 237.416L209.455 236.927L215.689 237.07L247.594 237.636L245.741 231.671C244.753 228.507 243.764 225.342 242.776 222.176C242.281 220.594 241.788 219.013 241.292 217.432C241.16 217 241.024 216.568 240.889 216.136C240.821 215.92 240.755 215.706 240.689 215.489C240.601 215.214 240.609 215.126 240.385 214.978C240.207 214.862 239.957 214.816 239.708 214.787C239.594 214.491 239.476 214.195 239.354 213.899C238.927 212.85 238.472 211.809 237.99 210.787C237.571 209.898 237.153 208.995 236.575 208.207C235.375 206.569 233.576 206.141 231.708 205.889C229.585 205.607 227.458 205.352 225.333 205.118C219.276 204.456 213.167 204.017 207.071 204.151C204.531 204.206 201.995 204.362 199.465 204.642C194.689 205.168 189.965 206.148 185.399 207.714C185.306 207.746 185.241 207.823 185.234 207.928C184.693 218.333 184.365 228.748 184.253 239.165C184.25 239.42 184.245 239.7 184.234 239.998C185.017 239.918 185.797 239.856 186.562 239.784Z" fill="#212333"/>
<path d="M179.1 169.989C178.037 172.864 176.237 177.385 175.128 180.244C174.043 183.033 172.987 185.836 171.845 188.604C169.753 193.664 167.214 198.771 163.081 202.58C159.313 206.053 154.178 208.504 148.855 207.948C146.051 207.655 143.454 206.402 142.056 203.958C140.859 201.863 139.032 199.486 139.079 197.134C139.204 191.027 141.228 184.808 142.841 178.943C148.126 159.708 158.541 150.458 162.234 146.559C166.603 141.949 180.819 137.199 181.473 136.924C182.286 139.247 178.681 142.908 179.886 145.044C181.244 147.451 181.984 150.149 182.239 152.869C182.794 158.748 181.124 164.511 179.1 169.989Z" fill="#D892C0"/>
<path d="M243.507 147.236C242.255 143.644 239.265 141.337 236 139.802C235.232 139.442 232.554 138.375 228.703 137.176C228.559 137.131 228.411 137.085 228.264 137.04C222.193 135.179 213.396 133.045 204.555 132.729C193.132 132.322 182.378 136.474 179.015 137.711H179.014C178.915 137.747 178.825 137.781 178.741 137.811C178.665 137.838 178.592 137.864 178.517 137.893C175.566 138.964 172.595 140.166 170.075 142.113C167.562 144.051 165.745 146.738 164.623 149.737C162.062 156.579 181.127 206.924 182.175 213.585L201.486 193.504L225.517 215.112C227.144 209.102 241.491 163.605 242.856 159.417C244.123 155.528 244.892 151.213 243.507 147.236Z" fill="#D892C0"/>
<path d="M204.556 132.729C200.69 132.592 196.902 132.977 193.45 133.593C193.023 136.244 192.764 138.924 192.681 141.613C192.478 148.178 193.36 154.691 195.108 161C196.101 164.583 197.332 168.087 198.658 171.551C199.455 170.507 200.214 169.433 200.933 168.33C204.52 162.838 207.169 156.757 209.339 150.547C210.426 147.448 211.393 144.306 212.299 141.146C212.999 138.712 213.77 136.237 214.176 133.716C211.065 133.211 207.813 132.847 204.556 132.729Z" fill="white"/>
<path d="M212.485 103.46C212.574 106.904 211.74 109.814 209.895 112.883C209.046 114.302 208.091 115.811 207.135 117.537C206.827 118.09 206.588 118.484 206.359 118.83C205.82 119.657 205.32 120.247 204.065 122.148C203.317 123.281 201.898 123.728 200.76 124.432C199.122 120.62 197.261 116.928 194.265 114.043C191.834 111.704 189.006 109.643 186.181 107.848C184.26 106.626 182.221 105.501 180.07 104.738C180.152 102.918 180.249 101.1 180.523 99.2991C180.662 98.3641 180.855 97.472 181.11 96.6244C181.11 96.6208 181.114 96.6209 181.114 96.6209C181.482 95.3736 181.749 94.0657 182.418 93.0433C183.584 91.2589 185.489 90.017 187.817 89.1249C192.319 87.403 196.53 87.7688 200.93 88.6895C206.914 89.9403 208.641 92.1957 210.515 95.743C211.668 97.9234 212.423 101.078 212.485 103.46Z" fill="#32303A"/>
<path d="M218.996 170.829C217.822 171.566 216.562 172.023 215.348 172.02C214.241 172.016 213.232 171.673 212.31 171.243C210.581 170.439 209.058 169.315 207.376 168.437C206.555 168.008 205.692 167.639 204.767 167.402C204.352 167.295 203.916 167.243 203.489 167.163C203.149 167.097 202.861 167.023 202.779 166.647C202.706 166.313 202.791 165.946 202.847 165.576C203.296 162.652 200.31 158.621 201.354 155.709C208.046 156.888 217.138 162.497 222.741 165.99C222.927 166.106 223.126 166.21 223.3 166.342C223.357 166.383 223.406 166.431 223.449 166.481C222.152 168.144 220.741 169.732 218.996 170.829Z" fill="#FFA47A"/>
<path d="M179.878 107.18C179.992 109.967 180.017 113.347 180.489 116.088C180.923 118.609 181.538 120.331 182.97 122.85C185.19 126.753 187.932 128.979 191.602 128.79C196.593 128.531 199.631 126.235 200.821 124.879C204.732 120.42 205.491 114.282 205.935 113.263C207.649 109.336 211.362 105.092 210.442 100.79C209.713 97.3788 207.977 93.8315 204.989 92.0133C198.902 88.3072 192.779 89.1119 191.022 89.7579C188.746 90.4198 184.763 91.7974 183.104 93.2659C181.984 94.2508 181.235 95.6372 180.748 97.2396C179.86 100.159 179.741 103.89 179.878 107.18Z" fill="#FFA47A"/>
<path d="M196.054 135.386C198.592 135.403 201.128 135.421 203.658 135.143C203.703 135.138 203.739 135.134 203.772 135.13C203.798 135.127 203.828 135.121 203.864 135.114C204.048 135.084 204.234 135.055 204.42 135.022C204.786 134.956 205.151 134.881 205.515 134.795C206.269 134.618 207.015 134.395 207.741 134.117C207.776 134.103 207.967 134.022 208.071 133.98C208.173 133.93 208.307 133.867 208.335 133.853C208.699 133.671 209.054 133.475 209.401 133.26C209.467 133.221 209.531 133.178 209.595 133.136L206.508 119.623L206.18 118.181C205.647 115.851 205.118 113.526 204.583 111.195C203.66 111.889 202.731 112.58 201.793 113.263C199.224 115.133 195.054 117.449 192.326 119.062L195.179 131.553L196.054 135.386Z" fill="#FFA47A"/>
<path d="M188.08 117.878C188.228 118.983 189.622 120.161 191.959 119.92C193.945 119.713 195.563 118.416 195.644 117.275C195.561 117.281 188.101 117.877 188.08 117.878Z" fill="white"/>
<path d="M186.215 101.895C186.665 102.109 187.024 102.564 187.179 103.067C187.325 103.406 187.344 103.797 187.18 104.188C186.863 104.946 186.151 105.094 185.427 105.098C184.634 105.1 183.75 105.328 183.003 104.944C182.351 104.607 182.104 103.865 182.321 103.151C182.814 101.533 184.899 101.263 186.215 101.895Z" fill="#32303A"/>
<path d="M195.072 101.326C195.513 101.534 195.865 101.982 196.018 102.473C196.16 102.808 196.179 103.19 196.018 103.576C195.709 104.321 195.009 104.464 194.297 104.466C193.518 104.47 192.651 104.694 191.921 104.316C191.278 103.988 191.035 103.256 191.25 102.557C191.733 100.969 193.78 100.705 195.072 101.326Z" fill="#32303A"/>
<path d="M205.208 91.6971C199.12 87.9911 192.502 88.5299 190.745 89.1776C188.47 89.8396 184.49 91.5776 182.828 93.0443C182.769 93.0943 182.712 93.1496 182.655 93.2049C181.658 94.2006 181.21 95.7208 180.75 97.2393C180.868 97.0162 180.99 96.8128 181.109 96.6237C181.109 96.6201 181.113 96.6201 181.113 96.6201C182.964 93.7027 185.382 93.7241 187.5 93.4047C189.726 93.0675 193.108 92.8659 195.205 93.7348C198.231 94.9874 198.7 95.9242 199.733 98.9005C200.387 100.785 199.474 104.974 201.825 106.996C202.648 107.703 205.113 110.459 205.842 111.277C206.09 111.557 205.047 113.041 205.247 115.277C205.399 116.94 206.024 118.241 206.358 118.83C206.587 118.484 206.826 118.089 207.134 117.536C208.09 115.811 209.045 114.301 209.894 112.883C211.241 109.143 211.793 104.507 210.969 100.667C210.24 97.2536 208.194 93.5154 205.208 91.6971Z" fill="#32303A"/>
<path d="M201.199 108.743C201.26 108.111 201.461 107.501 201.871 106.957C202.754 105.786 204.327 105.613 205.661 106.114C207.063 106.643 207.751 108.17 207.701 109.558C207.636 111.293 206.55 112.501 205.088 113.243C201.911 114.859 199.911 111.526 201.199 108.743Z" fill="#FFA47A"/>
<path d="M190.104 114.857C189.467 114.575 188.778 114.334 188.203 113.928C187.463 113.401 187.35 112.627 187.673 111.79C188.258 110.284 189.09 108.842 189.797 107.392C189.89 107.199 189.611 107.02 189.517 107.215L188.146 110.025C187.776 110.784 187.241 111.617 187.161 112.484C187.008 114.12 188.854 114.668 190.008 115.18C190.201 115.266 190.295 114.943 190.104 114.857Z" fill="#B9643C"/>
<path d="M192.071 113.831C191.491 113.467 190.864 113.201 190.175 113.326C189.966 113.365 190.046 113.692 190.253 113.654C190.854 113.546 191.399 113.803 191.9 114.118C192.079 114.233 192.251 113.945 192.071 113.831Z" fill="#B9643C"/>
<path d="M198.463 125.105C197.303 126.255 195.973 127.17 194.499 127.837C194.307 127.925 194.466 128.219 194.659 128.132C196.157 127.455 197.51 126.519 198.689 125.35C198.841 125.2 198.614 124.956 198.463 125.105Z" fill="#B9643C"/>
<path d="M205.225 107.649C204.437 107.483 203.676 107.633 203.018 108.115C202.888 108.209 202.923 108.415 203.095 108.429C204.204 108.522 204.985 110.306 204.194 111.157C204.048 111.314 204.274 111.559 204.419 111.402C205.319 110.434 204.676 108.639 203.525 108.192C204.02 107.935 204.565 107.853 205.131 107.972C205.336 108.013 205.433 107.69 205.225 107.649Z" fill="#B9643C"/>
<path d="M265.517 195.523C265.01 188.762 262.987 182.094 260.61 175.64C258.254 169.256 254.583 158.932 251.355 152.874C251.043 152.283 250.714 151.716 250.378 151.172C250.293 151.033 250.206 150.897 250.119 150.761C246.701 145.43 242.249 142.302 237.775 140.314C232.366 137.91 228.654 138.051 222.997 137.191C222.142 137.882 221.523 138.804 221.096 139.845C220.062 142.357 220.027 145.299 219.855 148.042C219.64 151.421 219.496 154.819 219.598 158.234C219.704 161.68 220.062 165.148 220.862 168.56C221.614 171.761 222.741 174.894 224.018 177.956C226.435 183.754 229.522 189.308 233.171 194.474C234.999 197.059 236.968 199.552 239.076 201.918C241.076 204.161 243.235 206.301 245.683 208.026C248.003 209.659 250.633 210.961 253.371 211.359C255.742 211.705 258.195 211.441 260.296 210.472C262.515 209.45 264.201 207.649 264.923 205.248C265.395 203.681 265.536 201.995 265.605 200.334C265.671 198.739 265.638 197.131 265.517 195.523Z" fill="#D892C0"/>
<path d="M191.914 150.351L187.299 152.83C187.292 152.846 187.283 152.86 187.271 152.876C185.365 155.387 183.459 157.899 181.658 160.492C180.78 161.755 179.927 163.036 179.115 164.344C178.709 164.999 178.311 165.659 177.926 166.326C177.539 166.999 177.044 167.723 176.99 168.53C176.931 169.411 177.424 170.218 177.818 170.962C178.193 171.667 178.572 172.368 178.952 173.068C179.716 174.47 180.49 175.865 181.275 177.254C182.848 180.03 184.467 182.774 186.131 185.494C186.287 185.752 185.893 185.988 185.735 185.733C184.151 183.14 182.606 180.523 181.103 177.882C179.776 175.546 178.462 173.198 177.219 170.816C176.759 169.934 176.363 168.999 176.62 167.986C176.882 166.947 177.577 165.993 178.118 165.093C180.585 160.982 183.452 157.151 186.339 153.345L183.714 154.755C182.478 155.419 181.247 156.084 180.011 156.744C179.33 157.107 178.424 157.603 177.735 156.982C177.11 156.413 177.212 155.326 177.195 154.559C177.165 153.192 177.169 151.823 177.207 150.453C177.322 146.236 177.766 142.036 178.518 137.893C178.592 137.864 178.665 137.838 178.742 137.811C178.825 137.781 178.915 137.747 179.014 137.711C178.101 142.677 177.629 147.726 177.629 152.787C177.629 153.625 177.625 154.469 177.669 155.308C177.683 155.619 177.691 155.95 177.802 156.247C178.077 156.967 178.802 156.809 179.337 156.571C180.771 155.929 182.143 155.071 183.528 154.325C186.261 152.858 188.995 151.39 191.728 149.923C191.99 149.782 192.174 150.214 191.914 150.351Z" fill="#32303A"/>
<path d="M228.704 137.177C228.683 137.564 228.659 137.949 228.631 138.335C228.383 141.782 227.926 145.219 227.409 148.63C227.135 150.434 226.838 152.233 226.504 154.024C226.268 155.302 226.093 157.129 225.241 158.159C224.438 159.129 223.162 158.528 222.251 158.08C220.827 157.375 219.482 156.51 218.192 155.57C217.489 155.057 216.8 154.52 216.119 153.974C217.584 156.67 219.046 159.367 220.511 162.063C221.185 163.305 221.883 164.538 222.53 165.796C223.062 166.829 223.525 167.931 223.536 169.118C223.56 171.611 221.214 172.937 219.588 174.384C215.527 177.992 211.688 181.856 208.081 185.939C207.883 186.166 207.558 185.83 207.758 185.607C209.673 183.437 211.652 181.33 213.697 179.291C215.47 177.524 217.291 175.809 219.155 174.145C220.089 173.313 221.095 172.537 221.991 171.662C223.032 170.647 223.279 169.305 222.902 167.901C222.563 166.631 221.845 165.485 221.225 164.343C220.584 163.162 219.942 161.982 219.301 160.801C217.994 158.394 216.688 155.985 215.381 153.578C215.341 153.503 215.345 153.432 215.372 153.371C215.109 153.157 214.846 152.939 214.584 152.724C213.319 151.68 212.044 150.643 210.94 149.415C210.741 149.194 211.062 148.86 211.263 149.082C212.369 150.309 213.642 151.346 214.907 152.392C216.201 153.457 217.501 154.517 218.869 155.484C220.022 156.299 221.22 157.051 222.482 157.673C223.416 158.132 224.579 158.649 225.149 157.399C225.447 156.738 225.621 156.005 225.78 155.298C226.47 152.276 226.895 149.164 227.317 146.091C227.727 143.11 228.112 140.076 228.265 137.041C228.412 137.086 228.56 137.132 228.704 137.177Z" fill="#32303A"/>
<path d="M247.578 237.658L215.559 237.098C212.852 227.739 209.326 214.607 206.994 204.018C205.498 197.22 204.515 191.407 204.614 188.17C207.508 188.473 214.114 188.727 217.008 189.03C218.972 189.233 220.932 189.439 222.892 189.644C224.611 189.822 232.199 191.346 233.911 191.626C235.554 191.896 237.225 192.37 238.477 193.428C239.521 194.313 240.113 195.473 240.477 196.644C240.734 197.461 247.39 222.149 251.597 237.749L247.578 237.658Z" fill="#D892C0"/>
<path d="M182.164 102.274C178.983 102.194 176.332 104.792 176.256 108.064C176.18 111.336 178.704 114.063 181.886 114.141C185.068 114.22 187.718 111.624 187.796 108.351C187.872 105.079 185.346 102.352 182.164 102.274ZM181.876 114.591C178.452 114.505 175.737 111.574 175.82 108.053C175.902 104.535 178.753 101.739 182.174 101.824C185.598 101.91 188.315 104.841 188.232 108.362C188.15 111.882 185.298 114.677 181.876 114.591Z" fill="#F5F1EE"/>
<path d="M197.019 102.604C193.838 102.528 191.187 105.124 191.109 108.396C191.033 111.669 193.559 114.395 196.739 114.474C199.92 114.552 202.571 111.956 202.649 108.684C202.726 105.411 200.199 102.685 197.019 102.604ZM196.729 114.923C193.307 114.84 190.59 111.906 190.672 108.386C190.757 104.865 193.607 102.071 197.029 102.158C200.451 102.242 203.168 105.174 203.087 108.694C203.002 112.213 200.151 115.009 196.729 114.923Z" fill="#F5F1EE"/>
<path d="M191.004 106.854C189.99 106.295 188.898 106.493 187.871 106.907C187.612 107.011 187.714 107.45 187.977 107.343C188.881 106.979 189.867 106.738 190.773 107.235C191.022 107.371 191.251 106.991 191.004 106.854Z" fill="#F5F1EE"/>
<path d="M212.764 104.066C212.182 103.294 211.448 102.505 210.578 102.078C209.721 101.659 208.917 101.937 208.064 102.237C205.983 102.969 203.936 103.822 201.922 104.732C201.663 104.848 201.877 105.24 202.134 105.124C203.945 104.307 205.781 103.549 207.644 102.864C208.521 102.542 209.524 102.032 210.429 102.5C211.233 102.915 211.905 103.652 212.446 104.377C212.618 104.605 212.934 104.293 212.764 104.066Z" fill="#F5F1EE"/>
<path d="M215.49 81.9542C216.792 79.4507 217.076 76.2943 215.701 73.7569C214.457 71.4605 211.79 69.9848 209.233 70.3667C208.002 70.5487 206.708 71.2107 206.097 72.3509C205.108 69.7832 201.316 70.4577 199.353 71.4194C196.731 72.6988 194.781 75.1541 194.13 78.0697C193.767 79.6863 193.816 81.3582 194.236 82.9516C192.733 83.114 191.273 84.2595 191.094 85.8744C190.983 86.8629 191.405 87.8603 192.122 88.4902C191.846 88.6883 191.905 88.8881 191.945 89.2468C192.038 90.1122 192.366 90.9383 192.83 91.661C193.844 93.2383 195.478 94.2233 197.186 94.8121C199.028 95.4491 200.998 95.74 202.938 95.7275C204.797 95.7168 206.769 95.483 208.517 94.7943C209.981 94.2161 211.427 92.7316 210.887 91.0382C212.137 90.908 213.354 90.5368 214.46 89.9195C215.528 89.3253 216.635 88.5045 217.248 87.3982C217.885 86.2455 217.665 85.0268 217.106 83.8902C216.766 83.1979 216.297 82.138 215.49 81.9542Z" fill="#32303A"/>
<path d="M191.238 87.7752C188.618 87.9216 186.073 89.1867 184.11 90.9282C182.986 91.9256 182.011 93.0836 181.089 94.2756C180.167 95.4711 179.311 96.729 178.841 98.1868C178.719 98.194 178.589 98.2993 178.61 98.4616C178.775 99.6839 180.049 100.041 181.075 99.8409C182.139 99.6322 183.059 98.9345 183.622 97.9959C185.993 98.8703 188.653 98.608 190.856 97.3625C191.901 96.7701 192.841 95.9761 193.617 95.0464C194.394 94.115 195.139 93.0016 195.394 91.7829C195.95 89.1385 193.516 87.6468 191.238 87.7752Z" fill="#32303A"/>
<path d="M211.015 167.67L147.614 164.414L144.416 241.556L209.282 243.169L211.015 167.67Z" fill="white"/>
<path d="M169.063 165.512C169.063 165.512 168.688 159.479 168.235 158.371C167.823 157.355 167.108 156.331 166.073 155.926C165.492 155.698 164.827 155.733 164.301 156.03C164.192 155.8 164.028 155.6 163.801 155.439C162.851 154.772 161.58 155.043 160.683 155.687C160.596 155.318 160.409 154.977 160.098 154.722C159.58 154.294 158.83 154.393 158.226 154.538C157.818 154.636 157.435 154.795 157.075 155.002C156.464 153.73 154.778 154.112 153.799 154.679C151.697 155.894 150.501 158.042 149.886 160.358C149.084 162.325 148.589 164.475 148.942 166.609C149.11 167.631 149.466 168.624 149.978 169.517C150.376 170.212 150.955 171.209 151.806 171.336C152.481 171.437 153.06 170.949 153.322 170.342C153.575 170.888 153.964 171.352 154.497 171.582C155.492 172.014 156.086 171.186 156.396 170.317C156.627 171.293 157.422 172.114 158.497 171.917C159.674 171.703 160.072 170.517 160.226 169.419C160.389 169.874 160.692 170.233 161.237 170.276C162.45 170.37 163.112 168.907 163.485 167.954C163.688 167.441 164.061 165.799 164.16 165.264L169.063 165.512Z" fill="#FFA47A"/>
<path d="M163.408 156.915C162.264 158.688 161.108 160.478 160.323 162.457C159.948 163.401 159.865 164.325 159.809 165.335C159.745 166.509 159.707 167.685 159.689 168.861C159.686 169.15 160.122 169.162 160.125 168.871C160.143 167.769 160.177 166.668 160.235 165.567C160.29 164.521 160.354 163.563 160.742 162.587C161.511 160.646 162.658 158.89 163.78 157.152C163.936 156.909 163.564 156.675 163.408 156.915Z" fill="#B9643C"/>
<path d="M160.12 155.886C159.434 156.914 158.743 157.938 158.059 158.965C157.46 159.867 156.887 160.796 156.62 161.865C156.354 162.934 156.347 164.053 156.327 165.152C156.304 166.444 156.309 167.737 156.337 169.029C156.344 169.318 156.781 169.331 156.775 169.042C156.748 167.859 156.742 166.677 156.757 165.494C156.775 164.331 156.757 163.128 157.038 161.994C157.304 160.93 157.889 160.016 158.486 159.121C159.153 158.122 159.821 157.122 160.492 156.123C160.651 155.884 160.276 155.648 160.12 155.886Z" fill="#B9643C"/>
<path d="M156.889 155.533C157.033 155.285 156.661 155.048 156.515 155.298C155.309 157.385 154.13 159.609 153.371 161.919C152.566 164.369 153.265 166.789 153.323 169.287C153.33 169.576 153.767 169.588 153.76 169.297C153.705 166.849 153 164.451 153.79 162.05C154.534 159.774 155.698 157.589 156.889 155.533Z" fill="#B9643C"/>
<path d="M209.98 162.011C210 161.882 210.009 161.752 210.004 161.62C209.971 160.858 209.473 160.357 208.75 160.259C207.655 160.109 206.544 160.521 205.681 161.231C205.881 160.71 206.049 160.18 206.15 159.643C206.323 158.722 206.209 157.737 205.497 157.082C204.835 156.476 204.07 156.565 203.351 157.007C203.065 157.182 202.782 157.368 202.519 157.575C202.551 156.792 202.325 156.06 201.556 155.773C200.535 155.394 199.384 155.944 198.613 156.729C197.938 155.955 196.391 156.474 195.657 156.938C194.243 157.834 193.188 159.365 192.469 160.874C191.719 162.45 191.296 164.191 191.256 165.949C191.226 167.248 191.337 169.678 193.117 169.674C193.361 169.674 193.573 169.601 193.761 169.484C193.754 169.723 193.766 169.964 193.804 170.203C193.957 171.163 194.721 172.135 195.763 171.964C196.219 171.889 196.561 171.569 196.827 171.2C196.953 171.023 197.072 170.84 197.184 170.651C197.228 171.307 197.424 171.983 197.993 172.321C198.927 172.881 199.882 172.076 200.407 171.323C200.7 170.9 200.985 170.469 201.257 170.03C201.391 171.023 202.033 171.969 203.132 171.875C203.775 171.821 204.224 171.314 204.639 170.859C205.172 170.276 205.705 169.689 206.221 169.087C207.224 167.92 208.176 166.693 208.927 165.339C209.415 164.459 210.209 163.115 209.98 162.011Z" fill="#FFA47A"/>
<path d="M198.341 157.086C195.921 160.441 194.377 164.391 193.848 168.531C193.816 168.77 194.179 168.775 194.21 168.54C194.731 164.466 196.269 160.582 198.65 157.282C198.789 157.09 198.48 156.895 198.341 157.086Z" fill="#B9643C"/>
<path d="M202.137 157.686C199.372 161.271 197.505 165.536 196.726 170.039C196.686 170.273 197.031 170.384 197.071 170.146C197.847 165.669 199.698 161.446 202.446 157.883C202.59 157.695 202.28 157.501 202.137 157.686Z" fill="#B9643C"/>
<path d="M210.511 162.976C209.218 164.455 208.03 166.026 206.958 167.681C206.801 167.922 207.173 168.158 207.329 167.917C208.381 166.293 209.543 164.753 210.813 163.303C211.001 163.089 210.701 162.762 210.511 162.976Z" fill="#B9643C"/>
<path d="M205.806 160.057C203.869 162.842 202.327 165.893 201.216 169.125C201.124 169.398 201.544 169.526 201.636 169.253C202.734 166.057 204.261 163.047 206.18 160.292C206.345 160.057 205.971 159.821 205.806 160.057Z" fill="#B9643C"/>
<path d="M242.03 182.021C241.126 182.913 240.221 183.807 239.317 184.701C237.581 186.416 235.844 188.132 234.11 189.847C229.429 184.214 224.633 178.684 219.718 173.267C218.195 171.59 216.659 169.923 215.115 168.267C216.308 166.727 217.37 165.093 218.299 163.369C225.36 167.338 231.995 172.036 238.506 176.884C240.232 178.17 241.952 179.469 243.671 180.766C243.028 181.002 242.534 181.523 242.03 182.021Z" fill="#FFA47A"/>
<path d="M231.643 167.786C231.239 167.125 230.392 166.54 229.824 166.028C228.607 164.931 227.327 163.898 225.992 162.959C225.541 162.641 225.142 162.384 224.595 162.593C223.98 162.83 223.538 163.469 223.109 163.944C220.779 166.526 218.465 169.131 216.418 171.961C215.992 172.546 215.265 173.301 215.069 174.022C214.89 174.678 215.388 175.171 215.756 175.638C216.949 177.152 218.218 178.599 219.548 179.983C219.755 180.199 220.06 179.849 219.854 179.634C219.841 179.621 219.829 179.609 219.817 179.594C222.4 177.064 224.958 174.502 227.6 172.036C228.253 171.426 228.914 170.824 229.583 170.234C230.201 169.691 230.926 169.204 231.494 168.612C231.753 168.341 231.85 168.121 231.643 167.786Z" fill="white"/>
<path d="M264.582 197.518C261.702 186.577 243.135 172.405 233.326 165.727C230.563 168.837 227.188 171.411 224.133 174.183C222.159 175.972 220.169 177.742 218.176 179.511C217.628 179.998 217.088 180.531 216.539 181.061C220.239 187.537 229.924 203.647 236.834 210.005C239.951 212.871 243.35 216.116 247.997 216.866C252.428 217.579 258.147 216.004 261.734 211.482C265.319 206.963 265.68 201.688 264.582 197.518Z" fill="#D892C0"/>
<path d="M166.641 158.694C165.749 159.974 164.948 161.314 164.238 162.709C164.108 162.964 164.48 163.202 164.61 162.945C165.32 161.549 166.122 160.211 167.014 158.93C167.177 158.694 166.806 158.461 166.641 158.694Z" fill="#B9643C"/>
<path d="M194.734 87.0032C194.663 86.7106 194.224 86.8337 194.295 87.1281C194.663 88.6501 195.179 90.7967 194.517 92.2955C194.396 92.5685 194.791 92.8094 194.913 92.5328C195.637 90.893 195.142 88.6787 194.734 87.0032Z" fill="#3E4156"/>
<path d="M210.29 89.9402C207.995 87.5135 204.594 86.475 201.386 87.1941C200.184 84.5729 197.521 82.8831 194.7 82.9491C194.408 82.9563 194.406 83.4273 194.7 83.4202C197.429 83.356 199.955 85.019 201.061 87.5831C201.101 87.6776 201.228 87.7133 201.318 87.6901C204.424 86.9246 207.74 87.9203 209.967 90.2738C210.172 90.4897 210.495 90.1579 210.29 89.9402Z" fill="#3E4156"/>
<path d="M225.273 179.363C223.312 179.363 223.308 182.5 225.273 182.5C227.237 182.5 227.239 179.363 225.273 179.363Z" fill="#32303A"/>
<path d="M214.145 209.002C212.183 209.002 212.179 212.139 214.145 212.139C216.106 212.139 216.11 209.002 214.145 209.002Z" fill="#32303A"/>
<path d="M202.252 148.156C200.29 148.156 200.287 151.293 202.252 151.293C204.214 151.293 204.217 148.156 202.252 148.156Z" fill="#3E4156"/>
<path d="M263.519 190.736C261.456 188.816 259.359 186.941 257.222 185.114C249.609 178.608 241.51 172.714 233.026 167.474C232.772 167.319 233.003 166.912 233.255 167.069C234.507 167.841 235.752 168.628 236.988 169.429C240.804 162.808 245.201 156.559 250.12 150.762C250.206 150.897 250.293 151.033 250.378 151.172C245.507 156.923 241.156 163.12 237.373 169.681C238.397 170.348 239.418 171.026 240.432 171.713C248.68 177.32 256.51 183.577 263.842 190.401C264.061 190.604 263.736 190.938 263.519 190.736Z" fill="#32303A"/>
<path d="M242.599 212.668C235.12 205.147 228.49 196.748 222.887 187.66C221.306 185.093 219.809 182.471 218.392 179.804C218.25 179.538 217.856 179.775 217.997 180.043C223.009 189.477 229.071 198.313 236.049 206.319C238.052 208.617 240.13 210.842 242.276 213C242.486 213.212 242.811 212.88 242.599 212.668Z" fill="#32303A"/>
<path d="M210.956 132.517C210.286 131.263 209.534 130.058 208.718 128.899C208.623 128.765 208.411 128.731 208.322 128.899C207.211 131.017 204.022 131.714 201.892 131.93C200.664 132.055 199.42 132.016 198.203 131.798C197.045 131.593 195.635 131.315 194.944 130.23C194.81 130.021 194.546 130.123 194.517 130.347C194.302 132.027 193.869 133.65 193.239 135.213C193.192 135.328 193.241 135.417 193.321 135.46C193.302 135.567 193.347 135.676 193.48 135.699C194.258 135.833 194.958 136.129 195.578 136.635C195.989 136.971 196.355 137.355 196.802 137.644C197.715 138.231 198.822 138.502 199.874 138.682C202.001 139.046 204.21 138.903 206.276 138.256C207.281 137.942 208.256 137.51 209.161 136.958C210.008 136.441 211.02 135.777 211.628 134.969C212.171 134.252 211.3 133.163 210.956 132.517Z" fill="white"/>
<path d="M211.28 135.141C210.475 136.281 209.581 137.348 208.593 138.326C207.72 139.191 206.728 140.199 205.635 140.763C204.673 141.261 204.141 140.724 203.763 139.857C203.461 139.162 203.183 138.456 202.924 137.744C202.424 136.37 202.001 134.971 201.647 133.551C201.608 133.399 201.468 133.36 201.355 133.399C201.27 133.408 201.187 133.454 201.148 133.556C200.315 135.688 199.11 137.656 197.57 139.327C197.249 139.673 196.636 140.617 196.084 140.131C195.947 140.01 195.777 139.507 195.699 139.339C195.572 139.073 195.45 138.806 195.331 138.536C194.78 137.3 194.299 136.033 193.878 134.744C193.782 134.461 193.341 134.584 193.435 134.869C193.933 136.384 194.51 137.867 195.178 139.311C195.57 140.156 195.977 141.429 196.996 140.568C198.725 139.104 200.082 137.037 201.058 134.925C200.546 138.406 200.03 141.885 199.527 145.367C199.01 148.942 198.555 152.532 198.544 156.155C198.544 156.456 199.001 156.458 199.003 156.155C199.011 152.474 199.482 148.825 200.013 145.192C200.511 141.751 201.02 138.313 201.523 134.875C201.912 136.261 202.367 137.624 202.898 138.959C203.322 140.022 203.695 141.607 205.1 141.434C206.329 141.286 207.57 139.93 208.442 139.116C209.647 137.988 210.718 136.732 211.676 135.378C211.848 135.132 211.452 134.898 211.28 135.141Z" fill="#3E4156"/>
<path d="M199.627 184.632L158.099 183.447C157.847 183.44 157.684 183.226 157.783 183.036L157.903 182.048C157.962 181.937 158.096 181.868 158.243 181.871L199.771 183.056C200.025 183.063 200.188 183.275 200.087 183.466L199.967 184.455C199.908 184.566 199.773 184.635 199.627 184.632Z" fill="#C4A8A3"/>
<path d="M199.044 192.913L157.516 191.728C157.264 191.721 157.099 191.509 157.2 191.32L157.32 190.329C157.377 190.221 157.512 190.149 157.66 190.155L199.188 191.339C199.439 191.347 199.603 191.559 199.504 191.748L199.386 192.738C199.327 192.847 199.191 192.917 199.044 192.913Z" fill="#C4A8A3"/>
<path d="M197.993 223.159L156.465 221.975C156.213 221.969 156.048 221.755 156.149 221.566L156.269 220.577C156.326 220.467 156.462 220.397 156.609 220.403L198.137 221.587C198.389 221.593 198.554 221.807 198.453 221.996L198.333 222.985C198.274 223.095 198.14 223.165 197.993 223.159Z" fill="#C4A8A3"/>
<path d="M197.665 203.48L166.267 202.591C166.015 202.584 165.852 202.372 165.951 202.181L166.073 201.192C166.13 201.082 166.265 201.012 166.411 201.016L197.809 201.904C198.062 201.913 198.225 202.126 198.125 202.315L198.007 203.303C197.948 203.414 197.812 203.483 197.665 203.48Z" fill="#C4A8A3"/>
<path d="M197.316 211.761L165.918 210.875C165.665 210.866 165.502 210.653 165.602 210.464L165.722 209.476C165.78 209.365 165.917 209.295 166.062 209.299L197.458 210.188C197.712 210.195 197.877 210.407 197.774 210.596L197.656 211.586C197.597 211.695 197.462 211.765 197.316 211.761Z" fill="#C4A8A3"/>
<path d="M183.337 274.459H162.752L167.125 249.328H187.712L183.337 274.459Z" fill="#32303A"/>
<path d="M197.678 278.787L147.819 277.688C146.576 277.658 145.801 276.605 146.089 275.336L146.616 272.804C146.904 271.535 148.147 270.531 149.39 270.561L199.249 271.66C200.492 271.689 201.267 272.743 200.978 274.012L200.454 276.544C200.164 277.813 198.921 278.816 197.678 278.787Z" fill="#32303A"/>
<path d="M162.555 201.696C162.445 202.477 161.758 203.098 161.015 203.084C160.273 203.07 159.759 202.424 159.865 201.642C159.975 200.861 160.662 200.238 161.405 200.254C162.147 200.268 162.662 200.914 162.555 201.696Z" fill="#C4A8A3"/>
<path d="M162.555 210.128C162.445 210.909 161.758 211.532 161.015 211.518C160.273 211.501 159.759 210.856 159.865 210.074C159.975 209.294 160.662 208.672 161.405 208.686C162.147 208.7 162.662 209.346 162.555 210.128Z" fill="#C4A8A3"/>
<mask id="mask6_2882_93748" style="mask-type:luminance" maskUnits="userSpaceOnUse" x="260" y="291" width="2" height="13">
<path d="M260.445 291.889H261.779V303.162H260.445V291.889Z" fill="white"/>
</mask>
<g mask="url(#mask6_2882_93748)">
<path d="M261.379 302.664L261.341 292.509C261.339 292.348 261.199 292.227 261.046 292.254C260.923 292.275 260.834 292.384 260.834 292.511L260.874 302.667C260.876 302.838 261.032 302.962 261.192 302.913C261.193 302.913 261.197 302.913 261.199 302.912C261.306 302.879 261.379 302.778 261.379 302.664Z" fill="#32303A"/>
</g>
</g>
<defs>
<clipPath id="clip0_2882_93748">
<rect width="360" height="370" fill="white"/>
</clipPath>
</defs>
</svg>
