<svg width="16" height="16" viewBox="0 0 16 16" fill="none" xmlns="http://www.w3.org/2000/svg">
<g clip-path="url(#clip0_2398_422)">
<mask id="mask0_2398_422" style="mask-type:luminance" maskUnits="userSpaceOnUse" x="0" y="0" width="16" height="16">
<path d="M0.160156 0.217285H15.9972V16H0.160156V0.217285Z" fill="white"/>
</mask>
<g mask="url(#mask0_2398_422)">
<path d="M15.9972 2.38518C15.9972 1.80995 15.7721 1.26805 15.3637 0.867895C14.5135 0.0175864 13.1298 0.0175864 12.2796 0.867895L11.3794 1.76828H1.70213C1.28539 1.76828 0.901977 1.92669 0.610233 2.21844C0.31849 2.51026 0.160156 2.90208 0.160156 3.31056V14.4401C0.160156 14.8569 0.31849 15.2404 0.610233 15.5322C0.901977 15.8241 1.29372 15.9824 1.70213 15.9824H12.8298C13.2465 15.9824 13.6299 15.8241 13.9217 15.5322C14.2134 15.2404 14.3718 14.8486 14.3718 14.4401V4.88618L14.6886 4.56944L15.3554 3.90246C15.7721 3.50231 15.9972 2.96041 15.9972 2.38518ZM7.70352 10.6969L6.82837 9.8216L11.8545 4.79452C11.9712 4.67777 11.9712 4.47769 11.8545 4.36103C11.7379 4.24428 11.5378 4.24428 11.4211 4.36103L6.39488 9.38803L5.51972 8.50439L11.8629 2.1601L14.0467 4.34436L7.70352 10.6969ZM5.30298 9.16296L7.05337 10.9137L5.01124 11.2055L5.30298 9.16296ZM13.7633 14.4485C13.7633 14.6986 13.6633 14.932 13.4882 15.1071C13.3132 15.2822 13.0798 15.3822 12.8298 15.3822H1.70213C1.45213 15.3822 1.21872 15.2822 1.04364 15.1071C0.868644 14.932 0.768567 14.6986 0.768567 14.4485V3.31056C0.768567 3.06049 0.868644 2.82708 1.04364 2.652C1.21872 2.47692 1.45213 2.37685 1.70213 2.37685H10.7626L4.86124 8.28765C4.83624 8.31265 4.81124 8.34598 4.8029 8.37932C4.79457 8.38765 4.79457 8.40431 4.79457 8.41265C4.78624 8.42932 4.78624 8.44598 4.7779 8.45432L4.34442 11.514C4.32775 11.614 4.36108 11.7057 4.42783 11.7724C4.48616 11.8307 4.56116 11.864 4.64449 11.864C4.66116 11.864 4.66949 11.864 4.68616 11.864L7.74526 11.4305C7.76193 11.4305 7.7786 11.4222 7.78693 11.4139C7.79526 11.4139 7.81193 11.4056 7.82026 11.4056C7.8536 11.3889 7.88693 11.3722 7.91193 11.3472L13.755 5.50316V14.4485H13.7633ZM14.4801 3.91913L12.2963 1.72661L12.7214 1.30138C13.0132 1.00964 13.4049 0.842895 13.8217 0.842895C14.2384 0.842895 14.6301 1.00131 14.9219 1.30138C15.2136 1.5932 15.372 1.97669 15.372 2.38518C15.372 2.79367 15.2136 3.17715 14.9219 3.46898L14.4801 3.91913Z" fill="#D892C0"/>
</g>
</g>
<defs>
<clipPath id="clip0_2398_422">
<rect width="16" height="16" fill="white"/>
</clipPath>
</defs>
</svg>
