<svg width="24" height="23" viewBox="0 0 24 23" fill="none" xmlns="http://www.w3.org/2000/svg">
<g clip-path="url(#clip0_2398_389)">
<path d="M19.0469 3.41541H20.3406V4.01853H19.0469V3.41541Z" fill="#66757F"/>
<mask id="mask0_2398_389" style="mask-type:luminance" maskUnits="userSpaceOnUse" x="1" y="8" width="22" height="15">
<path d="M1.66602 8.23499H22.4072V22.7398H1.66602V8.23499Z" fill="white"/>
</mask>
<g mask="url(#mask0_2398_389)">
<path d="M1.66602 8.24054V20.3031C1.66602 21.6355 2.82685 22.7157 4.25866 22.7157H19.8144C21.2463 22.7157 22.4071 21.6355 22.4071 20.3031V8.24054H1.66602Z" fill="#E2EAEF"/>
</g>
<mask id="mask1_2398_389" style="mask-type:luminance" maskUnits="userSpaceOnUse" x="1" y="3" width="22" height="6">
<path d="M1.66602 3.40912H22.4072V8.86204H1.66602V3.40912Z" fill="white"/>
</mask>
<g mask="url(#mask1_2398_389)">
<path d="M19.8144 3.41553H4.25866C2.82685 3.41553 1.66602 4.49578 1.66602 5.82802V8.84374H22.4071V5.82802C22.4071 4.49578 21.2463 3.41553 19.8144 3.41553Z" fill="#D892C0"/>
</g>
<path d="M6.09726 6.26882C5.64215 6.26882 5.27344 5.86709 5.27344 5.37079C5.27344 4.87502 5.64215 4.47266 6.09726 4.47266C6.55157 4.47266 6.92039 4.87502 6.92039 5.37079C6.92039 5.86656 6.55157 6.26882 6.09726 6.26882ZM9.98623 6.26882C9.53112 6.26882 9.16241 5.86709 9.16241 5.37079C9.16241 4.87502 9.53112 4.47266 9.98623 4.47266C10.4405 4.47266 10.8094 4.87502 10.8094 5.37079C10.8094 5.86656 10.4405 6.26882 9.98623 6.26882ZM13.8752 6.26882C13.4201 6.26882 13.0514 5.86709 13.0514 5.37079C13.0514 4.87502 13.4201 4.47266 13.8752 4.47266C14.3295 4.47266 14.699 4.87502 14.699 5.37079C14.6983 5.86656 14.3295 6.26882 13.8752 6.26882ZM17.7642 6.26882C17.3091 6.26882 16.9404 5.86709 16.9404 5.37079C16.9404 4.87502 17.3091 4.47266 17.7642 4.47266C18.2185 4.47266 18.588 4.87502 18.588 5.37079C18.5873 5.86656 18.2185 6.26882 17.7642 6.26882Z" fill="#292F33"/>
<path d="M18.0742 1.11084C17.2464 1.11084 16.5295 1.59457 16.1336 2.29909C15.7407 1.6097 15.0207 1.11084 14.1852 1.11084C13.3575 1.11084 12.6405 1.59457 12.2446 2.29909C11.8517 1.6097 11.1317 1.11084 10.2962 1.11084C9.4685 1.11084 8.75156 1.59457 8.35562 2.29909C7.96276 1.6097 7.24273 1.11084 6.40724 1.11084C5.1536 1.11084 4.13867 2.20792 4.13867 3.52642C4.13867 4.64459 4.81602 5.55955 5.80371 5.89429C6.29567 6.06022 6.59709 5.62473 6.55498 5.27551C6.51939 4.98604 6.3126 4.79721 6.08247 4.66152C5.76812 4.47632 5.43431 4.0535 5.43431 3.5294C5.43431 2.86355 5.86928 2.26586 6.40655 2.26586C6.94383 2.26586 7.3788 2.81168 7.3788 3.41481H8.03737C8.03543 3.45219 8.02696 3.48787 8.02696 3.52578C8.02696 4.64406 8.7043 5.55902 9.69211 5.89376C10.1841 6.05958 10.4855 5.62409 10.4433 5.27487C10.4077 4.98604 10.2009 4.79721 9.97076 4.66152C9.6564 4.47632 9.3226 4.0535 9.3226 3.5294C9.3226 2.86355 9.75757 2.26586 10.2948 2.26586C10.8322 2.26586 11.2685 2.81232 11.2685 3.41545H11.9269C11.925 3.45283 11.9166 3.4884 11.9166 3.52642C11.9166 4.64459 12.594 5.55955 13.5817 5.89429C14.0736 6.06022 14.375 5.62473 14.3329 5.27551C14.2973 4.98657 14.0905 4.79785 13.8604 4.66216C13.5461 4.47695 13.2123 4.05414 13.2123 3.53004C13.2123 2.86419 13.6472 2.2665 14.1845 2.2665C14.7218 2.2665 15.1574 2.81232 15.1574 3.41545H15.8159C15.8139 3.45283 15.8056 3.4884 15.8056 3.52642C15.8056 4.64459 16.4829 5.55955 17.4706 5.89429C17.9626 6.06022 18.264 5.62473 18.2219 5.27551C18.1863 4.98657 17.9795 4.79785 17.7494 4.66216C17.435 4.47695 17.1012 4.05414 17.1012 3.53004C17.1012 2.86419 17.5362 2.2665 18.0735 2.2665C18.6107 2.2665 19.0464 2.81232 19.0464 3.41545H20.3401C20.3265 2.2092 19.3186 1.11084 18.0742 1.11084Z" fill="#66757F"/>
<path d="M7.49862 10.0499H10.0913V12.4624H7.49862V10.0499ZM10.7394 10.0499H13.3321V12.4624H10.7394V10.0499ZM13.9802 10.0499H16.5728V12.4624H13.9802V10.0499ZM17.2209 10.0499H19.8136V12.4624H17.2209V10.0499ZM4.25781 13.0655H6.85046V15.4781H4.25781V13.0655ZM7.49862 13.0655H10.0913V15.4781H7.49862V13.0655ZM10.7394 13.0655H13.3321V15.4781H10.7394V13.0655ZM13.9802 13.0655H16.5728V15.4781H13.9802V13.0655ZM17.2209 13.0655H19.8136V15.4781H17.2209V13.0655ZM4.25781 16.0812H6.85046V18.4937H4.25781V16.0812ZM7.49862 16.0812H10.0913V18.4937H7.49862V16.0812ZM10.7394 16.0812H13.3321V18.4937H10.7394V16.0812ZM13.9802 16.0812H16.5728V18.4937H13.9802V16.0812ZM17.2209 16.0812H19.8136V18.4937H17.2209V16.0812ZM4.25781 19.0968H6.85046V21.5093H4.25781V19.0968ZM7.49862 19.0968H10.0913V21.5093H7.49862V19.0968ZM10.7394 19.0968H13.3321V21.5093H10.7394V19.0968Z" fill="white"/>
</g>
<defs>
<clipPath id="clip0_2398_389">
<rect width="23.7293" height="22.0843" fill="white" transform="translate(0.166016 0.873535)"/>
</clipPath>
</defs>
</svg>
