<svg width="49" height="57" viewBox="0 0 49 57" fill="none" xmlns="http://www.w3.org/2000/svg">
<path d="M45.0116 42.4707H43.7826C40.5298 39.1182 38.7442 34.7422 38.7442 30.0971V20.6766C38.7442 15.1777 35.4877 10.4112 30.7674 8.1331V6.14702C30.7674 2.7575 27.9559 0 24.5 0C21.0441 0 18.2326 2.7575 18.2326 6.14702V8.1331C13.5121 10.4112 10.2558 15.1777 10.2558 20.6766V30.0971C10.2558 34.7422 8.47017 39.1179 5.21708 42.4707H3.9884C1.78908 42.4707 0 44.2255 0 46.3825C0 48.5393 1.78908 50.2943 3.9884 50.2943H18.2326V50.853C18.2326 54.2425 21.0441 57 24.5 57C27.9559 57 30.7674 54.2425 30.7674 50.853V50.2943H45.0116C47.2109 50.2943 49 48.5393 49 46.3825C49 44.2255 47.2109 42.4707 45.0116 42.4707ZM20.5116 6.14702C20.5116 3.99023 22.3007 2.23523 24.5 2.23523C26.699 2.23523 28.4884 3.99023 28.4884 6.14702V7.26407C25.8906 6.51974 23.1108 6.51946 20.5116 7.26407V6.14702ZM12.5348 30.0971V20.6766C12.5348 14.2056 17.9023 8.94119 24.5 8.94119C31.0977 8.94119 36.4652 14.2056 36.4652 20.6766V30.0971C36.4652 34.6353 37.981 38.9455 40.7781 42.4707H8.2219C11.0187 38.9455 12.5348 34.6356 12.5348 30.0971ZM28.4884 50.853C28.4884 53.0101 26.699 54.7648 24.5 54.7648C22.3007 54.7648 20.5116 53.0101 20.5116 50.853V50.2943H28.4884V50.853Z" fill="#D892C0"/>
</svg>
