<svg width="55" height="55" viewBox="0 0 55 55" fill="none" xmlns="http://www.w3.org/2000/svg">
<path d="M5.92464 6.05594C6.10607 5.87451 6.292 5.69787 6.48191 5.52546C6.67209 5.35332 6.86625 5.18569 7.06464 5.0231C7.26278 4.8605 7.46515 4.70269 7.67098 4.54991C7.87707 4.39713 8.08688 4.24939 8.30013 4.10696C8.51338 3.96453 8.73008 3.8274 8.95023 3.69557C9.17011 3.56375 9.39318 3.43723 9.61943 3.31628C9.84568 3.1956 10.0748 3.08022 10.3067 2.97068C10.5385 2.86087 10.773 2.75689 11.0101 2.65875C11.2469 2.56062 11.4862 2.46831 11.7278 2.38211C11.9694 2.29564 12.2129 2.21527 12.4583 2.14074C12.7039 2.06621 12.9508 1.99804 13.1996 1.93571C13.4487 1.87338 13.6988 1.81715 13.9503 1.76702C14.202 1.71715 14.4547 1.67312 14.7083 1.63573C14.9621 1.59806 15.2165 1.5665 15.4719 1.54157C15.7271 1.51637 15.9828 1.49754 16.239 1.4848C16.4952 1.47234 16.7517 1.46597 17.0082 1.46597C17.2647 1.46597 17.5209 1.47234 17.7771 1.4848C18.0333 1.49754 18.2893 1.51637 18.5445 1.54157C18.7996 1.5665 19.0543 1.59806 19.3081 1.63573C19.5617 1.67312 19.8144 1.71715 20.0659 1.76702C20.3176 1.81715 20.5677 1.87338 20.8165 1.93571C21.0653 1.99804 21.3125 2.06621 21.5581 2.14074C21.8035 2.21527 22.0469 2.29564 22.2886 2.38211C22.5299 2.46831 22.7692 2.56062 23.0063 2.65875C23.2432 2.75689 23.4776 2.86087 23.7097 2.97068C23.9415 3.08022 24.1705 3.1956 24.3967 3.31628C24.6229 3.43723 24.8463 3.56375 25.0662 3.69557C25.2863 3.8274 25.503 3.96453 25.7163 4.10696C25.9295 4.24939 26.1391 4.39713 26.3451 4.54991C26.5512 4.70269 26.7533 4.8605 26.9517 5.0231C27.1501 5.18569 27.3443 5.35332 27.5345 5.52546C27.7244 5.69787 27.9103 5.87451 28.0915 6.05594C28.2647 6.2294 28.4336 6.40685 28.5984 6.58801C28.7631 6.76943 28.9235 6.95457 29.0798 7.14342C29.2357 7.33227 29.3874 7.52483 29.5344 7.72084C29.6816 7.91659 29.824 8.11605 29.9617 8.31869C30.0993 8.52134 30.2325 8.72716 30.3606 8.93591C30.4887 9.14491 30.6118 9.35658 30.7301 9.57115C30.8481 9.78573 30.9614 10.003 31.0693 10.2231C31.1775 10.443 31.2802 10.6653 31.3778 10.8899C31.4754 11.1148 31.5677 11.3416 31.6547 11.5708C31.7417 11.7997 31.8234 12.0307 31.8995 12.2636C31.9756 12.4965 32.0465 12.7312 32.1117 12.9673C32.177 13.2036 32.2364 13.441 32.2905 13.68C32.3446 13.919 32.3931 14.1593 32.4358 14.4004C32.4788 14.6417 32.5159 14.8839 32.5475 15.1269C32.5791 15.3698 32.6048 15.6133 32.625 15.8576C32.6448 16.1019 32.6592 16.3464 32.6679 16.5912C32.6767 16.8361 32.6796 17.0811 32.6767 17.326C32.6738 17.571 32.6653 17.8159 32.6509 18.0604C32.6366 18.3052 32.6167 18.5492 32.591 18.793C32.5653 19.0365 32.534 19.2794 32.4968 19.5219C32.4597 19.764 32.417 20.0051 32.3685 20.2454C32.3202 20.4855 32.2661 20.7245 32.2067 20.9621C32.147 21.1998 32.082 21.4361 32.0112 21.6706C31.9406 21.9053 31.8645 22.1382 31.7831 22.3692C31.7014 22.6002 31.6147 22.8294 31.5224 23.0562C31.43 23.2832 31.3324 23.5079 31.2298 23.7304C31.1269 23.953 31.0189 24.1728 30.9059 24.3901C30.7929 24.6076 30.6749 24.8221 30.5516 25.0341C30.4285 25.2457 30.3004 25.4547 30.1675 25.6606C30.0346 25.8664 29.897 26.069 29.7548 26.2685C29.6124 26.468 29.4654 26.6637 29.3137 26.8563C29.1623 27.0488 29.006 27.2377 28.8458 27.4231L34.6959 33.2504C34.7901 33.2249 34.8856 33.2053 34.9824 33.192C35.0792 33.1788 35.1763 33.1719 35.2739 33.1708C35.3715 33.17 35.4688 33.1756 35.5659 33.1873C35.6627 33.1987 35.7585 33.2164 35.8532 33.2406C35.9479 33.2644 36.0407 33.2942 36.1314 33.33C36.2224 33.3658 36.3104 33.4074 36.3961 33.4544C36.4815 33.5016 36.5638 33.5538 36.6425 33.6116C36.7213 33.6692 36.7961 33.7315 36.8669 33.7989L53.5722 50.4583C53.6255 50.5114 53.6762 50.5668 53.7242 50.6246C53.7722 50.6827 53.817 50.7429 53.8589 50.8052C53.9011 50.8678 53.9398 50.932 53.9754 50.9983C54.0112 51.0647 54.0433 51.1326 54.0725 51.202C54.1014 51.2713 54.1268 51.3421 54.1486 51.414C54.1706 51.4861 54.1889 51.5588 54.2038 51.6328C54.2186 51.7065 54.2295 51.7808 54.2369 51.8556C54.2443 51.9304 54.248 52.0055 54.248 52.0808C54.248 52.1561 54.2443 52.2312 54.2369 52.306C54.2295 52.3808 54.2186 52.455 54.2038 52.529C54.1889 52.6028 54.1706 52.6754 54.1486 52.7476C54.1268 52.8195 54.1014 52.8903 54.0725 52.9595C54.0433 53.029 54.0112 53.0969 53.9754 53.1632C53.9398 53.2295 53.9011 53.2937 53.8589 53.3563C53.817 53.4186 53.7722 53.4789 53.7242 53.5369C53.6762 53.5948 53.6255 53.6505 53.5722 53.7033C53.4653 53.8093 53.3492 53.9038 53.224 53.9865C53.0985 54.0695 52.9661 54.1396 52.8269 54.1963C52.6876 54.2534 52.5442 54.2961 52.3967 54.3244C52.2489 54.3531 52.0999 54.3669 51.9495 54.3661C51.7991 54.3669 51.6503 54.3531 51.5026 54.3244C51.3548 54.2961 51.2116 54.2534 51.0723 54.1963C50.9331 54.1396 50.8007 54.0695 50.6753 53.9865C50.5498 53.9038 50.4339 53.8093 50.327 53.7033L33.622 36.9982C33.5498 36.9247 33.483 36.8465 33.4215 36.764C33.3599 36.6813 33.3042 36.5951 33.2541 36.5049C33.2042 36.4147 33.1607 36.3219 33.1233 36.2258C33.0862 36.1298 33.0554 36.0317 33.0313 35.9314C33.0074 35.8312 32.9902 35.7298 32.9798 35.6275C32.9695 35.5251 32.966 35.4222 32.9698 35.3193C32.9732 35.2163 32.9836 35.1142 33.0011 35.0126C33.0186 34.911 33.0427 34.8111 33.0735 34.7129L27.2918 28.9769C27.1019 29.1344 26.9085 29.2872 26.7114 29.4355C26.5141 29.5837 26.3138 29.7275 26.1099 29.8662C25.9059 30.0049 25.699 30.1389 25.4887 30.268C25.2786 30.3969 25.0654 30.5208 24.8492 30.6399C24.6333 30.7587 24.4145 30.8725 24.193 30.9813C23.9715 31.0897 23.7477 31.1932 23.5214 31.2911C23.2952 31.3892 23.0665 31.4818 22.8358 31.569C22.605 31.6563 22.3724 31.738 22.1379 31.8141C21.9032 31.8905 21.6671 31.9611 21.4292 32.026C21.1913 32.0913 20.952 32.1507 20.7112 32.2043C20.4704 32.2581 20.2287 32.3061 19.9858 32.3483C19.7425 32.3907 19.4988 32.4273 19.254 32.4581C19.0094 32.4889 18.7641 32.5138 18.5182 32.5332C18.2723 32.5523 18.0259 32.5655 17.7795 32.5732C17.5331 32.5807 17.2864 32.5825 17.0398 32.5783C16.7931 32.5743 16.5467 32.5645 16.3005 32.5486C16.0544 32.5329 15.8088 32.5114 15.5637 32.4838C15.3186 32.4565 15.0743 32.4234 14.8306 32.3846C14.5871 32.3457 14.3447 32.3011 14.1033 32.2507C13.8617 32.2003 13.6216 32.1443 13.3829 32.0825C13.1439 32.0207 12.9068 31.9534 12.6713 31.8804C12.4355 31.8075 12.2018 31.7292 11.97 31.6452C11.7379 31.5611 11.5082 31.4717 11.2806 31.377C11.0528 31.282 10.8276 31.1818 10.6045 31.0765C10.3817 30.9709 10.1613 30.8603 9.94355 30.7444C9.72579 30.6285 9.51094 30.5073 9.29902 30.3813C9.08709 30.2553 8.87808 30.1243 8.67226 29.9882C8.46643 29.8524 8.26405 29.7116 8.06486 29.5662C7.86567 29.4206 7.67019 29.2705 7.47815 29.1158C7.28612 28.9609 7.0978 28.8018 6.91319 28.6381C6.72858 28.4745 6.54822 28.3066 6.37157 28.1345C6.19492 27.962 6.02252 27.7859 5.85409 27.6056C5.68593 27.4252 5.52201 27.2409 5.3626 27.0528C5.20293 26.8648 5.04803 26.673 4.89737 26.4775C4.74698 26.2823 4.6011 26.0834 4.46 25.881C4.31889 25.6786 4.18282 25.4733 4.05126 25.2646C3.91997 25.0556 3.79371 24.8439 3.67223 24.6293C3.55102 24.4145 3.43458 24.197 3.32371 23.9768C3.21257 23.7567 3.10674 23.5339 3.00622 23.3087C2.90569 23.0835 2.81047 22.8559 2.72055 22.6262C2.63091 22.3965 2.54656 22.1647 2.46752 21.931C2.38874 21.6974 2.31554 21.4621 2.24763 21.2247C2.18 20.9876 2.11793 20.7491 2.06144 20.5088C2.00494 20.2688 1.95428 20.0274 1.90919 19.785C1.8641 19.5426 1.82484 19.2991 1.79142 19.0548C1.758 18.8105 1.73015 18.5654 1.70814 18.3198C1.68612 18.0739 1.67021 17.8281 1.65986 17.5816C1.64952 17.335 1.64501 17.0886 1.64634 16.8419C1.64766 16.5952 1.65482 16.3488 1.66782 16.1024C1.68082 15.8563 1.69965 15.6104 1.72405 15.365C1.74872 15.1194 1.77922 14.8749 1.81529 14.6309C1.85163 14.3868 1.89354 14.1439 1.94102 13.9017C1.98876 13.6598 2.04207 13.419 2.10122 13.1797C2.16011 12.9402 2.22482 12.7023 2.29511 12.4657C2.3654 12.2294 2.44126 11.9946 2.52269 11.7618C2.60411 11.5292 2.69085 11.2984 2.78315 11.0695C2.87545 10.8409 2.97306 10.6143 3.07598 10.3902C3.17889 10.1661 3.28711 9.94461 3.40063 9.72552C3.51415 9.5067 3.63271 9.29027 3.75631 9.07701C3.88018 8.8635 4.00882 8.65316 4.14224 8.44601C4.27592 8.23859 4.41437 8.03462 4.5576 7.83384C4.70083 7.63305 4.84883 7.43571 5.00161 7.24209C5.15413 7.0482 5.31115 6.85802 5.47268 6.67182C5.63421 6.48536 5.80025 6.30288 5.97053 6.12437L5.92464 6.05594ZM7.5243 26.6231C7.67947 26.778 7.83808 26.9289 8.00041 27.0761C8.163 27.2234 8.32877 27.3663 8.49826 27.5053C8.66775 27.6443 8.84042 27.779 9.01654 27.9095C9.19266 28.04 9.37169 28.166 9.55391 28.2878C9.73613 28.4092 9.92127 28.5265 10.1093 28.6392C10.2974 28.7517 10.4878 28.8596 10.6812 28.9628C10.8745 29.0662 11.0703 29.1646 11.2684 29.2583C11.4666 29.3519 11.6668 29.4405 11.8692 29.5243C12.0716 29.6081 12.2761 29.6869 12.4824 29.7606C12.6888 29.8344 12.8967 29.9031 13.1065 29.9667C13.3163 30.0304 13.5275 30.0887 13.7399 30.1418C13.9526 30.1951 14.1662 30.2428 14.3813 30.2855C14.5961 30.3282 14.812 30.3656 15.0287 30.3977C15.2454 30.4298 15.4629 30.4566 15.6809 30.4781C15.8992 30.4996 16.1175 30.5158 16.3363 30.5264C16.5554 30.537 16.7743 30.5423 16.9933 30.5423C17.2127 30.5423 17.4315 30.537 17.6503 30.5261C17.8694 30.5152 18.0877 30.4991 18.3057 30.4776C18.524 30.4561 18.7413 30.4293 18.9582 30.3969C19.1749 30.3648 19.3908 30.3272 19.6057 30.2845C19.8205 30.2418 20.0343 30.1938 20.2468 30.1405C20.4595 30.0871 20.6706 30.0285 20.8802 29.9651C21.09 29.9015 21.2979 29.8325 21.5043 29.7588C21.7104 29.6848 21.9149 29.606 22.1172 29.5222C22.3196 29.4381 22.5199 29.3495 22.718 29.2556C22.9161 29.162 23.1119 29.0633 23.305 28.9601C23.4983 28.8567 23.6888 28.7487 23.8768 28.636C24.0649 28.5236 24.2498 28.4063 24.432 28.2843C24.6142 28.1626 24.7932 28.0366 24.9694 27.9058C25.1452 27.7753 25.3179 27.6406 25.4874 27.5016C25.6566 27.3626 25.8226 27.2194 25.985 27.0722C26.1473 26.925 26.3059 26.774 26.4608 26.6189C26.6157 26.464 26.7669 26.3054 26.9141 26.143C27.061 25.9807 27.2043 25.8147 27.3432 25.6452C27.4822 25.476 27.617 25.3033 27.7475 25.1272C27.878 24.9511 28.0042 24.772 28.1257 24.5898C28.2474 24.4076 28.3647 24.2224 28.4774 24.0346C28.5901 23.8466 28.6981 23.6559 28.8013 23.4628C28.9044 23.2694 29.0031 23.0737 29.0967 22.8756C29.1904 22.6777 29.2792 22.4772 29.363 22.2748C29.4469 22.0724 29.5256 21.8679 29.5996 21.6616C29.6734 21.4555 29.7421 21.2472 29.8057 21.0377C29.8691 20.8279 29.9277 20.6168 29.9808 20.4043C30.0341 20.1916 30.0821 19.9778 30.1248 19.763C30.1675 19.5481 30.2052 19.3322 30.2373 19.1155C30.2694 18.8988 30.2962 18.6813 30.3176 18.4633C30.3391 18.245 30.3553 18.0267 30.3659 17.8079C30.3768 17.5888 30.3821 17.37 30.3821 17.1509C30.3821 16.9315 30.3768 16.7127 30.3659 16.4939C30.3553 16.2748 30.3391 16.0565 30.3176 15.8385C30.2962 15.6202 30.2694 15.403 30.2373 15.186C30.2052 14.9693 30.1675 14.7534 30.1248 14.5386C30.0821 14.3237 30.0341 14.1099 29.9808 13.8975C29.9277 13.6847 29.8691 13.4736 29.8057 13.2638C29.7421 13.0543 29.6734 12.8463 29.5996 12.64C29.5256 12.4336 29.4469 12.2291 29.363 12.0267C29.2792 11.8244 29.1904 11.6241 29.0967 11.426C29.0031 11.2278 28.9044 11.0321 28.8013 10.8387C28.6981 10.6456 28.5901 10.4549 28.4774 10.2669C28.3647 10.0791 28.2474 9.89395 28.1257 9.71173C28.0042 9.52951 27.878 9.35047 27.7475 9.17436C27.617 8.9985 27.4822 8.82557 27.3432 8.65634C27.2043 8.48686 27.061 8.32108 26.9138 8.15849C26.7669 7.99616 26.6157 7.83755 26.4608 7.68265C26.3059 7.52749 26.1473 7.37656 25.985 7.22936C25.8226 7.08215 25.6566 6.93892 25.4874 6.79993C25.3179 6.66095 25.1452 6.52621 24.9694 6.39571C24.7932 6.26495 24.6142 6.13896 24.432 6.01721C24.2498 5.89547 24.0649 5.77823 23.8768 5.66551C23.6888 5.55278 23.4983 5.44483 23.305 5.34138C23.1119 5.23821 22.9161 5.13954 22.718 5.04591C22.5199 4.95201 22.3196 4.86342 22.1172 4.77934C21.9149 4.69553 21.7104 4.61675 21.5043 4.54275C21.2979 4.46901 21.09 4.40031 20.8802 4.33666C20.6706 4.273 20.4595 4.21438 20.2468 4.16107C20.0343 4.10776 19.8205 4.05975 19.6057 4.01704C19.3908 3.97434 19.1749 3.93668 18.9582 3.90458C18.7413 3.87249 18.524 3.84543 18.3057 3.82395C18.0877 3.80247 17.8694 3.78629 17.6503 3.77541C17.4315 3.7648 17.2127 3.75923 16.9933 3.75923C16.7743 3.75923 16.5554 3.76454 16.3363 3.77515C16.1175 3.78602 15.8992 3.80193 15.6809 3.82342C15.4629 3.8449 15.2454 3.87169 15.0287 3.90379C14.812 3.93588 14.5961 3.97328 14.3813 4.01598C14.1662 4.05869 13.9526 4.10643 13.7399 4.15974C13.5275 4.21306 13.3163 4.27141 13.1065 4.3348C12.8967 4.39846 12.6888 4.46715 12.4824 4.54089C12.2761 4.61463 12.0716 4.6934 11.8692 4.77722C11.6668 4.86104 11.4666 4.94963 11.2684 5.04325C11.0703 5.13688 10.8745 5.23555 10.6812 5.33873C10.4878 5.44191 10.2974 5.54986 10.1093 5.66232C9.92127 5.77505 9.73613 5.89229 9.55391 6.01376C9.37169 6.13551 9.19266 6.26176 9.01654 6.39226C8.84042 6.52249 8.66775 6.65724 8.49826 6.79622C8.32877 6.93521 8.163 7.07844 8.00041 7.22538C7.83808 7.37259 7.67947 7.52351 7.5243 7.67841C7.36834 7.83251 7.21636 7.99059 7.06809 8.15212C6.91982 8.31392 6.7758 8.47916 6.63575 8.64786C6.4957 8.81681 6.3599 8.98895 6.22834 9.16454C6.09679 9.33987 5.96973 9.51864 5.84719 9.70059C5.72439 9.88228 5.60636 10.0672 5.49284 10.2547C5.37931 10.4425 5.2703 10.6326 5.16632 10.8257C5.06209 11.0188 4.96289 11.2143 4.86846 11.4122C4.77404 11.6103 4.68439 11.8103 4.60004 12.0127C4.51543 12.2151 4.43586 12.4196 4.36159 12.6259C4.28706 12.832 4.21783 13.0402 4.15364 13.2498C4.08945 13.4596 4.03057 13.6707 3.97699 13.8834C3.92315 14.0961 3.87488 14.3099 3.83164 14.525C3.78867 14.7401 3.75074 14.956 3.71838 15.173C3.68603 15.39 3.65897 15.6075 3.63722 15.8258C3.61547 16.0441 3.59929 16.2626 3.58842 16.4817C3.57754 16.7008 3.57224 16.9201 3.57224 17.1392C3.57224 17.3586 3.57754 17.5779 3.58842 17.797C3.59929 18.0161 3.61547 18.2347 3.63722 18.453C3.65897 18.6712 3.68603 18.8887 3.71838 19.1057C3.75074 19.3227 3.78867 19.5386 3.83164 19.7537C3.87488 19.9688 3.92315 20.1826 3.97699 20.3953C4.03057 20.608 4.08945 20.8192 4.15364 21.029C4.21783 21.2385 4.28706 21.4467 4.36159 21.6528C4.43586 21.8592 4.51543 22.0637 4.60004 22.266C4.68439 22.4684 4.77404 22.6684 4.86846 22.8665C4.96289 23.0644 5.06209 23.2599 5.16632 23.453C5.2703 23.6461 5.37931 23.8363 5.49284 24.024C5.60636 24.2116 5.72439 24.3964 5.84719 24.5781C5.96973 24.7601 6.09679 24.9389 6.22834 25.1142C6.3599 25.2898 6.4957 25.4619 6.63575 25.6309C6.7758 25.7996 6.91982 25.9648 7.06809 26.1266C7.21636 26.2881 7.36834 26.4462 7.5243 26.6003V26.6231Z" fill="#C969A8"/>
<path d="M9.01032 9.14094C9.06416 9.08869 9.12252 9.04227 9.18538 9.00116C9.24797 8.96031 9.31428 8.92583 9.38378 8.89772C9.45327 8.86934 9.52488 8.84812 9.59862 8.83379C9.67209 8.81947 9.74636 8.81231 9.82142 8.81231C9.89648 8.81231 9.97075 8.81947 10.0445 8.83379C10.118 8.84812 10.1896 8.86934 10.2591 8.89772C10.3286 8.92583 10.3949 8.96031 10.4577 9.00116C10.5206 9.04227 10.5789 9.08869 10.6328 9.14094C10.6593 9.16746 10.6848 9.19531 10.7086 9.22423C10.7328 9.25314 10.7553 9.28337 10.7763 9.31441C10.7972 9.34571 10.8166 9.3778 10.8344 9.41095C10.8521 9.44411 10.8683 9.47806 10.8829 9.51281C10.8972 9.54755 10.91 9.58283 10.9211 9.6189C10.932 9.65497 10.9413 9.69131 10.9484 9.72818C10.9558 9.76505 10.9614 9.80218 10.9651 9.83958C10.9688 9.87698 10.9707 9.91464 10.9707 9.95231C10.9707 9.98997 10.9688 10.0274 10.9651 10.0648C10.9614 10.1022 10.9558 10.1393 10.9484 10.1764C10.9413 10.2133 10.932 10.2496 10.9211 10.2857C10.91 10.3215 10.8972 10.3571 10.8829 10.3918C10.8683 10.4263 10.8521 10.4602 10.8344 10.4934C10.8166 10.5266 10.7972 10.5586 10.7763 10.5899C10.7553 10.6212 10.7328 10.6512 10.7086 10.6804C10.6848 10.7093 10.6593 10.7372 10.6328 10.7634C10.5352 10.861 10.4402 10.961 10.3471 11.0629C10.2543 11.1647 10.1636 11.2687 10.0755 11.3748C9.9872 11.4806 9.90152 11.5886 9.81824 11.6986C9.73495 11.8085 9.65406 11.9201 9.57581 12.0336C9.49756 12.1474 9.42171 12.2625 9.34877 12.3795C9.27582 12.4965 9.20527 12.615 9.13763 12.7352C9.07 12.8554 9.00502 12.9771 8.94295 13.1002C8.88062 13.2232 8.8212 13.3476 8.76471 13.4736C8.70821 13.5993 8.65463 13.7264 8.60371 13.8545C8.55305 13.9829 8.50504 14.1121 8.46021 14.2426C8.41512 14.3728 8.37322 14.5043 8.33423 14.6364C8.29524 14.7688 8.25916 14.9019 8.22627 15.0359C8.19338 15.1698 8.16341 15.3043 8.13636 15.4396C8.10957 15.5748 8.0857 15.7107 8.06501 15.847C8.04432 15.9833 8.02655 16.1202 8.01222 16.2573C7.99764 16.3944 7.98623 16.5318 7.97774 16.6695C7.96952 16.8071 7.96422 16.9451 7.96209 17.083C7.95997 17.2207 7.96103 17.3586 7.96528 17.4965C7.96952 17.6344 7.97668 17.7721 7.98703 17.9095C7.99737 18.0471 8.0109 18.1843 8.02761 18.3211C8.04405 18.4583 8.06368 18.5946 8.08649 18.7307C8.1093 18.8667 8.13503 19.002 8.16394 19.137C8.19285 19.2718 8.22495 19.406 8.25996 19.5394C8.29497 19.6728 8.3329 19.8054 8.37375 19.937C8.41486 20.0688 8.45862 20.1996 8.50557 20.3293C8.55252 20.459 8.60238 20.5873 8.6549 20.7149C8.70768 20.8422 8.76312 20.9685 8.82173 21.0934C8.88009 21.2183 8.94136 21.3419 9.00528 21.4642C9.0692 21.5862 9.13604 21.7069 9.20554 21.826C9.27503 21.9451 9.34717 22.0626 9.42197 22.1785C9.49677 22.2944 9.57422 22.4085 9.65406 22.5209C9.73416 22.6334 9.81638 22.7437 9.90152 22.8525C9.92513 22.8814 9.94768 22.9114 9.96836 22.9427C9.98905 22.9737 10.0084 23.0058 10.0259 23.0389C10.0434 23.0721 10.0593 23.1061 10.0734 23.1408C10.0877 23.1753 10.0999 23.2106 10.1105 23.2466C10.1211 23.2824 10.1299 23.3188 10.1371 23.3556C10.144 23.3925 10.149 23.4296 10.1522 23.4668C10.1556 23.5042 10.1569 23.5416 10.1564 23.579C10.1559 23.6166 10.1535 23.6538 10.1493 23.6912C10.145 23.7283 10.1389 23.7652 10.131 23.8018C10.123 23.8384 10.1132 23.8744 10.1018 23.9103C10.0901 23.9458 10.0768 23.9808 10.0617 24.015C10.0466 24.0492 10.0299 24.0827 10.0113 24.1153C9.99277 24.1479 9.97287 24.1795 9.95112 24.2102C9.92964 24.2407 9.90656 24.2702 9.8819 24.2986C9.85723 24.3267 9.8315 24.3537 9.80418 24.3795C9.77686 24.4052 9.74848 24.4293 9.71851 24.4521C9.62117 24.5394 9.51162 24.6068 9.38961 24.654C9.2676 24.7012 9.14108 24.7253 9.01032 24.7264C8.92465 24.7251 8.84004 24.7147 8.75675 24.6948C8.67347 24.6749 8.5931 24.6463 8.51618 24.6089C8.43899 24.5712 8.36712 24.5259 8.30001 24.4723C8.23317 24.419 8.17269 24.3588 8.11885 24.2922C8.01196 24.1564 7.90799 24.0182 7.80719 23.8776C7.7064 23.7371 7.6088 23.5944 7.51464 23.4495C7.42021 23.3044 7.32923 23.1575 7.2417 23.0084C7.15391 22.8594 7.06983 22.7082 6.98893 22.5554C6.9083 22.4024 6.83085 22.2477 6.75711 22.0915C6.68338 21.935 6.61335 21.7769 6.54678 21.6173C6.4802 21.4579 6.41708 21.2969 6.35793 21.1343C6.29878 20.9719 6.24308 20.808 6.19136 20.643C6.13937 20.4781 6.09136 20.312 6.04707 20.1449C6.00277 19.9778 5.96219 19.8097 5.92559 19.6407C5.88899 19.4717 5.8561 19.302 5.82718 19.1314C5.79827 18.9609 5.77308 18.7898 5.75186 18.6182C5.7309 18.4466 5.7134 18.2745 5.70013 18.102C5.68687 17.9296 5.67732 17.757 5.67175 17.5843C5.66618 17.4114 5.66459 17.2384 5.66698 17.0655C5.6691 16.8926 5.67547 16.7199 5.68555 16.5472C5.69589 16.3745 5.70995 16.2024 5.72772 16.0303C5.74576 15.8584 5.76777 15.6868 5.7935 15.5157C5.81923 15.3449 5.84893 15.1743 5.88235 15.0048C5.91577 14.8351 5.95317 14.6664 5.99429 14.4982C6.0354 14.3303 6.08049 14.1635 6.12929 13.9975C6.17783 13.8317 6.23035 13.667 6.28658 13.5033C6.34281 13.3397 6.40275 13.1776 6.46641 13.0169C6.53007 12.8559 6.59717 12.6967 6.66799 12.5389C6.73881 12.3811 6.81308 12.2251 6.89106 12.0708C6.96904 11.9161 7.05047 11.7636 7.13508 11.613C7.21996 11.4623 7.30828 11.3135 7.39979 11.1668C7.4913 11.0202 7.58625 10.8756 7.68439 10.7334C7.78253 10.591 7.88385 10.451 7.98835 10.313C8.09286 10.1754 8.20054 10.0398 8.31115 9.90695C8.42175 9.77407 8.53554 9.64383 8.65198 9.51599C8.76842 9.38841 8.88804 9.26322 9.01032 9.14094Z" fill="#C969A8"/>
</svg>
