<svg width="384" height="388" viewBox="0 0 384 388" fill="none" xmlns="http://www.w3.org/2000/svg">
<rect x="23" y="52" width="337" height="336" rx="30" fill="url(#paint0_linear_3139_79996)"/>
<mask id="mask0_3139_79996" style="mask-type:luminance" maskUnits="userSpaceOnUse" x="11" y="164" width="370" height="158">
<path d="M11 164.191H380.248V321.261H11V164.191Z" fill="white"/>
</mask>
<g mask="url(#mask0_3139_79996)">
<path d="M356.887 238.037C348.612 241.637 355.707 276.271 338.508 276.038C316.654 275.74 260.2 283.955 277.452 292.79C306.842 307.841 175.893 334.231 184.399 313.795C191.974 295.598 76.0462 326.091 99.9842 304.307C116.069 289.671 27.7121 288.711 15.8866 277.404C-3.73517 258.636 40.8996 235.978 58.6138 221.539C77.1373 206.441 107.549 198.152 93.6552 194.628C81.7744 191.615 125.213 169.221 177.965 174.323C230.715 179.427 231.744 176.87 225.272 172.398C214.424 164.905 260.412 161.12 275.544 167.444C290.675 173.768 301.884 179.075 312.934 179.039C346.128 178.929 418.291 211.327 356.887 238.037Z" fill="#B3D2E6"/>
</g>
<path d="M231.241 280.143C229.49 278.984 227.557 278.082 225.728 277.068C225.582 276.989 225.475 277.199 225.6 277.3C227.238 278.612 228.948 279.988 230.811 280.928C231.303 281.174 231.715 280.456 231.241 280.143Z" fill="#9BC4DE"/>
<path d="M320.323 265.505C319.754 265.184 319.031 265.145 318.4 265.044C317.747 264.94 317.084 264.885 316.426 264.811C316.273 264.796 316.246 265.054 316.388 265.092C317.111 265.281 317.825 265.491 318.553 265.633C319.129 265.743 319.699 265.931 320.282 265.846C320.434 265.823 320.448 265.575 320.323 265.505Z" fill="#9BC4DE"/>
<path d="M343.121 221.29C342.126 221.404 341.233 221.536 340.29 221.9C339.429 222.234 338.552 222.647 337.664 222.884C335.779 223.387 334.036 223.979 332.212 224.727C330.397 225.472 328.641 226.343 326.839 227.12C326.268 227.366 325.662 227.595 325.054 227.717C324.612 227.804 324.801 227.667 324.409 227.779C324.323 227.804 324.262 227.813 324.214 227.819C324.202 227.791 324.191 227.76 324.182 227.72C324.084 227.309 323.815 226.834 323.626 226.455C323.275 225.743 322.774 225.062 322.2 224.532C320.952 223.38 319.41 222.779 317.776 222.605C316.168 222.431 314.592 222.821 313.125 223.503C311.299 224.35 310.11 225.545 308.827 227.133C307.994 228.168 308.761 230.072 310.171 229.585C311.735 229.047 313.282 228.34 314.862 227.883C315.919 227.578 317.24 227.503 318.163 228.243C319.089 228.986 319.151 230.642 319.82 231.654C320.889 233.27 322.731 234.172 324.583 234.143C327.992 234.092 331.469 231.872 334.391 230.221C336.122 229.244 337.73 228.259 339.281 226.989C340.839 225.712 342.552 224.943 343.952 223.42C344.601 222.711 344.182 221.167 343.121 221.29Z" fill="#9BC4DE"/>
<path d="M219.473 291.218C216.278 291.102 214.691 292.978 211.759 294.179C208.977 295.316 206.196 296.455 203.413 297.593C201.616 298.328 198.193 300.329 196.459 299.549C195.71 299.211 195.836 299.069 195.827 298.603C195.801 296.877 195.439 295.221 194.002 294.193C191.681 292.525 188.122 293.26 185.637 294.102C183.1 294.962 180.757 296.303 178.261 297.267C176.428 297.978 174.302 298.474 172.374 298.15C170.085 297.762 169.185 295.43 167.142 294.534C164.407 293.336 160.638 294.185 157.853 294.839C156.306 295.2 154.717 295.661 153.257 296.324C152.638 296.604 151.97 297.019 151.448 297.472C150.816 298.018 150.355 298.8 149.766 299.408C149.044 300.155 149.709 301.106 150.651 300.96C151.362 300.848 152.016 301.21 152.724 301.167C153.328 301.127 153.997 300.981 154.585 300.837C155.958 300.5 157.29 300.062 158.684 299.816C159.939 299.594 161.189 299.469 162.46 299.444C163.351 299.427 164.557 299.196 165.252 299.842C166.161 300.685 166.767 301.714 167.792 302.468C168.796 303.207 169.992 303.722 171.183 303.993C173.69 304.562 176.305 304.276 178.75 303.499C181.231 302.709 183.528 301.42 185.942 300.445C187.013 300.011 188.142 299.649 189.279 299.475C189.477 299.446 189.768 299.467 190.056 299.482C190.308 302.248 192.174 304.488 194.667 305.361C197.651 306.405 200.605 305.221 203.371 304.052C206.542 302.709 209.712 301.364 212.885 300.018C216.054 298.673 219.485 297.375 221.956 294.772C222.91 293.766 220.894 291.271 219.473 291.218Z" fill="#9BC4DE"/>
<path d="M180.002 184.569C179.936 184.544 168.838 180.253 167.159 180.145C163.393 179.904 160.036 182.14 157.269 184.612C154.281 187.284 151.791 190.55 148.2 192.375C146.631 193.172 144.802 193.678 143.078 193.21C141.101 192.674 139.776 190.83 137.961 189.934C134.396 188.174 130.591 189.326 127.177 190.908C123.339 192.687 119.81 194.856 115.706 195.936C107.553 198.081 102.246 195.607 94.5584 199C89.6396 201.173 99.7785 202.437 114.036 206.59C116.016 207.168 111.114 209.657 109.654 211.192C108.669 212.228 109.673 214.009 110.996 213.638C121.996 210.542 132.991 207.42 143.982 204.284C143.738 204.623 143.49 204.96 143.246 205.3C142.507 206.315 143.509 207.874 144.609 207.825C156.071 207.3 178.754 196.906 167.456 194.063C164.623 193.348 177.198 188.485 180.002 187.691C181.822 187.176 181.234 185.025 180.002 184.569Z" fill="#CAE7FA"/>
<path d="M143.842 301.135C143.842 301.861 144.539 302.598 145.288 302.351C146.381 301.989 147.434 301.502 148.573 301.322C149.811 301.125 151.094 301.173 152.335 301.283C154.888 301.508 158.349 303.246 160.904 303.471C163.542 303.702 166.099 303.388 168.596 302.444C171.091 301.502 173.435 300.14 175.965 299.307C178.24 298.556 180.9 298.14 183.142 299.246C184.287 299.811 185.127 300.798 186.093 301.626C187.138 302.518 188.275 303.147 189.611 303.371C192.256 303.816 202.561 297.74 205.119 296.626C210.924 294.096 215.62 296.72 220.596 292.643C220.796 292.48 220.869 292.259 220.856 292.05C220.862 291.95 220.617 291.567 220.304 291.452C216.831 289.686 208.286 287.821 204.722 287.785C200.939 287.748 197.442 289.076 193.784 289.892C191.811 290.332 189.789 290.54 187.796 290.131C186.011 289.767 185.917 288.322 184.164 287.827C181.481 287.073 175.571 290.997 173.749 290.832C171.734 290.652 172.378 286.497 168.8 288.034C167.254 288.697 166.052 290.015 164.847 291.19C163.708 292.302 162.537 293.145 161.034 293.583C158.352 294.365 155.523 294.127 152.786 294.504C150.406 294.833 144.555 298.005 143.865 300.826C143.838 300.93 143.833 301.033 143.842 301.135Z" fill="#CAE7FA"/>
<path d="M53.8203 245.371C53.8203 245.371 44.2751 246.974 48.6091 252.768C52.945 258.561 61.2672 256.824 64.9113 262.68C68.5571 268.537 66.5515 271.881 76.2322 276.178C85.9112 280.475 89.229 284.629 94.1318 285.692C100.45 287.062 111.684 283.144 119.838 283.379C127.991 283.616 136.962 284.328 143.867 285.817C150.774 287.305 159.535 289.167 168.558 285.817C177.579 282.466 177.292 279.353 187.619 280.624C197.947 281.897 209.158 281.045 212.397 277.913C215.637 274.783 230.931 269.596 234.675 269.914C238.419 270.228 253.889 261.189 253.889 261.189L53.8203 245.371Z" fill="#9BC4DE"/>
<path d="M262.299 181.597C261.001 180.708 259.414 181.443 258.132 181.93C254.643 183.256 251.244 184.85 247.97 186.697C246.71 187.409 245.036 188.771 243.519 188.428C241.821 188.046 242.702 186.2 241.695 185.124C240.736 184.101 239.307 184.365 238.117 184.637C236.393 185.035 234.706 185.653 233.084 186.388C229.869 187.845 226.899 189.813 223.89 191.682C222.442 192.581 220.989 193.487 219.477 194.258C218.985 194.508 218.325 194.938 217.849 194.455C217.473 194.073 217.489 193.216 217.514 192.718C217.653 189.988 219.732 186.655 216.997 184.514C214.678 182.701 211.743 184.501 209.689 185.871C203.236 190.179 196.951 195.374 192.209 201.763C191.697 202.456 192.587 203.341 193.234 202.96C194.904 202.608 199.643 199.182 201.897 201.397C203.323 202.797 203.947 204.771 205.634 205.95C209.682 208.777 214.69 207.015 218.217 204.141C220.267 202.471 221.902 200.133 224.196 198.822C225.191 198.254 226.38 197.871 227.523 198.063C228.734 198.265 229.498 199.158 230.367 199.988C232.135 201.689 234.121 202.104 236.289 200.88C237.412 200.247 238.396 199.37 239.436 198.604C240.621 197.733 241.853 196.93 243.116 196.189C245.838 194.588 253.472 194.035 256.448 193.065C259.38 192.106 262.14 186.064 265.034 185.031C265.483 184.87 265.659 184.387 265.535 184.016C265.47 183.091 262.998 182.076 262.299 181.597Z" fill="#9BC4DE"/>
<path d="M35.7279 267.025C36.8065 267.872 38.584 268.199 39.8034 268.772C41.5114 269.573 42.6827 271.106 44.3532 271.996C46.243 273.002 48.509 273.43 50.75 272.921C51.0798 272.834 51.4114 272.746 51.7412 272.657C51.1262 272.817 51.3811 272.748 52.5096 272.453C52.9143 272.305 53.2994 272.1 53.656 271.871C55.068 272.538 56.5139 273.144 58.0667 273.622C60.4254 274.347 63.1442 275.031 65.5581 273.813C66.8614 273.154 67.0896 272.278 68.0059 271.388C68.0469 271.397 68.0897 271.409 68.1379 271.422C68.4606 271.507 68.7886 271.549 69.097 271.697C70.9512 272.583 72.0726 274.122 74.1799 274.696C75.205 274.974 76.5992 273.809 75.6667 272.987C73.6949 271.252 73.4186 268.605 70.928 267.22C69.6069 266.487 68.1004 266.182 66.5137 266.506C65.7293 266.667 64.9502 266.996 64.3208 267.459C64.0053 267.69 63.6844 267.999 63.417 268.277C63.3617 268.336 63.0907 268.609 62.9356 268.811C62.8054 268.762 62.6218 268.707 62.4614 268.626C61.7625 268.266 61.0993 267.839 60.4521 267.417C59.0419 266.498 57.8456 265.374 56.4746 264.425C54.6258 263.145 51.9587 262.904 49.9174 264.283C49.0581 264.863 48.5125 265.585 48.1506 266.42C48.0223 266.375 47.885 266.318 47.7281 266.24C46.2555 265.522 45.0146 264.545 43.3976 264.025C41.2582 263.34 37.9529 263.139 35.9222 264.543C34.2767 265.556 33.9629 266.176 35.7279 267.025Z" fill="#CAE7FA"/>
<path d="M354.631 183.978C354.631 183.978 353.226 193.028 350.008 203.504V203.508C349.871 203.966 349.725 204.423 349.579 204.887C347.607 211.078 345.009 217.641 341.702 223.052C341.385 223.572 341.06 224.081 340.73 224.576C339.358 226.643 337.873 228.499 336.266 230.053C323.077 242.823 226.849 272.612 169.991 277.403C127.187 281.009 105.85 281.615 97.9186 281.695C97.0076 281.702 96.1073 281.588 95.2337 281.361C94.9877 281.299 94.7398 281.225 94.4992 281.141C93.335 280.747 92.235 280.143 91.2473 279.347L80.3738 270.588L79.7088 270.054L63.6064 257.087L62.7381 256.386L56.6177 251.46C54.719 249.933 53.3462 247.783 52.708 245.344C50.6898 237.613 46.5751 220.396 48.8 216.147C49.071 215.629 49.4347 215.303 49.9089 215.211C106.656 204.131 172.746 194.122 284.051 185.41C320.05 182.591 344.064 179.478 351.923 181.229C352.304 181.314 352.647 181.411 352.95 181.519C353.702 181.786 354.16 182.104 354.405 182.515C354.64 182.904 354.69 183.379 354.631 183.978Z" fill="#D49B72"/>
<path d="M350.011 203.51C349.872 203.968 349.727 204.425 349.579 204.889C337.588 210.861 325.527 216.687 313.375 222.248C296.653 229.902 279.833 237.944 261.966 242.122C252.927 244.238 243.712 245.008 234.51 245.87C225.067 246.752 215.67 248.035 206.304 249.598C187.891 252.675 169.512 257.046 151.113 260.199C133.89 263.143 112.275 264.799 94.8262 264.539L94.8975 263.751C96.1865 263.757 101.822 263.834 103.111 263.817C121.729 263.548 140.269 261.15 158.601 257.876C176.811 254.619 192.794 250.686 211.077 247.893C220.107 246.516 231.28 245.557 240.362 244.663C249.718 243.748 259.411 241.806 268.507 239.231C286.464 234.142 303.078 226.346 319.961 218.244C328.599 214.099 337.21 209.893 345.793 205.626C347.201 204.927 348.608 204.22 350.011 203.51Z" fill="#C48B62"/>
<path d="M341.705 223.053C341.388 223.574 341.061 224.083 340.732 224.578C332.958 228.128 325.205 231.717 317.378 235.129C308.707 238.914 299.901 242.221 290.802 244.64C281.544 247.105 272.15 248.967 262.797 250.968C243.701 255.055 224.604 259.153 205.503 263.226C187.006 267.171 168.438 271.03 149.62 272.754C132.619 274.308 112.245 274.145 95.1992 273.122L95.2598 272.436C95.39 272.438 98.7167 272.606 98.8451 272.61C108.451 272.754 118.041 273.127 127.65 272.966C137.213 272.809 146.76 272.231 156.266 271.127C175.359 268.906 194.191 264.808 212.998 260.765C231.938 256.697 250.877 252.628 269.818 248.556C279.003 246.584 288.21 244.649 297.206 241.845C306.303 239.011 315.078 235.184 323.786 231.23C329.762 228.515 335.732 225.783 341.705 223.053Z" fill="#C48B62"/>
<path d="M280.101 264.405C281.406 263.363 283.069 261.502 284.845 261.601C286.831 261.713 286.146 263.969 287.467 264.996C288.722 265.972 290.297 265.403 291.598 264.867C293.481 264.09 295.287 263.071 296.998 261.931C300.391 259.674 303.422 256.881 306.511 254.195C307.996 252.905 309.49 251.601 311.072 250.444C311.591 250.066 312.261 249.455 312.88 249.911C313.372 250.273 313.498 251.245 313.554 251.813C313.855 254.928 312.063 259.096 315.518 260.998C318.447 262.611 325.074 260.572 327.167 258.632C333.748 252.531 338.424 238.67 339.289 229.067C339.38 228.059 338.599 227.354 337.927 227.907C336.096 228.621 330.888 236.266 327.966 234.188C326.115 232.873 325.076 230.758 322.969 229.745C317.913 227.314 314.342 235.097 310.835 239.019C308.799 241.298 307.337 244.254 304.964 246.173C303.933 247.005 302.652 247.664 301.329 247.664C299.924 247.666 298.906 246.8 297.786 246.023C295.495 244.436 293.179 244.343 290.931 246.139C289.769 247.069 284.329 249.373 282.573 249.602C279.036 250.065 275.916 245.171 272.713 246.834C269.555 248.473 247.564 264.64 249.486 267.152C249.675 267.4 260.973 268.331 266.565 264.269C271.855 260.428 278.591 265.61 280.101 264.405Z" fill="#B3D2E6"/>
<path d="M352.952 181.519C351.681 187.991 341.359 202.073 331.812 205.499C287.216 221.508 245.55 231.069 207.707 237.372C197.194 239.126 186.977 240.625 177.073 241.944C176.866 241.972 176.658 242.001 176.451 242.025C172.014 242.614 167.64 243.168 163.331 243.685C154.836 244.716 146.592 245.627 138.614 246.466C125.521 247.844 117.067 247.351 111.219 247.343C102.471 247.33 101.779 247.192 97.1082 245.689C90.551 243.583 58.9825 223.6 48.8008 216.147C49.0718 215.629 49.4355 215.304 49.9097 215.211C106.657 204.131 172.748 194.122 284.052 185.408C321.79 182.455 346.358 179.175 352.952 181.519Z" fill="#AD7349"/>
<path d="M204.38 210.953L230.269 231.136L202.824 236.349L181.66 213.89L204.38 210.953Z" fill="#C78562"/>
<path d="M248.922 229.396C249.275 229.326 284.75 220.977 301.198 215.66C301.506 213.292 300.961 208.288 298.859 204.312C296.472 199.799 281.931 200.274 281.931 200.274C280.722 200.388 255.367 204.209 252.459 207.94C249.87 211.271 248.925 225.499 248.922 229.396Z" fill="#565A93"/>
<path d="M270.429 212.493C269.126 213.166 267.887 213.988 266.63 214.755C265.53 215.43 264.355 216.081 263.542 217.148C262.03 219.124 261.604 222.173 261.319 224.615C261.305 224.744 261.515 224.774 261.533 224.645C261.89 222.142 262.417 218.711 264.216 216.877C265.979 215.079 268.531 214.138 270.545 212.701C270.666 212.614 270.561 212.425 270.429 212.493Z" fill="#414478"/>
<path d="M217.509 210.508L192.713 213.712C192.713 213.712 181.186 214.905 173.083 216.735C165.105 218.537 161.922 220.981 161.321 225.015C160.858 228.15 162.546 239.297 163.331 243.684C167.64 243.167 172.013 242.614 176.452 242.025C176.657 242 176.868 241.972 177.074 241.943C186.978 240.625 197.194 239.124 207.705 237.372C212.453 235.013 219.074 230.648 219.527 226.137C220.213 219.367 217.509 210.508 217.509 210.508ZM178.376 233.789C176.648 235.433 176.461 240.935 176.461 240.935C176.461 240.935 175.268 233.071 175.933 231.701C176.6 230.331 183.416 229.859 183.416 229.859C183.416 229.859 180.103 232.144 178.376 233.789Z" fill="#565A93"/>
<path d="M278.846 180.021C278.846 180.021 269.883 184.498 268.855 185.152C267.748 185.857 260.64 189.886 259.097 190.627C257.555 191.364 254.387 188.615 256.348 186.753C258.261 184.936 265.12 179.693 266.888 178.515C268.655 177.336 275.029 172.484 275.029 172.484L278.846 180.021Z" fill="#FFAE80"/>
<path d="M285.437 178.545L275.617 184.727L269.133 175.866C269.133 175.866 269.85 175.083 270.876 174.007C270.987 173.894 271.099 173.774 271.215 173.655C273.428 171.351 276.744 168.045 277.703 167.897C279.186 167.668 289.245 170.129 285.437 178.545Z" fill="#F3E3D5"/>
<path d="M275.445 179.984C273.676 178.273 272.191 176.174 270.879 174.005C270.989 173.891 271.102 173.772 271.218 173.652C272.633 175.755 274.188 177.73 275.682 179.791C275.792 179.941 275.564 180.098 275.445 179.984Z" fill="#D6C2B0"/>
<path d="M272.443 177.099L274.533 172.229C274.831 171.138 275.33 169.918 275.738 168.577C275.938 167.923 277.469 164.678 282.759 163.272C284.169 162.897 285.954 163.058 287.376 163.378C288.366 163.599 289.348 163.899 290.199 164.498C291.254 165.238 292.167 165.979 292.994 166.923C294.399 168.531 296.251 170.024 297.503 173.544C298.776 177.121 299.658 179.679 300.806 183.303C301.764 186.32 301.675 193.76 301.708 193.927C302.067 195.651 300.915 206.999 300.255 208.606C298.578 212.687 285.743 214.811 279.42 211.624C278.216 211.035 274.77 208.841 273.722 207.901C272.097 206.444 273.506 195.463 273.408 192.811C273.301 189.902 273.513 187.292 273.684 184.749V184.753L272.443 177.099Z" fill="#F3E3D5"/>
<path d="M175.966 182.702C177.492 181.87 187.073 175.525 187.073 175.525L186.483 186.336C186.483 186.336 179.346 189.309 178.223 189.826C176.421 190.656 168.033 194.119 166.039 195.641C165.35 194.159 164.036 192.827 163.1 191.616C166.642 188.723 174.626 183.434 175.966 182.702Z" fill="#FFAE80"/>
<path d="M195.844 184.063L185.393 188.942L179.963 179.313C179.963 179.313 180.856 178.55 182.095 177.534C182.232 177.426 182.373 177.313 182.514 177.195C184.969 175.206 188.44 172.527 189.378 172.502C190.874 172.462 200.579 176.197 195.844 184.063Z" fill="#F3E3D5"/>
<path d="M186.144 185.501C184.431 183.173 183.171 180.354 182.096 177.534C182.233 177.426 182.374 177.313 182.515 177.195C182.909 178.141 183.321 179.075 183.75 180.005C184.579 181.801 185.576 183.521 186.316 185.359C186.36 185.465 186.227 185.613 186.144 185.501Z" fill="#D6C2B0"/>
<path d="M332.647 252.671C332.672 252.544 332.67 252.417 332.649 252.29C332.572 251.716 332.136 251.147 331.435 251.185C328.071 251.365 321.67 255.031 318.586 256.2C317.019 256.795 315.427 256.972 313.842 256.356C312.131 255.691 310.619 254.743 308.775 254.493C305.201 254.01 301.68 255.488 298.44 256.907C295.024 258.406 291.623 259.939 288.219 261.467C288.02 259.804 286.993 258.313 285.545 257.451C283.128 256.015 280.202 256.782 277.777 257.773C275.035 258.891 272.431 260.388 270.013 262.155C267.688 263.853 265.025 266.051 263.59 268.68C263.531 268.79 263.518 268.902 263.538 268.999C263.559 269.207 263.716 269.406 263.952 269.351C268.845 268.21 279.277 263.087 278.453 265.179C278.15 267.021 278.808 269.061 280.248 270.196C283.092 272.441 287.679 270.402 290.48 269.029C294.131 267.238 297.381 264.643 301.036 262.873C302.739 262.045 304.951 261.276 306.736 262.276C307.991 262.979 309.032 264.501 308.495 266.03C308.174 266.945 309.073 267.813 309.904 267.43C317.857 263.769 325.338 259.027 332.162 253.353C332.432 253.228 332.587 252.987 332.638 252.707C332.638 252.703 332.64 252.699 332.642 252.697C332.642 252.688 332.646 252.68 332.647 252.671Z" fill="#CAE7FA"/>
<path d="M49.0224 207.332L54.7007 215.111L53.3262 216.993C49.9905 217.658 46.7832 218.8 43.5117 219.45C44.1714 215.089 48.1792 208.92 49.0224 207.332Z" fill="#EB8952"/>
<path d="M184.533 185.219C184.528 183.356 185.847 178.171 186.493 176.443C187.133 174.738 188.865 172.311 190.541 171.254C191.677 170.541 199.067 169.842 199.179 169.876C204.257 171.415 206.897 175.74 208.945 178.62C211.299 181.93 214.898 197.227 215.809 199.203C216.713 201.164 216.494 202.562 216.932 204.815C217.278 206.584 218.159 209.688 217.626 211.349C217.18 212.738 213.871 214.345 212.666 215.057C211.743 215.605 210.723 215.936 209.707 216.23C208.71 216.516 207.744 216.99 206.751 217.333C205.128 217.893 203.408 218.041 201.711 218.161C199.871 218.291 197.926 218.407 196.091 218.161C195.029 218.005 193.977 217.704 193.021 217.179C191.595 216.395 191.201 212.899 190.573 211.336C190.301 210.658 188.138 202.922 187.662 200.918C187.015 198.199 184.551 190.956 184.533 185.219Z" fill="#F3E3D5"/>
<path d="M193.338 223.903C191.391 225.368 189.237 226.541 187.2 227.861C185.301 229.087 183.425 230.355 181.573 231.656C180.608 232.329 179.573 232.998 178.81 233.935C178.054 234.866 177.756 236.018 177.551 237.2C177.278 238.767 177.119 240.356 177.073 241.944C176.866 241.972 176.658 242.001 176.451 242.025C176.413 238.401 176.996 234.566 179.831 232.425C181.872 230.887 183.994 229.455 186.112 228.041C188.405 226.507 190.73 224.836 193.217 223.684C193.359 223.617 193.466 223.807 193.338 223.903Z" fill="#414478"/>
<path d="M90.3538 205.232C89.6014 206.066 88.858 206.913 88.0949 207.735C87.298 208.594 86.4708 209.658 85.508 210.297C85.1426 210.537 84.6897 210.333 84.5756 209.986C84.5596 210.268 84.5346 210.57 84.54 210.92C84.556 211.879 84.827 212.872 84.9661 213.817C85.2139 215.499 85.221 217.059 84.8734 218.724C84.556 220.24 84.1014 221.725 83.7145 223.222C83.2403 225.046 83.1636 226.903 82.7857 228.728C82.7126 229.076 82.397 229.341 82.0832 229.385C82.0939 229.482 82.085 229.584 82.0476 229.684C81.1312 232.219 78.145 233.102 75.8451 233.313C75.4601 233.347 75.0571 233.383 74.6506 233.405C68.885 230.272 63.1621 226.88 57.7299 223.01C57.4018 222.788 57.0702 222.583 56.7333 222.388C56.1164 220.283 56.3339 217.485 56.1111 215.234C56.1111 215.228 56.1021 215.228 56.0897 215.23C55.9203 215.291 54.7115 216.248 54.7008 216.168C54.0519 215.778 53.1248 214.59 52.5775 214.039C51.5952 213.046 50.7733 211.547 50.0298 210.337C49.3328 209.206 48.7462 208.444 48.313 207.188C47.9529 206.146 49.0136 204.916 49.6572 204.014C49.7268 203.912 49.7927 203.815 49.8551 203.724C49.8569 203.719 49.8605 203.709 49.8658 203.705C51.4953 201.11 52.9287 198.209 55.4621 196.481C58.1346 194.661 61.2028 193.404 64.1837 192.287C64.6027 192.129 65.0555 192.758 64.6205 193.043C64.5046 193.12 64.3923 193.19 64.28 193.262C65.4923 193.285 66.6547 193.745 67.8884 193.624C68.7531 193.535 69.4965 192.963 70.3059 192.675C71.0369 192.417 71.7981 192.306 72.5701 192.273C74.0516 192.213 75.5528 192.414 76.9986 192.773C79.8761 193.493 81.6892 195.081 83.374 197.603C84.3421 199.05 85.4029 200.378 86.6277 201.589C86.9949 201.955 87.3675 202.303 87.7384 202.654C87.8935 202.802 88.0486 202.951 88.2037 203.099C88.735 203.611 89.252 204.132 89.7369 204.7C89.7565 204.687 89.7726 204.672 89.7886 204.655C90.1238 204.361 90.6711 204.882 90.3538 205.232Z" fill="#F3E3D5"/>
<path d="M88.2039 203.1C86.2606 205.888 83.6934 208.365 81.2848 210.445C81.1136 210.593 80.864 210.337 81.0369 210.18C82.7199 208.666 84.3013 207.035 85.765 205.282C86.4674 204.441 87.1021 203.549 87.7386 202.654C87.8937 202.802 88.0488 202.952 88.2039 203.1Z" fill="#D6C2B0"/>
<path d="M80.3748 270.59L79.7098 270.055C79.4905 264.798 79.6028 259.527 79.5885 254.279C79.5796 251.187 79.5796 248.095 79.5885 245.005C79.5992 242.077 79.4013 239.088 79.4602 236.085C79.4637 235.92 80.168 236.047 80.1786 236.212C80.5406 242.229 80.3694 248.286 80.3979 254.305C80.4229 259.724 80.5833 265.171 80.3748 270.59Z" fill="#C48B62"/>
<path d="M95.2338 281.364C94.986 281.301 94.74 281.227 94.4993 281.144C94.3281 275.882 94.4993 268.232 94.485 263.255C94.4743 260.161 94.4743 257.071 94.485 253.979C94.4957 251.053 94.2978 248.062 94.3567 245.059C94.3602 244.894 95.0644 245.023 95.0751 245.188C95.437 251.205 95.2659 257.26 95.2944 263.279C95.3158 268.327 95.3907 275.962 95.2338 281.364Z" fill="#C48B62"/>
<path d="M63.6075 257.086L62.7393 256.385C62.7019 255.591 62.6627 254.798 62.6163 254.011C62.4202 250.819 62.2419 247.627 62.0743 244.432C61.8978 241.143 61.7231 237.856 61.5698 234.565C61.4236 231.395 61.133 228.15 61.2667 224.98C61.272 224.804 61.5413 224.747 61.568 224.935C61.9959 228.008 62.0333 231.185 62.2169 234.283C62.4041 237.477 62.5789 240.673 62.7678 243.869C62.9639 247.157 63.1672 250.444 63.3633 253.731C63.431 254.841 63.522 255.963 63.6075 257.086Z" fill="#C48B62"/>
<path d="M110.533 232.769C110.533 232.769 110.125 241.615 111.222 247.344C117.071 247.352 125.217 247.604 138.333 246.496C143.136 246.09 148.21 245.336 153.555 244.834C152.549 242.71 151.469 240.495 150.736 239.277C149.301 236.882 143.922 228.627 138.95 228.355C137.625 227.271 134.616 226.278 132.915 226.422C129.75 226.695 126.611 228.936 125.577 230.145C117.071 231.466 110.533 232.769 110.533 232.769Z" fill="#593231"/>
<path d="M125.389 230.8C123.501 233.549 121.905 236.554 120.222 239.447C120.114 239.633 120.388 239.799 120.497 239.617C122.223 236.755 124.084 233.926 125.597 230.931C125.672 230.781 125.478 230.669 125.389 230.8Z" fill="#4A1F15"/>
<path d="M138.511 234.065C136.957 238.026 135.68 242.136 134.389 246.202C134.343 246.347 134.553 246.404 134.603 246.264C136.058 242.261 137.554 238.235 138.743 234.131C138.788 233.97 138.568 233.919 138.511 234.065Z" fill="#4A1F15"/>
<path d="M75.5577 222.075C75.5577 222.075 80.8456 221.359 85.4631 224.464C85.4863 224.436 85.5184 224.404 85.5451 224.373C86.3616 225.514 87.3297 226.494 88.3174 227.293C94.9513 230.934 102.826 233.002 107.536 239.566C107.715 239.803 107.88 240.048 108.039 240.298C100.35 241.103 88.7471 242.118 85.5576 240.288C73.7392 233.507 73.0671 232.99 67.7597 230.15C66.6632 224.421 75.5577 222.075 75.5577 222.075Z" fill="#565A93"/>
<path d="M83.9939 228.022C81.4123 231.517 72.9849 233.173 72.9849 233.173L64.3329 228.167L62.8424 226.856L58.1946 223.34C58.1946 223.34 56.1479 220.597 55.9625 217.533C55.8805 216.171 56.1711 216.057 56.1711 216.057C62.8906 211.213 54.9838 196.829 54.9838 196.829C54.6201 196.359 54.7217 196.255 55.4526 195.906C53.3863 194.282 52.3844 193.257 52.8479 191.266C53.6662 187.75 69.1447 186.194 71.375 187.464C73.2096 188.504 75.3436 190.815 75.4773 192.075C75.7537 192.23 76.0086 192.405 76.2386 192.604C80.4817 196.243 82.7067 206.156 83.6819 214.579C83.7407 215.066 83.7924 215.547 83.8405 216.021C84.0384 217.984 84.1704 219.837 84.2417 221.474C84.2684 222.08 84.2898 222.654 84.3005 223.198C84.3594 225.871 84.2346 227.694 83.9939 228.022Z" fill="#EA6E29"/>
<path d="M74.8172 213.554C74.4553 212.292 74.0738 211.036 73.6655 209.791C72.8686 207.366 71.9576 204.996 70.9271 202.671C70.8825 202.571 70.7167 202.643 70.756 202.749C71.6349 205.21 72.4853 207.684 73.2697 210.179C73.637 211.348 73.9864 212.521 74.3163 213.702C74.6443 214.874 74.8226 216.187 75.377 217.263C75.4483 217.402 75.6605 217.339 75.6569 217.182C75.6391 215.958 75.1506 214.721 74.8172 213.554Z" fill="#D45915"/>
<path d="M83.8409 216.02C81.3646 217.422 78.414 218.011 75.7255 218.544C71.9245 219.294 68.0719 219.779 64.3761 221.033C63.8894 221.2 63.7164 220.427 64.1693 220.237C67.6333 218.761 71.2988 218.079 74.9446 217.31C77.9897 216.672 80.8155 215.686 83.6823 214.578C83.7411 215.065 83.7928 215.546 83.8409 216.02Z" fill="#593231"/>
<path d="M84.3007 223.197C80.9651 224.919 77.1445 225.984 73.6858 226.823C70.6086 227.568 67.478 228.019 64.3331 228.166L62.5449 227.132C66.2496 226.829 69.9276 226.228 73.5449 225.317C75.8377 224.739 78.0911 224.017 80.3019 223.165C81.6318 222.653 82.9315 222.047 84.2419 221.473C84.2686 222.079 84.29 222.653 84.3007 223.197Z" fill="#593231"/>
<path d="M354.408 182.515C352.883 187.845 344.982 200.652 336.094 204.93C331.202 207.283 312.509 215.699 246.807 229.861C181.105 244.02 108.808 250.613 104.443 250.424C100.081 250.236 53.7236 221.86 51.7946 220.701C49.8638 219.543 49.4555 217.058 52.185 217.545C53.4633 217.774 104.445 247.227 104.445 247.227C123.154 246.47 208.157 235.053 244.965 226.853C281.777 218.653 322.771 207.369 333.058 202.96C343.734 198.386 351.883 181.31 351.883 181.31C351.897 181.282 351.912 181.253 351.926 181.229C352.306 181.314 352.648 181.41 352.951 181.518C353.703 181.786 354.16 182.104 354.408 182.515Z" fill="#BF845A"/>
<path d="M53.3959 216.9L53.1267 217.268L71.0459 218.933C78.1682 220.176 80.8603 226.548 80.1062 229.195C79.352 231.843 71.4149 224.613 71.4149 224.613C71.4149 224.613 70.987 224.117 63.41 224.947C55.833 225.777 44.8419 225.424 43.6795 222.412C43.3426 221.542 43.3354 220.466 43.5369 219.293C46.8101 218.645 50.0602 217.565 53.3959 216.9Z" fill="#EB8952"/>
<path d="M77.5221 221.959C77.5221 221.959 71.161 234.312 72.844 235.646C74.5252 236.978 86.3382 237.319 86.3382 237.319L84.2291 230.903L81.587 230.706L83.2807 226.516L77.5221 221.959Z" fill="#FFAE80"/>
<path d="M118.137 244.36C112.455 245.073 106.762 244.781 101.018 244.978C96.1508 245.109 95.5767 241.986 91.2088 240.035C90.608 238.889 86.5717 237.977 86.1848 236.875C86.0012 236.35 83.3448 228.195 83.1754 227.663C81.036 226.379 77.3866 222.879 77.2332 221.718C77.1958 221.441 77.5417 220.539 78.1175 219.338C78.1906 219.19 78.2655 219.037 78.3421 218.88C79.9663 215.621 83.0203 210.655 85.0456 209.477C86.5182 208.622 88.9161 208.677 90.2318 208.8C91.2801 208.897 99.1584 212.22 100.034 212.459C105.159 213.851 108.351 216.352 109.77 218.707C113.562 224.995 112.538 227.853 114.427 232.708C115.202 234.702 115.896 235.643 117.081 237.316C117.413 238.195 117.735 239.078 118.04 239.969C117.908 241.45 118.024 242.913 118.137 244.36Z" fill="#F3E3D5"/>
<path d="M87.6858 228.064C85.582 227.693 83.9311 225.618 82.4995 224.102C81.0198 222.536 79.5579 220.948 78.1191 219.337C78.1922 219.19 78.2671 219.036 78.3438 218.879C79.6328 220.215 80.9021 221.575 82.1715 222.931C83.8063 224.676 85.5464 226.886 87.7571 227.782C87.9229 227.848 87.8587 228.094 87.6858 228.064Z" fill="#D6C2B0"/>
<path d="M123.352 134.551L166.797 203.807C167.124 204.326 167.019 205.023 166.559 205.411C166.553 205.417 166.548 205.421 166.543 205.426C166.024 205.864 165.266 205.735 164.899 205.152L122.066 136.904C121.721 136.351 121.861 135.606 122.382 135.239L123.352 134.551Z" fill="#C2C2C2"/>
<path d="M139.173 168.643C133.033 166.983 128.239 161.508 124.681 155.834L119.088 146.919C116.526 142.835 117.567 137.321 121.413 134.603C125.258 131.882 130.452 132.988 133.014 137.071L138.605 145.985C142.165 151.66 144.481 158.293 144.279 165.108C144.269 165.538 144.179 166.37 144.461 166.819L145.381 168.274C145.747 168.844 142.411 171.169 142.026 170.57L141.133 169.157C140.849 168.706 139.671 168.778 139.173 168.643Z" fill="#B9D386"/>
<path d="M130.097 149.289C129.945 150.528 130.646 151.621 131.341 152.718C131.518 152.994 131.876 152.701 131.721 152.437C130.505 150.348 130.473 149.319 130.787 148.999C131.281 148.491 132.388 149.808 133.028 150.62C133.629 151.384 139.649 161.217 142.11 165.209C142.249 165.433 142.57 165.213 142.438 164.985C140.593 161.78 138.583 158.498 136.677 155.279C136.039 154.201 135.01 152.299 134.03 151.062C133.304 150.152 132.352 148.563 131.206 148.233C130.584 148.053 130.175 148.661 130.097 149.289Z" fill="#778549"/>
<path d="M130.638 151.706C133.974 157.132 137.735 162.414 141.217 167.937C141.422 168.263 141.923 167.927 141.704 167.605C138.071 162.287 134.81 156.632 130.996 151.459C130.829 151.232 130.485 151.457 130.638 151.706Z" fill="#778549"/>
<path d="M245.795 281.186L244.274 283.014L168.064 211.587C167.577 211.13 167.549 210.333 168.002 209.838C168.007 209.833 168.012 209.827 168.018 209.821C168.44 209.359 169.13 209.33 169.587 209.759L245.795 281.186Z" fill="#C2C2C2"/>
<path d="M255.712 284.771C255.712 286.855 255.02 288.954 253.617 290.642C253.48 290.809 253.334 290.968 253.187 291.126C251.832 290.491 250.057 290.383 248.844 290.491C247.463 290.614 245.985 291.091 244.591 290.91C243.366 290.749 242.663 289.813 242.016 288.784C240.535 286.421 239.048 284.292 236.748 282.744C234.986 281.558 233.036 280.961 231.023 281.031C227.579 277.119 224.807 272.507 224.25 267.358C224.19 266.818 224.418 265.586 224.036 265.226L222.838 264.097C222.69 263.953 222.808 263.578 223.065 263.133C223.421 262.511 224.038 261.751 224.564 261.282C224.949 260.931 225.29 260.738 225.434 260.878L226.668 262.041C227.049 262.401 227.837 262.416 228.24 262.462C234.626 263.172 240.503 266.505 245.316 271.016L252.881 278.104C254.754 279.862 255.712 282.308 255.712 284.771Z" fill="#B9D386"/>
<path d="M242.349 278.894C242.209 277.653 241.279 276.773 240.35 275.892C240.115 275.671 239.835 276.048 240.045 276.264C241.707 277.971 241.976 278.962 241.748 279.354C241.386 279.973 240.008 278.984 239.2 278.365C238.442 277.781 230.332 269.815 227.023 266.588C226.84 266.406 226.578 266.704 226.758 266.889C229.288 269.517 231.992 272.175 234.584 274.797C235.453 275.678 236.89 277.255 238.127 278.196C239.04 278.89 240.329 280.182 241.516 280.205C242.163 280.218 242.418 279.521 242.349 278.894Z" fill="#778549"/>
<path d="M241.268 276.688C236.779 272.298 231.912 268.154 227.261 263.708C226.986 263.446 226.578 263.899 226.867 264.155C231.614 268.365 236.084 272.997 240.976 277.017C241.192 277.195 241.471 276.887 241.268 276.688Z" fill="#778549"/>
<path d="M205.484 130.611L259.257 198.971C259.696 199.524 259.576 200.358 259.007 200.754C259 200.759 258.995 200.763 258.988 200.769C258.505 201.104 257.863 201.002 257.492 200.532L204.449 133.103C204.048 132.593 204.111 131.831 204.594 131.403L205.484 130.611Z" fill="#C2C2C2"/>
<path d="M223.259 160.847C216.986 159.911 211.657 155.027 207.535 149.8L201.058 141.587C198.091 137.824 198.558 132.223 202.099 129.073C205.641 125.924 210.917 126.418 213.883 130.179L220.36 138.392C224.484 143.619 227.47 149.944 227.971 156.74C228.003 157.17 228.002 158.005 228.328 158.42L229.392 159.76C229.815 160.285 226.738 162.982 226.294 162.431L225.26 161.13C224.932 160.715 223.767 160.923 223.259 160.847Z" fill="#B9D386"/>
<path d="M211.616 142.309C211.594 143.558 212.404 144.562 213.211 145.568C213.416 145.823 213.739 145.49 213.561 145.246C212.133 143.315 211.992 142.294 212.27 141.938C212.707 141.377 213.946 142.555 214.666 143.287C215.342 143.974 222.357 153.034 225.222 156.712C225.381 156.916 225.679 156.661 225.523 156.452C223.354 153.482 221.015 150.458 218.783 147.485C218.034 146.488 216.814 144.719 215.709 143.607C214.892 142.79 213.78 141.322 212.607 141.129C211.969 141.023 211.626 141.674 211.616 142.309Z" fill="#778549"/>
<path d="M212.406 144.65C216.291 149.646 220.582 154.453 224.622 159.53C224.861 159.829 225.322 159.437 225.069 159.144C220.903 154.288 217.07 149.051 212.737 144.364C212.547 144.157 212.228 144.421 212.406 144.65Z" fill="#778549"/>
<path d="M333.753 264.054L332.316 265.954L263.743 207.49C263.214 207.037 263.171 206.191 263.66 205.685C263.665 205.679 263.669 205.673 263.676 205.668C264.088 205.239 264.737 205.205 265.186 205.588L333.753 264.054Z" fill="#C2C2C2"/>
<path d="M342.308 266.283C342.308 267.515 342.069 268.756 341.577 269.913C340.859 269.964 340.14 269.995 339.467 269.709C338.429 269.269 337.555 268.494 336.459 268.174C335.157 267.801 334.015 268.244 332.724 268.28C331.85 268.303 331.018 267.968 330.239 267.572C328.495 266.685 326.83 265.448 324.897 265.061C323.911 264.864 322.931 264.875 321.956 265.139C321.339 265.304 320.758 265.624 320.169 265.916C315.42 261.729 311.077 256.374 310.111 250.029C310.027 249.491 310.2 248.25 309.802 247.911L308.556 246.841C308.401 246.708 308.504 246.323 308.745 245.863C309.069 245.225 309.656 244.433 310.159 243.938C310.529 243.571 310.859 243.366 311.009 243.497L312.289 244.597C312.688 244.937 313.475 244.918 313.879 244.942C320.29 245.334 326.307 248.375 331.315 252.642L339.181 259.349C341.239 261.103 342.308 263.68 342.308 266.283Z" fill="#B9D386"/>
<path d="M329.237 260.53C329.018 259.303 328.034 258.494 327.053 257.681C326.804 257.472 326.549 257.87 326.772 258.071C328.539 259.655 328.87 260.625 328.667 261.032C328.344 261.677 326.907 260.79 326.06 260.227C325.269 259.7 316.672 252.332 313.167 249.348C312.973 249.182 312.73 249.494 312.921 249.667C315.613 252.109 318.48 254.568 321.231 256.999C322.152 257.815 323.686 259.287 324.982 260.138C325.934 260.763 327.303 261.961 328.49 261.898C329.136 261.864 329.346 261.152 329.237 260.53Z" fill="#778549"/>
<path d="M328.019 258.407C323.264 254.349 318.146 250.564 313.221 246.458C312.931 246.217 312.553 246.701 312.856 246.934C317.862 250.795 322.613 255.097 327.748 258.758C327.976 258.921 328.236 258.593 328.019 258.407Z" fill="#778549"/>
<path d="M95.5605 227.922C96.2576 223.328 101.727 214.806 108.322 218.824C114.915 222.841 111.576 230.362 109.308 232.683C106.491 235.567 101.18 234.976 101.18 234.976C101.18 234.976 94.8616 232.519 95.5605 227.922ZM83.1788 227.665C84.999 235.656 86.0117 237.547 86.0117 237.547C86.0117 237.547 100.075 246.613 101.841 246.916C101.9 246.925 107.75 247.054 107.798 247.035L121.472 246.232C121.472 246.232 115.17 221.249 111.497 217.669C107.825 214.09 99.3811 207.943 92.1303 207.667C84.8814 207.392 82.8489 209.92 81.6901 213.711C81.3995 214.66 82.0271 215.649 82.0271 215.649C82.0271 215.649 81.5065 220.329 83.1788 227.665Z" fill="#EA6E29"/>
<path d="M129.913 248.328C130.628 247.202 129.901 240.944 123.902 241.005C117.904 241.066 105.013 241.719 105.013 241.719L107.098 233.182L97.1236 229.658C97.1236 229.658 93.7594 247.367 96.0004 249.874C98.2147 252.348 103.417 250.406 109.721 249.461C115.287 248.625 120.635 248.011 120.635 248.011C120.635 248.011 127.858 251.556 129.913 248.328Z" fill="#FFAE80"/>
<path d="M196.502 179.813C199.902 175.698 204.662 175.658 206.948 177.367C211.673 180.904 211.913 190.43 205.071 190.519C201.871 190.561 197.672 191.031 196.21 189.608C194.035 187.488 193.958 182.895 196.502 179.813ZM208.116 173.316C209.483 172.507 209.751 171.387 209.257 170.45C207.854 167.797 202.056 166.509 198.358 166.333C195.898 166.217 192.876 168.356 191.188 170.016C190.02 170.342 189.04 170.739 188.301 171.081C185.306 172.473 183.506 179.481 183.709 184.633C183.83 187.658 184.994 194.532 186.449 200.652C186.538 201.023 186.629 201.391 186.717 201.758C187.289 204.06 187.893 206.212 188.492 207.954C188.585 208.226 188.679 208.49 188.772 208.742C189.084 209.579 189.391 210.297 189.687 210.852C192.22 215.593 203.061 213.649 207.251 212.211C213.464 210.083 217.923 207.868 218.494 204.344C219.312 199.32 214.876 180.08 208.116 173.316Z" fill="#EA6E29"/>
<path d="M292.741 189.628C289.61 189.306 286.898 188.035 285.779 186.297C284.107 183.711 284.317 178.132 287.449 175.739C291.632 172.542 296.014 173.367 297.879 175.58C301.732 180.157 299.551 190.325 292.741 189.628ZM297.567 171.504C299.072 171.046 299.897 170.187 299.879 169.108C299.831 166.26 294.024 163.948 290.457 162.889C288.084 162.186 284.716 162.639 282.719 163.852C281.509 163.892 280.47 164.041 279.682 164.199C276.469 164.839 273.228 171.237 272.333 176.305C271.85 179.047 271.536 185.17 271.58 191.047C271.586 191.362 271.588 191.67 271.591 191.981C271.629 194.433 271.727 196.803 271.907 198.826C271.937 199.196 271.973 199.554 272.012 199.899C272.16 201.263 272.354 202.424 272.593 203.277C274.055 208.506 285.032 209.203 289.416 208.807C295.923 208.218 300.737 207.125 302.04 203.83C303.903 199.131 302.719 179.712 297.567 171.504Z" fill="#EA6E29"/>
<path d="M209.813 196.031C206.356 199.491 201.313 201.327 196.688 202.033C193.334 202.543 189.992 202.437 186.718 201.757C186.629 201.389 186.537 201.022 186.449 200.648C189.785 201.257 193.228 201.253 196.558 200.692C201.254 199.898 205.29 197.831 209.465 195.55C209.749 195.393 210.063 195.783 209.813 196.031Z" fill="#593231"/>
<path d="M211.303 204.949C204.612 208.714 196.253 209.488 188.772 208.742C188.679 208.49 188.585 208.229 188.49 207.954C192.263 208.1 196.076 207.861 199.799 207.228C203.63 206.576 207.31 205.353 211.057 204.326C211.403 204.231 211.63 204.763 211.303 204.949Z" fill="#593231"/>
<path d="M177.965 210.301C180.819 208.931 191.974 202.771 193.222 200.583C194.796 197.821 196.727 191.447 196.727 191.447L206.497 192.571C206.497 192.571 203.498 201.832 200.521 205.479C197.624 209.026 182.524 213.711 180.118 214.478C178.872 213.173 178.546 211.758 177.965 210.301Z" fill="#FFAE80"/>
<path d="M292.373 193.97C288.719 195.408 284.358 195.298 280.551 194.747C277.46 194.298 274.44 193.332 271.591 191.981C271.587 191.67 271.586 191.359 271.582 191.047C274.577 192.328 277.708 193.139 280.938 193.54C284.782 194.018 288.456 193.495 292.281 193.235C292.703 193.207 292.719 193.834 292.373 193.97Z" fill="#593231"/>
<path d="M293.065 200.59C286.574 204.165 278.761 202.479 272.013 199.898C271.974 199.554 271.939 199.196 271.908 198.824C274.811 199.787 277.788 200.56 280.787 200.908C284.887 201.388 288.8 200.889 292.794 199.908C293.17 199.815 293.43 200.391 293.065 200.59Z" fill="#593231"/>
<path d="M283.857 197.005C285.347 194.677 286.56 184.018 286.56 184.018L296.01 184.078C296.01 184.078 293.178 197.009 290.491 201.321C288.769 204.089 277.672 209.856 275.18 211.133C274.385 209.402 273.823 208.026 272.852 206.306C274.62 204.756 282.591 198.983 283.857 197.005Z" fill="#FFAE80"/>
<path d="M198.101 173.063C198.101 173.063 192.082 176.793 191.055 177.646C190.216 178.341 189.048 179.923 189.048 179.923C189.048 179.923 189.005 178.201 189.446 175.961C189.888 173.722 190.503 171.873 190.503 171.873C190.503 171.873 201.697 168.839 198.101 173.063Z" fill="#F3E3D5"/>
<path d="M289.303 168.918C289.303 168.918 286.386 170.902 283.965 172.76C282.858 173.611 281.854 174.437 281.283 175.032C280.483 175.866 278.158 178.151 278.158 178.151C278.158 178.151 278.265 176.48 278.707 174.244C278.895 173.289 279.392 171.997 279.898 170.83C280.583 169.263 281.285 167.92 281.285 167.92C281.285 167.92 292.899 164.695 289.303 168.918Z" fill="#FFAE80"/>
<path d="M190.406 170.176C190.406 170.176 190.499 171.599 190.547 172.792C190.592 173.914 193.507 174.647 195.658 174.183C198.991 173.463 199.8 170.916 199.62 169.816C199.534 169.293 199.365 167.616 198.898 163.808C198.832 163.27 191.046 168.859 190.406 170.176Z" fill="#FFAE80"/>
<path d="M183.121 162.286C183.251 161.678 183.341 161.35 183.355 160.714C183.367 160.098 183.606 159.378 183.838 158.793C184.086 158.169 184.218 157.366 184.357 156.703C184.51 155.97 185.771 156.51 185.858 157.283C185.99 158.431 185.328 159.395 185.444 160.479C185.496 160.969 185.648 161.384 185.541 161.888C185.505 162.055 186.881 163.52 186.794 163.686C187.946 165.261 184.999 165.63 183.695 165.119C183.239 164.939 183.011 162.813 183.121 162.286Z" fill="#612F26"/>
<path d="M184.704 161.215C184.736 159.817 184.596 159.169 184.596 158.925C184.592 158.313 184.569 157.794 184.549 157.413C184.528 157.195 184.512 156.973 184.505 156.752C184.348 151.617 188.14 147.32 192.975 147.153C197.81 146.987 201.857 151.013 202.014 156.147C202.101 158.993 200.973 161.581 199.127 163.352C198.562 164.487 197.995 165.446 197.614 166.069C196.453 167.97 194.301 169.377 192.627 170.34C191.399 171.045 188.211 171.886 187.059 171.211C186.25 170.738 184.742 166.28 184.59 163.928C184.546 163.237 184.681 162.185 184.704 161.215Z" fill="#FFAE80"/>
<path d="M187.279 165.092C187.137 164.941 186.942 164.884 186.766 164.786C186.595 164.689 186.443 164.57 186.306 164.427C186.721 163.132 187.021 161.788 187.365 160.471C187.399 160.345 187.226 160.284 187.183 160.407C186.725 161.735 186.208 163.054 185.83 164.412C185.807 164.49 185.817 164.59 185.876 164.651C186.19 164.964 186.739 165.471 187.208 165.329C187.301 165.301 187.356 165.174 187.279 165.092Z" fill="#DD8958"/>
<path d="M192.426 159.712C191.816 159.178 191.294 159.073 190.661 158.97C190.355 158.921 190.054 158.897 189.76 158.915C189.463 158.933 189.015 158.922 188.772 159.096C188.56 159.251 188.571 159.624 188.817 159.926C189.314 160.53 190.537 159.992 191.002 160.086C191.364 160.16 191.746 160.288 192.164 160.323C192.487 160.351 192.671 159.926 192.426 159.712Z" fill="#612F26"/>
<path d="M186.531 159.61C186.149 159.918 185.59 159.866 185.13 159.861C184.995 159.859 184.756 159.875 184.606 159.894C184.352 159.686 184.461 159.186 184.653 158.911C184.734 158.883 185.222 158.705 185.505 158.683C185.793 158.659 186.297 158.65 186.54 158.806C186.751 158.945 186.818 159.375 186.531 159.61Z" fill="#612F26"/>
<path d="M190.465 171.146C190.465 171.146 192.697 170.718 193.957 169.441C195.22 168.164 195.578 167.709 195.578 167.709C195.578 167.709 195.036 169.865 193.387 170.776C191.761 171.674 190.504 171.873 190.504 171.873L190.465 171.146Z" fill="#DD8958"/>
<path d="M186.044 167.087C186.539 167.177 186.931 167.216 187.49 167.332C188.102 167.459 188.542 167.393 189.162 167.372C189.473 167.087 189.384 167.81 189.147 167.857C188.076 168.074 186.979 167.84 185.851 167.34C185.707 167.278 185.851 166.808 186.044 167.087Z" fill="#DD8958"/>
<path d="M203.651 160.232C203.55 159.774 204.375 154.238 202.018 150.553C201.38 149.551 200.442 149.003 199.506 148.262C198.886 147.775 198.103 147.396 197.369 147.294C196.64 147.071 195.882 146.942 195.11 146.915C194.056 146.881 192.931 146.94 191.853 147.169C188.79 147.647 186.267 149.6 184.778 151.809C183.871 153.156 184.055 158.192 184.29 158.472C184.324 158.45 185.593 154.954 188.679 154.545C188.688 154.543 188.786 155.962 190.936 157.286C192.468 158.228 195.015 160.124 195.978 160.16C196.19 160.168 196.57 160.299 196.971 160.617C197.078 160.704 197.581 160.926 197.69 161.032C197.488 161.752 196.36 163.133 196.228 163.383C196.647 165.789 196.028 167.273 197.194 167.161C198.52 167.036 199.677 166.958 200.986 165.789C201.507 165.325 201.524 164.901 202.193 164.734C202.477 164.662 202.953 164.187 203.165 163.275C203.291 162.966 203.68 160.354 203.651 160.232Z" fill="#612F26"/>
<path d="M196.078 160.123C196.078 160.123 197.342 158.497 198.274 160.275C198.893 161.451 197.727 163.961 195.846 164.443C195.454 164.543 196.727 162.279 196.078 160.123Z" fill="#FFAE80"/>
<path d="M196.699 162.259C196.863 161.975 197.102 161.782 197.191 161.444C197.268 161.149 197.227 160.679 196.99 160.452C196.81 160.281 197.07 160.001 197.259 160.128C197.694 160.421 197.794 160.98 197.714 161.499C197.637 161.99 197.28 162.594 196.746 162.536C196.614 162.521 196.63 162.378 196.699 162.259Z" fill="#DD8958"/>
<path d="M188.464 149.612C188.33 149.618 188.346 149.839 188.48 149.833C189.007 149.811 189.553 149.896 190.074 149.832C190.145 149.822 190.143 149.727 190.081 149.707C189.578 149.544 188.983 149.593 188.464 149.612Z" fill="#4A1F15"/>
<path d="M187.608 151.178C187.248 151.216 186.892 151.286 186.537 151.367C186.391 151.401 186.41 151.64 186.565 151.619C186.906 151.572 187.247 151.54 187.589 151.526C187.892 151.515 188.24 151.555 188.525 151.441C188.616 151.403 188.621 151.256 188.53 151.216C188.254 151.098 187.901 151.146 187.608 151.178Z" fill="#4A1F15"/>
<path d="M193.884 149.621C191.914 149.593 190.047 151.08 189.085 152.816C189.02 152.933 189.19 153.019 189.256 152.911C189.785 152.062 190.505 151.368 191.32 150.84C192.13 150.319 193.01 150.067 193.927 149.853C194.059 149.822 194.002 149.623 193.884 149.621Z" fill="#4A1F15"/>
<path d="M198.688 156.868C198.085 156.681 198.025 156.095 197.643 155.658C197.265 155.226 196.729 155.284 196.231 155.389C195.957 155.445 195.595 155.531 195.349 155.341C195.108 155.157 194.999 154.744 194.846 154.489C194.547 153.985 194.161 153.547 193.714 153.189C193.643 153.13 193.548 153.257 193.614 153.32C194.158 153.816 194.513 154.402 194.784 155.099C194.999 155.65 195.39 155.889 195.951 155.843C196.244 155.819 196.534 155.711 196.829 155.714C197.221 155.722 197.41 155.959 197.588 156.296C197.8 156.696 198.155 157.361 198.684 157.152C198.806 157.105 198.831 156.912 198.688 156.868Z" fill="#4A1F15"/>
<path d="M198.547 154.127C198.033 153.902 197.479 153.764 196.946 153.61C196.812 153.572 196.757 153.781 196.885 153.828C197.306 153.985 197.716 154.159 198.131 154.332C198.499 154.483 198.75 154.643 198.985 154.978C199.055 155.075 199.205 154.995 199.205 154.885C199.203 154.491 198.852 154.264 198.547 154.127Z" fill="#4A1F15"/>
<path d="M87.9558 205.778C90.992 210.518 98.3408 211.286 99.4069 211.147C100.471 211.009 105.506 210.115 105.659 209.004C105.754 208.345 105.731 207.157 105.604 205.695C105.588 205.524 105.57 205.346 105.552 205.168C105.133 200.994 103.923 194.977 102.074 192.273C99.4729 188.465 93.7536 187.654 88.7474 191.646C83.7395 195.638 84.9161 201.039 87.9558 205.778Z" fill="#FFAE80"/>
<path d="M104.432 198.502C104.432 198.502 106.493 201.073 106.437 201.566C106.384 202.058 105.221 203.214 105.221 203.214L104.432 198.502Z" fill="#FFAE80"/>
<path d="M99.9863 209.991L99.9061 213.729C99.9061 213.729 92.3897 215.224 89.867 212.927L89.7422 206.092C89.7422 206.092 97.1177 203.866 99.9863 209.991Z" fill="#FFAE80"/>
<path d="M85.3728 196.981C85.1696 196.46 85.0661 195.899 85.1464 195.267C85.2516 194.429 85.6866 193.651 86.3533 193.175C86.5905 193.006 86.8846 192.9 87.1521 192.796C87.1841 192.491 87.2091 192.154 87.2965 191.919C87.5675 191.193 88.0114 190.549 88.6193 190.094C89.4626 189.469 90.3487 189.312 91.2757 189.196C91.29 189.147 91.306 189.1 91.3256 189.058C91.5949 188.459 92.0762 187.997 92.6128 187.681C93.0675 187.41 93.5684 187.273 94.0855 187.237C94.2406 187.228 95.2015 187.234 95.624 187.381C95.7738 187.298 95.9325 187.22 96.0769 187.162C96.5725 186.963 97.1287 186.868 97.6565 186.936C98.4712 187.04 98.9187 187.413 99.3448 187.906C99.4571 187.895 99.5873 187.893 99.6514 187.889C100.042 187.866 100.479 187.923 100.841 188.088C101.208 188.253 101.514 188.497 101.766 188.831C102.361 188.793 102.932 188.778 103.583 189.111C104.577 189.623 105.257 190.687 105.348 191.853C105.406 192.607 105.164 193.503 104.642 194.069C104.533 194.744 104.219 195.346 103.629 195.657C103.048 195.962 102.335 196.326 101.677 197.008C101.097 197.608 100.757 198.266 100.68 198.635C100.436 199.814 100.835 201.523 101.087 202.125C101.172 202.328 100.199 203.148 100.049 202.902C99.7067 202.334 98.6816 200.346 97.7527 200.026C96.8239 199.706 96.1179 200.259 96.1607 201.017C96.2017 201.777 97.332 202.322 98.0273 206.068C98.1592 206.78 95.132 209.179 93.0585 209.588C91.1705 209.961 89.8049 209.698 89.8049 209.698C89.8049 209.698 89.4305 208.18 89.2469 207.705C89.2112 207.612 86.5833 203.916 86.0984 202.728C85.3193 200.814 85.1499 198.542 85.3728 196.981Z" fill="#B06248"/>
<path d="M91.7205 202.211C92.0397 203.323 92.3267 204.353 92.9542 205.323C93.038 205.454 92.8615 205.613 92.7724 205.483C92.1288 204.545 91.5779 203.421 91.5333 202.245C91.528 202.116 91.6831 202.085 91.7205 202.211Z" fill="#8F4B35"/>
<path d="M92.8361 202.235C93.1143 202.855 93.2979 203.506 93.6188 204.107C93.6919 204.245 93.4887 204.334 93.4138 204.207C93.0697 203.624 92.7416 202.98 92.6917 202.282C92.6846 202.193 92.7969 202.146 92.8361 202.235Z" fill="#8F4B35"/>
<path d="M90.3543 202.53C90.3614 202.424 90.4987 202.4 90.5308 202.506C90.6092 202.76 90.627 203.029 90.6877 203.288C90.7536 203.578 90.8463 203.859 90.9604 204.131C90.9961 204.215 90.8873 204.287 90.8445 204.203C90.5932 203.718 90.3097 203.099 90.3543 202.53Z" fill="#8F4B35"/>
<path d="M103.588 198.02C103.823 197.957 104.123 197.557 104.162 197.438C104.208 197.298 104.11 196.339 103.855 196.366C103.622 196.39 103.26 196.891 103.108 197.275C102.957 197.66 102.907 198.2 103.588 198.02Z" fill="#B06248"/>
<path d="M103.63 205.65C104.24 205.925 105.082 205.856 105.656 205.862C105.656 205.862 105.543 205.664 105.585 205.49C105.229 205.49 104.336 205.498 103.794 205.371C103.632 205.335 103.488 205.585 103.63 205.65Z" fill="#DD8958"/>
<path d="M97.9998 200.157C97.9998 200.157 95.7249 199.11 95.6357 201.65C95.5769 203.333 98.2155 205.424 100.567 204.826C101.056 204.703 98.4294 202.948 97.9998 200.157Z" fill="#FFAE80"/>
<path d="M98.4526 202.912C98.1174 202.695 97.7466 202.623 97.4703 202.301C97.226 202.018 97.021 201.469 97.1636 201.073C97.2706 200.777 96.8338 200.622 96.6912 200.876C96.3631 201.467 96.5503 202.149 96.9158 202.676C97.2635 203.178 97.9837 203.634 98.5471 203.248C98.6879 203.153 98.5934 203.003 98.4526 202.912Z" fill="#DD8958"/>
<path d="M94.5671 198.848C95.3479 198.757 96.0557 198.63 96.6868 198.086C97.1112 197.721 97.4089 197.022 97.9758 196.87C98.5374 196.722 98.9653 197.253 99.5001 197.294C100.513 197.372 100.996 196.218 101.308 195.388C101.342 195.299 101.465 195.364 101.435 195.451C101.185 196.179 100.893 196.993 100.197 197.365C99.6053 197.679 99.2238 197.437 98.6658 197.222C97.9919 196.965 97.6941 197.279 97.277 197.798C97.0559 198.071 96.8099 198.31 96.5246 198.505C95.9595 198.888 95.2303 199.132 94.5599 198.998C94.4815 198.983 94.4868 198.857 94.5671 198.848Z" fill="#8F4B35"/>
<path d="M94.7982 193.036C95.6415 192.218 96.8805 191.918 97.9895 191.846C99.216 191.767 101.329 191.689 101.243 189.84C101.24 189.76 101.352 189.751 101.361 189.831C101.5 191.037 100.496 191.767 99.4959 191.981C98.7721 192.134 98.0287 192.081 97.3013 192.206C96.4099 192.364 95.6771 192.784 94.8713 193.182C94.7839 193.226 94.7394 193.095 94.7982 193.036Z" fill="#8F4B35"/>
<path d="M93.9247 192.449C94.7537 191.054 96.4724 190.783 97.8844 190.569C97.9842 190.554 97.9967 190.717 97.8986 190.736C96.4349 191.018 95.1228 191.376 94.062 192.542C94.0014 192.61 93.8712 192.54 93.9247 192.449Z" fill="#8F4B35"/>
<path d="M77.1298 191.108C76.7714 188.774 76.3311 187.614 76.2152 185.246C76.1706 184.336 76.1475 183.554 75.8212 182.699C75.5609 182.025 74.871 180.648 74.6748 179.977C74.2095 178.385 74.2345 178.005 74.0205 177.415C73.9564 177.239 73.2593 177.249 73.1149 177.518C71.8651 179.831 71.2393 182.656 70.5369 185.2C69.8327 187.75 67.1068 190.066 67.2815 192.76C67.3136 193.264 68.3102 193.495 69.2479 193.611C70.6367 193.785 72.1611 193.385 73.1577 193.197C74.3932 192.964 75.1081 193.004 76.0405 192.231C76.2723 192.04 77.1761 191.409 77.1298 191.108Z" fill="#593231"/>
<path d="M70.8023 194.508C71.8096 196.338 71.6491 202.363 70.9895 202.698C70.6507 202.869 64.4002 198.25 62.6815 194.032C62.5728 193.763 62.0575 188.063 61.8543 185.969C61.783 185.232 66.6929 188.356 69.3136 191.041C70.4172 192.172 70.6917 192.856 70.6917 192.856C70.6917 192.856 70.6917 194.305 70.8023 194.508Z" fill="#EB8952"/>
<path d="M61.2319 185.509C62.0805 187.775 64.5996 189.897 66.3878 190.96C68.176 192.021 70.6291 193.596 71.9253 192.616C72.8844 191.889 74.6298 187.51 75.0488 185.038C75.3518 183.247 74.94 182.764 75.022 181.582C75.0363 181.379 74.9935 179.286 75.0024 178.84C75.0309 177.454 74.2518 175.214 73.733 174.269C68.8089 165.311 60.114 170.173 58.9481 175.042C57.8802 179.498 60.385 183.247 61.2319 185.509Z" fill="#EB8952"/>
<path d="M66.7916 180.919C66.9824 180.747 67.1161 180.595 67.3479 180.482C67.5582 180.381 67.7722 180.307 67.995 180.245C68.4907 180.107 69.1325 179.999 69.5657 180.378C69.9561 180.72 69.7796 181.219 69.3446 181.312C69.1788 181.348 68.9221 181.296 68.7545 181.315C68.562 181.336 68.0164 181.317 67.8274 181.359C67.6581 181.395 67.084 181.679 66.8879 181.672C66.5563 181.658 66.526 181.16 66.7916 180.919Z" fill="#593231"/>
<path d="M75.0328 180.032C74.8296 179.894 74.5194 179.683 74.1842 179.683C73.71 179.685 73.0164 179.496 72.6973 179.937C72.4103 180.335 72.7116 180.799 73.1199 180.824C73.275 180.833 73.4283 180.797 73.5816 180.777C73.7135 180.759 73.8116 180.718 73.9186 180.695C74.0861 180.659 74.2305 180.606 74.3892 180.598C74.5729 180.589 74.7511 180.725 74.9259 180.686C75.2218 180.619 75.3181 180.229 75.0328 180.032Z" fill="#593231"/>
<path d="M65.4625 189.921C68.1314 192.683 70.688 192.935 70.688 192.935L70.713 193.847C70.713 193.847 68.6288 193.237 67.4736 192.395C66.6232 191.774 65.4108 189.868 65.4625 189.921Z" fill="#C76D3A"/>
<path d="M70.9863 186.544C71.12 186.267 71.4463 186.222 71.6941 186.091C71.851 186.009 72.0328 185.915 72.1558 185.778C72.3484 185.568 72.2646 185.282 72.204 185.03C71.9918 184.157 71.7315 183.291 71.4997 182.423C71.4783 182.343 71.6049 182.298 71.6317 182.378C71.8135 182.916 71.9989 183.454 72.1808 183.994C72.2788 184.284 72.368 184.577 72.4696 184.867C72.5427 185.075 72.6336 185.278 72.6479 185.504C72.6782 185.934 72.4179 186.188 72.1023 186.409C71.8331 186.601 71.3553 186.936 71.038 186.716C70.9916 186.684 70.9595 186.601 70.9863 186.544Z" fill="#C76D3A"/>
<path d="M69.6656 188.629C70.8048 188.641 71.764 188.502 72.8462 188.087C73.0245 188.019 73.012 188.193 72.9442 188.377C72.4557 189.726 70.7799 189.927 69.6193 188.898C69.5248 188.815 69.523 188.625 69.6656 188.629Z" fill="white"/>
<path d="M71.5931 170.468C71.0191 169.979 70.3933 169.538 69.6998 169.27C68.9652 168.986 68.0346 168.844 67.2644 168.761C65.6759 168.588 64.4868 168.888 63.0267 169.551C61.3134 170.328 59.8087 171.633 59.0706 173.488C58.4341 175.087 58.0918 177.084 58.1061 179.088C57.7584 179.799 57.3715 180.496 56.9864 181.229C56.6014 181.963 56.2537 182.736 56.1004 183.565C55.9025 184.624 56.2145 185.608 56.2002 186.663C56.177 188.692 55.0592 189.725 54.2462 191.365C53.7061 192.455 53.8041 193.071 54.3229 194.397C54.3372 194.497 54.5083 194.605 54.765 194.692C56.6014 195.327 57.3911 194.772 57.7477 194.558C58.4305 194.145 58.7158 194.795 59.6232 194.567C60.3578 194.382 60.3613 194.249 61.1048 194.183C61.2795 194.168 62.4651 193.919 62.6059 193.827C63.3725 193.328 62.7878 189.27 62.7628 186.849C62.7218 186.763 62.6808 186.682 62.638 186.595C62.4027 186.121 62.0033 184.827 62.0033 184.827C62.0033 184.827 61.8304 184.458 61.7145 184.316C61.21 183.743 61.0121 183.16 60.9996 183.143C60.7785 182.398 61.1226 181.93 61.6878 182.457C62.6879 183.387 62.8965 183.461 63.2192 183.402C63.7951 183.298 64.1926 183.027 64.5082 182.646C64.4297 183.565 64.5224 184.49 64.8309 185.388C64.8951 185.577 65.2106 185.568 65.1892 185.335C64.9878 183.245 65.7116 180.894 66.7296 179.109C67.7262 177.366 69.6481 176.582 70.7962 174.981C71.6627 175.392 73.121 176.093 73.4187 176.29C74.0695 176.726 74.6221 177.351 74.7737 178.245C74.886 178.908 74.9252 178.662 75.0054 179.496C75.0126 179.556 75.2194 177.393 75.223 177.351C75.4351 174.27 73.7575 172.304 71.5931 170.468Z" fill="#593231"/>
<path d="M66.5468 168.691C65.9282 167.403 65.1027 166.164 62.8457 166.556C60.5886 166.948 59.4993 168.691 59.5243 169.55C59.5492 170.41 58.5508 171.685 60.2659 173.13C62.2341 174.788 64.0027 173.629 64.0027 173.629C64.0027 173.629 66.1064 172.208 66.3061 171.143C66.5076 170.076 66.5468 168.691 66.5468 168.691Z" fill="#593231"/>
<path d="M63.513 170.854C64.3938 169.499 63.5398 167.734 62.274 167.089C62.0797 166.989 61.8996 167.275 62.0921 167.398C63.3187 168.169 63.4756 169.403 63.2777 170.778C63.2581 170.92 63.4471 170.954 63.513 170.854Z" fill="#3D2120"/>
<path d="M61.7602 168.014C61.655 167.878 61.4268 168.064 61.5267 168.206C61.9938 168.88 61.8012 169.659 61.311 170.254C60.9187 170.731 60.3768 170.997 59.9489 171.423C59.8615 171.51 59.9524 171.681 60.0683 171.643C61.4072 171.201 62.8495 169.443 61.7602 168.014Z" fill="#3D2120"/>
<path d="M64.7011 168.623C64.8188 168.195 64.8972 167.522 64.5549 167.181C64.4997 167.126 64.4052 167.153 64.3998 167.238C64.3891 167.431 64.4426 167.626 64.464 167.818C64.4908 168.058 64.4818 168.291 64.4301 168.528C64.3891 168.716 64.6494 168.812 64.7011 168.623Z" fill="#3D2120"/>
<path d="M62.6489 177.565C61.5881 176.463 60.9748 175.064 60.0442 173.858C59.9515 173.736 59.7411 173.884 59.8267 174.017C60.6468 175.286 61.1406 176.997 62.492 177.762C62.6061 177.827 62.7559 177.675 62.6489 177.565Z" fill="#3D2120"/>
<path d="M62.8147 179.164C62.4831 178.804 62.0535 178.556 61.6844 178.241C61.2298 177.855 60.8304 177.415 60.4667 176.934C60.3295 176.752 60.0941 176.993 60.2189 177.174C60.8001 178.016 61.6791 179.126 62.6774 179.387C62.7969 179.418 62.911 179.27 62.8147 179.164Z" fill="#3D2120"/>
<path d="M72.04 172.1C70.5139 170.038 68.0875 169.002 65.6522 169.002C65.4703 169.002 65.4507 169.301 65.6344 169.303C68.043 169.349 70.1913 170.474 71.9242 172.211C71.9973 172.287 72.1042 172.185 72.04 172.1Z" fill="#3D2120"/>
<path d="M68.7565 171.555C67.9649 170.778 66.8346 170.401 65.7952 170.187C65.5991 170.147 65.4957 170.458 65.6971 170.507C66.7543 170.767 67.644 171.307 68.621 171.78C68.7386 171.837 68.8509 171.646 68.7565 171.555Z" fill="#3D2120"/>
<path d="M63.063 182.782C62.767 182.265 61.5083 180.901 60.7061 182.789C60.1659 184.063 61.2338 186.552 63.1985 186.982C63.6085 187.071 63.3767 183.337 63.063 182.782Z" fill="#EB8952"/>
<path d="M62.4012 184.793C62.2211 184.504 61.9661 184.31 61.8645 183.966C61.7754 183.662 61.8039 183.172 62.0428 182.929C62.2229 182.747 61.9448 182.465 61.754 182.603C61.3118 182.923 61.2245 183.507 61.3243 184.041C61.4206 184.547 61.8093 185.159 62.3601 185.08C62.4974 185.061 62.476 184.913 62.4012 184.793Z" fill="#C76D3A"/>
<path d="M65.8365 175.291C64.2106 174.126 62.5134 173.22 61.1976 171.623C61.08 171.479 60.8945 171.671 60.9962 171.818C62.1532 173.516 63.9093 174.757 65.7171 175.557C65.8668 175.623 65.9631 175.384 65.8365 175.291Z" fill="#3D2120"/>
<path d="M62.5219 188.031C61.889 188.034 62.3757 186.882 62.5005 186.632C62.759 187.277 63.1102 188.029 62.5219 188.031ZM62.6645 186.206C62.5968 186.094 62.5611 185.948 62.4702 186.073C62.0851 186.608 61.3292 188.682 62.3347 188.834C64.0337 189.093 62.6842 186.238 62.6645 186.206Z" fill="#FFC038"/>
<path d="M209.925 185.118L206.641 193.134L206.368 193.803L205.373 196.234L195.23 193.087C195.23 193.087 195.357 192.175 195.564 190.861C195.591 190.69 195.617 190.51 195.649 190.326C196.165 187.081 197.067 182.037 197.785 181.295C198.859 180.184 208.37 175.927 209.925 185.118Z" fill="#F3E3D5"/>
<path d="M299.592 179.561L295.043 190.678L284.898 187.529C284.898 187.529 286.378 176.846 287.451 175.737C288.525 174.629 298.036 170.37 299.592 179.561Z" fill="#F3E3D5"/>
<path d="M281.496 165.311C281.496 165.311 281.396 166.734 281.284 167.922C281.179 169.04 283.966 170.203 286.158 170.069C289.555 169.858 290.696 167.46 290.664 166.342C290.651 165.813 290.705 164.129 290.751 160.287C290.758 159.745 282.304 164.104 281.496 165.311Z" fill="#FFAE80"/>
<path d="M277.052 155.583C277.272 154.204 277.22 153.541 277.252 153.298C277.329 152.692 277.379 152.175 277.409 151.796C277.418 151.576 277.429 151.355 277.452 151.133C277.983 146.027 282.312 142.346 287.12 142.908C291.928 143.473 295.394 148.067 294.865 153.173C294.57 156.004 293.109 158.397 291.044 159.871C290.334 160.909 289.645 161.773 289.186 162.332C287.781 164.039 285.464 165.108 283.676 165.809C282.367 166.322 279.099 166.673 278.049 165.833C277.311 165.242 276.414 160.602 276.578 158.251C276.625 157.561 276.901 156.538 277.052 155.583Z" fill="#FFAE80"/>
<path d="M294.406 147.741C294.545 146.381 293.096 143.761 290.047 143.207C289.435 143.097 288.576 143.192 287.99 142.927C287.515 142.711 287.119 142.468 286.586 142.419C285.811 142.349 285.076 142.571 284.379 142.899C284.324 142.87 284.26 142.838 284.192 142.804C283.659 142.548 283.176 142.457 282.611 142.679C281.627 143.067 281.231 143.99 280.065 143.916C279.382 143.872 278.867 143.323 278.214 143.639C277.94 143.774 277.507 144.079 277.41 144.158C276.373 145.011 275.403 148.283 277.706 149.624C279.245 150.521 283.028 150.219 283.028 150.219C283.028 150.219 284.256 152.034 285.248 151.892C288.533 151.421 287.093 156.167 286.455 158.552C286.185 159.566 288.933 158.213 289.396 158.794C290.206 159.806 290.739 161.428 290.739 161.428C290.739 161.428 297.551 155.757 294.406 147.741Z" fill="#944B41"/>
<path d="M289.471 155.198C289.471 155.198 290.926 154.135 291.626 156.041C292.093 157.303 291.118 159.271 288.761 159.529C288.36 159.572 288.875 157.109 289.471 155.198Z" fill="#FFAE80"/>
<path d="M279.082 159.807C278.959 159.635 278.775 159.549 278.613 159.424C278.458 159.305 278.323 159.161 278.207 159C278.791 157.78 279.266 156.495 279.783 155.245C279.833 155.126 279.67 155.038 279.613 155.154C278.98 156.399 278.292 157.628 277.736 158.915C277.704 158.989 277.702 159.091 277.75 159.157C278.019 159.513 278.494 160.101 278.979 160.029C279.073 160.016 279.146 159.898 279.082 159.807Z" fill="#DD8958"/>
<path d="M285.071 155.106C284.563 154.466 284.068 154.264 283.464 154.047C283.173 153.942 282.88 153.861 282.589 153.825C282.292 153.788 281.855 153.691 281.585 153.818C281.349 153.93 281.296 154.302 281.483 154.642C281.866 155.329 283.164 155.027 283.606 155.208C283.949 155.349 284.302 155.546 284.709 155.658C285.02 155.744 285.275 155.362 285.071 155.106Z" fill="#944B41"/>
<path d="M279.186 154.21C278.719 154.555 278.131 154.29 277.68 154.189C277.546 154.161 277.426 154.12 277.275 154.093C277.086 153.977 277.022 153.346 277.177 153.166C277.26 153.154 277.441 153.148 277.527 153.147C277.828 153.148 278.167 153.145 278.447 153.18C278.736 153.215 279.124 153.218 279.334 153.423C279.518 153.603 279.482 153.989 279.186 154.21Z" fill="#944B41"/>
<path d="M289.576 157.94C289.777 157.681 290.041 157.521 290.169 157.199C290.287 156.915 290.369 156.377 290.162 156.116C290.005 155.921 290.235 155.742 290.406 155.896C290.806 156.252 290.832 156.824 290.684 157.328C290.545 157.806 290.114 158.357 289.588 158.222C289.458 158.188 289.493 158.05 289.576 157.94Z" fill="#DD8958"/>
<path d="M294.108 149.796C294.061 149.667 293.888 149.713 293.872 149.834C293.853 149.959 293.837 150.086 293.82 150.211C293.649 150.31 293.476 150.313 293.307 150.222C293.239 150.202 293.143 150.222 293.122 150.306C292.981 150.851 292.63 150.992 292.072 150.838C291.811 150.766 291.558 150.615 291.332 150.469C291.237 150.408 291.132 150.55 291.226 150.618C291.952 151.134 292.965 151.611 293.341 150.546C293.567 150.618 293.833 150.671 294.009 150.491C294.186 150.311 294.188 150.016 294.108 149.796Z" fill="#753128"/>
<path d="M291.661 148.127C291.242 147.176 290.321 146.549 289.352 146.551C288.736 146.553 288.099 146.899 287.538 147.132C286.657 147.496 285.751 147.491 284.878 147.102C284.805 147.068 284.767 147.176 284.833 147.221C285.888 147.958 286.972 147.6 288.092 147.146C289.447 146.598 290.631 147.03 291.511 148.224C291.574 148.307 291.704 148.224 291.661 148.127Z" fill="#753128"/>
<path d="M288.11 149.72C287.798 149.204 287.21 149.373 286.792 149.644C286.22 150.011 285.776 150.282 285.086 150.017C284.557 149.813 284.156 149.381 283.792 148.939C283.738 148.871 283.639 148.956 283.69 149.026C284.148 149.64 284.703 150.25 285.473 150.36C285.794 150.407 286.104 150.354 286.398 150.21C286.914 149.955 287.429 149.333 288.021 149.818C288.083 149.867 288.147 149.782 288.11 149.72Z" fill="#753128"/>
<path d="M276.935 149.995C279.064 150.62 280.855 150.93 282.888 149.682C283.269 149.449 283.603 150.015 283.253 150.288C281.428 151.717 278.515 152.126 276.805 150.258C276.71 150.154 276.789 149.951 276.935 149.995Z" fill="#944B41"/>
<path d="M281.424 166.278C281.424 166.278 283.69 166.191 285.111 165.117C286.53 164.042 287.703 162.564 287.703 162.564C287.703 162.564 286.295 165.804 284.542 166.458C282.813 167.102 281.365 167.005 281.365 167.005L281.424 166.278Z" fill="#DD8958"/>
<path d="M277.517 161.752C278.027 161.981 278.34 162.196 278.897 162.311C279.509 162.437 279.862 162.461 280.482 162.438C280.717 162.428 280.787 162.751 280.555 162.829C279.567 163.162 278.296 162.925 277.323 162.006C277.206 161.896 277.364 161.683 277.517 161.752Z" fill="#DD8958"/>
<path d="M157.358 198.828C157.285 199.144 157.727 199.845 158.071 199.561C158.149 199.442 158.18 199.451 158.18 199.451C158.18 199.451 158.128 199.597 158.044 199.845C157.928 200.236 158.918 201.119 159.085 200.67C159.149 200.456 159.246 200.306 159.258 200.258C159.267 200.232 159.242 200.302 159.23 200.355C159.212 200.433 159.167 200.535 159.119 200.694C159.119 201.24 160.092 201.795 160.289 201.443C160.315 201.373 160.335 201.323 160.346 201.302C160.335 201.335 160.321 201.386 160.301 201.45C160.148 201.988 161.141 202.316 161.676 202.155C161.856 202.102 162.831 201.85 162.831 201.85C162.831 201.85 162.342 201.124 162.458 200.946C163.373 199.554 164.204 199.764 164.204 199.764L164.658 200.397C164.658 200.397 165.523 199.141 165.708 198.519C166.213 196.818 165.995 194.887 165.995 194.887C165.995 194.887 165.543 193.743 165.02 193.178C164.469 192.58 163.098 191.615 163.098 191.615C163.098 191.615 160.312 193.815 159.616 194.631C158.404 196.064 157.556 198.116 157.358 198.828Z" fill="#FFAE80"/>
<path d="M160.522 201.033C160.553 200.969 160.462 200.91 160.428 200.976C160.331 201.162 160.281 201.342 160.193 201.53C160.233 201.549 160.249 201.558 160.29 201.575C160.37 201.388 160.435 201.219 160.522 201.033Z" fill="#DD8958"/>
<path d="M159.514 199.891C159.539 199.832 159.451 199.807 159.423 199.864C159.314 200.086 159.141 200.486 159.045 200.745C159.079 200.774 159.098 200.783 159.134 200.811C159.227 200.546 159.389 200.165 159.514 199.891Z" fill="#DD8958"/>
<path d="M158.109 199.656C158.266 199.245 158.366 199.095 158.489 198.788C158.512 198.73 158.432 198.675 158.405 198.735C158.236 199.099 158.211 199.219 158.066 199.571C158.102 199.607 158.072 199.62 158.109 199.656Z" fill="#DD8958"/>
<path d="M250.079 193.772C249.997 194.086 250.532 194.99 250.885 194.713C250.963 194.598 250.995 194.607 250.995 194.607C250.995 194.607 250.94 194.751 250.849 194.997C250.724 195.384 251.692 196.295 251.869 195.852C251.94 195.64 252.038 195.492 252.054 195.446C252.061 195.42 252.034 195.49 252.022 195.543C252.002 195.619 251.956 195.719 251.903 195.878C251.888 196.424 252.847 197.006 253.052 196.659C253.081 196.591 253.102 196.541 253.115 196.521C253.102 196.553 253.085 196.604 253.065 196.666C252.897 197.201 254.156 197.858 254.466 197.368C254.67 197.049 254.867 196.723 255.088 196.432C255.698 195.624 256.406 195.579 256.406 195.579L257.034 196.163C257.034 196.163 258.344 194.509 258.545 193.893C259.094 192.208 258.923 190.27 258.923 190.27C258.923 190.27 258.501 189.115 257.993 188.533C257.456 187.921 256.199 186.879 256.199 186.879C256.199 186.879 253.256 189.02 252.555 189.833C251.794 190.717 250.956 191.651 250.458 192.743C250.36 192.955 250.296 193.065 250.079 193.772Z" fill="#FFAE80"/>
<path d="M253.298 196.258C253.331 196.194 253.241 196.133 253.205 196.197C253.103 196.379 253.05 196.557 252.955 196.745C252.994 196.764 253.011 196.773 253.05 196.792C253.136 196.607 253.205 196.44 253.298 196.258Z" fill="#DD8958"/>
<path d="M252.317 195.086C252.345 195.027 252.256 195 252.227 195.055C252.112 195.275 251.932 195.669 251.828 195.925C251.86 195.955 251.88 195.967 251.914 195.995C252.015 195.732 252.185 195.357 252.317 195.086Z" fill="#DD8958"/>
<path d="M250.924 194.806C251.091 194.399 251.193 194.253 251.325 193.95C251.352 193.891 251.271 193.834 251.241 193.895C251.066 194.253 251.034 194.371 250.883 194.719C250.918 194.757 250.886 194.769 250.924 194.806Z" fill="#DD8958"/>
<path d="M171.084 215.649C170.954 216.132 171.272 216.875 171.664 216.665C171.76 216.564 171.789 216.579 171.789 216.579C171.789 216.579 171.71 216.712 171.584 216.939C171.402 217.299 172.213 218.366 172.457 217.961C172.561 217.764 172.68 217.635 172.703 217.591C172.716 217.568 172.678 217.631 172.657 217.682C172.625 217.754 172.564 217.845 172.487 217.991C172.388 218.527 173.245 219.27 173.5 218.963C173.539 218.9 173.566 218.855 173.582 218.836C173.566 218.866 173.541 218.914 173.511 218.972C173.265 219.471 174.621 220.103 175.001 219.673C175.253 219.395 175.602 219.149 175.855 218.887C177.003 217.705 177.745 217.542 178.46 216.784C179.31 215.878 180.118 214.476 180.118 214.476C180.118 214.476 180.045 212.474 179.633 211.813C179.198 211.114 177.964 210.299 177.964 210.299C177.964 210.299 177.194 210.591 176.322 210.966C175.45 211.343 174.276 211.724 173.828 212.004C172.885 212.595 172.306 213.025 171.646 214.016C171.516 214.207 171.277 214.935 171.084 215.649Z" fill="#FFAE80"/>
<path d="M173.802 218.61C173.843 218.553 173.765 218.477 173.72 218.534C173.592 218.697 173.512 218.863 173.391 219.03C173.426 219.057 173.441 219.068 173.478 219.095C173.59 218.926 173.683 218.774 173.802 218.61Z" fill="#DD8958"/>
<path d="M173.02 217.283C173.055 217.232 172.973 217.189 172.936 217.24C172.788 217.435 172.549 217.793 172.406 218.028C172.435 218.062 172.453 218.075 172.481 218.109C172.62 217.869 172.848 217.528 173.02 217.283Z" fill="#DD8958"/>
<path d="M171.683 216.765C171.909 216.392 172.034 216.267 172.211 215.991C172.245 215.937 172.177 215.867 172.136 215.922C171.908 216.244 171.859 216.356 171.656 216.673C171.685 216.716 171.653 216.722 171.683 216.765Z" fill="#DD8958"/>
<path d="M176.076 211.076C176.076 211.076 174.603 211.216 174.182 211.33C173.679 211.465 172.287 212.287 172.287 212.287L172.875 213.048L176.076 211.076Z" fill="#FFAE80"/>
<path d="M266.821 211.512C266.703 211.999 267.042 212.732 267.427 212.511C267.521 212.406 267.55 212.42 267.55 212.42C267.55 212.42 267.475 212.554 267.355 212.785C267.183 213.151 268.02 214.193 268.256 213.78C268.352 213.581 268.47 213.448 268.491 213.405C268.502 213.38 268.466 213.445 268.447 213.496C268.416 213.568 268.359 213.662 268.284 213.81C268.2 214.348 269.078 215.064 269.324 214.752C269.361 214.687 269.388 214.642 269.402 214.623C269.386 214.653 269.363 214.701 269.334 214.761C269.101 215.265 270.256 215.748 270.803 215.388C271.087 215.201 271.452 214.939 271.732 214.71C272.923 213.729 273.529 213.202 274.225 212.423C275.052 211.495 275.82 210.068 275.82 210.068C275.82 210.068 275.692 208.068 275.264 207.42C274.813 206.734 273.554 205.957 273.554 205.957C273.554 205.957 272.795 206.272 271.932 206.673C271.071 207.075 269.907 207.492 269.468 207.785C268.541 208.403 267.974 208.852 267.338 209.862C267.215 210.059 266.994 210.792 266.821 211.512Z" fill="#FFAE80"/>
<path d="M269.614 214.388C269.655 214.329 269.577 214.257 269.532 214.314C269.407 214.48 269.329 214.649 269.215 214.821C269.251 214.846 269.265 214.857 269.302 214.882C269.411 214.71 269.502 214.556 269.614 214.388Z" fill="#DD8958"/>
<path d="M268.801 213.082C268.834 213.031 268.749 212.991 268.713 213.04C268.571 213.241 268.342 213.607 268.205 213.845C268.234 213.879 268.253 213.893 268.282 213.925C268.414 213.679 268.635 213.332 268.801 213.082Z" fill="#DD8958"/>
<path d="M267.446 212.606C267.666 212.227 267.787 212.097 267.955 211.816C267.988 211.761 267.917 211.693 267.88 211.75C267.659 212.08 267.614 212.191 267.418 212.513C267.448 212.557 267.418 212.565 267.446 212.606Z" fill="#DD8958"/>
<path d="M271.404 206.947C271.404 206.947 270.567 207.002 269.984 207.067C269.674 207.103 268.021 208.016 268.021 208.016L268.695 208.643L271.404 206.947Z" fill="#FFAE80"/>
<path d="M188.933 189.126C188.894 186.031 189.129 182.935 189.338 179.848C189.343 179.759 189.2 179.737 189.19 179.828C188.402 185.881 187.284 193.052 189.614 198.874C189.732 199.168 190.124 198.944 190.074 198.668C189.507 195.481 188.972 192.383 188.933 189.126Z" fill="#D45915"/>
<path d="M208.297 172.378C207.105 173.111 205.94 173.839 204.591 174.2C203.173 174.583 201.763 174.487 200.317 174.483C197.991 174.477 196.395 175.197 194.644 176.794C194.477 176.946 194.719 177.194 194.885 177.048C196.11 175.981 197.29 175.15 198.92 175.008C200.25 174.894 201.583 175.123 202.915 175.068C204.947 174.985 207.076 174.254 208.509 172.672C208.647 172.52 208.472 172.27 208.297 172.378Z" fill="#D45915"/>
<path d="M298.802 169.093C297.39 171.004 295.614 171.408 293.386 171.239C291.508 171.097 289.72 170.858 287.93 171.629C287.748 171.709 287.816 172.016 288.014 171.951C290.617 171.116 293.229 172.45 295.86 172.014C297.294 171.775 298.866 170.976 299.241 169.363C299.299 169.115 298.975 168.858 298.802 169.093Z" fill="#D45915"/>
<path d="M278.161 178.152C277.016 182.468 276.605 187.269 276.886 191.733C276.893 191.869 277.079 191.871 277.086 191.733C277.36 187.186 277.831 182.739 278.402 178.224C278.423 178.06 278.206 177.982 278.161 178.152Z" fill="#D45915"/>
<path d="M64.6472 199.058C63.3457 198.747 61.9605 199.026 60.6323 198.871C58.6926 198.645 57.0434 197.715 55.9024 196.019C55.7259 195.76 55.3302 195.991 55.4906 196.275C56.366 197.832 57.5926 198.962 59.2559 199.45C60.8837 199.928 63.064 200.091 64.6472 199.418C64.7952 199.356 64.8344 199.104 64.6472 199.058Z" fill="#D45915"/>
<path d="M104.937 215.986C104.937 215.986 107.772 215 108.123 214.578C109.851 212.507 103.229 211.471 103.229 211.471C103.229 211.471 95.5559 218.634 97.1337 219.085C98.7133 219.534 104.937 215.986 104.937 215.986Z" fill="#EA6E29"/>
<path d="M77.3345 194.674C76.7711 196.413 75.9314 198.438 73.8241 198.124C73.6529 198.099 73.5727 198.363 73.751 198.408C75.8405 198.939 77.814 196.951 77.7285 194.731C77.7195 194.486 77.4076 194.446 77.3345 194.674Z" fill="#D45915"/>
<path d="M107.621 213.987C104.852 213.121 101.935 214.931 99.598 216.327C96.6545 218.083 93.3991 220.044 89.9154 218.98C89.6962 218.911 89.5357 219.277 89.755 219.381C92.4453 220.656 95.2176 219.908 97.7563 218.568C99.2699 217.769 100.694 216.786 102.222 216.011C103.968 215.126 105.724 214.777 107.621 214.489C107.874 214.451 107.833 214.054 107.621 213.987Z" fill="#D45915"/>
<path d="M110.458 226.199L107.076 234.463L106.842 235.031L106.072 237.369C106.072 237.369 101.499 236.132 99.9925 235.655C98.9246 235.316 95.7637 234.167 95.7637 234.167C95.7637 234.167 95.9259 233.012 96.1773 231.418C96.2005 231.267 96.2254 231.113 96.2522 230.954C96.7781 227.712 97.6303 223.084 98.3167 222.375C99.3882 221.269 108.901 217.008 110.458 226.199Z" fill="#F3E3D5"/>
<path d="M107.078 234.466L106.845 235.034C103.245 234.733 99.4209 233.166 96.1797 231.421C96.2029 231.27 96.2278 231.116 96.2546 230.957C98.2567 231.921 100.284 232.821 102.389 233.492C103.949 233.99 105.502 234.282 107.078 234.466Z" fill="#D6C2B0"/>
<path d="M283.967 172.761C282.86 173.611 281.854 174.437 281.283 175.032C280.485 175.866 278.158 178.151 278.158 178.151C278.158 178.151 278.265 176.48 278.707 174.244C278.895 173.289 279.394 171.997 279.9 170.83C280.467 171.69 281.654 172.818 283.967 172.761Z" fill="#F3E3D5"/>
<path d="M56.0887 215.231C56.037 215.253 55.9674 215.246 55.9354 215.185C53.7995 211.46 51.9169 207.645 49.6562 204.014C49.7258 203.912 49.7917 203.816 49.8541 203.725C52.2984 207.249 54.6678 211.051 56.1475 215.089C56.1707 215.155 56.1368 215.208 56.0887 215.231Z" fill="#D6C2B0"/>
<path d="M109.764 226.61C109.354 227.8 109.044 229.028 108.657 230.227C108.27 231.421 107.753 232.573 107.415 233.781C107.368 233.944 107.586 234.033 107.666 233.895C108.873 231.828 109.695 229.077 110.012 226.682C110.035 226.512 109.821 226.442 109.764 226.61Z" fill="#D6C2B0"/>
<path d="M197.293 181.024C196.464 183.458 195.921 186.171 195.676 188.896C195.66 189.078 195.939 189.129 195.985 188.939C196.621 186.353 196.832 183.684 197.538 181.096C197.582 180.927 197.349 180.864 197.293 181.024Z" fill="#D6C2B0"/>
<path d="M208.986 184.458C208.654 186.061 208.228 187.679 208.048 189.31C208.028 189.492 208.29 189.514 208.337 189.353C208.786 187.796 209.002 186.144 209.301 184.549C209.342 184.331 209.032 184.238 208.986 184.458Z" fill="#D6C2B0"/>
<path d="M206.639 193.134L206.365 193.803C202.694 193.467 198.989 192.312 195.562 190.86C195.589 190.69 195.616 190.512 195.648 190.326C197.499 191.069 199.392 191.687 201.325 192.164C203.086 192.604 204.86 192.867 206.639 193.134Z" fill="#D6C2B0"/>
<path d="M296.381 186.837C294.573 186.453 292.322 186.032 290.53 185.564C288.875 185.132 287.26 184.409 285.604 184.014C285.768 183.416 285.932 182.819 286.098 182.222C286.527 180.697 287.11 179.162 287.344 177.59C287.365 177.446 287.175 177.326 287.103 177.48C286.458 178.84 286.13 180.382 285.736 181.839C285.636 182.209 285.299 183.433 285.035 184.541C285.064 184.759 285.169 184.956 285.242 185.21C285.32 184.947 285.429 184.642 285.504 184.376C286.986 185.24 288.772 185.689 290.382 186.129C292.202 186.625 294.468 187.044 296.344 187.133C296.502 187.141 296.538 186.872 296.381 186.837Z" fill="#D6C2B0"/>
<path d="M298.38 179.069C297.519 182.46 297.034 185.721 295.579 188.923C295.497 189.099 295.738 189.252 295.827 189.078C297.36 186.1 298.232 182.612 298.639 179.105C298.656 178.949 298.419 178.913 298.38 179.069Z" fill="#D6C2B0"/>
<path d="M159.38 227.033C155.66 227.181 151.934 227.854 148.261 228.479C148.07 228.511 148.152 228.818 148.341 228.788C152.021 228.215 155.738 227.886 159.407 227.247C159.523 227.228 159.496 227.029 159.38 227.033Z" fill="#96613B"/>
<path d="M247.699 216.356C243.245 216.756 238.801 217.536 234.381 218.213C229.828 218.908 225.15 219.416 220.671 220.537C220.568 220.564 220.588 220.748 220.698 220.74C225.141 220.399 229.589 219.48 233.996 218.806C238.573 218.107 243.192 217.555 247.736 216.657C247.895 216.625 247.859 216.341 247.699 216.356Z" fill="#96613B"/>
<path d="M330.738 202.481C326.152 202.96 321.592 203.696 317.029 204.362C312.396 205.043 307.773 205.755 303.218 206.897C303.034 206.943 303.113 207.24 303.296 207.197C312.348 205.06 321.643 204.395 330.766 202.699C330.88 202.676 330.857 202.468 330.738 202.481Z" fill="#96613B"/>
<path d="M233.227 277.277C232.892 277.002 232.427 277.248 232.512 277.72C232.691 278.686 233.065 279.598 233.225 280.57C233.402 281.636 233.43 282.743 233.475 283.823C233.511 284.622 234.602 284.62 234.645 283.823C234.75 281.761 234.953 278.7 233.227 277.277Z" fill="#CAE7FA"/>
<path d="M236.745 280.501C236.622 280.469 236.518 280.469 236.395 280.501C236.119 280.577 235.909 280.874 235.912 281.175C235.921 281.992 235.942 282.808 235.96 283.627C235.976 284.46 237.162 284.46 237.18 283.627C237.196 282.808 237.217 281.992 237.226 281.175C237.23 280.874 237.021 280.577 236.745 280.501Z" fill="#CAE7FA"/>
<path d="M260.132 282.457C259.702 282.716 259.449 283.266 259.219 283.715L258.436 285.236C258.083 285.924 259.039 286.517 259.424 285.85C259.709 285.357 259.993 284.865 260.278 284.372C260.531 283.931 260.854 283.423 260.85 282.894C260.848 282.508 260.447 282.267 260.132 282.457Z" fill="#CAE7FA"/>
<path d="M346.121 263.581C345.823 263.339 345.475 263.299 345.155 263.509C344.716 263.797 344.732 264.267 344.707 264.752C344.654 265.8 344.408 266.639 343.664 267.367C343.154 267.865 343.832 268.835 344.418 268.403C345.147 267.865 345.748 267.149 346.132 266.291C346.451 265.575 346.838 264.169 346.121 263.581Z" fill="#CAE7FA"/>
<path d="M327.825 268.715C326.269 266.567 323.115 265.989 320.758 266.779C320.266 266.944 320.209 267.764 320.758 267.899C322.99 268.446 325.137 268.027 327.173 269.409C327.554 269.666 328.123 269.126 327.825 268.715Z" fill="#CAE7FA"/>
<path d="M197.994 158.183C195.091 161.521 189.936 157.789 189.21 154.13C189.174 153.95 188.914 153.996 188.912 154.174C188.884 158.257 195.979 163.188 198.249 158.393C198.329 158.226 198.126 158.033 197.994 158.183Z" fill="#612F26"/>
<defs>
<linearGradient id="paint0_linear_3139_79996" x1="23" y1="52" x2="358.999" y2="388.999" gradientUnits="userSpaceOnUse">
<stop stop-color="#E3B9D7"/>
<stop offset="1" stop-color="#A9CDE1"/>
</linearGradient>
</defs>
</svg>
