<svg width="384" height="401" viewBox="0 0 384 401" fill="none" xmlns="http://www.w3.org/2000/svg">
<rect x="23" y="52" width="337" height="336" rx="30" fill="url(#paint0_linear_3139_79995)"/>
<g clip-path="url(#clip0_3139_79995)">
<mask id="mask0_3139_79995" style="mask-type:luminance" maskUnits="userSpaceOnUse" x="18" y="39" width="347" height="349">
<path d="M18 39.8496H364.143V387.107H18V39.8496Z" fill="white"/>
</mask>
<g mask="url(#mask0_3139_79995)">
<path d="M363.738 299.865C347.511 264.969 329.298 232.025 313.069 197.129C303.858 177.32 296.638 155.556 287.425 135.747C277.613 114.64 254.991 62.5115 245.178 41.4082C244.631 40.2301 243.418 39.9938 242.332 40.3859C169.844 66.4748 106.462 81.9341 22.7175 105.46C21.2649 105.868 17.99 112.188 18.4335 113.511C19.7605 117.483 76.3857 283.774 99.7365 349.633C102.76 358.16 105.9 366.643 109.195 375.06C110.552 378.531 111.747 384.051 115.355 385.924C119.846 388.257 126.991 384.816 131.344 383.716C139.691 381.609 148.021 379.422 156.33 377.157C189.107 368.222 221.571 358.049 253.661 346.706C290.587 333.648 326.962 318.971 362.763 302.843C363.819 302.369 364.222 300.907 363.738 299.865Z" fill="#FFE5DE"/>
<path d="M139.019 103.763C138.517 103.031 137.833 102.47 137.169 101.85L136.257 100.92C135.938 100.577 135.625 100.083 135.254 99.8651C134.159 99.2913 134.133 100.96 134.068 101.633C134.003 102.463 133.892 103.301 133.892 104.158C133.866 104.824 133.677 106.143 134.394 106.493C135.045 106.816 135.912 106.315 136.537 106.091C137.56 105.735 140.237 105.444 139.019 103.763ZM134.466 90.3355C135.306 91.5028 136.4 92.3733 137.364 93.4483C138.504 94.5892 139.572 95.8356 140.686 97.0425C141.826 98.2098 143.018 99.3441 143.917 100.683C145.565 103.169 147.663 105.247 149.669 107.462C150.555 108.445 151.799 109.922 150.359 111.076C149.819 111.525 149.057 111.749 148.392 111.973C147.676 112.231 146.835 112.376 146.106 111.973C144.953 111.38 144.432 109.546 142.901 109.586C141.774 109.626 140.523 110.173 139.462 110.542C138.354 110.938 137.332 111.446 136.283 111.861C135.677 112.132 134.987 112.27 134.453 112.606C133.808 113.035 133.612 113.761 133.501 114.453C133.221 115.957 133 117.19 131.463 117.783C130.342 118.271 128.421 118.898 127.73 117.335C127.437 116.735 127.6 115.924 127.685 115.291L127.86 112.91C127.978 111.367 128.297 109.85 128.414 108.293C128.57 106.585 128.414 104.831 128.414 103.07C128.427 101.402 128.916 99.7794 129.013 98.0317C129.131 96.3368 129.313 94.5628 129.365 92.8349C129.352 92.0831 129.32 91.2456 129.515 90.5201C129.73 89.8475 130.427 88.9901 131.196 88.9242C132.707 88.3966 133.56 89.1418 134.466 90.3355Z" fill="#161E2B"/>
<path d="M165.848 88.6548C164.914 87.7591 163.666 86.8333 162.382 86.6712C159.741 86.3983 157.01 87.7197 155.93 90.4515C154.858 93.349 155.15 96.6102 157.321 98.852C158.361 99.9856 159.835 101.109 161.329 101.225C163.024 101.352 164.458 100.769 165.824 99.7689C166.365 99.4238 166.928 98.9608 167.355 98.4361C167.751 97.9261 167.948 97.2545 168.112 96.6108C168.497 95.2822 168.512 93.6404 168.108 92.3095C167.638 90.8103 166.918 89.6617 165.848 88.6548ZM170.377 85.9626C171.164 86.9058 171.691 87.8971 172.181 89.0545C172.779 90.4554 173.345 91.8842 173.579 93.3936C173.811 94.9597 173.572 96.2408 173.159 97.7019C172.724 99.1253 172.225 100.43 171.38 101.582C170.548 102.763 169.565 104.06 168.387 104.821C166.515 106.305 164.005 106.985 161.695 107.006C160.461 107.016 159.199 106.524 158.083 106.022C156.963 105.527 155.944 104.961 155.014 104.17C153.166 102.584 151.371 100.324 150.695 97.8245C150.038 95.3508 149.806 92.4833 150.379 90.0062C150.698 88.7711 151.342 87.6125 151.953 86.5443C152.598 85.3857 153.389 84.3789 154.284 83.4674C155.136 82.6303 156.252 82.0679 157.358 81.6262C158.49 81.1713 159.674 80.876 160.922 80.9612C162.197 81.0202 163.372 81.3124 164.597 81.6843C165.687 82.0381 166.964 82.414 167.829 83.1982C168.758 83.9893 169.623 84.9916 170.377 85.9626Z" fill="#161E2B"/>
</g>
<path d="M135.039 309.609C135.143 309.475 135.292 309.427 135.428 309.37C135.585 309.308 135.774 309.235 135.949 309.243C136.324 309.264 136.361 309.673 136.423 309.999C136.493 310.398 136.592 310.775 136.69 311.153C136.782 311.507 136.904 311.839 137.016 312.186C137.147 312.552 137.238 312.946 137.307 313.345C137.34 313.513 137.372 313.682 137.418 313.859C137.451 314.028 137.483 314.285 137.63 314.404C137.862 314.586 138.308 314.302 138.537 314.205C138.69 314.131 138.844 314.056 139.007 314.016C139.191 313.97 139.369 313.939 139.55 313.882C139.825 313.782 140.165 313.583 140.414 313.874C140.515 313.995 140.562 314.172 140.623 314.319C140.677 314.48 140.747 314.663 140.734 314.833C140.703 315.29 140.223 315.354 139.897 315.432C139.557 315.502 139.241 315.577 138.923 315.73C138.597 315.898 138.249 315.893 137.919 316C137.613 316.109 137.278 316.331 136.945 316.297C136.627 316.271 136.484 315.856 136.375 315.572C136.222 315.16 136.182 314.7 136.061 314.28C135.953 313.866 135.888 313.44 135.791 313.024C135.683 312.611 135.509 312.207 135.413 311.79C135.324 311.41 135.223 311.02 135.121 310.631L135.115 310.608L135.109 310.584C135.022 310.292 134.846 309.888 135.039 309.609Z" fill="#161E2B"/>
<path d="M54.7281 155.157C54.4754 155.138 54.2495 154.962 54.1692 154.695C54.0638 154.346 54.2495 153.972 54.5825 153.861L251.013 89.0654C251.346 88.9516 251.703 89.1495 251.808 89.4978C251.914 89.8479 251.728 90.2191 251.395 90.3293L54.9641 155.129C54.8854 155.153 54.8051 155.164 54.7281 155.157Z" fill="#CCA69B"/>
<path d="M197.931 274.866L108.075 308.771C107.163 309.114 106.154 308.64 105.796 307.698L81.9193 247.547C80.6006 244.084 79.3907 240.579 78.2896 237.034L58.4596 173.177C58.1534 172.191 58.6671 171.132 59.6092 170.808L150.227 139.697C151.17 139.375 152.186 139.912 152.496 140.9L171.758 202.525C172.848 206.032 174.048 209.5 175.353 212.925L198.99 272.401C199.366 273.387 198.886 274.505 197.931 274.866Z" fill="#E0C2BA"/>
<path d="M303.985 218.406L278.606 164.943L255.727 104.328C255.409 103.342 254.389 102.812 253.448 103.144L163.097 135.094C162.158 135.427 161.653 136.491 161.967 137.471L186.537 202.658L212.955 265.95C213.321 266.888 214.334 267.352 215.242 267C215.242 267 279.197 238.495 300.478 228.61C304.211 226.873 305.801 222.236 303.985 218.406Z" fill="#E0C2BA"/>
<path d="M159.636 340.584C157.827 335.783 154.751 327.528 152.131 321.472C151.948 321.047 151.21 320.429 150.688 320.695C144.035 322.854 123.166 331.08 116.452 333.021C115.526 333.289 115.846 333.958 115.998 334.339C117.817 338.924 116.214 337.254 122.501 353.065C122.744 353.718 123.259 354.637 124.677 354.145C128.114 352.946 152.4 344.29 157.228 342.327C160.521 340.986 159.31 340.575 159.636 340.584Z" fill="#E0C2BA"/>
<path d="M206.355 321.788C204.548 316.986 201.472 308.73 198.851 302.675C198.667 302.25 197.929 301.633 197.409 301.898C190.754 304.054 169.886 312.28 163.171 314.225C162.247 314.491 162.565 315.158 162.719 315.542C164.538 320.127 162.933 318.458 169.222 334.269C169.464 334.922 169.98 335.838 171.396 335.346C174.834 334.147 199.119 325.494 203.947 323.53C207.24 322.19 206.029 321.779 206.355 321.788Z" fill="#E0C2BA"/>
<mask id="mask1_3139_79995" style="mask-type:luminance" maskUnits="userSpaceOnUse" x="123" y="218" width="242" height="169">
<path d="M123.385 218.361H364.998V386.135H123.385V218.361Z" fill="white"/>
</mask>
<g mask="url(#mask1_3139_79995)">
<path d="M157.383 376.9C190.161 367.965 222.627 357.792 254.714 346.448C291.642 333.391 328.019 318.712 363.818 302.586C364.876 302.111 365.276 300.65 364.794 299.608C352.064 272.232 338.054 245.909 325.328 218.535C316.832 220.788 312.712 228.983 308.287 236.314C292.55 262.398 276.827 288.49 261.097 314.579C261.033 314.596 260.98 314.593 260.916 314.623C237.371 325.641 213.607 336.132 189.622 346.046C177.787 350.937 165.903 355.689 153.968 360.304C145.33 363.644 133.706 366.006 127.105 373.285C123.761 376.971 122.819 381.619 123.969 385.959C127.023 385.267 130.1 384.038 132.399 383.461C140.746 381.351 149.075 379.167 157.383 376.9Z" fill="#F0D1C9"/>
</g>
<path d="M336.383 297.136C334.457 292.385 320.226 259.378 317.458 253.394C317.264 252.974 316.511 252.377 315.997 252.655C309.399 254.991 288.737 263.772 282.072 265.895C281.153 266.186 281.49 266.846 281.652 267.224C283.581 271.758 292.894 294.969 299.566 310.605C299.824 311.252 300.363 312.156 301.767 311.625C305.174 310.337 329.241 301.034 334.018 298.941C337.278 297.514 336.057 297.136 336.383 297.136Z" fill="#E0C2BA"/>
<path d="M327.926 223.975C327.335 224.157 327.827 223.152 327.335 223.77C326.219 225.17 325.119 226.583 324.015 227.992C322.773 226.572 320.541 226.177 319.227 228.297C311.622 240.579 304.016 252.863 296.412 265.146C295.724 265.285 295.056 265.652 294.511 266.356C288.058 274.661 281.605 282.969 275.154 291.274C270.471 299.043 265.785 306.812 261.101 314.579C261.039 314.597 260.984 314.593 260.92 314.623C259.3 315.381 208.171 338.384 189.626 346.048C177.792 350.939 165.907 355.69 153.974 360.306C145.336 363.644 133.712 366.006 127.11 373.285C123.767 376.972 122.825 381.619 123.974 385.963C127.028 385.269 130.104 384.04 132.403 383.461C134.561 382.915 136.711 382.351 138.863 381.798C164.531 370.227 190.699 359.87 216.809 349.43C235.602 341.916 254.387 334.354 272.922 326.166C280.575 322.789 286.406 319.017 291.423 312.002C297.496 303.519 303.278 294.773 309.108 286.104C319.018 271.364 327.573 257.785 336.479 242.368C333.627 236.237 330.775 230.105 327.926 223.975Z" fill="#CCA69B"/>
<path d="M255.209 302.823C253.286 298.072 241.199 268.586 238.433 262.602C238.239 262.182 237.487 261.585 236.97 261.862C230.372 264.199 209.71 272.98 203.045 275.103C202.128 275.394 202.463 276.052 202.625 276.432C204.555 280.966 211.722 300.654 218.394 316.294C218.651 316.94 219.19 317.843 220.594 317.313C224.001 316.023 248.068 306.722 252.846 304.63C256.106 303.202 254.883 302.823 255.209 302.823Z" fill="#E0C2BA"/>
<path d="M156.854 329.343L117.873 343.922C117.47 344.062 117.094 344.022 117.033 343.831L115.494 340.666C115.432 340.475 114.962 340.372 115.365 340.232L155.094 325.487C155.497 325.345 155.873 325.387 155.934 325.578L157.475 328.743C157.535 328.933 157.257 329.203 156.854 329.343Z" fill="#FFE5DE"/>
<path d="M139.052 289.923C138.916 289.596 138.779 289.27 138.63 288.937C138.125 287.796 137.365 287.15 136.53 286.881C135.415 284.171 134.299 281.461 133.185 278.749C132.612 277.359 131.546 276.71 130.41 276.606C129.225 272.799 128.041 268.991 126.858 265.184C126.195 263.055 124.399 262.147 122.723 262.246C121.968 259.96 121.19 257.681 120.361 255.416C119.796 253.873 118.477 253.25 117.115 253.289C116.737 252.252 116.35 251.219 115.943 250.192C115.37 248.746 113.738 248.881 112.888 249.795C112.597 249.549 112.307 249.304 112.018 249.058C108.701 246.241 105.366 250.901 106.504 254.169C107.026 255.668 107.535 257.182 108.042 258.7C107.923 259.029 107.904 259.417 108.035 259.864C112.302 274.387 115.687 289.804 122.149 303.515L142.132 295.973C142.248 295.686 142.372 295.408 142.471 295.084C143.331 292.232 141.239 290.18 139.052 289.923Z" fill="#ED8074"/>
<path d="M208.7 317.544L169.717 332.126C169.316 332.266 168.939 332.224 168.879 332.035L167.338 328.87C167.278 328.679 166.807 328.576 167.211 328.434L206.939 313.689C207.341 313.549 207.717 313.589 207.778 313.78L209.319 316.945C209.379 317.136 209.101 317.404 208.7 317.544Z" fill="#FFE5DE"/>
<path d="M199.65 298.771L160.668 313.352C160.264 313.492 159.888 313.45 159.827 313.261L158.288 310.096C158.226 309.905 157.757 309.802 158.159 309.662L197.888 294.915C198.291 294.775 198.668 294.817 198.728 295.006L200.269 298.173C200.329 298.362 200.051 298.63 199.65 298.771Z" fill="#FFE5DE"/>
<path d="M251.93 292.596L212.948 307.177C212.545 307.318 212.168 307.276 212.108 307.084L210.567 303.921C210.506 303.728 210.038 303.628 210.439 303.486L250.17 288.74C250.571 288.6 250.948 288.64 251.008 288.832L252.549 291.996C252.61 292.188 252.332 292.456 251.93 292.596Z" fill="#FFE5DE"/>
<path d="M177.351 222.082C176.086 216.272 174.383 210.565 171.978 205.033C171.834 204.702 171.652 204.436 171.452 204.201C169.538 200.702 166.621 197.927 162.854 195.912C156.925 192.746 151.363 192.261 146.836 187.398C144.989 185.414 139.07 175.733 137.832 173.512C138.56 164.411 136.291 154.138 134.01 145.223L95.916 158.301C96.9853 166.296 98.0597 176.88 103.04 183.047C106.952 187.893 112.493 187.494 117.875 186.219C121.052 191.149 124.399 195.949 127.92 200.62C122.659 206.617 115.513 210.721 110.91 217.534C109.139 220.153 107.699 222.952 106.539 225.865C103.205 232.815 101.254 240.433 100.063 248.232C103.458 247.838 106.624 250.944 106.514 254.039C107.469 254.284 108.393 254.667 109.245 255.173C110.476 255.903 111.467 256.911 112.357 258.019C113.053 257.941 113.775 257.997 114.493 258.249C119.192 259.891 123.849 262.87 124.819 268.252C125.52 268.397 126.223 268.519 126.924 268.679C129.987 269.382 130.942 272.784 130.164 275.579C131.155 276.266 131.945 277.339 132.278 278.897C132.39 279.422 132.43 279.987 132.455 280.558C137.579 285.834 142.706 291.083 145.934 294.442L171.074 284.957C171.071 284.914 171.064 284.872 171.061 284.826C169.925 266.013 174.023 247.325 172.595 228.534C172.328 225.025 174.766 222.681 177.351 222.082Z" fill="#ED8074"/>
<path d="M178.813 252.574C178.251 244.354 181.011 241.444 183.569 233.845L175.364 212.843C174.059 209.417 172.859 205.95 171.77 202.443L169.939 196.586C163.661 194.842 153.583 192.797 152.452 192.762C151.726 192.74 151.205 193.275 151.108 194.007C151 194.821 148.381 215.537 147.561 219.853C146.799 223.86 145.584 237.243 146.662 252.797C147.681 267.512 150.943 284.482 152.004 286.691C149.413 284.818 146.955 282.908 144.875 280.228C140.017 273.965 139.389 265.865 134.577 259.596C130.917 254.826 126.745 251.011 124.173 246.024C123.626 244.229 123.028 242.451 122.379 240.681C122.322 240.523 122.245 240.392 122.161 240.271C122.021 239.561 121.9 238.832 121.828 238.066C120.811 227.371 121.706 216.196 121.758 205.454C121.762 204.63 121.169 204.174 120.557 204.108C119.763 203.465 118.055 203.191 117.357 204.327C107.357 220.597 100.332 238.463 98.3069 257.84C98.24 258.477 98.5947 259.305 99.1486 259.617C103.488 262.056 111.984 261.061 116.557 262.203C119.663 267.057 121.278 270.908 124.267 275.966C127.63 281.657 129.841 287.892 133.798 293.223C134.945 294.769 136.185 296.22 137.493 297.594L186.207 279.91C186.073 275.409 179.156 257.6 178.813 252.574Z" fill="white"/>
<path d="M124.17 226.933C124.868 224.708 124.809 223.124 126.013 221.055C127.012 219.334 128.168 218.485 129.451 217.104C130.884 215.561 131.96 214.075 132.432 211.938C133.714 206.129 127.015 202.163 126.178 196.513C125.914 194.717 127.222 192.288 126.243 193.282C125.097 189.6 123.713 186.006 122.065 182.469C121.414 181.07 119.523 181.227 118.745 182.218C118.241 180.891 117.727 179.571 117.256 178.227C116.904 177.282 116.176 176.998 115.472 177.138C115.333 176.627 115.175 176.123 115.04 175.612C114.416 173.243 111.04 173.863 111.288 176.198C111.286 176.196 111.285 176.193 111.285 176.189C110.798 174.691 109.158 174.416 108.194 175.055C107.858 173.612 107.538 172.193 107.253 170.813C106.951 169.334 105.59 169 104.586 169.525C103.922 169.273 103.132 169.472 102.591 169.964C101.773 169.999 100.953 170.542 100.734 171.457C100.53 171.408 100.324 171.389 100.118 171.407C99.5692 167.004 98.9466 163.31 98.7358 161.876C98.5367 160.529 97.4791 160.166 96.5302 160.451C96.4148 159.725 96.2876 158.993 96.1604 158.26L89.3027 160.614C89.3362 167.872 89.3061 175.139 89.5136 182.39C89.6642 187.636 90.0156 193.464 93.0679 197.874C93.8979 199.075 94.8819 200.125 96.1152 200.86C98.858 202.492 104.097 201.429 105.761 204.883C106.991 207.439 106.422 212.536 106.982 215.388C107.58 218.432 108.43 221.477 109.668 224.313C112.744 231.357 120.899 237.363 124.17 226.933Z" fill="#161E2B"/>
<path d="M225.102 113.761C225.261 114.19 225.44 114.61 225.604 115.035C225.949 116.595 226.419 118.125 227.047 119.618C227.765 121.323 228.839 124.221 230.613 125.234C230.563 125.327 230.519 125.421 230.466 125.511C229.825 126.589 230.941 128.109 232.096 127.435C235.195 125.619 239.182 122.551 237.589 118.2C236.838 116.149 234.937 115.375 233.653 113.785C232.959 112.926 232.372 111.904 231.843 110.816L224.92 113.265C224.982 113.43 225.042 113.595 225.102 113.761Z" fill="#161E2B"/>
<path d="M127.967 200.733C127.76 200.971 128.61 201.279 129.254 201.221C129.53 200.954 129.801 200.672 130.081 200.413C135.338 195.537 141.651 191.658 148.413 188.959C147.891 188.521 147.38 188.048 146.883 187.514C145.036 185.527 139.117 175.849 137.879 173.627C138.607 164.526 136.337 154.252 134.057 145.336L95.9629 158.415C97.0322 166.409 98.1065 176.995 103.087 183.162C106.999 188.008 112.54 187.609 117.921 186.336C121.098 191.264 124.446 196.064 127.967 200.733Z" fill="#ED8074"/>
<path d="M114.424 151.936C115.316 152.298 116.291 152.611 117.364 152.928C124.101 154.912 124.488 157.606 125.704 163.439C126.3 166.294 127.048 169.14 128.092 171.857C132.601 183.598 142.522 189.573 153.461 193.564C153.694 193.649 162.951 196.707 164.842 197.908C165.04 198.034 165.952 198.494 166.706 198.356C167.51 198.207 168.146 197.437 167.945 196.765C166.688 192.551 165.441 188.227 163.176 184.463C160.674 180.311 156.962 177.177 153.965 173.443C146.907 164.648 144.467 153.459 140.179 143.092L114.424 151.936Z" fill="#161E2B"/>
<path d="M222.559 168.42C224.114 171.345 229.432 170.034 229.264 166.491C229.059 162.095 228.849 157.701 228.644 153.304C228.603 152.178 228.552 151.049 228.506 149.924C235.834 140.257 231.488 123.905 226.975 112.582L195.85 123.59C195.836 123.984 195.866 124.397 196.002 124.85C197.312 129.29 201.002 138.058 205.905 144.668C207.09 152.36 207.717 160.191 209.47 167.762C209.905 169.637 211.506 170.603 213.092 170.659C214.485 173.224 219.102 173.367 219.763 170.038C219.828 169.705 219.858 169.371 219.913 169.038C220.847 169.145 221.793 168.937 222.532 168.422C222.541 168.422 222.549 168.42 222.559 168.42Z" fill="#ED8074"/>
<path d="M279.319 192.66C273.4 187.807 267.192 183.326 260.787 179.207C255.061 175.52 249.154 172.154 243.114 169.057C239.077 166.986 234.704 165.267 230.934 162.713C230.815 161.195 230.485 159.649 229.993 159.064C228.444 157.214 224.563 159.15 222.722 159.511C220.389 159.969 218.047 160.369 215.696 160.701C213.866 160.96 210.884 160.722 209.251 161.501C207.718 162.233 207.717 164.036 207.866 165.78C200.206 179.993 190.256 195.214 190.124 211.071L206.972 251.434C207.26 251.794 207.549 252.631 207.846 253.774L212.949 266.002C213.318 266.94 214.33 267.408 215.239 267.056C215.239 267.056 260.95 246.683 287.939 234.409C296.942 228.527 303.886 223.862 304.661 222.84C304.675 222.735 304.681 222.628 304.691 222.523C302.927 216.795 283.484 196.075 279.319 192.66Z" fill="#161E2B"/>
<path d="M188.694 128.218C188.704 130.257 189.141 132.264 190.657 133.668C192.733 135.588 197.245 136.313 199.82 134.777C200.272 134.742 200.722 134.667 201.169 134.553C203.639 135.105 206.293 135.115 208.571 133.858C211.185 132.418 210.952 130.489 211.337 127.768C211.928 123.598 215.952 121.825 216.33 117.638C216.375 117.14 216.365 116.655 216.324 116.176L188.781 125.916C188.729 126.676 188.689 127.437 188.694 128.218Z" fill="#161E2B"/>
<path d="M209.407 147.745C206.788 142.337 203.557 137.331 200.292 132.336C199.827 131.622 198.834 131.818 198.351 132.408C198.242 132.264 198.153 132.116 198.038 131.976C197.511 131.34 196.599 131.454 196.125 132.011C196.057 131.976 195.993 131.934 195.924 131.9C195.371 131.634 194.756 131.956 194.443 132.464C194.464 132.34 194.492 132.219 194.479 132.081C194.475 132.046 194.472 132.007 194.469 131.974C194.412 131.396 193.816 130.964 193.302 130.922C193.26 130.918 193.215 130.915 193.173 130.911C192.502 130.861 191.851 131.445 191.83 132.158C191.783 133.66 192.891 134.983 193.749 136.1C195.371 138.211 196.917 140.098 198.153 142.511C199.024 144.21 199.73 146.005 201.276 147.181C203.135 148.594 205.669 149.119 207.864 149.602C208.892 149.828 209.951 148.872 209.407 147.745Z" fill="#161E2B"/>
<path d="M169.393 300.67C169.291 300.199 169.01 299.821 168.918 299.348C168.864 299.113 168.823 298.874 168.739 298.651C168.623 298.387 168.503 298.137 168.424 297.86C168.376 297.676 168.312 297.447 168.448 297.277C168.59 297.093 168.921 297.09 169.129 297.03C169.567 296.883 169.979 296.666 170.411 296.512C170.844 296.353 171.296 296.215 171.728 296.057C171.944 295.98 172.163 295.913 172.395 295.843C172.593 295.786 172.804 295.761 172.986 295.894C173.155 296.02 173.212 296.267 173.264 296.461C173.319 296.666 173.353 296.883 173.237 297.071C173.117 297.249 172.907 297.31 172.722 297.365C172.491 297.436 172.263 297.557 172.041 297.653C171.619 297.844 171.167 297.942 170.752 298.147C170.596 298.217 170.429 298.292 170.392 298.492C170.386 298.587 170.422 298.695 170.437 298.781C170.481 298.914 170.516 299.061 170.561 299.192C170.618 299.397 170.71 299.523 170.923 299.472C171.15 299.43 171.376 299.306 171.579 299.222C171.821 299.106 172.047 298.986 172.287 298.898C172.519 298.826 172.737 298.76 172.964 298.867C173.364 299.066 173.55 299.826 173.155 300.131C172.953 300.285 172.66 300.323 172.407 300.416C172.169 300.5 171.923 300.603 171.676 300.708C171.475 300.792 171.217 300.901 171.247 301.183C171.272 301.415 171.395 301.662 171.482 301.886L171.505 301.958C171.631 302.378 171.761 302.812 171.858 303.255C171.895 303.443 171.922 303.633 171.748 303.763C171.574 303.893 171.314 303.963 171.122 304.031C170.955 304.104 170.739 304.223 170.57 304.096C170.409 303.956 170.365 303.637 170.3 303.434C170.223 303.21 170.126 302.991 170.048 302.753C169.964 302.503 169.894 302.249 169.79 302.018C169.617 301.575 169.487 301.142 169.393 300.67Z" fill="#161E2B"/>
<path d="M174.856 298.654C174.754 298.183 174.473 297.805 174.381 297.332C174.327 297.098 174.285 296.858 174.202 296.636C174.086 296.371 173.966 296.121 173.887 295.844C173.839 295.661 173.775 295.431 173.911 295.261C174.053 295.078 174.384 295.074 174.592 295.015C175.03 294.868 175.442 294.651 175.874 294.496C176.307 294.337 176.759 294.199 177.191 294.041C177.406 293.964 177.626 293.898 177.858 293.828C178.056 293.77 178.267 293.745 178.449 293.879C178.618 294.005 178.675 294.251 178.727 294.446C178.782 294.651 178.815 294.868 178.7 295.055C178.579 295.233 178.37 295.295 178.185 295.349C177.954 295.421 177.726 295.542 177.503 295.638C177.082 295.829 176.63 295.927 176.215 296.132C176.059 296.202 175.892 296.277 175.855 296.476C175.848 296.571 175.885 296.679 175.9 296.765C175.944 296.898 175.979 297.045 176.024 297.177C176.081 297.381 176.173 297.507 176.386 297.457C176.613 297.415 176.839 297.29 177.042 297.206C177.284 297.091 177.51 296.97 177.749 296.883C177.982 296.811 178.2 296.744 178.427 296.851C178.827 297.051 179.013 297.81 178.618 298.115C178.415 298.269 178.123 298.307 177.87 298.4C177.632 298.484 177.386 298.588 177.139 298.693C176.938 298.777 176.68 298.885 176.71 299.167C176.735 299.4 176.858 299.647 176.945 299.871L176.968 299.943C177.093 300.363 177.224 300.797 177.321 301.24C177.358 301.427 177.385 301.618 177.211 301.747C177.037 301.877 176.777 301.947 176.585 302.015C176.417 302.089 176.202 302.208 176.033 302.08C175.872 301.94 175.828 301.621 175.763 301.418C175.686 301.194 175.589 300.975 175.51 300.737C175.427 300.487 175.356 300.233 175.253 300.002C175.08 299.559 174.95 299.127 174.856 298.654Z" fill="#161E2B"/>
<path d="M114.927 321.959C114.798 321.765 114.622 321.616 114.451 321.451L114.217 321.205C114.135 321.114 114.055 320.982 113.959 320.925C113.678 320.772 113.671 321.215 113.655 321.394C113.638 321.614 113.61 321.837 113.61 322.064C113.603 322.241 113.554 322.591 113.738 322.684C113.906 322.77 114.128 322.637 114.289 322.577C114.552 322.483 115.239 322.406 114.927 321.959ZM113.757 318.395C113.973 318.705 114.254 318.936 114.501 319.221C114.794 319.524 115.069 319.855 115.355 320.175C115.648 320.485 115.954 320.786 116.185 321.142C116.608 321.802 117.147 322.353 117.663 322.941C117.89 323.202 118.21 323.594 117.84 323.901C117.701 324.02 117.505 324.079 117.335 324.139C117.15 324.207 116.935 324.245 116.747 324.139C116.451 323.981 116.317 323.494 115.924 323.505C115.634 323.515 115.313 323.661 115.04 323.759C114.756 323.864 114.493 323.999 114.224 324.109C114.068 324.181 113.891 324.217 113.753 324.307C113.588 324.42 113.538 324.613 113.509 324.797C113.437 325.196 113.38 325.523 112.985 325.681C112.698 325.81 112.204 325.977 112.026 325.562C111.951 325.403 111.993 325.187 112.015 325.019L112.06 324.387C112.09 323.978 112.172 323.575 112.202 323.162C112.242 322.708 112.202 322.243 112.202 321.775C112.206 321.332 112.331 320.902 112.356 320.438C112.386 319.988 112.433 319.517 112.447 319.058C112.443 318.859 112.435 318.637 112.485 318.444C112.54 318.265 112.719 318.038 112.917 318.02C113.305 317.88 113.524 318.078 113.757 318.395Z" fill="#161E2B"/>
<path d="M166.922 301.065C166.713 300.741 166.415 300.382 166.049 300.235C165.291 299.95 164.385 300.106 163.86 300.79C163.324 301.52 163.164 302.458 163.634 303.26C163.856 303.659 164.204 304.095 164.636 304.244C165.127 304.412 165.593 304.363 166.072 304.19C166.259 304.135 166.459 304.05 166.626 303.938C166.78 303.826 166.889 303.654 166.986 303.484C167.202 303.139 167.329 302.679 167.31 302.273C167.287 301.814 167.16 301.432 166.922 301.065ZM168.462 300.667C168.621 300.997 168.701 301.315 168.76 301.679C168.828 302.12 168.887 302.567 168.842 303.011C168.791 303.467 168.624 303.81 168.393 304.188C168.157 304.554 167.909 304.883 167.573 305.138C167.24 305.406 166.852 305.693 166.445 305.816C165.781 306.084 164.989 306.077 164.305 305.9C163.942 305.805 163.607 305.566 163.316 305.338C163.023 305.11 162.767 304.871 162.551 304.575C162.128 303.98 161.768 303.206 161.758 302.45C161.753 301.702 161.9 300.876 162.257 300.225C162.444 299.904 162.723 299.629 162.983 299.374C163.261 299.101 163.57 298.882 163.905 298.695C164.218 298.528 164.591 298.455 164.949 298.421C165.317 298.381 165.69 298.392 166.05 298.514C166.423 298.633 166.748 298.808 167.081 299.008C167.374 299.195 167.724 299.4 167.918 299.689C168.132 299.985 168.311 300.335 168.462 300.667Z" fill="#161E2B"/>
<path d="M120.875 316.956C120.501 316.627 119.9 316.858 119.498 316.99C119.277 317.06 118.867 317.088 118.787 317.341C118.73 317.485 118.794 317.634 118.825 317.77L118.963 318.185C119.046 318.436 119.103 318.721 119.24 318.94C119.361 319.15 119.532 319.125 119.732 319.041C120.206 318.856 120.777 318.77 121.083 318.269C121.332 317.872 121.232 317.256 120.875 316.956ZM122.582 318.486C122.402 318.859 122.161 319.292 121.826 319.547C121.736 319.621 120.753 320.043 120.747 320.018L120.735 320.023C120.472 320.118 119.907 320.218 119.865 320.554C119.85 320.706 119.943 320.872 119.987 321.002C120.057 321.177 120.092 321.35 120.151 321.531C120.245 321.856 120.484 322.304 120.275 322.632C120.173 322.791 120.014 322.847 119.853 322.905C119.694 322.964 119.508 323.017 119.341 323.013C118.933 322.971 118.844 322.511 118.733 322.178C118.618 321.833 118.538 321.476 118.394 321.154C118.26 320.829 118.119 320.521 118.012 320.2C117.878 319.794 117.751 319.372 117.594 318.977C117.334 318.311 117.087 317.601 116.953 316.888C116.884 316.485 117.017 316.237 117.39 316.09C117.726 315.953 118.056 315.832 118.385 315.675C118.749 315.502 119.087 315.367 119.463 315.271C119.816 315.18 120.169 315.053 120.531 315.067C120.919 315.087 121.229 315.176 121.558 315.4C121.843 315.607 122.152 315.841 122.363 316.137C122.858 316.813 122.954 317.725 122.582 318.486Z" fill="#161E2B"/>
<path d="M143.026 306.725C143.422 306.727 144.185 306.876 144.16 307.422C144.152 307.663 144.026 307.977 143.869 308.152C143.658 308.402 143.414 308.399 143.128 308.343C142.627 308.255 142.033 308.232 141.653 308.623C141.491 308.791 141.334 309.087 141.463 309.32C141.568 309.523 141.851 309.645 142.053 309.68C142.336 309.724 142.637 309.706 142.917 309.738C143.191 309.761 143.447 309.773 143.712 309.757C144.237 309.729 144.768 309.787 145.163 310.177C145.365 310.358 145.534 310.562 145.686 310.788C145.852 311.021 145.909 311.268 145.927 311.553C146.009 312.646 145.181 313.68 144.274 314.102C144.016 314.209 143.748 314.254 143.487 314.307C143.236 314.359 142.979 314.426 142.731 314.45C142.457 314.47 142.175 314.424 141.916 314.372C141.697 314.331 141.335 314.275 141.18 314.081C141.036 313.88 141.143 313.544 141.198 313.325C141.267 313.073 141.367 312.838 141.642 312.777C141.899 312.712 142.179 312.822 142.435 312.863C142.694 312.915 142.965 312.885 143.216 312.833C143.492 312.786 143.727 312.686 143.946 312.5C144.11 312.374 144.334 312.092 144.266 311.851C144.187 311.613 143.862 311.478 143.648 311.448C143.389 311.396 143.106 311.39 142.843 311.368C142.291 311.313 141.745 311.326 141.212 311.214C140.681 311.112 140.276 310.699 140.003 310.223C139.881 310.002 139.818 309.743 139.784 309.491C139.754 309.207 139.828 308.968 139.931 308.703C140.035 308.437 140.186 308.196 140.345 307.954C140.48 307.742 140.631 307.501 140.833 307.348C140.889 307.287 141.508 306.956 141.518 306.991C142.008 306.814 142.498 306.716 143.026 306.725Z" fill="#161E2B"/>
<path d="M120.875 316.956C120.501 316.627 119.9 316.858 119.498 316.99C119.277 317.06 118.867 317.088 118.787 317.341C118.73 317.485 118.794 317.634 118.825 317.77L118.963 318.185C119.046 318.436 119.103 318.721 119.24 318.94C119.361 319.15 119.532 319.125 119.732 319.041C120.206 318.856 120.777 318.77 121.083 318.269C121.332 317.872 121.232 317.256 120.875 316.956ZM122.582 318.486C122.402 318.859 122.161 319.292 121.826 319.547C121.736 319.621 120.753 320.043 120.747 320.018L120.735 320.023C120.472 320.118 119.907 320.218 119.865 320.554C119.85 320.706 119.943 320.872 119.987 321.002C120.057 321.177 120.092 321.35 120.151 321.531C120.245 321.856 120.484 322.304 120.275 322.632C120.173 322.791 120.014 322.847 119.853 322.905C119.694 322.964 119.508 323.017 119.341 323.013C118.933 322.971 118.844 322.511 118.733 322.178C118.618 321.833 118.538 321.476 118.394 321.154C118.26 320.829 118.119 320.521 118.012 320.2C117.878 319.794 117.751 319.372 117.594 318.977C117.334 318.311 117.087 317.601 116.953 316.888C116.884 316.485 117.017 316.237 117.39 316.09C117.726 315.953 118.056 315.832 118.385 315.675C118.749 315.502 119.087 315.367 119.463 315.271C119.816 315.18 120.169 315.053 120.531 315.067C120.919 315.087 121.229 315.176 121.558 315.4C121.843 315.607 122.152 315.841 122.363 316.137C122.858 316.813 122.954 317.725 122.582 318.486Z" fill="#161E2B"/>
<path d="M126.659 314.941C126.284 314.612 125.683 314.843 125.281 314.974C125.061 315.044 124.651 315.072 124.57 315.326C124.513 315.469 124.577 315.618 124.609 315.755L124.746 316.17C124.83 316.42 124.886 316.705 125.024 316.924C125.144 317.134 125.315 317.11 125.516 317.026C125.989 316.84 126.56 316.754 126.866 316.254C127.115 315.856 127.015 315.24 126.659 314.941ZM128.366 316.471C128.185 316.844 127.944 317.276 127.609 317.532C127.519 317.605 126.536 318.027 126.53 318.002L126.518 318.008C126.255 318.102 125.69 318.202 125.648 318.538C125.633 318.69 125.727 318.857 125.77 318.986C125.84 319.161 125.875 319.335 125.934 319.515C126.028 319.841 126.267 320.289 126.058 320.616C125.956 320.775 125.797 320.831 125.636 320.889C125.477 320.949 125.291 321.001 125.124 320.998C124.716 320.956 124.627 320.495 124.517 320.163C124.401 319.818 124.321 319.461 124.177 319.139C124.043 318.813 123.903 318.505 123.795 318.185C123.662 317.778 123.534 317.357 123.377 316.961C123.118 316.296 122.87 315.585 122.736 314.872C122.668 314.47 122.8 314.221 123.173 314.074C123.509 313.938 123.839 313.817 124.169 313.659C124.532 313.486 124.87 313.351 125.246 313.255C125.599 313.164 125.952 313.038 126.314 313.052C126.702 313.071 127.012 313.16 127.341 313.384C127.626 313.591 127.935 313.826 128.146 314.121C128.642 314.797 128.737 315.709 128.366 316.471Z" fill="#161E2B"/>
<path d="M135.305 316.124C135.401 316.371 135.506 316.693 135.464 316.948C135.396 317.241 135.183 317.332 134.939 317.407C134.653 317.498 134.356 317.603 134.08 317.731C133.526 317.987 132.926 318.137 132.368 318.379C132.116 318.498 131.843 318.598 131.579 318.692C131.366 318.781 131.043 318.955 130.849 318.759C130.656 318.561 130.625 318.198 130.541 317.95C130.459 317.659 130.364 317.374 130.292 317.078C130.21 316.789 130.148 316.492 130.042 316.21C129.949 315.923 129.828 315.646 129.711 315.369C129.594 315.091 129.527 314.811 129.458 314.527C129.393 314.218 129.281 313.913 129.192 313.61C129.093 313.313 129.022 313.017 128.911 312.724C128.841 312.509 128.622 312.162 128.807 311.947C128.961 311.76 129.296 311.732 129.503 311.63C129.763 311.522 130.016 311.403 130.277 311.306C130.839 311.117 131.411 311.002 131.943 310.718C132.337 310.52 133.111 310.09 133.438 310.613C133.56 310.823 133.654 311.189 133.647 311.431C133.627 311.718 133.392 311.858 133.173 311.963C132.638 312.197 132.07 312.323 131.523 312.523C131.284 312.609 130.973 312.709 130.787 312.884C130.591 313.062 130.698 313.344 130.759 313.561C130.829 313.776 130.934 314.097 131.217 314.062C131.5 314.027 131.781 313.843 132.054 313.745C132.472 313.58 133.244 313.218 133.572 313.74C133.697 313.934 133.794 314.26 133.72 314.499C133.632 314.771 133.389 314.886 133.152 314.972C133.083 314.998 132.352 315.291 132.352 315.291L132.338 315.294C132.204 315.345 132.079 315.39 131.95 315.424C131.821 315.457 131.654 315.49 131.589 315.608C131.525 315.725 131.568 315.854 131.615 315.958C131.672 316.084 131.714 316.215 131.758 316.348C131.794 316.453 131.818 316.604 131.913 316.663C132.019 316.745 132.156 316.698 132.268 316.654L133.041 316.374C133.57 316.196 134.114 315.917 134.671 315.825C134.937 315.779 135.198 315.844 135.305 316.124Z" fill="#161E2B"/>
<path d="M191.966 294.835C192.062 295.082 192.167 295.404 192.125 295.659C192.057 295.952 191.844 296.043 191.6 296.118C191.314 296.209 191.018 296.314 190.741 296.442C190.188 296.698 189.587 296.848 189.03 297.09C188.777 297.209 188.504 297.308 188.24 297.403C188.027 297.492 187.704 297.666 187.51 297.47C187.318 297.272 187.286 296.909 187.202 296.661C187.12 296.37 187.025 296.085 186.953 295.789C186.871 295.5 186.809 295.203 186.703 294.921C186.61 294.634 186.489 294.357 186.372 294.08C186.255 293.802 186.188 293.522 186.119 293.238C186.054 292.929 185.942 292.624 185.853 292.321C185.755 292.023 185.683 291.728 185.572 291.435C185.502 291.22 185.283 290.873 185.468 290.658C185.622 290.471 185.957 290.443 186.165 290.341C186.424 290.233 186.677 290.114 186.938 290.017C187.5 289.828 188.072 289.713 188.604 289.429C188.998 289.231 189.772 288.801 190.099 289.324C190.221 289.534 190.315 289.9 190.308 290.142C190.288 290.429 190.054 290.569 189.834 290.674C189.299 290.908 188.732 291.034 188.184 291.234C187.945 291.32 187.634 291.42 187.448 291.595C187.252 291.773 187.359 292.055 187.42 292.272C187.49 292.487 187.595 292.808 187.878 292.773C188.161 292.738 188.442 292.554 188.715 292.456C189.133 292.291 189.905 291.929 190.233 292.451C190.358 292.645 190.455 292.971 190.382 293.21C190.293 293.482 190.05 293.597 189.813 293.683C189.744 293.709 189.013 294.002 189.013 294.002L188.999 294.005C188.866 294.056 188.74 294.101 188.611 294.135C188.482 294.168 188.315 294.201 188.25 294.318C188.186 294.436 188.23 294.565 188.276 294.669C188.333 294.795 188.375 294.926 188.419 295.059C188.456 295.164 188.479 295.315 188.574 295.374C188.68 295.456 188.817 295.409 188.929 295.365L189.702 295.085C190.231 294.907 190.775 294.628 191.332 294.536C191.598 294.49 191.859 294.555 191.966 294.835Z" fill="#161E2B"/>
<path d="M182.95 295.753C183.138 295.632 183.362 295.418 183.474 295.217C183.703 294.758 183.6 294.104 183.148 293.853C182.955 293.736 182.663 293.696 182.447 293.736C182.219 293.778 182.012 293.92 181.794 293.997C181.602 294.069 181.295 294.074 181.165 294.253C181.041 294.457 181.208 294.811 181.294 294.993C181.414 295.271 181.526 295.537 181.622 295.823C181.727 296.145 181.941 296.092 182.202 295.998C182.445 295.882 182.719 295.905 182.95 295.753ZM179.763 295.294C179.604 294.888 179.453 294.477 179.347 294.048C179.257 293.612 179.215 293.146 179.702 292.997C180.117 292.861 180.537 292.787 180.937 292.603C181.336 292.43 181.754 292.187 182.194 292.133C182.621 292.071 183.062 292.098 183.491 292.194C183.685 292.245 183.882 292.306 184.051 292.392C184.256 292.504 184.391 292.681 184.528 292.861C184.794 293.241 185.076 293.593 185.101 294.091C185.124 294.548 185.211 295.079 185.019 295.494C184.915 295.72 184.784 295.902 184.649 296.11C184.51 296.306 184.517 296.478 184.704 296.623C184.866 296.765 185.084 296.885 185.286 296.957C185.502 297.027 185.712 296.966 185.924 296.994C186.362 297.048 186.677 297.535 186.568 297.974C186.51 298.181 186.347 298.307 186.165 298.373C185.961 298.447 185.71 298.499 185.489 298.487C185.032 298.492 184.625 298.345 184.246 298.085C183.898 297.838 183.476 297.603 183.047 297.545C182.875 297.53 182.591 297.51 182.435 297.622C182.227 297.764 182.363 298.062 182.423 298.24C182.507 298.489 182.574 298.732 182.646 298.986C182.708 299.214 182.734 299.448 182.557 299.646C182.408 299.807 182.157 299.896 181.956 299.944C181.747 300.007 181.526 300.031 181.356 299.868C181.198 299.697 181.118 299.42 181.038 299.21C180.941 298.925 180.849 298.638 180.763 298.347C180.711 298.195 180.333 296.744 180.286 296.761C180.121 296.259 179.958 295.774 179.763 295.294Z" fill="#161E2B"/>
<path d="M194.747 287.395C195.143 287.397 195.906 287.546 195.881 288.092C195.873 288.333 195.747 288.647 195.59 288.824C195.381 289.072 195.135 289.069 194.849 289.013C194.35 288.925 193.754 288.902 193.376 289.296C193.214 289.461 193.056 289.755 193.184 289.989C193.291 290.192 193.573 290.315 193.774 290.348C194.059 290.394 194.358 290.376 194.636 290.408C194.911 290.431 195.17 290.443 195.433 290.427C195.958 290.396 196.489 290.459 196.885 290.845C197.086 291.028 197.257 291.232 197.407 291.458C197.575 291.691 197.632 291.938 197.65 292.223C197.732 293.314 196.9 294.35 195.995 294.772C195.737 294.879 195.471 294.923 195.21 294.977C194.957 295.029 194.701 295.096 194.454 295.12C194.178 295.14 193.896 295.094 193.637 295.042C193.42 295.001 193.056 294.947 192.902 294.751C192.759 294.55 192.866 294.214 192.919 293.995C192.989 293.743 193.09 293.506 193.363 293.447C193.62 293.38 193.901 293.492 194.156 293.533C194.417 293.585 194.686 293.552 194.936 293.503C195.213 293.456 195.449 293.358 195.669 293.168C195.831 293.044 196.055 292.761 195.988 292.521C195.91 292.283 195.585 292.148 195.369 292.118C195.11 292.067 194.829 292.06 194.566 292.038C194.014 291.983 193.466 291.996 192.933 291.884C192.402 291.782 191.997 291.369 191.726 290.893C191.601 290.672 191.54 290.413 191.507 290.157C191.477 289.877 191.55 289.636 191.654 289.371C191.758 289.107 191.908 288.867 192.067 288.62C192.201 288.412 192.352 288.171 192.556 288.018C192.611 287.957 193.229 287.626 193.24 287.661C193.729 287.484 194.221 287.386 194.747 287.395Z" fill="#161E2B"/>
<mask id="mask2_3139_79995" style="mask-type:luminance" maskUnits="userSpaceOnUse" x="18" y="106" width="102" height="282">
<path d="M18.3213 106.566H119.423V387.356H18.3213V106.566Z" fill="white"/>
</mask>
<g mask="url(#mask2_3139_79995)">
<path d="M21.9964 106.6C20.4016 108.191 18.0354 113.015 18.417 114.153C19.744 118.125 76.3691 284.418 99.72 350.277C102.744 358.804 105.883 367.287 109.178 375.704C110.535 379.173 111.73 384.693 115.338 386.568C116.533 387.189 117.918 387.394 119.386 387.349L21.9964 106.6Z" fill="#F0D1C9"/>
</g>
<path d="M258.191 295.729C248.465 289.796 237.267 288.648 226.316 286.868C224.664 286.509 223.006 286.174 221.341 285.864C215.445 284.609 209.521 283.517 203.535 282.731C201.914 282.517 201.104 284.48 201.8 285.747C201.337 285.663 200.873 285.576 200.409 285.492C198.676 285.171 198.097 287.074 198.714 288.387C193.617 286.768 200.1 286.055 195.137 283.995C192.854 283.05 179.934 285.922 182.208 286.864C195.859 292.532 210.361 295.69 224.006 301.406C231.087 304.375 238.033 307.682 245.063 310.768C248.545 312.296 256.044 317.235 259.95 315.99C261.677 315.44 262.49 313.665 262.928 311.638C263.36 310.29 263.479 308.82 263.476 307.356C263.533 306.712 263.589 306.11 263.665 305.6C264.523 299.904 263.035 298.682 258.191 295.729Z" fill="#CCA69B"/>
<path d="M341.627 200.68C338.468 197.592 201.962 271.181 182.006 285.069C181.253 285.592 181.65 286.921 182.624 287.021C197 288.519 211.356 290.215 225.686 292.146C232.674 293.088 239.657 294.082 246.634 295.128C250.479 295.705 254.475 295.621 257.38 298.506C260.508 301.608 260.361 305.733 260.175 309.995C260.113 311.424 260.6 315.398 261.464 314.296C285.142 284.097 308.893 256.408 331.302 225.166C333.973 221.44 336.637 217.706 339.291 213.965C340.859 211.756 344.442 208.365 344.417 205.248C344.401 203.17 342.951 201.972 341.627 200.68Z" fill="#F0D1C9"/>
<path d="M295.361 259.625C290.496 258.78 265.202 255.448 258.892 254.685C258.447 254.632 257.98 255.222 257.511 255.581C252.513 259.394 233.858 270.141 221.822 279.923C221.064 280.541 222.277 280.949 222.669 281.01C227.361 281.733 255.567 286.288 271.76 288.776C272.42 288.895 273.439 288.905 273.764 287.379C274.548 283.68 294.676 268.024 295.55 262.683C296.146 259.039 295.187 259.916 295.361 259.625Z" fill="#E0C2BA"/>
<path d="M307.592 223.933C307.148 223.865 306.663 224.439 306.184 224.781C301.07 228.42 282.035 238.44 269.699 247.808C268.924 248.398 270.122 248.848 270.512 248.921C274.217 249.623 292.643 253.242 308.142 256.224C315.447 246.89 322.662 237.395 329.744 227.555C321.096 226.102 311.213 224.499 307.592 223.933Z" fill="#E0C2BA"/>
<path d="M339.284 214.076C340.852 211.867 344.434 208.476 344.412 205.358C344.395 203.278 342.941 202.083 341.622 200.792C341.619 200.789 341.612 200.791 341.61 200.787C335.143 207.432 309.3 236.644 304.258 242.512C292.897 254.651 263.761 288.29 256.462 297.857C256.773 298.088 257.083 298.326 257.372 298.616C260.502 301.718 260.353 305.845 260.165 310.104C260.105 311.534 260.592 315.508 261.455 314.407C285.134 284.207 308.883 256.519 331.294 225.276C333.966 221.549 336.629 217.817 339.284 214.076Z" fill="#E0C2BA"/>
<path d="M158.227 304.45C158.125 304.247 157.994 304.082 157.835 303.915C157.522 303.594 157.151 303.424 156.709 303.367C156.268 303.311 155.782 303.4 155.39 303.596C155.203 303.697 155.027 303.795 155.036 304.049C155.047 304.231 155.124 304.444 155.192 304.632C155.525 305.547 155.773 306.496 156.188 307.365C156.273 307.561 156.353 307.743 156.41 307.936C156.472 308.184 156.558 308.423 156.85 308.337C157.031 308.295 157.19 308.19 157.332 308.12C157.524 308.031 157.711 307.929 157.887 307.833C158.099 307.721 158.265 307.599 158.387 307.394C158.523 307.153 158.634 306.881 158.676 306.608C158.752 306.049 158.669 305.551 158.477 305.024C158.49 305.02 158.244 304.5 158.227 304.45ZM156.684 309.962C156.374 310.111 155.979 310.337 155.627 310.218C155.221 310.103 155.16 309.626 155.031 309.275L154.502 307.821C154.37 307.458 154.288 307.076 154.149 306.699C154.031 306.374 153.855 306.085 153.756 305.737C153.645 305.394 153.548 305.045 153.412 304.713C153.267 304.354 153.096 303.962 153.037 303.569C152.98 303.104 153.391 302.845 153.767 302.684C153.951 302.611 154.154 302.59 154.348 302.544C154.524 302.489 154.687 302.397 154.849 302.303C155.191 302.128 155.52 301.986 155.893 301.896C156.317 301.788 156.787 301.848 157.204 301.914C158.038 302.047 158.897 302.327 159.395 303.077C159.823 303.712 160.178 304.418 160.344 305.183C160.445 305.616 160.524 306.059 160.442 306.491C160.346 306.957 160.214 307.481 159.958 307.896C159.69 308.316 159.377 308.653 158.976 308.938C158.634 309.188 158.222 309.333 157.829 309.486C157.437 309.639 157.069 309.783 156.684 309.962Z" fill="#161E2B"/>
<path d="M160.498 298.621L160.353 301.208L159.599 300.597L159.321 297.668L160.498 298.621Z" fill="#161E2B"/>
</g>
<defs>
<linearGradient id="paint0_linear_3139_79995" x1="23" y1="52" x2="358.999" y2="388.999" gradientUnits="userSpaceOnUse">
<stop stop-color="#E3B9D7"/>
<stop offset="1" stop-color="#A9CDE1"/>
</linearGradient>
<clipPath id="clip0_3139_79995">
<rect width="347" height="363" fill="white" transform="translate(18 38)"/>
</clipPath>
</defs>
</svg>
