<svg width="25" height="24" viewBox="0 0 25 24" fill="none" xmlns="http://www.w3.org/2000/svg">
<mask id="mask0_1596_36606" style="mask-type:luminance" maskUnits="userSpaceOnUse" x="4" y="3" width="17" height="6">
<path d="M4.99023 3.95959H20.0134V8.65184H4.99023V3.95959Z" fill="white"/>
</mask>
<g mask="url(#mask0_1596_36606)">
<path d="M14.4556 6.5817H10.5514V5.33124H14.4556V6.5817ZM20.0092 7.5949C19.9199 6.96087 19.467 6.64733 18.825 6.63286C17.855 6.61075 16.8837 6.62707 15.8888 6.62707C15.651 5.67383 16.2278 4.51608 14.9839 3.95959H10.0231C8.77836 4.51608 9.35538 5.67383 9.11811 6.62707C8.12322 6.62707 7.15185 6.61075 6.18131 6.63286C5.53919 6.64733 5.08648 6.96087 4.99702 7.5949C4.92287 8.12615 5.46565 8.58101 6.17866 8.63841C6.3331 8.65103 18.6732 8.65103 18.8276 8.63841C19.5407 8.58101 20.0841 8.12615 20.0092 7.5949Z" fill="#D892C0"/>
</g>
<path d="M9.07202 10.6302C9.47362 10.6044 9.8206 10.8958 9.84688 11.2814L10.5369 21.2068C10.5639 21.5922 10.2602 21.9253 9.8587 21.9513C9.45722 21.9765 9.11024 21.685 9.08324 21.3001L8.39386 11.3741C8.36697 10.9892 8.67055 10.6561 9.07202 10.6302ZM11.8722 11.3084C11.8722 10.9545 12.1482 10.6681 12.5031 10.6214C12.8587 10.6681 13.1339 10.9545 13.1339 11.3084V21.2566C13.1339 21.61 12.8587 21.897 12.5031 21.9431C12.1482 21.897 11.8722 21.61 11.8722 21.2566V11.3084ZM15.1594 11.2814C15.1863 10.8958 15.5333 10.6044 15.9347 10.6302C16.3356 10.6561 16.6393 10.9892 16.613 11.3741L15.9229 21.3001C15.8966 21.685 15.549 21.9765 15.1482 21.9513C14.7466 21.9253 14.443 21.5922 14.47 21.2068L15.1594 11.2814ZM6.90611 21.3109C7.02438 22.4365 7.09141 23.5771 8.50104 23.9872H16.5052C17.9155 23.5771 17.9825 22.4365 18.1008 21.3109C18.4858 17.639 19.2738 9.68322 19.2738 9.33368H5.73242C5.73242 9.68322 6.5203 17.639 6.90611 21.3109Z" fill="#D892C0"/>
</svg>
