<svg width="39" height="39" viewBox="0 0 39 39" fill="none" xmlns="http://www.w3.org/2000/svg">
<path d="M19.4635 0.304688C8.99987 0.304688 0.517578 8.78698 0.517578 19.2506C0.517578 29.7143 8.99987 38.1966 19.4635 38.1966C29.9272 38.1966 38.4095 29.7143 38.4095 19.2506C38.4095 8.78698 29.9272 0.304688 19.4635 0.304688Z" fill="#AAD060"/>
<path d="M9.37793 24.616V28.6535H13.4154L25.3282 16.7397L21.2907 12.7022L9.37793 24.616ZM28.44 13.628C28.86 13.2079 28.86 12.5251 28.44 12.105L25.9264 9.59045C25.5063 9.17037 24.8225 9.17037 24.4025 9.59045L22.4329 11.561L26.4704 15.5985L28.44 13.628Z" fill="white"/>
</svg>
