<svg width="182" height="182" viewBox="0 0 182 182" fill="none" xmlns="http://www.w3.org/2000/svg">
<mask id="mask0_2738_78312" style="mask-type:luminance" maskUnits="userSpaceOnUse" x="56" y="117" width="64" height="65">
<path d="M56.1719 117.665H119.272V181.976H56.1719V117.665Z" fill="white"/>
</mask>
<g mask="url(#mask0_2738_78312)">
<path d="M117.539 180.043C113.878 180.015 113.792 180.126 112.353 180.015L91.6514 180.029C90.6684 180.029 89.8267 179.326 89.6467 178.361C89.0244 175.024 88.5803 171.659 88.3135 168.275C88.281 167.856 87.6772 167.78 87.5631 168.2C86.7091 171.445 85.8709 174.694 85.0739 177.952C84.7764 179.17 83.6898 180.029 82.4347 180.029H58.3023C57.0279 180.029 56.0527 178.894 56.2449 177.634C56.7531 174.316 57.7678 171.099 58.8675 167.914C60.4272 163.395 62.0264 158.89 63.6369 154.389C66.8739 145.351 70.1969 136.343 73.6024 127.367C73.612 127.341 73.6261 127.32 73.6375 127.296C73.4953 127.003 73.5155 126.646 73.8314 126.356C78.6693 121.915 84.6965 118.803 91.1722 117.62C94.3538 117.039 97.5697 116.98 100.65 118.073C103.825 119.202 106.795 120.972 109.78 122.514C110.963 123.124 112.171 123.718 113.029 124.769C113.868 125.798 116.18 124.883 116.462 126.162C117.185 129.447 117.056 128.681 117.559 132.004C119.573 145.335 119.811 165.681 117.559 180.015C117.559 180.015 117.552 180.026 117.539 180.043Z" fill="#FFB969"/>
</g>
<path d="M85.8663 140.202C85.8733 143.959 86.2305 148.359 83.8081 151.512C83.7747 151.072 83.7405 150.633 83.7124 150.192C83.3789 145.062 83.3245 139.919 83.3719 134.78C83.3982 131.864 83.4579 128.948 83.5184 126.034C84.3294 125.999 85.1404 125.98 85.9523 125.976C85.8935 125.98 85.8382 126.019 85.8382 126.095C85.8479 130.798 85.8566 135.5 85.8663 140.202ZM92.6904 126.028C88.8715 125.653 85.0307 125.617 81.2048 125.918C81.0433 125.93 81.0424 126.184 81.2048 126.17C81.8912 126.117 82.5775 126.078 83.2648 126.045C83.0471 136.61 82.833 147.226 84.1741 157.732C84.4901 160.204 84.8104 162.72 85.7522 165.04C83.0796 162.558 80.4728 160.007 77.9398 157.382C77.8266 157.265 77.6475 157.444 77.7607 157.561C80.4544 160.352 83.2279 163.064 86.0796 165.692C86.1989 165.802 86.3789 165.624 86.2586 165.513C86.2253 165.483 86.1937 165.453 86.1621 165.422C86.1665 165.397 86.1665 165.371 86.1542 165.343C85.1211 163.023 84.7841 160.476 84.4585 157.979C84.1951 155.953 83.9924 153.921 83.8344 151.884C86.3244 148.838 86.1278 144.658 86.1208 140.96C86.1112 136.004 86.1015 131.05 86.091 126.095C86.091 126.019 86.0357 125.98 85.9769 125.976C88.2168 125.961 90.4575 126.062 92.6904 126.282C92.8528 126.298 92.8519 126.044 92.6904 126.028Z" fill="#633837"/>
<path d="M107.068 130.734C107.928 134.573 108.788 138.412 109.648 142.25C110.042 144.005 110.397 145.793 111.245 147.396C112.046 148.91 113.2 150.205 114.59 151.203C114.725 151.3 114.595 151.525 114.459 151.428C113.201 150.526 112.129 149.395 111.327 148.069C110.395 146.53 109.956 144.807 109.564 143.068C108.646 138.98 107.732 134.891 106.816 130.803C106.78 130.64 107.031 130.569 107.068 130.734Z" fill="#633837"/>
<path d="M100.03 160.525C95.9238 160.78 91.968 162.196 88.6371 164.609C88.5063 164.704 88.6327 164.923 88.7644 164.828C92.0593 162.44 95.9668 161.03 100.03 160.778C100.191 160.768 100.193 160.515 100.03 160.525Z" fill="#633837"/>
<path d="M85.7118 165.9C83.5404 165.393 81.3286 165.141 79.0983 165.147C78.936 165.148 78.936 165.401 79.0983 165.401C81.3066 165.394 83.4947 165.642 85.6442 166.144C85.8031 166.182 85.8698 165.937 85.7118 165.9Z" fill="#633837"/>
<path d="M93.2487 147.581C91.108 140.714 89.3605 133.73 88.0141 126.664C87.9843 126.504 87.7403 126.571 87.7701 126.732C89.1165 133.798 90.864 140.781 93.0047 147.649C93.0539 147.803 93.2979 147.736 93.2487 147.581Z" fill="#633837"/>
<path d="M108.097 132.358C108.105 132.43 108.162 132.494 108.249 132.464C110.414 131.722 117.216 130.467 117.252 130.453C117.161 129.994 116.185 125.104 116.085 124.648C115.978 124.163 114.342 127.842 114.179 127.373C113.636 127.719 113.148 128.108 112.864 128.308C111.17 129.492 109.502 130.713 108.005 132.145C107.915 132.232 108 132.356 108.097 132.358Z" fill="#633837"/>
<path d="M113.944 137.72C113.656 133.751 113.206 129.796 112.572 125.868C112.545 125.704 112.797 125.633 112.823 125.799C115.036 139.513 114.94 153.464 114.019 167.289C113.759 171.197 113.433 175.1 113.077 179.001C113.062 179.167 112.801 179.168 112.816 179.001C114.067 165.289 114.945 151.479 113.944 137.72Z" fill="#633837"/>
<path d="M67.9155 144.824C69.8421 143.022 70.9067 140.584 71.6633 138.101C72.512 135.315 73.1106 132.446 73.5284 129.564C73.5521 129.399 73.804 129.469 73.7803 129.634C73.3423 132.649 72.7165 135.664 71.7906 138.571C71.0305 140.953 69.9535 143.276 68.0998 145.008C67.977 145.123 67.7926 144.939 67.9155 144.824Z" fill="#633837"/>
<path d="M81.252 55.6638C81.0967 55.16 80.8343 54.8686 80.2752 55.246C77.1251 57.3674 74.6895 60.3595 72.7217 63.5499C70.3747 67.353 68.0681 71.1859 65.8203 75.0487C63.5374 78.9711 61.3335 82.9436 59.3157 87.01C57.5287 90.6121 55.8435 94.4915 56.8283 98.5746C56.952 99.0898 57.67 99.4391 58.1299 99.1038C59.5588 98.0646 60.282 96.4514 61.1378 94.9497C62.2112 93.0652 63.2846 91.1799 64.3589 89.2955C66.4645 85.5986 68.571 81.9018 70.6766 78.2049C72.7831 74.508 74.8887 70.8111 76.9952 67.1143C78.0519 65.2588 79.1403 63.4191 80.1628 61.5435C81.0379 59.9408 81.7207 58.3162 81.7971 56.4695C81.8146 56.0342 81.5663 55.7665 81.252 55.6638Z" fill="#EEDED4"/>
<path d="M121.713 38.1861C120.884 35.3266 121.775 32.7549 122.463 29.977C123.751 24.7828 123.421 19.1839 121.028 14.3487C119.694 11.6532 118.056 8.64097 115.263 7.52278C111.325 5.94467 110.801 6.82325 110.517 6.5889C102.552 0.0219481 95.4189 2.36541 89.0617 8.66993C85.0006 12.6977 79.414 16.6254 78.4319 22.6657C78.0983 24.7117 78.3502 26.6733 78.5363 28.7175C78.7408 30.9583 78.4485 32.869 77.2075 34.7719C76.0542 36.5431 74.5629 38.1133 73.2008 39.723C70.7572 42.6124 68.7798 44.7592 68.1549 48.665C67.6748 51.6659 68.1118 55.8174 72.6127 54.3823C73.0823 54.2323 73.5264 54.2086 73.9231 54.112C75.3195 53.7723 75.8988 51.1779 76.1016 51.213C76.8625 51.3437 75.3538 54.148 75.6934 54.2437C77.3628 54.715 79.048 55.7164 81.1325 54.8668C82.2893 54.3946 83.5216 54.0304 84.7838 54.1173C86.0284 54.2024 87.2124 54.6535 88.3859 55.0459C90.5669 55.7735 92.7199 56.0842 95.0151 55.8147C96.8776 55.5953 98.6479 55.0801 100.379 54.4385C105.404 55.0222 110.414 56.5757 115.464 55.3469C120.038 54.234 123.644 50.5714 123.712 45.7001C123.75 43.024 122.44 40.6911 121.713 38.1861Z" fill="#995C50"/>
<mask id="mask1_2738_78312" style="mask-type:luminance" maskUnits="userSpaceOnUse" x="64" y="51" width="79" height="84">
<path d="M64.7949 51.2568H142.759V134.238H64.7949V51.2568Z" fill="white"/>
</mask>
<g mask="url(#mask1_2738_78312)">
<path d="M142.173 58.9888C139.777 51.8083 129.854 50.8297 123.541 51.4247C117.464 51.9979 111.382 52.5315 105.285 52.8378C99.3337 53.138 93.2644 52.5201 87.3654 53.023C81.1837 53.5488 76.7373 56.7603 74.3245 62.5408C71.4123 69.5185 68.9073 76.6937 66.2163 83.7671C65.6555 85.6042 66.9299 87.8344 67.5759 89.517C68.5361 92.0254 69.5744 94.5032 70.6838 96.9484C69.7894 100.25 68.9495 103.568 68.1622 106.897C67.0387 111.651 65.8275 116.46 65.1043 121.294C64.403 125.985 64.9945 131.05 69.1856 133.944C71.1455 135.296 73.9111 131.267 75.1241 130.13C77.4579 127.942 79.9286 125.838 82.8338 124.446C88.3107 121.818 93.2196 125.503 97.3018 129.186C99.0441 130.757 100.561 132.515 102.874 133.239C109.174 135.208 116.136 127.605 119.337 122.982C122.193 118.858 124.085 114.129 125.623 109.381C127.43 103.803 129.09 98.2624 131.623 92.9558C134.109 87.7484 136.928 82.6999 139.051 77.3248C141.075 72.1982 143.515 66.1157 142.535 60.4405C142.447 59.9297 142.325 59.446 142.173 58.9888Z" fill="#EEDED4"/>
</g>
<path d="M113.33 50.33C111.181 43.7507 109.637 37.0004 108.714 30.1385C108.567 29.0624 107.185 28.4358 106.21 28.7315C104.594 29.2213 103.95 31.3146 103.288 32.6829C102.28 34.7701 101.222 36.7607 99.9769 38.7215C98.7701 40.6217 96.4196 42.7274 96.4337 45.2314C96.4521 48.3675 98.462 52.3961 99.5126 55.3294C99.9883 56.66 101.56 58.5935 103.196 58.1503C106.776 57.1796 110.01 55.2469 112.537 52.5313C112.561 52.5049 112.58 52.4786 112.602 52.4532C113.25 52.0406 113.645 51.2928 113.33 50.33Z" fill="#D26B4C"/>
<path d="M116.105 53.8478C115.739 51.2059 115.059 48.5728 114.531 45.9529C114.354 45.0725 112.899 44.1027 111.94 44.3476C111.415 44.4819 111.003 44.8443 110.56 45.1313C102.83 50.1518 97.0956 50.2703 96.9981 50.294C96.0353 50.5257 95.7904 51.6535 95.9212 52.4707C96.3258 55.0072 95.4709 58.4996 98.4183 59.9504C99.4908 60.4779 100.709 60.7009 101.828 61.1415C105.895 62.7433 107.765 61.7761 111.123 59.3317C112.296 58.4794 113.472 57.6316 114.639 56.7732C115.706 55.9885 116.282 55.1345 116.105 53.8478Z" fill="#EEDED4"/>
<path d="M113.423 52.0248C110.765 54.3911 108.033 56.6854 104.495 57.5508C101.755 58.2223 97.7354 58.332 96.1248 55.5032C96.0441 55.361 95.8255 55.4882 95.9063 55.6304C97.4607 58.361 101.18 58.4724 103.907 57.9388C107.776 57.1822 110.736 54.7554 113.602 52.2039C113.724 52.0959 113.545 51.9178 113.423 52.0248Z" fill="#633837"/>
<path d="M113.021 50.832C110.556 52.3601 107.738 53.1676 104.837 53.1737C104.674 53.1737 104.674 53.4274 104.837 53.4256C107.779 53.4204 110.648 52.6006 113.148 51.0506C113.287 50.9646 113.16 50.7451 113.021 50.832Z" fill="#633837"/>
<path d="M107.718 13.2164C104.543 10.3841 100.15 9.70737 96.1055 10.7527C92.3095 11.7322 87.5988 14.1731 86.4324 18.2158C86.4087 18.2974 86.3902 18.3764 86.3771 18.4537C83.2253 27.0297 86.1199 36.1042 89.8115 44C90.612 45.7115 91.5406 47.5099 93.2152 48.5228C95.0619 49.6384 97.3255 49.5822 99.2652 48.744C101.476 47.7864 103.315 46.1293 104.875 44.3248C106.226 42.7589 108.224 41.0193 108.178 38.7075C108.155 37.5278 107.776 36.5299 107.908 35.309C108.044 34.0548 108.41 32.8313 108.725 31.6148C109.296 29.41 110.102 27.2675 110.563 25.0347C111.417 20.8919 111.072 16.2085 107.718 13.2164Z" fill="#F6A77C"/>
<path d="M107.908 35.309C108.015 34.3207 108.264 33.3535 108.52 32.3933C108.178 32.5758 105.066 40.2961 104.715 40.4593C101.708 41.8444 92.9723 40.6244 91.8391 41.4503C90.8447 42.1744 89.4088 41.4476 88.625 41.3397C89.0059 42.2393 89.4035 43.1276 89.8117 44C90.6121 45.7115 91.5407 47.5099 93.2154 48.5228C95.0621 49.6383 97.3256 49.5822 99.2654 48.744C101.476 47.7864 103.315 46.1293 104.875 44.3247C106.226 42.7589 108.224 41.0193 108.178 38.7075C108.155 37.5278 107.776 36.5299 107.908 35.309Z" fill="#F6A77C"/>
<path d="M134.301 83.4324C131.576 84.3321 129.54 86.3894 127.445 88.2598C124.96 90.4795 122.479 92.7053 120.005 94.9365C115.691 98.8256 111.194 102.621 107.236 106.889C104.368 100.598 102.901 93.9657 101.783 87.1056C101.09 82.8496 100.396 78.5682 99.0685 74.4544C98.606 73.0194 98.111 70.6531 96.8866 69.6517C96.2643 69.1426 95.4419 69.1382 94.8889 69.5674C94.5317 69.5086 94.1499 69.7052 94.1955 70.1625C94.623 74.3781 94.8547 78.4875 94.2658 82.7022C93.7286 86.5465 93.0124 90.3575 92.8772 94.2475C92.6446 100.922 94.2368 108.178 99.5715 112.674C101.891 114.629 104.905 116.067 108.004 115.788C112.419 115.39 115.842 111.216 118.729 108.27C120.793 106.162 122.756 103.957 124.608 101.662C128.586 96.7314 132.053 91.4142 134.961 85.7856C135.087 85.682 135.184 85.5275 135.228 85.316C135.282 85.0518 135.337 84.7867 135.391 84.5217C135.519 83.9003 134.985 83.2069 134.301 83.4324Z" fill="#633837"/>
<path d="M137.851 54.3981C132.884 52.6673 128.98 57.6535 126.111 60.8501C122.273 65.1263 118.391 69.4024 114.874 73.9498C113.302 75.9817 111.894 78.1408 111.1 80.6019C110.29 83.1121 110.064 85.8066 109.85 88.4213C109.358 94.4239 109.508 100.501 110.941 106.367C110.532 106.515 110.317 107.199 110.796 107.547C113.4 109.441 113.965 111.012 115.882 108.967C118.664 106.003 135.66 91.7785 141.274 70.891C141.847 68.7582 142.384 66.52 142.562 64.3153C142.815 61.1775 142.359 57.4095 139.671 55.3645C139.121 54.9467 138.502 54.6254 137.851 54.3981Z" fill="#EEDED4"/>
<path d="M93.7322 53.0754C91.0798 56.6784 88.9611 60.6131 86.9345 64.5909C84.7586 68.86 82.6056 73.1414 80.4421 77.4167C78.2882 81.6736 76.0913 85.912 73.9936 90.1969C72.5209 93.2057 71.2306 96.2873 70.0291 99.4093C69.3769 101.898 68.7555 104.394 68.1631 106.897C67.3494 110.341 66.491 113.813 65.8047 117.304C69.6034 116.234 72.8825 113.867 75.0881 110.568C77.7151 106.64 79.0799 101.94 81.3119 97.782C85.8523 89.3227 91.9584 80.9995 92.3981 71.0516C92.5228 68.2474 92.6457 64.7304 92.8545 61.9271C93.081 58.8893 93.4531 56.7003 94.9944 54.0822C95.1489 53.8206 95.0936 53.567 94.9417 53.3905C94.947 53.1184 94.7144 52.8955 94.4362 52.8262C94.3265 52.8253 94.2167 52.8227 94.107 52.8227C93.9683 52.8551 93.8358 52.9341 93.7322 53.0754Z" fill="#633837"/>
<path d="M95.6376 40.1811C95.3567 40.1934 95.0767 40.2057 94.7959 40.218C94.6414 40.2241 94.6405 40.4655 94.7959 40.4594C95.0767 40.4471 95.3567 40.4348 95.6376 40.4216C95.7921 40.4146 95.7929 40.1732 95.6376 40.1811Z" fill="#D26B4C"/>
<path d="M114.252 20.2819C113.234 17.2503 111.932 14.1687 110.085 11.5391C108.625 9.45986 106.538 7.53594 103.847 7.6632C103.753 7.40867 103.539 7.20241 103.177 7.13219C96.6441 5.87972 90.5257 9.99701 86.2188 14.54C83.9851 16.8957 82.9064 19.7746 82.2736 22.915C81.5688 26.4118 81.2616 29.9796 81.3169 33.544C81.3274 34.2005 81.847 34.5261 82.3578 34.5208C82.5904 35.3275 83.993 35.5241 84.3282 34.498C85.1612 31.9492 86.124 29.2292 88.1506 27.3658C90.2264 25.456 93.2106 25.0575 95.4399 23.3688C95.8024 23.0941 96.0175 22.4419 96.4528 22.4963C99.3159 22.8465 100.417 20.7734 102.486 19.9054C105.624 18.5871 105.998 28.4717 105.849 31.5147C105.469 39.3359 109.841 43.2338 111.418 43.828C111.921 44.0176 111.378 36.6142 111.854 36.3236C117.502 32.8594 116.007 25.5086 114.252 20.2819Z" fill="#995C50"/>
<path d="M97.2631 43.6603C96.3863 43.3584 95.3515 43.2224 94.4439 43.4848C93.9832 43.6165 94.1043 44.1132 94.5809 44.2563C94.6528 44.2791 97.0788 44.5064 97.3474 43.8087C97.372 43.7446 97.3193 43.6805 97.2631 43.6603Z" fill="#FAF7F5"/>
<path d="M94.9953 46.0459C94.4178 44.6697 93.5462 43.4163 92.579 42.2859C92.3385 42.0032 92.0936 41.7215 91.8391 41.4503C91.4696 41.0571 91.2809 40.5252 91.3072 39.9863C91.4854 36.4342 91.5986 33.9161 91.6118 29.9954C91.6162 28.6692 91.2791 26.9709 90.4014 26.7119C90.067 26.6128 89.5957 26.7128 89.651 26.3696C89.6703 26.2511 89.6308 24.6669 89.6141 24.4554C89.3824 21.5809 88.1703 23.1704 88.1782 22.9993C88.187 22.8088 88.2844 22.7202 88.2028 22.2866C87.8271 20.2793 86.2367 20.3398 85.7005 22.054C85.5407 22.563 85.5469 22.5639 85.3959 23.0747C84.9597 23.0484 83.9451 24.6213 83.7046 25.1698C83.2885 26.1125 82.9129 27.0174 82.5662 27.9003C82.4424 28.341 82.3134 28.7807 82.1826 29.2204C82.1238 29.259 82.0685 29.3055 82.0203 29.3696C80.6388 31.1865 79.9366 33.3851 79.6013 35.6215C79.36 37.2285 78.8807 39.0015 79.3521 40.6112C79.8927 42.4614 81.9307 44.1361 83.2332 45.4737C83.9319 46.1908 84.6455 46.8947 85.3573 47.6003C85.9892 48.227 86.852 48.6193 86.3052 49.483C85.5039 50.7504 84.6911 52.0108 83.8845 53.2738C83.3851 54.0576 83.7827 54.8071 84.4181 55.1468C84.6885 55.6374 85.2186 55.9403 85.9137 55.6822C87.8842 54.9511 90.024 55.0397 92.0155 54.3902C92.2516 54.3121 92.4394 54.1936 92.586 54.0488C93.0249 53.9523 93.4277 53.6653 93.6261 53.1395C94.4371 50.9927 95.9731 48.3736 94.9953 46.0459Z" fill="#F6A77C"/>
<path d="M108.689 46.9149C108.786 45.4184 108.591 44.1255 108.37 42.7186C107.333 38.1317 107.671 33.7529 106.095 29.539C105.589 28.1874 104.421 30.5124 104.748 32.0449C105.068 33.5492 105.332 39.9363 103.353 39.3605C100.562 38.5504 101.45 31.3927 101.753 29.9621C102.163 28.0241 102.603 25.5446 103.049 23.8041C103.386 22.4849 102.332 21.3904 101.903 22.1725C99.622 26.3328 98.2247 30.7423 98.8891 35.2274C99.2358 30.7529 100.199 25.2769 101.211 21.2044C101.62 19.5578 100.774 19.219 100.199 19.4586C99.5351 19.7377 99.2402 20.7243 98.9005 21.5853C98.4318 21.4519 97.6726 21.6002 97.2557 22.1707C96.9055 22.6456 96.2033 24.7731 96.2033 24.7731C95.5696 23.9094 94.9421 25.0935 94.7876 25.5069C93.1507 29.862 92.7224 33.4281 92.1782 37.9597C92.0913 38.3775 92.0781 39.9687 92.2668 40.3856C92.8584 41.6925 93.866 42.3578 95.0623 43.2715C96.7063 44.5266 100.602 46.8859 101.038 48.8133C101.509 50.8935 100.238 52.1784 100.139 53.8101C100.085 54.7211 99.909 54.5982 100.575 54.9423C100.848 55.1644 101.148 55.2785 101.522 55.1872C103.544 54.6974 105.445 54.2287 107.297 53.2361C107.845 51.213 108.556 48.9634 108.689 46.9149Z" fill="#F6A77C"/>
<path d="M119.622 95.1735C119.31 92.8572 118.642 90.6164 117.705 88.4775C116.642 86.0498 115.174 83.7958 114.331 81.2742C112.57 76.0115 114.163 70.4855 114.542 65.1403C114.864 60.5921 113.723 56.0701 111.589 52.4935C111.467 52.2881 111.1 51.6246 111.054 51.3894C110.741 49.8025 110.883 48.5237 110.918 46.9895C110.936 46.2153 110.127 45.9687 109.596 46.2452C109.374 46.1425 102.274 50.0991 99.3661 52.4101C98.2005 53.337 98.0531 54.3305 98.147 55.7428C98.2005 56.5555 98.2233 57.3665 98.2277 58.1784C96.3503 60.7843 94.6414 63.5868 94.0973 66.7719C93.7348 68.8934 94.0121 70.9744 94.4369 73.0651C94.9223 75.4568 95.2962 77.7774 95.2532 80.2271C95.1725 84.9149 94.3316 89.5351 94.7196 94.2334C95.0777 98.5754 96.1485 102.837 97.9135 106.821C99.0194 109.316 100.711 111.882 103.193 113.184C107.928 115.665 113.767 111.808 116.607 108.092C119.416 104.416 120.23 99.691 119.622 95.1735Z" fill="#EEDED4"/>
<path d="M88.7608 51.2024C87.3162 51.4219 85.5142 51.4842 84.1775 52.124C82.9882 52.6928 82.315 54.32 81.6322 55.3838C81.3557 55.8139 81.0783 56.2457 80.8019 56.6767C77.7132 57.8572 74.801 59.4572 72.7016 62.1754C71.1103 64.2363 70.617 66.6061 69.9368 69.0794C69.2338 71.6362 67.8909 73.855 66.3496 75.9632C64.8321 78.039 63.1662 79.9972 61.7347 82.1396C60.3207 84.2558 59.1095 86.5018 58.0791 88.8391C56.0446 93.4549 54.513 98.7203 54.7903 103.835C55.1045 109.634 60.3374 115.164 67.0255 112.794C73.5222 110.492 75.3935 104.266 77.7826 98.2533C79.538 93.8359 81.0766 89.342 83.8097 85.4328C86.2436 81.9518 89.0803 78.7701 90.2196 74.5414C90.9393 71.8723 91.135 69.0768 91.4203 66.3357C91.7213 63.4332 92.0224 60.5324 92.3234 57.6307C93.2705 55.8384 94.9425 53.3905 95.1628 52.253C95.4103 50.9751 90.41 50.9523 88.7608 51.2024Z" fill="#EEDED4"/>
<path d="M113.999 78.8324C113.74 76.9708 113.876 75.0838 113.996 73.2169C114.112 71.3755 114.241 69.5349 114.332 67.6918C114.422 65.8512 114.474 64.0089 114.44 62.1649C114.408 60.449 114.381 58.6655 113.992 56.9856C113.809 56.1948 113.518 55.4417 113.085 54.7545C112.602 53.9891 111.989 53.3098 111.589 52.4935C110.708 50.6942 110.926 48.5974 111.131 46.6726C111.147 46.5102 110.895 46.5111 110.877 46.6726C110.709 48.2612 110.54 49.9157 110.951 51.4842C111.353 53.0228 112.494 54.0637 113.189 55.4479C113.988 57.0391 114.057 58.9148 114.138 60.6596C114.226 62.5414 114.208 64.4267 114.139 66.3094C114.068 68.1956 113.946 70.0791 113.824 71.9618C113.706 73.7663 113.539 75.5814 113.618 77.3904C113.762 80.7125 115.167 83.6054 116.748 86.4649C118.592 89.8002 120.619 93.3557 120.198 97.3107C120.181 97.4722 120.434 97.4713 120.451 97.3107C121.189 90.3795 114.911 85.3959 113.999 78.8324Z" fill="#633837"/>
<path d="M122.314 91.6372C121.281 89.2244 119.738 87.082 117.78 85.3336C117.659 85.2256 117.479 85.4038 117.601 85.5126C119.544 87.247 121.071 89.371 122.096 91.7654C122.159 91.9146 122.378 91.7855 122.314 91.6372Z" fill="#633837"/>
<path d="M131.459 57.4464C125.019 60.9388 119.948 66.7562 117.273 73.5671C116.513 75.5042 115.958 77.5141 115.606 79.5644C115.578 79.7251 115.831 79.74 115.858 79.5811C117.086 72.4305 120.941 65.8179 126.483 61.1424C128.057 59.8144 129.763 58.6541 131.574 57.672C131.716 57.5947 131.603 57.3692 131.459 57.4464Z" fill="#633837"/>
<path d="M82.0473 54.442C81.5944 55.1766 81.1406 55.9113 80.6877 56.6459C79.3764 57.0251 78.1459 57.5886 77.0031 58.3381C76.868 58.4276 76.9943 58.6462 77.1313 58.5567C78.2644 57.8124 79.4853 57.2542 80.7878 56.8803C80.7965 56.8794 80.8053 56.8759 80.8132 56.8724C80.8211 56.8706 80.829 56.868 80.8369 56.8662C80.901 56.8469 80.9264 56.796 80.9247 56.7442C81.3723 56.0192 81.8191 55.2943 82.2667 54.5693C82.3518 54.4306 82.1333 54.3033 82.0473 54.442Z" fill="#633837"/>
<path d="M70.1699 68.1104C69.7354 69.2234 69.3027 70.3354 68.8674 71.4474C68.4303 72.5648 67.987 73.6891 67.3086 74.687C66.1825 76.3441 64.5543 77.6194 63.7591 79.4986C63.6968 79.6469 63.9145 79.7768 63.9777 79.6267C64.7983 77.6879 66.5116 76.3845 67.6386 74.6475C68.9007 72.7026 69.5765 70.3231 70.4139 68.1771C70.4736 68.0253 70.2287 67.9603 70.1699 68.1104Z" fill="#633837"/>
<path d="M101.473 52.8902C101.446 54.2121 101.42 55.5348 101.393 56.8557C101.389 57.0181 101.642 57.0181 101.645 56.8557C101.673 55.5348 101.699 54.2121 101.727 52.8902C101.73 52.7279 101.476 52.7279 101.473 52.8902Z" fill="#633837"/>
<path d="M105.217 50.445V54.5781C105.217 54.7422 105.47 54.7422 105.47 54.5781V50.445C105.47 50.2826 105.217 50.2826 105.217 50.445Z" fill="#633837"/>
<path d="M85.5989 52.6752C84.8353 53.9207 84.1402 55.2039 83.5118 56.5222C83.4416 56.6688 83.6601 56.7969 83.7303 56.6503C84.3588 55.3311 85.0539 54.0497 85.8175 52.8025C85.9026 52.6638 85.6841 52.5365 85.5989 52.6752Z" fill="#633837"/>
<path d="M89.7942 52.9139C89.1508 53.9988 88.5803 55.1187 88.08 56.2764C88.016 56.4239 88.2336 56.552 88.2986 56.4037C88.7989 55.246 89.3702 54.1261 90.0127 53.0412C90.0961 52.9008 89.8776 52.7735 89.7942 52.9139Z" fill="#633837"/>
<path d="M124.217 55.8569C123.021 57.1418 122.176 58.6743 121.432 60.2542C120.593 62.0341 119.8 63.8361 118.987 65.6283C118.92 65.7749 119.138 65.9039 119.206 65.7565C119.989 64.03 120.757 62.2974 121.559 60.5789C122.317 58.9508 123.164 57.3595 124.396 56.035C124.506 55.9166 124.328 55.7366 124.217 55.8569Z" fill="#633837"/>
<path d="M99.1913 53.4651C97.8326 54.9423 98.871 56.9865 98.3294 58.705C98.0284 59.6617 97.3192 60.4279 96.7531 61.2328C96.1869 62.0376 95.7033 62.8978 95.3031 63.7965C93.8075 67.1581 93.5179 70.9946 94.5105 74.5378C94.5535 74.6941 94.7993 74.6318 94.7554 74.4746C93.7452 70.8673 94.0787 66.9422 95.6893 63.5578C96.0693 62.7617 96.5161 61.9981 97.0287 61.2802C97.5193 60.5929 98.0837 59.9426 98.4251 59.1632C99.1843 57.4262 97.9933 55.1407 99.3669 53.6468C99.4774 53.5274 99.3019 53.3458 99.1913 53.4651Z" fill="#633837"/>
<path d="M85.1634 123.687C85.5882 123.612 86.0086 123.571 86.4255 123.561C82.1309 123.075 77.7915 123.247 73.5444 124.081C73.3846 124.113 73.4522 124.357 73.6119 124.325C77.4176 123.578 81.305 123.364 85.1634 123.687Z" fill="#633837"/>
<path d="M74.0629 127.266C73.2528 127.665 72.0073 128.076 71.5334 128.9C71.4746 129.004 71.572 129.104 71.6765 129.086C73.9769 128.698 76.1369 127.799 78.3013 126.963C78.648 126.829 78.9947 126.696 79.3414 126.562C80.4429 125.76 81.5997 125.037 82.8355 124.446C83.0479 124.343 83.2595 124.253 83.471 124.17C81.347 124.556 79.2598 125.128 77.2384 125.89C76.1589 126.298 75.0977 126.757 74.0629 127.266Z" fill="#633837"/>
<path d="M104.34 128.727C100.492 126.866 96.5357 125.236 92.4922 123.844C92.3377 123.791 92.2719 124.035 92.4246 124.088C96.448 125.473 100.383 127.094 104.212 128.946C104.359 129.016 104.487 128.798 104.34 128.727Z" fill="#633837"/>
<path d="M106.76 125.516C104.098 125.154 101.442 124.751 98.7935 124.308C98.6346 124.281 98.5653 124.526 98.7268 124.551C101.376 124.995 104.031 125.398 106.692 125.76C106.851 125.781 106.92 125.538 106.76 125.516Z" fill="#633837"/>
<path d="M99.9749 26.8664C99.1534 29.7619 98.6373 32.7294 98.4319 35.7312C98.4223 35.8769 98.6505 35.8769 98.6601 35.7312C98.8638 32.7479 99.379 29.8032 100.195 26.927C100.235 26.7865 100.015 26.7251 99.9749 26.8664Z" fill="#D26B4C"/>
<path d="M98.3027 22.9273C97.1161 27.4475 96.2805 32.0519 95.7995 36.7002C95.7846 36.8468 96.0128 36.845 96.0277 36.7002C96.507 32.0721 97.3416 27.4887 98.5222 22.9879C98.5599 22.8457 98.3396 22.7842 98.3027 22.9273Z" fill="#D26B4C"/>
<path d="M85.1155 24.9934C84.1887 28.6613 83.4681 32.3757 82.9564 36.1244C82.9362 36.2701 83.1609 36.3342 83.1811 36.1858C83.6928 32.4381 84.4133 28.7236 85.3402 25.0557C85.3779 24.91 85.1532 24.8477 85.1155 24.9934Z" fill="#D26B4C"/>
<path d="M95.8325 26.1151C94.9951 29.5259 94.3667 32.9831 93.9463 36.4685C93.9287 36.6142 94.1569 36.6133 94.1736 36.4685C94.5923 33.0033 95.2198 29.5662 96.0528 26.1766C96.0879 26.0344 95.8676 25.9729 95.8325 26.1151Z" fill="#D26B4C"/>
<path d="M87.5729 24.2833C86.5881 28.7447 85.9921 33.2824 85.7911 37.8482C85.785 37.9974 86.0185 37.9965 86.0255 37.8482C86.2247 33.3035 86.818 28.7877 87.7984 24.3448C87.8309 24.1991 87.6053 24.1368 87.5729 24.2833Z" fill="#D26B4C"/>
<path d="M89.7392 27.5036C88.9379 31.5095 88.4437 35.5688 88.2638 39.6501C88.2576 39.8002 88.4911 39.7993 88.4973 39.6501C88.6763 35.589 89.1661 31.5507 89.9639 27.5651C89.9937 27.4185 89.7682 27.3562 89.7392 27.5036Z" fill="#D26B4C"/>
<path d="M81.236 31.6271C80.6892 33.5896 80.3021 35.5864 80.0713 37.6103C80.0537 37.7587 80.2872 37.7578 80.3038 37.6103C80.5329 35.6074 80.92 33.6308 81.4607 31.6894C81.5002 31.5454 81.2755 31.4831 81.236 31.6271Z" fill="#D26B4C"/>
<path d="M101.293 4.46311C101.131 4.45082 101.132 4.7036 101.293 4.71589C103.139 4.86159 104.407 6.459 104.177 8.28462C104.157 8.44524 104.411 8.44348 104.431 8.28462C104.679 6.31243 103.265 4.61934 101.293 4.46311Z" fill="#703127"/>
<path d="M115.688 31.5226C117.228 27.9065 118.671 23.9516 117.652 19.994C117.612 19.8378 117.367 19.9045 117.408 20.0616C118.533 24.4308 116.582 28.4963 115.023 32.4688C114.381 34.1013 113.867 35.9998 114.712 37.6595C115.452 39.1121 117.032 40.0425 117.362 41.7101C117.394 41.8707 117.638 41.8031 117.606 41.6425C117.294 40.0688 115.906 39.1402 115.103 37.8377C113.871 35.8365 114.858 33.472 115.688 31.5226Z" fill="#703127"/>
<path d="M100.125 46.7042C97.7491 44.6697 94.7711 43.34 92.8173 40.8324C92.7216 40.7095 92.5523 40.8815 92.647 41.0027C94.6017 43.5111 97.578 44.84 99.9548 46.8745C100.072 46.9745 100.244 46.8052 100.125 46.7042Z" fill="#D26B4C"/>
<path d="M91.839 41.8207C91.7556 41.6899 91.5467 41.811 91.631 41.9418C92.8703 43.8631 94.3378 45.8002 94.7398 48.1015C94.767 48.2533 94.9987 48.1884 94.9724 48.0365C94.566 45.7142 93.0897 43.7578 91.839 41.8207Z" fill="#D26B4C"/>
<path d="M92.1522 37.1232C92.4296 35.1791 92.7737 33.2456 93.18 31.3251C93.5732 29.4671 93.9682 27.5695 94.5554 25.7614C94.7125 25.2804 94.9451 24.5379 95.4884 24.3527C95.764 24.2597 96.0176 24.3351 96.1835 24.5274C96.5767 23.36 97.2552 20.8252 98.8272 21.3948C99.0387 20.6909 99.3099 19.8001 99.9726 19.4104C100.477 19.1137 101.036 19.3621 101.268 19.8782C101.616 20.6549 101.169 21.7714 101.006 22.5402C100.843 23.3179 100.679 24.0964 100.516 24.8749C100.867 23.9586 101.231 23.0475 101.631 22.1532C101.982 21.3685 102.697 21.6933 102.995 22.3735C103.001 22.3866 103.002 22.3998 103.004 22.4138C103.011 22.4253 103.019 22.4358 103.023 22.4498C103.675 24.6871 102.511 27.0464 102.004 29.2037C101.43 31.6552 101.038 34.4024 101.696 36.8801C101.86 37.4954 102.114 38.1484 102.562 38.618C102.992 39.0682 103.666 39.3122 104.125 38.6539C104.311 38.3871 104.394 37.9685 104.467 37.6542C104.744 36.4808 104.689 35.2616 104.626 34.0671C104.566 32.9208 104.481 31.7658 104.624 30.623C104.71 29.9331 104.846 29.0853 105.683 29.0317C105.851 29.0212 105.85 29.2827 105.683 29.2924C105.552 29.3003 105.144 29.3863 105.011 29.9375C104.99 30.0235 104.967 30.1201 104.95 30.2061C104.894 30.4922 104.862 30.7854 104.839 31.0768C104.797 31.6104 104.801 32.1476 104.818 32.6829C104.852 33.68 104.946 34.6753 104.937 35.6733C104.927 36.7011 104.904 39.4807 103.311 39.314C101.855 39.1621 101.388 37.0047 101.238 35.8576C100.97 33.8161 101.191 31.7412 101.618 29.7365C101.865 28.5797 102.199 27.4501 102.521 26.3126C102.871 25.068 103.142 23.7918 102.772 22.5183C102.77 22.5139 102.772 22.5095 102.77 22.5051C102.631 22.19 102.6 21.9829 102.225 22.018C101.818 22.0557 101.861 22.2708 101.714 22.6192C101.535 23.0423 101.359 23.4671 101.187 23.8928C100.886 24.6371 100.597 25.3875 100.315 26.1388C100.267 26.2652 100.157 26.2406 100.08 26.1581C99.9752 26.0458 100.033 25.8992 100.062 25.7693C100.154 25.3471 100.239 24.9241 100.328 24.5019C100.506 23.6567 100.683 22.8106 100.862 21.9662C100.93 21.638 101.013 21.3115 101.067 20.9806C101.141 20.5321 101.179 19.1155 100.104 19.6359C99.4688 19.9431 99.2274 20.9744 99.0431 21.58C99.0202 21.6538 98.9562 21.6775 98.8965 21.6669C98.8737 21.6766 98.8473 21.6792 98.8157 21.666C97.3316 21.0631 96.7128 23.8568 96.3608 24.8065C96.3415 24.8591 96.3003 24.8846 96.2555 24.8907C96.1905 24.9206 96.0975 24.9048 96.0642 24.8187C95.8649 24.5282 95.7131 24.5063 95.376 24.7248C95.3137 24.8012 95.2514 24.8758 95.19 24.9522C95.0802 25.1163 94.9969 25.3111 94.924 25.4937C94.7915 25.8281 94.702 26.1774 94.608 26.5232C94.4316 27.1684 94.2649 27.8152 94.1042 28.4638C93.7628 29.8427 93.4556 31.2295 93.1809 32.6215C92.9141 33.974 92.6789 35.3327 92.4761 36.6958C92.2628 38.1264 91.9109 39.8116 92.9413 41.0185C93.0492 41.1457 92.8658 41.3318 92.7561 41.2028C91.7652 40.0416 91.9504 38.5302 92.1522 37.1232Z" fill="#D26B4C"/>
<path d="M89.7247 26.7295C89.6808 26.6602 89.794 26.5311 89.8668 26.5373C89.9599 26.5434 90.0538 26.5698 90.1433 26.5917C90.3452 26.6452 90.5752 26.7084 90.7428 26.8392C91.129 27.1376 91.3739 27.5651 91.5248 28.0241C91.9575 29.3415 91.8636 30.9126 91.8224 32.2783C91.7758 33.8283 91.6284 35.374 91.5257 36.9222C91.4177 38.56 91.2238 40.3409 91.8943 41.8874C91.9602 42.0401 91.7355 42.1727 91.6688 42.0191C91.2062 40.9509 91.143 39.8213 91.1764 38.6706C91.2176 37.2479 91.3475 35.8295 91.4476 34.4111C91.5433 33.0349 91.6152 31.6525 91.5538 30.2719C91.5222 29.5452 91.488 28.8018 91.265 28.104C91.1553 27.7617 90.9859 27.429 90.7296 27.1727C90.5532 26.9981 90.3285 26.8857 90.0924 26.8155C90.0275 26.7962 89.7642 26.7795 89.7247 26.7295Z" fill="#D26B4C"/>
<path d="M101.707 13.1365C100.266 10.3375 97.1852 13.126 96.0161 14.7243C95.5685 15.3369 95.1349 15.9399 94.5504 16.4314C93.6191 17.2126 92.8389 17.1704 91.6882 17.2328C90.6525 17.2898 90.24 17.4662 89.8775 18.4554C89.8082 18.6432 90.1083 18.7249 90.1768 18.5379C90.7069 17.0923 92.3044 17.7445 93.455 17.4241C94.0764 17.2503 94.6917 16.8115 95.1613 16.3638C95.9073 15.6503 96.3628 14.6725 97.0931 13.9414C98.2095 12.8214 100.382 11.2398 101.439 13.2936C101.53 13.4709 101.798 13.3138 101.707 13.1365Z" fill="#703127"/>
<path d="M102.586 19.8044C103.453 19.2524 104.299 18.7433 105.104 18.0964C106.103 17.296 106.814 16.435 107.556 15.4019C107.673 15.2386 107.404 15.0842 107.288 15.2457C106.565 16.2524 105.855 17.1002 104.885 17.877C104.097 18.5081 103.274 18.9987 102.43 19.5367C102.262 19.6438 102.417 19.9115 102.586 19.8044Z" fill="#703127"/>
<path d="M110.187 7.50083C110.074 7.93617 109.853 8.32675 109.7 8.74278C109.556 9.13775 109.518 9.55992 109.408 9.96366C109.159 10.8879 108.501 11.483 108.442 12.4976C108.43 12.6977 108.741 12.6977 108.752 12.4976C108.813 11.4461 109.55 10.7457 109.76 9.75389C109.921 8.99731 110.292 8.33026 110.487 7.58422C110.537 7.39024 110.237 7.30774 110.187 7.50083Z" fill="#703127"/>
<path d="M111.387 43.7551C112.895 44.4511 114.682 43.8052 116.171 44.6249C116.346 44.7215 116.502 44.4538 116.328 44.3564C115.704 44.0141 115.298 43.9043 114.593 43.8569C113.635 43.7911 112.43 43.8964 111.544 43.4874C111.363 43.4049 111.205 43.6726 111.387 43.7551Z" fill="#703127"/>
<path d="M112.258 16.1962C113.504 16.9458 114.756 17.9613 115.275 19.3674C115.703 20.5242 115.66 21.8881 115.66 23.1037C115.66 23.3047 115.97 23.3047 115.97 23.1037C115.97 21.7161 116.007 20.2714 115.444 18.9706C114.863 17.6286 113.638 16.664 112.415 15.9285C112.243 15.825 112.087 16.0935 112.258 16.1962Z" fill="#703127"/>
<path d="M86.6063 17.3627C86.1279 17.5689 85.8102 18.0947 85.4179 18.4203C84.7271 18.997 83.9512 19.5815 83.5449 20.4259C83.0832 21.3834 82.7558 22.7237 82.6321 23.7787C82.6092 23.9762 82.9199 23.9744 82.9428 23.7787C83.0577 22.8053 83.386 21.5502 83.7889 20.6602C84.1759 19.8062 84.922 19.2559 85.604 18.6687C85.9726 18.351 86.3114 17.8261 86.7625 17.6313C86.946 17.5523 86.7871 17.2837 86.6063 17.3627Z" fill="#703127"/>
<path d="M107.205 22.5639C107.58 22.5718 108.174 23.2845 108.432 23.5452C109 24.1175 109.359 24.6906 109.539 25.4682C109.841 26.7751 109.868 28.2742 109.568 29.5847C109.304 30.73 108.743 31.7649 108.425 32.8874C108.104 34.0214 108.068 35.0676 108.093 36.2315C108.097 36.4316 108.408 36.4325 108.404 36.2315C108.363 34.3848 108.778 33.0086 109.381 31.2935C109.921 29.7567 110.12 28.3524 110.055 26.7295C110.015 25.7579 109.771 24.6248 109.157 23.8471C108.748 23.3284 107.911 22.2681 107.205 22.2541C107.005 22.2488 107.005 22.5595 107.205 22.5639Z" fill="#703127"/>
<path d="M77.507 40.168C75.6972 40.7455 74.3262 42.4728 73.8049 44.2414C73.1247 46.5497 73.6399 49.8262 71.5237 51.5105C71.3684 51.6342 71.5887 51.8528 71.744 51.7299C72.9684 50.7548 73.5811 48.6035 73.7733 47.0921C73.9418 45.7624 73.8672 44.5468 74.5027 43.2978C75.1206 42.0849 76.2624 40.8903 77.5895 40.4681C77.7791 40.4067 77.6984 40.1074 77.507 40.168Z" fill="#703127"/>
<path d="M77.8299 45.8599C77.3937 46.3224 77.1023 46.8438 76.9487 47.4643C76.7301 48.3411 76.8846 49.2697 76.4133 50.064C76.3115 50.2361 76.58 50.3914 76.6818 50.2203C77.0233 49.6454 77.0408 49.2171 77.1005 48.5491C77.1848 47.6144 77.3875 46.7832 78.0493 46.0793C78.1862 45.9327 77.9668 45.7124 77.8299 45.8599Z" fill="#703127"/>
</svg>
