
<svg width="407" height="396" viewBox="0 0 407 396" fill="none" xmlns="http://www.w3.org/2000/svg">
<g clip-path="url(#clip0_2171_115540)">
<mask id="mask0_2171_115540" style="mask-type:luminance" maskUnits="userSpaceOnUse" x="294" y="286" width="88" height="39">
<path d="M294.949 286.489H381.876V324.466H294.949V286.489Z" fill="white"/>
</mask>
<g mask="url(#mask0_2171_115540)">
<path d="M381.763 286.825L295.417 312.196L295.311 312.226L295.303 312.228L295.099 312.291V324.324L295.124 324.328L295.413 324.24L295.664 324.166L381.655 298.665L381.867 298.602L381.763 286.825Z" fill="#9E6F4D"/>
</g>
<mask id="mask1_2171_115540" style="mask-type:luminance" maskUnits="userSpaceOnUse" x="0" y="303" width="296" height="22">
<path d="M0 303.6H295.954V324.466H0V303.6Z" fill="white"/>
</mask>
<g mask="url(#mask1_2171_115540)">
<path d="M295.607 323.763L295.364 323.755H295.344V312.775H295.46C295.487 312.593 295.523 312.412 295.568 312.228L295.574 312.2L295.417 312.196L0.304229 303.925L0 303.917V316.057L0.29049 316.067L295.099 324.326L295.124 324.328L295.413 324.241L295.664 324.166C295.64 324.032 295.623 323.897 295.607 323.763Z" fill="#9E6F4D"/>
</g>
<path d="M0.303928 303.925L92.4363 280.708L381.866 286.827L295.379 312.648C295.379 312.648 0.0114751 304.211 0.303928 303.925Z" fill="#C78C61"/>
<path d="M387.63 131.261C387.628 131.318 387.626 131.376 387.622 131.435C387.614 131.744 387.602 132.054 387.59 132.361C387.237 141.023 385.728 149.623 383.145 157.917C383.088 158.096 383.031 158.276 382.972 158.455C382.807 158.981 382.636 159.506 382.462 160.027C380.784 165.017 378.721 169.885 376.293 174.572C376.189 174.768 376.089 174.961 375.985 175.156C373.935 179.05 371.637 182.818 369.095 186.429C367.817 188.245 366.481 190.019 365.081 191.748C364.907 191.962 364.734 192.177 364.557 192.389C359.86 198.107 354.524 203.317 348.651 207.904C340.763 214.067 331.94 219.112 322.585 222.855C320.562 223.665 318.513 224.413 316.444 225.101C316.173 225.193 315.9 225.28 315.625 225.368C313.627 226.016 311.608 226.606 309.574 227.133C311.078 212.033 315.712 197.244 323.159 183.901C325.439 179.819 327.983 175.887 330.768 172.125C330.91 171.938 331.047 171.751 331.186 171.564C335.416 165.93 340.184 160.692 345.409 155.915C345.556 155.782 345.705 155.646 345.854 155.511C350.414 151.389 355.315 147.62 360.504 144.253C360.781 144.073 361.062 143.892 361.34 143.716C361.493 143.617 361.647 143.519 361.805 143.422C369.853 138.346 378.54 134.248 387.63 131.261Z" fill="#8C7D46"/>
<path d="M387.621 131.435C387.614 131.744 387.602 132.054 387.59 132.361C383.823 137.63 379.963 142.834 376.041 147.994C369.338 156.815 362.459 165.51 355.558 174.184C348.552 182.992 341.526 191.782 334.638 200.676C328.418 208.708 322.312 216.822 316.443 225.101C316.173 225.193 315.9 225.28 315.625 225.368C316.071 224.738 316.516 224.11 316.966 223.482C323.409 214.45 330.13 205.61 336.964 196.856C343.755 188.157 350.655 179.545 357.518 170.899C364.48 162.132 371.405 153.33 378.129 144.387C381.348 140.109 384.516 135.795 387.621 131.435Z" fill="#32303A"/>
<path d="M337.08 196.963C334.734 188.583 332.77 180.11 331.186 171.564C331.046 171.751 330.909 171.938 330.768 172.125C332.352 180.595 334.306 188.996 336.634 197.301C336.662 197.4 336.774 197.494 336.884 197.484C346.287 196.713 355.459 194.715 364.557 192.389C364.733 192.177 364.906 191.961 365.081 191.748C360.154 193.016 355.204 194.194 350.199 195.141C345.857 195.962 341.482 196.594 337.08 196.963Z" fill="#32303A"/>
<path d="M351.387 179.004C349.218 171.249 347.371 163.411 345.854 155.51C345.705 155.646 345.555 155.782 345.408 155.915C346.931 163.795 348.776 171.608 350.943 179.342C350.971 179.441 351.081 179.535 351.191 179.527C359.603 178.836 367.831 177.165 375.984 175.156C376.088 174.961 376.188 174.768 376.292 174.571C372.386 175.54 368.465 176.433 364.506 177.182C360.164 178.003 355.789 178.635 351.387 179.004Z" fill="#32303A"/>
<path d="M379.158 158.721C374.818 159.54 370.443 160.174 366.037 160.543C364.453 154.877 363.042 149.167 361.805 143.422C361.646 143.52 361.493 143.617 361.34 143.716C362.584 149.476 364.003 155.199 365.595 160.881C365.623 160.98 365.733 161.074 365.842 161.066C371.629 160.589 377.325 159.651 382.972 158.455C383.03 158.276 383.087 158.096 383.144 157.917C381.819 158.2 380.491 158.469 379.158 158.721Z" fill="#32303A"/>
<path d="M96.8118 236.279C96.6057 241.576 95.903 246.864 94.6978 252.039C94.425 251.946 94.1522 251.852 93.8813 251.757C93.6458 251.673 93.4122 251.587 93.1767 251.503C79.7101 246.606 67.6391 238.219 58.4357 227.456C56.0627 224.681 53.9017 221.751 51.9585 218.698C51.8388 218.51 51.723 218.323 51.6033 218.134C47.7366 211.937 44.7728 205.24 42.7708 198.264C42.7198 198.088 42.6687 197.91 42.6216 197.733C41.1142 192.342 40.1799 186.788 39.8502 181.175C39.7481 179.447 39.705 177.719 39.7167 175.99C39.7167 175.813 39.7207 175.633 39.7226 175.456C39.8149 168.625 40.7963 161.817 42.6628 155.23C42.6766 155.182 42.6884 155.133 42.7041 155.087C42.9023 155.165 43.1005 155.245 43.2968 155.325C48.1449 157.275 52.8104 159.659 57.2207 162.431C58.7144 163.369 60.1786 164.353 61.6114 165.376C61.7645 165.487 61.9176 165.598 62.0727 165.709C66.6518 169.028 70.9032 172.776 74.7443 176.888C74.8876 177.041 75.0309 177.196 75.1722 177.35C76.2027 178.467 77.1998 179.609 78.1654 180.776C81.2077 184.452 83.9242 188.379 86.2756 192.5C86.3993 192.718 86.521 192.935 86.6446 193.153C88.8998 197.194 90.8057 201.424 92.319 205.788C95.7165 215.573 97.2082 225.96 96.8118 236.279Z" fill="#A18F50"/>
<mask id="mask2_2171_115540" style="mask-type:luminance" maskUnits="userSpaceOnUse" x="168" y="61" width="44" height="93">
<path d="M168.83 61.9324H211.037V154H168.83V61.9324Z" fill="white"/>
</mask>
<g mask="url(#mask2_2171_115540)">
<path d="M209.846 143.346C209.405 146.411 208.785 149.451 207.995 152.453C207.925 152.721 207.854 152.988 207.78 153.255C207.721 153.465 207.664 153.675 207.605 153.887C197.442 146.722 188.776 137.571 182.289 127.102C180.316 123.922 178.558 120.622 177.017 117.232C176.913 117.007 176.813 116.783 176.715 116.558C174.358 111.264 172.53 105.753 171.252 100.121C171.207 99.9205 171.162 99.7238 171.119 99.5233C170.118 94.9782 169.476 90.3547 169.201 85.7065C169.156 84.9464 169.119 84.1863 169.095 83.4243C169.087 83.2467 169.084 83.0634 169.078 82.8858C168.889 76.1559 169.468 69.4108 170.817 62.8032C170.868 62.5587 170.919 62.3162 170.97 62.0698C171.025 62.1023 171.078 62.1348 171.129 62.1672C176.609 65.5188 181.671 69.491 186.215 73.9693C186.344 74.0973 186.474 74.2252 186.599 74.3551C187.555 75.3042 188.486 76.2801 189.392 77.2769C192.081 80.2313 194.554 83.3747 196.79 86.6728C196.902 86.837 197.016 87.0051 197.126 87.1731C199.242 90.3394 201.136 93.6433 202.788 97.0598C203.632 98.8072 204.411 100.579 205.124 102.376C205.212 102.602 205.303 102.827 205.389 103.054C207.456 108.404 208.932 113.967 209.789 119.629C210.975 127.472 210.983 135.495 209.846 143.346Z" fill="#A18F50"/>
</g>
<mask id="mask3_2171_115540" style="mask-type:luminance" maskUnits="userSpaceOnUse" x="258" y="202" width="149" height="66">
<path d="M258.771 202.721H406.998V267.867H258.771V202.721Z" fill="white"/>
</mask>
<g mask="url(#mask3_2171_115540)">
<path d="M406.998 207.892C406.924 208.018 406.845 208.142 406.769 208.268C402.135 215.839 396.68 222.927 390.523 229.384C390.397 229.522 390.266 229.653 390.136 229.789C386.931 233.122 383.537 236.284 379.971 239.252C377.855 241.014 375.678 242.706 373.449 244.32C373.28 244.444 373.111 244.565 372.942 244.685C366.577 249.251 359.766 253.208 352.612 256.476C352.388 256.579 352.162 256.682 351.937 256.783C348.732 258.223 345.462 259.527 342.131 260.685C327.222 265.862 311.305 268.199 295.493 267.703C283.057 267.313 270.664 265.17 258.88 261.269C258.898 261.244 258.915 261.219 258.933 261.193C259.088 260.963 259.243 260.734 259.4 260.505C264.951 252.414 271.444 244.947 278.716 238.27C287.059 230.605 296.402 223.978 306.455 218.606C313.115 215.05 320.083 212.053 327.267 209.67C327.489 209.594 327.712 209.523 327.936 209.449C331.834 208.179 335.799 207.088 339.809 206.183C344.233 205.186 348.712 204.413 353.216 203.865C353.417 203.84 353.619 203.817 353.819 203.792C361.658 202.873 369.582 202.629 377.465 203.055C377.649 203.064 377.836 203.074 378.016 203.085C378.191 203.097 378.36 203.106 378.53 203.116C388.028 203.7 397.465 205.261 406.62 207.787C406.747 207.822 406.873 207.856 406.998 207.892Z" fill="#A18F50"/>
</g>
<mask id="mask4_2171_115540" style="mask-type:luminance" maskUnits="userSpaceOnUse" x="258" y="207" width="149" height="55">
<path d="M258.89 207.778H406.998V261.353H258.89V207.778Z" fill="white"/>
</mask>
<g mask="url(#mask4_2171_115540)">
<path d="M406.998 207.892C406.924 208.018 406.845 208.143 406.768 208.269C396.307 212.317 385.824 216.309 375.317 220.243C361.142 225.554 346.924 230.757 332.666 235.858C318.41 240.961 304.116 245.955 289.78 250.848C279.516 254.35 269.235 257.799 258.933 261.193C259.088 260.964 259.243 260.734 259.4 260.505C271.322 256.577 283.218 252.574 295.087 248.497C309.409 243.581 323.698 238.557 337.944 233.429C352.19 228.302 366.396 223.071 380.562 217.735C389.264 214.458 397.95 211.143 406.619 207.787C406.747 207.822 406.872 207.856 406.998 207.892Z" fill="#32303A"/>
</g>
<path d="M312.031 243.048C315.937 234.825 322.703 220.502 327.935 209.449C327.712 209.523 327.488 209.594 327.266 209.67C322.025 220.737 315.346 234.879 311.452 243.069C311.381 243.222 311.436 243.384 311.605 243.44C325.048 247.888 338.493 252.333 351.936 256.783C352.162 256.682 352.387 256.579 352.611 256.476C343.015 253.3 333.417 250.124 323.819 246.948C319.888 245.648 315.958 244.349 312.031 243.048Z" fill="#32303A"/>
<path d="M339.84 233.2C344.5 223.397 349.159 213.597 353.819 203.792C353.619 203.817 353.417 203.84 353.216 203.865C348.565 213.65 343.913 223.436 339.263 233.223C339.19 233.376 339.249 233.536 339.418 233.592C350.592 237.291 361.766 240.986 372.942 244.685C373.111 244.565 373.28 244.444 373.449 244.32C366.176 241.914 358.904 239.508 351.632 237.102C347.701 235.803 343.769 234.502 339.84 233.2Z" fill="#32303A"/>
<path d="M380.705 226.138C376.774 224.835 372.846 223.537 368.915 222.236C371.949 215.852 374.984 209.468 378.016 203.085C377.836 203.074 377.649 203.064 377.465 203.055C374.422 209.456 371.38 215.856 368.338 222.259C368.267 222.412 368.322 222.572 368.491 222.628C375.706 225.015 382.921 227.4 390.136 229.789C390.266 229.654 390.397 229.522 390.523 229.384C387.249 228.301 383.979 227.219 380.705 226.138Z" fill="#32303A"/>
<mask id="mask5_2171_115540" style="mask-type:luminance" maskUnits="userSpaceOnUse" x="170" y="61" width="39" height="93">
<path d="M170.337 61.9324H208.022V153.511H170.337V61.9324Z" fill="white"/>
</mask>
<g mask="url(#mask5_2171_115540)">
<path d="M207.994 152.453C207.924 152.721 207.853 152.988 207.778 153.255C207.258 152.062 206.742 150.864 206.224 149.671C202.426 140.88 198.681 132.067 194.993 123.229C194.912 123.034 194.83 122.841 194.751 122.644C192.367 116.927 190.005 111.199 187.672 105.463C187.593 105.268 187.515 105.075 187.434 104.88C186.898 103.56 186.363 102.241 185.829 100.919C183.917 96.1927 182.019 91.4604 180.143 86.7224C180.066 86.5295 179.989 86.3386 179.915 86.1438V86.1419C176.837 78.3808 173.805 70.5986 170.815 62.8032C170.866 62.5587 170.917 62.3162 170.969 62.0698C171.023 62.1023 171.076 62.1348 171.128 62.1672C173.261 67.7436 175.42 73.3143 177.601 78.8716C178.521 81.2186 179.446 83.5618 180.374 85.9032C180.457 86.117 180.541 86.3309 180.629 86.5448C183.061 92.6865 185.522 98.8167 188.015 104.935V104.937C188.094 105.134 188.174 105.327 188.255 105.526C190.604 111.297 192.977 117.056 195.376 122.805V122.807C195.45 122.986 195.525 123.164 195.601 123.341C196.273 124.953 196.948 126.561 197.621 128.173C201.032 136.285 204.487 144.381 207.994 152.453Z" fill="#212333"/>
</g>
<path d="M180.579 86.6441C182.61 82.5611 184.644 78.4743 186.599 74.355C186.473 74.2251 186.344 74.0972 186.214 73.9692C184.267 78.0751 182.241 82.1524 180.218 86.2201C176.449 85.2786 172.734 84.1672 169.077 82.8857C169.083 83.0633 169.087 83.2467 169.095 83.4243C172.767 84.7076 176.502 85.821 180.288 86.7586C180.393 86.7835 180.53 86.7434 180.579 86.6441Z" fill="#212333"/>
<path d="M188.338 105.442C191.346 99.3935 194.355 93.334 197.125 87.1732C197.015 87.0051 196.901 86.8371 196.789 86.6729C194.014 92.8584 190.997 98.9428 187.974 105.018C182.224 103.582 176.59 101.746 171.118 99.5234C171.161 99.7239 171.206 99.9206 171.252 100.121C176.706 102.319 182.32 104.135 188.045 105.556C188.149 105.581 188.287 105.541 188.338 105.442Z" fill="#212333"/>
<path d="M205.123 102.376C202.104 109.284 198.748 116.056 195.386 122.809C188.999 121.214 182.753 119.125 176.714 116.558C176.812 116.783 176.912 117.007 177.016 117.232C182.985 119.738 189.152 121.785 195.456 123.347C195.56 123.372 195.698 123.332 195.749 123.231C199.068 116.56 202.391 109.87 205.388 103.054C205.302 102.827 205.211 102.602 205.123 102.376Z" fill="#212333"/>
<path d="M93.8816 251.757C93.646 251.673 93.4125 251.587 93.1769 251.503C93.0749 251.298 92.9708 251.098 92.8668 250.894C83.9853 233.513 74.9978 216.183 65.9101 198.901C58.2337 184.307 50.4867 169.751 42.6631 155.23C42.6768 155.182 42.6886 155.133 42.7043 155.087C42.9025 155.165 43.1008 155.245 43.2971 155.325C47.0106 162.216 50.7046 169.115 54.3847 176.023C63.5607 193.258 72.6365 210.545 81.6103 227.883C85.7223 235.83 89.8147 243.786 93.8816 251.757Z" fill="#32303A"/>
<path d="M62.0728 165.709C61.5762 168.111 61.0384 170.502 60.477 172.889C59.843 175.586 59.1737 178.273 58.4907 180.958C58.316 181.641 58.2061 182.516 57.2934 182.461C56.7164 182.424 56.0981 182.1 55.5603 181.914C54.9381 181.697 54.3139 181.479 53.6937 181.259C49.0007 179.598 44.3391 177.843 39.7168 175.99C39.7168 175.813 39.7207 175.633 39.7227 175.456C39.7992 175.486 39.8777 175.517 39.9563 175.549C44.7474 177.465 49.5817 179.281 54.4533 180.992C55.1795 181.248 55.9038 181.506 56.6339 181.75C57.1383 181.922 57.3915 182.14 57.8332 181.456C57.9764 181.235 58.0079 180.767 58.0726 180.511C58.367 179.353 58.6595 178.192 58.9441 177.033C59.5447 174.606 60.1276 172.175 60.6733 169.738C61.0011 168.287 61.3151 166.833 61.6115 165.376C61.7646 165.487 61.9177 165.598 62.0728 165.709Z" fill="#32303A"/>
<path d="M75.1717 177.35C74.4415 181.028 73.6957 184.704 72.8693 188.362C72.1588 191.505 71.3639 194.633 70.3963 197.708C70.1529 198.479 69.8997 199.245 69.6347 200.005C69.4443 200.547 69.301 201.172 68.9791 201.661C68.3295 202.652 66.8907 202.089 65.9368 201.938C58.2153 200.714 50.4938 199.49 42.7703 198.263C42.7192 198.088 42.6682 197.91 42.6211 197.733C44.2934 197.998 45.9637 198.262 47.636 198.527C54.066 199.549 60.4941 200.567 66.9221 201.586C67.6229 201.699 68.4629 201.674 68.7554 200.937C68.8947 200.588 69.0125 200.227 69.1362 199.871C69.3835 199.161 69.621 198.447 69.8467 197.729C70.302 196.296 70.7201 194.849 71.1068 193.397C71.8938 190.436 72.5651 187.443 73.1873 184.445C73.7133 181.926 74.2315 179.409 74.7438 176.888C74.8871 177.041 75.0304 177.195 75.1717 177.35Z" fill="#32303A"/>
<path d="M86.6448 193.153C85.5987 198.445 84.5722 203.744 83.3847 209.006C82.6742 212.149 81.8812 215.275 80.9116 218.352C80.6682 219.123 80.417 219.887 80.152 220.649C79.9616 221.192 79.8164 221.816 79.4964 222.305C78.8468 223.296 77.4061 222.733 76.4541 222.582C68.289 221.287 60.1239 219.992 51.9588 218.698C51.839 218.51 51.7232 218.323 51.6035 218.134C53.7861 218.48 55.9687 218.826 58.1513 219.171C64.5814 220.193 71.0094 221.211 77.4375 222.231C78.1402 222.341 78.9783 222.318 79.2727 221.579C79.412 221.232 79.5278 220.871 79.6535 220.516C79.8988 219.805 80.1363 219.091 80.364 218.373C80.8174 216.939 81.2355 215.493 81.6202 214.042C82.4112 211.078 83.0785 208.085 83.7046 205.089C84.5781 200.895 85.4338 196.698 86.2758 192.5C86.3995 192.718 86.5212 192.935 86.6448 193.153Z" fill="#32303A"/>
<path d="M338.305 131.015C336.633 128.996 334.146 127.801 331.482 127.737L118.981 122.736C114.549 122.629 110.726 125.627 109.888 129.867L84.9368 255.909C84.4324 258.454 85.1017 261.074 86.772 263.095C88.4423 265.113 90.9291 266.309 93.5926 266.37L306.094 271.375C310.524 271.478 314.351 268.48 315.189 264.244L340.14 138.199C340.645 135.655 339.973 133.035 338.305 131.015Z" fill="#F0E7E1"/>
<path d="M150.67 138.092L150.562 138.65L124.805 269.193C124.618 269.152 124.43 269.118 124.241 269.084L149.981 138.636L150.091 138.081L150.67 138.092Z" fill="#C4A8A3"/>
<path d="M172.467 123.995L169.597 138.539L169.487 139.095L168.906 139.079L169.016 138.526L171.884 123.979L172.467 123.995Z" fill="#C4A8A3"/>
<path d="M228.217 125.306L225.349 139.853L225.239 140.407L224.658 140.393L224.768 139.837L227.638 125.293L228.217 125.306Z" fill="#C4A8A3"/>
<path d="M283.497 126.609L280.629 141.153L280.519 141.709L279.938 141.696L280.048 141.14L282.918 126.594L283.497 126.609Z" fill="#C4A8A3"/>
<path d="M338.554 143.076L109.607 137.683C109.238 137.676 109.252 137.12 109.621 137.128L338.568 142.519C338.937 142.526 338.923 143.084 338.554 143.076Z" fill="#C4A8A3"/>
<path d="M117.189 127.995C115.701 127.961 114.415 128.967 114.133 130.392L88.6717 259.014C88.499 259.883 88.7188 260.742 89.29 261.429C89.8592 262.117 90.6737 262.508 91.5805 262.529L308.433 267.636C309.923 267.672 311.207 266.664 311.491 265.239L336.952 136.618C337.123 135.749 336.903 134.891 336.334 134.202C335.763 133.514 334.95 133.123 334.042 133.102L117.189 127.995ZM308.284 273.657L91.4314 268.553C88.7149 268.488 86.177 267.269 84.4714 265.207C82.7677 263.146 82.0827 260.473 82.5989 257.876L108.06 129.254C108.916 124.928 112.818 121.869 117.34 121.976L334.193 127.082C336.909 127.145 339.445 128.362 341.151 130.424C342.856 132.485 343.539 135.159 343.025 137.758L317.564 266.379C316.708 270.703 312.804 273.764 308.284 273.657Z" fill="#32303A"/>
<path d="M137.684 149.346L118.938 148.834C118.614 148.825 118.331 149.042 118.263 149.35L117.77 151.632C117.682 152.033 117.99 152.411 118.41 152.423L137.156 152.936C137.48 152.944 137.763 152.726 137.83 152.419L138.324 150.139C138.413 149.738 138.104 149.358 137.684 149.346Z" fill="#C4A8A3"/>
<path d="M136.222 156.33L117.476 155.816C117.152 155.808 116.869 156.024 116.803 156.332L116.308 158.614C116.22 159.015 116.528 159.395 116.948 159.404L135.696 159.918C136.018 159.926 136.301 159.708 136.37 159.401L136.862 157.12C136.951 156.719 136.642 156.339 136.222 156.33Z" fill="#C4A8A3"/>
<path d="M134.55 164.051L115.803 163.537C115.481 163.528 115.199 163.745 115.13 164.055L114.635 166.335C114.547 166.734 114.855 167.116 115.277 167.126L134.024 167.639C134.347 167.647 134.63 167.429 134.697 167.122L135.191 164.842C135.28 164.44 134.972 164.06 134.55 164.051Z" fill="#C4A8A3"/>
<path d="M132.546 171.717L113.8 171.203C113.478 171.195 113.195 171.413 113.126 171.72L112.632 174.001C112.545 174.402 112.852 174.782 113.274 174.791L132.02 175.305C132.344 175.314 132.627 175.097 132.693 174.787L133.188 172.507C133.276 172.108 132.968 171.726 132.546 171.717Z" fill="#C4A8A3"/>
<path d="M299.978 254.662L144.786 251.891L159.322 167.41L314.517 170.183L299.978 254.662Z" fill="#C4A8A3"/>
<path d="M156.619 151.737C156.448 152.923 155.343 153.866 154.154 153.843C152.963 153.822 152.138 152.843 152.311 151.655C152.484 150.469 153.587 149.525 154.776 149.546C155.968 149.571 156.792 150.549 156.619 151.737Z" fill="#C4A8A3"/>
<path d="M178.9 153.719L162.303 153.437C161.928 153.429 161.646 153.089 161.714 152.726L162.105 150.664C162.158 150.385 162.405 150.186 162.694 150.192L179.293 150.475C179.666 150.48 179.949 150.824 179.88 151.185L179.489 153.249C179.436 153.528 179.189 153.725 178.9 153.719Z" fill="#C4A8A3"/>
<path d="M197.427 160.08L161.339 159.404C160.965 159.399 160.682 159.057 160.751 158.694L161.141 156.631C161.194 156.353 161.441 156.154 161.73 156.16L197.817 156.836C198.192 156.842 198.475 157.183 198.406 157.546L198.016 159.609C197.963 159.888 197.715 160.084 197.427 160.08Z" fill="#C4A8A3"/>
<path d="M240.885 108.043C241.806 106.461 242.383 104.737 242.004 102.858C241.509 100.394 239.539 98.4882 237.087 97.8541C236.869 97.6288 236.638 97.4092 236.396 97.201C235.784 96.4486 235.089 95.7687 234.416 95.192C232.182 93.2746 229.444 91.9378 226.555 91.258C223.25 90.4788 219.775 90.5533 216.464 91.258C213.184 91.9531 209.867 93.2135 207.243 95.2951C204.841 97.1991 203.127 99.8498 202.334 102.754C202.311 102.793 202.289 102.831 202.266 102.869C202.083 103.144 201.847 103.366 201.575 103.526C201.164 103.992 200.703 104.406 200.405 104.987C200.065 105.644 199.869 106.356 199.804 107.086C199.653 108.772 200.25 110.493 201.506 111.673C201.637 111.797 203.683 112.714 204.745 112.845C205.579 112.947 206.413 112.842 207.249 112.865C208.128 112.887 208.974 113.094 209.773 113.457C212.437 114.667 214.6 117.054 216.35 119.293C218.113 121.546 219.369 124.103 221.063 126.397C221.774 127.359 222.606 128.266 223.652 128.893C224.822 129.596 226.16 129.827 227.517 129.867C229.817 129.932 232.579 129.863 234.459 128.391C235.458 127.61 235.992 126.483 236.202 125.268C236.318 124.606 236.347 123.931 236.353 123.259C236.357 122.942 236.326 122.614 236.355 122.299C236.406 121.733 236.712 121.554 237.209 121.327C238.832 120.584 239.289 118.941 239.311 117.32C239.323 117.314 239.334 117.31 239.346 117.303C240.477 116.772 241.179 115.865 241.664 114.757C242.64 112.527 242.292 110.002 240.885 108.043Z" fill="#32303A"/>
<path d="M210.919 256.634C212.56 256.489 214.205 256.398 215.852 256.388C216.707 256.384 217.657 256.344 218.582 256.399C219.447 255.838 220.311 255.277 221.281 254.898C222.788 254.312 224.525 254.266 226.127 254.327C227.666 254.385 229.191 254.501 230.729 254.518C231.65 254.53 232.57 254.547 233.489 254.511C233.901 254.494 234.313 254.471 234.722 254.427C234.688 254.427 235.091 254.369 235.154 254.358C235.403 254.308 235.648 254.251 235.893 254.19C236.194 254.115 236.494 254.087 236.783 254.1L236.8 253.577L243.849 253.73L279.918 254.335L277.824 247.951C276.707 244.565 275.589 241.177 274.472 237.789C273.912 236.095 273.355 234.403 272.794 232.711C272.644 232.249 272.491 231.787 272.338 231.325C272.262 231.094 272.187 230.865 272.112 230.632C272.012 230.337 272.022 230.244 271.769 230.085C271.567 229.961 271.284 229.912 271.003 229.881C270.874 229.564 270.74 229.247 270.603 228.93C270.12 227.807 269.606 226.694 269.06 225.599C268.587 224.648 268.114 223.682 267.461 222.838C266.104 221.085 264.071 220.627 261.959 220.357C259.559 220.055 257.154 219.782 254.752 219.532C247.904 218.824 240.997 218.354 234.105 218.497C231.234 218.556 228.366 218.723 225.506 219.022C220.107 219.586 214.766 220.634 209.604 222.311C209.498 222.345 209.426 222.427 209.418 222.54C208.805 233.676 208.434 244.823 208.309 255.972C208.305 256.245 208.299 256.545 208.287 256.863C209.172 256.778 210.054 256.711 210.919 256.634Z" fill="#212333"/>
<path d="M202.481 181.935C201.28 185.012 199.245 189.851 197.99 192.911C196.764 195.896 195.57 198.896 194.279 201.858C191.914 207.274 189.044 212.739 184.371 216.817C180.111 220.533 174.306 223.157 168.288 222.561C165.118 222.248 162.182 220.907 160.602 218.291C159.247 216.049 157.182 213.505 157.235 210.988C157.377 204.451 159.665 197.796 161.489 191.518C167.463 170.932 179.238 161.032 183.413 156.859C188.353 151.924 204.424 146.84 205.164 146.546C206.083 149.033 202.008 152.952 203.37 155.238C204.905 157.814 205.741 160.701 206.03 163.612C206.658 169.904 204.77 176.073 202.481 181.935Z" fill="#B9D386"/>
<path d="M275.298 157.583C273.883 153.738 270.503 151.269 266.811 149.627C265.944 149.241 262.915 148.099 258.562 146.816C258.399 146.768 258.232 146.718 258.065 146.67C251.201 144.679 241.256 142.395 231.262 142.057C218.347 141.621 206.189 146.065 202.387 147.388H202.385C202.273 147.427 202.171 147.463 202.077 147.495C201.991 147.524 201.908 147.553 201.824 147.583C198.487 148.729 195.129 150.016 192.279 152.1C189.439 154.174 187.384 157.05 186.116 160.26C183.221 167.582 204.774 221.465 205.96 228.594L227.791 207.102L254.96 230.228C256.799 223.796 273.02 175.102 274.562 170.62C275.995 166.457 276.865 161.839 275.298 157.583Z" fill="#B9D386"/>
<path d="M231.262 142.057C226.89 141.91 222.608 142.322 218.706 142.981C218.223 145.819 217.93 148.687 217.836 151.565C217.607 158.591 218.604 165.561 220.58 172.314C221.703 176.149 223.094 179.9 224.594 183.606C225.495 182.489 226.353 181.34 227.165 180.159C231.22 174.281 234.215 167.773 236.669 161.127C237.898 157.81 238.991 154.447 240.015 151.065C240.806 148.46 241.678 145.811 242.137 143.113C238.62 142.572 234.944 142.183 231.262 142.057Z" fill="white"/>
<path d="M240.225 110.73C240.325 114.415 239.383 117.53 237.297 120.815C236.337 122.333 235.257 123.949 234.176 125.795C233.828 126.387 233.557 126.809 233.298 127.18C232.69 128.064 232.125 128.696 230.706 130.73C229.86 131.943 228.256 132.422 226.968 133.174C225.118 129.095 223.013 125.144 219.626 122.056C216.878 119.552 213.681 117.347 210.487 115.426C208.314 114.117 206.01 112.914 203.578 112.097C203.67 110.149 203.78 108.203 204.09 106.276C204.247 105.275 204.465 104.32 204.754 103.413C204.754 103.41 204.758 103.41 204.758 103.41C205.174 102.075 205.476 100.675 206.232 99.5805C207.551 97.6708 209.704 96.3417 212.336 95.3868C217.425 93.5439 222.187 93.9354 227.161 94.9208C233.926 96.2595 235.879 98.6734 237.997 102.47C239.301 104.804 240.154 108.18 240.225 110.73Z" fill="#32303A"/>
<path d="M247.588 182.833C246.261 183.622 244.836 184.11 243.464 184.107C242.212 184.103 241.072 183.736 240.029 183.276C238.075 182.415 236.353 181.212 234.451 180.272C233.523 179.814 232.547 179.418 231.501 179.164C231.032 179.05 230.539 178.994 230.057 178.908C229.672 178.838 229.346 178.759 229.254 178.357C229.171 177.999 229.268 177.606 229.33 177.211C229.839 174.081 226.463 169.767 227.642 166.65C235.209 167.912 245.488 173.914 251.822 177.654C252.032 177.778 252.258 177.889 252.454 178.03C252.519 178.074 252.574 178.125 252.623 178.179C251.156 179.959 249.561 181.658 247.588 182.833Z" fill="#FFA47A"/>
<path d="M203.363 114.711C203.492 117.694 203.52 121.311 204.054 124.245C204.544 126.943 205.239 128.786 206.858 131.482C209.369 135.659 212.468 138.042 216.617 137.84C222.26 137.563 225.695 135.105 227.04 133.654C231.462 128.881 232.319 122.312 232.822 121.222C234.759 117.018 238.957 112.477 237.917 107.873C237.093 104.221 235.13 100.425 231.752 98.4787C224.871 94.5122 217.948 95.3734 215.962 96.0648C213.388 96.7733 208.886 98.2476 207.009 99.8193C205.743 100.873 204.897 102.357 204.346 104.072C203.343 107.197 203.208 111.19 203.363 114.711Z" fill="#FFA47A"/>
<path d="M221.65 144.9C224.519 144.919 227.387 144.938 230.247 144.64C230.298 144.635 230.339 144.631 230.376 144.627C230.406 144.623 230.439 144.617 230.48 144.61C230.688 144.577 230.898 144.547 231.108 144.511C231.522 144.44 231.935 144.36 232.347 144.268C233.199 144.079 234.043 143.84 234.863 143.542C234.902 143.527 235.118 143.441 235.236 143.395C235.352 143.342 235.503 143.275 235.534 143.26C235.946 143.065 236.347 142.855 236.739 142.626C236.814 142.584 236.887 142.538 236.959 142.492L233.469 128.03L233.098 126.487C232.496 123.992 231.897 121.504 231.293 119.01C230.249 119.753 229.198 120.492 228.139 121.223C225.234 123.225 220.519 125.704 217.436 127.43L220.66 140.798L221.65 144.9Z" fill="#FFA47A"/>
<path d="M218.268 116.724C218.25 118.059 218.945 119.148 219.818 119.159C220.692 119.169 221.414 118.095 221.43 116.762C221.448 115.429 220.753 114.337 219.879 114.327C219.006 114.318 218.284 115.389 218.268 116.724Z" fill="#212333"/>
<path d="M207.942 116.755C207.924 118.088 208.619 119.178 209.492 119.19C210.366 119.199 211.088 118.124 211.104 116.791C211.121 115.458 210.427 114.368 209.553 114.358C208.68 114.348 207.957 115.42 207.942 116.755Z" fill="#212333"/>
<path d="M212.635 126.162C212.802 127.344 214.378 128.605 217.02 128.347C219.265 128.125 221.094 126.737 221.187 125.517C221.092 125.522 212.658 126.16 212.635 126.162Z" fill="white"/>
<path d="M210.527 109.055C211.035 109.284 211.441 109.771 211.616 110.309C211.781 110.672 211.802 111.09 211.618 111.509C211.259 112.32 210.454 112.479 209.636 112.483C208.739 112.484 207.739 112.729 206.895 112.318C206.157 111.957 205.879 111.163 206.124 110.399C206.682 108.667 209.039 108.379 210.527 109.055Z" fill="#32303A"/>
<path d="M220.539 108.445C221.037 108.669 221.436 109.148 221.608 109.673C221.769 110.032 221.791 110.441 221.608 110.854C221.259 111.652 220.468 111.805 219.663 111.807C218.782 111.81 217.802 112.051 216.976 111.646C216.25 111.295 215.975 110.512 216.218 109.763C216.764 108.064 219.078 107.781 220.539 108.445Z" fill="#32303A"/>
<path d="M231.999 98.1407C225.116 94.1742 217.634 94.751 215.647 95.4442C213.076 96.1527 208.575 98.0128 206.697 99.5826C206.63 99.636 206.566 99.6952 206.501 99.7544C205.374 100.82 204.868 102.447 204.348 104.072C204.481 103.834 204.619 103.616 204.754 103.413C204.754 103.41 204.758 103.41 204.758 103.41C206.85 100.287 209.584 100.31 211.979 99.9683C214.495 99.6074 218.319 99.3916 220.69 100.322C224.111 101.662 224.641 102.665 225.809 105.85C226.549 107.867 225.516 112.351 228.174 114.515C229.104 115.271 231.891 118.221 232.716 119.096C232.996 119.396 231.817 120.985 232.042 123.378C232.215 125.158 232.922 126.55 233.299 127.18C233.558 126.809 233.828 126.387 234.176 125.795C235.257 123.949 236.337 122.333 237.297 120.815C238.82 116.812 239.444 111.851 238.512 107.741C237.687 104.088 235.375 100.087 231.999 98.1407Z" fill="#32303A"/>
<path d="M227.465 116.384C227.534 115.708 227.762 115.055 228.225 114.473C229.224 113.22 231.002 113.035 232.51 113.571C234.096 114.137 234.873 115.771 234.816 117.257C234.743 119.113 233.515 120.406 231.862 121.201C228.27 122.931 226.009 119.363 227.465 116.384Z" fill="#FFA47A"/>
<path d="M214.923 122.929C214.203 122.627 213.423 122.369 212.774 121.934C211.938 121.37 211.81 120.542 212.175 119.646C212.836 118.034 213.777 116.491 214.576 114.938C214.681 114.732 214.365 114.541 214.259 114.749L212.709 117.757C212.291 118.569 211.686 119.461 211.596 120.389C211.423 122.14 213.51 122.726 214.815 123.274C215.033 123.366 215.139 123.02 214.923 122.929Z" fill="#B9643C"/>
<path d="M217.148 121.831C216.492 121.441 215.783 121.157 215.004 121.29C214.769 121.332 214.859 121.682 215.093 121.642C215.772 121.525 216.388 121.8 216.955 122.138C217.157 122.26 217.352 121.953 217.148 121.831Z" fill="#B9643C"/>
<path d="M224.375 133.896C223.063 135.126 221.56 136.106 219.894 136.82C219.676 136.914 219.856 137.229 220.074 137.135C221.768 136.411 223.297 135.409 224.63 134.158C224.802 133.998 224.545 133.736 224.375 133.896Z" fill="#B9643C"/>
<path d="M232.019 115.213C231.128 115.036 230.269 115.196 229.525 115.712C229.378 115.813 229.417 116.033 229.611 116.048C230.865 116.147 231.749 118.057 230.854 118.968C230.689 119.136 230.944 119.398 231.109 119.23C232.125 118.195 231.399 116.273 230.098 115.794C230.657 115.519 231.274 115.431 231.913 115.559C232.145 115.603 232.255 115.257 232.019 115.213Z" fill="#B9643C"/>
<path d="M300.182 209.263C299.609 202.028 297.322 194.891 294.635 187.983C291.972 181.15 287.82 170.101 284.172 163.617C283.818 162.985 283.447 162.378 283.067 161.795C282.97 161.646 282.872 161.501 282.774 161.356C278.909 155.65 273.877 152.302 268.819 150.175C262.703 147.602 258.506 147.753 252.112 146.833C251.144 147.572 250.445 148.559 249.962 149.673C248.793 152.361 248.753 155.511 248.559 158.446C248.316 162.063 248.153 165.699 248.269 169.354C248.388 173.042 248.793 176.754 249.697 180.406C250.547 183.832 251.821 187.185 253.266 190.462C255.998 196.667 259.488 202.612 263.614 208.141C265.68 210.908 267.906 213.576 270.289 216.108C272.55 218.508 274.992 220.798 277.759 222.645C280.381 224.392 283.355 225.786 286.45 226.212C289.131 226.583 291.905 226.3 294.28 225.263C296.788 224.169 298.694 222.242 299.511 219.671C300.044 217.995 300.203 216.19 300.282 214.412C300.357 212.705 300.319 210.984 300.182 209.263Z" fill="#B9D386"/>
<path d="M216.969 160.917L211.752 163.57C211.744 163.587 211.734 163.602 211.72 163.619C209.565 166.306 207.41 168.995 205.375 171.77C204.381 173.122 203.418 174.493 202.499 175.893C202.04 176.594 201.59 177.3 201.155 178.015C200.717 178.735 200.157 179.51 200.097 180.373C200.03 181.317 200.587 182.18 201.033 182.976C201.457 183.73 201.885 184.481 202.315 185.23C203.178 186.731 204.054 188.224 204.941 189.71C206.719 192.681 208.55 195.618 210.431 198.529C210.607 198.806 210.162 199.058 209.983 198.785C208.193 196.01 206.446 193.208 204.746 190.382C203.247 187.882 201.761 185.369 200.356 182.82C199.836 181.876 199.388 180.875 199.679 179.791C199.975 178.679 200.76 177.658 201.372 176.695C204.162 172.295 207.402 168.195 210.666 164.121L207.698 165.63C206.301 166.341 204.909 167.053 203.512 167.759C202.742 168.147 201.718 168.678 200.939 168.013C200.232 167.404 200.348 166.241 200.328 165.42C200.295 163.957 200.299 162.492 200.342 161.026C200.472 156.513 200.974 152.018 201.824 147.583C201.908 147.553 201.991 147.524 202.077 147.495C202.171 147.463 202.273 147.427 202.385 147.388C201.353 152.703 200.819 158.108 200.819 163.524C200.819 164.421 200.815 165.325 200.864 166.222C200.88 166.554 200.89 166.91 201.015 167.227C201.325 167.998 202.146 167.828 202.75 167.574C204.372 166.887 205.922 165.968 207.488 165.17C210.578 163.6 213.669 162.028 216.759 160.459C217.055 160.308 217.263 160.77 216.969 160.917Z" fill="#32303A"/>
<path d="M258.561 146.816C258.538 147.23 258.51 147.642 258.479 148.055C258.198 151.745 257.682 155.423 257.097 159.074C256.787 161.005 256.451 162.93 256.074 164.847C255.807 166.215 255.609 168.17 254.645 169.272C253.739 170.311 252.296 169.667 251.266 169.188C249.656 168.434 248.135 167.507 246.677 166.501C245.882 165.953 245.102 165.378 244.333 164.794C245.99 167.679 247.642 170.565 249.299 173.45C250.06 174.78 250.849 176.099 251.582 177.446C252.182 178.551 252.706 179.732 252.718 181.001C252.745 183.669 250.094 185.088 248.255 186.637C243.664 190.499 239.324 194.635 235.245 199.004C235.022 199.247 234.655 198.888 234.88 198.649C237.045 196.327 239.283 194.072 241.595 191.889C243.599 189.998 245.658 188.163 247.766 186.381C248.822 185.491 249.958 184.661 250.971 183.725C252.149 182.638 252.427 181.202 252.002 179.699C251.619 178.339 250.806 177.113 250.106 175.891C249.381 174.627 248.655 173.365 247.931 172.1C246.453 169.524 244.977 166.946 243.499 164.37C243.454 164.29 243.458 164.213 243.489 164.148C243.191 163.919 242.894 163.686 242.598 163.455C241.167 162.338 239.726 161.228 238.478 159.914C238.252 159.678 238.615 159.32 238.843 159.557C240.093 160.871 241.532 161.981 242.963 163.1C244.425 164.24 245.895 165.374 247.442 166.409C248.745 167.282 250.1 168.086 251.527 168.753C252.583 169.243 253.898 169.797 254.541 168.458C254.879 167.752 255.075 166.967 255.256 166.211C256.035 162.976 256.516 159.645 256.993 156.357C257.456 153.165 257.892 149.919 258.065 146.67C258.231 146.718 258.398 146.768 258.561 146.816Z" fill="#32303A"/>
<path d="M279.901 254.358L243.701 253.758C240.641 243.742 236.655 229.686 234.019 218.354C232.327 211.078 231.216 204.856 231.328 201.392C234.6 201.716 242.068 201.987 245.34 202.312C247.56 202.53 249.776 202.749 251.992 202.969C253.935 203.16 262.515 204.791 264.45 205.091C266.307 205.379 268.197 205.887 269.612 207.02C270.792 207.967 271.461 209.208 271.873 210.461C272.163 211.336 279.689 237.758 284.445 254.455L279.901 254.358Z" fill="#B9D386"/>
<path d="M205.948 109.462C202.352 109.376 199.355 112.156 199.268 115.659C199.182 119.161 202.036 122.079 205.633 122.163C209.231 122.247 212.226 119.469 212.315 115.966C212.401 112.464 209.545 109.546 205.948 109.462ZM205.622 122.644C201.751 122.553 198.681 119.415 198.776 115.647C198.868 111.881 202.091 108.889 205.959 108.98C209.83 109.072 212.902 112.21 212.807 115.978C212.715 119.745 209.49 122.736 205.622 122.644Z" fill="#F5F1EE"/>
<path d="M222.741 109.815C219.146 109.733 216.148 112.511 216.06 116.014C215.974 119.516 218.83 122.434 222.425 122.518C226.021 122.602 229.018 119.824 229.107 116.321C229.193 112.819 226.337 109.901 222.741 109.815ZM222.414 122.999C218.545 122.91 215.473 119.77 215.566 116.002C215.662 112.234 218.885 109.244 222.753 109.337C226.622 109.427 229.694 112.565 229.601 116.333C229.505 120.099 226.282 123.091 222.414 122.999Z" fill="#F5F1EE"/>
<path d="M215.94 114.362C214.794 113.764 213.559 113.976 212.397 114.419C212.105 114.53 212.22 115 212.517 114.885C213.539 114.495 214.654 114.238 215.679 114.77C215.96 114.916 216.219 114.509 215.94 114.362Z" fill="#F5F1EE"/>
<path d="M240.542 111.379C239.884 110.552 239.054 109.708 238.07 109.251C237.101 108.803 236.192 109.101 235.228 109.421C232.875 110.204 230.561 111.117 228.284 112.091C227.992 112.215 228.233 112.635 228.523 112.511C230.571 111.637 232.647 110.825 234.753 110.092C235.744 109.748 236.879 109.202 237.902 109.702C238.81 110.147 239.57 110.936 240.182 111.711C240.377 111.956 240.734 111.621 240.542 111.379Z" fill="#F5F1EE"/>
<path d="M243.623 87.7136C245.095 85.0342 245.417 81.6559 243.863 78.9403C242.455 76.4825 239.441 74.9031 236.549 75.3118C235.158 75.5066 233.696 76.2151 233.005 77.4354C231.886 74.6873 227.599 75.4092 225.379 76.4386C222.416 77.8078 220.211 80.4356 219.475 83.5561C219.065 85.2863 219.12 87.0757 219.595 88.7811C217.895 88.9549 216.245 90.1809 216.042 91.9092C215.917 92.9672 216.394 94.0347 217.204 94.7089C216.892 94.9209 216.959 95.1347 217.004 95.5186C217.11 96.4448 217.481 97.329 218.005 98.1025C219.151 99.7906 220.998 100.845 222.93 101.475C225.012 102.157 227.24 102.468 229.432 102.455C231.535 102.443 233.764 102.193 235.741 101.456C237.395 100.837 239.03 99.2483 238.42 97.436C239.833 97.2966 241.209 96.8993 242.459 96.2386C243.666 95.6026 244.919 94.7242 245.612 93.5401C246.332 92.3064 246.083 91.0021 245.451 89.7856C245.066 89.0446 244.536 87.9103 243.623 87.7136Z" fill="#32303A"/>
<path d="M216.205 93.943C213.244 94.0996 210.366 95.4536 208.146 97.3175C206.876 98.385 205.773 99.6244 204.731 100.9C203.689 102.18 202.721 103.526 202.189 105.086C202.052 105.094 201.905 105.207 201.928 105.38C202.115 106.689 203.555 107.07 204.715 106.857C205.919 106.633 206.959 105.886 207.595 104.882C210.276 105.818 213.283 105.537 215.774 104.204C216.955 103.57 218.017 102.72 218.894 101.725C219.774 100.728 220.616 99.5366 220.904 98.2323C221.532 95.4021 218.781 93.8055 216.205 93.943Z" fill="#32303A"/>
<path d="M238.565 179.453L166.887 175.968L163.271 258.531L236.606 260.257L238.565 179.453Z" fill="white"/>
<path d="M191.135 177.142C191.135 177.142 190.711 170.685 190.199 169.499C189.733 168.413 188.925 167.317 187.755 166.883C187.097 166.639 186.346 166.677 185.751 166.994C185.627 166.747 185.443 166.534 185.186 166.362C184.112 165.647 182.675 165.938 181.661 166.627C181.562 166.232 181.35 165.867 180.999 165.594C180.414 165.136 179.566 165.243 178.883 165.397C178.422 165.502 177.988 165.672 177.582 165.894C176.891 164.532 174.985 164.941 173.878 165.548C171.501 166.849 170.149 169.148 169.454 171.627C168.547 173.731 167.988 176.033 168.386 178.317C168.577 179.411 168.979 180.473 169.558 181.429C170.008 182.172 170.663 183.24 171.625 183.375C172.388 183.484 173.042 182.961 173.338 182.312C173.625 182.896 174.065 183.393 174.667 183.639C175.792 184.101 176.463 183.215 176.814 182.285C177.075 183.33 177.974 184.208 179.189 183.998C180.52 183.769 180.97 182.499 181.144 181.324C181.329 181.811 181.67 182.195 182.287 182.241C183.659 182.342 184.406 180.776 184.828 179.756C185.058 179.206 185.48 177.45 185.592 176.877L191.135 177.142Z" fill="#FFA47A"/>
<path d="M184.741 167.941C183.448 169.839 182.141 171.755 181.254 173.873C180.83 174.883 180.735 175.872 180.673 176.953C180.6 178.21 180.557 179.468 180.537 180.727C180.533 181.036 181.026 181.049 181.03 180.738C181.049 179.558 181.089 178.38 181.153 177.201C181.216 176.082 181.289 175.057 181.727 174.012C182.596 171.934 183.893 170.055 185.161 168.195C185.338 167.935 184.918 167.685 184.741 167.941Z" fill="#B9643C"/>
<path d="M181.024 166.839C180.249 167.939 179.468 169.035 178.695 170.135C178.017 171.1 177.37 172.095 177.067 173.238C176.767 174.382 176.759 175.58 176.736 176.756C176.71 178.139 176.716 179.523 176.747 180.906C176.755 181.215 177.25 181.229 177.242 180.919C177.213 179.653 177.205 178.389 177.222 177.123C177.242 175.878 177.222 174.591 177.54 173.376C177.841 172.238 178.502 171.26 179.177 170.301C179.931 169.232 180.687 168.162 181.444 167.093C181.625 166.837 181.201 166.585 181.024 166.839Z" fill="#B9643C"/>
<path d="M177.372 166.463C177.535 166.197 177.115 165.943 176.95 166.211C175.586 168.445 174.253 170.825 173.395 173.298C172.484 175.92 173.275 178.509 173.34 181.183C173.348 181.492 173.843 181.506 173.835 181.194C173.772 178.574 172.975 176.008 173.868 173.437C174.71 171.002 176.025 168.663 177.372 166.463Z" fill="#B9643C"/>
<path d="M237.393 173.395C237.417 173.258 237.427 173.118 237.421 172.977C237.383 172.162 236.82 171.625 236.004 171.52C234.765 171.359 233.509 171.801 232.533 172.561C232.759 172.003 232.95 171.436 233.063 170.861C233.26 169.876 233.13 168.821 232.325 168.121C231.578 167.471 230.712 167.567 229.899 168.04C229.576 168.227 229.256 168.426 228.959 168.648C228.995 167.809 228.739 167.026 227.87 166.719C226.716 166.314 225.414 166.902 224.543 167.742C223.78 166.914 222.031 167.469 221.2 167.966C219.603 168.925 218.409 170.563 217.597 172.179C216.749 173.865 216.27 175.729 216.225 177.61C216.191 179 216.317 181.601 218.329 181.597C218.606 181.597 218.845 181.519 219.057 181.393C219.049 181.649 219.063 181.907 219.106 182.163C219.279 183.19 220.142 184.231 221.32 184.048C221.836 183.967 222.223 183.626 222.523 183.23C222.667 183.041 222.8 182.845 222.928 182.642C222.977 183.345 223.199 184.069 223.842 184.43C224.898 185.029 225.978 184.168 226.571 183.362C226.902 182.909 227.224 182.447 227.532 181.977C227.683 183.041 228.41 184.053 229.652 183.952C230.378 183.895 230.887 183.352 231.356 182.866C231.958 182.241 232.561 181.613 233.144 180.969C234.278 179.72 235.354 178.406 236.204 176.957C236.755 176.015 237.652 174.577 237.393 173.395Z" fill="#FFA47A"/>
<path d="M224.235 168.124C221.499 171.715 219.754 175.943 219.155 180.373C219.12 180.629 219.53 180.635 219.566 180.383C220.155 176.023 221.894 171.865 224.584 168.334C224.742 168.128 224.392 167.92 224.235 168.124Z" fill="#B9643C"/>
<path d="M228.527 168.766C225.4 172.603 223.29 177.167 222.409 181.987C222.364 182.237 222.754 182.356 222.799 182.102C223.677 177.31 225.769 172.79 228.876 168.976C229.039 168.776 228.688 168.567 228.527 168.766Z" fill="#B9643C"/>
<path d="M237.994 174.428C236.532 176.011 235.189 177.692 233.976 179.464C233.799 179.722 234.219 179.974 234.396 179.716C235.586 177.978 236.899 176.33 238.335 174.778C238.547 174.549 238.208 174.199 237.994 174.428Z" fill="#B9643C"/>
<path d="M232.677 171.304C230.487 174.285 228.744 177.551 227.487 181.009C227.383 181.301 227.858 181.439 227.962 181.147C229.203 177.726 230.93 174.505 233.099 171.556C233.285 171.304 232.863 171.052 232.677 171.304Z" fill="#B9643C"/>
<path d="M273.628 194.811C272.605 195.766 271.583 196.722 270.56 197.679C268.597 199.514 266.635 201.352 264.674 203.187C259.382 197.158 253.959 191.24 248.403 185.442C246.681 183.646 244.944 181.863 243.199 180.091C244.548 178.442 245.749 176.693 246.799 174.848C254.782 179.096 262.283 184.124 269.644 189.313C271.595 190.69 273.54 192.08 275.483 193.468C274.757 193.72 274.197 194.278 273.628 194.811Z" fill="#FFA47A"/>
<path d="M261.886 179.575C261.429 178.868 260.471 178.242 259.829 177.694C258.454 176.519 257.007 175.414 255.498 174.409C254.987 174.069 254.536 173.794 253.918 174.018C253.223 174.272 252.722 174.955 252.237 175.463C249.603 178.227 246.987 181.015 244.673 184.044C244.192 184.67 243.37 185.478 243.148 186.249C242.946 186.952 243.509 187.479 243.925 187.98C245.274 189.599 246.708 191.148 248.212 192.63C248.445 192.861 248.791 192.487 248.557 192.256C248.544 192.242 248.53 192.229 248.516 192.214C251.437 189.506 254.328 186.763 257.315 184.124C258.053 183.471 258.801 182.827 259.557 182.195C260.255 181.615 261.076 181.093 261.718 180.459C262.01 180.169 262.12 179.934 261.886 179.575Z" fill="white"/>
<path d="M299.126 211.399C295.87 199.688 274.878 184.521 263.789 177.373C260.666 180.702 256.85 183.457 253.396 186.423C251.164 188.339 248.915 190.233 246.661 192.126C246.041 192.647 245.431 193.218 244.811 193.785C248.993 200.716 259.944 217.958 267.755 224.763C271.279 227.83 275.122 231.304 280.376 232.106C285.385 232.87 291.85 231.183 295.905 226.344C299.959 221.507 300.367 215.862 299.126 211.399Z" fill="#B9D386"/>
<path d="M188.397 169.847C187.388 171.216 186.483 172.65 185.68 174.144C185.533 174.417 185.953 174.671 186.1 174.396C186.903 172.903 187.81 171.47 188.819 170.099C189.003 169.847 188.583 169.597 188.397 169.847Z" fill="#B9643C"/>
<path d="M206.34 169.618L190.97 169.255L191.078 164.927L206.446 165.29L206.34 169.618Z" fill="white"/>
<path d="M220.158 93.1163C220.077 92.8031 219.581 92.9348 219.661 93.2499C220.077 94.8789 220.66 97.1763 219.912 98.7805C219.775 99.0727 220.222 99.3305 220.36 99.0345C221.178 97.2794 220.619 94.9095 220.158 93.1163Z" fill="#3E4156"/>
<path d="M237.745 96.2594C235.15 93.6622 231.305 92.5508 227.678 93.3204C226.32 90.515 223.309 88.7065 220.119 88.7771C219.789 88.7848 219.787 89.289 220.119 89.2813C223.205 89.2126 226.06 90.9924 227.311 93.7367C227.356 93.8379 227.499 93.8761 227.601 93.8513C231.113 93.032 234.862 94.0976 237.38 96.6166C237.611 96.8476 237.976 96.4924 237.745 96.2594Z" fill="#3E4156"/>
<path d="M254.685 191.967C252.467 191.967 252.464 195.325 254.685 195.325C256.905 195.325 256.907 191.967 254.685 191.967Z" fill="#32303A"/>
<path d="M242.101 223.688C239.884 223.688 239.88 227.045 242.101 227.045C244.319 227.045 244.323 223.688 242.101 223.688Z" fill="#32303A"/>
<path d="M228.657 158.568C226.439 158.568 226.435 161.925 228.657 161.925C230.875 161.925 230.879 158.568 228.657 158.568Z" fill="#3E4156"/>
<path d="M297.923 204.14C295.591 202.085 293.22 200.078 290.804 198.122C282.197 191.159 273.041 184.852 263.448 179.243C263.162 179.077 263.423 178.641 263.708 178.809C265.123 179.636 266.53 180.478 267.928 181.336C272.242 174.249 277.213 167.561 282.774 161.356C282.872 161.501 282.97 161.646 283.066 161.795C277.559 167.95 272.64 174.583 268.363 181.605C269.521 182.319 270.675 183.045 271.822 183.78C281.147 189.781 289.999 196.478 298.288 203.781C298.535 203.998 298.168 204.356 297.923 204.14Z" fill="#32303A"/>
<path d="M274.272 227.612C265.816 219.563 258.321 210.574 251.987 200.847C250.199 198.099 248.507 195.294 246.905 192.439C246.744 192.154 246.299 192.408 246.458 192.695C252.124 202.792 258.978 212.248 266.866 220.817C269.131 223.277 271.481 225.659 273.907 227.967C274.144 228.195 274.511 227.839 274.272 227.612Z" fill="#32303A"/>
<path d="M238.498 141.829C237.74 140.487 236.891 139.198 235.968 137.956C235.86 137.813 235.621 137.777 235.521 137.956C234.264 140.223 230.659 140.97 228.25 141.201C226.863 141.335 225.455 141.293 224.08 141.06C222.77 140.84 221.177 140.542 220.395 139.381C220.244 139.158 219.946 139.266 219.913 139.507C219.669 141.304 219.18 143.042 218.468 144.715C218.415 144.837 218.47 144.933 218.56 144.978C218.539 145.093 218.59 145.209 218.741 145.234C219.62 145.378 220.411 145.695 221.112 146.237C221.577 146.596 221.991 147.007 222.496 147.316C223.528 147.944 224.78 148.234 225.97 148.427C228.374 148.817 230.871 148.664 233.206 147.971C234.343 147.635 235.446 147.173 236.469 146.583C237.426 146.029 238.571 145.318 239.258 144.453C239.872 143.686 238.887 142.521 238.498 141.829Z" fill="white"/>
<path d="M238.865 144.637C237.954 145.857 236.943 146.999 235.826 148.046C234.839 148.972 233.718 150.051 232.482 150.654C231.395 151.187 230.794 150.612 230.366 149.684C230.024 148.941 229.71 148.185 229.418 147.423C228.853 145.952 228.374 144.455 227.973 142.935C227.93 142.773 227.771 142.731 227.644 142.773C227.547 142.782 227.453 142.832 227.41 142.941C226.468 145.223 225.106 147.329 223.365 149.117C223.002 149.487 222.309 150.498 221.685 149.978C221.53 149.848 221.337 149.31 221.249 149.13C221.106 148.846 220.968 148.559 220.833 148.271C220.211 146.947 219.667 145.592 219.19 144.213C219.082 143.909 218.584 144.041 218.689 144.346C219.253 145.968 219.904 147.555 220.66 149.1C221.104 150.005 221.563 151.367 222.715 150.446C224.67 148.878 226.205 146.667 227.308 144.406C226.729 148.131 226.146 151.855 225.577 155.581C224.992 159.408 224.478 163.251 224.466 167.127C224.466 167.45 224.982 167.452 224.984 167.127C224.994 163.188 225.526 159.282 226.126 155.394C226.69 151.712 227.265 148.032 227.834 144.352C228.274 145.836 228.788 147.295 229.389 148.723C229.867 149.862 230.289 151.558 231.877 151.372C233.267 151.214 234.67 149.762 235.656 148.892C237.018 147.685 238.229 146.34 239.312 144.891C239.507 144.627 239.059 144.377 238.865 144.637Z" fill="#3E4156"/>
<path d="M225.689 197.607L178.74 196.339C178.455 196.331 178.271 196.102 178.383 195.899L178.518 194.841C178.585 194.723 178.736 194.648 178.903 194.652L225.852 195.92C226.139 195.928 226.323 196.155 226.21 196.36L226.074 197.418C226.007 197.536 225.854 197.61 225.689 197.607Z" fill="#C4A8A3"/>
<path d="M225.03 206.47L178.081 205.202C177.796 205.194 177.61 204.967 177.723 204.764L177.859 203.704C177.924 203.588 178.077 203.511 178.243 203.517L225.193 204.785C225.478 204.793 225.662 205.02 225.55 205.223L225.417 206.282C225.35 206.399 225.197 206.473 225.03 206.47Z" fill="#C4A8A3"/>
<path d="M223.843 238.841L176.893 237.573C176.608 237.567 176.422 237.338 176.536 237.136L176.671 236.078C176.736 235.959 176.889 235.885 177.056 235.891L224.005 237.159C224.29 237.164 224.477 237.394 224.363 237.596L224.227 238.654C224.16 238.772 224.009 238.847 223.843 238.841Z" fill="#C4A8A3"/>
<path d="M223.471 217.779L187.974 216.828C187.69 216.82 187.505 216.593 187.617 216.389L187.755 215.331C187.819 215.212 187.972 215.138 188.137 215.142L223.634 216.093C223.921 216.102 224.105 216.33 223.991 216.532L223.858 217.59C223.791 217.708 223.638 217.783 223.471 217.779Z" fill="#C4A8A3"/>
<path d="M223.076 226.642L187.58 225.693C187.293 225.683 187.109 225.456 187.223 225.254L187.358 224.196C187.423 224.077 187.578 224.003 187.743 224.006L223.237 224.958C223.524 224.965 223.71 225.192 223.595 225.395L223.461 226.455C223.394 226.571 223.241 226.646 223.076 226.642Z" fill="#C4A8A3"/>
<path d="M207.273 293.746H184L188.944 266.849H212.219L207.273 293.746Z" fill="#32303A"/>
<path d="M223.486 298.377L167.118 297.2C165.712 297.168 164.837 296.041 165.163 294.683L165.758 291.974C166.083 290.616 167.489 289.541 168.894 289.573L225.263 290.749C226.668 290.78 227.544 291.909 227.218 293.266L226.625 295.976C226.297 297.334 224.892 298.407 223.486 298.377Z" fill="#32303A"/>
<path d="M183.776 215.869C183.652 216.706 182.875 217.37 182.035 217.355C181.197 217.34 180.616 216.648 180.735 215.812C180.859 214.976 181.636 214.309 182.476 214.326C183.314 214.342 183.897 215.033 183.776 215.869Z" fill="#C4A8A3"/>
<path d="M183.776 224.893C183.652 225.729 182.875 226.396 182.035 226.38C181.197 226.363 180.616 225.672 180.735 224.835C180.859 224.001 181.636 223.334 182.476 223.35C183.314 223.365 183.897 224.056 183.776 224.893Z" fill="#C4A8A3"/>
<mask id="mask6_2171_115540" style="mask-type:luminance" maskUnits="userSpaceOnUse" x="294" y="312" width="2" height="13">
<path d="M294.447 312.4H295.955V324.466H294.447V312.4Z" fill="white"/>
</mask>
<g mask="url(#mask6_2171_115540)">
<path d="M295.503 323.933L295.46 313.064C295.458 312.893 295.299 312.763 295.126 312.791C294.987 312.814 294.887 312.931 294.887 313.066L294.932 323.936C294.934 324.12 295.11 324.252 295.291 324.2C295.293 324.2 295.297 324.2 295.299 324.198C295.421 324.164 295.503 324.055 295.503 323.933Z" fill="#32303A"/>
</g>
</g>
<defs>
<clipPath id="clip0_2171_115540">
<rect width="407" height="396" fill="white"/>
</clipPath>
</defs>
</svg>
