<svg width="22" height="22" viewBox="0 0 22 22" fill="none" xmlns="http://www.w3.org/2000/svg">
<path d="M21.5448 12.1187C21.3947 12.0814 21.2446 12.1187 21.1319 12.2306C21.0193 12.3051 20.9443 12.4543 20.9068 12.6034C20.1185 17.4136 15.9897 20.8814 11.0727 20.8814C5.59261 20.8814 1.12606 16.4441 1.12606 11C1.12606 5.55601 5.59261 1.11867 11.0727 1.11867C14.676 1.11867 18.0917 3.13221 19.8182 6.26441H15.9897C15.6895 6.26441 15.4267 6.52544 15.4267 6.8238C15.4267 7.12205 15.6895 7.38308 15.9897 7.38308H20.0809C20.7566 7.38308 21.3196 6.8238 21.3196 6.15262V2.12544C21.3196 1.82719 21.0569 1.56616 20.7566 1.56616C20.4563 1.56616 20.1936 1.82719 20.1936 2.12544V4.81015C18.1292 1.82719 14.676 0 11.0727 0C4.95458 0 0 4.92205 0 11C0 17.0781 4.95458 22 11.0727 22C16.5152 22 21.1319 18.1221 21.9953 12.7526C22.0327 12.4543 21.8451 12.1932 21.5448 12.1187Z" fill="#B9D386"/>
<circle cx="11" cy="11" r="1" fill="#B9D386"/>
<path d="M6.99351 7.99548C6.90256 7.9328 6.77802 7.95571 6.71533 8.04665C6.65265 8.1376 6.67555 8.26214 6.7665 8.32483L6.99351 7.99548ZM11.1135 10.8353L6.99351 7.99548L6.7665 8.32483L10.8865 11.1647L11.1135 10.8353Z" fill="#B9D386"/>
</svg>
