<svg width="36" height="36" viewBox="0 0 36 36" fill="none" xmlns="http://www.w3.org/2000/svg">
<path d="M35.2551 19.3559C35.0095 19.2964 34.7639 19.3559 34.5795 19.5346C34.3952 19.6537 34.2724 19.8919 34.2111 20.1301C32.9212 27.813 26.1649 33.3517 18.1189 33.3517C9.15154 33.3517 1.84264 26.2644 1.84264 17.5691C1.84264 8.87403 9.15154 1.78673 18.1189 1.78673C24.0153 1.78673 29.6046 5.00274 32.4298 10.0055H26.1649C25.6736 10.0055 25.2437 10.4224 25.2437 10.8989C25.2437 11.3753 25.6736 11.7922 26.1649 11.7922H32.8597C33.9653 11.7922 34.8867 10.8989 34.8867 9.82694V3.39474C34.8867 2.91837 34.4567 2.50146 33.9653 2.50146C33.474 2.50146 33.044 2.91837 33.044 3.39474V7.68275C29.6659 2.91837 24.0153 0 18.1189 0C8.10749 0 0 7.86148 0 17.5691C0 27.277 8.10749 35.1383 18.1189 35.1383C27.0248 35.1383 34.5795 28.9445 35.9922 20.3684C36.0536 19.8919 35.7466 19.475 35.2551 19.3559Z" fill="#D892C0"/>
<ellipse cx="17.9996" cy="17.5694" rx="1.63636" ry="1.5972" fill="#D892C0"/>
<path d="M11.5466 12.6249C11.3175 12.4707 11.0026 12.5286 10.8433 12.7542C10.684 12.9798 10.7406 13.2876 10.9698 13.4417L11.5466 12.6249ZM18.2884 17.1607L11.5466 12.6249L10.9698 13.4417L17.7116 17.9775L18.2884 17.1607Z" fill="#D892C0"/>
</svg>
