<svg width="82" height="83" viewBox="0 0 82 83" fill="none" xmlns="http://www.w3.org/2000/svg">
<g clip-path="url(#clip0_1285_33782)">
<path d="M60.8112 38.6521C61.1193 38.3151 59.8436 50.316 52.2984 56.4377C44.7537 62.5598 36.9551 64.0368 36.9551 64.0368C36.9551 64.0368 41.9998 56.9104 39.6022 51.1165C39.6022 51.1073 55.1247 44.8131 60.8112 38.6521Z" fill="#B9D386"/>
<path d="M46.266 22.2266C46.266 22.2266 29.8684 18.1346 18.6562 42.9069C18.6562 42.9069 28.4586 38.6224 31.5751 42.1776C31.5751 42.1776 37.633 32.287 40.7246 28.6125C43.8158 24.938 46.266 22.2266 46.266 22.2266Z" fill="#B9D386"/>
<path d="M29.8428 45.2009C29.8428 45.2009 47.8926 4.37213 78.0265 9.71213C78.0265 9.71213 78.7066 37.2599 36.701 53.0318L29.8428 45.2009Z" fill="#DCDCDC"/>
<path d="M31.4049 41.9919L39.879 51.7886C39.879 51.7886 37.1591 53.6966 36.5291 52.9353C36.0894 52.4102 29.6709 45.102 29.6709 45.102L31.4049 41.9919Z" fill="#6C364A"/>
<path d="M66.4961 9.85665C66.4961 9.85665 72.9759 8.3036 78.3742 9.69133C78.3742 9.69133 77.7849 14.9901 75.716 20.0707L66.4961 9.85665Z" fill="#B9D386"/>
<path d="M30.1902 45.6252C30.1902 45.6252 5.8872 60.6721 -0.0302734 78.6595C-0.0302734 78.6595 24.3744 71.3998 36.2801 52.5819L30.1902 45.6252Z" fill="#F26522"/>
<path d="M31.0465 46.6046C31.0465 46.6046 23.7216 50.8731 12.5459 67.381C12.5459 67.381 27.7513 61.2433 35.3779 51.5544L31.0465 46.6046Z" fill="#FCB22C"/>
<path d="M31.4863 47.139C31.4863 47.139 27.2095 51.3895 27.3614 54.0889C27.3614 54.0889 31.7584 54.3619 34.9267 51.0293L31.4863 47.139Z" fill="#FEEB81"/>
<path d="M60.2108 30.9545C60.1056 30.9545 60.0004 30.9517 59.8956 30.9465C59.7904 30.9413 59.6857 30.9333 59.5809 30.9228C59.4761 30.9124 59.3717 30.8996 59.2677 30.884C59.1637 30.8684 59.0601 30.85 58.9568 30.8292C58.8536 30.8084 58.7512 30.7852 58.6492 30.7595C58.5472 30.7335 58.4455 30.7051 58.3451 30.6743C58.2442 30.6435 58.1446 30.6098 58.0453 30.5742C57.9465 30.5382 57.8484 30.4998 57.7511 30.4593C57.6538 30.4185 57.5577 30.3753 57.4628 30.3296C57.3675 30.2844 57.2738 30.2364 57.1809 30.1864C57.088 30.1359 56.9966 30.0835 56.9064 30.0286C56.8163 29.9742 56.7273 29.917 56.6399 29.8581C56.5525 29.7989 56.4663 29.7376 56.3821 29.674C56.2975 29.6108 56.2144 29.5451 56.1333 29.4779C56.0519 29.4102 55.9724 29.3406 55.8945 29.2693C55.8166 29.1977 55.7403 29.1244 55.6659 29.0492C55.5916 28.9739 55.5188 28.8967 55.4484 28.8178C55.3776 28.739 55.3088 28.6585 55.2424 28.5761C55.1756 28.4936 55.1107 28.41 55.0482 28.3243C54.9854 28.2386 54.9249 28.1518 54.8663 28.0633C54.8082 27.9749 54.7517 27.8848 54.6979 27.7935C54.6437 27.7023 54.5919 27.6098 54.5421 27.5157C54.4926 27.4217 54.4452 27.3268 54.4005 27.2304C54.3554 27.1343 54.3127 27.037 54.2724 26.9386C54.2324 26.8401 54.1945 26.7408 54.1589 26.6408C54.1237 26.5407 54.0905 26.4394 54.06 26.3378C54.0296 26.2357 54.0015 26.1332 53.9758 26.0299C53.9505 25.9267 53.9271 25.8226 53.907 25.7185C53.8864 25.6141 53.8682 25.5092 53.8528 25.4039C53.8374 25.2987 53.8247 25.193 53.814 25.0869C53.8038 24.9808 53.7963 24.8748 53.7911 24.7683C53.786 24.6622 53.7832 24.5558 53.7832 24.4493C53.7832 24.3428 53.786 24.2363 53.7911 24.1303C53.7963 24.0238 53.8038 23.9177 53.814 23.8117C53.8247 23.7056 53.8374 23.5999 53.8528 23.4946C53.8682 23.3894 53.8864 23.2845 53.907 23.18C53.9271 23.076 53.9505 22.9719 53.9758 22.8686C54.0015 22.7653 54.0296 22.6629 54.06 22.5608C54.0905 22.4591 54.1237 22.3579 54.1589 22.2578C54.1945 22.1577 54.2324 22.0581 54.2724 21.96C54.3127 21.8615 54.3554 21.7643 54.4005 21.6682C54.4452 21.5717 54.4926 21.4769 54.5421 21.3828C54.5919 21.2887 54.6437 21.1963 54.6979 21.105C54.7517 21.0138 54.8082 20.9237 54.8663 20.8352C54.9249 20.7468 54.9854 20.6599 55.0482 20.5743C55.1107 20.4886 55.1756 20.405 55.2424 20.3225C55.3088 20.24 55.3776 20.1596 55.4484 20.0807C55.5188 20.0019 55.5916 19.9246 55.6659 19.8494C55.7403 19.7741 55.8166 19.7009 55.8945 19.6292C55.9724 19.558 56.0519 19.4883 56.1333 19.4207C56.2144 19.3534 56.2975 19.2878 56.3821 19.2246C56.4663 19.1609 56.5525 19.0997 56.6399 19.0404C56.7273 18.9816 56.8163 18.9244 56.9064 18.8699C56.9966 18.8151 57.088 18.7626 57.1809 18.7122C57.2738 18.6622 57.3675 18.6141 57.4628 18.5689C57.5577 18.5233 57.6538 18.4801 57.7511 18.4392C57.8484 18.3988 57.9465 18.3604 58.0453 18.3243C58.1446 18.2887 58.2442 18.2551 58.3451 18.2243C58.4455 18.1935 58.5472 18.165 58.6492 18.139C58.7512 18.1134 58.8536 18.0902 58.9568 18.0694C59.0601 18.0486 59.1637 18.0301 59.2677 18.0145C59.3717 17.9989 59.4761 17.9861 59.5809 17.9757C59.6857 17.9653 59.7904 17.9573 59.8956 17.9521C60.0004 17.9469 60.1056 17.9441 60.2108 17.9441C60.316 17.9441 60.4212 17.9469 60.5264 17.9521C60.6312 17.9573 60.736 17.9653 60.8408 17.9757C60.9455 17.9861 61.0499 17.9989 61.1539 18.0145C61.258 18.0301 61.3616 18.0486 61.4648 18.0694C61.568 18.0902 61.6704 18.1134 61.7724 18.139C61.8745 18.165 61.9761 18.1935 62.0765 18.2243C62.1774 18.2551 62.277 18.2887 62.3763 18.3243C62.4751 18.3604 62.5732 18.3988 62.6705 18.4392C62.7678 18.4801 62.8639 18.5233 62.9588 18.5689C63.0541 18.6141 63.1478 18.6622 63.2407 18.7122C63.3337 18.7626 63.425 18.8151 63.5152 18.8699C63.6053 18.9244 63.6943 18.9812 63.7817 19.0404C63.8691 19.0997 63.9553 19.1609 64.0395 19.2246C64.1242 19.2878 64.2072 19.3534 64.2883 19.4207C64.3697 19.4883 64.4492 19.558 64.5271 19.6292C64.6054 19.7009 64.6813 19.7741 64.7557 19.8494C64.83 19.9246 64.9028 20.0019 64.9732 20.0807C65.044 20.1596 65.1128 20.24 65.1792 20.3225C65.246 20.405 65.3109 20.4886 65.3734 20.5743C65.4363 20.6599 65.4968 20.7468 65.5553 20.8352C65.6134 20.9237 65.67 21.0138 65.7237 21.105C65.7779 21.1963 65.8297 21.2887 65.8795 21.3828C65.929 21.4769 65.9764 21.5717 66.0211 21.6682C66.0662 21.7643 66.1089 21.8615 66.1492 21.96C66.1892 22.0581 66.2271 22.1577 66.2627 22.2578C66.2979 22.3579 66.3311 22.4591 66.3616 22.5608C66.392 22.6629 66.4201 22.7653 66.4458 22.8686C66.4711 22.9719 66.4945 23.076 66.515 23.18C66.5352 23.2845 66.5534 23.3894 66.5688 23.4946C66.5842 23.5999 66.5973 23.7056 66.6076 23.8117C66.6178 23.9177 66.6254 24.0238 66.6305 24.1303C66.6356 24.2363 66.6384 24.3428 66.6384 24.4493C66.6384 24.5558 66.6356 24.6622 66.6305 24.7683C66.6254 24.8748 66.6178 24.9808 66.6076 25.0869C66.5973 25.193 66.5842 25.2987 66.5688 25.4039C66.5534 25.5092 66.5352 25.6141 66.515 25.7185C66.4945 25.8226 66.4711 25.9267 66.4458 26.0299C66.4201 26.1332 66.392 26.2357 66.3616 26.3378C66.3311 26.4394 66.2979 26.5407 66.2627 26.6408C66.2271 26.7408 66.1892 26.8401 66.1492 26.9386C66.1089 27.037 66.0662 27.1343 66.0211 27.2304C65.9764 27.3268 65.929 27.4217 65.8795 27.5157C65.8297 27.6098 65.7779 27.7023 65.7237 27.7935C65.67 27.8848 65.6134 27.9749 65.5553 28.0633C65.4968 28.1518 65.4363 28.2386 65.3734 28.3243C65.3109 28.41 65.246 28.4936 65.1792 28.5761C65.1128 28.6585 65.044 28.739 64.9732 28.8178C64.9028 28.8967 64.83 28.9739 64.7557 29.0492C64.6813 29.1244 64.6054 29.1977 64.5271 29.2693C64.4492 29.3406 64.3697 29.4102 64.2883 29.4779C64.2072 29.5451 64.1242 29.6108 64.0395 29.674C63.9553 29.7376 63.8691 29.7989 63.7817 29.8581C63.6943 29.917 63.6053 29.9742 63.5152 30.0286C63.425 30.0835 63.3337 30.1359 63.2407 30.1864C63.1478 30.2364 63.0541 30.2844 62.9588 30.3296C62.8639 30.3753 62.7678 30.4185 62.6705 30.4593C62.5732 30.4998 62.4751 30.5382 62.3763 30.5742C62.277 30.6098 62.1774 30.6435 62.0765 30.6743C61.9761 30.7051 61.8745 30.7335 61.7724 30.7595C61.6704 30.7852 61.568 30.8084 61.4648 30.8292C61.3616 30.85 61.258 30.8684 61.1539 30.884C61.0499 30.8996 60.9455 30.9124 60.8408 30.9228C60.736 30.9333 60.6312 30.9413 60.5264 30.9465C60.4212 30.9517 60.316 30.9545 60.2108 30.9545Z" fill="#6C364A"/>
<path d="M63.567 28.2739C63.4516 28.3776 63.331 28.4748 63.2056 28.5661C63.0802 28.6573 62.9505 28.7418 62.8165 28.8195C62.6824 28.8971 62.5444 28.968 62.4028 29.0316C62.2617 29.0956 62.1169 29.1517 61.9694 29.2009C61.8219 29.2501 61.672 29.2914 61.5198 29.3254C61.3676 29.359 61.2137 29.3854 61.0583 29.4039C60.9029 29.4223 60.7471 29.4327 60.5897 29.4355C60.4327 29.4379 60.2757 29.4331 60.1187 29.4199C59.9613 29.4071 59.8047 29.3862 59.6489 29.3578C59.4931 29.329 59.3389 29.293 59.1859 29.2489C59.0328 29.2053 58.8822 29.1541 58.7335 29.0952C58.5848 29.0364 58.4393 28.9708 58.2965 28.8975C58.1534 28.8247 58.0142 28.745 57.8785 28.6581C57.7429 28.5717 57.6112 28.4784 57.4843 28.3792C57.3569 28.2799 57.2343 28.1746 57.1169 28.0633C56.999 27.9521 56.8871 27.8356 56.7804 27.7135C56.6736 27.5918 56.5724 27.4649 56.4775 27.3333C56.3825 27.202 56.294 27.0663 56.2117 26.9266C56.1299 26.7865 56.0543 26.6432 55.9855 26.4967C55.9167 26.3498 55.8554 26.2005 55.8008 26.048C55.7463 25.8959 55.6992 25.7414 55.6597 25.5849C55.6197 25.4288 55.5877 25.2711 55.5632 25.1122C55.5383 24.9532 55.5213 24.7935 55.5122 24.6334C55.5031 24.4737 55.5015 24.314 55.5074 24.1543C55.5137 23.995 55.5276 23.8365 55.5489 23.6792C55.5707 23.5215 55.5996 23.3662 55.6363 23.2121C55.6731 23.0584 55.717 22.9071 55.7688 22.7582C55.8202 22.6093 55.8787 22.4636 55.9448 22.3211C56.0104 22.179 56.0832 22.0405 56.1627 21.906C56.2422 21.7715 56.3284 21.6414 56.4205 21.5161C56.513 21.3904 56.6115 21.2704 56.7159 21.1555C56.8203 21.0402 56.9302 20.9309 57.0461 20.8273C57.1616 20.724 57.2818 20.6263 57.4071 20.5355C57.5325 20.4442 57.6622 20.3597 57.7967 20.2817C57.9307 20.204 58.0683 20.1332 58.2099 20.0696C58.3515 20.0059 58.4958 19.9495 58.6437 19.9002C58.7912 19.8514 58.9411 19.8098 59.0933 19.7762C59.2452 19.7421 59.399 19.7161 59.5544 19.6977C59.7098 19.6793 59.866 19.6689 60.023 19.6661C60.18 19.6633 60.337 19.6685 60.4944 19.6813C60.6514 19.6945 60.808 19.7153 60.9638 19.7437C61.1196 19.7722 61.2738 19.8086 61.4269 19.8522C61.5799 19.8962 61.7306 19.9475 61.8793 20.0059C62.028 20.0648 62.1739 20.1308 62.3166 20.2036C62.4594 20.2765 62.5986 20.3565 62.7342 20.443C62.8703 20.5299 63.0015 20.6227 63.1289 20.722C63.2562 20.8217 63.3784 20.9269 63.4962 21.0382C63.6137 21.1491 63.726 21.266 63.8328 21.3876C63.9395 21.5097 64.0404 21.6362 64.1353 21.7679C64.2302 21.8996 64.3188 22.0349 64.401 22.175C64.4833 22.3147 64.5588 22.458 64.6272 22.6049C64.696 22.7514 64.7577 22.9011 64.8119 23.0532C64.8665 23.2057 64.9135 23.3598 64.9535 23.5163C64.993 23.6728 65.0254 23.8305 65.05 23.9894C65.0745 24.1483 65.0915 24.3076 65.1006 24.4677C65.1101 24.6278 65.1117 24.7875 65.1053 24.9468C65.0994 25.1066 65.0856 25.2647 65.0638 25.4224C65.0424 25.5797 65.0132 25.7354 64.9764 25.8891C64.94 26.0432 64.8957 26.1945 64.8443 26.3434C64.7929 26.4923 64.734 26.6376 64.6684 26.7801C64.6023 26.9226 64.5299 27.0611 64.4501 27.1956C64.3706 27.3301 64.2848 27.4601 64.1922 27.5854C64.0997 27.7107 64.0012 27.8308 63.8968 27.9461C63.7924 28.0609 63.6825 28.1702 63.567 28.2739Z" fill="#7FD0DB"/>
</g>
<defs>
<clipPath id="clip0_1285_33782">
<rect width="82" height="83" fill="white"/>
</clipPath>
</defs>
</svg>
