<svg width="58" height="60" viewBox="0 0 58 60" fill="none" xmlns="http://www.w3.org/2000/svg">
<g clip-path="url(#clip0_1494_40169)">
<path d="M29.1686 37.8706C33.1801 37.8706 36.4326 33.8465 36.4326 28.8826C36.4326 23.9184 35.3649 19.8942 29.1686 19.8942C22.9725 19.8942 21.9043 23.9184 21.9043 28.8826C21.9043 33.8465 25.1567 37.8706 29.1686 37.8706Z" fill="#B9D386"/>
<mask id="mask0_1494_40169" style="mask-type:luminance" maskUnits="userSpaceOnUse" x="15" y="51" width="1" height="1">
<path d="M15.4473 51.374H15.4679V51.6659H15.4473V51.374Z" fill="white"/>
</mask>
<g mask="url(#mask0_1494_40169)">
<path d="M15.4487 51.5968C15.4462 51.5105 15.4475 51.2909 15.4487 51.5968V51.5968Z" fill="#B9D386"/>
</g>
<mask id="mask1_1494_40169" style="mask-type:luminance" maskUnits="userSpaceOnUse" x="15" y="38" width="28" height="19">
<path d="M15.4473 38.5476H42.8899V56.6652H15.4473V38.5476Z" fill="white"/>
</mask>
<g mask="url(#mask1_1494_40169)">
<path d="M42.8739 51.233C42.7394 42.5855 41.6309 40.1219 33.1471 38.5613C33.1471 38.5613 31.953 40.1113 29.1697 40.1113C26.386 40.1113 25.1917 38.5613 25.1917 38.5613C16.8008 40.1039 15.6246 42.5316 15.4699 50.9515C15.4573 51.639 15.4515 51.6751 15.4492 51.5954C15.4498 51.7449 15.4503 52.0216 15.4503 52.5038C15.4503 52.5038 17.4701 56.6518 29.1697 56.6518C40.8693 56.6518 42.8887 52.5038 42.8887 52.5038C42.8887 52.1941 42.889 51.9786 42.8893 51.832C42.8871 51.8812 42.8826 51.7856 42.8739 51.2325V51.233Z" fill="#B9D386"/>
</g>
</g>
<defs>
<clipPath id="clip0_1494_40169">
<rect width="58" height="59.0303" fill="white" transform="translate(0 0.724487)"/>
</clipPath>
</defs>
</svg>
