<svg width="304" height="128" viewBox="0 0 304 128" fill="none" xmlns="http://www.w3.org/2000/svg">
<path d="M267.939 94.3051C268.525 94.8909 269.475 94.8909 270.061 94.3051L279.607 84.7592C280.192 84.1734 280.192 83.2236 279.607 82.6378C279.021 82.0521 278.071 82.0521 277.485 82.6378L269 91.1231L260.515 82.6378C259.929 82.0521 258.979 82.0521 258.393 82.6378C257.808 83.2236 257.808 84.1734 258.393 84.7592L267.939 94.3051ZM267.5 91V93.2444H270.5V91H267.5Z" fill="#7E9E62"/>
<circle cx="226.5" cy="51.5" r="39.5" fill="#B9D99E"/>
<mask id="mask0_2328_39668" style="mask-type:luminance" maskUnits="userSpaceOnUse" x="207" y="66" width="39" height="25">
<path d="M207 66H246V91H207V66Z" fill="white"/>
</mask>
<g mask="url(#mask0_2328_39668)">
<path d="M245.976 83.5097C245.785 71.5887 244.209 68.1931 232.153 66.0415C232.153 66.0415 230.456 68.1784 226.501 68.1784C222.545 68.1784 220.847 66.0415 220.847 66.0415C208.923 68.1682 207.251 71.5145 207.031 83.1214C207.013 84.0691 207.005 84.1193 207.002 84.0092C207.002 84.2151 207.004 84.5964 207.004 85.2615C207.004 85.2615 209.874 90.9796 226.501 90.9796C243.127 90.9796 245.997 85.2615 245.997 85.2615C245.997 84.8342 245.998 84.5373 245.998 84.335C245.995 84.4031 245.988 84.2714 245.976 83.5088V83.5097Z" fill="#9ABF7A"/>
</g>
<path d="M226.5 64.5991C232.299 64.5991 237 58.6445 237 51.2998C237 43.9546 235.456 38 226.5 38C217.544 38 216 43.9546 216 51.2998C216 58.6445 220.701 64.5991 226.5 64.5991Z" fill="#9ABF7A"/>
<mask id="mask1_2328_39668" style="mask-type:luminance" maskUnits="userSpaceOnUse" x="207" y="66" width="39" height="25">
<path d="M207 66H246V91H207V66Z" fill="white"/>
</mask>
<g mask="url(#mask1_2328_39668)">
<path d="M245.976 83.5097C245.785 71.5887 244.209 68.1931 232.153 66.0415C232.153 66.0415 230.456 68.1784 226.501 68.1784C222.545 68.1784 220.847 66.0415 220.847 66.0415C208.923 68.1682 207.251 71.5145 207.031 83.1214C207.013 84.0691 207.005 84.1193 207.002 84.0092C207.002 84.2151 207.004 84.5964 207.004 85.2615C207.004 85.2615 209.874 90.9796 226.501 90.9796C243.127 90.9796 245.997 85.2615 245.997 85.2615C245.997 84.8342 245.998 84.5373 245.998 84.335C245.995 84.4031 245.988 84.2714 245.976 83.5088V83.5097Z" fill="#9ABF7A"/>
</g>
<path d="M226.5 64.5991C232.299 64.5991 237 58.6445 237 51.2998C237 43.9546 235.456 38 226.5 38C217.544 38 216 43.9546 216 51.2998C216 58.6445 220.701 64.5991 226.5 64.5991Z" fill="#9ABF7A"/>
</svg>
