<svg width="31" height="32" viewBox="0 0 31 32" fill="none" xmlns="http://www.w3.org/2000/svg">
<path d="M24.6641 3.58246H26.3541V4.43248H24.6641V3.58246Z" fill="#66757F"/>
<mask id="mask0_1494_40195" style="mask-type:luminance" maskUnits="userSpaceOnUse" x="1" y="10" width="29" height="21">
<path d="M1.95898 10.375H29.0553V30.8176H1.95898V10.375Z" fill="white"/>
</mask>
<g mask="url(#mask0_1494_40195)">
<path d="M1.95898 10.383V27.3836C1.95898 29.2614 3.4755 30.7839 5.34602 30.7839H25.6681C27.5386 30.7839 29.0551 29.2614 29.0551 27.3836V10.383H1.95898Z" fill="#E2EAEF"/>
</g>
<mask id="mask1_1494_40195" style="mask-type:luminance" maskUnits="userSpaceOnUse" x="1" y="3" width="29" height="9">
<path d="M1.95898 3.57361H29.0553V11.2588H1.95898V3.57361Z" fill="white"/>
</mask>
<g mask="url(#mask1_1494_40195)">
<path d="M25.6681 3.58258H5.34602C3.4755 3.58258 1.95898 5.10506 1.95898 6.98268V11.233H29.0551V6.98268C29.0551 5.10506 27.5386 3.58258 25.6681 3.58258Z" fill="#B9D386"/>
</g>
<path d="M7.74811 7.60397C7.15356 7.60397 6.67188 7.03779 6.67188 6.33832C6.67188 5.63959 7.15356 5.07251 7.74811 5.07251C8.34162 5.07251 8.82346 5.63959 8.82346 6.33832C8.82346 7.03704 8.34162 7.60397 7.74811 7.60397ZM12.8287 7.60397C12.2341 7.60397 11.7524 7.03779 11.7524 6.33832C11.7524 5.63959 12.2341 5.07251 12.8287 5.07251C13.4222 5.07251 13.904 5.63959 13.904 6.33832C13.904 7.03704 13.4222 7.60397 12.8287 7.60397ZM17.9092 7.60397C17.3147 7.60397 16.833 7.03779 16.833 6.33832C16.833 5.63959 17.3147 5.07251 17.9092 5.07251C18.5027 5.07251 18.9855 5.63959 18.9855 6.33832C18.9846 7.03704 18.5027 7.60397 17.9092 7.60397ZM22.9898 7.60397C22.3952 7.60397 21.9135 7.03779 21.9135 6.33832C21.9135 5.63959 22.3952 5.07251 22.9898 5.07251C23.5833 5.07251 24.066 5.63959 24.066 6.33832C24.0651 7.03704 23.5833 7.60397 22.9898 7.60397Z" fill="#292F33"/>
<path d="M23.3948 0.334412C22.3135 0.334412 21.3768 1.01617 20.8596 2.00909C20.3464 1.03749 19.4057 0.334412 18.3142 0.334412C17.2329 0.334412 16.2963 1.01617 15.779 2.00909C15.2658 1.03749 14.3252 0.334412 13.2337 0.334412C12.1523 0.334412 11.2157 1.01617 10.6985 2.00909C10.1852 1.03749 9.2446 0.334412 8.15311 0.334412C6.51536 0.334412 5.18945 1.88061 5.18945 3.73887C5.18945 5.31478 6.07433 6.6043 7.36466 7.07607C8.00735 7.30993 8.40113 6.69617 8.34611 6.20398C8.29962 5.79601 8.02948 5.52988 7.72883 5.33865C7.31816 5.07762 6.88207 4.48172 6.88207 3.74307C6.88207 2.80463 7.45032 1.96226 8.15221 1.96226C8.85411 1.96226 9.42235 2.73153 9.42235 3.58156H10.2827C10.2802 3.63424 10.2691 3.68453 10.2691 3.73796C10.2691 5.31403 11.154 6.60355 12.4445 7.07532C13.0872 7.30903 13.4809 6.69527 13.4258 6.20308C13.3793 5.79601 13.1091 5.52988 12.8085 5.33865C12.3978 5.07762 11.9617 4.48172 11.9617 3.74307C11.9617 2.80463 12.53 1.96226 13.2319 1.96226C13.9339 1.96226 14.5038 2.73243 14.5038 3.58246H15.364C15.3615 3.63515 15.3506 3.68528 15.3506 3.73887C15.3506 5.31478 16.2354 6.6043 17.5258 7.07607C18.1685 7.30993 18.5622 6.69617 18.5072 6.20398C18.4607 5.79676 18.1906 5.53078 17.8899 5.33955C17.4793 5.07852 17.0432 4.48262 17.0432 3.74397C17.0432 2.80553 17.6114 1.96316 18.3133 1.96316C19.0152 1.96316 19.5844 2.73243 19.5844 3.58246H20.4446C20.442 3.63515 20.4311 3.68528 20.4311 3.73887C20.4311 5.31478 21.316 6.6043 22.6063 7.07607C23.249 7.30993 23.6428 6.69617 23.5878 6.20398C23.5413 5.79676 23.2711 5.53078 22.9705 5.33955C22.5598 5.07852 22.1237 4.48262 22.1237 3.74397C22.1237 2.80553 22.692 1.96316 23.3939 1.96316C24.0958 1.96316 24.6649 2.73243 24.6649 3.58246H26.355C26.3372 1.88241 25.0206 0.334412 23.3948 0.334412Z" fill="#66757F"/>
<path d="M9.5795 12.9329H12.9665V16.333H9.5795V12.9329ZM13.8133 12.9329H17.2003V16.333H13.8133V12.9329ZM18.0471 12.9329H21.434V16.333H18.0471V12.9329ZM22.2807 12.9329H25.6678V16.333H22.2807V12.9329ZM5.3457 17.183H8.73274V20.5833H5.3457V17.183ZM9.5795 17.183H12.9665V20.5833H9.5795V17.183ZM13.8133 17.183H17.2003V20.5833H13.8133V17.183ZM18.0471 17.183H21.434V20.5833H18.0471V17.183ZM22.2807 17.183H25.6678V20.5833H22.2807V17.183ZM5.3457 21.4333H8.73274V24.8334H5.3457V21.4333ZM9.5795 21.4333H12.9665V24.8334H9.5795V21.4333ZM13.8133 21.4333H17.2003V24.8334H13.8133V21.4333ZM18.0471 21.4333H21.434V24.8334H18.0471V21.4333ZM22.2807 21.4333H25.6678V24.8334H22.2807V21.4333ZM5.3457 25.6835H8.73274V29.0836H5.3457V25.6835ZM9.5795 25.6835H12.9665V29.0836H9.5795V25.6835ZM13.8133 25.6835H17.2003V29.0836H13.8133V25.6835Z" fill="white"/>
</svg>
