<svg width="1508" height="459" viewBox="0 0 1508 459" fill="none" xmlns="http://www.w3.org/2000/svg">
<rect y="38" width="1494" height="347" rx="50" fill="url(#paint0_linear_3173_79779)"/>
<g clip-path="url(#clip0_3173_79779)">
<mask id="mask0_3173_79779" style="mask-type:luminance" maskUnits="userSpaceOnUse" x="1068" y="2" width="439" height="440">
<path d="M1068 2.33971H1506.91V441.433H1068V2.33971Z" fill="white"/>
</mask>
<g mask="url(#mask0_3173_79779)">
<path d="M1506.4 331.119C1485.82 286.995 1462.73 245.338 1442.15 201.213C1430.47 176.165 1421.32 148.646 1409.63 123.598C1397.19 96.9089 1368.51 30.994 1356.07 4.30976C1355.37 2.82004 1353.83 2.52122 1352.46 3.01705C1260.54 36.0055 1180.17 55.5533 1073.98 85.301C1072.14 85.8168 1067.99 93.8077 1068.55 95.4811C1070.23 100.504 1142.03 310.772 1171.64 394.048C1175.48 404.83 1179.46 415.557 1183.64 426.2C1185.36 430.589 1186.87 437.568 1191.45 439.937C1197.14 442.888 1206.2 438.536 1211.72 437.146C1222.31 434.481 1232.87 431.716 1243.4 428.852C1284.97 417.554 1326.13 404.691 1366.82 390.347C1413.64 373.836 1459.77 355.278 1505.16 334.884C1506.5 334.285 1507.01 332.436 1506.4 331.119Z" fill="#FFE5DE"/>
<path d="M1221.45 83.1555C1220.82 82.2299 1219.95 81.521 1219.11 80.7372L1217.95 79.5614C1217.55 79.1278 1217.15 78.5023 1216.68 78.2271C1215.29 77.5017 1215.26 79.6114 1215.18 80.462C1215.09 81.5127 1214.95 82.5718 1214.95 83.6558C1214.92 84.4981 1214.68 86.1659 1215.59 86.6078C1216.41 87.0164 1217.51 86.3827 1218.31 86.0992C1219.6 85.6489 1223 85.2819 1221.45 83.1555ZM1215.68 66.1773C1216.74 67.6533 1218.13 68.7541 1219.35 70.1133C1220.8 71.556 1222.15 73.132 1223.57 74.6581C1225.01 76.1341 1226.52 77.5684 1227.66 79.2612C1229.75 82.405 1232.41 85.0318 1234.96 87.8337C1236.08 89.0762 1237.66 90.9441 1235.83 92.4034C1235.15 92.9705 1234.18 93.254 1233.34 93.5375C1232.43 93.8628 1231.36 94.0462 1230.44 93.5375C1228.98 92.787 1228.32 90.4688 1226.38 90.5188C1224.95 90.5689 1223.36 91.261 1222.01 91.728C1220.61 92.2283 1219.31 92.8704 1217.98 93.3958C1217.22 93.7377 1216.34 93.9128 1215.66 94.3381C1214.84 94.8801 1214.6 95.7974 1214.46 96.673C1214.1 98.5743 1213.82 100.134 1211.87 100.884C1210.45 101.501 1208.01 102.293 1207.14 100.317C1206.77 99.5583 1206.97 98.5326 1207.08 97.7321L1207.3 94.7217C1207.45 92.7704 1207.86 90.8524 1208.01 88.8844C1208.2 86.7246 1208.01 84.5064 1208.01 82.2799C1208.02 80.1701 1208.64 78.1187 1208.77 75.9089C1208.91 73.7658 1209.15 71.5226 1209.21 69.3378C1209.2 68.3871 1209.15 67.3281 1209.4 66.4108C1209.67 65.5602 1210.56 64.4761 1211.53 64.3928C1213.45 63.7256 1214.53 64.6679 1215.68 66.1773Z" fill="#161E2B"/>
<path d="M1255.47 64.0532C1254.29 62.9205 1252.71 61.7499 1251.08 61.5449C1247.73 61.1999 1244.27 62.8707 1242.9 66.3249C1241.54 69.9887 1241.91 74.1124 1244.66 76.9471C1245.98 78.3804 1247.85 79.8011 1249.74 79.9475C1251.89 80.1088 1253.71 79.3712 1255.44 78.1064C1256.13 77.6701 1256.84 77.0846 1257.38 76.4212C1257.89 75.7763 1258.14 74.9272 1258.34 74.1132C1258.83 72.4332 1258.85 70.3572 1258.34 68.6743C1257.74 66.7787 1256.83 65.3263 1255.47 64.0532ZM1261.22 60.649C1262.21 61.8416 1262.88 63.0951 1263.5 64.5585C1264.26 66.33 1264.98 68.1366 1265.28 70.0452C1265.57 72.0254 1265.27 73.6454 1264.74 75.4928C1264.19 77.2927 1263.56 78.9422 1262.49 80.3996C1261.43 81.8918 1260.19 83.5323 1258.69 84.4941C1256.32 86.3714 1253.14 87.2315 1250.21 87.2571C1248.64 87.2705 1247.04 86.6479 1245.63 86.0132C1244.21 85.3877 1242.91 84.6713 1241.74 83.671C1239.39 81.6667 1237.12 78.8088 1236.26 75.6479C1235.43 72.52 1235.13 68.8941 1235.86 65.7619C1236.26 64.2002 1237.08 62.7352 1237.85 61.3845C1238.67 59.9195 1239.67 58.6464 1240.81 57.4938C1241.89 56.4354 1243.3 55.7242 1244.71 55.1657C1246.14 54.5904 1247.64 54.2171 1249.23 54.3249C1250.84 54.3994 1252.33 54.7689 1253.89 55.2392C1255.27 55.6866 1256.89 56.1619 1257.98 57.1535C1259.16 58.1538 1260.26 59.4211 1261.22 60.649Z" fill="#161E2B"/>
</g>
<path d="M1216.41 343.439C1216.54 343.269 1216.73 343.209 1216.9 343.137C1217.1 343.058 1217.34 342.965 1217.56 342.976C1218.03 343.002 1218.08 343.52 1218.16 343.932C1218.25 344.437 1218.37 344.913 1218.5 345.391C1218.62 345.839 1218.77 346.258 1218.91 346.697C1219.08 347.161 1219.19 347.659 1219.28 348.162C1219.32 348.375 1219.36 348.589 1219.42 348.812C1219.46 349.026 1219.51 349.352 1219.69 349.502C1219.99 349.731 1220.55 349.374 1220.84 349.25C1221.04 349.157 1221.23 349.061 1221.44 349.011C1221.67 348.953 1221.9 348.914 1222.13 348.842C1222.47 348.715 1222.91 348.464 1223.22 348.832C1223.35 348.985 1223.41 349.209 1223.49 349.394C1223.55 349.598 1223.64 349.829 1223.63 350.044C1223.59 350.623 1222.98 350.703 1222.57 350.802C1222.13 350.891 1221.73 350.985 1221.33 351.178C1220.92 351.391 1220.48 351.385 1220.06 351.52C1219.67 351.658 1219.24 351.939 1218.82 351.896C1218.42 351.863 1218.24 351.337 1218.1 350.979C1217.91 350.458 1217.86 349.876 1217.7 349.345C1217.57 348.822 1217.48 348.283 1217.36 347.757C1217.22 347.235 1217 346.724 1216.88 346.197C1216.77 345.716 1216.64 345.222 1216.51 344.732L1216.5 344.702L1216.49 344.672C1216.38 344.302 1216.16 343.792 1216.41 343.439Z" fill="#161E2B"/>
<path d="M1114.57 148.141C1114.25 148.117 1113.96 147.896 1113.86 147.557C1113.73 147.116 1113.96 146.643 1114.39 146.503L1363.46 64.5712C1363.89 64.4273 1364.34 64.6775 1364.47 65.118C1364.6 65.5607 1364.37 66.03 1363.95 66.1694L1114.87 148.106C1114.77 148.137 1114.67 148.15 1114.57 148.141Z" fill="#CCA69B"/>
<path d="M1296.15 299.508L1182.22 342.38C1181.06 342.813 1179.78 342.214 1179.33 341.023L1149.05 264.963C1147.38 260.585 1145.84 256.153 1144.45 251.671L1119.3 170.925C1118.92 169.679 1119.57 168.34 1120.76 167.93L1235.67 128.591C1236.86 128.184 1238.15 128.864 1238.54 130.112L1262.97 208.035C1264.35 212.469 1265.87 216.854 1267.53 221.186L1297.5 296.391C1297.98 297.637 1297.37 299.052 1296.15 299.508Z" fill="#E0C2BA"/>
<path d="M1430.63 228.117L1398.45 160.515L1369.44 83.8689C1369.04 82.6227 1367.74 81.952 1366.55 82.3725L1251.98 122.772C1250.79 123.192 1250.15 124.538 1250.55 125.778L1281.71 208.204L1315.2 288.234C1315.67 289.421 1316.95 290.007 1318.11 289.562C1318.11 289.562 1399.2 253.519 1426.19 241.019C1430.92 238.823 1432.93 232.96 1430.63 228.117Z" fill="#E0C2BA"/>
<path d="M1247.6 382.606C1245.3 376.537 1241.4 366.098 1238.08 358.441C1237.85 357.903 1236.91 357.122 1236.25 357.458C1227.81 360.188 1201.35 370.589 1192.84 373.044C1191.66 373.382 1192.07 374.228 1192.26 374.711C1194.57 380.508 1192.54 378.396 1200.51 398.389C1200.82 399.214 1201.47 400.377 1203.27 399.755C1207.63 398.238 1238.42 387.292 1244.54 384.811C1248.72 383.115 1247.18 382.595 1247.6 382.606Z" fill="#E0C2BA"/>
<path d="M1306.84 358.839C1304.54 352.768 1300.64 342.329 1297.32 334.672C1297.09 334.134 1296.15 333.355 1295.49 333.689C1287.05 336.416 1260.59 346.818 1252.08 349.277C1250.91 349.613 1251.31 350.457 1251.51 350.942C1253.81 356.739 1251.78 354.629 1259.75 374.622C1260.06 375.448 1260.71 376.605 1262.51 375.983C1266.87 374.467 1297.66 363.526 1303.78 361.042C1307.96 359.349 1306.42 358.828 1306.84 358.839Z" fill="#E0C2BA"/>
<mask id="mask1_3173_79779" style="mask-type:luminance" maskUnits="userSpaceOnUse" x="1201" y="228" width="307" height="213">
<path d="M1201.63 228.061H1508V440.205H1201.63V228.061Z" fill="white"/>
</mask>
<g mask="url(#mask1_3173_79779)">
<path d="M1244.74 428.526C1286.3 417.228 1327.47 404.365 1368.16 390.022C1414.98 373.511 1461.11 354.95 1506.5 334.559C1507.84 333.959 1508.35 332.111 1507.74 330.794C1491.6 296.179 1473.83 262.893 1457.7 228.28C1446.92 231.129 1441.7 241.491 1436.09 250.761C1416.13 283.743 1396.2 316.736 1376.25 349.724C1376.17 349.746 1376.1 349.742 1376.02 349.779C1346.17 363.711 1316.03 376.977 1285.62 389.512C1270.61 395.697 1255.54 401.707 1240.41 407.542C1229.46 411.765 1214.72 414.751 1206.35 423.955C1202.11 428.617 1200.91 434.494 1202.37 439.981C1206.24 439.107 1210.15 437.553 1213.06 436.823C1223.64 434.155 1234.21 431.393 1244.74 428.526Z" fill="#F0D1C9"/>
</g>
<path d="M1471.71 327.668C1469.27 321.661 1451.23 279.924 1447.72 272.359C1447.47 271.827 1446.52 271.073 1445.86 271.424C1437.5 274.377 1411.3 285.48 1402.85 288.165C1401.68 288.533 1402.11 289.367 1402.31 289.846C1404.76 295.579 1416.57 324.928 1425.03 344.699C1425.36 345.518 1426.04 346.661 1427.82 345.99C1432.14 344.361 1462.66 332.598 1468.71 329.951C1472.85 328.146 1471.3 327.668 1471.71 327.668Z" fill="#E0C2BA"/>
<path d="M1460.99 235.158C1460.24 235.388 1460.86 234.117 1460.24 234.899C1458.82 236.67 1457.43 238.456 1456.03 240.238C1454.46 238.443 1451.62 237.942 1449.96 240.623C1440.31 256.153 1430.67 271.686 1421.03 287.218C1420.16 287.393 1419.31 287.858 1418.62 288.748C1410.44 299.249 1402.25 309.754 1394.07 320.255C1388.13 330.079 1382.19 339.903 1376.25 349.724C1376.18 349.746 1376.11 349.742 1376.03 349.779C1373.97 350.738 1309.14 379.824 1285.62 389.515C1270.62 395.699 1255.55 401.707 1240.42 407.544C1229.46 411.765 1214.72 414.751 1206.35 423.955C1202.11 428.617 1200.92 434.494 1202.38 439.986C1206.25 439.109 1210.15 437.555 1213.06 436.823C1215.8 436.132 1218.53 435.419 1221.25 434.72C1253.8 420.088 1286.98 406.993 1320.09 393.791C1343.92 384.291 1367.74 374.728 1391.24 364.376C1400.95 360.106 1408.34 355.335 1414.7 346.466C1422.4 335.739 1429.73 324.68 1437.13 313.719C1449.69 295.081 1460.54 277.91 1471.83 258.416C1468.22 250.664 1464.6 242.91 1460.99 235.158Z" fill="#CCA69B"/>
<path d="M1368.78 334.86C1366.34 328.853 1351.02 291.568 1347.51 284.002C1347.26 283.471 1346.31 282.716 1345.66 283.065C1337.29 286.021 1311.09 297.124 1302.64 299.809C1301.48 300.176 1301.9 301.008 1302.11 301.489C1304.55 307.222 1313.64 332.118 1322.1 351.893C1322.43 352.71 1323.11 353.852 1324.89 353.182C1329.21 351.55 1359.73 339.79 1365.79 337.145C1369.92 335.338 1368.37 334.86 1368.78 334.86Z" fill="#E0C2BA"/>
<path d="M1244.07 368.393L1194.64 386.828C1194.13 387.005 1193.65 386.954 1193.57 386.712L1191.62 382.71C1191.54 382.469 1190.95 382.338 1191.46 382.161L1241.84 363.517C1242.35 363.337 1242.82 363.391 1242.9 363.632L1244.85 367.634C1244.93 367.875 1244.58 368.216 1244.07 368.393Z" fill="#FFE5DE"/>
<path d="M1221.5 318.546C1221.32 318.132 1221.15 317.721 1220.96 317.3C1220.32 315.857 1219.36 315.04 1218.3 314.699C1216.88 311.273 1215.47 307.846 1214.06 304.417C1213.33 302.66 1211.98 301.839 1210.54 301.708C1209.04 296.893 1207.53 292.079 1206.03 287.265C1205.19 284.573 1202.92 283.424 1200.79 283.55C1199.83 280.659 1198.85 277.777 1197.8 274.913C1197.08 272.963 1195.41 272.175 1193.68 272.224C1193.2 270.913 1192.71 269.607 1192.19 268.308C1191.47 266.479 1189.4 266.65 1188.32 267.805C1187.95 267.495 1187.58 267.186 1187.22 266.873C1183.01 263.312 1178.78 269.204 1180.22 273.337C1180.89 275.232 1181.53 277.146 1182.17 279.066C1182.02 279.482 1182 279.973 1182.17 280.538C1187.58 298.901 1191.87 318.396 1200.06 335.732L1225.4 326.196C1225.55 325.833 1225.7 325.481 1225.83 325.072C1226.92 321.466 1224.27 318.872 1221.5 318.546Z" fill="#ED8074"/>
<path d="M1309.81 353.472L1260.38 371.91C1259.87 372.087 1259.39 372.034 1259.32 371.795L1257.36 367.793C1257.29 367.552 1256.69 367.421 1257.2 367.242L1307.58 348.597C1308.09 348.42 1308.56 348.471 1308.64 348.712L1310.59 352.715C1310.67 352.956 1310.32 353.295 1309.81 353.472Z" fill="#FFE5DE"/>
<path d="M1298.33 329.736L1248.9 348.172C1248.39 348.349 1247.91 348.296 1247.84 348.057L1245.89 344.055C1245.81 343.814 1245.21 343.683 1245.72 343.506L1296.1 324.859C1296.61 324.682 1297.09 324.735 1297.16 324.974L1299.12 328.979C1299.19 329.218 1298.84 329.557 1298.33 329.736Z" fill="#FFE5DE"/>
<path d="M1364.63 321.926L1315.2 340.363C1314.69 340.542 1314.21 340.489 1314.13 340.246L1312.18 336.246C1312.1 336.002 1311.51 335.876 1312.02 335.697L1362.39 317.05C1362.9 316.873 1363.38 316.924 1363.46 317.167L1365.41 321.167C1365.49 321.411 1365.14 321.749 1364.63 321.926Z" fill="#FFE5DE"/>
<path d="M1270.06 232.765C1268.46 225.418 1266.3 218.202 1263.25 211.207C1263.06 210.789 1262.83 210.452 1262.58 210.156C1260.15 205.731 1256.45 202.223 1251.68 199.675C1244.16 195.67 1237.11 195.057 1231.37 188.908C1229.02 186.4 1221.52 174.159 1219.95 171.35C1220.87 159.842 1217.99 146.853 1215.1 135.579L1166.8 152.117C1168.15 162.226 1169.52 175.609 1175.83 183.407C1180.79 189.535 1187.82 189.03 1194.64 187.418C1198.67 193.652 1202.92 199.721 1207.38 205.627C1200.71 213.211 1191.65 218.399 1185.81 227.014C1183.57 230.326 1181.74 233.865 1180.27 237.548C1176.04 246.336 1173.57 255.97 1172.06 265.831C1176.36 265.333 1180.38 269.26 1180.24 273.173C1181.45 273.483 1182.62 273.968 1183.7 274.608C1185.26 275.531 1186.52 276.806 1187.65 278.207C1188.53 278.107 1189.44 278.178 1190.35 278.497C1196.31 280.573 1202.22 284.34 1203.45 291.145C1204.34 291.329 1205.23 291.484 1206.12 291.685C1210 292.575 1211.21 296.876 1210.23 300.411C1211.48 301.279 1212.48 302.635 1212.91 304.605C1213.05 305.27 1213.1 305.985 1213.13 306.706C1219.63 313.378 1226.13 320.014 1230.22 324.262L1262.1 312.269C1262.1 312.213 1262.09 312.16 1262.08 312.103C1260.64 288.314 1265.84 264.684 1264.03 240.924C1263.69 236.486 1266.78 233.522 1270.06 232.765Z" fill="#ED8074"/>
<path d="M1271.91 271.32C1271.2 260.926 1274.7 257.247 1277.94 247.638L1267.54 221.082C1265.89 216.75 1264.36 212.365 1262.98 207.931L1260.66 200.525C1252.7 198.32 1239.92 195.735 1238.49 195.69C1237.57 195.662 1236.91 196.339 1236.78 197.264C1236.65 198.293 1233.32 224.489 1232.28 229.945C1231.32 235.012 1229.78 251.934 1231.15 271.602C1232.44 290.209 1236.57 311.667 1237.92 314.46C1234.63 312.092 1231.52 309.677 1228.88 306.288C1222.72 298.368 1221.92 288.126 1215.82 280.199C1211.18 274.167 1205.89 269.344 1202.63 263.037C1201.94 260.768 1201.18 258.52 1200.35 256.282C1200.28 256.082 1200.18 255.916 1200.08 255.764C1199.9 254.865 1199.75 253.944 1199.66 252.975C1198.37 239.452 1199.5 225.321 1199.57 211.739C1199.57 210.696 1198.82 210.12 1198.04 210.036C1197.04 209.224 1194.87 208.876 1193.99 210.313C1181.31 230.886 1172.4 253.477 1169.83 277.979C1169.75 278.785 1170.2 279.832 1170.9 280.226C1176.4 283.309 1187.17 282.052 1192.97 283.495C1196.91 289.633 1198.96 294.503 1202.75 300.898C1207.01 308.094 1209.82 315.979 1214.83 322.719C1216.29 324.673 1217.86 326.508 1219.52 328.246L1281.29 305.885C1281.12 300.194 1272.35 277.676 1271.91 271.32Z" fill="white"/>
<path d="M1202.63 238.899C1203.51 236.085 1203.44 234.082 1204.96 231.466C1206.23 229.29 1207.69 228.216 1209.32 226.47C1211.14 224.52 1212.5 222.64 1213.1 219.938C1214.73 212.593 1206.23 207.577 1205.17 200.434C1204.84 198.163 1206.5 195.091 1205.25 196.348C1203.8 191.693 1202.05 187.148 1199.96 182.675C1199.13 180.906 1196.73 181.105 1195.75 182.358C1195.11 180.68 1194.46 179.011 1193.86 177.311C1193.41 176.116 1192.49 175.757 1191.6 175.935C1191.42 175.288 1191.22 174.651 1191.05 174.004C1190.26 171.009 1185.98 171.793 1186.29 174.746C1186.29 174.744 1186.29 174.739 1186.29 174.735C1185.67 172.84 1183.59 172.492 1182.37 173.3C1181.94 171.476 1181.54 169.681 1181.17 167.937C1180.79 166.067 1179.07 165.644 1177.79 166.308C1176.95 165.989 1175.95 166.241 1175.26 166.863C1174.23 166.908 1173.19 167.594 1172.91 168.752C1172.65 168.69 1172.39 168.665 1172.13 168.687C1171.43 163.12 1170.64 158.45 1170.37 156.637C1170.12 154.932 1168.78 154.474 1167.58 154.835C1167.43 153.916 1167.27 152.991 1167.11 152.064L1158.41 155.041C1158.46 164.218 1158.42 173.407 1158.68 182.575C1158.87 189.209 1159.32 196.578 1163.19 202.154C1164.24 203.672 1165.49 205.001 1167.05 205.93C1170.53 207.993 1177.17 206.65 1179.28 211.017C1180.84 214.249 1180.12 220.695 1180.83 224.3C1181.59 228.15 1182.67 231.999 1184.24 235.585C1188.14 244.492 1198.48 252.087 1202.63 238.899Z" fill="#161E2B"/>
<path d="M1330.61 95.7977C1330.81 96.34 1331.04 96.8712 1331.24 97.4091C1331.68 99.3814 1332.28 101.316 1333.07 103.204C1333.98 105.36 1335.35 109.024 1337.6 110.305C1337.53 110.423 1337.48 110.542 1337.41 110.655C1336.6 112.018 1338.01 113.94 1339.48 113.088C1343.41 110.792 1348.46 106.912 1346.44 101.411C1345.49 98.8169 1343.08 97.8385 1341.45 95.8286C1340.57 94.7418 1339.83 93.4491 1339.16 92.0745L1330.38 95.1712C1330.46 95.3793 1330.53 95.5874 1330.61 95.7977Z" fill="#161E2B"/>
<path d="M1207.44 205.769C1207.18 206.07 1208.25 206.459 1209.07 206.386C1209.42 206.048 1209.76 205.691 1210.12 205.364C1216.79 199.199 1224.79 194.294 1233.36 190.88C1232.7 190.327 1232.06 189.729 1231.43 189.054C1229.08 186.542 1221.58 174.303 1220.01 171.494C1220.93 159.986 1218.05 146.995 1215.16 135.721L1166.86 152.258C1168.21 162.368 1169.58 175.753 1175.89 183.551C1180.85 189.678 1187.88 189.174 1194.7 187.564C1198.73 193.796 1202.97 199.865 1207.44 205.769Z" fill="#ED8074"/>
<path d="M1190.27 144.068C1191.4 144.527 1192.63 144.923 1193.99 145.323C1202.54 147.831 1203.03 151.238 1204.57 158.614C1205.33 162.224 1206.27 165.823 1207.6 169.258C1213.31 184.105 1225.9 191.66 1239.77 196.706C1240.06 196.813 1251.8 200.68 1254.2 202.198C1254.45 202.358 1255.6 202.94 1256.56 202.765C1257.58 202.577 1258.39 201.603 1258.13 200.753C1256.54 195.425 1254.96 189.957 1252.08 185.198C1248.91 179.948 1244.21 175.985 1240.41 171.264C1231.46 160.143 1228.36 145.994 1222.92 132.886L1190.27 144.068Z" fill="#161E2B"/>
<path d="M1327.38 164.911C1329.35 168.61 1336.1 166.952 1335.88 162.472C1335.62 156.914 1335.36 151.358 1335.1 145.797C1335.05 144.374 1334.98 142.946 1334.92 141.523C1344.22 129.3 1338.7 108.623 1332.98 94.3057L1293.51 108.224C1293.5 108.723 1293.54 109.245 1293.71 109.818C1295.37 115.432 1300.05 126.519 1306.26 134.878C1307.77 144.604 1308.56 154.505 1310.78 164.079C1311.34 166.449 1313.37 167.671 1315.38 167.742C1317.14 170.985 1323 171.167 1323.84 166.956C1323.92 166.536 1323.96 166.113 1324.03 165.692C1325.21 165.827 1326.41 165.564 1327.35 164.913C1327.36 164.913 1327.37 164.911 1327.38 164.911Z" fill="#ED8074"/>
<path d="M1399.36 195.562C1391.85 189.426 1383.98 183.759 1375.86 178.551C1368.6 173.889 1361.11 169.633 1353.45 165.717C1348.33 163.098 1342.78 160.924 1338 157.695C1337.85 155.776 1337.43 153.821 1336.81 153.082C1334.85 150.742 1329.92 153.19 1327.59 153.646C1324.63 154.226 1321.66 154.731 1318.68 155.152C1316.36 155.479 1312.58 155.178 1310.51 156.163C1308.57 157.088 1308.56 159.368 1308.75 161.573C1299.04 179.545 1286.42 198.792 1286.26 218.842L1307.62 269.879C1307.98 270.335 1308.35 271.394 1308.73 272.839L1315.2 288.301C1315.67 289.487 1316.95 290.078 1318.1 289.633C1318.1 289.633 1376.06 263.872 1410.29 248.353C1421.7 240.915 1430.51 235.016 1431.49 233.723C1431.51 233.591 1431.52 233.456 1431.53 233.323C1429.29 226.08 1404.64 199.881 1399.36 195.562Z" fill="#161E2B"/>
<path d="M1284.44 114.077C1284.45 116.656 1285.01 119.193 1286.93 120.968C1289.56 123.396 1295.28 124.312 1298.55 122.371C1299.12 122.327 1299.69 122.232 1300.26 122.088C1303.39 122.785 1306.76 122.798 1309.65 121.209C1312.96 119.387 1312.67 116.948 1313.15 113.508C1313.9 108.236 1319.01 105.993 1319.49 100.698C1319.54 100.07 1319.53 99.4566 1319.48 98.8501L1284.55 111.166C1284.49 112.127 1284.44 113.09 1284.44 114.077Z" fill="#161E2B"/>
<path d="M1310.71 138.769C1307.39 131.932 1303.29 125.601 1299.15 119.286C1298.56 118.382 1297.3 118.63 1296.69 119.376C1296.55 119.195 1296.44 119.007 1296.29 118.83C1295.62 118.026 1294.47 118.17 1293.86 118.874C1293.78 118.83 1293.7 118.776 1293.61 118.734C1292.91 118.398 1292.13 118.805 1291.73 119.447C1291.76 119.29 1291.79 119.137 1291.78 118.962C1291.77 118.918 1291.77 118.869 1291.76 118.827C1291.69 118.097 1290.94 117.55 1290.29 117.497C1290.23 117.493 1290.17 117.488 1290.12 117.484C1289.27 117.42 1288.45 118.159 1288.42 119.06C1288.36 120.959 1289.76 122.632 1290.85 124.045C1292.91 126.714 1294.87 129.1 1296.44 132.151C1297.54 134.3 1298.44 136.569 1300.4 138.056C1302.75 139.843 1305.97 140.507 1308.75 141.118C1310.05 141.403 1311.4 140.195 1310.71 138.769Z" fill="#161E2B"/>
<path d="M1259.97 332.137C1259.84 331.541 1259.48 331.063 1259.37 330.465C1259.3 330.169 1259.25 329.865 1259.14 329.584C1258.99 329.25 1258.84 328.934 1258.74 328.584C1258.68 328.351 1258.6 328.061 1258.77 327.847C1258.95 327.614 1259.37 327.61 1259.63 327.535C1260.19 327.349 1260.71 327.074 1261.26 326.879C1261.81 326.678 1262.38 326.503 1262.93 326.304C1263.2 326.206 1263.48 326.122 1263.78 326.034C1264.03 325.961 1264.29 325.93 1264.53 326.098C1264.74 326.257 1264.81 326.57 1264.88 326.815C1264.95 327.074 1264.99 327.349 1264.84 327.586C1264.69 327.811 1264.43 327.889 1264.19 327.957C1263.9 328.048 1263.61 328.201 1263.33 328.323C1262.79 328.564 1262.22 328.688 1261.69 328.947C1261.49 329.035 1261.28 329.131 1261.24 329.383C1261.23 329.502 1261.27 329.64 1261.29 329.748C1261.35 329.916 1261.39 330.102 1261.45 330.268C1261.52 330.527 1261.64 330.687 1261.91 330.622C1262.2 330.569 1262.48 330.412 1262.74 330.306C1263.05 330.16 1263.33 330.007 1263.64 329.896C1263.93 329.806 1264.21 329.722 1264.5 329.857C1265 330.109 1265.24 331.07 1264.74 331.455C1264.48 331.65 1264.11 331.698 1263.79 331.816C1263.49 331.922 1263.18 332.052 1262.86 332.185C1262.61 332.292 1262.28 332.429 1262.32 332.785C1262.35 333.08 1262.51 333.392 1262.62 333.675L1262.65 333.766C1262.81 334.297 1262.97 334.846 1263.09 335.406C1263.14 335.643 1263.18 335.884 1262.95 336.048C1262.73 336.212 1262.41 336.3 1262.16 336.387C1261.95 336.48 1261.68 336.63 1261.46 336.468C1261.26 336.291 1261.2 335.889 1261.12 335.632C1261.02 335.348 1260.9 335.072 1260.8 334.771C1260.69 334.454 1260.6 334.133 1260.47 333.841C1260.25 333.281 1260.09 332.734 1259.97 332.137Z" fill="#161E2B"/>
<path d="M1266.9 329.587C1266.77 328.991 1266.41 328.513 1266.29 327.915C1266.22 327.619 1266.17 327.315 1266.07 327.034C1265.92 326.7 1265.77 326.384 1265.67 326.034C1265.6 325.801 1265.52 325.511 1265.7 325.297C1265.88 325.064 1266.3 325.06 1266.56 324.985C1267.12 324.799 1267.64 324.524 1268.19 324.329C1268.73 324.128 1269.31 323.953 1269.86 323.754C1270.13 323.656 1270.41 323.572 1270.7 323.484C1270.95 323.411 1271.22 323.38 1271.45 323.548C1271.67 323.707 1271.74 324.019 1271.8 324.265C1271.87 324.524 1271.92 324.799 1271.77 325.035C1271.62 325.261 1271.35 325.339 1271.12 325.407C1270.82 325.498 1270.53 325.651 1270.25 325.773C1269.72 326.014 1269.14 326.138 1268.62 326.397C1268.42 326.485 1268.21 326.581 1268.16 326.833C1268.15 326.952 1268.2 327.09 1268.22 327.198C1268.27 327.366 1268.32 327.552 1268.38 327.718C1268.45 327.977 1268.56 328.137 1268.83 328.072C1269.12 328.019 1269.41 327.862 1269.67 327.756C1269.97 327.61 1270.26 327.457 1270.56 327.346C1270.86 327.256 1271.13 327.172 1271.42 327.307C1271.93 327.559 1272.17 328.52 1271.67 328.905C1271.41 329.1 1271.04 329.148 1270.72 329.266C1270.42 329.372 1270.1 329.502 1269.79 329.635C1269.53 329.741 1269.21 329.879 1269.25 330.235C1269.28 330.53 1269.43 330.842 1269.54 331.125L1269.57 331.216C1269.73 331.747 1269.9 332.296 1270.02 332.856C1270.07 333.093 1270.1 333.334 1269.88 333.498C1269.66 333.662 1269.33 333.75 1269.09 333.837C1268.87 333.93 1268.6 334.08 1268.39 333.918C1268.18 333.741 1268.13 333.338 1268.05 333.082C1267.95 332.798 1267.82 332.522 1267.72 332.221C1267.62 331.904 1267.53 331.583 1267.4 331.291C1267.18 330.731 1267.01 330.184 1266.9 329.587Z" fill="#161E2B"/>
<path d="M1190.9 359.056C1190.74 358.811 1190.52 358.623 1190.3 358.415L1190 358.102C1189.9 357.987 1189.8 357.821 1189.68 357.748C1189.32 357.556 1189.31 358.116 1189.29 358.341C1189.27 358.62 1189.23 358.901 1189.23 359.189C1189.23 359.413 1189.16 359.856 1189.4 359.973C1189.61 360.081 1189.89 359.913 1190.1 359.838C1190.43 359.718 1191.3 359.621 1190.9 359.056ZM1189.42 354.55C1189.69 354.941 1190.05 355.234 1190.36 355.594C1190.74 355.977 1191.08 356.396 1191.45 356.801C1191.82 357.193 1192.21 357.573 1192.5 358.023C1193.04 358.857 1193.72 359.554 1194.37 360.298C1194.66 360.628 1195.07 361.124 1194.6 361.511C1194.42 361.662 1194.17 361.737 1193.96 361.812C1193.72 361.899 1193.45 361.947 1193.21 361.812C1192.84 361.613 1192.67 360.998 1192.17 361.011C1191.8 361.024 1191.39 361.208 1191.05 361.332C1190.69 361.465 1190.35 361.635 1190.01 361.775C1189.82 361.865 1189.59 361.912 1189.42 362.025C1189.21 362.169 1189.14 362.412 1189.11 362.645C1189.02 363.149 1188.94 363.563 1188.44 363.762C1188.08 363.926 1187.45 364.137 1187.23 363.612C1187.13 363.41 1187.18 363.138 1187.21 362.926L1187.27 362.127C1187.31 361.609 1187.41 361.1 1187.45 360.577C1187.5 360.004 1187.45 359.415 1187.45 358.824C1187.45 358.264 1187.61 357.719 1187.64 357.133C1187.68 356.564 1187.74 355.969 1187.76 355.389C1187.75 355.136 1187.74 354.855 1187.81 354.612C1187.88 354.386 1188.1 354.098 1188.36 354.076C1188.85 353.899 1189.13 354.149 1189.42 354.55Z" fill="#161E2B"/>
<path d="M1256.84 332.636C1256.57 332.226 1256.19 331.772 1255.73 331.586C1254.77 331.226 1253.62 331.423 1252.95 332.288C1252.27 333.211 1252.07 334.398 1252.67 335.411C1252.95 335.916 1253.39 336.467 1253.94 336.655C1254.56 336.868 1255.15 336.806 1255.76 336.587C1256 336.518 1256.25 336.41 1256.46 336.268C1256.66 336.126 1256.79 335.909 1256.92 335.695C1257.19 335.259 1257.35 334.676 1257.33 334.163C1257.3 333.583 1257.14 333.1 1256.84 332.636ZM1258.79 332.133C1258.99 332.549 1259.09 332.952 1259.17 333.413C1259.25 333.97 1259.33 334.535 1259.27 335.097C1259.21 335.673 1258.99 336.106 1258.7 336.585C1258.4 337.047 1258.09 337.463 1257.66 337.787C1257.24 338.125 1256.75 338.488 1256.23 338.643C1255.39 338.982 1254.38 338.973 1253.52 338.749C1253.06 338.63 1252.63 338.327 1252.26 338.039C1251.89 337.751 1251.57 337.448 1251.29 337.074C1250.76 336.321 1250.3 335.343 1250.29 334.387C1250.28 333.441 1250.47 332.397 1250.92 331.573C1251.16 331.168 1251.51 330.821 1251.84 330.497C1252.19 330.152 1252.59 329.875 1253.01 329.638C1253.41 329.428 1253.88 329.335 1254.33 329.293C1254.8 329.242 1255.27 329.256 1255.73 329.41C1256.2 329.561 1256.61 329.782 1257.04 330.035C1257.41 330.272 1257.85 330.531 1258.1 330.896C1258.37 331.27 1258.6 331.713 1258.79 332.133Z" fill="#161E2B"/>
<path d="M1198.45 352.73C1197.97 352.314 1197.21 352.606 1196.7 352.772C1196.42 352.861 1195.9 352.896 1195.8 353.217C1195.73 353.399 1195.81 353.587 1195.85 353.759L1196.02 354.284C1196.13 354.601 1196.2 354.961 1196.37 355.238C1196.53 355.504 1196.74 355.473 1197 355.366C1197.6 355.132 1198.32 355.023 1198.71 354.39C1199.03 353.888 1198.9 353.109 1198.45 352.73ZM1200.61 354.665C1200.38 355.136 1200.08 355.683 1199.65 356.006C1199.54 356.099 1198.29 356.633 1198.28 356.602L1198.27 356.608C1197.94 356.728 1197.22 356.854 1197.17 357.279C1197.15 357.472 1197.27 357.682 1197.32 357.846C1197.41 358.067 1197.45 358.286 1197.53 358.514C1197.65 358.926 1197.95 359.492 1197.69 359.906C1197.56 360.108 1197.35 360.179 1197.15 360.252C1196.95 360.327 1196.71 360.393 1196.5 360.389C1195.98 360.336 1195.87 359.754 1195.73 359.333C1195.58 358.897 1195.48 358.445 1195.3 358.038C1195.13 357.626 1194.95 357.237 1194.82 356.832C1194.65 356.318 1194.49 355.785 1194.29 355.285C1193.96 354.443 1193.64 353.545 1193.47 352.644C1193.39 352.135 1193.55 351.82 1194.03 351.634C1194.45 351.462 1194.87 351.309 1195.29 351.11C1195.75 350.891 1196.18 350.72 1196.66 350.598C1197.1 350.483 1197.55 350.324 1198.01 350.342C1198.5 350.366 1198.89 350.479 1199.31 350.762C1199.67 351.023 1200.07 351.32 1200.33 351.694C1200.96 352.549 1201.08 353.702 1200.61 354.665Z" fill="#161E2B"/>
<path d="M1226.53 339.792C1227.04 339.794 1228 339.982 1227.97 340.673C1227.96 340.978 1227.8 341.375 1227.6 341.596C1227.34 341.912 1227.03 341.908 1226.66 341.837C1226.03 341.727 1225.28 341.698 1224.79 342.191C1224.59 342.404 1224.39 342.778 1224.55 343.072C1224.69 343.329 1225.04 343.484 1225.3 343.528C1225.66 343.584 1226.04 343.562 1226.4 343.601C1226.74 343.63 1227.07 343.646 1227.4 343.626C1228.07 343.59 1228.74 343.663 1229.24 344.157C1229.5 344.385 1229.71 344.644 1229.91 344.93C1230.12 345.224 1230.19 345.536 1230.21 345.897C1230.32 347.278 1229.27 348.586 1228.12 349.12C1227.79 349.255 1227.45 349.312 1227.12 349.379C1226.8 349.445 1226.47 349.529 1226.16 349.56C1225.81 349.585 1225.46 349.527 1225.13 349.461C1224.85 349.41 1224.39 349.339 1224.19 349.093C1224.01 348.839 1224.15 348.414 1224.22 348.137C1224.3 347.818 1224.43 347.522 1224.78 347.444C1225.11 347.362 1225.46 347.502 1225.78 347.553C1226.11 347.619 1226.46 347.581 1226.78 347.515C1227.13 347.455 1227.42 347.329 1227.7 347.094C1227.91 346.935 1228.19 346.579 1228.11 346.273C1228.01 345.972 1227.59 345.802 1227.32 345.764C1226.99 345.698 1226.64 345.691 1226.3 345.662C1225.6 345.594 1224.91 345.609 1224.23 345.467C1223.56 345.339 1223.05 344.817 1222.7 344.215C1222.55 343.936 1222.47 343.608 1222.42 343.289C1222.39 342.931 1222.48 342.627 1222.61 342.293C1222.74 341.957 1222.93 341.651 1223.13 341.346C1223.31 341.078 1223.5 340.773 1223.75 340.58C1223.82 340.502 1224.61 340.084 1224.62 340.128C1225.24 339.905 1225.87 339.781 1226.53 339.792Z" fill="#161E2B"/>
<path d="M1198.45 352.73C1197.97 352.314 1197.21 352.606 1196.7 352.772C1196.42 352.861 1195.9 352.896 1195.8 353.217C1195.73 353.399 1195.81 353.587 1195.85 353.759L1196.02 354.284C1196.13 354.601 1196.2 354.961 1196.37 355.238C1196.53 355.504 1196.74 355.473 1197 355.366C1197.6 355.132 1198.32 355.023 1198.71 354.39C1199.03 353.888 1198.9 353.109 1198.45 352.73ZM1200.61 354.665C1200.38 355.136 1200.08 355.683 1199.65 356.006C1199.54 356.099 1198.29 356.633 1198.28 356.602L1198.27 356.608C1197.94 356.728 1197.22 356.854 1197.17 357.279C1197.15 357.472 1197.27 357.682 1197.32 357.846C1197.41 358.067 1197.45 358.286 1197.53 358.514C1197.65 358.926 1197.95 359.492 1197.69 359.906C1197.56 360.108 1197.35 360.179 1197.15 360.252C1196.95 360.327 1196.71 360.393 1196.5 360.389C1195.98 360.336 1195.87 359.754 1195.73 359.333C1195.58 358.897 1195.48 358.445 1195.3 358.038C1195.13 357.626 1194.95 357.237 1194.82 356.832C1194.65 356.318 1194.49 355.785 1194.29 355.285C1193.96 354.443 1193.64 353.545 1193.47 352.644C1193.39 352.135 1193.55 351.82 1194.03 351.634C1194.45 351.462 1194.87 351.309 1195.29 351.11C1195.75 350.891 1196.18 350.72 1196.66 350.598C1197.1 350.483 1197.55 350.324 1198.01 350.342C1198.5 350.366 1198.89 350.479 1199.31 350.762C1199.67 351.023 1200.07 351.32 1200.33 351.694C1200.96 352.549 1201.08 353.702 1200.61 354.665Z" fill="#161E2B"/>
<path d="M1205.78 350.18C1205.3 349.764 1204.54 350.056 1204.03 350.222C1203.75 350.311 1203.23 350.346 1203.13 350.667C1203.06 350.849 1203.14 351.037 1203.18 351.209L1203.35 351.734C1203.46 352.051 1203.53 352.411 1203.71 352.688C1203.86 352.954 1204.08 352.923 1204.33 352.816C1204.93 352.582 1205.65 352.473 1206.04 351.84C1206.36 351.338 1206.23 350.559 1205.78 350.18ZM1207.94 352.115C1207.72 352.586 1207.41 353.133 1206.99 353.456C1206.87 353.549 1205.63 354.083 1205.62 354.052L1205.6 354.058C1205.27 354.178 1204.55 354.304 1204.5 354.729C1204.48 354.922 1204.6 355.132 1204.65 355.296C1204.74 355.517 1204.79 355.736 1204.86 355.964C1204.98 356.376 1205.28 356.943 1205.02 357.356C1204.89 357.558 1204.69 357.629 1204.48 357.702C1204.28 357.777 1204.05 357.843 1203.83 357.839C1203.32 357.786 1203.2 357.204 1203.06 356.783C1202.92 356.347 1202.82 355.896 1202.63 355.488C1202.46 355.076 1202.29 354.687 1202.15 354.282C1201.98 353.768 1201.82 353.235 1201.62 352.735C1201.29 351.893 1200.98 350.995 1200.81 350.094C1200.72 349.585 1200.89 349.27 1201.36 349.084C1201.79 348.912 1202.2 348.759 1202.62 348.56C1203.08 348.341 1203.51 348.17 1203.99 348.049C1204.44 347.933 1204.88 347.774 1205.34 347.792C1205.84 347.816 1206.23 347.929 1206.65 348.212C1207.01 348.474 1207.4 348.77 1207.67 349.144C1208.29 349.999 1208.42 351.152 1207.94 352.115Z" fill="#161E2B"/>
<path d="M1216.74 351.679C1216.86 351.991 1217 352.398 1216.95 352.721C1216.86 353.091 1216.59 353.206 1216.28 353.301C1215.92 353.416 1215.54 353.549 1215.19 353.711C1214.49 354.034 1213.73 354.224 1213.02 354.53C1212.7 354.68 1212.35 354.806 1212.02 354.926C1211.75 355.039 1211.34 355.258 1211.09 355.01C1210.85 354.76 1210.81 354.302 1210.7 353.987C1210.6 353.62 1210.48 353.259 1210.39 352.885C1210.28 352.52 1210.2 352.143 1210.07 351.787C1209.95 351.424 1209.8 351.074 1209.65 350.725C1209.5 350.373 1209.42 350.018 1209.33 349.66C1209.25 349.268 1209.11 348.883 1208.99 348.5C1208.87 348.124 1208.78 347.75 1208.64 347.38C1208.55 347.108 1208.27 346.669 1208.5 346.397C1208.7 346.16 1209.12 346.125 1209.39 345.996C1209.72 345.859 1210.04 345.709 1210.37 345.587C1211.08 345.348 1211.81 345.202 1212.48 344.843C1212.98 344.593 1213.96 344.049 1214.38 344.71C1214.53 344.976 1214.65 345.439 1214.64 345.744C1214.62 346.107 1214.32 346.284 1214.04 346.417C1213.36 346.714 1212.64 346.873 1211.95 347.125C1211.65 347.234 1211.25 347.36 1211.01 347.581C1210.77 347.807 1210.9 348.164 1210.98 348.438C1211.07 348.71 1211.2 349.115 1211.56 349.071C1211.92 349.027 1212.28 348.794 1212.62 348.67C1213.15 348.462 1214.13 348.004 1214.55 348.664C1214.7 348.91 1214.83 349.321 1214.73 349.624C1214.62 349.968 1214.31 350.114 1214.01 350.222C1213.93 350.255 1213 350.625 1213 350.625L1212.98 350.629C1212.81 350.694 1212.65 350.751 1212.49 350.793C1212.33 350.835 1212.11 350.877 1212.03 351.026C1211.95 351.174 1212.01 351.338 1212.07 351.468C1212.14 351.628 1212.19 351.794 1212.25 351.962C1212.29 352.095 1212.32 352.285 1212.44 352.36C1212.58 352.464 1212.75 352.405 1212.89 352.349L1213.87 351.995C1214.54 351.769 1215.23 351.417 1215.94 351.3C1216.28 351.243 1216.61 351.324 1216.74 351.679Z" fill="#161E2B"/>
<path d="M1288.59 324.759C1288.71 325.071 1288.85 325.479 1288.79 325.802C1288.71 326.171 1288.44 326.286 1288.13 326.382C1287.76 326.497 1287.39 326.63 1287.04 326.791C1286.34 327.114 1285.57 327.305 1284.87 327.61C1284.55 327.761 1284.2 327.887 1283.87 328.006C1283.6 328.119 1283.19 328.338 1282.94 328.091C1282.7 327.84 1282.66 327.382 1282.55 327.068C1282.45 326.7 1282.32 326.34 1282.23 325.966C1282.13 325.6 1282.05 325.224 1281.92 324.868C1281.8 324.505 1281.65 324.155 1281.5 323.805C1281.35 323.453 1281.26 323.099 1281.18 322.74C1281.09 322.349 1280.95 321.963 1280.84 321.581C1280.71 321.204 1280.62 320.83 1280.48 320.46C1280.39 320.188 1280.12 319.75 1280.35 319.478C1280.55 319.241 1280.97 319.205 1281.23 319.077C1281.56 318.94 1281.88 318.789 1282.21 318.667C1282.93 318.428 1283.65 318.282 1284.33 317.924C1284.83 317.674 1285.81 317.129 1286.22 317.791C1286.38 318.057 1286.5 318.519 1286.49 318.825C1286.46 319.188 1286.17 319.365 1285.89 319.498C1285.21 319.794 1284.49 319.954 1283.8 320.206C1283.49 320.314 1283.1 320.441 1282.86 320.662C1282.61 320.888 1282.75 321.244 1282.83 321.519C1282.91 321.791 1283.05 322.196 1283.41 322.152C1283.77 322.107 1284.12 321.875 1284.47 321.751C1285 321.543 1285.98 321.085 1286.39 321.744C1286.55 321.99 1286.67 322.402 1286.58 322.705C1286.47 323.048 1286.16 323.194 1285.86 323.303C1285.77 323.336 1284.85 323.706 1284.85 323.706L1284.83 323.71C1284.66 323.774 1284.5 323.832 1284.34 323.874C1284.17 323.916 1283.96 323.958 1283.88 324.106C1283.8 324.254 1283.85 324.418 1283.91 324.549C1283.98 324.708 1284.04 324.874 1284.09 325.042C1284.14 325.175 1284.17 325.366 1284.29 325.441C1284.42 325.545 1284.6 325.485 1284.74 325.43L1285.72 325.076C1286.39 324.85 1287.08 324.498 1287.79 324.381C1288.12 324.323 1288.45 324.405 1288.59 324.759Z" fill="#161E2B"/>
<path d="M1277.16 325.919C1277.4 325.767 1277.68 325.496 1277.82 325.242C1278.11 324.662 1277.98 323.834 1277.41 323.518C1277.17 323.369 1276.79 323.318 1276.52 323.369C1276.23 323.422 1275.97 323.602 1275.69 323.699C1275.45 323.79 1275.06 323.796 1274.89 324.022C1274.74 324.281 1274.95 324.728 1275.06 324.959C1275.21 325.311 1275.35 325.647 1275.47 326.008C1275.61 326.415 1275.88 326.349 1276.21 326.229C1276.52 326.083 1276.87 326.112 1277.16 325.919ZM1273.12 325.339C1272.91 324.826 1272.72 324.306 1272.59 323.763C1272.48 323.212 1272.42 322.623 1273.04 322.435C1273.57 322.262 1274.1 322.17 1274.61 321.937C1275.11 321.718 1275.64 321.41 1276.2 321.342C1276.74 321.264 1277.3 321.297 1277.84 321.419C1278.09 321.483 1278.34 321.561 1278.55 321.669C1278.81 321.811 1278.99 322.035 1279.16 322.262C1279.5 322.743 1279.85 323.188 1279.89 323.819C1279.92 324.396 1280.03 325.067 1279.78 325.592C1279.65 325.877 1279.48 326.107 1279.31 326.371C1279.14 326.619 1279.14 326.836 1279.38 327.019C1279.59 327.199 1279.86 327.351 1280.12 327.442C1280.39 327.531 1280.66 327.453 1280.93 327.489C1281.49 327.557 1281.88 328.173 1281.75 328.728C1281.67 328.989 1281.47 329.149 1281.23 329.233C1280.98 329.326 1280.66 329.392 1280.38 329.377C1279.8 329.383 1279.28 329.198 1278.8 328.868C1278.36 328.556 1277.82 328.259 1277.28 328.186C1277.06 328.166 1276.7 328.142 1276.51 328.283C1276.24 328.463 1276.41 328.839 1276.49 329.065C1276.6 329.379 1276.68 329.687 1276.77 330.008C1276.85 330.295 1276.88 330.592 1276.66 330.842C1276.47 331.046 1276.15 331.159 1275.9 331.218C1275.63 331.298 1275.35 331.329 1275.14 331.123C1274.94 330.906 1274.84 330.557 1274.73 330.291C1274.61 329.93 1274.49 329.567 1274.39 329.2C1274.32 329.007 1273.84 327.172 1273.78 327.194C1273.57 326.559 1273.36 325.946 1273.12 325.339Z" fill="#161E2B"/>
<path d="M1292.12 315.351C1292.62 315.353 1293.59 315.541 1293.56 316.232C1293.54 316.537 1293.39 316.933 1293.19 317.157C1292.92 317.471 1292.61 317.467 1292.25 317.396C1291.61 317.285 1290.86 317.257 1290.38 317.755C1290.17 317.963 1289.97 318.335 1290.13 318.631C1290.27 318.888 1290.63 319.043 1290.88 319.085C1291.24 319.142 1291.62 319.12 1291.98 319.16C1292.32 319.189 1292.65 319.204 1292.99 319.185C1293.65 319.145 1294.33 319.224 1294.83 319.714C1295.08 319.944 1295.3 320.203 1295.49 320.488C1295.7 320.783 1295.77 321.095 1295.8 321.456C1295.9 322.835 1294.85 324.145 1293.7 324.679C1293.37 324.814 1293.04 324.869 1292.7 324.938C1292.38 325.004 1292.06 325.088 1291.75 325.119C1291.4 325.143 1291.04 325.086 1290.71 325.019C1290.43 324.969 1289.97 324.9 1289.78 324.652C1289.6 324.397 1289.73 323.972 1289.8 323.696C1289.89 323.377 1290.02 323.078 1290.36 323.003C1290.69 322.919 1291.05 323.06 1291.37 323.111C1291.7 323.178 1292.04 323.136 1292.36 323.074C1292.71 323.014 1293.01 322.89 1293.29 322.651C1293.49 322.494 1293.78 322.135 1293.69 321.832C1293.59 321.531 1293.18 321.36 1292.91 321.323C1292.58 321.259 1292.22 321.25 1291.89 321.221C1291.19 321.152 1290.49 321.168 1289.82 321.026C1289.14 320.898 1288.63 320.375 1288.29 319.773C1288.13 319.494 1288.05 319.167 1288.01 318.844C1287.97 318.489 1288.06 318.184 1288.2 317.85C1288.33 317.516 1288.52 317.212 1288.72 316.9C1288.89 316.637 1289.08 316.331 1289.34 316.139C1289.41 316.061 1290.19 315.643 1290.21 315.687C1290.83 315.464 1291.45 315.34 1292.12 315.351Z" fill="#161E2B"/>
<mask id="mask2_3173_79779" style="mask-type:luminance" maskUnits="userSpaceOnUse" x="1068" y="86" width="129" height="356">
<path d="M1068.41 86.7H1196.6V441.748H1068.41V86.7Z" fill="white"/>
</mask>
<g mask="url(#mask2_3173_79779)">
<path d="M1073.07 86.7421C1071.05 88.7542 1068.04 94.8548 1068.53 96.2936C1070.21 101.316 1142.01 311.587 1171.62 394.863C1175.46 405.645 1179.44 416.372 1183.61 427.014C1185.34 431.402 1186.85 438.381 1191.43 440.752C1192.94 441.537 1194.7 441.796 1196.56 441.739L1073.07 86.7421Z" fill="#F0D1C9"/>
</g>
<path d="M1372.56 325.889C1360.23 318.387 1346.03 316.935 1332.15 314.684C1330.05 314.23 1327.95 313.807 1325.84 313.415C1318.36 311.828 1310.85 310.447 1303.26 309.453C1301.2 309.183 1300.18 311.664 1301.06 313.267C1300.47 313.161 1299.88 313.05 1299.3 312.944C1297.1 312.539 1296.36 314.945 1297.15 316.605C1290.68 314.558 1298.9 313.657 1292.61 311.051C1289.72 309.856 1273.33 313.488 1276.22 314.679C1293.53 321.847 1311.92 325.84 1329.22 333.067C1338.2 336.821 1347 341.003 1355.92 344.905C1360.33 346.838 1369.84 353.082 1374.79 351.508C1376.98 350.813 1378.02 348.569 1378.57 346.005C1379.12 344.301 1379.27 342.442 1379.27 340.591C1379.34 339.776 1379.41 339.015 1379.51 338.371C1380.59 331.168 1378.71 329.623 1372.56 325.889Z" fill="#CCA69B"/>
<path d="M1478.36 205.702C1474.36 201.798 1301.27 294.848 1275.96 312.408C1275.01 313.07 1275.51 314.75 1276.75 314.876C1294.97 316.771 1313.18 318.916 1331.35 321.358C1340.21 322.548 1349.06 323.806 1357.91 325.127C1362.79 325.858 1367.85 325.751 1371.54 329.399C1375.5 333.322 1375.32 338.537 1375.08 343.927C1375 345.733 1375.62 350.758 1376.71 349.365C1406.74 311.18 1436.86 276.168 1465.27 236.663C1468.66 231.953 1472.04 227.231 1475.4 222.501C1477.39 219.707 1481.93 215.42 1481.9 211.477C1481.88 208.85 1480.04 207.336 1478.36 205.702Z" fill="#F0D1C9"/>
<path d="M1419.7 280.237C1413.53 279.167 1381.46 274.955 1373.45 273.99C1372.89 273.924 1372.3 274.67 1371.7 275.123C1365.37 279.944 1341.71 293.533 1326.45 305.903C1325.49 306.684 1327.03 307.2 1327.52 307.277C1333.47 308.191 1369.24 313.951 1389.77 317.096C1390.61 317.247 1391.9 317.26 1392.31 315.33C1393.31 310.653 1418.83 290.857 1419.94 284.104C1420.69 279.495 1419.48 280.604 1419.7 280.237Z" fill="#E0C2BA"/>
<path d="M1435.21 235.105C1434.64 235.018 1434.03 235.744 1433.42 236.176C1426.94 240.778 1402.8 253.448 1387.16 265.293C1386.17 266.039 1387.69 266.608 1388.19 266.701C1392.89 267.588 1416.25 272.164 1435.9 275.936C1445.17 264.133 1454.32 252.127 1463.3 239.685C1452.33 237.847 1439.8 235.82 1435.21 235.105Z" fill="#E0C2BA"/>
<path d="M1475.39 222.64C1477.38 219.847 1481.92 215.559 1481.89 211.617C1481.87 208.987 1480.03 207.475 1478.36 205.844C1478.35 205.839 1478.34 205.842 1478.34 205.837C1470.14 214.24 1437.37 251.177 1430.98 258.597C1416.57 273.946 1379.63 316.481 1370.37 328.578C1370.77 328.87 1371.16 329.171 1371.53 329.539C1375.5 333.461 1375.31 338.679 1375.07 344.064C1374.99 345.873 1375.61 350.897 1376.7 349.505C1406.73 311.319 1436.84 276.308 1465.26 236.802C1468.65 232.09 1472.03 227.371 1475.39 222.64Z" fill="#E0C2BA"/>
<path d="M1245.81 336.918C1245.68 336.661 1245.51 336.452 1245.31 336.241C1244.92 335.835 1244.45 335.621 1243.89 335.547C1243.33 335.477 1242.71 335.59 1242.21 335.838C1241.98 335.966 1241.75 336.089 1241.76 336.41C1241.78 336.64 1241.88 336.91 1241.96 337.147C1242.38 338.304 1242.7 339.505 1243.22 340.603C1243.33 340.851 1243.43 341.081 1243.51 341.325C1243.58 341.639 1243.69 341.941 1244.06 341.833C1244.29 341.78 1244.5 341.646 1244.68 341.558C1244.92 341.446 1245.16 341.316 1245.38 341.195C1245.65 341.053 1245.86 340.899 1246.01 340.64C1246.19 340.336 1246.33 339.991 1246.38 339.647C1246.48 338.939 1246.37 338.31 1246.13 337.643C1246.14 337.638 1245.83 336.98 1245.81 336.918ZM1243.85 343.887C1243.46 344.076 1242.96 344.361 1242.51 344.21C1242 344.065 1241.92 343.462 1241.76 343.018L1241.09 341.18C1240.92 340.721 1240.81 340.238 1240.64 339.761C1240.49 339.35 1240.27 338.985 1240.14 338.545C1240 338.11 1239.88 337.67 1239.7 337.25C1239.52 336.795 1239.3 336.3 1239.23 335.803C1239.16 335.216 1239.68 334.888 1240.15 334.684C1240.39 334.593 1240.65 334.565 1240.89 334.507C1241.11 334.438 1241.32 334.321 1241.53 334.203C1241.96 333.981 1242.38 333.802 1242.85 333.688C1243.39 333.552 1243.98 333.627 1244.51 333.711C1245.57 333.879 1246.66 334.233 1247.29 335.181C1247.83 335.984 1248.28 336.876 1248.49 337.845C1248.62 338.391 1248.72 338.951 1248.62 339.498C1248.5 340.088 1248.33 340.75 1248 341.275C1247.67 341.806 1247.27 342.232 1246.76 342.592C1246.33 342.908 1245.8 343.092 1245.31 343.285C1244.81 343.478 1244.34 343.66 1243.85 343.887Z" fill="#161E2B"/>
<path d="M1248.69 329.545L1248.5 332.816L1247.55 332.043L1247.2 328.339L1248.69 329.545Z" fill="#161E2B"/>
</g>
<defs>
<linearGradient id="paint0_linear_3173_79779" x1="0" y1="38" x2="1461.74" y2="477.8" gradientUnits="userSpaceOnUse">
<stop stop-color="#CFE1B3"/>
<stop offset="1" stop-color="#A9CDDD"/>
</linearGradient>
<clipPath id="clip0_3173_79779">
<rect width="440" height="459" fill="white" transform="translate(1068)"/>
</clipPath>
</defs>
</svg>
