<svg width="55" height="55" viewBox="0 0 55 55" fill="none" xmlns="http://www.w3.org/2000/svg">
<path d="M5.92367 6.05594C6.10509 5.87451 6.29102 5.69787 6.48093 5.52546C6.67111 5.35332 6.86527 5.18569 7.06367 5.0231C7.2618 4.8605 7.46418 4.70269 7.67 4.54991C7.87609 4.39713 8.0859 4.24939 8.29915 4.10696C8.5124 3.96453 8.7291 3.8274 8.94925 3.69557C9.16914 3.56375 9.3922 3.43723 9.61845 3.31628C9.8447 3.1956 10.0739 3.08022 10.3057 2.97068C10.5375 2.86087 10.772 2.75689 11.0091 2.65875C11.246 2.56062 11.4852 2.46831 11.7268 2.38211C11.9685 2.29564 12.212 2.21527 12.4573 2.14074C12.7029 2.06621 12.9499 1.99804 13.1987 1.93571C13.4477 1.87338 13.6978 1.81715 13.9493 1.76702C14.201 1.71715 14.4538 1.67312 14.7073 1.63573C14.9612 1.59806 15.2155 1.5665 15.471 1.54157C15.7261 1.51637 15.9818 1.49754 16.238 1.4848C16.4942 1.47234 16.7507 1.46597 17.0072 1.46597C17.2637 1.46597 17.5199 1.47234 17.7761 1.4848C18.0324 1.49754 18.2883 1.51637 18.5435 1.54157C18.7986 1.5665 19.0533 1.59806 19.3071 1.63573C19.5607 1.67312 19.8134 1.71715 20.0649 1.76702C20.3166 1.81715 20.5667 1.87338 20.8155 1.93571C21.0643 1.99804 21.3115 2.06621 21.5571 2.14074C21.8025 2.21527 22.046 2.29564 22.2876 2.38211C22.529 2.46831 22.7682 2.56062 23.0053 2.65875C23.2422 2.75689 23.4767 2.86087 23.7088 2.97068C23.9406 3.08022 24.1695 3.1956 24.3957 3.31628C24.622 3.43723 24.8453 3.56375 25.0652 3.69557C25.2853 3.8274 25.502 3.96453 25.7153 4.10696C25.9285 4.24939 26.1381 4.39713 26.3442 4.54991C26.5503 4.70269 26.7524 4.8605 26.9508 5.0231C27.1492 5.18569 27.3433 5.35332 27.5335 5.52546C27.7234 5.69787 27.9093 5.87451 28.0905 6.05594C28.2637 6.2294 28.4327 6.40685 28.5974 6.58801C28.7621 6.76943 28.9226 6.95457 29.0788 7.14342C29.2347 7.33227 29.3865 7.52483 29.5334 7.72084C29.6806 7.91659 29.823 8.11605 29.9607 8.31869C30.0984 8.52134 30.2315 8.72716 30.3596 8.93591C30.4877 9.14491 30.6108 9.35658 30.7291 9.57115C30.8471 9.78573 30.9604 10.003 31.0683 10.2231C31.1766 10.443 31.2792 10.6653 31.3768 10.8899C31.4744 11.1148 31.5667 11.3416 31.6537 11.5708C31.7407 11.7997 31.8224 12.0307 31.8985 12.2636C31.9747 12.4965 32.0455 12.7312 32.1107 12.9673C32.176 13.2036 32.2354 13.441 32.2895 13.68C32.3436 13.919 32.3922 14.1593 32.4349 14.4004C32.4778 14.6417 32.515 14.8839 32.5465 15.1269C32.5781 15.3698 32.6038 15.6133 32.624 15.8576C32.6439 16.1019 32.6582 16.3464 32.6669 16.5912C32.6757 16.8361 32.6786 17.0811 32.6757 17.326C32.6728 17.571 32.6643 17.8159 32.65 18.0604C32.6356 18.3052 32.6158 18.5492 32.59 18.793C32.5643 19.0365 32.533 19.2794 32.4959 19.5219C32.4587 19.764 32.416 20.0051 32.3675 20.2454C32.3192 20.4855 32.2651 20.7245 32.2057 20.9621C32.146 21.1998 32.081 21.4361 32.0102 21.6706C31.9397 21.9053 31.8635 22.1382 31.7821 22.3692C31.7004 22.6002 31.6137 22.8294 31.5214 23.0562C31.4291 23.2832 31.3315 23.5079 31.2288 23.7304C31.1259 23.953 31.018 24.1728 30.905 24.3901C30.792 24.6076 30.6739 24.8221 30.5506 25.0341C30.4275 25.2457 30.2994 25.4547 30.1665 25.6606C30.0336 25.8664 29.896 26.069 29.7538 26.2685C29.6114 26.468 29.4644 26.6637 29.3127 26.8563C29.1613 27.0488 29.0051 27.2377 28.8448 27.4231L34.695 33.2504C34.7891 33.2249 34.8846 33.2053 34.9814 33.192C35.0782 33.1788 35.1753 33.1719 35.2729 33.1708C35.3705 33.17 35.4679 33.1756 35.5649 33.1873C35.6618 33.1987 35.7575 33.2164 35.8522 33.2406C35.9469 33.2644 36.0397 33.2942 36.1304 33.33C36.2214 33.3658 36.3095 33.4074 36.3951 33.4544C36.4806 33.5016 36.5628 33.5538 36.6416 33.6116C36.7203 33.6692 36.7951 33.7315 36.8659 33.7989L53.5712 50.4583C53.6246 50.5114 53.6752 50.5668 53.7232 50.6246C53.7712 50.6827 53.8161 50.7429 53.858 50.8052C53.9001 50.8678 53.9389 50.932 53.9744 50.9983C54.0102 51.0647 54.0423 51.1326 54.0715 51.202C54.1004 51.2713 54.1259 51.3421 54.1476 51.414C54.1696 51.4861 54.1879 51.5588 54.2028 51.6328C54.2176 51.7065 54.2285 51.7808 54.2359 51.8556C54.2434 51.9304 54.2471 52.0055 54.2471 52.0808C54.2471 52.1561 54.2434 52.2312 54.2359 52.306C54.2285 52.3808 54.2176 52.455 54.2028 52.529C54.1879 52.6028 54.1696 52.6754 54.1476 52.7476C54.1259 52.8195 54.1004 52.8903 54.0715 52.9595C54.0423 53.029 54.0102 53.0969 53.9744 53.1632C53.9389 53.2295 53.9001 53.2937 53.858 53.3563C53.8161 53.4186 53.7712 53.4789 53.7232 53.5369C53.6752 53.5948 53.6246 53.6505 53.5712 53.7033C53.4643 53.8093 53.3482 53.9038 53.223 53.9865C53.0975 54.0695 52.9652 54.1396 52.8259 54.1963C52.6867 54.2534 52.5432 54.2961 52.3957 54.3244C52.248 54.3531 52.0989 54.3669 51.9485 54.3661C51.7981 54.3669 51.6493 54.3531 51.5016 54.3244C51.3538 54.2961 51.2106 54.2534 51.0714 54.1963C50.9321 54.1396 50.7998 54.0695 50.6743 53.9865C50.5488 53.9038 50.4329 53.8093 50.326 53.7033L33.621 36.9982C33.5489 36.9247 33.482 36.8465 33.4205 36.764C33.359 36.6813 33.3033 36.5951 33.2531 36.5049C33.2033 36.4147 33.1598 36.3219 33.1224 36.2258C33.0852 36.1298 33.0545 36.0317 33.0303 35.9314C33.0064 35.8312 32.9892 35.7298 32.9789 35.6275C32.9685 35.5251 32.9651 35.4222 32.9688 35.3193C32.9722 35.2163 32.9826 35.1142 33.0001 35.0126C33.0176 34.911 33.0417 34.8111 33.0725 34.7129L27.2908 28.9769C27.1009 29.1344 26.9075 29.2872 26.7105 29.4355C26.5131 29.5837 26.3129 29.7275 26.1089 29.8662C25.9049 30.0049 25.698 30.1389 25.4877 30.268C25.2776 30.3969 25.0644 30.5208 24.8482 30.6399C24.6323 30.7587 24.4135 30.8725 24.192 30.9813C23.9705 31.0897 23.7467 31.1932 23.5204 31.2911C23.2942 31.3892 23.0655 31.4818 22.8348 31.569C22.604 31.6563 22.3714 31.738 22.1369 31.8141C21.9022 31.8905 21.6661 31.9611 21.4282 32.026C21.1903 32.0913 20.9511 32.1507 20.7102 32.2043C20.4694 32.2581 20.2278 32.3061 19.9848 32.3483C19.7416 32.3907 19.4978 32.4273 19.253 32.4581C19.0084 32.4889 18.7631 32.5138 18.5172 32.5332C18.2714 32.5523 18.0249 32.5655 17.7785 32.5732C17.5321 32.5807 17.2855 32.5825 17.0388 32.5783C16.7921 32.5743 16.5457 32.5645 16.2996 32.5486C16.0534 32.5329 15.8078 32.5114 15.5627 32.4838C15.3176 32.4565 15.0734 32.4234 14.8296 32.3846C14.5861 32.3457 14.3437 32.3011 14.1023 32.2507C13.8607 32.2003 13.6206 32.1443 13.3819 32.0825C13.1429 32.0207 12.9058 31.9534 12.6703 31.8804C12.4345 31.8075 12.2008 31.7292 11.969 31.6452C11.7369 31.5611 11.5072 31.4717 11.2796 31.377C11.0518 31.282 10.8266 31.1818 10.6035 31.0765C10.3807 30.9709 10.1603 30.8603 9.94257 30.7444C9.72481 30.6285 9.50997 30.5073 9.29804 30.3813C9.08612 30.2553 8.87711 30.1243 8.67128 29.9882C8.46545 29.8524 8.26308 29.7116 8.06388 29.5662C7.86469 29.4206 7.66921 29.2705 7.47717 29.1158C7.28514 28.9609 7.09682 28.8018 6.91222 28.6381C6.72761 28.4745 6.54725 28.3066 6.3706 28.1345C6.19395 27.962 6.02154 27.7859 5.85312 27.6056C5.68495 27.4252 5.52103 27.2409 5.36163 27.0528C5.20195 26.8648 5.04705 26.673 4.8964 26.4775C4.74601 26.2823 4.60012 26.0834 4.45902 25.881C4.31791 25.6786 4.18184 25.4733 4.05029 25.2646C3.91899 25.0556 3.79274 24.8439 3.67126 24.6293C3.55004 24.4145 3.4336 24.197 3.32273 23.9768C3.2116 23.7567 3.10577 23.5339 3.00524 23.3087C2.90472 23.0835 2.80949 22.8559 2.71958 22.6262C2.62993 22.3965 2.54558 22.1647 2.46654 21.931C2.38776 21.6974 2.31456 21.4621 2.24666 21.2247C2.17902 20.9876 2.11695 20.7491 2.06046 20.5088C2.00396 20.2688 1.9533 20.0274 1.90821 19.785C1.86312 19.5426 1.82386 19.2991 1.79045 19.0548C1.75703 18.8105 1.72918 18.5654 1.70716 18.3198C1.68515 18.0739 1.66923 17.8281 1.65889 17.5816C1.64854 17.335 1.64404 17.0886 1.64536 16.8419C1.64669 16.5952 1.65385 16.3488 1.66684 16.1024C1.67984 15.8563 1.69867 15.6104 1.72308 15.365C1.74774 15.1194 1.77824 14.8749 1.81432 14.6309C1.85065 14.3868 1.89256 14.1439 1.94004 13.9017C1.98779 13.6598 2.0411 13.419 2.10025 13.1797C2.15913 12.9402 2.22385 12.7023 2.29414 12.4657C2.36442 12.2294 2.44028 11.9946 2.52171 11.7618C2.60314 11.5292 2.68987 11.2984 2.78218 11.0695C2.87448 10.8409 2.97209 10.6143 3.075 10.3902C3.17791 10.1661 3.28613 9.94461 3.39965 9.72552C3.51318 9.5067 3.63174 9.29027 3.75534 9.07701C3.8792 8.8635 4.00785 8.65316 4.14126 8.44601C4.27494 8.23859 4.41339 8.03462 4.55663 7.83384C4.69986 7.63305 4.84786 7.43571 5.00064 7.24209C5.15315 7.0482 5.31017 6.85802 5.4717 6.67182C5.63323 6.48536 5.79927 6.30288 5.96955 6.12437L5.92367 6.05594ZM7.52333 26.6231C7.67849 26.778 7.8371 26.9289 7.99943 27.0761C8.16202 27.2234 8.3278 27.3663 8.49728 27.5053C8.66677 27.6443 8.83944 27.779 9.01556 27.9095C9.19168 28.04 9.37072 28.166 9.55294 28.2878C9.73516 28.4092 9.92029 28.5265 10.1083 28.6392C10.2964 28.7517 10.4868 28.8596 10.6802 28.9628C10.8736 29.0662 11.0693 29.1646 11.2674 29.2583C11.4656 29.3519 11.6658 29.4405 11.8682 29.5243C12.0706 29.6081 12.2751 29.6869 12.4814 29.7606C12.6878 29.8344 12.8957 29.9031 13.1055 29.9667C13.3154 30.0304 13.5265 30.0887 13.7389 30.1418C13.9517 30.1951 14.1652 30.2428 14.3803 30.2855C14.5951 30.3282 14.811 30.3656 15.0277 30.3977C15.2444 30.4298 15.4619 30.4566 15.68 30.4781C15.8983 30.4996 16.1165 30.5158 16.3354 30.5264C16.5545 30.537 16.7733 30.5423 16.9924 30.5423C17.2117 30.5423 17.4305 30.537 17.6494 30.5261C17.8685 30.5152 18.0867 30.4991 18.3048 30.4776C18.5231 30.4561 18.7403 30.4293 18.9573 30.3969C19.174 30.3648 19.3899 30.3272 19.6047 30.2845C19.8195 30.2418 20.0333 30.1938 20.2458 30.1405C20.4585 30.0871 20.6696 30.0285 20.8792 29.9651C21.089 29.9015 21.2969 29.8325 21.5033 29.7588C21.7094 29.6848 21.9139 29.606 22.1163 29.5222C22.3186 29.4381 22.5189 29.3495 22.717 29.2556C22.9152 29.162 23.1109 29.0633 23.304 28.9601C23.4974 28.8567 23.6878 28.7487 23.8759 28.636C24.0639 28.5236 24.2488 28.4063 24.431 28.2843C24.6132 28.1626 24.7923 28.0366 24.9684 27.9058C25.1442 27.7753 25.3169 27.6406 25.4864 27.5016C25.6556 27.3626 25.8216 27.2194 25.984 27.0722C26.1463 26.925 26.3049 26.774 26.4598 26.6189C26.6147 26.464 26.7659 26.3054 26.9131 26.143C27.0601 25.9807 27.2033 25.8147 27.3423 25.6452C27.4813 25.476 27.616 25.3033 27.7465 25.1272C27.877 24.9511 28.0032 24.772 28.1247 24.5898C28.2465 24.4076 28.3637 24.2224 28.4764 24.0346C28.5892 23.8466 28.6971 23.6559 28.8003 23.4628C28.9035 23.2694 29.0021 23.0737 29.0958 22.8756C29.1894 22.6777 29.2782 22.4772 29.3621 22.2748C29.4459 22.0724 29.5247 21.8679 29.5987 21.6616C29.6724 21.4555 29.7411 21.2472 29.8047 21.0377C29.8681 20.8279 29.9268 20.6168 29.9798 20.4043C30.0331 20.1916 30.0811 19.9778 30.1238 19.763C30.1665 19.5481 30.2042 19.3322 30.2363 19.1155C30.2684 18.8988 30.2952 18.6813 30.3167 18.4633C30.3381 18.245 30.3543 18.0267 30.3649 17.8079C30.3758 17.5888 30.3811 17.37 30.3811 17.1509C30.3811 16.9315 30.3758 16.7127 30.3649 16.4939C30.3543 16.2748 30.3381 16.0565 30.3167 15.8385C30.2952 15.6202 30.2684 15.403 30.2363 15.186C30.2042 14.9693 30.1665 14.7534 30.1238 14.5386C30.0811 14.3237 30.0331 14.1099 29.9798 13.8975C29.9268 13.6847 29.8681 13.4736 29.8047 13.2638C29.7411 13.0543 29.6724 12.8463 29.5987 12.64C29.5247 12.4336 29.4459 12.2291 29.3621 12.0267C29.2782 11.8244 29.1894 11.6241 29.0958 11.426C29.0021 11.2278 28.9035 11.0321 28.8003 10.8387C28.6971 10.6456 28.5892 10.4549 28.4764 10.2669C28.3637 10.0791 28.2465 9.89395 28.1247 9.71173C28.0032 9.52951 27.877 9.35047 27.7465 9.17436C27.616 8.9985 27.4813 8.82557 27.3423 8.65634C27.2033 8.48686 27.0601 8.32108 26.9128 8.15849C26.7659 7.99616 26.6147 7.83755 26.4598 7.68265C26.3049 7.52749 26.1463 7.37656 25.984 7.22936C25.8216 7.08215 25.6556 6.93892 25.4864 6.79993C25.3169 6.66095 25.1442 6.52621 24.9684 6.39571C24.7923 6.26495 24.6132 6.13896 24.431 6.01721C24.2488 5.89547 24.0639 5.77823 23.8759 5.66551C23.6878 5.55278 23.4974 5.44483 23.304 5.34138C23.1109 5.23821 22.9152 5.13954 22.717 5.04591C22.5189 4.95201 22.3186 4.86342 22.1163 4.77934C21.9139 4.69553 21.7094 4.61675 21.5033 4.54275C21.2969 4.46901 21.089 4.40031 20.8792 4.33666C20.6696 4.273 20.4585 4.21438 20.2458 4.16107C20.0333 4.10776 19.8195 4.05975 19.6047 4.01704C19.3899 3.97434 19.174 3.93668 18.9573 3.90458C18.7403 3.87249 18.5231 3.84543 18.3048 3.82395C18.0867 3.80247 17.8685 3.78629 17.6494 3.77541C17.4305 3.7648 17.2117 3.75923 16.9924 3.75923C16.7733 3.75923 16.5545 3.76454 16.3354 3.77515C16.1165 3.78602 15.8983 3.80193 15.68 3.82342C15.4619 3.8449 15.2444 3.87169 15.0277 3.90379C14.811 3.93588 14.5951 3.97328 14.3803 4.01598C14.1652 4.05869 13.9517 4.10643 13.7389 4.15974C13.5265 4.21306 13.3154 4.27141 13.1055 4.3348C12.8957 4.39846 12.6878 4.46715 12.4814 4.54089C12.2751 4.61463 12.0706 4.6934 11.8682 4.77722C11.6658 4.86104 11.4656 4.94963 11.2674 5.04325C11.0693 5.13688 10.8736 5.23555 10.6802 5.33873C10.4868 5.44191 10.2964 5.54986 10.1083 5.66232C9.92029 5.77505 9.73516 5.89229 9.55294 6.01376C9.37072 6.13551 9.19168 6.26176 9.01556 6.39226C8.83944 6.52249 8.66677 6.65724 8.49728 6.79622C8.3278 6.93521 8.16202 7.07844 7.99943 7.22538C7.8371 7.37259 7.67849 7.52351 7.52333 7.67841C7.36737 7.83251 7.21538 7.99059 7.06712 8.15212C6.91885 8.31392 6.77482 8.47916 6.63477 8.64786C6.49473 8.81681 6.35892 8.98895 6.22737 9.16454C6.09581 9.33987 5.96876 9.51864 5.84622 9.70059C5.72341 9.88228 5.60538 10.0672 5.49186 10.2547C5.37834 10.4425 5.26932 10.6326 5.16535 10.8257C5.06111 11.0188 4.96191 11.2143 4.86749 11.4122C4.77306 11.6103 4.68341 11.8103 4.59906 12.0127C4.51445 12.2151 4.43488 12.4196 4.36061 12.6259C4.28608 12.832 4.21685 13.0402 4.15267 13.2498C4.08848 13.4596 4.02959 13.6707 3.97602 13.8834C3.92217 14.0961 3.8739 14.3099 3.83067 14.525C3.7877 14.7401 3.74977 14.956 3.71741 15.173C3.68505 15.39 3.65799 15.6075 3.63625 15.8258C3.61449 16.0441 3.59832 16.2626 3.58744 16.4817C3.57656 16.7008 3.57126 16.9201 3.57126 17.1392C3.57126 17.3586 3.57656 17.5779 3.58744 17.797C3.59832 18.0161 3.61449 18.2347 3.63625 18.453C3.65799 18.6712 3.68505 18.8887 3.71741 19.1057C3.74977 19.3227 3.7877 19.5386 3.83067 19.7537C3.8739 19.9688 3.92217 20.1826 3.97602 20.3953C4.02959 20.608 4.08848 20.8192 4.15267 21.029C4.21685 21.2385 4.28608 21.4467 4.36061 21.6528C4.43488 21.8592 4.51445 22.0637 4.59906 22.266C4.68341 22.4684 4.77306 22.6684 4.86749 22.8665C4.96191 23.0644 5.06111 23.2599 5.16535 23.453C5.26932 23.6461 5.37834 23.8363 5.49186 24.024C5.60538 24.2116 5.72341 24.3964 5.84622 24.5781C5.96876 24.7601 6.09581 24.9389 6.22737 25.1142C6.35892 25.2898 6.49473 25.4619 6.63477 25.6309C6.77482 25.7996 6.91885 25.9648 7.06712 26.1266C7.21538 26.2881 7.36737 26.4462 7.52333 26.6003V26.6231Z" fill="#7E9E62"/>
<path d="M9.00934 9.14094C9.06319 9.08869 9.12154 9.04227 9.1844 9.00116C9.247 8.96031 9.31331 8.92583 9.3828 8.89772C9.45229 8.86934 9.52391 8.84812 9.59764 8.83379C9.67112 8.81947 9.74538 8.81231 9.82045 8.81231C9.89551 8.81231 9.96977 8.81947 10.0435 8.83379C10.117 8.84812 10.1886 8.86934 10.2581 8.89772C10.3276 8.92583 10.3939 8.96031 10.4568 9.00116C10.5196 9.04227 10.578 9.08869 10.6318 9.14094C10.6583 9.16746 10.6838 9.19531 10.7077 9.22423C10.7318 9.25314 10.7544 9.28337 10.7753 9.31441C10.7963 9.34571 10.8156 9.3778 10.8334 9.41095C10.8512 9.44411 10.8673 9.47806 10.8819 9.51281C10.8963 9.54755 10.909 9.58283 10.9201 9.6189C10.931 9.65497 10.9403 9.69131 10.9474 9.72818C10.9549 9.76505 10.9604 9.80218 10.9642 9.83958C10.9679 9.87698 10.9697 9.91464 10.9697 9.95231C10.9697 9.98997 10.9679 10.0274 10.9642 10.0648C10.9604 10.1022 10.9549 10.1393 10.9474 10.1764C10.9403 10.2133 10.931 10.2496 10.9201 10.2857C10.909 10.3215 10.8963 10.3571 10.8819 10.3918C10.8673 10.4263 10.8512 10.4602 10.8334 10.4934C10.8156 10.5266 10.7963 10.5586 10.7753 10.5899C10.7544 10.6212 10.7318 10.6512 10.7077 10.6804C10.6838 10.7093 10.6583 10.7372 10.6318 10.7634C10.5342 10.861 10.4392 10.961 10.3461 11.0629C10.2533 11.1647 10.1626 11.2687 10.0745 11.3748C9.98622 11.4806 9.90055 11.5886 9.81726 11.6986C9.73398 11.8085 9.65308 11.9201 9.57483 12.0336C9.49659 12.1474 9.42073 12.2625 9.34779 12.3795C9.27485 12.4965 9.20429 12.615 9.13666 12.7352C9.06902 12.8554 9.00404 12.9771 8.94197 13.1002C8.87964 13.2232 8.82023 13.3476 8.76373 13.4736C8.70724 13.5993 8.65366 13.7264 8.60273 13.8545C8.55207 13.9829 8.50406 14.1121 8.45924 14.2426C8.41415 14.3728 8.37224 14.5043 8.33325 14.6364C8.29426 14.7688 8.25819 14.9019 8.2253 15.0359C8.19241 15.1698 8.16243 15.3043 8.13538 15.4396C8.10859 15.5748 8.08472 15.7107 8.06403 15.847C8.04334 15.9833 8.02557 16.1202 8.01125 16.2573C7.99666 16.3944 7.98526 16.5318 7.97677 16.6695C7.96854 16.8071 7.96324 16.9451 7.96112 17.083C7.959 17.2207 7.96006 17.3586 7.9643 17.4965C7.96854 17.6344 7.97571 17.7721 7.98605 17.9095C7.99639 18.0471 8.00992 18.1843 8.02663 18.3211C8.04308 18.4583 8.0627 18.5946 8.08552 18.7307C8.10833 18.8667 8.13405 19.002 8.16297 19.137C8.19188 19.2718 8.22397 19.406 8.25898 19.5394C8.29399 19.6728 8.33192 19.8054 8.37277 19.937C8.41388 20.0688 8.45765 20.1996 8.50459 20.3293C8.55154 20.459 8.60141 20.5873 8.65392 20.7149C8.70671 20.8422 8.76214 20.9685 8.82076 21.0934C8.87911 21.2183 8.94038 21.3419 9.0043 21.4642C9.06823 21.5862 9.13507 21.7069 9.20456 21.826C9.27405 21.9451 9.3462 22.0626 9.42099 22.1785C9.49579 22.2944 9.57324 22.4085 9.65308 22.5209C9.73318 22.6334 9.81541 22.7437 9.90055 22.8525C9.92415 22.8814 9.9467 22.9114 9.96739 22.9427C9.98808 22.9737 10.0074 23.0058 10.0249 23.0389C10.0425 23.0721 10.0584 23.1061 10.0724 23.1408C10.0867 23.1753 10.0989 23.2106 10.1096 23.2466C10.1202 23.2824 10.1289 23.3188 10.1361 23.3556C10.143 23.3925 10.148 23.4296 10.1512 23.4668C10.1546 23.5042 10.156 23.5416 10.1554 23.579C10.1549 23.6166 10.1525 23.6538 10.1483 23.6912C10.144 23.7283 10.1379 23.7652 10.13 23.8018C10.122 23.8384 10.1122 23.8744 10.1008 23.9103C10.0891 23.9458 10.0759 23.9808 10.0608 24.015C10.0456 24.0492 10.0289 24.0827 10.0104 24.1153C9.99179 24.1479 9.9719 24.1795 9.95015 24.2102C9.92866 24.2407 9.90559 24.2702 9.88092 24.2986C9.85625 24.3267 9.83052 24.3537 9.8032 24.3795C9.77588 24.4052 9.7475 24.4293 9.71753 24.4521C9.62019 24.5394 9.51065 24.6068 9.38864 24.654C9.26663 24.7012 9.14011 24.7253 9.00934 24.7264C8.92367 24.7251 8.83906 24.7147 8.75577 24.6948C8.67249 24.6749 8.59212 24.6463 8.5152 24.6089C8.43802 24.5712 8.36614 24.5259 8.29903 24.4723C8.23219 24.419 8.17172 24.3588 8.11787 24.2922C8.01098 24.1564 7.90701 24.0182 7.80622 23.8776C7.70543 23.7371 7.60782 23.5944 7.51366 23.4495C7.41923 23.3044 7.32826 23.1575 7.24073 23.0084C7.15293 22.8594 7.06885 22.7082 6.98796 22.5554C6.90732 22.4024 6.82987 22.2477 6.75614 22.0915C6.6824 21.935 6.61238 21.7769 6.5458 21.6173C6.47923 21.4579 6.4161 21.2969 6.35695 21.1343C6.2978 20.9719 6.2421 20.808 6.19038 20.643C6.13839 20.4781 6.09039 20.312 6.04609 20.1449C6.0018 19.9778 5.96121 19.8097 5.92461 19.6407C5.88801 19.4717 5.85512 19.302 5.82621 19.1314C5.7973 18.9609 5.7721 18.7898 5.75088 18.6182C5.72993 18.4466 5.71242 18.2745 5.69916 18.102C5.6859 17.9296 5.67635 17.757 5.67078 17.5843C5.66521 17.4114 5.66362 17.2384 5.666 17.0655C5.66813 16.8926 5.67449 16.7199 5.68457 16.5472C5.69491 16.3745 5.70897 16.2024 5.72674 16.0303C5.74478 15.8584 5.76679 15.6868 5.79252 15.5157C5.81825 15.3449 5.84796 15.1743 5.88138 15.0048C5.9148 14.8351 5.9522 14.6664 5.99331 14.4982C6.03442 14.3303 6.07951 14.1635 6.12831 13.9975C6.17685 13.8317 6.22937 13.667 6.2856 13.5033C6.34183 13.3397 6.40178 13.1776 6.46543 13.0169C6.52909 12.8559 6.5962 12.6967 6.66702 12.5389C6.73783 12.3811 6.8121 12.2251 6.89008 12.0708C6.96806 11.9161 7.04949 11.7636 7.1341 11.613C7.21898 11.4623 7.3073 11.3135 7.39881 11.1668C7.49032 11.0202 7.58527 10.8756 7.68341 10.7334C7.78155 10.591 7.88287 10.451 7.98738 10.313C8.09188 10.1754 8.19957 10.0398 8.31017 9.90695C8.42078 9.77407 8.53457 9.64383 8.65101 9.51599C8.76745 9.38841 8.88707 9.26322 9.00934 9.14094Z" fill="#7E9E62"/>
</svg>
