<svg width="630" height="607" viewBox="0 0 630 607" fill="none" xmlns="http://www.w3.org/2000/svg">
<g clip-path="url(#clip0_98_737)">
<path d="M67.0287 477.887C64.2214 476.514 62.5626 474.614 61.3017 471.745C60.0986 469.002 59.2449 466.09 59.0869 463.104C59.0656 462.691 59.1324 462.208 58.777 461.918C58.458 461.667 57.9567 461.687 57.662 461.962C57.4584 462.147 57.4007 462.436 57.3916 462.703C57.2883 465.838 56.3373 468.9 55.0035 471.742C53.6607 474.614 51.8924 476.511 48.9028 477.881C48.4107 478.109 48.3924 478.58 48.6203 478.926C48.6993 479.128 48.8633 479.3 49.1337 479.385C53.928 480.91 56.2249 486.428 57.0786 490.796C57.2336 491.58 57.1272 492.886 57.5495 493.55C57.7592 493.887 58.2179 494.031 58.5886 493.864C59.0413 493.668 59.0656 493.196 59.0929 492.769C59.3877 488.041 61.6481 481.145 66.813 479.391C67.0652 479.303 67.2201 479.134 67.293 478.932C67.5087 478.583 67.4905 478.112 67.0287 477.887Z" fill="#EF6B47"/>
<path d="M166.9 145.164C161.987 142.778 159.083 139.464 156.868 134.447C154.75 129.658 153.253 124.567 152.967 119.351C152.928 118.628 153.043 117.782 152.417 117.278C151.864 116.834 150.983 116.877 150.47 117.352C150.117 117.682 150.014 118.186 149.999 118.654C149.829 124.134 148.176 129.488 145.855 134.467C143.515 139.488 140.431 142.81 135.212 145.216C134.349 145.615 134.322 146.437 134.72 147.046C134.859 147.397 135.148 147.699 135.619 147.845C144.007 150.491 148.036 160.134 149.549 167.771C149.82 169.141 149.643 171.418 150.382 172.586C150.749 173.169 151.551 173.415 152.201 173.128C152.991 172.783 153.031 171.957 153.076 171.214C153.575 162.947 157.506 150.878 166.527 147.798C166.967 147.646 167.237 147.342 167.368 146.993C167.739 146.384 167.711 145.559 166.9 145.164Z" fill="#FFF4ED"/>
<path d="M281.206 82.3765C277.94 81.0036 275.935 78.9603 274.313 75.7901C272.76 72.7604 271.599 69.5228 271.22 66.1535C271.165 65.6881 271.208 65.1348 270.785 64.8304C270.408 64.564 269.84 64.6196 269.527 64.9504C269.312 65.1729 269.263 65.5036 269.272 65.8081C269.366 69.3589 268.5 72.8862 267.185 76.1882C265.857 79.5165 263.989 81.7764 260.701 83.5181C260.158 83.805 260.17 84.3377 260.452 84.7154C260.556 84.9378 260.753 85.1252 261.063 85.2042C266.592 86.621 269.564 92.7215 270.828 97.6129C271.056 98.4882 271.028 99.9723 271.551 100.701C271.809 101.064 272.338 101.196 272.748 100.988C273.246 100.736 273.24 100.201 273.24 99.7177C273.255 94.349 275.346 86.4015 281.066 84.0918C281.346 83.9806 281.507 83.7728 281.58 83.5415C281.799 83.1376 281.747 82.6048 281.206 82.3765Z" fill="#D892C0"/>
<path d="M603.088 254.977C599.566 253.256 597.485 250.873 595.902 247.273C594.392 243.833 593.326 240.177 593.128 236.433C593.101 235.915 593.183 235.309 592.736 234.946C592.338 234.624 591.707 234.656 591.339 234.996C591.087 235.233 591.011 235.593 590.999 235.933C590.868 239.864 589.674 243.704 588.003 247.273C586.317 250.873 584.102 253.253 580.35 254.972C579.73 255.258 579.706 255.847 579.991 256.286C580.095 256.535 580.301 256.751 580.638 256.863C586.651 258.768 589.534 265.694 590.604 271.174C590.795 272.158 590.667 273.794 591.196 274.634C591.457 275.053 592.035 275.228 592.503 275.023C593.068 274.775 593.095 274.183 593.128 273.653C593.502 267.72 596.34 259.064 602.814 256.863C603.133 256.76 603.325 256.541 603.419 256.289C603.689 255.856 603.668 255.261 603.088 254.977Z" fill="#FFF4ED"/>
<path d="M282.929 605.999C280.383 604.755 278.879 603.031 277.734 600.422C276.637 597.934 275.865 595.291 275.722 592.583C275.704 592.208 275.762 591.766 275.44 591.506C275.151 591.275 274.695 591.295 274.428 591.544C274.246 591.717 274.191 591.977 274.182 592.217C274.088 595.063 273.225 597.841 272.016 600.422C270.794 603.031 269.19 604.752 266.477 605.996C266.03 606.201 266.012 606.628 266.219 606.944C266.292 607.126 266.441 607.284 266.687 607.36C271.037 608.742 273.122 613.753 273.896 617.717C274.036 618.431 273.942 619.614 274.325 620.222C274.516 620.521 274.932 620.653 275.27 620.504C275.68 620.322 275.701 619.895 275.725 619.511C275.993 615.217 278.047 608.955 282.731 607.366C282.962 607.287 283.102 607.129 283.169 606.947C283.363 606.631 283.348 606.204 282.929 605.999Z" fill="#FFF4ED"/>
<path d="M129.707 312.314C127.161 311.067 125.654 309.343 124.508 306.738C123.414 304.249 122.643 301.606 122.5 298.895C122.479 298.521 122.539 298.079 122.217 297.821C121.929 297.587 121.473 297.61 121.206 297.856C121.02 298.029 120.969 298.289 120.96 298.532C120.865 301.375 120.003 304.156 118.793 306.738C117.572 309.343 115.968 311.064 113.255 312.308C112.808 312.513 112.79 312.94 112.996 313.257C113.069 313.438 113.218 313.599 113.464 313.675C117.815 315.057 119.899 320.065 120.674 324.032C120.814 324.743 120.72 325.926 121.102 326.535C121.294 326.836 121.71 326.965 122.047 326.816C122.457 326.637 122.479 326.21 122.503 325.823C122.77 321.529 124.824 315.271 129.509 313.678C129.74 313.599 129.88 313.444 129.947 313.262C130.141 312.946 130.126 312.519 129.707 312.314Z" fill="#79B3D1"/>
<path d="M480.806 411.645C477.142 409.854 474.973 407.375 473.326 403.622C471.753 400.039 470.641 396.233 470.434 392.334C470.404 391.796 470.492 391.163 470.03 390.786C469.614 390.452 468.954 390.481 468.569 390.838C468.307 391.084 468.228 391.462 468.216 391.813C468.083 395.905 466.837 399.907 465.099 403.622C463.34 407.372 461.031 409.848 457.127 411.64C456.48 411.935 456.458 412.55 456.756 413.007C456.859 413.267 457.075 413.495 457.428 413.607C463.692 415.594 466.691 422.804 467.809 428.512C468.007 429.54 467.876 431.241 468.423 432.113C468.696 432.552 469.295 432.736 469.784 432.523C470.373 432.262 470.404 431.647 470.437 431.094C470.823 424.915 473.782 415.902 480.524 413.613C480.855 413.498 481.059 413.273 481.156 413.012C481.432 412.559 481.411 411.944 480.806 411.645Z" fill="#FFF4ED"/>
<path d="M522.566 512.373C518.286 510.277 515.752 507.376 513.822 502.994C511.984 498.805 510.681 494.358 510.441 489.801C510.408 489.165 510.514 488.425 509.967 487.986C509.481 487.596 508.712 487.632 508.266 488.053C507.956 488.337 507.868 488.776 507.852 489.189C507.694 493.972 506.239 498.65 504.204 502.991C502.153 507.376 499.455 510.274 494.885 512.367C494.132 512.712 494.105 513.433 494.454 513.965C494.575 514.273 494.828 514.536 495.235 514.665C502.56 516.989 506.066 525.42 507.369 532.091C507.606 533.288 507.448 535.282 508.092 536.303C508.411 536.813 509.11 537.026 509.681 536.775C510.368 536.476 510.408 535.756 510.447 535.109C510.9 527.885 514.354 517.349 522.238 514.674C522.624 514.539 522.861 514.276 522.973 513.971C523.299 513.438 523.277 512.721 522.566 512.373Z" fill="#D892C0"/>
<path d="M567.522 116.845C564.721 115.472 563.062 113.572 561.798 110.704C560.595 107.961 559.745 105.048 559.587 102.062C559.565 101.65 559.632 101.167 559.274 100.877C558.958 100.622 558.453 100.645 558.159 100.921C557.958 101.108 557.9 101.395 557.888 101.664C557.785 104.796 556.837 107.858 555.503 110.704C554.157 113.572 552.389 115.469 549.4 116.839C548.907 117.068 548.892 117.539 549.117 117.884C549.196 118.086 549.363 118.262 549.63 118.344C554.428 119.869 556.719 125.387 557.575 129.754C557.73 130.536 557.624 131.841 558.046 132.512C558.256 132.846 558.715 132.986 559.085 132.825C559.538 132.623 559.565 132.155 559.59 131.73C559.884 126.997 562.145 120.103 567.31 118.347C567.562 118.265 567.717 118.092 567.79 117.887C568.005 117.542 567.99 117.07 567.522 116.845Z" fill="#B9D386"/>
<path d="M432.794 535.346C429.661 533.812 427.805 531.693 426.395 528.485C425.049 525.42 424.098 522.162 423.919 518.827C423.895 518.362 423.971 517.821 423.573 517.499C423.217 517.212 422.655 517.244 422.324 517.545C422.099 517.756 422.036 518.078 422.023 518.377C421.908 521.881 420.845 525.303 419.356 528.479C417.855 531.69 415.877 533.809 412.535 535.343C411.982 535.595 411.964 536.125 412.219 536.511C412.31 536.737 412.493 536.933 412.79 537.026C418.153 538.727 420.717 544.895 421.674 549.781C421.844 550.656 421.732 552.114 422.203 552.863C422.434 553.232 422.95 553.39 423.363 553.208C423.871 552.986 423.895 552.462 423.925 551.985C424.256 546.701 426.787 538.991 432.554 537.029C432.836 536.936 433.009 536.74 433.092 536.517C433.332 536.128 433.313 535.601 432.794 535.346Z" fill="#B9D386"/>
<path d="M56.7139 359.232C52.1961 357.022 49.5225 353.963 47.4899 349.338C45.5485 344.918 44.1783 340.229 43.9231 335.419C43.8866 334.752 43.996 333.97 43.4218 333.508C42.9114 333.095 42.0971 333.133 41.6262 333.575C41.3011 333.876 41.2039 334.339 41.1917 334.775C41.0216 339.819 39.4904 344.754 37.3423 349.335C35.1761 353.96 32.3293 357.017 27.5138 359.227C26.7178 359.59 26.6904 360.351 27.0581 360.91C27.1857 361.232 27.45 361.513 27.8844 361.65C35.6106 364.101 39.3081 372.991 40.6844 380.031C40.9335 381.298 40.7634 383.397 41.4439 384.474C41.7811 385.01 42.5194 385.238 43.118 384.975C43.8471 384.656 43.8866 383.895 43.9292 383.216C44.4061 375.596 48.0489 364.481 56.3675 361.656C56.7746 361.519 57.0207 361.241 57.1423 360.916C57.4886 360.357 57.4613 359.598 56.7139 359.232Z" fill="#D892C0"/>
<path d="M354.913 25.7045C352.3 24.4282 350.76 22.6601 349.584 19.9905C348.463 17.4379 347.673 14.7301 347.524 11.9521C347.503 11.5687 347.567 11.1179 347.235 10.8486C346.941 10.6144 346.47 10.6378 346.196 10.8895C346.011 11.0623 345.956 11.3316 345.947 11.5833C345.85 14.493 344.966 17.3442 343.726 19.9905C342.474 22.6572 340.831 24.4223 338.048 25.6986C337.589 25.9094 337.574 26.3514 337.784 26.6734C337.859 26.8608 338.011 27.0218 338.264 27.0979C342.724 28.5176 344.859 33.6491 345.655 37.7151C345.798 38.444 345.701 39.6559 346.093 40.2794C346.287 40.5926 346.716 40.7214 347.062 40.5692C347.481 40.3877 347.503 39.9486 347.527 39.5505C347.803 35.1508 349.906 28.7342 354.709 27.1037C354.946 27.0247 355.086 26.8637 355.159 26.6763C355.356 26.3543 355.344 25.9182 354.913 25.7045Z" fill="#B9D386"/>
<path d="M107.616 530.613C103.472 528.59 101.02 525.786 99.1575 521.541C97.3771 517.49 96.1193 513.187 95.8854 508.775C95.852 508.166 95.9522 507.449 95.4236 507.025C94.9557 506.65 94.2113 506.682 93.7769 507.086C93.4791 507.361 93.391 507.789 93.3789 508.187C93.2239 512.815 91.8203 517.34 89.8515 521.541C87.8645 525.78 85.2517 528.584 80.8372 530.61C80.108 530.944 80.0807 531.64 80.4179 532.155C80.5364 532.448 80.7764 532.706 81.1775 532.832C88.2625 535.083 91.6532 543.235 92.914 549.69C93.1419 550.849 92.99 552.775 93.6128 553.762C93.9227 554.253 94.5972 554.464 95.1501 554.221C95.8155 553.929 95.852 553.235 95.8914 552.608C96.3289 545.621 99.671 535.431 107.297 532.84C107.671 532.712 107.898 532.454 108.008 532.158C108.324 531.646 108.299 530.949 107.616 530.613Z" fill="#FFF4ED"/>
<path d="M408.294 590.3C404.618 588.502 402.442 586.014 400.789 582.25C399.21 578.658 398.095 574.841 397.888 570.93C397.858 570.383 397.946 569.75 397.481 569.376C397.065 569.039 396.405 569.071 396.019 569.428C395.755 569.674 395.676 570.049 395.667 570.406C395.53 574.507 394.282 578.523 392.535 582.25C390.772 586.008 388.457 588.5 384.541 590.294C383.894 590.59 383.87 591.207 384.167 591.664C384.274 591.924 384.49 592.153 384.842 592.267C391.125 594.258 394.133 601.491 395.254 607.219C395.454 608.247 395.321 609.954 395.874 610.835C396.147 611.268 396.749 611.455 397.235 611.239C397.827 610.981 397.858 610.363 397.891 609.81C398.283 603.607 401.245 594.571 408.011 592.273C408.342 592.159 408.546 591.933 408.643 591.667C408.923 591.216 408.901 590.598 408.294 590.3Z" fill="#79B3D1"/>
<path d="M228.937 184.076C224.936 182.129 222.569 179.427 220.764 175.344C219.039 171.439 217.817 167.294 217.583 163.038C217.553 162.449 217.647 161.756 217.137 161.349C216.684 160.986 215.967 161.024 215.548 161.413C215.262 161.682 215.177 162.089 215.165 162.473C215.028 166.934 213.679 171.301 211.79 175.356C209.882 179.451 207.369 182.156 203.116 184.117C202.411 184.442 202.389 185.115 202.715 185.607C202.827 185.894 203.061 186.14 203.447 186.263C210.283 188.417 213.567 196.274 214.797 202.497C215.019 203.616 214.873 205.469 215.475 206.423C215.776 206.897 216.429 207.099 216.961 206.862C217.602 206.581 217.635 205.908 217.672 205.308C218.082 198.566 221.284 188.733 228.633 186.222C228.992 186.099 229.211 185.853 229.32 185.563C229.624 185.071 229.596 184.398 228.937 184.076Z" fill="#B9D386"/>
<path d="M537.979 283.047C534.92 281.551 533.109 279.479 531.733 276.346C530.417 273.355 529.491 270.179 529.317 266.924C529.293 266.473 529.366 265.943 528.977 265.63C528.634 265.352 528.081 265.378 527.762 265.677C527.543 265.881 527.476 266.195 527.467 266.487C527.355 269.904 526.319 273.244 524.863 276.346C523.393 279.476 521.467 281.548 518.207 283.041C517.672 283.29 517.654 283.805 517.9 284.183C517.985 284.399 518.164 284.59 518.459 284.683C523.688 286.343 526.194 292.362 527.127 297.127C527.291 297.985 527.179 299.408 527.64 300.136C527.868 300.499 528.367 300.655 528.774 300.476C529.269 300.259 529.29 299.747 529.32 299.285C529.646 294.124 532.113 286.601 537.742 284.689C538.016 284.593 538.186 284.405 538.268 284.186C538.502 283.808 538.484 283.293 537.979 283.047Z" fill="#EF6B47"/>
<path d="M466.809 80.2336C459.658 74.783 425.809 84.042 403.457 108.652C381.102 133.261 351.388 204.848 351.388 204.848L442.015 225.792C442.015 225.792 469.003 169.559 476.182 146.592C483.365 123.616 479.4 89.8263 466.809 80.2336Z" fill="#79B3D1"/>
<path d="M385.106 110.724C380.236 108.801 355.523 123.891 348.113 133.516C340.7 143.135 228.275 332.866 228.275 332.866L277.664 350.963C277.664 350.963 382.749 157.136 384.714 150.998C386.683 144.859 394.002 114.237 385.106 110.724Z" fill="#FFF4ED"/>
<path d="M334.745 245.309C320.773 238.336 306.797 231.369 292.821 224.396C292.359 225.175 291.895 225.951 291.43 226.726C305.439 233.717 319.451 240.704 333.463 247.692C333.891 246.895 334.32 246.099 334.745 245.309Z" fill="#211736"/>
<path d="M330.461 253.265C316.124 246.673 301.915 239.832 287.836 232.745C287.371 233.521 286.909 234.296 286.444 235.072C300.557 242.182 314.803 249.041 329.176 255.651C329.605 254.855 330.033 254.061 330.461 253.265Z" fill="#211736"/>
<path d="M361.885 194.722C348.739 188.162 335.59 181.602 322.441 175.045C321.976 175.812 321.508 176.588 321.037 177.369C334.229 183.95 347.421 190.528 360.612 197.108C361.041 196.306 361.466 195.51 361.885 194.722Z" fill="#211736"/>
<path d="M357.672 202.606C344.139 196.423 330.717 190.018 317.409 183.394C316.945 184.164 316.48 184.936 316.009 185.715C329.356 192.366 342.818 198.794 356.392 204.997C356.824 204.195 357.249 203.396 357.672 202.606Z" fill="#211736"/>
<path d="M310.376 290.497C295.738 283.196 281.1 275.893 266.462 268.592C265.994 269.374 265.532 270.153 265.073 270.925C279.745 278.244 294.416 285.562 309.091 292.88C309.516 292.09 309.947 291.293 310.376 290.497Z" fill="#211736"/>
<path d="M304.67 297.569C290.138 290.96 275.747 284.081 261.479 276.958C261.017 277.743 260.553 278.519 260.094 279.294C274.44 286.455 288.917 293.378 303.531 300.025C305.156 300.766 306.299 298.31 304.67 297.569Z" fill="#211736"/>
<path d="M384.714 150.998C386.683 144.859 394.002 114.237 385.106 110.724C380.236 108.801 355.523 123.891 348.113 133.516C347.706 134.043 346.98 135.117 345.974 136.675C358.601 142.093 371.009 147.95 383.201 154.229C384.07 152.488 384.593 151.378 384.714 150.998Z" fill="#B9D386"/>
<path d="M486.412 164.273C481.505 162.435 457.084 177.955 449.856 187.703C442.625 197.454 333.797 389.117 333.797 389.117L383.52 406.35C383.52 406.35 484.929 210.717 486.78 204.543C488.63 198.373 495.372 167.628 486.412 164.273Z" fill="#FFF4ED"/>
<path d="M438.6 299.712C424.497 292.988 410.39 286.264 396.287 279.54C395.837 280.325 395.388 281.109 394.938 281.894C409.078 288.635 423.218 295.377 437.36 302.118C437.773 301.316 438.187 300.514 438.6 299.712Z" fill="#211736"/>
<path d="M434.465 307.744C420.006 301.404 405.669 294.812 391.459 287.971C391.01 288.755 390.563 289.54 390.113 290.324C404.359 297.186 418.727 303.798 433.222 310.154C433.635 309.352 434.049 308.547 434.465 307.744Z" fill="#211736"/>
<path d="M464.783 248.657C451.509 242.332 438.241 236.006 424.97 229.677C424.521 230.453 424.065 231.237 423.609 232.028C436.926 238.374 450.239 244.723 463.549 251.07C463.963 250.259 464.376 249.454 464.783 248.657Z" fill="#211736"/>
<path d="M460.715 256.617C447.067 250.669 433.523 244.501 420.097 238.114C419.645 238.889 419.195 239.671 418.739 240.461C432.208 246.875 445.791 253.066 459.481 259.032C459.898 258.221 460.308 257.419 460.715 256.617Z" fill="#211736"/>
<path d="M415.087 345.322C400.313 338.276 385.538 331.233 370.766 324.19C370.313 324.977 369.867 325.762 369.42 326.543C384.228 333.607 399.036 340.665 413.848 347.725C414.258 346.929 414.671 346.127 415.087 345.322Z" fill="#211736"/>
<path d="M409.515 352.491C394.862 346.136 380.343 339.511 365.942 332.644C365.492 333.431 365.045 334.219 364.599 334.998C379.082 341.909 393.683 348.574 408.422 354.97C410.059 355.679 411.156 353.205 409.515 352.491Z" fill="#211736"/>
<path d="M486.78 204.543C488.63 198.373 495.372 167.628 486.412 164.273C481.505 162.435 457.084 177.955 449.856 187.703C449.458 188.241 448.751 189.327 447.772 190.899C460.502 196.095 473.02 201.736 485.327 207.802C486.163 206.045 486.664 204.927 486.78 204.543Z" fill="#B9D386"/>
<path d="M164.943 478.308C168.914 474.166 172.53 469.626 176.069 465.045C175.924 465.946 175.756 466.845 175.541 467.749C175.279 468.874 176.805 469.772 177.734 469.061C183.826 464.395 188.389 458.517 192.321 452.094C195.763 446.465 199.175 440.608 201.833 434.534C201.952 435.868 202.07 437.203 202.186 438.541C202.286 439.665 203.942 440.233 204.665 439.264C213.093 427.924 218.413 414.944 220.23 401.104C220.269 400.797 220.211 400.533 220.09 400.311C220.737 399.755 220.868 398.516 219.856 397.963C215.56 395.604 211.291 392.855 206.758 390.949C203.1 389.407 199.041 388.631 195.207 387.609C194.305 387.369 193.758 387.978 193.679 388.684C188.669 391.163 184.911 394.916 181.213 399.02C177.16 403.525 173.347 408.109 170.749 413.554C170.269 414.555 171.394 415.84 172.509 415.363C173.763 414.827 175.015 414.292 176.267 413.756C172.363 418.428 168.793 423.688 166.332 428.825C163.206 435.342 158.928 443.471 159.32 450.815C159.387 452.086 161.009 452.326 161.799 451.538C162.908 450.432 164.02 449.328 165.129 448.225C162.865 457.849 161.969 467.679 162.464 477.588C162.525 478.841 164.163 479.122 164.943 478.308Z" fill="#EF6B47"/>
<path d="M251.748 519.594C258.04 514.211 262.849 507.467 268.752 501.829C268.379 503.131 268.002 504.431 267.625 505.734C267.261 506.995 268.895 507.534 269.819 507.042C280.525 501.334 289.437 493.015 295.622 482.834C302.41 471.669 304.394 459.354 305.749 446.673C305.77 446.474 305.749 446.29 305.697 446.126C306.131 445.815 306.377 445.291 306.119 444.659C304.278 440.163 300.325 438.029 295.829 436.372C290.111 434.264 285.423 431.299 280.167 428.348C268.734 421.926 257.004 416.566 244.769 411.777C244.532 411.004 243.532 410.357 242.569 410.899C231.79 416.944 222.596 425.304 215.876 435.444C208.985 445.836 206.424 457.612 201.59 468.868C201.162 469.869 202.207 471.177 203.349 470.677C204.853 470.024 206.299 469.295 207.712 468.525C208.721 476.859 206.667 484.42 202.666 492.011C199.096 498.779 195.21 506.536 195.225 514.287C195.228 515.531 196.966 515.821 197.704 515.007C198.531 514.094 199.384 513.251 200.262 512.467C195.067 524.67 196.562 538.238 198.294 551.18C198.452 552.339 199.977 552.816 200.773 551.9C207.527 544.134 214.904 536.974 222.873 530.411C222.198 532.7 221.524 534.992 220.846 537.281C220.576 538.197 221.815 539.213 222.709 538.762C233.154 533.487 242.928 527.144 251.748 519.594Z" fill="#EF6B47"/>
<path d="M307.642 528.657C314.028 523.64 320.575 518.476 325.011 511.682C327.517 507.838 329.359 503.529 331.033 499.174C331.154 499.715 331.282 500.254 331.397 500.798C331.649 501.946 333.007 502.441 333.876 501.518C343.556 491.261 348.478 474.886 344.987 461.403C344.954 461.263 344.899 461.151 344.838 461.049C344.787 460.791 344.653 460.537 344.413 460.311C342.818 458.818 340.922 457.884 338.804 457.258C336.38 456.541 333.272 456.509 331.148 455.136C330.173 454.506 329.079 455.194 328.866 456.011C321.353 459.53 315.656 465.577 309.926 471.315C303.704 477.544 297.947 484.107 293.927 491.888C293.286 493.12 294.915 494.247 296.017 493.527C296.871 492.971 297.725 492.485 298.591 492.057C292.691 499.938 288.963 509.03 287.687 518.772C287.544 519.867 288.89 520.841 289.88 520.083C290.965 519.249 292.065 518.447 293.174 517.659C290.853 525.344 287.672 532.691 283.658 539.722C283.102 540.697 284.354 542.023 285.42 541.531C293.283 537.904 299.636 532.486 305.448 526.468C305.445 526.872 305.442 527.281 305.439 527.688C305.427 528.692 306.867 529.263 307.642 528.657Z" fill="#EF6B47"/>
<path d="M267.255 482.617C267.559 484.23 267.966 485.831 268.479 487.444C268.749 488.293 269.898 488.551 270.606 488.071C274.947 485.117 277.697 479.239 280.331 474.857C283.473 469.629 286.274 464.213 288.72 458.649C292.906 449.117 296.704 438.772 294.419 428.331C294.225 427.441 293.353 427.093 292.627 427.213C292.508 426.943 292.28 426.709 291.901 426.572C286.207 424.481 281.179 420.732 275.424 418.542C269.22 416.186 262.798 414.412 256.417 412.559C255.214 412.21 254.285 413.34 254.455 414.204C248.676 420.67 242.891 427.139 237.113 433.609C231.629 439.741 225.628 445.666 221.575 452.812C220.919 453.968 222.621 455.3 223.666 454.451C224.693 453.622 225.771 452.943 226.883 452.358C223.216 458.227 221.062 465.414 219.23 471.444C217.583 476.862 215.809 482.362 215.159 487.986C214.509 493.606 214.779 499.276 215.052 504.908C215.113 506.114 216.781 506.495 217.532 505.628C219.509 503.342 221.585 501.167 223.76 499.095C222.7 502.215 221.855 505.403 220.798 508.55C219.345 512.879 216.073 516.717 215.235 521.143C215.016 522.296 216.456 523.122 217.428 522.452C223.098 518.552 228.806 514.519 234.038 510.081C236.861 507.689 239.325 504.999 241.631 502.177C241.208 504.601 240.516 506.975 239.531 509.34C239.006 510.596 240.452 511.717 241.621 510.982C252.82 503.939 261.625 494.162 267.255 482.617Z" fill="#FFA087"/>
<path d="M182.65 439.621C182.48 440.617 182.307 441.612 182.134 442.604C181.882 444.056 183.659 444.53 184.601 443.67C192.172 436.738 198.118 428.556 202.271 419.505C202.359 419.777 202.447 420.044 202.535 420.313C202.936 421.522 204.574 421.349 205.124 420.395C210.483 411.086 215.724 401.534 216.356 390.704C216.368 390.513 216.341 390.346 216.289 390.191C216.465 389.617 216.286 388.962 215.539 388.663C212.756 387.563 209.845 386.842 206.849 386.544C206.719 386.529 206.597 386.538 206.482 386.553C205.935 386.196 205.142 386.122 204.543 386.676C195.587 394.913 188.344 404.491 182.905 415.199C182.246 416.499 183.884 417.465 184.996 416.844L187.463 415.459C183.96 419.593 181.14 424.194 178.84 429.145C175.99 435.268 172.029 442.979 171.998 449.808C171.992 451.275 174.07 451.292 174.666 450.23C176.89 446.272 179.694 442.888 182.65 439.621Z" fill="#FFA087"/>
<path d="M323.297 497.262C323.385 497.652 323.477 498.035 323.568 498.422C323.844 499.607 325.135 500.014 326.047 499.142C331.716 493.726 336.115 484.514 338.434 477.252C340.974 469.295 343.009 460.095 343.544 451.796C343.653 450.081 340.898 449.63 340.788 451.357C340.779 451.486 340.761 451.614 340.752 451.746C340.396 451.638 339.992 451.667 339.594 451.928C327.098 460.063 318.558 471.561 310.291 483.49C309.556 484.546 310.482 486.08 311.862 485.594C312.463 485.386 313.065 485.173 313.669 484.962C308.805 491.815 304.609 499.051 301.119 506.671C300.572 507.862 302.091 509.138 303.209 508.31C303.838 507.845 304.467 507.379 305.096 506.914C303.485 510.125 301.905 513.421 301.213 516.749C300.976 517.879 302.455 518.766 303.403 518.064C311.293 512.218 317.987 505.216 323.297 497.262Z" fill="#FFA087"/>
<path d="M235.712 372.458C235.533 372.218 235.421 371.966 235.351 371.714L209.058 360.602C208.773 360.801 190.486 385.291 190.963 386.892C191.44 388.49 221.026 404.362 222.235 403.586C223.338 402.875 234.196 377.46 236.144 372.882C235.995 372.771 235.846 372.636 235.712 372.458Z" fill="#FFF4ED"/>
<path d="M364.146 440.139L339.336 425.682C339.336 425.682 318.506 451.371 319.375 453.116C320.244 454.864 348.438 470.018 350.055 470.074C351.671 470.129 364.146 440.139 364.146 440.139Z" fill="#FFF4ED"/>
<path d="M233.096 379.99C223.809 375.054 214.269 370.614 204.483 366.677C203.957 367.394 203.401 368.149 202.83 368.931C212.816 372.926 222.551 377.446 232.021 382.478C232.391 381.62 232.753 380.789 233.096 379.99Z" fill="#201636"/>
<path d="M230.061 386.977C220.263 381.834 210.237 377.118 199.995 372.841C199.454 373.597 198.914 374.352 198.382 375.104C208.806 379.439 219.005 384.225 228.97 389.462C229.335 388.637 229.7 387.808 230.061 386.977Z" fill="#201636"/>
<path d="M226.707 394.541C216.483 389.096 206.068 384.009 195.468 379.281C194.921 380.077 194.405 380.839 193.931 381.559C204.674 386.342 215.229 391.491 225.586 397.009C225.944 396.227 226.321 395.402 226.707 394.541Z" fill="#201636"/>
<path d="M361.284 446.898C352.543 441.533 343.58 436.518 334.414 431.841C333.867 432.534 333.296 433.257 332.707 434.01C342.095 438.778 351.27 443.904 360.205 449.404C360.582 448.532 360.944 447.695 361.284 446.898Z" fill="#201636"/>
<path d="M358.036 454.375C348.605 448.707 338.819 443.637 328.69 439.188C328.125 439.929 327.56 440.672 327.007 441.401C337.343 445.918 347.326 451.073 356.93 456.869C357.301 456.04 357.668 455.209 358.036 454.375Z" fill="#201636"/>
<path d="M354.928 461.26C344.774 455.692 334.408 450.493 323.841 445.678C323.27 446.465 322.735 447.217 322.246 447.926C332.968 452.797 343.477 458.063 353.773 463.707C354.147 462.931 354.533 462.114 354.928 461.26Z" fill="#201636"/>
<path d="M319.73 418.867C319.816 418.937 319.91 419.001 320.025 419.06C340.603 429.171 360.36 440.163 380.072 451.769C388.846 456.942 392.289 427.218 392.58 423.231C393.786 406.695 389.837 391.175 385.146 375.426C381.649 363.679 382.123 352.274 384.11 340.299C385.608 331.268 387.148 321.002 382.408 312.61C382.497 312.007 382.102 311.48 381.579 311.228C380.604 309.741 378.125 310.985 379.088 312.452C379.136 312.525 379.179 312.598 379.224 312.671C367.925 330.361 356.629 348.05 345.33 365.737C334.779 382.258 323.738 398.733 317.589 417.348C317.145 418.685 318.792 419.476 319.73 418.867Z" fill="#B9D386"/>
<path d="M378.738 398.341C377.392 392.469 375.102 386.842 373.625 381.002C370.73 369.551 370.353 357.883 371.246 346.18C371.817 338.712 372.601 331.212 372.115 323.803C372.929 322.527 373.743 321.251 374.561 319.975C375.582 328.139 374.828 336.449 374.163 344.713C373.108 357.874 373.522 370.854 377.228 383.64C378.905 389.421 381.066 395.036 382.12 400.972C383.201 407.058 383.463 413.273 383.18 419.441C382.703 429.935 380.798 440.362 377.878 450.49C377.052 450.004 376.223 449.521 375.393 449.035C378.292 438.804 380.142 428.275 380.455 417.667C380.643 411.186 380.194 404.678 378.738 398.341Z" fill="#F6D76A"/>
<path d="M342.031 370.892C343.134 369.173 344.233 367.455 345.33 365.737C348.943 360.084 352.555 354.429 356.164 348.776C354.791 364.911 360.069 381.008 361.831 396.971C363.435 411.484 363.028 425.884 359.907 440.157C355.138 437.473 350.346 434.832 345.531 432.233C351.41 411.956 344.419 391.432 342.031 370.892Z" fill="#211736"/>
<path d="M257.138 386.954C269.959 371.817 278.244 353.902 286.839 336.362C296.039 317.583 305.241 298.802 314.441 280.02C314.532 280.017 314.617 280.009 314.708 280.009C316.51 279.985 316.234 277.307 314.447 277.33C313.906 277.046 313.229 277.02 312.755 277.418C302.866 278.188 294.778 285.046 287.747 291.194C278.42 299.343 268.765 305.965 256.636 309.571C240.376 314.407 224.72 319.711 211.003 329.728C207.697 332.143 183.735 351.174 193.029 355.421C213.904 364.958 234.266 374.87 254.315 385.926C254.428 385.988 254.537 386.029 254.646 386.058C254.631 387.144 256.217 388.04 257.138 386.954Z" fill="#B9D386"/>
<path d="M240.218 327.269C246.06 325.141 252.204 323.912 258.092 321.907C269.631 317.978 279.982 311.898 289.671 304.776C295.85 300.233 301.945 295.5 308.65 291.841C309.316 290.485 309.978 289.13 310.643 287.775C302.987 291.413 296.169 296.571 289.349 301.624C278.481 309.674 266.972 316.439 253.826 320.446C247.88 322.258 241.819 323.587 236.077 325.984C230.192 328.44 224.647 331.634 219.44 335.229C210.574 341.356 202.553 348.598 195.344 356.487C196.219 356.888 197.091 357.292 197.966 357.696C205.276 349.76 213.421 342.512 222.475 336.458C228.004 332.761 233.911 329.564 240.218 327.269Z" fill="#F6D76A"/>
<path d="M284.165 341.841C285.055 340.015 285.946 338.185 286.839 336.362C289.78 330.361 292.721 324.357 295.662 318.353C282.382 328.285 265.502 332.837 250.654 340.147C237.161 346.794 224.86 354.997 214.159 365.321C219.099 367.695 224.015 370.113 228.91 372.572C243.326 356.744 264.994 351.153 284.165 341.841Z" fill="#211736"/>
<path d="M328.152 415.073C328.152 415.073 426.371 247.124 431.33 221.747C436.282 196.379 437.342 158.342 424.099 152.119L424.181 151.955C411.742 144.224 380.744 166.02 362.399 184.123C344.054 202.231 258.587 377.106 258.587 377.106L292.302 394.486L292.25 394.582L328.152 415.073Z" fill="#D892C0"/>
<path d="M289.3 400.674L380.719 239.779C379.878 239.407 379.051 238.992 378.225 238.582L286.748 399.576C285.885 401.095 288.44 402.19 289.3 400.674Z" fill="#FFF4ED"/>
<path d="M382.934 285.805C384.699 283.085 385.909 280.044 386.322 276.906C388.196 262.709 376.478 246.585 360.47 248.075C350.425 249.015 340.108 255.695 336.656 265.027C333.901 272.471 335.544 280.796 340.275 287.151C348.241 297.853 364.192 300.623 375.539 293.22C378.456 291.317 381.023 288.75 382.934 285.805Z" fill="#211736"/>
<path d="M377.608 282.702C378.942 280.647 379.853 278.349 380.166 275.975C381.585 265.246 372.729 253.063 360.631 254.19C353.038 254.896 345.242 259.948 342.632 267C340.551 272.623 341.794 278.917 345.367 283.721C351.388 291.806 363.441 293.902 372.018 288.305C374.22 286.867 376.162 284.927 377.608 282.702Z" fill="#FFF4ED"/>
<path d="M349.55 332.003C350.845 330.012 351.729 327.785 352.036 325.484C353.406 315.086 344.823 303.278 333.095 304.37C325.74 305.054 318.181 309.949 315.65 316.784C313.633 322.238 314.839 328.338 318.303 332.992C324.139 340.832 335.821 342.86 344.133 337.436C346.272 336.043 348.15 334.163 349.55 332.003Z" fill="#211736"/>
<path d="M344.835 329.257C345.746 327.855 346.369 326.283 346.585 324.661C347.551 317.334 341.502 309.009 333.238 309.779C328.052 310.265 322.726 313.713 320.943 318.531C319.521 322.375 320.368 326.672 322.811 329.954C326.925 335.477 335.158 336.909 341.016 333.086C342.523 332.102 343.848 330.779 344.835 329.257Z" fill="#FFF4ED"/>
<path d="M424.098 152.119L424.18 151.955C414.695 146.059 394.415 157.341 377.183 171.058C396.606 179.793 415.646 189.278 434.264 199.5C435.82 178.292 433.799 156.677 424.098 152.119Z" fill="#211736"/>
<path d="M416.151 256.696C391.143 243.5 365.944 230.649 340.56 218.144C340.12 218.922 339.676 219.707 339.229 220.503C364.653 233.026 389.888 245.894 414.929 259.108C415.342 258.294 415.749 257.489 416.151 256.696Z" fill="#3A8EBA"/>
<path d="M343.428 234.489C343.365 233.778 337.902 229.595 335.125 227.888C323.325 249.284 309.701 275.43 297.248 299.829C301.024 299.235 307.085 298.205 307.97 297.593C309.273 296.697 343.501 235.362 343.428 234.489Z" fill="#211736"/>
<path d="M400.768 267.17C399.984 267.606 367.224 329.682 367.199 331.221C367.184 332.19 369.387 336.854 371.024 340.182C384.31 316.529 398.399 290.963 409.631 269.4C406.298 268.235 401.318 266.859 400.768 267.17Z" fill="#211736"/>
<path d="M333.928 408.036C333.533 406.929 261.947 368.91 258.644 368.708C256.828 368.597 233.798 409.587 234.476 410.501C235.156 411.408 309.085 450.844 311.439 449.77C313.791 448.699 334.323 409.142 333.928 408.036Z" fill="#79B3D1"/>
<path d="M257.976 386.275C257.141 386.14 244.967 407.617 245.453 408.481C245.939 409.344 305.193 439.463 306.274 438.992C307.356 438.521 320.198 418.068 319.654 417.336C319.114 416.61 260.091 386.605 257.976 386.275Z" fill="#211736"/>
<path d="M267.103 382.823C267.963 381.74 267.671 380.045 266.322 379.469C265.769 379.232 265.222 379.273 264.709 379.451C264.384 379.475 264.052 379.577 263.727 379.747C263.281 379.981 262.868 380.253 262.476 380.564C261.804 381.099 261.561 381.84 261.813 382.642C262.16 383.748 263.417 384.413 264.581 384.281C265.529 384.173 266.525 383.549 267.103 382.823Z" fill="#EF6B47"/>
<path d="M275.026 385.601C275.251 384.884 275.078 384.185 274.546 383.646C274.078 383.166 273.401 382.914 272.714 382.973C272.307 383.005 272 383.122 271.654 383.327C271.608 383.359 271.393 383.488 271.314 383.549C271.007 383.687 270.724 383.874 270.469 384.149C269.971 384.697 269.898 385.511 270.114 386.181C270.345 386.889 271.013 387.364 271.745 387.51C272.493 387.659 273.152 387.255 273.769 386.922C274.349 386.608 274.829 386.24 275.026 385.601Z" fill="#EF6B47"/>
<path d="M282.756 388.145C281.884 387.1 280.538 387.009 279.414 387.551C279.341 387.583 279.271 387.618 279.198 387.656C279.158 387.677 279.122 387.703 279.085 387.724C277.98 388.368 277.305 389.618 277.986 390.847C278.727 392.194 280.437 392.337 281.729 391.675C283.011 391.02 283.776 389.363 282.756 388.145Z" fill="#EF6B47"/>
<path d="M291.184 394.91C291.779 394.395 292.186 393.607 291.846 392.832C291.658 392.398 291.366 392.041 291.001 391.781C290.506 391.233 289.737 391.02 288.96 391.251C287.365 391.722 285.132 393.385 286.505 395.156C287.662 396.649 289.971 395.955 291.184 394.91Z" fill="#EF6B47"/>
<path d="M298.442 397.182C298.351 396.801 298.153 396.479 297.886 396.227C297.391 395.642 296.577 395.343 295.796 395.636C295.367 395.797 294.945 395.861 294.556 396.134C294.046 396.482 293.678 397.044 293.587 397.644C293.356 399.163 294.735 400.287 296.251 400.001C297.679 399.731 298.788 398.663 298.442 397.182Z" fill="#EF6B47"/>
<path d="M305.81 402.375C306.366 401.81 306.32 400.809 305.873 400.203C305.794 400.094 305.712 399.986 305.633 399.878C305.132 399.204 304.33 399.052 303.549 399.225C302.899 399.266 302.282 399.445 301.766 399.887C300.924 400.615 300.475 401.64 301.043 402.67C301.623 403.718 302.856 403.806 303.92 403.534C304.676 403.341 305.278 402.913 305.81 402.375Z" fill="#EF6B47"/>
<path d="M314.486 405.565C314.344 404.965 313.961 404.532 313.475 404.266C312.986 403.666 312.12 403.267 311.36 403.633C310.844 403.882 310.348 404.137 309.911 404.494C309.151 405.117 308.838 405.87 309.139 406.795C309.58 408.156 311.211 408.613 312.503 408.247C313.763 407.887 314.806 406.915 314.486 405.565Z" fill="#EF6B47"/>
<path d="M320.906 411.127C321.38 410.682 321.368 409.927 321.204 409.374C320.8 408.033 319.086 407.471 317.847 408.053C317.464 408.13 317.093 408.267 316.768 408.525C315.994 409.142 315.608 410.243 316.009 411.165C316.492 412.278 317.701 412.743 318.868 412.401C319.682 412.16 320.305 411.677 320.906 411.127Z" fill="#EF6B47"/>
<path d="M354.448 216.437C355.505 215.477 355.736 214.051 355.062 212.833C354.463 211.747 353.211 211.086 351.929 211.185C351.774 211.197 351.622 211.223 351.474 211.256C351.413 211.27 351.352 211.288 351.288 211.305C351.215 211.329 351.142 211.349 351.069 211.376C350.987 211.405 350.905 211.431 350.826 211.472C350.517 211.61 350.231 211.791 349.964 211.999C348.846 212.757 347.797 213.539 347.554 214.956C347.284 216.516 348.475 217.971 350.033 218.278C351.042 218.477 352.014 218.126 352.838 217.587C353.391 217.227 353.962 216.879 354.448 216.437Z" fill="#301C33"/>
<path d="M363.377 219.309C363.48 218.773 363.423 218.229 363.228 217.731C363.152 217.359 363.007 217.008 362.767 216.715C361.785 215.515 360.193 215.29 358.869 216.097C357.845 216.721 356.754 217.38 356.274 218.501C355.767 219.695 356.092 221.103 357.158 221.923C358.012 222.576 359.245 222.745 360.257 222.341C361.627 221.788 363.092 220.81 363.377 219.309Z" fill="#301C33"/>
<path d="M372.194 224.27C372.598 222.968 372.024 221.609 370.83 220.91C370.408 220.658 369.949 220.529 369.487 220.497C368.946 220.333 368.363 220.33 367.807 220.573C366.701 221.056 365.616 221.677 365.112 222.804C364.605 223.948 364.632 225.368 365.48 226.369C366.227 227.25 367.552 227.809 368.718 227.324C370.171 226.723 371.714 225.81 372.194 224.27Z" fill="#301C33"/>
<path d="M381.418 228.172C381.555 227.242 381.23 226.425 380.655 225.828C380.479 225.468 380.236 225.146 379.908 224.917C378.793 224.121 377.447 224.174 376.417 224.935C375.91 225.333 375.411 225.529 374.965 226.003C374.467 226.53 374.16 227.198 374.069 227.9C373.762 230.239 376.144 232.045 378.437 231.226C379.753 230.76 381.22 229.516 381.418 228.172Z" fill="#301C33"/>
<path d="M388.801 233.169C389.214 232.771 389.378 232.101 389.396 231.571C389.421 230.968 389.254 230.423 388.898 229.911C388.816 229.794 388.737 229.677 388.655 229.563C388.625 229.519 388.582 229.484 388.549 229.44C388.266 229.056 387.905 228.731 387.443 228.553C386.732 228.286 386.079 228.295 385.337 228.488C383.815 228.878 382.542 230.382 382.402 231.884C382.311 232.859 382.582 233.772 383.402 234.413C384.198 235.034 385.173 235.119 386.124 234.844C387.197 234.536 388.023 233.916 388.801 233.169Z" fill="#301C33"/>
<path d="M397.554 237.595C398.228 236.966 398.307 235.774 398.003 234.975C397.681 234.141 396.8 233.318 395.834 233.248C395.688 233.242 395.552 233.236 395.415 233.236C394.537 232.868 393.492 232.856 392.735 233.5C392.547 233.658 392.325 233.766 392.131 233.919C391.575 234.355 391.171 234.879 390.964 235.543C390.529 236.937 391.101 238.576 392.568 239.188C394.485 239.981 396.226 238.842 397.554 237.595Z" fill="#301C33"/>
<path d="M405.851 242.411C406.176 241.983 406.307 241.568 406.462 241.061C406.729 240.171 406.167 239.076 405.462 238.532C405.107 238.251 404.587 238.017 404.077 237.932C403.731 237.824 403.36 237.771 402.965 237.783C400.774 237.832 399.034 240.4 400 242.34C400.401 243.14 400.923 243.704 401.826 243.965C402.682 244.211 403.506 244.073 404.25 243.596C404.527 243.421 404.809 243.245 405.08 243.063C405.359 242.876 405.651 242.668 405.851 242.411Z" fill="#301C33"/>
<path d="M414.051 247.165C414.957 246.415 415.546 245.2 415.042 244.05C414.692 243.242 413.997 242.636 413.155 242.399C412.481 242.024 411.666 241.893 410.913 242.235C410.15 242.58 409.375 242.987 408.844 243.643C408.017 244.668 407.914 246.166 408.744 247.226C409.567 248.274 411.016 248.637 412.295 248.218C412.942 248.005 413.535 247.595 414.051 247.165Z" fill="#301C33"/>
<path d="M476.182 146.592C483.365 123.616 479.4 89.8263 466.809 80.2336C459.657 74.783 425.809 84.042 403.457 108.652C402.637 109.553 401.813 110.519 400.978 111.541C426.009 123.592 450.832 136.063 475.42 148.934C475.696 148.12 475.951 147.336 476.182 146.592Z" fill="#D892C0"/>
<path d="M466.81 80.2336C462.119 76.6594 445.943 79.4111 429.063 88.673C445.961 95.956 462.702 103.587 479.269 111.547C477.914 97.7212 473.627 85.4266 466.81 80.2336Z" fill="#FFF4ED"/>
<path d="M403.816 124.225C404.684 123.534 405.374 122.629 405.502 121.523C405.69 119.901 404.104 118.408 402.397 119.055C402.151 119.146 401.908 119.257 401.674 119.38C401.461 119.444 401.248 119.526 401.045 119.646C400.124 120.182 399.055 120.917 398.623 121.895C397.858 123.636 399.213 125.627 401.233 125.425C402.132 125.334 403.126 124.769 403.816 124.225Z" fill="#32436D"/>
<path d="M415.106 126.06C415.458 124.708 413.997 123.256 412.593 123.467C411.949 123.566 411.32 123.748 410.749 124.029C410.566 124.09 410.381 124.16 410.202 124.257C409.269 124.74 408.279 125.483 407.884 126.452C407.167 128.218 408.683 129.997 410.6 129.839C411.548 129.763 412.508 129.268 413.264 128.733C414.234 128.048 414.817 127.178 415.106 126.06Z" fill="#32436D"/>
<path d="M424.721 129.219C424.39 128.384 423.321 127.559 422.321 127.764C421.27 127.98 420.404 128.288 419.471 128.806C419.335 128.882 419.213 128.982 419.104 129.093C418.177 129.775 417.515 130.756 417.378 131.97C417.181 133.762 418.76 134.851 420.48 134.438C422.786 133.885 425.788 131.877 424.721 129.219Z" fill="#32436D"/>
<path d="M433.648 137.035C434.298 136.309 434.535 135.211 434.152 134.309C433.629 133.08 432.208 132.436 430.895 132.869C430.476 133.004 430.126 133.238 429.853 133.539C428.674 134.257 427.45 135.147 427.586 136.642C427.687 137.74 428.607 138.691 429.753 138.838C430.682 138.955 431.451 138.607 432.195 138.121C432.706 137.793 433.244 137.488 433.648 137.035Z" fill="#32436D"/>
<path d="M444.397 140.808C444.898 139.388 444.202 138.033 442.644 137.687C441.896 137.515 441.055 137.594 440.316 137.878C440.228 137.895 440.137 137.91 440.046 137.939C438.849 138.323 437.688 139.166 437.129 140.281C436.458 141.633 437.035 143.337 438.533 143.905C439.861 144.405 441.043 143.855 442.179 143.214C443.139 142.672 444.026 141.847 444.397 140.808Z" fill="#32436D"/>
<path d="M453.803 143.826C453.487 142.939 452.569 142.228 451.603 142.096C450.953 142.011 450.382 142.14 449.865 142.403C449.838 142.412 449.805 142.412 449.771 142.424C448.237 142.819 446.596 144.177 446.536 145.796C446.493 147.031 447.423 148.155 448.702 148.36C449.507 148.486 450.291 148.234 450.999 147.886C452.591 147.107 454.526 145.851 453.803 143.826Z" fill="#32436D"/>
<path d="M461.715 150.737C462.134 150.131 462.328 149.552 462.158 148.837C462.006 148.188 461.541 147.514 460.855 147.283C459.867 146.946 458.953 146.982 458.06 147.427C457.899 147.488 457.741 147.561 457.586 147.658C456.911 148.073 456.176 148.486 455.675 149.095C454.599 150.386 455.167 152.423 456.841 152.909C458.588 153.41 460.782 152.101 461.715 150.737Z" fill="#32436D"/>
<path d="M469.082 155.236C469.802 154.651 470.373 153.559 469.912 152.64C469.495 151.817 468.948 151.244 468.019 150.977C467.499 150.822 466.971 150.837 466.469 150.968C466.086 151.001 465.701 151.121 465.357 151.358C464.741 151.785 463.975 152.198 463.513 152.789C462.675 153.855 462.714 155.506 463.884 156.355C465.667 157.651 467.657 156.396 469.082 155.236Z" fill="#32436D"/>
<path d="M478.543 136.414C455.921 124.406 432.882 113.148 409.454 102.657C408.737 103.312 408.023 103.983 407.319 104.668C431.311 115.385 454.897 126.906 478.042 139.21C478.224 138.288 478.391 137.354 478.543 136.414Z" fill="#211736"/>
</g>
<defs>
<clipPath id="clip0_98_737">
<rect width="630" height="607" fill="white"/>
</clipPath>
</defs>
</svg>
