<svg width="24" height="25" viewBox="0 0 24 25" fill="none" xmlns="http://www.w3.org/2000/svg">
<mask id="mask0_3426_55222" style="mask-type:luminance" maskUnits="userSpaceOnUse" x="0" y="0" width="24" height="25">
<path d="M0 0H24V24.3334H0V0Z" fill="white"/>
</mask>
<g mask="url(#mask0_3426_55222)">
<path d="M1.54158 2.15712C2.0902 1.3904 2.89531 0.961024 3.67469 0.530894C4.2363 0.221028 4.87059 0.0667262 5.5463 0.0355884C6.60906 -0.0131984 7.54666 0.28696 8.37068 0.889294C8.87183 1.25576 9.31484 1.7164 9.71721 2.18927C10.0752 2.61007 10.362 3.09415 10.6432 3.57131C11.0703 4.29592 11.3782 5.0721 11.582 5.88685C11.7818 6.68559 11.9505 7.48874 11.9766 8.31471C11.9778 8.35064 12.007 8.38569 12.0231 8.42111C12.0631 8.38002 12.1319 8.34308 12.1388 8.29707C12.2363 7.65641 12.4995 7.07097 12.7452 6.47784C13.0012 5.85974 13.3266 5.28161 13.7644 4.77383C14.1621 4.31256 14.5775 3.86327 15.0151 3.43818C15.6256 2.84505 16.2345 2.24423 16.8984 1.71174C17.5772 1.16714 18.3593 0.780626 19.2327 0.600607C20.5758 0.323897 21.8336 0.443784 22.8501 1.4465C23.4405 2.02891 23.772 2.76601 23.8781 3.58416C23.9378 4.04329 24.0025 4.50922 23.9844 4.96898C23.9535 5.75158 23.7901 6.51692 23.5713 7.27418C23.246 8.40056 22.7401 9.44967 22.241 10.506C21.8269 11.3826 21.476 12.2876 21.0683 13.1672C20.8173 13.7087 20.5166 14.2285 20.23 14.7537C19.9551 15.2576 19.6839 15.7641 19.3857 16.2547C18.7499 17.3011 18.0998 18.3392 17.4515 19.3783C16.62 20.711 15.7945 22.0474 14.9437 23.3681C14.7424 23.6807 14.4737 23.9623 14.1928 24.2114C13.952 24.4249 13.6759 24.3274 13.4644 24.0704C13.2843 23.8515 13.0632 23.6646 12.857 23.4668C12.0516 22.694 11.2172 21.9478 10.4481 21.1417C9.89716 20.5642 9.42032 19.9165 8.93396 19.2828C8.5208 18.7445 7.99456 18.3304 7.47025 17.9115C7.01708 17.5494 6.55876 17.1934 6.098 16.8407C5.09029 16.0692 4.1361 15.2392 3.25844 14.3277C2.58788 13.6313 2.02717 12.8549 1.52293 12.0337C0.930062 11.0682 0.540691 10.0245 0.249338 8.94567C0.133312 8.51629 0.115689 8.05981 0.0701532 7.61405C0.0363228 7.28376 -0.00612595 6.94818 0.0176711 6.61915C0.091892 5.59816 0.263231 4.59406 0.735955 3.66522C0.991548 3.16298 1.26309 2.66869 1.54158 2.15712ZM17.3387 3.02444C16.8335 3.22828 16.3449 3.45684 15.9999 3.89655C15.5032 4.52964 14.9573 5.13236 14.5238 5.80465C13.9999 6.61714 13.5547 7.4803 13.1067 8.33728C12.6994 9.11673 12.6219 9.98708 12.4856 10.8357C12.4168 11.2654 12.4133 11.7046 12.3655 12.1379C12.3205 12.5448 11.9552 12.7565 11.7038 12.5131C11.6037 12.4162 11.6202 12.2047 11.5807 12.046C11.5676 11.993 11.5452 11.9422 11.5271 11.8904C11.4891 11.9334 11.4379 11.9707 11.4153 12.0205C11.3164 12.2371 11.2357 12.4621 11.1291 12.6746C11.0439 12.8444 10.7177 12.9643 10.5904 12.8639C10.4352 12.7415 10.2683 12.6163 10.396 12.3537C10.604 11.9257 10.7784 11.4816 10.9568 11.0405C11.0393 10.8369 11.122 10.6474 11.0028 10.4023C10.6937 9.76785 10.4195 9.11661 10.1425 8.46763C9.68968 7.40705 9.08626 6.43359 8.37132 5.52706C8.00575 5.06352 7.60918 4.62344 7.22264 4.17591C6.47747 3.31325 5.64843 2.55082 4.55956 2.1188C4.13571 1.95063 3.69669 1.82973 3.23361 1.97823C2.80938 2.11438 2.57772 2.47215 2.32238 2.78479C2.14705 2.99948 2.01482 3.2656 1.92915 3.52933C1.79216 3.95151 1.70803 4.3853 1.80232 4.84052C1.87204 5.17635 1.84914 5.53236 1.93275 5.86353C2.16866 6.79829 2.52189 7.69561 2.98136 8.54642C3.4537 9.42093 3.94032 10.2891 4.45305 11.1413C5.01363 12.0733 5.59608 12.9936 6.19705 13.9012C6.87417 14.924 7.5765 15.9309 8.28025 16.9364C8.55295 17.326 8.82205 17.7298 9.16087 18.06C9.51989 18.4099 9.95068 18.6926 10.3665 18.982C11.0801 19.4787 11.7954 19.9744 12.5308 20.439C13.0871 20.7906 13.676 21.0926 14.2496 21.4178C14.4144 21.5112 14.5386 21.5241 14.638 21.3183C14.735 21.1179 14.8745 20.9375 14.99 20.7453C15.4464 19.9858 15.9003 19.2249 16.3558 18.4649C16.7538 17.8008 17.1453 17.1326 17.553 16.4742C18.0077 15.7398 18.4857 15.019 18.9385 14.2835C19.516 13.3452 20.0483 12.3789 20.6548 11.4593C21.5187 10.1491 21.8344 8.68862 21.9626 7.17497C22.0059 6.66466 21.9545 6.14339 21.9111 5.63006C21.8644 5.07865 21.7234 4.55145 21.4138 4.0714C20.8206 3.15151 19.9724 2.64095 18.8722 2.65785C18.3688 2.66566 17.8685 2.87757 17.3387 3.02444ZM11.1041 7.87034C10.9787 7.25187 10.9078 6.61638 10.7137 6.01934C10.4916 5.33607 10.202 4.66567 9.86642 4.02766C9.30147 2.95397 8.55347 2.01946 7.46961 1.38775C6.6407 0.904673 5.76253 0.774071 4.83084 1.02746C4.73656 1.05318 4.6505 1.10789 4.56059 1.14924C4.65089 1.18693 4.74119 1.22437 4.83123 1.26232C4.85515 1.2724 4.87779 1.28551 4.90211 1.29383C5.70516 1.56827 6.37328 2.06093 6.97232 2.62494C7.55335 3.17193 8.07277 3.78309 8.60569 4.37786C9.40206 5.26661 10.008 6.28105 10.5662 7.32246C10.7586 7.68149 10.899 8.06713 11.0695 8.43788C11.0882 8.4786 11.1495 8.50053 11.1911 8.53117C11.2043 8.48087 11.2352 8.42805 11.228 8.3809C11.2032 8.21878 11.1651 8.0588 11.1041 7.87034ZM1.05008 5.99804C1.00338 6.11502 0.917198 6.23188 0.916941 6.349C0.916298 6.72643 0.944468 7.10412 0.966851 7.48131C0.9801 7.70318 0.975212 7.9311 1.02718 8.14503C1.19427 8.83284 1.35828 9.51711 1.62712 10.1831C2.1549 11.4913 2.92477 12.6373 3.88256 13.6654C4.35735 14.1748 4.88847 14.6346 5.40261 15.1079C5.68831 15.3708 5.98995 15.6171 6.28838 15.8662C6.33533 15.9054 6.40363 15.92 6.4619 15.946C6.44107 15.8833 6.43438 15.8107 6.39694 15.7598C6.16309 15.4409 5.90287 15.1389 5.68792 14.8084C5.21288 14.0782 4.75225 13.3386 4.2992 12.595C3.6774 11.5744 3.03269 10.565 2.46323 9.51661C1.85969 8.40548 1.25988 7.28124 1.05008 5.99804ZM19.0236 1.81296C19.4059 1.74174 19.7671 1.83818 20.1225 1.95579C21.1416 2.29289 21.8659 2.97477 22.3588 3.88621C22.7091 4.5338 22.8659 5.24052 22.8179 5.98215C22.8141 6.04115 22.8521 6.1028 22.8708 6.16331C22.9083 6.10153 22.9757 6.04115 22.9788 5.97774C23.0056 5.42671 23.0453 4.87455 23.0308 4.32403C23.0215 3.96992 22.9571 3.61038 22.8658 3.26648C22.5362 2.02589 21.5356 1.32447 20.2387 1.38094C19.8092 1.39973 19.3832 1.51344 18.9582 1.59626C18.8367 1.61996 18.7243 1.68791 18.6076 1.73544C18.7277 1.76128 18.8475 1.78712 19.0236 1.81296ZM11.8342 21.0317C11.7824 20.9991 11.7339 20.9593 11.6781 20.9361C11.603 20.9051 11.5223 20.8871 11.444 20.8635C11.4829 20.9219 11.5119 20.9906 11.5622 21.0371C12.1464 21.578 12.7315 22.1182 13.325 22.6495C13.3754 22.6946 13.5087 22.7093 13.5658 22.676C13.6747 22.6126 13.7738 22.5151 13.8419 22.4098C13.872 22.3633 13.8423 22.2222 13.7959 22.1942C13.1558 21.8087 12.5081 21.4355 11.8342 21.0317Z" fill="#B9D386"/>
</g>
</svg>
