<svg width="168" height="133" viewBox="0 0 168 133" fill="none" xmlns="http://www.w3.org/2000/svg">
<ellipse cx="65.3331" cy="1.2707" rx="1.24523" ry="1.2707" fill="black"/>
<ellipse cx="1.24523" cy="51.2516" rx="1.24523" ry="1.2707" fill="black"/>
<ellipse cx="96.7125" cy="9.91146" rx="1.24524" ry="1.2707" fill="black"/>
<ellipse cx="17.8487" cy="25.4987" rx="1.24523" ry="1.2707" fill="black"/>
<ellipse cx="17.3497" cy="101.741" rx="1.24523" ry="1.2707" fill="black"/>
<ellipse cx="111.987" cy="101.91" rx="1.24523" ry="1.2707" fill="black"/>
<ellipse cx="33.6212" cy="117.836" rx="1.24523" ry="1.2707" fill="black"/>
<ellipse cx="96.5465" cy="118.175" rx="1.24524" ry="1.2707" fill="black"/>
<ellipse cx="112.153" cy="26.1764" rx="1.24523" ry="1.2707" fill="black"/>
<ellipse cx="128.424" cy="50.4045" rx="1.24523" ry="1.2707" fill="black"/>
<ellipse cx="1.41125" cy="77.8516" rx="1.24523" ry="1.2707" fill="black"/>
<ellipse cx="65.8312" cy="131.729" rx="1.24523" ry="1.2707" fill="black"/>
<ellipse cx="128.424" cy="77.8516" rx="1.24523" ry="1.2707" fill="black"/>
<ellipse cx="51.5524" cy="64.2974" rx="1.24523" ry="1.2707" fill="black"/>
<ellipse cx="43.2506" cy="54.1318" rx="1.24523" ry="1.2707" fill="black"/>
<ellipse cx="55.7032" cy="41.4248" rx="1.24523" ry="1.2707" fill="black"/>
<ellipse cx="55.7032" cy="54.1318" rx="1.24523" ry="1.2707" fill="black"/>
<ellipse cx="55.7032" cy="74.4631" rx="1.24523" ry="1.2707" fill="black"/>
<ellipse cx="55.7032" cy="74.4631" rx="1.24523" ry="1.2707" fill="black"/>
<ellipse cx="67.3253" cy="79.5459" rx="1.24523" ry="1.2707" fill="black"/>
<ellipse cx="67.3253" cy="50.7433" rx="1.24523" ry="1.2707" fill="black"/>
<ellipse cx="67.3253" cy="37.1892" rx="1.24523" ry="1.2707" fill="black"/>
<ellipse cx="78.1173" cy="40.9166" rx="1.24523" ry="1.2707" fill="black"/>
<ellipse cx="78.2838" cy="87.8478" rx="1.24523" ry="1.2707" fill="black"/>
<ellipse cx="88.9093" cy="82.9344" rx="1.24523" ry="1.2707" fill="black"/>
<ellipse cx="78.1173" cy="54.1318" rx="1.24523" ry="1.2707" fill="black"/>
<ellipse cx="78.1173" cy="74.4631" rx="1.24523" ry="1.2707" fill="black"/>
<ellipse cx="67.3253" cy="93.1" rx="1.24523" ry="1.2707" fill="black"/>
<ellipse cx="55.7032" cy="87.1701" rx="1.24523" ry="1.2707" fill="black"/>
<ellipse cx="42.7526" cy="74.6325" rx="1.24523" ry="1.2707" fill="black"/>
<path d="M33.4551 9.74204L65.6651 1.18599L96.7129 9.42119L111.988 25.4024L128.508 50.108V77.6673L111.988 102.373L96.7129 118.354L65.6651 131.645L33.8702 118.354L17.8482 102.373L1.32812 77.6673V50.108L17.8482 25.4024L33.4551 9.74204Z" stroke="black"/>
<path d="M78.2005 74.7336V87.763L67.3202 80.256L55.698 87.763V74.7336H43.334L51.4942 64.5516L43.334 54.2833H55.698V41.3401L67.3202 50.4866L78.2005 41.3401V54.2833" stroke="black" stroke-width="2"/>
<line y1="-1" x2="14.233" y2="-1" transform="matrix(-0.699913 0.714228 -0.699913 -0.714228 54.126 42.3567)" stroke="black" stroke-width="2"/>
<line y1="-1" x2="8.53307" y2="-1" transform="matrix(-0.933953 0.357395 -0.344931 -0.938628 65.416 37.1045)" stroke="black" stroke-width="2"/>
<line y1="-1" x2="7.76341" y2="-1" transform="matrix(-0.919612 -0.392828 0.379523 -0.925182 76.54 40.1541)" stroke="black" stroke-width="2"/>
<line y1="-0.15" x2="15.436" y2="-0.15" transform="matrix(-0.387218 0.921988 -0.916212 -0.400693 106.26 42.0178)" stroke="black" stroke-width="0.3"/>
<line y1="-0.15" x2="14.4257" y2="-0.15" transform="matrix(0.78264 0.622475 -0.606991 0.794709 88.9922 47.2701)" stroke="black" stroke-width="0.3"/>
<line y1="-0.15" x2="20.1583" y2="-0.15" transform="matrix(0.222382 0.97496 -0.972932 0.23109 95.7993 36.5962)" stroke="black" stroke-width="0.3"/>
<line y1="-0.15" x2="12.7499" y2="-0.15" transform="matrix(0.546932 -0.837177 0.82681 0.562481 88.9922 47.2701)" stroke="black" stroke-width="0.3"/>
<line y1="-0.15" x2="15.1186" y2="-0.15" transform="matrix(0.81266 0.582738 -0.567154 0.823612 83.6792 27.786)" stroke="black" stroke-width="0.3"/>
<line y1="-0.15" x2="18.2274" y2="-0.15" transform="matrix(0.965537 -0.260264 0.250597 0.968091 83.6792 27.786)" stroke="black" stroke-width="0.3"/>
<line y1="-0.15" x2="13.9549" y2="-0.15" transform="matrix(0.321237 0.946999 -0.942904 0.333065 96.7959 9.82675)" stroke="black" stroke-width="0.3"/>
<line y1="-0.15" x2="24.6447" y2="-0.15" transform="matrix(-0.963387 0.268116 -0.258199 -0.966092 96.7959 9.82675)" stroke="black" stroke-width="0.3"/>
<line y1="-0.15" x2="15.436" y2="-0.15" transform="matrix(-0.677635 -0.735399 0.721557 -0.692355 83.5137 27.786)" stroke="black" stroke-width="0.3"/>
<line y1="-0.15" x2="22.239" y2="-0.15" transform="matrix(0.589793 -0.807554 0.79596 0.605349 83.5137 27.786)" stroke="black" stroke-width="0.3"/>
<line y1="-0.15" x2="14.0862" y2="-0.15" transform="matrix(-0.377176 0.926142 -0.920634 -0.390426 83.5137 27.786)" stroke="black" stroke-width="0.3"/>
<line y1="-0.15" x2="9.01688" y2="-0.15" transform="matrix(0.589227 0.807968 -0.79639 0.604784 72.8877 33.5465)" stroke="black" stroke-width="0.3"/>
<line y1="-0.15" x2="6.5329" y2="-0.15" transform="matrix(-0.838681 0.544622 -0.52915 -0.848528 72.8877 33.5465)" stroke="black" stroke-width="0.3"/>
<line y1="-0.15" x2="16.4995" y2="-0.15" transform="matrix(0.744646 0.667459 -0.652376 0.757895 55.1221 26.0917)" stroke="black" stroke-width="0.3"/>
<line y1="-0.15" x2="19.9939" y2="-0.15" transform="matrix(0.880234 -0.47454 0.459754 0.888047 55.1221 26.0917)" stroke="black" stroke-width="0.3"/>
<line y1="-0.15" x2="20.162" y2="-0.15" transform="matrix(0.938774 0.344535 -0.3324 0.943138 53.7939 9.65732)" stroke="black" stroke-width="0.3"/>
<line y1="-0.15" x2="17.061" y2="-0.15" transform="matrix(0.42819 0.903688 -0.89678 0.442477 65.416 1.18599)" stroke="black" stroke-width="0.3"/>
<line y1="-0.15" x2="16.9459" y2="-0.15" transform="matrix(-0.0195954 -0.999808 0.999792 -0.0204048 73.0532 33.5465)" stroke="black" stroke-width="0.3"/>
<line y1="-0.15" x2="11.9413" y2="-0.15" transform="matrix(0.875949 -0.482403 0.467511 0.883987 73.0532 33.5465)" stroke="black" stroke-width="0.3"/>
<line y1="-0.15" x2="18.3033" y2="-0.15" transform="matrix(0.970607 -0.240672 0.231644 0.972801 78.2007 41.0013)" stroke="black" stroke-width="0.3"/>
<line y1="-0.15" x2="17.5689" y2="-0.15" transform="matrix(0.264608 0.964356 -0.961521 0.274732 100.283 56.2497)" stroke="black" stroke-width="0.3"/>
<line y1="-0.15" x2="10.4723" y2="-0.15" transform="matrix(0.998821 0.0485355 -0.0466141 0.998913 94.4717 72.6841)" stroke="black" stroke-width="0.3"/>
<line y1="-0.15" x2="18.6364" y2="-0.15" transform="matrix(0.855261 -0.518197 0.502914 0.864337 88.9922 82.8497)" stroke="black" stroke-width="0.3"/>
<line y1="-0.15" x2="15.0421" y2="-0.15" transform="matrix(-0.132454 -0.991189 0.990457 -0.137824 106.924 88.1019)" stroke="black" stroke-width="0.3"/>
<line y1="-0.15" x2="11.911" y2="-0.15" transform="matrix(-0.850298 0.526302 -0.510952 -0.859609 106.924 88.1019)" stroke="black" stroke-width="0.3"/>
<path d="M111.738 101.91L96.7812 94.3914" stroke="black" stroke-width="0.3"/>
<line y1="-0.15" x2="13.5415" y2="-0.15" transform="matrix(0.564003 0.825773 -0.814911 0.579585 88.9922 83.3579)" stroke="black" stroke-width="0.3"/>
<line y1="-0.15" x2="11.6423" y2="-0.15" transform="matrix(-0.399307 0.916817 -0.910713 -0.41304 88.9922 83.3579)" stroke="black" stroke-width="0.3"/>
<line y1="-0.15" x2="8.77702" y2="-0.15" transform="matrix(0.699913 0.714228 -0.699913 0.714228 78.2007 87.7631)" stroke="black" stroke-width="0.3"/>
<line y1="-0.15" x2="16.9428" y2="-0.15" transform="matrix(0.99955 0.0299997 -0.0288103 0.999585 67.4087 93.5236)" stroke="black" stroke-width="0.3"/>
<line y1="-0.15" x2="11.3886" y2="-0.15" transform="matrix(0.189524 0.981876 -0.980392 0.197057 67.4087 93.5236)" stroke="black" stroke-width="0.3"/>
<line y1="-0.15" x2="19.533" y2="-0.15" transform="matrix(-0.892503 0.451042 -0.436611 -0.89965 67.4087 93.5236)" stroke="black" stroke-width="0.3"/>
<line y1="-0.15" x2="12.4569" y2="-0.15" transform="matrix(0.99963 0.0272019 -0.0261235 0.999659 84.3438 94.0319)" stroke="black" stroke-width="0.3"/>
<line y1="-0.15" x2="20.9792" y2="-0.15" transform="matrix(0.443188 0.896429 -0.889093 0.457726 84.3438 94.0319)" stroke="black" stroke-width="0.3"/>
<line y1="-0.15" x2="26.3567" y2="-0.15" transform="matrix(0.951207 -0.308555 0.297413 0.954749 68.5708 120.971)" stroke="black" stroke-width="0.3"/>
<line y1="-0.15" x2="27.8764" y2="-0.15" transform="matrix(0.994648 -0.103323 0.0992634 0.995061 68.5708 120.971)" stroke="black" stroke-width="0.3"/>
<line y1="-0.15" x2="10.9995" y2="-0.15" transform="matrix(-0.241511 0.970398 -0.96802 -0.250875 68.5708 120.971)" stroke="black" stroke-width="0.3"/>
<line y1="-0.15" x2="16.3765" y2="-0.15" transform="matrix(-0.963143 -0.268988 0.259044 -0.965865 68.5708 120.971)" stroke="black" stroke-width="0.3"/>
<line y1="-0.15" x2="18.2287" y2="-0.15" transform="matrix(-0.810633 0.585555 -0.569971 -0.821665 84.3438 94.0319)" stroke="black" stroke-width="0.3"/>
<line y1="-0.15" x2="16.2861" y2="-0.15" transform="matrix(0.0509736 -0.9987 0.998591 0.0530733 68.7368 120.971)" stroke="black" stroke-width="0.3"/>
<line y1="-0.15" x2="20.5392" y2="-0.15" transform="matrix(0.816444 -0.577425 0.561845 0.827242 52.7979 116.566)" stroke="black" stroke-width="0.3"/>
<line y1="-0.15" x2="19.4618" y2="-0.15" transform="matrix(-0.998141 0.0609394 -0.0585293 -0.998286 52.7979 116.566)" stroke="black" stroke-width="0.3"/>
<path d="M52.8179 116.551L65.499 131.221" stroke="black" stroke-width="0.3"/>
<line y1="-0.15" x2="14.3429" y2="-0.15" transform="matrix(-0.196789 -0.980446 0.978848 -0.204588 52.7979 116.566)" stroke="black" stroke-width="0.3"/>
<line y1="-0.15" x2="12.4867" y2="-0.15" transform="matrix(0.385603 0.922665 -0.916932 0.399043 45.1602 90.9821)" stroke="black" stroke-width="0.3"/>
<line y1="-0.15" x2="19.9047" y2="-0.15" transform="matrix(-0.900861 0.434107 -0.41997 -0.907538 45.1602 90.9821)" stroke="black" stroke-width="0.3"/>
<line y1="-0.15" x2="22.9072" y2="-0.15" transform="matrix(-0.992973 -0.11834 0.113705 -0.993515 49.9751 102.334)" stroke="black" stroke-width="0.3"/>
<line y1="-0.15" x2="8.86977" y2="-0.15" transform="matrix(0.973375 -0.229219 0.220574 0.97537 17.4336 101.995)" stroke="black" stroke-width="0.3"/>
<line y1="-0.15" x2="22.6577" y2="-0.15" transform="matrix(-0.732779 0.680467 -0.66556 -0.746344 49.9751 102.334)" stroke="black" stroke-width="0.3"/>
<line y1="-0.15" x2="32.5491" y2="-0.15" transform="matrix(-0.999783 -0.0208212 0.019995 -0.9998 49.9751 102.334)" stroke="black" stroke-width="0.3"/>
<line y1="-0.15" x2="16.3182" y2="-0.15" transform="matrix(-0.356111 0.934444 -0.929485 -0.368859 55.7866 87.2548)" stroke="black" stroke-width="0.3"/>
<line y1="-0.15" x2="11.1042" y2="-0.15" transform="matrix(-0.941979 0.335673 -0.323774 -0.946134 55.7866 87.2548)" stroke="black" stroke-width="0.3"/>
<line y1="-0.15" x2="17.8975" y2="-0.15" transform="matrix(-0.909124 -0.416526 0.402724 -0.915321 55.7866 87.2548)" stroke="black" stroke-width="0.3"/>
<line y1="-0.15" x2="5.93024" y2="-0.15" transform="matrix(-0.559947 0.828528 -0.817785 -0.575524 42.8359 74.8866)" stroke="black" stroke-width="0.3"/>
<line y1="-0.15" x2="14.2667" y2="-0.15" transform="matrix(0.069826 0.997559 -0.997354 0.0726967 38.353 65.5681)" stroke="black" stroke-width="0.3"/>
<line y1="-0.15" x2="23.7753" y2="-0.15" transform="matrix(0.663418 0.748249 -0.734734 0.678355 23.5762 62.0102)" stroke="black" stroke-width="0.3"/>
<line y1="-0.15" x2="12.2393" y2="-0.15" transform="matrix(0.0813921 -0.996682 0.996404 0.084732 23.5762 62.0102)" stroke="black" stroke-width="0.3"/>
<line y1="-0.15" x2="14.94" y2="-0.15" transform="matrix(-0.989073 -0.147426 0.141696 -0.98991 38.353 64.2127)" stroke="black" stroke-width="0.3"/>
<line y1="-0.15" x2="18.272" y2="-0.15" transform="matrix(-0.690584 -0.723253 0.709129 -0.705078 37.1909 63.0267)" stroke="black" stroke-width="0.3"/>
<line y1="-0.15" x2="19.1228" y2="-0.15" transform="matrix(-0.868234 0.496155 -0.481095 -0.876669 41.1758 40.3235)" stroke="black" stroke-width="0.3"/>
<line y1="-0.15" x2="13.8923" y2="-0.15" transform="matrix(0.155367 0.987857 -0.986853 0.161623 41.1758 40.3235)" stroke="black" stroke-width="0.3"/>
<line y1="-0.15" x2="19.2337" y2="-0.15" transform="matrix(0.97545 0.220221 -0.211882 0.977295 24.5732 49.8115)" stroke="black" stroke-width="0.3"/>
<line y1="-0.15" x2="14.0512" y2="-0.15" transform="matrix(0.496278 0.868163 -0.859283 0.5115 17.5996 37.6127)" stroke="black" stroke-width="0.3"/>
<line y1="-0.15" x2="23.3217" y2="-0.15" transform="matrix(0.526818 -0.849978 0.8402 0.542277 27.2285 99.6229)" stroke="black" stroke-width="0.3"/>
<line y1="-0.15" x2="17.8273" y2="-0.15" transform="matrix(-0.800944 -0.598739 0.583168 -0.812352 25.5693 98.437)" stroke="black" stroke-width="0.3"/>
<line y1="-0.15" x2="15.1906" y2="-0.15" transform="matrix(-0.404405 -0.91458 0.908336 -0.418242 17.4336 101.656)" stroke="black" stroke-width="0.3"/>
<line y1="-0.15" x2="14.1125" y2="-0.15" transform="matrix(0.70589 0.708322 -0.693889 0.720082 1.32812 77.7669)" stroke="black" stroke-width="0.3"/>
<line y1="-0.15" x2="14.3923" y2="-0.15" transform="matrix(-0.530659 0.847585 -0.837694 -0.54614 18.9268 75.5643)" stroke="black" stroke-width="0.3"/>
<line y1="-0.15" x2="17.7366" y2="-0.15" transform="matrix(-0.99226 0.124181 -0.119324 -0.992855 18.9268 75.5643)" stroke="black" stroke-width="0.3"/>
<line y1="-0.15" x2="18.1259" y2="-0.15" transform="matrix(-0.329755 0.944067 -0.939766 -0.341817 7.30566 60.6548)" stroke="black" stroke-width="0.3"/>
<line y1="-0.15" x2="18.9042" y2="-0.15" transform="matrix(0.614792 0.788689 -0.776409 0.63023 7.30566 60.6548)" stroke="black" stroke-width="0.3"/>
<line y1="-0.15" x2="11.2137" y2="-0.15" transform="matrix(-0.533021 -0.846102 0.836142 -0.548513 7.30566 60.6548)" stroke="black" stroke-width="0.3"/>
<line y1="-0.15" x2="21.0496" y2="-0.15" transform="matrix(-0.765098 0.643914 -0.628582 -0.777744 17.4336 37.6127)" stroke="black" stroke-width="0.3"/>
<line y1="-0.15" x2="11.5318" y2="-0.15" transform="matrix(0.043193 -0.999067 0.998988 0.0449744 17.4336 37.6127)" stroke="black" stroke-width="0.3"/>
<line y1="-0.15" x2="19.7253" y2="-0.15" transform="matrix(0.757542 -0.652786 0.637537 0.77042 17.4336 37.6127)" stroke="black" stroke-width="0.3"/>
<line y1="-0.15" x2="11.9959" y2="-0.15" transform="matrix(-0.955003 -0.296598 0.285807 -0.958287 43.832 28.2943)" stroke="black" stroke-width="0.3"/>
<line y1="-0.15" x2="11.4429" y2="-0.15" transform="matrix(0.986648 -0.162869 0.156567 0.987667 43.832 28.2943)" stroke="black" stroke-width="0.3"/>
<line y1="-0.15" x2="14.9243" y2="-0.15" transform="matrix(-0.0444994 -0.999009 0.998926 -0.0463343 55.7866 41.3401)" stroke="black" stroke-width="0.3"/>
<line y1="-0.15" x2="17.8072" y2="-0.15" transform="matrix(-0.68064 -0.732618 0.71871 -0.69531 55.7866 41.3401)" stroke="black" stroke-width="0.3"/>
<line y1="-0.15" x2="14.4804" y2="-0.15" transform="matrix(-0.997533 -0.0702024 0.0674295 -0.997724 55.7866 41.3401)" stroke="black" stroke-width="0.3"/>
<line y1="-0.15" x2="12.1185" y2="-0.15" transform="matrix(-0.205509 0.978655 -0.976917 -0.213621 43.832 28.2943)" stroke="black" stroke-width="0.3"/>
<line y1="-0.15" x2="17.8352" y2="-0.15" transform="matrix(0.502696 0.864463 -0.855394 0.517978 32.376 24.7363)" stroke="black" stroke-width="0.3"/>
<line y1="-0.15" x2="13.9563" y2="-0.15" transform="matrix(0.0951716 -0.995461 0.995081 0.0990667 32.376 24.7363)" stroke="black" stroke-width="0.3"/>
<line y1="-0.15" x2="26.2915" y2="-0.15" transform="matrix(0.814635 -0.579974 0.564392 0.825507 32.376 24.7363)" stroke="black" stroke-width="0.3"/>
<line y1="-0.15" x2="19.5946" y2="-0.15" transform="matrix(0.99985 -0.0172932 0.0166071 0.999862 34.2021 9.82675)" stroke="black" stroke-width="0.3"/>
<line y1="-0.15" x2="16.6569" y2="-0.15" transform="matrix(-0.0797417 -0.996816 0.996548 -0.0830149 55.1221 26.0917)" stroke="black" stroke-width="0.3"/>
<line y1="-0.15" x2="14.6909" y2="-0.15" transform="matrix(-0.825018 0.565106 -0.549549 -0.835461 65.9141 1.18599)" stroke="black" stroke-width="0.3"/>
<line y1="-0.15" x2="14.4804" y2="-0.15" transform="matrix(-0.997533 0.0702025 -0.0674294 -0.997724 32.376 24.7363)" stroke="black" stroke-width="0.3"/>
<line y1="-0.15" x2="22.7866" y2="-0.15" transform="matrix(0.998229 0.059483 -0.0571303 0.998367 32.376 24.7363)" stroke="black" stroke-width="0.3"/>
<line y1="-0.15" x2="24.0616" y2="-0.15" transform="matrix(0.993633 0.112662 -0.108244 0.994124 17.4336 37.6127)" stroke="black" stroke-width="0.3"/>
<line y1="-0.15" x2="23.2838" y2="-0.15" transform="matrix(-0.998304 0.0582126 -0.05591 -0.998436 24.5732 49.8115)" stroke="black" stroke-width="0.3"/>
<line y1="-0.15" x2="20.3896" y2="-0.15" transform="matrix(0.846866 -0.531807 0.516415 0.856338 7.30566 60.6548)" stroke="black" stroke-width="0.3"/>
<line y1="-0.15" x2="14.3292" y2="-0.15" transform="matrix(-0.324433 0.945909 -0.941737 -0.336349 23.5762 62.0102)" stroke="black" stroke-width="0.3"/>
<line y1="-0.15" x2="29.327" y2="-0.15" transform="matrix(-0.962431 0.271526 -0.261502 -0.965203 39.5156 79.8)" stroke="black" stroke-width="0.3"/>
<line y1="-0.15" x2="21.019" y2="-0.15" transform="matrix(0.979485 0.201516 -0.193825 0.981036 18.9268 75.5643)" stroke="black" stroke-width="0.3"/>
<line y1="-0.15" x2="12.5302" y2="-0.15" transform="matrix(0.477016 0.878894 -0.870579 0.492028 39.3496 79.9694)" stroke="black" stroke-width="0.3"/>
<line y1="-0.15" x2="19.7347" y2="-0.15" transform="matrix(0.992751 0.120193 -0.115488 0.993309 49.9751 102.334)" stroke="black" stroke-width="0.3"/>
<line y1="-0.15" x2="25.411" y2="-0.15" transform="matrix(-0.947405 -0.320038 0.308569 -0.951202 93.6416 112.838)" stroke="black" stroke-width="0.3"/>
<line y1="-0.15" x2="17.2924" y2="-0.15" transform="matrix(0.144021 -0.989575 0.98871 0.149841 93.6416 112.838)" stroke="black" stroke-width="0.3"/>
<line y1="-0.15" x2="22.1955" y2="-0.15" transform="matrix(-0.00736797 -0.999973 0.999971 -0.00767227 96.6299 118.09)" stroke="black" stroke-width="0.3"/>
<line y1="-0.15" x2="5.58554" y2="-0.15" transform="matrix(0.475602 0.87966 -0.871386 0.490598 93.6416 112.838)" stroke="black" stroke-width="0.3"/>
<line y1="-0.15" x2="18.5483" y2="-0.15" transform="matrix(0.96674 0.255762 -0.24624 0.969209 88.9922 83.3579)" stroke="black" stroke-width="0.3"/>
<line y1="-0.15" x2="17.1783" y2="-0.15" transform="matrix(-0.985844 0.167667 -0.161191 -0.986923 121.867 70.3121)" stroke="black" stroke-width="0.3"/>
<line y1="-0.15" x2="23.2328" y2="-0.15" transform="matrix(-0.643176 0.765719 -0.752699 -0.658365 121.867 70.3121)" stroke="black" stroke-width="0.3"/>
<line y1="-0.15" x2="10.0952" y2="-0.15" transform="matrix(0.674309 0.73845 -0.724682 0.689084 121.867 70.3121)" stroke="black" stroke-width="0.3"/>
<line y1="-0.15" x2="23.6359" y2="-0.15" transform="matrix(0.906165 -0.422924 0.408996 0.912536 106.924 87.7631)" stroke="black" stroke-width="0.3"/>
<line y1="-0.15" x2="14.9747" y2="-0.15" transform="matrix(0.343709 0.939076 -0.934431 0.356143 106.924 87.7631)" stroke="black" stroke-width="0.3"/>
<line y1="-0.15" x2="20.4245" y2="-0.15" transform="matrix(0.325159 -0.945659 0.94147 0.337097 121.867 70.1427)" stroke="black" stroke-width="0.3"/>
<line y1="-0.15" x2="28.6444" y2="-0.15" transform="matrix(0.97957 -0.201104 0.193428 0.981115 100.283 56.2497)" stroke="black" stroke-width="0.3"/>
<line y1="-0.15" x2="17.5914" y2="-0.15" transform="matrix(-0.330338 0.943863 -0.939548 -0.342416 100.283 56.2497)" stroke="black" stroke-width="0.3"/>
<line y1="-0.15" x2="16.8919" y2="-0.15" transform="matrix(0.99273 -0.120361 0.115649 0.99329 77.7026 74.8866)" stroke="black" stroke-width="0.3"/>
<line y1="-0.25" x2="11.3943" y2="-0.25" transform="matrix(0.451713 -0.892163 0.884584 0.466382 89.3242 82.8497)" stroke="black" stroke-width="0.5"/>
<line y1="-0.15" x2="16.5307" y2="-0.15" transform="matrix(-0.974247 -0.225482 0.216964 -0.97618 94.4717 72.6841)" stroke="black" stroke-width="0.3"/>
<line y1="-0.15" x2="19.4245" y2="-0.15" transform="matrix(-0.213688 -0.976902 0.975026 -0.222091 94.4717 72.6841)" stroke="black" stroke-width="0.3"/>
<line y1="-0.15" x2="17.1274" y2="-0.15" transform="matrix(0.930611 0.366009 -0.35333 0.935499 62.4277 62.6879)" stroke="black" stroke-width="0.3"/>
<line y1="-0.15" x2="14.4022" y2="-0.15" transform="matrix(0.0115281 0.999934 -0.999928 0.0120045 78.2007 54.5554)" stroke="black" stroke-width="0.3"/>
<line y1="-0.15" x2="12.1498" y2="-0.15" transform="matrix(0.997566 -0.0697239 0.0669697 0.997755 78.2007 54.5554)" stroke="black" stroke-width="0.3"/>
<line y1="-0.15" x2="19.4786" y2="-0.15" transform="matrix(0.622236 -0.78283 0.770351 0.63762 78.2007 68.9567)" stroke="black" stroke-width="0.3"/>
<line y1="-0.15" x2="10.2809" y2="-0.15" transform="matrix(-0.968966 -0.247196 0.237952 -0.971277 100.283 56.2497)" stroke="black" stroke-width="0.3"/>
<line y1="-0.15" x2="6.5738" y2="-0.15" transform="matrix(0.202052 0.979375 -0.977693 0.21004 88.9922 47.2701)" stroke="black" stroke-width="0.3"/>
<line y1="-0.15" x2="20.8939" y2="-0.15" transform="matrix(0.524461 0.851435 -0.841726 0.539906 67.4087 51.1669)" stroke="black" stroke-width="0.3"/>
<line x1="78.2167" y1="74.5478" x2="78.2167" y2="68.279" stroke="black" stroke-width="0.3"/>
<line y1="-0.25" x2="10.4997" y2="-0.25" transform="matrix(-0.632518 -0.774546 0.761797 -0.647815 62.4277 62.6879)" stroke="black" stroke-width="0.5"/>
<line y1="-0.15" x2="12.5516" y2="-0.15" transform="matrix(0.396835 -0.91789 0.911853 0.410516 62.4277 62.6879)" stroke="black" stroke-width="0.3"/>
<line y1="-0.15" x2="13.3639" y2="-0.15" transform="matrix(-0.484528 0.874775 -0.86624 -0.499628 62.2617 62.5185)" stroke="black" stroke-width="0.3"/>
<line y1="-0.15" x2="17.7072" y2="-0.15" transform="matrix(0.29067 0.956823 -0.953432 0.301609 62.2617 62.5185)" stroke="black" stroke-width="0.3"/>
<line y1="-0.15" x2="19.5325" y2="-0.15" transform="matrix(0.807522 0.589838 -0.574255 0.818677 62.4277 62.6879)" stroke="black" stroke-width="0.3"/>
<line y1="-0.15" x2="11.0636" y2="-0.15" transform="matrix(-0.990457 0.137825 -0.132453 -0.991189 62.4277 62.6879)" stroke="black" stroke-width="0.3"/>
<line y1="-0.15" x2="10.4997" y2="-0.15" transform="matrix(-0.632518 -0.774546 0.761797 -0.647815 62.4277 62.6879)" stroke="black" stroke-width="0.3"/>
<line y1="-0.15" x2="23.596" y2="-0.15" transform="matrix(0.92177 0.387738 -0.374547 0.927208 106.592 41.3401)" stroke="black" stroke-width="0.3"/>
<line y1="-0.15" x2="10.5202" y2="-0.15" transform="matrix(-0.915365 -0.402624 0.389107 -0.921192 105.429 40.8318)" stroke="black" stroke-width="0.3"/>
<line y1="-0.15" x2="14.6197" y2="-0.15" transform="matrix(-0.374771 0.927117 -0.921674 -0.387966 101.279 23.042)" stroke="black" stroke-width="0.3"/>
<line y1="-0.15" x2="32.2562" y2="-0.15" transform="matrix(0.720616 -0.693334 0.67863 0.73448 104.932 73.1924)" stroke="black" stroke-width="0.3"/>
<line y1="-0.15" x2="16.2598" y2="-0.15" transform="matrix(-0.347179 0.937799 -0.933068 -0.359701 112.236 26.0917)" stroke="black" stroke-width="0.3"/>
<line y1="-0.15" x2="19.0538" y2="-0.15" transform="matrix(0.278841 0.960337 -0.957203 0.289417 101.279 23.042)" stroke="black" stroke-width="0.3"/>
<line y1="-0.15" x2="11.055" y2="-0.15" transform="matrix(-0.961196 -0.275866 0.265706 -0.964054 111.904 26.0917)" stroke="black" stroke-width="0.3"/>
<line y1="-1" x2="8.53072" y2="-1" transform="matrix(-0.85636 -0.51638 0.501113 -0.865382 87.3325 46.0841)" stroke="black" stroke-width="2"/>
<line y1="-1" x2="9.50201" y2="-1" transform="matrix(-0.821242 0.57058 -0.55501 -0.831844 87.499 48.6255)" stroke="black" stroke-width="2"/>
<line y1="-1" x2="10.0808" y2="-1" transform="matrix(-0.724683 -0.689083 0.674309 -0.738449 87.3325 81.6637)" stroke="black" stroke-width="2"/>
<line y1="-1" x2="14.233" y2="-1" transform="matrix(0.699913 0.714228 -0.699913 0.714228 43.666 76.242)" stroke="black" stroke-width="2"/>
<line y1="-1" x2="8.33985" y2="-1" transform="matrix(0.836142 0.548514 -0.533021 0.846102 57.4463 88.4408)" stroke="black" stroke-width="2"/>
<line y1="-1" x2="8.2797" y2="-1" transform="matrix(0.882322 -0.470647 0.455915 0.890023 69.5669 93.0153)" stroke="black" stroke-width="2"/>
<line y1="-1" x2="7.53004" y2="-1" transform="matrix(0.904014 -0.427502 0.413487 0.91051 80.3589 87.4242)" stroke="black" stroke-width="2"/>
<line y1="-1" x2="7.8745" y2="-1" transform="matrix(0.379523 0.925182 -0.919612 0.392827 39.0176 65.907)" stroke="black" stroke-width="2"/>
<line y1="-1" x2="7.85257" y2="-1" transform="matrix(-0.42287 0.90619 -0.899432 -0.437061 42.0054 55.572)" stroke="black" stroke-width="2"/>
<path d="M78.2837 74.4631L67.2427 79.4611L55.7865 74.4631L51.4697 64.6363L55.7865 54.1318L67.2427 50.5739L78.2837 54.1318" stroke="black" stroke-width="2"/>
<ellipse cx="41.3419" cy="40.3236" rx="0.664124" ry="0.677708" fill="black"/>
<ellipse cx="41.3419" cy="40.3236" rx="0.664124" ry="0.677708" fill="black"/>
<ellipse cx="41.3419" cy="40.3236" rx="0.664124" ry="0.677708" fill="black"/>
<ellipse cx="41.3419" cy="40.3236" rx="0.664124" ry="0.677708" fill="black"/>
<ellipse cx="41.3419" cy="40.3236" rx="0.664124" ry="0.677708" fill="black"/>
<ellipse cx="93.6417" cy="112.838" rx="0.664124" ry="0.677704" fill="black"/>
<ellipse cx="93.6417" cy="112.838" rx="0.664124" ry="0.677704" fill="black"/>
<ellipse cx="93.6417" cy="112.838" rx="0.664124" ry="0.677704" fill="black"/>
<ellipse cx="93.6417" cy="112.838" rx="0.664124" ry="0.677704" fill="black"/>
<ellipse cx="93.6417" cy="112.838" rx="0.664124" ry="0.677704" fill="black"/>
<ellipse cx="18.9278" cy="75.5643" rx="0.664124" ry="0.677704" fill="black"/>
<ellipse cx="18.9278" cy="75.5643" rx="0.664124" ry="0.677704" fill="black"/>
<ellipse cx="18.9278" cy="75.5643" rx="0.664124" ry="0.677704" fill="black"/>
<ellipse cx="18.9278" cy="75.5643" rx="0.664124" ry="0.677704" fill="black"/>
<ellipse cx="18.9278" cy="75.5643" rx="0.664124" ry="0.677704" fill="black"/>
<ellipse cx="52.7979" cy="116.566" rx="0.664124" ry="0.677708" fill="black"/>
<ellipse cx="52.7979" cy="116.566" rx="0.664124" ry="0.677708" fill="black"/>
<ellipse cx="52.7979" cy="116.566" rx="0.664124" ry="0.677708" fill="black"/>
<ellipse cx="52.7979" cy="116.566" rx="0.664124" ry="0.677708" fill="black"/>
<ellipse cx="52.7979" cy="116.566" rx="0.664124" ry="0.677708" fill="black"/>
<ellipse cx="68.6538" cy="121.055" rx="0.415077" ry="0.423565" fill="black"/>
<ellipse cx="68.6538" cy="121.055" rx="0.415077" ry="0.423565" fill="black"/>
<ellipse cx="68.6538" cy="121.055" rx="0.415077" ry="0.423565" fill="black"/>
<ellipse cx="68.6538" cy="121.055" rx="0.415077" ry="0.423565" fill="black"/>
<ellipse cx="68.6538" cy="121.055" rx="0.415077" ry="0.423565" fill="black"/>
<ellipse cx="68.6538" cy="121.055" rx="0.415077" ry="0.423565" fill="black"/>
<ellipse cx="68.6538" cy="121.055" rx="0.415077" ry="0.423565" fill="black"/>
<ellipse cx="68.6538" cy="121.055" rx="0.415077" ry="0.423565" fill="black"/>
<ellipse cx="68.6538" cy="121.055" rx="0.415077" ry="0.423565" fill="black"/>
<ellipse cx="68.6538" cy="121.055" rx="0.415077" ry="0.423565" fill="black"/>
<ellipse cx="84.2608" cy="93.9471" rx="0.415077" ry="0.423569" fill="black"/>
<ellipse cx="84.2608" cy="93.9471" rx="0.415077" ry="0.423569" fill="black"/>
<ellipse cx="84.2608" cy="93.9471" rx="0.415077" ry="0.423569" fill="black"/>
<ellipse cx="84.2608" cy="93.9471" rx="0.415077" ry="0.423569" fill="black"/>
<ellipse cx="84.2608" cy="93.9471" rx="0.415077" ry="0.423569" fill="black"/>
<ellipse cx="49.8916" cy="102.418" rx="0.415077" ry="0.423565" fill="black"/>
<ellipse cx="49.8916" cy="102.418" rx="0.415077" ry="0.423565" fill="black"/>
<ellipse cx="49.8916" cy="102.418" rx="0.415077" ry="0.423565" fill="black"/>
<ellipse cx="49.8916" cy="102.418" rx="0.415077" ry="0.423565" fill="black"/>
<ellipse cx="49.8916" cy="102.418" rx="0.415077" ry="0.423565" fill="black"/>
<ellipse cx="11.2071" cy="87.8478" rx="0.415077" ry="0.423565" fill="black"/>
<ellipse cx="11.2071" cy="87.8478" rx="0.415077" ry="0.423565" fill="black"/>
<ellipse cx="11.2071" cy="87.8478" rx="0.415077" ry="0.423565" fill="black"/>
<ellipse cx="11.2071" cy="87.8478" rx="0.415077" ry="0.423565" fill="black"/>
<ellipse cx="11.2071" cy="87.8478" rx="0.415077" ry="0.423565" fill="black"/>
<ellipse cx="39.4327" cy="79.8847" rx="0.415077" ry="0.423569" fill="black"/>
<ellipse cx="39.4327" cy="79.8847" rx="0.415077" ry="0.423569" fill="black"/>
<ellipse cx="39.4327" cy="79.8847" rx="0.415077" ry="0.423569" fill="black"/>
<ellipse cx="39.4327" cy="79.8847" rx="0.415077" ry="0.423569" fill="black"/>
<ellipse cx="39.4327" cy="79.8847" rx="0.415077" ry="0.423569" fill="black"/>
<ellipse cx="23.4932" cy="62.0949" rx="0.415077" ry="0.423567" fill="black"/>
<ellipse cx="23.4932" cy="62.0949" rx="0.415077" ry="0.423567" fill="black"/>
<ellipse cx="23.4932" cy="62.0949" rx="0.415077" ry="0.423567" fill="black"/>
<ellipse cx="23.4932" cy="62.0949" rx="0.415077" ry="0.423567" fill="black"/>
<ellipse cx="23.4932" cy="62.0949" rx="0.415077" ry="0.423567" fill="black"/>
<ellipse cx="17.5166" cy="37.6974" rx="0.415077" ry="0.423567" fill="black"/>
<ellipse cx="17.5166" cy="37.6974" rx="0.415077" ry="0.423567" fill="black"/>
<ellipse cx="17.5166" cy="37.6974" rx="0.415077" ry="0.423567" fill="black"/>
<ellipse cx="17.5166" cy="37.6974" rx="0.415077" ry="0.423567" fill="black"/>
<ellipse cx="17.5166" cy="37.6974" rx="0.415077" ry="0.423567" fill="black"/>
<ellipse cx="43.7491" cy="28.379" rx="0.415077" ry="0.423567" fill="black"/>
<ellipse cx="43.7491" cy="28.379" rx="0.415077" ry="0.423567" fill="black"/>
<ellipse cx="43.7491" cy="28.379" rx="0.415077" ry="0.423567" fill="black"/>
<ellipse cx="43.7491" cy="28.379" rx="0.415077" ry="0.423567" fill="black"/>
<ellipse cx="43.7491" cy="28.379" rx="0.415077" ry="0.423567" fill="black"/>
<ellipse cx="95.8824" cy="36.6809" rx="0.415081" ry="0.423567" fill="black"/>
<ellipse cx="95.8824" cy="36.6809" rx="0.415081" ry="0.423567" fill="black"/>
<ellipse cx="95.8824" cy="36.6809" rx="0.415081" ry="0.423567" fill="black"/>
<ellipse cx="95.8824" cy="36.6809" rx="0.415081" ry="0.423567" fill="black"/>
<ellipse cx="95.8824" cy="36.6809" rx="0.415081" ry="0.423567" fill="black"/>
<ellipse cx="32.376" cy="24.7363" rx="0.664124" ry="0.677708" fill="black"/>
<ellipse cx="32.376" cy="24.7363" rx="0.664124" ry="0.677708" fill="black"/>
<ellipse cx="32.376" cy="24.7363" rx="0.664124" ry="0.677708" fill="black"/>
<ellipse cx="32.376" cy="24.7363" rx="0.664124" ry="0.677708" fill="black"/>
<ellipse cx="32.376" cy="24.7363" rx="0.664124" ry="0.677708" fill="black"/>
<ellipse cx="24.5723" cy="49.8115" rx="0.664124" ry="0.677708" fill="black"/>
<ellipse cx="24.5723" cy="49.8115" rx="0.664124" ry="0.677708" fill="black"/>
<ellipse cx="24.5723" cy="49.8115" rx="0.664124" ry="0.677708" fill="black"/>
<ellipse cx="24.5723" cy="49.8115" rx="0.664124" ry="0.677708" fill="black"/>
<ellipse cx="24.5723" cy="49.8115" rx="0.664124" ry="0.677708" fill="black"/>
<ellipse cx="73.0533" cy="16.6038" rx="0.664124" ry="0.677707" fill="black"/>
<ellipse cx="73.0533" cy="16.6038" rx="0.664124" ry="0.677707" fill="black"/>
<ellipse cx="73.0533" cy="16.6038" rx="0.664124" ry="0.677707" fill="black"/>
<ellipse cx="73.0533" cy="16.6038" rx="0.664124" ry="0.677707" fill="black"/>
<ellipse cx="73.0533" cy="16.6038" rx="0.664124" ry="0.677707" fill="black"/>
<ellipse cx="72.8873" cy="33.5465" rx="0.664124" ry="0.677708" fill="black"/>
<ellipse cx="72.8873" cy="33.5465" rx="0.664124" ry="0.677708" fill="black"/>
<ellipse cx="72.8873" cy="33.5465" rx="0.664124" ry="0.677708" fill="black"/>
<ellipse cx="72.8873" cy="33.5465" rx="0.664124" ry="0.677708" fill="black"/>
<ellipse cx="72.8873" cy="33.5465" rx="0.664124" ry="0.677708" fill="black"/>
<ellipse cx="83.5138" cy="27.786" rx="0.996185" ry="1.01656" fill="black"/>
<ellipse cx="83.5138" cy="27.786" rx="0.996185" ry="1.01656" fill="black"/>
<ellipse cx="83.5138" cy="27.786" rx="0.996185" ry="1.01656" fill="black"/>
<ellipse cx="83.5138" cy="27.786" rx="0.996185" ry="1.01656" fill="black"/>
<ellipse cx="83.5138" cy="27.786" rx="0.996185" ry="1.01656" fill="black"/>
<ellipse cx="101.279" cy="23.042" rx="0.996185" ry="1.01656" fill="black"/>
<ellipse cx="101.279" cy="23.042" rx="0.996185" ry="1.01656" fill="black"/>
<ellipse cx="101.279" cy="23.042" rx="0.996185" ry="1.01656" fill="black"/>
<ellipse cx="101.279" cy="23.042" rx="0.996185" ry="1.01656" fill="black"/>
<ellipse cx="101.279" cy="23.042" rx="0.996185" ry="1.01656" fill="black"/>
<ellipse cx="53.794" cy="9.82676" rx="0.996187" ry="1.01656" fill="black"/>
<ellipse cx="53.794" cy="9.82676" rx="0.996187" ry="1.01656" fill="black"/>
<ellipse cx="53.794" cy="9.82676" rx="0.996187" ry="1.01656" fill="black"/>
<ellipse cx="53.794" cy="9.82676" rx="0.996187" ry="1.01656" fill="black"/>
<ellipse cx="53.794" cy="9.82676" rx="0.996187" ry="1.01656" fill="black"/>
<ellipse cx="55.1222" cy="26.4306" rx="0.996185" ry="1.01656" fill="black"/>
<ellipse cx="55.1222" cy="26.4306" rx="0.996185" ry="1.01656" fill="black"/>
<ellipse cx="55.1222" cy="26.4306" rx="0.996185" ry="1.01656" fill="black"/>
<ellipse cx="55.1222" cy="26.4306" rx="0.996185" ry="1.01656" fill="black"/>
<ellipse cx="55.1222" cy="26.4306" rx="0.996185" ry="1.01656" fill="black"/>
<ellipse cx="7.30576" cy="60.6548" rx="0.996186" ry="1.01656" fill="black"/>
<ellipse cx="7.30576" cy="60.6548" rx="0.996186" ry="1.01656" fill="black"/>
<ellipse cx="7.30576" cy="60.6548" rx="0.996186" ry="1.01656" fill="black"/>
<ellipse cx="7.30576" cy="60.6548" rx="0.996186" ry="1.01656" fill="black"/>
<ellipse cx="7.30576" cy="60.6548" rx="0.996186" ry="1.01656" fill="black"/>
<ellipse cx="69.567" cy="104.706" rx="0.996185" ry="1.01656" fill="black"/>
<ellipse cx="69.567" cy="104.706" rx="0.996185" ry="1.01656" fill="black"/>
<ellipse cx="69.567" cy="104.706" rx="0.996185" ry="1.01656" fill="black"/>
<ellipse cx="69.567" cy="104.706" rx="0.996185" ry="1.01656" fill="black"/>
<ellipse cx="69.567" cy="104.706" rx="0.996185" ry="1.01656" fill="black"/>
<ellipse cx="96.63" cy="94.5401" rx="0.996185" ry="1.01656" fill="black"/>
<ellipse cx="96.63" cy="94.5401" rx="0.996185" ry="1.01656" fill="black"/>
<ellipse cx="96.63" cy="94.5401" rx="0.996185" ry="1.01656" fill="black"/>
<ellipse cx="96.63" cy="94.5401" rx="0.996185" ry="1.01656" fill="black"/>
<ellipse cx="96.63" cy="94.5401" rx="0.996185" ry="1.01656" fill="black"/>
<ellipse cx="94.4718" cy="72.6841" rx="0.996189" ry="1.01656" fill="black"/>
<ellipse cx="94.4718" cy="72.6841" rx="0.996189" ry="1.01656" fill="black"/>
<ellipse cx="94.4718" cy="72.6841" rx="0.996189" ry="1.01656" fill="black"/>
<ellipse cx="94.4718" cy="72.6841" rx="0.996189" ry="1.01656" fill="black"/>
<ellipse cx="94.4718" cy="72.6841" rx="0.996189" ry="1.01656" fill="black"/>
<ellipse cx="62.2618" cy="62.5185" rx="0.830154" ry="0.847134" fill="black"/>
<ellipse cx="62.2618" cy="62.5185" rx="0.830154" ry="0.847134" fill="black"/>
<ellipse cx="62.2618" cy="62.5185" rx="0.830154" ry="0.847134" fill="black"/>
<ellipse cx="62.2618" cy="62.5185" rx="0.830154" ry="0.847134" fill="black"/>
<ellipse cx="62.2618" cy="62.5185" rx="0.830154" ry="0.847134" fill="black"/>
<ellipse cx="104.932" cy="73.1923" rx="0.996185" ry="1.01656" fill="black"/>
<ellipse cx="104.932" cy="73.1923" rx="0.996185" ry="1.01656" fill="black"/>
<ellipse cx="104.932" cy="73.1923" rx="0.996185" ry="1.01656" fill="black"/>
<ellipse cx="104.932" cy="73.1923" rx="0.996185" ry="1.01656" fill="black"/>
<ellipse cx="104.932" cy="73.1923" rx="0.996185" ry="1.01656" fill="black"/>
<ellipse cx="78.3668" cy="68.9567" rx="0.664124" ry="0.677708" fill="black"/>
<ellipse cx="78.3668" cy="68.9567" rx="0.664124" ry="0.677708" fill="black"/>
<ellipse cx="78.3668" cy="68.9567" rx="0.664124" ry="0.677708" fill="black"/>
<ellipse cx="78.3668" cy="68.9567" rx="0.664124" ry="0.677708" fill="black"/>
<ellipse cx="78.3668" cy="68.9567" rx="0.664124" ry="0.677708" fill="black"/>
<ellipse cx="90.3209" cy="53.7083" rx="0.664124" ry="0.677706" fill="black"/>
<ellipse cx="90.3209" cy="53.7083" rx="0.664124" ry="0.677706" fill="black"/>
<ellipse cx="90.3209" cy="53.7083" rx="0.664124" ry="0.677706" fill="black"/>
<ellipse cx="90.3209" cy="53.7083" rx="0.664124" ry="0.677706" fill="black"/>
<ellipse cx="90.3209" cy="53.7083" rx="0.664124" ry="0.677706" fill="black"/>
<ellipse cx="121.867" cy="70.1427" rx="0.664124" ry="0.677708" fill="black"/>
<ellipse cx="121.867" cy="70.1427" rx="0.664124" ry="0.677708" fill="black"/>
<ellipse cx="121.867" cy="70.1427" rx="0.664124" ry="0.677708" fill="black"/>
<ellipse cx="121.867" cy="70.1427" rx="0.664124" ry="0.677708" fill="black"/>
<ellipse cx="121.867" cy="70.1427" rx="0.664124" ry="0.677708" fill="black"/>
<ellipse cx="100.283" cy="56.2497" rx="0.664124" ry="0.677708" fill="black"/>
<ellipse cx="100.283" cy="56.2497" rx="0.664124" ry="0.677708" fill="black"/>
<ellipse cx="100.283" cy="56.2497" rx="0.664124" ry="0.677708" fill="black"/>
<ellipse cx="100.283" cy="56.2497" rx="0.664124" ry="0.677708" fill="black"/>
<ellipse cx="100.283" cy="56.2497" rx="0.664124" ry="0.677708" fill="black"/>
<ellipse cx="106.924" cy="88.1019" rx="0.664124" ry="0.677708" fill="black"/>
<ellipse cx="106.924" cy="88.1019" rx="0.664124" ry="0.677708" fill="black"/>
<ellipse cx="106.924" cy="88.1019" rx="0.664124" ry="0.677708" fill="black"/>
<ellipse cx="106.924" cy="88.1019" rx="0.664124" ry="0.677708" fill="black"/>
<ellipse cx="106.924" cy="88.1019" rx="0.664124" ry="0.677708" fill="black"/>
<ellipse cx="45.1602" cy="90.9821" rx="0.664124" ry="0.677708" fill="black"/>
<ellipse cx="45.1602" cy="90.9821" rx="0.664124" ry="0.677708" fill="black"/>
<ellipse cx="45.1602" cy="90.9821" rx="0.664124" ry="0.677708" fill="black"/>
<ellipse cx="45.1602" cy="90.9821" rx="0.664124" ry="0.677708" fill="black"/>
<ellipse cx="45.1602" cy="90.9821" rx="0.664124" ry="0.677708" fill="black"/>
<ellipse cx="65.3331" cy="1.2707" rx="1.24523" ry="1.2707" fill="black"/>
<ellipse cx="1.24523" cy="51.2516" rx="1.24523" ry="1.2707" fill="black"/>
<ellipse cx="96.7125" cy="9.91146" rx="1.24524" ry="1.2707" fill="black"/>
<ellipse cx="17.8487" cy="25.4987" rx="1.24523" ry="1.2707" fill="black"/>
<ellipse cx="17.3497" cy="101.741" rx="1.24523" ry="1.2707" fill="black"/>
<ellipse cx="111.987" cy="101.91" rx="1.24523" ry="1.2707" fill="black"/>
<ellipse cx="33.6212" cy="117.836" rx="1.24523" ry="1.2707" fill="black"/>
<ellipse cx="96.5465" cy="118.175" rx="1.24524" ry="1.2707" fill="black"/>
<ellipse cx="112.153" cy="26.1764" rx="1.24523" ry="1.2707" fill="black"/>
<ellipse cx="128.424" cy="50.4045" rx="1.24523" ry="1.2707" fill="black"/>
<ellipse cx="1.41125" cy="77.8516" rx="1.24523" ry="1.2707" fill="black"/>
<ellipse cx="65.8312" cy="131.729" rx="1.24523" ry="1.2707" fill="black"/>
<ellipse cx="128.424" cy="77.8516" rx="1.24523" ry="1.2707" fill="black"/>
<ellipse cx="51.5524" cy="64.2974" rx="1.24523" ry="1.2707" fill="black"/>
<ellipse cx="43.2506" cy="54.1318" rx="1.24523" ry="1.2707" fill="black"/>
<ellipse cx="55.7032" cy="41.4248" rx="1.24523" ry="1.2707" fill="black"/>
<ellipse cx="55.7032" cy="54.1318" rx="1.24523" ry="1.2707" fill="black"/>
<ellipse cx="55.7032" cy="74.4631" rx="1.24523" ry="1.2707" fill="black"/>
<ellipse cx="55.7032" cy="74.4631" rx="1.24523" ry="1.2707" fill="black"/>
<ellipse cx="67.3253" cy="79.5459" rx="1.24523" ry="1.2707" fill="black"/>
<ellipse cx="67.3253" cy="50.7433" rx="1.24523" ry="1.2707" fill="black"/>
<ellipse cx="67.3253" cy="37.1892" rx="1.24523" ry="1.2707" fill="black"/>
<ellipse cx="78.1173" cy="40.9166" rx="1.24523" ry="1.2707" fill="black"/>
<ellipse cx="78.2838" cy="87.8478" rx="1.24523" ry="1.2707" fill="black"/>
<ellipse cx="88.9093" cy="82.9344" rx="1.24523" ry="1.2707" fill="black"/>
<ellipse cx="78.1173" cy="54.1318" rx="1.24523" ry="1.2707" fill="black"/>
<ellipse cx="78.1173" cy="74.4631" rx="1.24523" ry="1.2707" fill="black"/>
<ellipse cx="67.3253" cy="93.1" rx="1.24523" ry="1.2707" fill="black"/>
<ellipse cx="55.7032" cy="87.1701" rx="1.24523" ry="1.2707" fill="black"/>
<ellipse cx="42.7526" cy="74.6325" rx="1.24523" ry="1.2707" fill="black"/>
<path d="M33.4551 9.74204L65.6651 1.18599L96.7129 9.42119L111.988 25.4024L128.508 50.108V77.6673L111.988 102.373L96.7129 118.354L65.6651 131.645L33.8702 118.354L17.8482 102.373L1.32812 77.6673V50.108L17.8482 25.4024L33.4551 9.74204Z" stroke="black"/>
<path d="M78.2005 74.7336V87.763L67.3202 80.256L55.698 87.763V74.7336H43.334L51.4942 64.5516L43.334 54.2833H55.698V41.3401L67.3202 50.4866L78.2005 41.3401V54.2833" stroke="black" stroke-width="2"/>
<line y1="-1" x2="14.233" y2="-1" transform="matrix(-0.699913 0.714228 -0.699913 -0.714228 54.126 42.3567)" stroke="black" stroke-width="2"/>
<line y1="-1" x2="8.53307" y2="-1" transform="matrix(-0.933953 0.357395 -0.344931 -0.938628 65.416 37.1045)" stroke="black" stroke-width="2"/>
<line y1="-1" x2="7.76341" y2="-1" transform="matrix(-0.919612 -0.392828 0.379523 -0.925182 76.54 40.1541)" stroke="black" stroke-width="2"/>
<line y1="-0.15" x2="15.436" y2="-0.15" transform="matrix(-0.387218 0.921988 -0.916212 -0.400693 106.26 42.0178)" stroke="black" stroke-width="0.3"/>
<line y1="-0.15" x2="14.4257" y2="-0.15" transform="matrix(0.78264 0.622475 -0.606991 0.794709 88.9922 47.2701)" stroke="black" stroke-width="0.3"/>
<line y1="-0.15" x2="20.1583" y2="-0.15" transform="matrix(0.222382 0.97496 -0.972932 0.23109 95.7993 36.5962)" stroke="black" stroke-width="0.3"/>
<line y1="-0.15" x2="12.7499" y2="-0.15" transform="matrix(0.546932 -0.837177 0.82681 0.562481 88.9922 47.2701)" stroke="black" stroke-width="0.3"/>
<line y1="-0.15" x2="15.1186" y2="-0.15" transform="matrix(0.81266 0.582738 -0.567154 0.823612 83.6792 27.786)" stroke="black" stroke-width="0.3"/>
<line y1="-0.15" x2="18.2274" y2="-0.15" transform="matrix(0.965537 -0.260264 0.250597 0.968091 83.6792 27.786)" stroke="black" stroke-width="0.3"/>
<line y1="-0.15" x2="13.9549" y2="-0.15" transform="matrix(0.321237 0.946999 -0.942904 0.333065 96.7959 9.82675)" stroke="black" stroke-width="0.3"/>
<line y1="-0.15" x2="24.6447" y2="-0.15" transform="matrix(-0.963387 0.268116 -0.258199 -0.966092 96.7959 9.82675)" stroke="black" stroke-width="0.3"/>
<line y1="-0.15" x2="15.436" y2="-0.15" transform="matrix(-0.677635 -0.735399 0.721557 -0.692355 83.5137 27.786)" stroke="black" stroke-width="0.3"/>
<line y1="-0.15" x2="22.239" y2="-0.15" transform="matrix(0.589793 -0.807554 0.79596 0.605349 83.5137 27.786)" stroke="black" stroke-width="0.3"/>
<line y1="-0.15" x2="14.0862" y2="-0.15" transform="matrix(-0.377176 0.926142 -0.920634 -0.390426 83.5137 27.786)" stroke="black" stroke-width="0.3"/>
<line y1="-0.15" x2="9.01688" y2="-0.15" transform="matrix(0.589227 0.807968 -0.79639 0.604784 72.8877 33.5465)" stroke="black" stroke-width="0.3"/>
<line y1="-0.15" x2="6.5329" y2="-0.15" transform="matrix(-0.838681 0.544622 -0.52915 -0.848528 72.8877 33.5465)" stroke="black" stroke-width="0.3"/>
<line y1="-0.15" x2="16.4995" y2="-0.15" transform="matrix(0.744646 0.667459 -0.652376 0.757895 55.1221 26.0917)" stroke="black" stroke-width="0.3"/>
<line y1="-0.15" x2="19.9939" y2="-0.15" transform="matrix(0.880234 -0.47454 0.459754 0.888047 55.1221 26.0917)" stroke="black" stroke-width="0.3"/>
<line y1="-0.15" x2="20.162" y2="-0.15" transform="matrix(0.938774 0.344535 -0.3324 0.943138 53.7939 9.65732)" stroke="black" stroke-width="0.3"/>
<line y1="-0.15" x2="17.061" y2="-0.15" transform="matrix(0.42819 0.903688 -0.89678 0.442477 65.416 1.18599)" stroke="black" stroke-width="0.3"/>
<line y1="-0.15" x2="16.9459" y2="-0.15" transform="matrix(-0.0195954 -0.999808 0.999792 -0.0204048 73.0532 33.5465)" stroke="black" stroke-width="0.3"/>
<line y1="-0.15" x2="11.9413" y2="-0.15" transform="matrix(0.875949 -0.482403 0.467511 0.883987 73.0532 33.5465)" stroke="black" stroke-width="0.3"/>
<line y1="-0.15" x2="18.3033" y2="-0.15" transform="matrix(0.970607 -0.240672 0.231644 0.972801 78.2007 41.0013)" stroke="black" stroke-width="0.3"/>
<line y1="-0.15" x2="17.5689" y2="-0.15" transform="matrix(0.264608 0.964356 -0.961521 0.274732 100.283 56.2497)" stroke="black" stroke-width="0.3"/>
<line y1="-0.15" x2="10.4723" y2="-0.15" transform="matrix(0.998821 0.0485355 -0.0466141 0.998913 94.4717 72.6841)" stroke="black" stroke-width="0.3"/>
<line y1="-0.15" x2="18.6364" y2="-0.15" transform="matrix(0.855261 -0.518197 0.502914 0.864337 88.9922 82.8497)" stroke="black" stroke-width="0.3"/>
<line y1="-0.15" x2="15.0421" y2="-0.15" transform="matrix(-0.132454 -0.991189 0.990457 -0.137824 106.924 88.1019)" stroke="black" stroke-width="0.3"/>
<line y1="-0.15" x2="11.911" y2="-0.15" transform="matrix(-0.850298 0.526302 -0.510952 -0.859609 106.924 88.1019)" stroke="black" stroke-width="0.3"/>
<path d="M111.738 101.91L96.7812 94.3914" stroke="black" stroke-width="0.3"/>
<line y1="-0.15" x2="13.5415" y2="-0.15" transform="matrix(0.564003 0.825773 -0.814911 0.579585 88.9922 83.3579)" stroke="black" stroke-width="0.3"/>
<line y1="-0.15" x2="11.6423" y2="-0.15" transform="matrix(-0.399307 0.916817 -0.910713 -0.41304 88.9922 83.3579)" stroke="black" stroke-width="0.3"/>
<line y1="-0.15" x2="8.77702" y2="-0.15" transform="matrix(0.699913 0.714228 -0.699913 0.714228 78.2007 87.7631)" stroke="black" stroke-width="0.3"/>
<line y1="-0.15" x2="16.9428" y2="-0.15" transform="matrix(0.99955 0.0299997 -0.0288103 0.999585 67.4087 93.5236)" stroke="black" stroke-width="0.3"/>
<line y1="-0.15" x2="11.3886" y2="-0.15" transform="matrix(0.189524 0.981876 -0.980392 0.197057 67.4087 93.5236)" stroke="black" stroke-width="0.3"/>
<line y1="-0.15" x2="19.533" y2="-0.15" transform="matrix(-0.892503 0.451042 -0.436611 -0.89965 67.4087 93.5236)" stroke="black" stroke-width="0.3"/>
<line y1="-0.15" x2="12.4569" y2="-0.15" transform="matrix(0.99963 0.0272019 -0.0261235 0.999659 84.3438 94.0319)" stroke="black" stroke-width="0.3"/>
<line y1="-0.15" x2="20.9792" y2="-0.15" transform="matrix(0.443188 0.896429 -0.889093 0.457726 84.3438 94.0319)" stroke="black" stroke-width="0.3"/>
<line y1="-0.15" x2="26.3567" y2="-0.15" transform="matrix(0.951207 -0.308555 0.297413 0.954749 68.5708 120.971)" stroke="black" stroke-width="0.3"/>
<line y1="-0.15" x2="27.8764" y2="-0.15" transform="matrix(0.994648 -0.103323 0.0992634 0.995061 68.5708 120.971)" stroke="black" stroke-width="0.3"/>
<line y1="-0.15" x2="10.9995" y2="-0.15" transform="matrix(-0.241511 0.970398 -0.96802 -0.250875 68.5708 120.971)" stroke="black" stroke-width="0.3"/>
<line y1="-0.15" x2="16.3765" y2="-0.15" transform="matrix(-0.963143 -0.268988 0.259044 -0.965865 68.5708 120.971)" stroke="black" stroke-width="0.3"/>
<line y1="-0.15" x2="18.2287" y2="-0.15" transform="matrix(-0.810633 0.585555 -0.569971 -0.821665 84.3438 94.0319)" stroke="black" stroke-width="0.3"/>
<line y1="-0.15" x2="16.2861" y2="-0.15" transform="matrix(0.0509736 -0.9987 0.998591 0.0530733 68.7368 120.971)" stroke="black" stroke-width="0.3"/>
<line y1="-0.15" x2="20.5392" y2="-0.15" transform="matrix(0.816444 -0.577425 0.561845 0.827242 52.7979 116.566)" stroke="black" stroke-width="0.3"/>
<line y1="-0.15" x2="19.4618" y2="-0.15" transform="matrix(-0.998141 0.0609394 -0.0585293 -0.998286 52.7979 116.566)" stroke="black" stroke-width="0.3"/>
<path d="M52.8179 116.551L65.499 131.221" stroke="black" stroke-width="0.3"/>
<line y1="-0.15" x2="14.3429" y2="-0.15" transform="matrix(-0.196789 -0.980446 0.978848 -0.204588 52.7979 116.566)" stroke="black" stroke-width="0.3"/>
<line y1="-0.15" x2="12.4867" y2="-0.15" transform="matrix(0.385603 0.922665 -0.916932 0.399043 45.1602 90.9821)" stroke="black" stroke-width="0.3"/>
<line y1="-0.15" x2="19.9047" y2="-0.15" transform="matrix(-0.900861 0.434107 -0.41997 -0.907538 45.1602 90.9821)" stroke="black" stroke-width="0.3"/>
<line y1="-0.15" x2="22.9072" y2="-0.15" transform="matrix(-0.992973 -0.11834 0.113705 -0.993515 49.9751 102.334)" stroke="black" stroke-width="0.3"/>
<line y1="-0.15" x2="8.86977" y2="-0.15" transform="matrix(0.973375 -0.229219 0.220574 0.97537 17.4336 101.995)" stroke="black" stroke-width="0.3"/>
<line y1="-0.15" x2="22.6577" y2="-0.15" transform="matrix(-0.732779 0.680467 -0.66556 -0.746344 49.9751 102.334)" stroke="black" stroke-width="0.3"/>
<line y1="-0.15" x2="32.5491" y2="-0.15" transform="matrix(-0.999783 -0.0208212 0.019995 -0.9998 49.9751 102.334)" stroke="black" stroke-width="0.3"/>
<line y1="-0.15" x2="16.3182" y2="-0.15" transform="matrix(-0.356111 0.934444 -0.929485 -0.368859 55.7866 87.2548)" stroke="black" stroke-width="0.3"/>
<line y1="-0.15" x2="11.1042" y2="-0.15" transform="matrix(-0.941979 0.335673 -0.323774 -0.946134 55.7866 87.2548)" stroke="black" stroke-width="0.3"/>
<line y1="-0.15" x2="17.8975" y2="-0.15" transform="matrix(-0.909124 -0.416526 0.402724 -0.915321 55.7866 87.2548)" stroke="black" stroke-width="0.3"/>
<line y1="-0.15" x2="5.93024" y2="-0.15" transform="matrix(-0.559947 0.828528 -0.817785 -0.575524 42.8359 74.8866)" stroke="black" stroke-width="0.3"/>
<line y1="-0.15" x2="14.2667" y2="-0.15" transform="matrix(0.069826 0.997559 -0.997354 0.0726967 38.353 65.5681)" stroke="black" stroke-width="0.3"/>
<line y1="-0.15" x2="23.7753" y2="-0.15" transform="matrix(0.663418 0.748249 -0.734734 0.678355 23.5762 62.0102)" stroke="black" stroke-width="0.3"/>
<line y1="-0.15" x2="12.2393" y2="-0.15" transform="matrix(0.0813921 -0.996682 0.996404 0.084732 23.5762 62.0102)" stroke="black" stroke-width="0.3"/>
<line y1="-0.15" x2="14.94" y2="-0.15" transform="matrix(-0.989073 -0.147426 0.141696 -0.98991 38.353 64.2127)" stroke="black" stroke-width="0.3"/>
<line y1="-0.15" x2="18.272" y2="-0.15" transform="matrix(-0.690584 -0.723253 0.709129 -0.705078 37.1909 63.0267)" stroke="black" stroke-width="0.3"/>
<line y1="-0.15" x2="19.1228" y2="-0.15" transform="matrix(-0.868234 0.496155 -0.481095 -0.876669 41.1758 40.3235)" stroke="black" stroke-width="0.3"/>
<line y1="-0.15" x2="13.8923" y2="-0.15" transform="matrix(0.155367 0.987857 -0.986853 0.161623 41.1758 40.3235)" stroke="black" stroke-width="0.3"/>
<line y1="-0.15" x2="19.2337" y2="-0.15" transform="matrix(0.97545 0.220221 -0.211882 0.977295 24.5732 49.8115)" stroke="black" stroke-width="0.3"/>
<line y1="-0.15" x2="14.0512" y2="-0.15" transform="matrix(0.496278 0.868163 -0.859283 0.5115 17.5996 37.6127)" stroke="black" stroke-width="0.3"/>
<line y1="-0.15" x2="23.3217" y2="-0.15" transform="matrix(0.526818 -0.849978 0.8402 0.542277 27.2285 99.6229)" stroke="black" stroke-width="0.3"/>
<line y1="-0.15" x2="17.8273" y2="-0.15" transform="matrix(-0.800944 -0.598739 0.583168 -0.812352 25.5693 98.437)" stroke="black" stroke-width="0.3"/>
<line y1="-0.15" x2="15.1906" y2="-0.15" transform="matrix(-0.404405 -0.91458 0.908336 -0.418242 17.4336 101.656)" stroke="black" stroke-width="0.3"/>
<line y1="-0.15" x2="14.1125" y2="-0.15" transform="matrix(0.70589 0.708322 -0.693889 0.720082 1.32812 77.7669)" stroke="black" stroke-width="0.3"/>
<line y1="-0.15" x2="14.3923" y2="-0.15" transform="matrix(-0.530659 0.847585 -0.837694 -0.54614 18.9268 75.5643)" stroke="black" stroke-width="0.3"/>
<line y1="-0.15" x2="17.7366" y2="-0.15" transform="matrix(-0.99226 0.124181 -0.119324 -0.992855 18.9268 75.5643)" stroke="black" stroke-width="0.3"/>
<line y1="-0.15" x2="18.1259" y2="-0.15" transform="matrix(-0.329755 0.944067 -0.939766 -0.341817 7.30566 60.6548)" stroke="black" stroke-width="0.3"/>
<line y1="-0.15" x2="18.9042" y2="-0.15" transform="matrix(0.614792 0.788689 -0.776409 0.63023 7.30566 60.6548)" stroke="black" stroke-width="0.3"/>
<line y1="-0.15" x2="11.2137" y2="-0.15" transform="matrix(-0.533021 -0.846102 0.836142 -0.548513 7.30566 60.6548)" stroke="black" stroke-width="0.3"/>
<line y1="-0.15" x2="21.0496" y2="-0.15" transform="matrix(-0.765098 0.643914 -0.628582 -0.777744 17.4336 37.6127)" stroke="black" stroke-width="0.3"/>
<line y1="-0.15" x2="11.5318" y2="-0.15" transform="matrix(0.043193 -0.999067 0.998988 0.0449744 17.4336 37.6127)" stroke="black" stroke-width="0.3"/>
<line y1="-0.15" x2="19.7253" y2="-0.15" transform="matrix(0.757542 -0.652786 0.637537 0.77042 17.4336 37.6127)" stroke="black" stroke-width="0.3"/>
<line y1="-0.15" x2="11.9959" y2="-0.15" transform="matrix(-0.955003 -0.296598 0.285807 -0.958287 43.832 28.2943)" stroke="black" stroke-width="0.3"/>
<line y1="-0.15" x2="11.4429" y2="-0.15" transform="matrix(0.986648 -0.162869 0.156567 0.987667 43.832 28.2943)" stroke="black" stroke-width="0.3"/>
<line y1="-0.15" x2="14.9243" y2="-0.15" transform="matrix(-0.0444994 -0.999009 0.998926 -0.0463343 55.7866 41.3401)" stroke="black" stroke-width="0.3"/>
<line y1="-0.15" x2="17.8072" y2="-0.15" transform="matrix(-0.68064 -0.732618 0.71871 -0.69531 55.7866 41.3401)" stroke="black" stroke-width="0.3"/>
<line y1="-0.15" x2="14.4804" y2="-0.15" transform="matrix(-0.997533 -0.0702024 0.0674295 -0.997724 55.7866 41.3401)" stroke="black" stroke-width="0.3"/>
<line y1="-0.15" x2="12.1185" y2="-0.15" transform="matrix(-0.205509 0.978655 -0.976917 -0.213621 43.832 28.2943)" stroke="black" stroke-width="0.3"/>
<line y1="-0.15" x2="17.8352" y2="-0.15" transform="matrix(0.502696 0.864463 -0.855394 0.517978 32.376 24.7363)" stroke="black" stroke-width="0.3"/>
<line y1="-0.15" x2="13.9563" y2="-0.15" transform="matrix(0.0951716 -0.995461 0.995081 0.0990667 32.376 24.7363)" stroke="black" stroke-width="0.3"/>
<line y1="-0.15" x2="26.2915" y2="-0.15" transform="matrix(0.814635 -0.579974 0.564392 0.825507 32.376 24.7363)" stroke="black" stroke-width="0.3"/>
<line y1="-0.15" x2="19.5946" y2="-0.15" transform="matrix(0.99985 -0.0172932 0.0166071 0.999862 34.2021 9.82675)" stroke="black" stroke-width="0.3"/>
<line y1="-0.15" x2="16.6569" y2="-0.15" transform="matrix(-0.0797417 -0.996816 0.996548 -0.0830149 55.1221 26.0917)" stroke="black" stroke-width="0.3"/>
<line y1="-0.15" x2="14.6909" y2="-0.15" transform="matrix(-0.825018 0.565106 -0.549549 -0.835461 65.9141 1.18599)" stroke="black" stroke-width="0.3"/>
<line y1="-0.15" x2="14.4804" y2="-0.15" transform="matrix(-0.997533 0.0702025 -0.0674294 -0.997724 32.376 24.7363)" stroke="black" stroke-width="0.3"/>
<line y1="-0.15" x2="22.7866" y2="-0.15" transform="matrix(0.998229 0.059483 -0.0571303 0.998367 32.376 24.7363)" stroke="black" stroke-width="0.3"/>
<line y1="-0.15" x2="24.0616" y2="-0.15" transform="matrix(0.993633 0.112662 -0.108244 0.994124 17.4336 37.6127)" stroke="black" stroke-width="0.3"/>
<line y1="-0.15" x2="23.2838" y2="-0.15" transform="matrix(-0.998304 0.0582126 -0.05591 -0.998436 24.5732 49.8115)" stroke="black" stroke-width="0.3"/>
<line y1="-0.15" x2="20.3896" y2="-0.15" transform="matrix(0.846866 -0.531807 0.516415 0.856338 7.30566 60.6548)" stroke="black" stroke-width="0.3"/>
<line y1="-0.15" x2="14.3292" y2="-0.15" transform="matrix(-0.324433 0.945909 -0.941737 -0.336349 23.5762 62.0102)" stroke="black" stroke-width="0.3"/>
<line y1="-0.15" x2="29.327" y2="-0.15" transform="matrix(-0.962431 0.271526 -0.261502 -0.965203 39.5156 79.8)" stroke="black" stroke-width="0.3"/>
<line y1="-0.15" x2="21.019" y2="-0.15" transform="matrix(0.979485 0.201516 -0.193825 0.981036 18.9268 75.5643)" stroke="black" stroke-width="0.3"/>
<line y1="-0.15" x2="12.5302" y2="-0.15" transform="matrix(0.477016 0.878894 -0.870579 0.492028 39.3496 79.9694)" stroke="black" stroke-width="0.3"/>
<line y1="-0.15" x2="19.7347" y2="-0.15" transform="matrix(0.992751 0.120193 -0.115488 0.993309 49.9751 102.334)" stroke="black" stroke-width="0.3"/>
<line y1="-0.15" x2="25.411" y2="-0.15" transform="matrix(-0.947405 -0.320038 0.308569 -0.951202 93.6416 112.838)" stroke="black" stroke-width="0.3"/>
<line y1="-0.15" x2="17.2924" y2="-0.15" transform="matrix(0.144021 -0.989575 0.98871 0.149841 93.6416 112.838)" stroke="black" stroke-width="0.3"/>
<line y1="-0.15" x2="22.1955" y2="-0.15" transform="matrix(-0.00736797 -0.999973 0.999971 -0.00767227 96.6299 118.09)" stroke="black" stroke-width="0.3"/>
<line y1="-0.15" x2="5.58554" y2="-0.15" transform="matrix(0.475602 0.87966 -0.871386 0.490598 93.6416 112.838)" stroke="black" stroke-width="0.3"/>
<line y1="-0.15" x2="18.5483" y2="-0.15" transform="matrix(0.96674 0.255762 -0.24624 0.969209 88.9922 83.3579)" stroke="black" stroke-width="0.3"/>
<line y1="-0.15" x2="17.1783" y2="-0.15" transform="matrix(-0.985844 0.167667 -0.161191 -0.986923 121.867 70.3121)" stroke="black" stroke-width="0.3"/>
<line y1="-0.15" x2="23.2328" y2="-0.15" transform="matrix(-0.643176 0.765719 -0.752699 -0.658365 121.867 70.3121)" stroke="black" stroke-width="0.3"/>
<line y1="-0.15" x2="10.0952" y2="-0.15" transform="matrix(0.674309 0.73845 -0.724682 0.689084 121.867 70.3121)" stroke="black" stroke-width="0.3"/>
<line y1="-0.15" x2="23.6359" y2="-0.15" transform="matrix(0.906165 -0.422924 0.408996 0.912536 106.924 87.7631)" stroke="black" stroke-width="0.3"/>
<line y1="-0.15" x2="14.9747" y2="-0.15" transform="matrix(0.343709 0.939076 -0.934431 0.356143 106.924 87.7631)" stroke="black" stroke-width="0.3"/>
<line y1="-0.15" x2="20.4245" y2="-0.15" transform="matrix(0.325159 -0.945659 0.94147 0.337097 121.867 70.1427)" stroke="black" stroke-width="0.3"/>
<line y1="-0.15" x2="28.6444" y2="-0.15" transform="matrix(0.97957 -0.201104 0.193428 0.981115 100.283 56.2497)" stroke="black" stroke-width="0.3"/>
<line y1="-0.15" x2="17.5914" y2="-0.15" transform="matrix(-0.330338 0.943863 -0.939548 -0.342416 100.283 56.2497)" stroke="black" stroke-width="0.3"/>
<line y1="-0.15" x2="16.8919" y2="-0.15" transform="matrix(0.99273 -0.120361 0.115649 0.99329 77.7026 74.8866)" stroke="black" stroke-width="0.3"/>
<line y1="-0.25" x2="11.3943" y2="-0.25" transform="matrix(0.451713 -0.892163 0.884584 0.466382 89.3242 82.8497)" stroke="black" stroke-width="0.5"/>
<line y1="-0.15" x2="16.5307" y2="-0.15" transform="matrix(-0.974247 -0.225482 0.216964 -0.97618 94.4717 72.6841)" stroke="black" stroke-width="0.3"/>
<line y1="-0.15" x2="19.4245" y2="-0.15" transform="matrix(-0.213688 -0.976902 0.975026 -0.222091 94.4717 72.6841)" stroke="black" stroke-width="0.3"/>
<line y1="-0.15" x2="17.1274" y2="-0.15" transform="matrix(0.930611 0.366009 -0.35333 0.935499 62.4277 62.6879)" stroke="black" stroke-width="0.3"/>
<line y1="-0.15" x2="14.4022" y2="-0.15" transform="matrix(0.0115281 0.999934 -0.999928 0.0120045 78.2007 54.5554)" stroke="black" stroke-width="0.3"/>
<line y1="-0.15" x2="12.1498" y2="-0.15" transform="matrix(0.997566 -0.0697239 0.0669697 0.997755 78.2007 54.5554)" stroke="black" stroke-width="0.3"/>
<line y1="-0.15" x2="19.4786" y2="-0.15" transform="matrix(0.622236 -0.78283 0.770351 0.63762 78.2007 68.9567)" stroke="black" stroke-width="0.3"/>
<line y1="-0.15" x2="10.2809" y2="-0.15" transform="matrix(-0.968966 -0.247196 0.237952 -0.971277 100.283 56.2497)" stroke="black" stroke-width="0.3"/>
<line y1="-0.15" x2="6.5738" y2="-0.15" transform="matrix(0.202052 0.979375 -0.977693 0.21004 88.9922 47.2701)" stroke="black" stroke-width="0.3"/>
<line y1="-0.15" x2="20.8939" y2="-0.15" transform="matrix(0.524461 0.851435 -0.841726 0.539906 67.4087 51.1669)" stroke="black" stroke-width="0.3"/>
<line x1="78.2167" y1="74.5478" x2="78.2167" y2="68.279" stroke="black" stroke-width="0.3"/>
<line y1="-0.25" x2="10.4997" y2="-0.25" transform="matrix(-0.632518 -0.774546 0.761797 -0.647815 62.4277 62.6879)" stroke="black" stroke-width="0.5"/>
<line y1="-0.15" x2="12.5516" y2="-0.15" transform="matrix(0.396835 -0.91789 0.911853 0.410516 62.4277 62.6879)" stroke="black" stroke-width="0.3"/>
<line y1="-0.15" x2="13.3639" y2="-0.15" transform="matrix(-0.484528 0.874775 -0.86624 -0.499628 62.2617 62.5185)" stroke="black" stroke-width="0.3"/>
<line y1="-0.15" x2="17.7072" y2="-0.15" transform="matrix(0.29067 0.956823 -0.953432 0.301609 62.2617 62.5185)" stroke="black" stroke-width="0.3"/>
<line y1="-0.15" x2="19.5325" y2="-0.15" transform="matrix(0.807522 0.589838 -0.574255 0.818677 62.4277 62.6879)" stroke="black" stroke-width="0.3"/>
<line y1="-0.15" x2="11.0636" y2="-0.15" transform="matrix(-0.990457 0.137825 -0.132453 -0.991189 62.4277 62.6879)" stroke="black" stroke-width="0.3"/>
<line y1="-0.15" x2="10.4997" y2="-0.15" transform="matrix(-0.632518 -0.774546 0.761797 -0.647815 62.4277 62.6879)" stroke="black" stroke-width="0.3"/>
<line y1="-0.15" x2="23.596" y2="-0.15" transform="matrix(0.92177 0.387738 -0.374547 0.927208 106.592 41.3401)" stroke="black" stroke-width="0.3"/>
<line y1="-0.15" x2="10.5202" y2="-0.15" transform="matrix(-0.915365 -0.402624 0.389107 -0.921192 105.429 40.8318)" stroke="black" stroke-width="0.3"/>
<line y1="-0.15" x2="14.6197" y2="-0.15" transform="matrix(-0.374771 0.927117 -0.921674 -0.387966 101.279 23.042)" stroke="black" stroke-width="0.3"/>
<line y1="-0.15" x2="32.2562" y2="-0.15" transform="matrix(0.720616 -0.693334 0.67863 0.73448 104.932 73.1924)" stroke="black" stroke-width="0.3"/>
<line y1="-0.15" x2="16.2598" y2="-0.15" transform="matrix(-0.347179 0.937799 -0.933068 -0.359701 112.236 26.0917)" stroke="black" stroke-width="0.3"/>
<line y1="-0.15" x2="19.0538" y2="-0.15" transform="matrix(0.278841 0.960337 -0.957203 0.289417 101.279 23.042)" stroke="black" stroke-width="0.3"/>
<line y1="-0.15" x2="11.055" y2="-0.15" transform="matrix(-0.961196 -0.275866 0.265706 -0.964054 111.904 26.0917)" stroke="black" stroke-width="0.3"/>
<line y1="-1" x2="8.53072" y2="-1" transform="matrix(-0.85636 -0.51638 0.501113 -0.865382 87.3325 46.0841)" stroke="black" stroke-width="2"/>
<line y1="-1" x2="9.50201" y2="-1" transform="matrix(-0.821242 0.57058 -0.55501 -0.831844 87.499 48.6255)" stroke="black" stroke-width="2"/>
<line y1="-1" x2="10.0808" y2="-1" transform="matrix(-0.724683 -0.689083 0.674309 -0.738449 87.3325 81.6637)" stroke="black" stroke-width="2"/>
<line y1="-1" x2="14.233" y2="-1" transform="matrix(0.699913 0.714228 -0.699913 0.714228 43.666 76.242)" stroke="black" stroke-width="2"/>
<line y1="-1" x2="8.33985" y2="-1" transform="matrix(0.836142 0.548514 -0.533021 0.846102 57.4463 88.4408)" stroke="black" stroke-width="2"/>
<line y1="-1" x2="8.2797" y2="-1" transform="matrix(0.882322 -0.470647 0.455915 0.890023 69.5669 93.0153)" stroke="black" stroke-width="2"/>
<line y1="-1" x2="7.53004" y2="-1" transform="matrix(0.904014 -0.427502 0.413487 0.91051 80.3589 87.4242)" stroke="black" stroke-width="2"/>
<line y1="-1" x2="7.8745" y2="-1" transform="matrix(0.379523 0.925182 -0.919612 0.392827 39.0176 65.907)" stroke="black" stroke-width="2"/>
<line y1="-1" x2="7.85257" y2="-1" transform="matrix(-0.42287 0.90619 -0.899432 -0.437061 42.0054 55.572)" stroke="black" stroke-width="2"/>
<path d="M78.2837 74.4631L67.2427 79.4611L55.7865 74.4631L51.4697 64.6363L55.7865 54.1318L67.2427 50.5739L78.2837 54.1318" stroke="black" stroke-width="2"/>
<ellipse cx="41.3419" cy="40.3236" rx="0.664124" ry="0.677708" fill="black"/>
<ellipse cx="41.3419" cy="40.3236" rx="0.664124" ry="0.677708" fill="black"/>
<ellipse cx="41.3419" cy="40.3236" rx="0.664124" ry="0.677708" fill="black"/>
<ellipse cx="41.3419" cy="40.3236" rx="0.664124" ry="0.677708" fill="black"/>
<ellipse cx="41.3419" cy="40.3236" rx="0.664124" ry="0.677708" fill="black"/>
<ellipse cx="93.6417" cy="112.838" rx="0.664124" ry="0.677704" fill="black"/>
<ellipse cx="93.6417" cy="112.838" rx="0.664124" ry="0.677704" fill="black"/>
<ellipse cx="93.6417" cy="112.838" rx="0.664124" ry="0.677704" fill="black"/>
<ellipse cx="93.6417" cy="112.838" rx="0.664124" ry="0.677704" fill="black"/>
<ellipse cx="93.6417" cy="112.838" rx="0.664124" ry="0.677704" fill="black"/>
<ellipse cx="18.9278" cy="75.5643" rx="0.664124" ry="0.677704" fill="black"/>
<ellipse cx="18.9278" cy="75.5643" rx="0.664124" ry="0.677704" fill="black"/>
<ellipse cx="18.9278" cy="75.5643" rx="0.664124" ry="0.677704" fill="black"/>
<ellipse cx="18.9278" cy="75.5643" rx="0.664124" ry="0.677704" fill="black"/>
<ellipse cx="18.9278" cy="75.5643" rx="0.664124" ry="0.677704" fill="black"/>
<ellipse cx="52.7979" cy="116.566" rx="0.664124" ry="0.677708" fill="black"/>
<ellipse cx="52.7979" cy="116.566" rx="0.664124" ry="0.677708" fill="black"/>
<ellipse cx="52.7979" cy="116.566" rx="0.664124" ry="0.677708" fill="black"/>
<ellipse cx="52.7979" cy="116.566" rx="0.664124" ry="0.677708" fill="black"/>
<ellipse cx="52.7979" cy="116.566" rx="0.664124" ry="0.677708" fill="black"/>
<ellipse cx="68.6538" cy="121.055" rx="0.415077" ry="0.423565" fill="black"/>
<ellipse cx="68.6538" cy="121.055" rx="0.415077" ry="0.423565" fill="black"/>
<ellipse cx="68.6538" cy="121.055" rx="0.415077" ry="0.423565" fill="black"/>
<ellipse cx="68.6538" cy="121.055" rx="0.415077" ry="0.423565" fill="black"/>
<ellipse cx="68.6538" cy="121.055" rx="0.415077" ry="0.423565" fill="black"/>
<ellipse cx="68.6538" cy="121.055" rx="0.415077" ry="0.423565" fill="black"/>
<ellipse cx="68.6538" cy="121.055" rx="0.415077" ry="0.423565" fill="black"/>
<ellipse cx="68.6538" cy="121.055" rx="0.415077" ry="0.423565" fill="black"/>
<ellipse cx="68.6538" cy="121.055" rx="0.415077" ry="0.423565" fill="black"/>
<ellipse cx="68.6538" cy="121.055" rx="0.415077" ry="0.423565" fill="black"/>
<ellipse cx="84.2608" cy="93.9471" rx="0.415077" ry="0.423569" fill="black"/>
<ellipse cx="84.2608" cy="93.9471" rx="0.415077" ry="0.423569" fill="black"/>
<ellipse cx="84.2608" cy="93.9471" rx="0.415077" ry="0.423569" fill="black"/>
<ellipse cx="84.2608" cy="93.9471" rx="0.415077" ry="0.423569" fill="black"/>
<ellipse cx="84.2608" cy="93.9471" rx="0.415077" ry="0.423569" fill="black"/>
<ellipse cx="49.8916" cy="102.418" rx="0.415077" ry="0.423565" fill="black"/>
<ellipse cx="49.8916" cy="102.418" rx="0.415077" ry="0.423565" fill="black"/>
<ellipse cx="49.8916" cy="102.418" rx="0.415077" ry="0.423565" fill="black"/>
<ellipse cx="49.8916" cy="102.418" rx="0.415077" ry="0.423565" fill="black"/>
<ellipse cx="49.8916" cy="102.418" rx="0.415077" ry="0.423565" fill="black"/>
<ellipse cx="11.2071" cy="87.8478" rx="0.415077" ry="0.423565" fill="black"/>
<ellipse cx="11.2071" cy="87.8478" rx="0.415077" ry="0.423565" fill="black"/>
<ellipse cx="11.2071" cy="87.8478" rx="0.415077" ry="0.423565" fill="black"/>
<ellipse cx="11.2071" cy="87.8478" rx="0.415077" ry="0.423565" fill="black"/>
<ellipse cx="11.2071" cy="87.8478" rx="0.415077" ry="0.423565" fill="black"/>
<ellipse cx="39.4327" cy="79.8847" rx="0.415077" ry="0.423569" fill="black"/>
<ellipse cx="39.4327" cy="79.8847" rx="0.415077" ry="0.423569" fill="black"/>
<ellipse cx="39.4327" cy="79.8847" rx="0.415077" ry="0.423569" fill="black"/>
<ellipse cx="39.4327" cy="79.8847" rx="0.415077" ry="0.423569" fill="black"/>
<ellipse cx="39.4327" cy="79.8847" rx="0.415077" ry="0.423569" fill="black"/>
<ellipse cx="23.4932" cy="62.0949" rx="0.415077" ry="0.423567" fill="black"/>
<ellipse cx="23.4932" cy="62.0949" rx="0.415077" ry="0.423567" fill="black"/>
<ellipse cx="23.4932" cy="62.0949" rx="0.415077" ry="0.423567" fill="black"/>
<ellipse cx="23.4932" cy="62.0949" rx="0.415077" ry="0.423567" fill="black"/>
<ellipse cx="23.4932" cy="62.0949" rx="0.415077" ry="0.423567" fill="black"/>
<ellipse cx="17.5166" cy="37.6974" rx="0.415077" ry="0.423567" fill="black"/>
<ellipse cx="17.5166" cy="37.6974" rx="0.415077" ry="0.423567" fill="black"/>
<ellipse cx="17.5166" cy="37.6974" rx="0.415077" ry="0.423567" fill="black"/>
<ellipse cx="17.5166" cy="37.6974" rx="0.415077" ry="0.423567" fill="black"/>
<ellipse cx="17.5166" cy="37.6974" rx="0.415077" ry="0.423567" fill="black"/>
<ellipse cx="43.7491" cy="28.379" rx="0.415077" ry="0.423567" fill="black"/>
<ellipse cx="43.7491" cy="28.379" rx="0.415077" ry="0.423567" fill="black"/>
<ellipse cx="43.7491" cy="28.379" rx="0.415077" ry="0.423567" fill="black"/>
<ellipse cx="43.7491" cy="28.379" rx="0.415077" ry="0.423567" fill="black"/>
<ellipse cx="43.7491" cy="28.379" rx="0.415077" ry="0.423567" fill="black"/>
<ellipse cx="95.8824" cy="36.6809" rx="0.415081" ry="0.423567" fill="black"/>
<ellipse cx="95.8824" cy="36.6809" rx="0.415081" ry="0.423567" fill="black"/>
<ellipse cx="95.8824" cy="36.6809" rx="0.415081" ry="0.423567" fill="black"/>
<ellipse cx="95.8824" cy="36.6809" rx="0.415081" ry="0.423567" fill="black"/>
<ellipse cx="95.8824" cy="36.6809" rx="0.415081" ry="0.423567" fill="black"/>
<ellipse cx="32.376" cy="24.7363" rx="0.664124" ry="0.677708" fill="black"/>
<ellipse cx="32.376" cy="24.7363" rx="0.664124" ry="0.677708" fill="black"/>
<ellipse cx="32.376" cy="24.7363" rx="0.664124" ry="0.677708" fill="black"/>
<ellipse cx="32.376" cy="24.7363" rx="0.664124" ry="0.677708" fill="black"/>
<ellipse cx="32.376" cy="24.7363" rx="0.664124" ry="0.677708" fill="black"/>
<ellipse cx="24.5723" cy="49.8115" rx="0.664124" ry="0.677708" fill="black"/>
<ellipse cx="24.5723" cy="49.8115" rx="0.664124" ry="0.677708" fill="black"/>
<ellipse cx="24.5723" cy="49.8115" rx="0.664124" ry="0.677708" fill="black"/>
<ellipse cx="24.5723" cy="49.8115" rx="0.664124" ry="0.677708" fill="black"/>
<ellipse cx="24.5723" cy="49.8115" rx="0.664124" ry="0.677708" fill="black"/>
<ellipse cx="73.0533" cy="16.6038" rx="0.664124" ry="0.677707" fill="black"/>
<ellipse cx="73.0533" cy="16.6038" rx="0.664124" ry="0.677707" fill="black"/>
<ellipse cx="73.0533" cy="16.6038" rx="0.664124" ry="0.677707" fill="black"/>
<ellipse cx="73.0533" cy="16.6038" rx="0.664124" ry="0.677707" fill="black"/>
<ellipse cx="73.0533" cy="16.6038" rx="0.664124" ry="0.677707" fill="black"/>
<ellipse cx="72.8873" cy="33.5465" rx="0.664124" ry="0.677708" fill="black"/>
<ellipse cx="72.8873" cy="33.5465" rx="0.664124" ry="0.677708" fill="black"/>
<ellipse cx="72.8873" cy="33.5465" rx="0.664124" ry="0.677708" fill="black"/>
<ellipse cx="72.8873" cy="33.5465" rx="0.664124" ry="0.677708" fill="black"/>
<ellipse cx="72.8873" cy="33.5465" rx="0.664124" ry="0.677708" fill="black"/>
<ellipse cx="83.5138" cy="27.786" rx="0.996185" ry="1.01656" fill="black"/>
<ellipse cx="83.5138" cy="27.786" rx="0.996185" ry="1.01656" fill="black"/>
<ellipse cx="83.5138" cy="27.786" rx="0.996185" ry="1.01656" fill="black"/>
<ellipse cx="83.5138" cy="27.786" rx="0.996185" ry="1.01656" fill="black"/>
<ellipse cx="83.5138" cy="27.786" rx="0.996185" ry="1.01656" fill="black"/>
<ellipse cx="101.279" cy="23.042" rx="0.996185" ry="1.01656" fill="black"/>
<ellipse cx="101.279" cy="23.042" rx="0.996185" ry="1.01656" fill="black"/>
<ellipse cx="101.279" cy="23.042" rx="0.996185" ry="1.01656" fill="black"/>
<ellipse cx="101.279" cy="23.042" rx="0.996185" ry="1.01656" fill="black"/>
<ellipse cx="101.279" cy="23.042" rx="0.996185" ry="1.01656" fill="black"/>
<ellipse cx="53.794" cy="9.82676" rx="0.996187" ry="1.01656" fill="black"/>
<ellipse cx="53.794" cy="9.82676" rx="0.996187" ry="1.01656" fill="black"/>
<ellipse cx="53.794" cy="9.82676" rx="0.996187" ry="1.01656" fill="black"/>
<ellipse cx="53.794" cy="9.82676" rx="0.996187" ry="1.01656" fill="black"/>
<ellipse cx="53.794" cy="9.82676" rx="0.996187" ry="1.01656" fill="black"/>
<ellipse cx="55.1222" cy="26.4306" rx="0.996185" ry="1.01656" fill="black"/>
<ellipse cx="55.1222" cy="26.4306" rx="0.996185" ry="1.01656" fill="black"/>
<ellipse cx="55.1222" cy="26.4306" rx="0.996185" ry="1.01656" fill="black"/>
<ellipse cx="55.1222" cy="26.4306" rx="0.996185" ry="1.01656" fill="black"/>
<ellipse cx="55.1222" cy="26.4306" rx="0.996185" ry="1.01656" fill="black"/>
<ellipse cx="7.30576" cy="60.6548" rx="0.996186" ry="1.01656" fill="black"/>
<ellipse cx="7.30576" cy="60.6548" rx="0.996186" ry="1.01656" fill="black"/>
<ellipse cx="7.30576" cy="60.6548" rx="0.996186" ry="1.01656" fill="black"/>
<ellipse cx="7.30576" cy="60.6548" rx="0.996186" ry="1.01656" fill="black"/>
<ellipse cx="7.30576" cy="60.6548" rx="0.996186" ry="1.01656" fill="black"/>
<ellipse cx="69.567" cy="104.706" rx="0.996185" ry="1.01656" fill="black"/>
<ellipse cx="69.567" cy="104.706" rx="0.996185" ry="1.01656" fill="black"/>
<ellipse cx="69.567" cy="104.706" rx="0.996185" ry="1.01656" fill="black"/>
<ellipse cx="69.567" cy="104.706" rx="0.996185" ry="1.01656" fill="black"/>
<ellipse cx="69.567" cy="104.706" rx="0.996185" ry="1.01656" fill="black"/>
<ellipse cx="96.63" cy="94.5401" rx="0.996185" ry="1.01656" fill="black"/>
<ellipse cx="96.63" cy="94.5401" rx="0.996185" ry="1.01656" fill="black"/>
<ellipse cx="96.63" cy="94.5401" rx="0.996185" ry="1.01656" fill="black"/>
<ellipse cx="96.63" cy="94.5401" rx="0.996185" ry="1.01656" fill="black"/>
<ellipse cx="96.63" cy="94.5401" rx="0.996185" ry="1.01656" fill="black"/>
<ellipse cx="94.4718" cy="72.6841" rx="0.996189" ry="1.01656" fill="black"/>
<ellipse cx="94.4718" cy="72.6841" rx="0.996189" ry="1.01656" fill="black"/>
<ellipse cx="94.4718" cy="72.6841" rx="0.996189" ry="1.01656" fill="black"/>
<ellipse cx="94.4718" cy="72.6841" rx="0.996189" ry="1.01656" fill="black"/>
<ellipse cx="94.4718" cy="72.6841" rx="0.996189" ry="1.01656" fill="black"/>
<ellipse cx="62.2618" cy="62.5185" rx="0.830154" ry="0.847134" fill="black"/>
<ellipse cx="62.2618" cy="62.5185" rx="0.830154" ry="0.847134" fill="black"/>
<ellipse cx="62.2618" cy="62.5185" rx="0.830154" ry="0.847134" fill="black"/>
<ellipse cx="62.2618" cy="62.5185" rx="0.830154" ry="0.847134" fill="black"/>
<ellipse cx="62.2618" cy="62.5185" rx="0.830154" ry="0.847134" fill="black"/>
<ellipse cx="104.932" cy="73.1923" rx="0.996185" ry="1.01656" fill="black"/>
<ellipse cx="104.932" cy="73.1923" rx="0.996185" ry="1.01656" fill="black"/>
<ellipse cx="104.932" cy="73.1923" rx="0.996185" ry="1.01656" fill="black"/>
<ellipse cx="104.932" cy="73.1923" rx="0.996185" ry="1.01656" fill="black"/>
<ellipse cx="104.932" cy="73.1923" rx="0.996185" ry="1.01656" fill="black"/>
<ellipse cx="78.3668" cy="68.9567" rx="0.664124" ry="0.677708" fill="black"/>
<ellipse cx="78.3668" cy="68.9567" rx="0.664124" ry="0.677708" fill="black"/>
<ellipse cx="78.3668" cy="68.9567" rx="0.664124" ry="0.677708" fill="black"/>
<ellipse cx="78.3668" cy="68.9567" rx="0.664124" ry="0.677708" fill="black"/>
<ellipse cx="78.3668" cy="68.9567" rx="0.664124" ry="0.677708" fill="black"/>
<ellipse cx="90.3209" cy="53.7083" rx="0.664124" ry="0.677706" fill="black"/>
<ellipse cx="90.3209" cy="53.7083" rx="0.664124" ry="0.677706" fill="black"/>
<ellipse cx="90.3209" cy="53.7083" rx="0.664124" ry="0.677706" fill="black"/>
<ellipse cx="90.3209" cy="53.7083" rx="0.664124" ry="0.677706" fill="black"/>
<ellipse cx="90.3209" cy="53.7083" rx="0.664124" ry="0.677706" fill="black"/>
<ellipse cx="121.867" cy="70.1427" rx="0.664124" ry="0.677708" fill="black"/>
<ellipse cx="121.867" cy="70.1427" rx="0.664124" ry="0.677708" fill="black"/>
<ellipse cx="121.867" cy="70.1427" rx="0.664124" ry="0.677708" fill="black"/>
<ellipse cx="121.867" cy="70.1427" rx="0.664124" ry="0.677708" fill="black"/>
<ellipse cx="121.867" cy="70.1427" rx="0.664124" ry="0.677708" fill="black"/>
<ellipse cx="100.283" cy="56.2497" rx="0.664124" ry="0.677708" fill="black"/>
<ellipse cx="100.283" cy="56.2497" rx="0.664124" ry="0.677708" fill="black"/>
<ellipse cx="100.283" cy="56.2497" rx="0.664124" ry="0.677708" fill="black"/>
<ellipse cx="100.283" cy="56.2497" rx="0.664124" ry="0.677708" fill="black"/>
<ellipse cx="100.283" cy="56.2497" rx="0.664124" ry="0.677708" fill="black"/>
<ellipse cx="106.924" cy="88.1019" rx="0.664124" ry="0.677708" fill="black"/>
<ellipse cx="106.924" cy="88.1019" rx="0.664124" ry="0.677708" fill="black"/>
<ellipse cx="106.924" cy="88.1019" rx="0.664124" ry="0.677708" fill="black"/>
<ellipse cx="106.924" cy="88.1019" rx="0.664124" ry="0.677708" fill="black"/>
<ellipse cx="106.924" cy="88.1019" rx="0.664124" ry="0.677708" fill="black"/>
<ellipse cx="45.1602" cy="90.9821" rx="0.664124" ry="0.677708" fill="black"/>
<ellipse cx="45.1602" cy="90.9821" rx="0.664124" ry="0.677708" fill="black"/>
<ellipse cx="45.1602" cy="90.9821" rx="0.664124" ry="0.677708" fill="black"/>
<ellipse cx="45.1602" cy="90.9821" rx="0.664124" ry="0.677708" fill="black"/>
<ellipse cx="45.1602" cy="90.9821" rx="0.664124" ry="0.677708" fill="black"/>
<g clip-path="url(#clip0_2614_78041)">
<path d="M97.6896 94.9694C97.7757 94.4518 97.567 93.9068 97.1124 93.5943C96.6578 93.2817 96.0841 93.2888 95.646 93.5643C94.8628 93.1822 94.2332 93.0637 94.0684 93.3131C93.8635 93.623 94.4442 94.3988 95.4054 95.1503C95.4069 95.1515 95.4084 95.1526 95.4098 95.1538C95.4416 95.1786 95.4739 95.2033 95.5064 95.2281C95.5109 95.2314 95.5153 95.2349 95.5198 95.2383C95.5491 95.2604 95.5787 95.2825 95.6086 95.3045C95.6166 95.3103 95.6243 95.3162 95.6323 95.3221C95.6606 95.3428 95.6893 95.3634 95.7181 95.384C95.7276 95.3908 95.7369 95.3976 95.7464 95.4043C95.7846 95.4315 95.8232 95.4585 95.8623 95.4854C95.9016 95.5123 95.9407 95.5388 95.9798 95.5648C95.9875 95.5699 95.9951 95.5748 96.0027 95.5799C96.0344 95.6008 96.0661 95.6217 96.0977 95.642C96.104 95.6461 96.1102 95.65 96.1166 95.654C96.1497 95.6752 96.1827 95.6962 96.2157 95.7167C96.2198 95.7193 96.224 95.7218 96.2281 95.7244C96.2633 95.7462 96.2985 95.7677 96.3334 95.7888C96.3351 95.7898 96.3368 95.7907 96.3384 95.7917C97.3819 96.4186 98.3048 96.6766 98.5097 96.3667C98.6745 96.1174 98.3306 95.5665 97.6896 94.9694H97.6896ZM94.7979 93.7241C94.8616 93.6276 95.0833 93.6528 95.3918 93.7713C95.3349 93.8306 95.2821 93.8956 95.235 93.9669C95.1681 94.0681 95.1166 94.1751 95.0791 94.2851C94.8448 94.0299 94.7327 93.8228 94.7979 93.7241ZM97.8624 95.8312C97.7972 95.9299 97.5668 95.9014 97.2471 95.7757C97.333 95.699 97.411 95.6102 97.4778 95.509C97.5249 95.4377 97.5643 95.3635 97.5968 95.2873C97.8201 95.5346 97.9262 95.7347 97.8624 95.8312Z" fill="black"/>
<path d="M95.0176 94.9354C95.0703 95.3069 95.2708 95.6553 95.6001 95.8817C95.9294 96.1081 96.3213 96.167 96.6788 96.0775C96.4022 95.9312 96.111 95.7553 95.8172 95.5533C95.5234 95.3514 95.2543 95.142 95.0176 94.9354Z" fill="black"/>
</g>
<g clip-path="url(#clip1_2614_78041)">
<path d="M90.0542 46.5338C89.7862 46.0856 89.2782 45.8143 88.7342 45.883C88.1901 45.9518 87.762 46.3414 87.6086 46.8427C86.7721 47.0791 86.2209 47.4114 86.2569 47.71C86.3017 48.081 87.2389 48.2772 88.4474 48.2003C88.4493 48.2002 88.4511 48.2001 88.453 48.2C88.4929 48.1974 88.5331 48.1944 88.5736 48.1913C88.5792 48.1909 88.5847 48.1905 88.5903 48.1901C88.6266 48.1871 88.6632 48.1839 88.6999 48.1805C88.7096 48.1796 88.7193 48.1788 88.7291 48.1779C88.7637 48.1746 88.7986 48.1709 88.8336 48.1671C88.8451 48.1659 88.8565 48.1648 88.8681 48.1635C88.9143 48.1585 88.9609 48.1529 89.0077 48.147C89.0546 48.141 89.1011 48.1348 89.1473 48.1282C89.1564 48.127 89.1653 48.1255 89.1743 48.1242C89.2118 48.1188 89.249 48.1133 89.286 48.1075C89.2934 48.1063 89.3006 48.1051 89.3079 48.1039C89.3465 48.0978 89.3849 48.0914 89.423 48.0848C89.4278 48.084 89.4325 48.0831 89.4373 48.0823C89.4779 48.0752 89.5183 48.0679 89.5582 48.0604C89.5601 48.06 89.562 48.0596 89.5638 48.0592C90.7544 47.8331 91.6165 47.4095 91.5717 47.0385C91.5356 46.74 90.9219 46.5548 90.0542 46.5338L90.0542 46.5338ZM87.0716 47.5313C87.0577 47.4158 87.2411 47.2864 87.5501 47.1691C87.5452 47.252 87.5473 47.3364 87.5576 47.4218C87.5723 47.5428 87.6022 47.658 87.6447 47.7662C87.3038 47.7306 87.0859 47.6495 87.0716 47.5313ZM90.739 47.0681C90.7533 47.1863 90.5611 47.3191 90.2391 47.4385C90.2545 47.323 90.2562 47.2038 90.2416 47.0827C90.2313 46.9974 90.2132 46.915 90.1887 46.8358C90.5162 46.8727 90.725 46.9526 90.739 47.0681Z" fill="black"/>
<path d="M88.0166 48.2978C88.2954 48.5428 88.6708 48.6713 89.0648 48.6215C89.4589 48.5717 89.7924 48.3537 90.0045 48.0467C89.7017 48.1215 89.3689 48.1839 89.0173 48.2283C88.6658 48.2728 88.3281 48.2951 88.0166 48.2978Z" fill="black"/>
</g>
<g clip-path="url(#clip2_2614_78041)">
<path d="M35.5441 10.5159C35.6445 9.91202 35.4011 9.2762 34.8707 8.91155C34.3403 8.54686 33.6711 8.55521 33.1599 8.8766C32.2462 8.43081 31.5116 8.29256 31.3193 8.5835C31.0803 8.94506 31.7578 9.85013 32.8792 10.727C32.881 10.7283 32.8827 10.7296 32.8844 10.731C32.9215 10.7599 32.9591 10.7888 32.9971 10.8176C33.0023 10.8216 33.0075 10.8256 33.0127 10.8296C33.0468 10.8554 33.0814 10.8811 33.1163 10.9068C33.1256 10.9136 33.1346 10.9205 33.1439 10.9273C33.1769 10.9515 33.2104 10.9755 33.244 10.9995C33.2551 11.0074 33.2659 11.0154 33.277 11.0233C33.3216 11.055 33.3667 11.0865 33.4123 11.1178C33.4581 11.1492 33.5038 11.1801 33.5493 11.2105C33.5583 11.2165 33.5672 11.2221 33.5761 11.2281C33.6131 11.2525 33.65 11.2768 33.6869 11.3006C33.6943 11.3053 33.7015 11.3099 33.7089 11.3146C33.7475 11.3393 33.7861 11.3638 33.8245 11.3877C33.8294 11.3907 33.8342 11.3936 33.8391 11.3967C33.8801 11.4221 33.9211 11.4472 33.9619 11.4719C33.9639 11.473 33.9658 11.4741 33.9677 11.4752C35.1852 12.2066 36.2619 12.5076 36.5009 12.1461C36.6932 11.8551 36.292 11.2125 35.5441 10.5159H35.5441ZM32.1704 9.06297C32.2448 8.9504 32.5035 8.97987 32.8633 9.11809C32.7969 9.18723 32.7354 9.26308 32.6804 9.34632C32.6024 9.46434 32.5423 9.58914 32.4985 9.7175C32.2252 9.41979 32.0944 9.17813 32.1704 9.06297ZM35.7458 11.5213C35.6697 11.6365 35.4009 11.6033 35.0279 11.4566C35.1281 11.3671 35.219 11.2634 35.297 11.1454C35.352 11.0623 35.3979 10.9756 35.4358 10.8868C35.6964 11.1752 35.8202 11.4088 35.7458 11.5213Z" fill="black"/>
<path d="M32.4268 10.4762C32.4883 10.9097 32.7222 11.3161 33.1064 11.5802C33.4906 11.8444 33.9477 11.9131 34.3648 11.8087C34.0421 11.6379 33.7024 11.4327 33.3596 11.197C33.0169 10.9615 32.703 10.7172 32.4268 10.4762Z" fill="black"/>
</g>
<g clip-path="url(#clip3_2614_78041)">
<path d="M28.2043 99.5628C28.3047 98.9589 28.0613 98.3231 27.5309 97.9584C27.0005 97.5937 26.3312 97.6021 25.82 97.9235C24.9064 97.4777 24.1718 97.3394 23.9795 97.6304C23.7405 97.9919 24.418 98.897 25.5394 99.7738C25.5411 99.7751 25.5428 99.7765 25.5446 99.7778C25.5816 99.8067 25.6192 99.8356 25.6572 99.8645C25.6624 99.8684 25.6676 99.8725 25.6728 99.8765C25.707 99.9022 25.7416 99.928 25.7765 99.9537C25.7857 99.9605 25.7948 99.9674 25.8041 99.9742C25.8371 99.9983 25.8706 100.022 25.9042 100.046C25.9153 100.054 25.9261 100.062 25.9372 100.07C25.9817 100.102 26.0269 100.133 26.0725 100.165C26.1182 100.196 26.1639 100.227 26.2095 100.257C26.2184 100.263 26.2273 100.269 26.2363 100.275C26.2733 100.299 26.3102 100.324 26.3471 100.347C26.3544 100.352 26.3617 100.357 26.3691 100.361C26.4077 100.386 26.4462 100.411 26.4847 100.435C26.4895 100.438 26.4944 100.441 26.4992 100.444C26.5403 100.469 26.5813 100.494 26.6221 100.519C26.624 100.52 26.626 100.521 26.6278 100.522C27.8453 101.253 28.922 101.554 29.1611 101.193C29.3533 100.902 28.9521 100.259 28.2043 99.5628H28.2043ZM24.8306 98.1098C24.905 97.9973 25.1636 98.0267 25.5235 98.165C25.4571 98.2341 25.3955 98.3099 25.3405 98.3932C25.2626 98.5112 25.2025 98.636 25.1587 98.7644C24.8854 98.4666 24.7545 98.225 24.8306 98.1098ZM28.4059 100.568C28.3298 100.683 28.061 100.65 27.688 100.503C27.7883 100.414 27.8792 100.31 27.9572 100.192C28.0122 100.109 28.058 100.023 28.096 99.9336C28.3566 100.222 28.4804 100.456 28.4059 100.568Z" fill="black"/>
<path d="M25.0869 99.523C25.1485 99.9565 25.3824 100.363 25.7666 100.627C26.1508 100.891 26.6079 100.96 27.025 100.856C26.7023 100.685 26.3625 100.48 26.0198 100.244C25.6771 100.008 25.3631 99.7641 25.0869 99.523Z" fill="black"/>
</g>
<g clip-path="url(#clip4_2614_78041)">
<path d="M39.7364 63.5482C39.5008 63.0541 39.012 62.7058 38.462 62.6986C37.912 62.6913 37.4546 63.027 37.2642 63.5154C36.4089 63.6372 35.8324 63.8971 35.8466 64.206C35.8642 64.59 36.7884 64.9227 38.0046 65.016C38.0065 65.0161 38.0083 65.0162 38.0102 65.0164C38.0503 65.0194 38.0909 65.0221 38.1317 65.0247C38.1372 65.025 38.1428 65.0254 38.1485 65.0258C38.185 65.028 38.2219 65.0299 38.2589 65.0316C38.2687 65.0321 38.2785 65.0327 38.2883 65.0331C38.3233 65.0347 38.3585 65.0358 38.3938 65.037C38.4055 65.0374 38.4169 65.0379 38.4286 65.0382C38.4753 65.0396 38.5223 65.0406 38.5696 65.0412C38.6171 65.0418 38.6642 65.042 38.7109 65.0419C38.7201 65.0419 38.7291 65.0417 38.7383 65.0417C38.7761 65.0415 38.8139 65.0412 38.8513 65.0405C38.8588 65.0404 38.8661 65.0402 38.8735 65.04C38.9127 65.0392 38.9516 65.0382 38.9902 65.0369C38.9951 65.0367 38.9999 65.0365 39.0048 65.0363C39.0459 65.0349 39.0869 65.0332 39.1275 65.0312C39.1294 65.0311 39.1313 65.0309 39.1331 65.0308C40.3422 64.9697 41.2369 64.6611 41.2193 64.2772C41.205 63.9683 40.6039 63.6927 39.7364 63.5482L39.7364 63.5482ZM36.6757 64.1399C36.6702 64.0204 36.8635 63.9147 37.1815 63.8393C37.1706 63.9229 37.1664 64.009 37.1705 64.0974C37.1763 64.2227 37.1979 64.3442 37.2324 64.4602C36.8936 64.3756 36.6814 64.2622 36.6757 64.1399ZM40.383 64.1891C40.3886 64.3113 40.1864 64.4193 39.8551 64.495C39.8791 64.3797 39.8895 64.2586 39.8837 64.1333C39.8797 64.045 39.8676 63.9587 39.8489 63.8746C40.1743 63.9586 40.3775 64.0696 40.383 64.1891Z" fill="black"/>
<path d="M37.5659 65.054C37.8272 65.3429 38.1937 65.5269 38.592 65.5322C38.9904 65.5375 39.3404 65.3629 39.5755 65.0806C39.2667 65.1138 38.9287 65.1301 38.5733 65.1254C38.218 65.1207 37.8781 65.0955 37.5659 65.054Z" fill="black"/>
</g>
<path d="M74.32 59.544C75.376 59.544 76.3307 59.7893 77.184 60.28C78.048 60.7707 78.7253 61.4587 79.216 62.344C79.7173 63.2187 79.968 64.2107 79.968 65.32C79.968 66.4293 79.7173 67.4267 79.216 68.312C78.7253 69.1973 78.048 69.8853 77.184 70.376C76.3307 70.8667 75.376 71.112 74.32 71.112C73.264 71.112 72.304 70.8667 71.44 70.376C70.5867 69.8853 69.9093 69.1973 69.408 68.312C68.9173 67.4267 68.672 66.4293 68.672 65.32C68.672 64.2107 68.9173 63.2187 69.408 62.344C69.9093 61.4587 70.5867 60.7707 71.44 60.28C72.304 59.7893 73.264 59.544 74.32 59.544ZM74.32 61.624C73.6587 61.624 73.0773 61.7733 72.576 62.072C72.0747 62.3707 71.68 62.8027 71.392 63.368C71.1147 63.9227 70.976 64.5733 70.976 65.32C70.976 66.0667 71.1147 66.7227 71.392 67.288C71.68 67.8427 72.0747 68.2693 72.576 68.568C73.0773 68.8667 73.6587 69.016 74.32 69.016C74.9813 69.016 75.5627 68.8667 76.064 68.568C76.5653 68.2693 76.9547 67.8427 77.232 67.288C77.52 66.7227 77.664 66.0667 77.664 65.32C77.664 64.5733 77.52 63.9227 77.232 63.368C76.9547 62.8027 76.5653 62.3707 76.064 62.072C75.5627 61.7733 74.9813 61.624 74.32 61.624ZM91.2326 71H88.9766L83.9206 63.32V71H81.6646V59.704H83.9206L88.9766 67.448V59.704H91.2326V71ZM102.842 71H100.586L95.53 63.32V71H93.274V59.704H95.53L100.586 67.448V59.704H102.842V71ZM107.139 61.496V64.424H111.139V66.152H107.139V69.192H111.619V71H104.883V59.704H111.619V61.496H107.139ZM118.394 59.592C119.802 59.592 120.97 59.9547 121.898 60.68C122.826 61.4053 123.439 62.392 123.738 63.64H121.37C121.124 63.032 120.74 62.552 120.218 62.2C119.706 61.848 119.087 61.672 118.362 61.672C117.764 61.672 117.226 61.8213 116.746 62.12C116.266 62.4187 115.892 62.8453 115.626 63.4C115.359 63.9547 115.226 64.6053 115.226 65.352C115.226 66.088 115.359 66.7333 115.626 67.288C115.892 67.8427 116.266 68.2693 116.746 68.568C117.226 68.8667 117.764 69.016 118.362 69.016C119.087 69.016 119.706 68.84 120.218 68.488C120.74 68.136 121.124 67.656 121.37 67.048H123.738C123.439 68.296 122.826 69.2827 121.898 70.008C120.97 70.7333 119.802 71.096 118.394 71.096C117.316 71.096 116.362 70.856 115.53 70.376C114.708 69.8853 114.068 69.2027 113.61 68.328C113.162 67.4533 112.938 66.4613 112.938 65.352C112.938 64.232 113.162 63.2347 113.61 62.36C114.068 61.4853 114.708 60.808 115.53 60.328C116.351 59.8373 117.306 59.592 118.394 59.592ZM133.11 59.704V61.496H129.99V71H127.734V61.496H124.63V59.704H133.11Z" fill="black"/>
<defs>
<clipPath id="clip0_2614_78041">
<rect width="4.8932" height="4.99328" fill="white" transform="translate(93.7866 92.3758)"/>
</clipPath>
<clipPath id="clip1_2614_78041">
<rect width="4.93658" height="4.95041" fill="white" transform="matrix(0.747757 -0.663972 0.648846 0.760919 85.4414 47.1916)"/>
</clipPath>
<clipPath id="clip2_2614_78041">
<rect width="5.70874" height="5.8255" fill="white" transform="translate(30.9902 7.48994)"/>
</clipPath>
<clipPath id="clip3_2614_78041">
<rect width="5.70874" height="5.8255" fill="white" transform="translate(23.6504 96.5368)"/>
</clipPath>
<clipPath id="clip4_2614_78041">
<rect width="4.83867" height="5.20024" fill="white" transform="matrix(0.813876 -0.581039 0.565456 0.824779 35.0679 63.5628)"/>
</clipPath>
</defs>
</svg>
