<svg width="371" height="476" viewBox="0 0 371 476" fill="none" xmlns="http://www.w3.org/2000/svg">
<path d="M208.206 255.421C208.206 255.421 193.75 271.487 185.425 279.289C177.102 287.101 168.068 288.587 166.499 291.113C166.047 291.851 163.579 298.134 160.305 306.678C160.176 307.008 160.048 307.347 159.919 307.684C157.687 313.49 155.131 320.252 152.591 326.989C151.973 328.612 151.368 330.229 150.765 331.836C144.815 347.659 139.459 362.046 139.459 362.046C139.459 362.046 95.1679 352.403 83.6718 347.238C72.1756 342.077 56.2859 332.091 56.2859 332.091C56.2859 332.091 63.7186 316.944 70.2005 299.688C70.9588 297.685 71.6956 295.645 72.4141 293.602C72.4202 293.586 72.4202 293.58 72.4202 293.568C72.5762 293.125 72.7321 292.692 72.8789 292.25C74.909 286.341 76.6946 280.408 77.9237 274.932C77.9971 274.608 78.0674 274.284 78.1408 273.966C78.2295 273.567 78.3181 273.169 78.4037 272.776C83.3324 250.331 83.3324 242.51 83.3324 242.51L94.8285 213.642L208.206 255.421Z" fill="#FEA689"/>
<path d="M242.049 113.686C242.049 113.686 258.63 121.002 264.363 123.017C270.096 125.03 274.936 130.387 275.727 135.14C276.519 139.89 269.457 148.671 257 148.07C244.541 147.472 236.041 136.476 236.041 136.476L242.049 113.686Z" fill="#FEA689"/>
<path d="M106.976 313.175C106.927 313.175 106.878 313.163 106.829 313.141C106.636 313.06 106.548 312.833 106.63 312.636L120.178 280.532C120.26 280.336 120.481 280.246 120.673 280.33C120.866 280.414 120.954 280.641 120.872 280.837L107.324 312.942C107.263 313.085 107.122 313.175 106.976 313.175Z" fill="#EB754D"/>
<path d="M120.524 294.38C120.475 294.38 120.426 294.371 120.38 294.349C120.187 294.268 120.095 294.041 120.175 293.845L124.232 283.974C124.315 283.778 124.535 283.687 124.728 283.768C124.92 283.849 125.009 284.074 124.929 284.27L120.872 294.144C120.811 294.29 120.673 294.38 120.524 294.38Z" fill="#EB754D"/>
<path d="M97.6809 241.884L100.839 246.294V241.532L97.6809 241.884Z" fill="#9BA9C4"/>
<path d="M230.043 267.596L105.741 249.331C101.607 248.724 98.7419 244.821 99.3381 240.613L131.958 10.3275C132.555 6.11941 136.389 3.20085 140.519 3.80823L264.824 22.0702C268.958 22.6776 271.826 26.5836 271.23 30.7916L238.607 261.074C238.01 265.282 234.176 268.201 230.043 267.596Z" fill="#9BA9C4"/>
<path d="M226.866 263.441L102.784 245.211C98.6531 244.603 95.7852 240.7 96.3814 236.492L128.95 6.59921C129.546 2.39113 133.377 -0.527421 137.511 0.0799626L261.593 18.3108C265.723 18.9182 268.588 22.8241 267.992 27.0322L235.427 256.922C234.83 261.13 230.996 264.049 226.866 263.441Z" fill="#D7DFED"/>
<path d="M260.321 48.0134L233.889 234.583C233.363 238.352 229.933 240.962 226.233 240.417L109.78 223.311C106.089 222.765 103.518 219.277 104.053 215.508L130.485 28.9354C131.017 25.1696 134.447 22.5625 138.141 23.1045L254.594 40.2171C258.291 40.7622 260.856 44.2508 260.321 48.0134Z" fill="#EBEFF5"/>
<path d="M177.344 250.873L153.777 247.41C150.264 246.893 147.83 243.575 148.334 240L148.38 239.694C148.885 236.119 152.144 233.636 155.654 234.153L179.221 237.617C182.731 238.131 185.168 241.448 184.663 245.024L184.618 245.329C184.113 248.908 180.854 251.387 177.344 250.873Z" fill="#BCC8E0"/>
<path d="M177.228 249.655L154.226 246.276C151.337 245.849 149.331 243.12 149.75 240.177L149.784 239.928C150.202 236.984 152.881 234.944 155.77 235.368L178.772 238.75C181.661 239.174 183.667 241.902 183.248 244.846L183.211 245.095C182.795 248.039 180.117 250.079 177.228 249.655Z" fill="white"/>
<path d="M212.581 24.0325C212.508 24.0325 212.435 24.0293 212.358 24.0169L183.15 19.6873C182.324 19.5659 181.753 18.784 181.872 17.9431C181.994 17.1021 182.759 16.5227 183.587 16.6411L212.795 20.9706C213.621 21.0921 214.193 21.8739 214.073 22.7149C213.963 23.4843 213.318 24.0325 212.581 24.0325Z" fill="#BCC8E0"/>
<path d="M177.325 17.0865C177.325 16.1988 176.619 15.4824 175.748 15.4824C174.876 15.4824 174.17 16.1988 174.17 17.0865C174.17 17.9743 174.876 18.6938 175.748 18.6938C176.619 18.6938 177.325 17.9743 177.325 17.0865Z" fill="#BCC8E0"/>
<path d="M260.321 48.0134L130.485 28.9354C131.017 25.1696 134.447 22.5625 138.141 23.1045L254.594 40.2171C258.291 40.7622 260.856 44.2508 260.321 48.0134Z" fill="white"/>
<path d="M250.968 45.2069L240.961 43.7367L241.508 39.8806L251.515 41.3508L250.968 45.2069Z" fill="#D7DFED"/>
<path d="M250.436 44.481L247.271 44.0169L247.638 41.4285L250.806 41.8926L250.436 44.481Z" fill="white"/>
<path d="M146.203 27.381C146.038 27.381 145.889 27.272 145.84 27.1038C145.827 27.057 145.436 25.8329 143.684 25.537C141.892 25.2318 140.957 26.188 140.917 26.2316C140.77 26.3811 140.532 26.3874 140.382 26.241C140.232 26.0946 140.226 25.8516 140.37 25.699C140.419 25.6429 141.605 24.4001 143.809 24.7801C146.045 25.157 146.546 26.8203 146.567 26.8888C146.625 27.0944 146.509 27.3062 146.311 27.3654C146.274 27.3747 146.237 27.381 146.203 27.381Z" fill="#D7DFED"/>
<path d="M145.164 28.0506C145.014 28.0506 144.873 27.9634 144.812 27.8139C144.803 27.7858 144.494 27.0881 143.494 26.9199C142.284 26.7206 141.584 27.2719 141.556 27.2968C141.394 27.4276 141.155 27.3996 141.024 27.2376C140.893 27.0756 140.917 26.8358 141.076 26.6988C141.116 26.6676 142.051 25.8983 143.62 26.163C145.048 26.4029 145.494 27.4775 145.512 27.5242C145.592 27.7204 145.5 27.9447 145.308 28.0225C145.259 28.0443 145.21 28.0506 145.164 28.0506Z" fill="#D7DFED"/>
<path d="M144.451 29.0504C144.329 29.0504 144.21 28.9912 144.136 28.879C144.127 28.8635 143.812 28.4181 143.14 28.3464C142.492 28.2779 142.012 28.58 142.008 28.5831C141.831 28.6953 141.599 28.6423 141.486 28.4648C141.373 28.2841 141.424 28.0443 141.599 27.9321C141.629 27.9166 142.302 27.4867 143.219 27.5802C144.253 27.6923 144.745 28.4212 144.766 28.4523C144.883 28.6267 144.837 28.8666 144.662 28.9881C144.598 29.0317 144.525 29.0504 144.451 29.0504Z" fill="#D7DFED"/>
<path d="M142.965 29.3185C142.91 29.3185 142.861 29.3652 142.861 29.4244C142.861 29.5396 143.069 29.5396 143.069 29.4244C143.069 29.3652 143.023 29.3185 142.965 29.3185ZM142.965 30.0909C142.607 30.0909 142.314 29.7919 142.314 29.4244C142.314 29.0599 142.607 28.7578 142.965 28.7578C143.326 28.7578 143.616 29.0599 143.616 29.4244C143.616 29.7919 143.326 30.0909 142.965 30.0909Z" fill="#D7DFED"/>
<path d="M236.218 43.2696C236.2 43.2696 236.179 43.2696 236.157 43.2665C235.949 43.2322 235.812 43.0328 235.845 42.8242L236.142 41.0145C236.176 40.8058 236.374 40.6594 236.576 40.6968C236.781 40.7341 236.922 40.9335 236.888 41.1422L236.591 42.9519C236.561 43.1387 236.399 43.2696 236.218 43.2696Z" fill="#D7DFED"/>
<path d="M235.02 43.0544C235.002 43.0544 234.98 43.0544 234.959 43.0512C234.751 43.017 234.614 42.8176 234.647 42.6089L234.809 41.6247C234.843 41.4129 235.045 41.2696 235.243 41.307C235.448 41.3443 235.589 41.5406 235.555 41.7493L235.393 42.7366C235.363 42.9235 235.204 43.0544 235.02 43.0544Z" fill="#D7DFED"/>
<path d="M237.359 43.5281C237.341 43.5281 237.32 43.5281 237.298 43.5218C237.09 43.4907 236.953 43.2914 236.986 43.0795L237.427 40.3946C237.46 40.1828 237.659 40.0426 237.861 40.08C238.069 40.1143 238.206 40.3105 238.173 40.5223L237.732 43.2073C237.702 43.3973 237.54 43.5281 237.359 43.5281Z" fill="#D7DFED"/>
<path d="M238.601 43.771C238.579 43.771 238.558 43.771 238.54 43.7679C238.332 43.7337 238.194 43.5343 238.228 43.3225L238.812 39.7561C238.845 39.5474 239.041 39.4041 239.246 39.4415C239.451 39.4757 239.591 39.6751 239.558 39.8838L238.971 43.4502C238.943 43.6402 238.781 43.771 238.601 43.771Z" fill="#D7DFED"/>
<path d="M152.655 194.117C152.655 185.231 145.815 178.025 137.376 178.025C128.941 178.025 122.101 185.231 122.101 194.117C122.101 203.003 128.941 210.204 137.376 210.204C145.815 210.204 152.655 203.003 152.655 194.117Z" fill="#D892C0"/>
<path d="M186.483 201.587C186.483 193.653 180.376 187.219 172.841 187.219C165.31 187.219 159.203 193.653 159.203 201.587C159.203 209.521 165.31 215.95 172.841 215.95C180.376 215.95 186.483 209.521 186.483 201.587Z" fill="#79B3D1"/>
<path d="M225.767 206.753C225.767 197.868 218.926 190.667 210.49 190.667C202.049 190.667 195.213 197.868 195.213 206.753C195.213 215.639 202.049 222.846 210.49 222.846C218.926 222.846 225.767 215.639 225.767 206.753Z" fill="#9ABF7A"/>
<path d="M125.547 275.975C125.498 275.975 125.449 275.966 125.4 275.944C125.207 275.863 125.119 275.636 125.198 275.439C125.217 275.399 126.883 271.347 128.421 265.027C129.937 258.782 128.445 254.271 128.43 254.228C128.36 254.025 128.464 253.807 128.662 253.739C128.861 253.667 129.075 253.773 129.142 253.975C129.21 254.165 130.726 258.75 129.155 265.21C127.601 271.596 125.914 275.698 125.895 275.738C125.834 275.888 125.694 275.975 125.547 275.975Z" fill="#EB754D"/>
<path d="M162.142 290.82C161.155 290.82 159.944 290.786 158.531 290.68C153.45 290.288 151.591 288.188 151.514 288.098C151.377 287.939 151.392 287.696 151.548 287.556C151.704 287.416 151.946 287.431 152.083 287.593C152.098 287.612 153.847 289.546 158.589 289.911C162.671 290.225 165.08 289.914 165.105 289.911C165.31 289.883 165.502 290.032 165.527 290.244C165.554 290.456 165.411 290.649 165.203 290.677C165.136 290.683 164.065 290.82 162.142 290.82Z" fill="#EB754D"/>
<path d="M133.805 258.847C133.677 258.847 133.551 258.778 133.481 258.66C133.374 258.476 133.435 258.239 133.612 258.13L138.752 255.031C138.932 254.925 139.165 254.988 139.269 255.168C139.376 255.349 139.318 255.586 139.137 255.695L133.998 258.794C133.939 258.831 133.872 258.847 133.805 258.847Z" fill="#EB754D"/>
<path d="M21.5006 392.484C22.3903 391.185 23.2311 389.858 23.9985 388.491C30.0187 377.788 32.3883 365.865 35.9961 354.241C39.8516 341.819 47.2813 334.829 52.904 323.591C58.9914 311.431 58.4717 306.612 65.831 310.743C73.1904 314.876 153.657 350.615 155.684 350.992C157.715 351.375 154.024 385.809 154.024 385.809C154.024 385.809 155.55 384.429 156.296 402.342C156.788 414.275 151.272 424.009 149.358 435.362C147.331 447.37 147.634 458.449 133.958 459.611C125.412 460.336 114.766 456.948 106.327 455.639C86.9583 452.643 63.2597 451.335 45.4651 442.277C29.2391 434.013 -2.54349 438.835 0.16238 425.744C2.95081 412.272 14.0281 403.367 21.5006 392.484Z" fill="#485A7E"/>
<path d="M145.882 382.75C145.797 382.75 145.714 382.722 145.644 382.663C145.402 382.467 121.074 362.71 102.827 358.981C97.9286 357.985 94.012 357.362 90.554 356.814C80.9321 355.287 76.1013 354.521 68.5615 348.463C58.5085 340.386 52.6809 333.792 52.6228 333.727C52.4822 333.571 52.4975 333.322 52.6534 333.182C52.8093 333.041 53.0478 333.054 53.1854 333.213C53.2435 333.278 59.0344 339.829 69.0293 347.859C76.4131 353.792 81.1767 354.546 90.6702 356.054C94.1343 356.605 98.0632 357.225 102.973 358.228C121.404 361.99 145.873 381.866 146.118 382.065C146.283 382.196 146.307 382.439 146.176 382.604C146.102 382.697 145.992 382.75 145.882 382.75Z" fill="#232C44"/>
<path d="M49.0733 405.248C48.9358 405.248 48.8012 405.167 48.734 405.034C48.7187 404.996 46.8842 401.299 42.0075 394.53C37.0421 387.637 35.6785 373.805 35.6235 373.219C35.6051 373.01 35.7549 372.82 35.9628 372.799C36.1769 372.786 36.3573 372.933 36.3756 373.144C36.3909 373.288 37.7759 387.354 42.6159 394.073C47.5385 400.91 49.3944 404.654 49.4127 404.688C49.5044 404.878 49.428 405.111 49.2415 405.205C49.1865 405.236 49.1314 405.248 49.0733 405.248Z" fill="#232C44"/>
<path d="M151.49 364.921H151.496H151.49ZM139.48 358.86C138.514 358.86 138.058 359.09 137.967 359.321C137.853 359.604 138.132 360.274 139.284 361.221C140.406 362.146 142.027 363.068 143.846 363.819C147.925 365.51 150.845 365.519 151.138 364.775C151.432 364.037 149.337 361.972 145.259 360.277C143.44 359.526 141.648 359.037 140.214 358.897C139.942 358.872 139.697 358.86 139.48 358.86ZM149.619 366.015C147.983 366.015 145.705 365.423 143.562 364.532C141.675 363.75 139.988 362.791 138.81 361.822C137.502 360.744 136.967 359.782 137.266 359.031C137.566 358.284 138.612 357.972 140.284 358.128C141.788 358.274 143.66 358.782 145.546 359.567C149.163 361.068 152.49 363.439 151.838 365.068C151.572 365.731 150.75 366.015 149.619 366.015Z" fill="#232C44"/>
<path d="M319.758 390.627L331.499 430.571C331.499 430.571 317.973 445.03 298.362 453.297C278.754 461.56 252.307 460.184 252.307 460.184C252.307 460.184 245.767 420.928 237.579 405.781C229.391 390.627 223.609 375.913 223.609 375.913L319.758 390.627Z" fill="#FEA689"/>
<path d="M242.688 442.969C242.688 442.969 293.629 426.959 311.885 418.088C330.145 409.22 332.175 400.271 336.908 408.531C341.641 416.798 345.695 428.507 348.401 430.572C351.107 432.637 368.687 445.719 370.042 453.986C371.393 462.249 363.954 471.892 339.614 474.646C315.267 477.403 263.277 472.581 249.039 474.646C234.8 476.714 242.688 442.969 242.688 442.969Z" fill="#485A7E"/>
<path d="M246.547 464.012C246.339 464.012 246.171 463.838 246.171 463.626C246.171 463.417 246.339 463.243 246.547 463.243C249.479 463.243 299.591 459.222 319.599 449.507C339.069 440.05 343.325 434.527 343.368 434.471C343.493 434.303 343.732 434.269 343.897 434.397C344.062 434.524 344.096 434.764 343.97 434.936C343.805 435.163 339.632 440.629 319.923 450.201C299.808 459.972 249.491 464.012 246.547 464.012Z" fill="#232C44"/>
<path d="M113.959 149.814C111.962 155.24 106.973 165.942 106.23 168.808C105.493 171.68 97.9867 227.004 97.9867 227.004L89.4869 262.927C89.4869 262.927 71.6556 243.376 71.2092 227.883C70.7689 212.387 74.1658 191.085 76.1685 183.924C78.4218 175.86 81.8493 158.479 85.6834 151.767C89.5174 145.048 97.1061 135.193 98.6838 130.832C98.9009 130.231 99.176 129.375 99.5001 128.334C101.515 121.859 106.453 109.39 108.202 108.895C108.495 108.811 108.853 108.736 109.272 108.692C111.755 108.453 117.081 109.368 119.475 120.036C122.45 133.287 115.952 144.394 113.959 149.814Z" fill="#FEA689"/>
<path d="M113.302 114.863C113.24 111.972 108.495 108.811 108.202 108.892C106.756 109.303 102.753 117.607 100.683 124.438C100.576 124.799 100.469 125.148 100.365 125.494C100.057 126.525 99.7661 127.49 99.5032 128.331C101.53 129.288 105.181 130.157 107.116 129.132C107.15 129.122 107.174 129.104 107.205 129.091C108.211 128.54 109.076 127.715 109.645 126.618C110.901 124.207 113.351 117.523 113.302 114.863Z" fill="#FFC2AE"/>
<path d="M98.9529 155.019C98.8428 155.019 98.7297 154.969 98.6563 154.876C98.638 154.848 96.8249 152.53 94.4187 151.549C92.0033 150.565 87.9704 151.107 87.9307 151.113C87.7228 151.15 87.5332 150.995 87.5057 150.783C87.4782 150.574 87.6219 150.378 87.8298 150.35C88.001 150.325 92.1011 149.777 94.6969 150.836C97.2988 151.892 99.1731 154.296 99.2495 154.396C99.3779 154.564 99.3504 154.804 99.1853 154.938C99.118 154.991 99.0355 155.019 98.9529 155.019Z" fill="#EB754D"/>
<path d="M94.3056 154.33C94.2751 154.33 94.2475 154.327 94.217 154.321C94.1772 154.311 90.2086 153.343 89.1018 153.118C87.9766 152.891 86.8943 152.598 86.8821 152.595C86.6803 152.542 86.561 152.33 86.613 152.125C86.668 151.919 86.8729 151.798 87.0747 151.851C87.0869 151.854 88.1479 152.137 89.2516 152.362C90.3737 152.589 94.2292 153.533 94.3943 153.573C94.5961 153.62 94.7214 153.829 94.6725 154.034C94.6297 154.212 94.4768 154.33 94.3056 154.33Z" fill="#EB754D"/>
<path d="M96.5865 157.719C96.5223 157.719 96.4581 157.701 96.397 157.663C96.3878 157.66 95.3238 157.071 92.3825 156.797C89.2455 156.505 85.6071 154.598 85.4542 154.517C85.2677 154.418 85.1974 154.187 85.2922 154C85.387 153.81 85.6132 153.736 85.7997 153.835C85.8364 153.854 89.4626 155.754 92.4497 156.031C95.5959 156.321 96.7302 156.972 96.7761 156.997C96.9565 157.106 97.0176 157.342 96.9137 157.526C96.8433 157.648 96.718 157.719 96.5865 157.719Z" fill="#EB754D"/>
<path d="M107.116 129.131C105.181 130.156 101.53 129.287 99.5032 128.331C99.7661 127.49 100.057 126.524 100.365 125.493C100.469 125.148 100.576 124.799 100.683 124.438C102.759 125.148 105.762 127.381 107.116 129.131Z" fill="#FFD3C4"/>
<path d="M255.811 174.078C252.28 175.39 249.76 176.009 246.571 177.355C242.279 179.162 233.598 182.519 231.244 186.917C229.315 190.527 230.104 195.695 232.388 199.648C234.672 203.597 241.407 203.806 250.784 200.302C260.162 196.794 264.06 192.1 263.806 184.774C263.601 178.9 258.905 172.929 255.811 174.078Z" fill="#FEA689"/>
<path d="M240.741 155.125C236.577 157.215 230.63 160.392 228.569 164.939C226.878 168.668 227.383 174.776 229.917 178.563C232.455 182.351 237.968 182.04 247.097 177.906C256.224 173.776 260.682 173.514 261.954 164.995C262.587 160.75 259.957 152.48 255.796 150.038C254.377 149.203 243.832 153.567 240.741 155.125Z" fill="#FEA689"/>
<path d="M250.32 194.851C250.164 195.137 249.981 195.386 249.767 195.598C249.678 195.695 249.577 195.791 249.476 195.875C249.394 195.944 249.305 196.006 249.204 196.068C248.21 196.688 247.11 197.156 246.061 197.673C244.477 198.445 243.086 198.66 241.285 199.077C239.977 199.386 238.552 199.492 237.341 198.778C236.415 198.23 235.772 197.286 235.338 196.287C234.58 194.539 233.84 192.325 234.152 190.393C234.58 187.774 237.686 186.142 239.674 184.921C239.87 184.802 240.065 184.684 240.261 184.566C241.355 183.908 245.119 182.609 246.458 182.398C246.529 182.391 246.581 182.382 246.642 182.376C246.844 182.363 247.012 182.391 247.137 182.472C248.657 183.466 249.51 185.385 250.069 187.045C251.228 190.537 251.185 193.237 250.32 194.851Z" fill="#FFC2AE"/>
<path d="M246.195 174.698C246.122 174.822 246.039 174.941 245.96 175.044C245.749 175.311 245.526 175.539 245.275 175.726C245.189 175.785 245.094 175.847 244.991 175.903C243.951 176.483 238.136 178.183 236.316 178.52C231.36 179.442 230.189 173.365 230.663 170.39C231.171 167.182 232.831 165.559 235.415 163.893C237.249 162.721 241.199 160.993 243.443 161.043H243.505C243.706 161.049 243.875 161.089 243.991 161.186C245.431 162.379 246.128 164.506 246.553 166.338C247.44 170.16 247.183 173.053 246.195 174.698Z" fill="#FFC2AE"/>
<path d="M242.97 179.682C242.826 179.682 242.689 179.598 242.627 179.457C242.539 179.264 242.624 179.034 242.814 178.947L254.438 173.586C254.625 173.496 254.851 173.583 254.937 173.776C255.025 173.969 254.94 174.197 254.75 174.287L243.126 179.647C243.077 179.672 243.022 179.682 242.97 179.682Z" fill="#EB754D"/>
<path d="M246.195 174.698C246.122 174.822 246.039 174.941 245.96 175.043C243.009 171.324 242.199 165.609 243.444 161.042H243.505C243.706 161.049 243.875 161.089 243.991 161.186C245.431 162.379 246.128 164.506 246.553 166.338C247.44 170.159 247.183 173.053 246.195 174.698Z" fill="#FFD3C4"/>
<path d="M250.32 194.851C250.164 195.137 249.98 195.386 249.766 195.598C249.225 194.732 248.806 193.748 248.454 192.708C247.332 189.387 246.412 185.908 246.458 182.398C246.528 182.391 246.58 182.382 246.641 182.376C246.843 182.363 247.011 182.391 247.137 182.472C248.656 183.466 249.509 185.385 250.069 187.045C251.228 190.537 251.185 193.237 250.32 194.851Z" fill="#FFD3C4"/>
<path d="M249.023 204.737C245.678 204.699 240.957 205.889 238.206 207.204C232.663 209.854 227.893 213.704 229.244 220.118C230.816 227.571 238.924 227.468 245.424 224.674C249.326 222.996 254.337 222.507 255.948 218.003C257.434 213.841 256.896 208.007 253.114 205.749C251.87 205.005 250.457 204.749 249.023 204.737Z" fill="#FEA689"/>
<path d="M245.284 219.704C245.195 220.13 245.052 220.489 244.868 220.797C244.804 220.928 244.721 221.046 244.639 221.155C243.795 222.292 242.355 222.691 240.893 223.27C239.508 223.821 237.879 224.304 236.322 224.208C234.051 224.064 232.635 221.781 232.204 219.514C231.498 215.819 234.366 213.356 237.273 211.854C238.166 211.393 240.777 210.674 241.97 210.459C242.116 210.434 242.254 210.418 242.373 210.418C242.544 210.425 242.685 210.459 242.789 210.537C244.003 211.474 244.599 213.147 244.957 214.586C245.363 216.212 245.648 218.034 245.284 219.704Z" fill="#FFC2AE"/>
<path d="M245.284 219.704C245.195 220.13 245.052 220.489 244.868 220.797C243.627 219.704 242.673 218.374 242.159 216.57C241.603 214.62 241.386 212.415 241.97 210.459C242.116 210.434 242.254 210.418 242.373 210.418C242.545 210.425 242.685 210.459 242.789 210.537C244.003 211.474 244.599 213.147 244.957 214.586C245.364 216.212 245.648 218.034 245.284 219.704Z" fill="#FFD3C4"/>
<path d="M133.014 188.368L142.458 199.309" stroke="white" stroke-linecap="round"/>
<path d="M133.014 188.368L142.458 199.309" stroke="white" stroke-linecap="round"/>
<path d="M133.014 188.368L142.458 199.309" stroke="white" stroke-linecap="round"/>
<path d="M142.998 189.518L131.922 199.241" stroke="white" stroke-linecap="round"/>
<path d="M142.998 189.518L131.922 199.241" stroke="white" stroke-linecap="round"/>
<path d="M142.998 189.518L131.922 199.241" stroke="white" stroke-linecap="round"/>
<path d="M209.451 215.176L209.285 215.016C209.266 214.998 207.359 213.149 205.563 210.732C204.503 209.303 203.684 207.958 203.129 206.73C202.426 205.161 202.15 203.768 202.311 202.599C202.679 199.937 205.064 198.112 207.626 198.534C208.577 198.69 209.456 199.145 210.16 199.851C210.672 200.364 211.064 200.974 211.319 201.644C211.744 201.083 212.283 200.625 212.91 200.304C213.774 199.856 214.736 199.704 215.687 199.861C218.249 200.283 220.036 202.795 219.669 205.457L219.668 205.461C219.497 206.621 218.855 207.851 217.757 209.12C216.896 210.115 215.753 211.137 214.355 212.165C211.988 213.904 209.676 215.066 209.653 215.077L209.451 215.176ZM207.533 199.208C205.329 198.846 203.277 200.415 202.96 202.706C202.817 203.742 203.074 204.998 203.723 206.44C204.253 207.62 205.045 208.924 206.075 210.311C207.533 212.274 209.068 213.859 209.565 214.354C210.173 214.037 212.058 213.008 213.978 211.597C215.334 210.599 216.439 209.611 217.267 208.656C218.277 207.486 218.867 206.377 219.016 205.35C219.332 203.059 217.794 200.902 215.59 200.539C213.955 200.269 212.31 201.098 211.492 202.602L211.078 203.367L210.892 202.503C210.516 200.803 209.168 199.478 207.533 199.208Z" fill="white"/>
<path d="M173.689 194.925C174.806 195.096 175.657 195.524 176.241 196.207C176.826 196.879 177.044 197.754 176.895 198.832C176.756 199.836 176.32 200.573 175.588 201.043C174.866 201.515 173.96 201.678 172.871 201.533L172.676 202.943L170.13 202.552L170.566 199.398L171.626 199.561C172.385 199.678 172.99 199.662 173.441 199.516C173.894 199.359 174.158 199 174.236 198.44C174.286 198.081 174.224 197.786 174.052 197.554C173.879 197.323 173.624 197.181 173.287 197.129C172.907 197.071 172.591 197.141 172.337 197.339C172.096 197.529 171.951 197.798 171.902 198.147L169.356 197.756C169.423 197.119 169.634 196.563 169.991 196.089C170.359 195.606 170.859 195.262 171.49 195.057C172.123 194.841 172.856 194.797 173.689 194.925ZM172.639 204.265L172.264 206.975L169.449 206.543L169.824 203.833L172.639 204.265Z" fill="white"/>
<path d="M194.658 299.805C194.658 299.805 190.506 272.058 189.378 266.891C188.253 261.727 181.261 233.485 179.365 226.592C177.469 219.699 169.205 200.717 171.657 191.996C173.213 186.448 184.006 183.499 188.635 189.009C193.261 194.519 199.865 216.964 202.061 221.325C204.256 225.689 213.334 250.037 214.654 253.472C215.975 256.908 220.788 271.828 220.788 271.828C220.788 271.828 230.034 270.221 235.739 271.14C241.444 272.058 245.954 276.375 245.954 276.375C245.954 276.375 254.97 272.058 262.859 274.354C270.747 276.65 274.129 283.075 274.129 283.075C274.129 283.075 284.273 281.241 290.131 284.913C290.131 284.913 298.472 290.881 300.952 297.079C303.432 303.278 321.636 395.298 321.636 395.298C321.636 395.298 282.417 414.924 274.303 416.647C266.188 418.369 252.867 425.761 242.386 421.285C231.905 416.809 205.451 409.67 198.691 398.307C191.928 386.944 184.401 372.51 180.359 363.558C176.314 354.603 174.623 349.221 175.977 342.272C177.329 335.323 194.658 299.805 194.658 299.805Z" fill="#FEA689"/>
<path d="M191.659 202.06C191.354 202.334 188.669 204.552 186.046 205.287C180.922 206.719 178.885 206.776 178.567 206.52C178.46 206.433 178.323 206.23 178.176 205.95C177.467 204.608 176.396 201.343 175.91 199.138C175.314 196.466 174.755 194.254 175.519 192.476C176.28 190.691 182.304 187.542 185.774 189.949C188.504 191.853 190.657 198.263 191.427 200.854C191.638 201.549 191.721 202.004 191.659 202.06Z" fill="#FFC2AE"/>
<path d="M201.18 350C201.067 350 200.954 349.953 200.881 349.854C200.752 349.685 200.783 349.442 200.948 349.312C200.988 349.28 204.886 346.116 204.241 338.861C203.574 331.42 195.827 307.274 195.747 307.028C195.683 306.829 195.793 306.611 195.992 306.542C196.185 306.477 196.402 306.586 196.466 306.792C196.787 307.785 204.321 331.261 204.993 338.793C205.681 346.493 201.584 349.785 201.41 349.922C201.339 349.975 201.26 350 201.18 350Z" fill="#EB754D"/>
<path d="M203.996 343.805C203.95 343.805 203.905 343.798 203.859 343.777C203.804 343.755 198.025 341.509 194.53 341.509H189.797C189.586 341.509 189.418 341.335 189.418 341.126C189.418 340.911 189.586 340.74 189.797 340.74H194.53C198.166 340.74 203.889 342.967 204.134 343.06C204.327 343.138 204.424 343.359 204.348 343.562C204.29 343.711 204.149 343.805 203.996 343.805Z" fill="#EB754D"/>
<path d="M233.299 312.61C233.143 312.61 232.996 312.51 232.941 312.351C232.841 312.058 230.44 305.091 230.618 300.478C230.798 295.706 228.361 291.22 226.218 287.847C223.732 283.932 221.635 274.575 221.546 274.179C221.5 273.971 221.629 273.765 221.834 273.718C222.038 273.669 222.24 273.803 222.283 274.008C222.307 274.105 224.439 283.63 226.854 287.43C229.055 290.896 231.562 295.519 231.373 300.509C231.202 304.972 233.629 312.024 233.654 312.096C233.724 312.295 233.62 312.516 233.424 312.588C233.382 312.6 233.339 312.61 233.299 312.61Z" fill="#EB754D"/>
<path d="M252.907 293.544C252.76 293.544 252.619 293.457 252.558 293.308L246.587 278.836C246.504 278.64 246.596 278.413 246.789 278.332C246.978 278.248 247.202 278.341 247.284 278.537L253.255 293.012C253.338 293.205 253.246 293.432 253.054 293.513C253.008 293.535 252.956 293.544 252.907 293.544Z" fill="#EB754D"/>
<path d="M281.308 297.435C281.167 297.435 281.03 297.354 280.966 297.214L275.331 285.047C275.242 284.857 275.321 284.627 275.511 284.536C275.698 284.446 275.927 284.527 276.016 284.72L281.65 296.887C281.739 297.08 281.657 297.307 281.47 297.397C281.418 297.422 281.363 297.435 281.308 297.435Z" fill="#EB754D"/>
<path d="M261.297 317.637C261.098 317.637 260.93 317.478 260.917 317.273C260.917 317.22 260.645 312.13 260.908 305.985C261.162 300.054 255.438 295.457 255.38 295.41C255.215 295.282 255.185 295.039 255.313 294.871C255.442 294.703 255.68 294.672 255.845 294.803C256.093 294.999 261.936 299.696 261.667 306.019C261.404 312.127 261.673 317.179 261.673 317.229C261.685 317.441 261.526 317.625 261.318 317.637C261.309 317.637 261.303 317.637 261.297 317.637Z" fill="#EB754D"/>
<path d="M286.267 313.32C286.243 313.32 286.218 313.317 286.194 313.314C285.989 313.274 285.858 313.071 285.894 312.862C285.9 312.838 286.328 310.511 285.891 306.219C285.463 302.017 283.127 300.129 283.106 300.111C282.941 299.98 282.91 299.737 283.036 299.569C283.164 299.4 283.402 299.372 283.568 299.5C283.675 299.584 286.182 301.612 286.643 306.141C287.093 310.561 286.656 312.912 286.637 313.009C286.604 313.193 286.445 313.32 286.267 313.32Z" fill="#EB754D"/>
<path d="M246.935 353.218C246.773 353.218 246.624 353.112 246.575 352.947L234.965 315.532C234.904 315.329 235.014 315.111 235.213 315.049C235.412 314.984 235.626 315.096 235.687 315.298L247.296 352.716C247.357 352.919 247.247 353.137 247.049 353.199C247.012 353.211 246.972 353.218 246.935 353.218Z" fill="#EB754D"/>
<path d="M255.609 308.685C255.423 308.685 255.261 308.542 255.236 308.346L254.338 300.998C254.31 300.789 254.457 300.596 254.665 300.571C254.857 300.54 255.059 300.693 255.087 300.905L255.986 308.249C256.013 308.461 255.866 308.654 255.658 308.679C255.643 308.682 255.628 308.685 255.609 308.685Z" fill="#EB754D"/>
<path d="M198.588 251.411C198.453 251.411 198.325 251.339 198.255 251.211C198.154 251.024 198.221 250.788 198.404 250.688C198.551 250.607 201.976 248.701 204.263 248.237C206.516 247.776 209.057 247.661 209.164 247.654C209.369 247.657 209.549 247.81 209.558 248.025C209.567 248.237 209.405 248.417 209.197 248.424C209.173 248.427 206.608 248.545 204.409 248.994C202.239 249.433 198.802 251.342 198.768 251.364C198.71 251.395 198.649 251.411 198.588 251.411Z" fill="#EB754D"/>
<path d="M203.883 251.754C203.706 251.754 203.547 251.626 203.513 251.442C203.473 251.233 203.608 251.031 203.813 250.99L210.799 249.614C211.001 249.576 211.203 249.71 211.242 249.919C211.282 250.128 211.148 250.33 210.943 250.371L203.956 251.747C203.932 251.75 203.907 251.754 203.883 251.754Z" fill="#EB754D"/>
<path d="M200.052 255.198C199.844 255.198 199.673 255.027 199.673 254.812C199.673 254.6 199.844 254.426 200.052 254.426C200.098 254.426 204.733 254.419 206.115 253.877C207.497 253.339 208.91 252.018 208.925 252.005C209.078 251.862 209.316 251.868 209.457 252.027C209.601 252.183 209.591 252.426 209.438 252.569C209.374 252.628 207.901 254.005 206.387 254.597C204.874 255.192 200.248 255.198 200.052 255.198Z" fill="#EB754D"/>
<path d="M191.659 202.06C191.353 202.334 188.669 204.552 186.046 205.287C180.921 206.72 178.885 206.776 178.567 206.52C178.46 206.433 178.322 206.231 178.176 205.95C181.236 202.278 186.709 200.951 191.427 200.854C191.638 201.549 191.72 202.004 191.659 202.06Z" fill="#FFD3C4"/>
<path d="M238.489 56.1026C238.468 56.0989 238.447 56.0962 238.426 56.0946C238.405 56.093 238.384 56.0925 238.363 56.0932C238.342 56.0938 238.321 56.0954 238.3 56.0984C238.279 56.1012 238.259 56.1051 238.238 56.1101C238.218 56.1151 238.198 56.121 238.178 56.1283C238.158 56.1354 238.138 56.1434 238.119 56.1525C238.1 56.1618 238.081 56.1719 238.063 56.1829C238.045 56.1941 238.028 56.2062 238.011 56.219C237.994 56.2321 237.977 56.2459 237.962 56.2606C237.946 56.2753 237.931 56.2907 237.917 56.307C237.903 56.3232 237.889 56.3402 237.877 56.3579C237.864 56.3756 237.852 56.3939 237.842 56.4128C237.831 56.4317 237.821 56.4512 237.812 56.4712C237.803 56.4913 237.795 56.5116 237.788 56.5325C237.781 56.5533 237.774 56.5745 237.769 56.5961C237.764 56.6176 237.76 56.6393 237.757 56.6612C237.754 56.6832 237.752 56.7053 237.751 56.7276C237.75 56.7497 237.75 56.772 237.751 56.7941C237.752 56.8164 237.754 56.8385 237.758 56.8605C237.761 56.8825 237.765 56.9043 237.77 56.9259C237.775 56.9476 237.782 56.9687 237.789 56.9897C237.796 57.0107 237.804 57.0312 237.813 57.0514C237.822 57.0715 237.833 57.0912 237.843 57.1103C237.854 57.1293 237.866 57.1479 237.879 57.1657C237.892 57.1836 237.905 57.2007 237.919 57.2173C237.934 57.2338 237.949 57.2495 237.964 57.2643C237.98 57.2794 237.997 57.2934 238.014 57.3067C238.031 57.3199 238.048 57.3322 238.067 57.3436C238.085 57.3549 238.103 57.3654 238.122 57.3749C238.142 57.3843 238.161 57.3927 238.181 57.4001C238.201 57.4075 238.221 57.4139 238.242 57.4192C238.262 57.4246 238.283 57.4287 238.304 57.4318L249.649 59.3127C249.67 59.3165 249.691 59.3193 249.712 59.3208C249.733 59.3224 249.754 59.3229 249.775 59.3222C249.796 59.3216 249.817 59.3199 249.838 59.3171C249.859 59.3143 249.879 59.3103 249.9 59.3055C249.92 59.3004 249.94 59.2944 249.96 59.2873C249.98 59.2802 250 59.272 250.019 59.2628C250.038 59.2538 250.056 59.2437 250.075 59.2325C250.093 59.2213 250.11 59.2094 250.127 59.1963C250.144 59.1835 250.161 59.1695 250.176 59.155C250.192 59.1402 250.207 59.1247 250.221 59.1084C250.235 59.0921 250.249 59.0752 250.261 59.0575C250.274 59.0398 250.285 59.0216 250.296 59.0026C250.307 58.9837 250.317 58.9642 250.326 58.9442C250.335 58.9243 250.343 58.9038 250.35 58.8829C250.358 58.8621 250.364 58.8409 250.369 58.8194C250.374 58.7978 250.378 58.7761 250.381 58.7542C250.384 58.7322 250.386 58.7101 250.387 58.688C250.388 58.6657 250.388 58.6434 250.387 58.6213C250.386 58.599 250.384 58.5771 250.38 58.5549C250.377 58.5329 250.373 58.5111 250.368 58.4895C250.363 58.468 250.356 58.4467 250.349 58.4257C250.342 58.4047 250.334 58.3842 250.325 58.364C250.316 58.3439 250.305 58.3244 250.295 58.3052C250.284 58.2861 250.272 58.2676 250.259 58.2497C250.246 58.2319 250.233 58.2147 250.219 58.1981C250.204 58.1817 250.189 58.166 250.174 58.151C250.158 58.136 250.141 58.1221 250.124 58.1089C250.107 58.0955 250.09 58.0833 250.072 58.0719C250.053 58.0605 250.035 58.0501 250.015 58.0407C249.996 58.0311 249.977 58.0227 249.957 58.0153C249.937 58.0079 249.917 58.0015 249.896 57.9962C249.876 57.991 249.855 57.9867 249.834 57.9836L238.489 56.1026ZM237.934 60.0904C237.913 60.0866 237.892 60.084 237.871 60.0825C237.85 60.0808 237.829 60.0804 237.808 60.0811C237.787 60.0815 237.766 60.0833 237.745 60.0861C237.724 60.089 237.704 60.0928 237.683 60.0978C237.663 60.1029 237.643 60.1089 237.623 60.116C237.603 60.1231 237.583 60.1313 237.564 60.1404C237.545 60.1495 237.526 60.1596 237.508 60.1708C237.49 60.1818 237.473 60.1939 237.456 60.2069C237.439 60.2198 237.422 60.2336 237.407 60.2483C237.391 60.2631 237.376 60.2786 237.362 60.2949C237.348 60.311 237.334 60.3281 237.322 60.3458C237.309 60.3633 237.297 60.3817 237.287 60.4007C237.276 60.4196 237.266 60.439 237.257 60.4591C237.248 60.479 237.24 60.4995 237.233 60.5202C237.225 60.5412 237.219 60.5623 237.214 60.5839C237.209 60.6055 237.205 60.6271 237.202 60.6491C237.199 60.6711 237.197 60.6932 237.196 60.7153C237.195 60.7376 237.195 60.7597 237.196 60.782C237.197 60.8041 237.199 60.8262 237.203 60.8482C237.206 60.8704 237.21 60.8922 237.215 60.9137C237.22 60.9353 237.227 60.9566 237.234 60.9776C237.241 60.9985 237.249 61.0191 237.258 61.0393C237.267 61.0593 237.277 61.0789 237.288 61.0981C237.299 61.1172 237.311 61.1357 237.324 61.1536C237.337 61.1714 237.35 61.1886 237.364 61.205C237.379 61.2216 237.394 61.2373 237.409 61.2523C237.425 61.2671 237.442 61.2812 237.459 61.2944C237.476 61.3076 237.493 61.32 237.511 61.3314C237.53 61.3428 237.548 61.3532 237.567 61.3626C237.587 61.372 237.606 61.3806 237.626 61.388C237.646 61.3954 237.666 61.4017 237.687 61.407C237.707 61.4123 237.728 61.4166 237.749 61.4197L249.094 63.3006C249.115 63.3044 249.136 63.3071 249.157 63.3086C249.178 63.3103 249.199 63.3108 249.22 63.3101C249.241 63.3095 249.262 63.3077 249.283 63.3049C249.303 63.3021 249.324 63.2982 249.345 63.2932C249.365 63.2882 249.385 63.2821 249.405 63.275C249.425 63.2679 249.445 63.2598 249.464 63.2507C249.483 63.2415 249.501 63.2314 249.519 63.2202C249.538 63.2092 249.555 63.1971 249.572 63.1842C249.589 63.1712 249.605 63.1574 249.621 63.1427C249.637 63.128 249.652 63.1125 249.666 63.0963C249.68 63.08 249.694 63.063 249.706 63.0454C249.719 63.0277 249.73 63.0093 249.741 62.9904C249.752 62.9716 249.762 62.9521 249.771 62.932C249.78 62.912 249.788 62.8916 249.795 62.8708C249.802 62.8499 249.808 62.8288 249.814 62.8072C249.819 62.7857 249.823 62.764 249.826 62.7421C249.829 62.72 249.831 62.698 249.832 62.6757C249.833 62.6535 249.833 62.6313 249.832 62.609C249.831 62.5869 249.829 62.5648 249.825 62.5428C249.822 62.5207 249.818 62.499 249.813 62.4774C249.807 62.4557 249.801 62.4344 249.794 62.4136C249.787 62.3926 249.779 62.3719 249.77 62.3519C249.76 62.3318 249.75 62.3121 249.739 62.293C249.728 62.2738 249.717 62.2554 249.704 62.2376C249.691 62.2196 249.678 62.2024 249.663 62.186C249.649 62.1694 249.634 62.1537 249.618 62.1389C249.603 62.1239 249.586 62.1099 249.569 62.0966C249.552 62.0834 249.535 62.0711 249.516 62.0597C249.498 62.0482 249.479 62.0379 249.46 62.0284C249.441 62.019 249.422 62.0105 249.402 62.0032C249.382 61.9958 249.362 61.9893 249.341 61.9841C249.321 61.9787 249.3 61.9744 249.279 61.9713L237.934 60.0904ZM237.379 64.0783C237.358 64.0745 237.337 64.0719 237.316 64.0702C237.295 64.0687 237.274 64.0682 237.253 64.0688C237.232 64.0694 237.211 64.0711 237.19 64.0739C237.169 64.0767 237.149 64.0807 237.128 64.0857C237.108 64.0906 237.087 64.0966 237.068 64.1037C237.048 64.1108 237.028 64.119 237.009 64.1282C236.99 64.1374 236.971 64.1475 236.953 64.1585C236.935 64.1697 236.917 64.1817 236.9 64.1947C236.883 64.2077 236.867 64.2215 236.852 64.2362C236.836 64.2508 236.821 64.2663 236.807 64.2826C236.793 64.2989 236.779 64.3158 236.767 64.3335C236.754 64.3512 236.742 64.3696 236.731 64.3884C236.721 64.4074 236.711 64.4269 236.702 64.4468C236.693 64.4668 236.684 64.4872 236.677 64.5081C236.67 64.5289 236.664 64.5502 236.659 64.5716C236.654 64.5932 236.65 64.615 236.647 64.6369C236.644 64.6588 236.642 64.6809 236.641 64.7032C236.64 64.7253 236.64 64.7476 236.641 64.7697C236.642 64.792 236.644 64.8141 236.647 64.8361C236.651 64.8581 236.655 64.8799 236.66 64.9016C236.665 64.923 236.671 64.9444 236.679 64.9654C236.686 64.9864 236.694 65.0069 236.703 65.027C236.712 65.0472 236.722 65.0668 236.733 65.0858C236.744 65.1049 236.756 65.1234 236.769 65.1413C236.781 65.1593 236.795 65.1764 236.809 65.1929C236.823 65.2093 236.838 65.225 236.854 65.24C236.87 65.255 236.886 65.2691 236.903 65.2823C236.921 65.2955 236.938 65.3079 236.956 65.3191C236.975 65.3306 236.993 65.3411 237.012 65.3505C237.031 65.3599 237.051 65.3683 237.071 65.3757C237.091 65.3832 237.111 65.3895 237.132 65.3949C237.152 65.4001 237.173 65.4043 237.194 65.4075L248.539 67.2884C248.56 67.2922 248.581 67.2948 248.602 67.2965C248.623 67.298 248.644 67.2985 248.665 67.2979C248.686 67.2972 248.707 67.2956 248.727 67.2928C248.748 67.29 248.769 67.286 248.79 67.281C248.81 67.2761 248.83 67.27 248.85 67.2629C248.87 67.2558 248.889 67.2477 248.909 67.2385C248.928 67.2293 248.946 67.2191 248.964 67.2081C248.983 67.197 249 67.185 249.017 67.172C249.034 67.1589 249.05 67.1452 249.066 67.1304C249.082 67.1159 249.097 67.1004 249.111 67.0841C249.125 67.0678 249.138 67.0509 249.151 67.0332C249.164 67.0155 249.175 66.9971 249.186 66.9783C249.197 66.9593 249.207 66.9398 249.216 66.9199C249.225 66.8999 249.233 66.8795 249.24 66.8585C249.247 66.8378 249.253 66.8165 249.259 66.7951C249.264 66.7735 249.268 66.7517 249.271 66.7298C249.274 66.7079 249.276 66.6857 249.277 66.6635C249.278 66.6414 249.278 66.6191 249.277 66.5969C249.275 66.5747 249.273 66.5525 249.27 66.5306C249.267 66.5086 249.263 66.4868 249.258 66.4651C249.252 66.4436 249.246 66.4223 249.239 66.4013C249.232 66.3803 249.224 66.3598 249.214 66.3396C249.205 66.3195 249.195 66.2998 249.184 66.2809C249.173 66.2617 249.161 66.2433 249.149 66.2253C249.136 66.2074 249.123 66.1903 249.108 66.1737C249.094 66.1573 249.079 66.1416 249.063 66.1267C249.048 66.1117 249.031 66.0976 249.014 66.0844C248.997 66.0711 248.979 66.0588 248.961 66.0476C248.943 66.0361 248.924 66.0256 248.905 66.0161C248.886 66.0067 248.867 65.9984 248.847 65.9909C248.827 65.9835 248.807 65.9772 248.786 65.9718C248.766 65.9666 248.745 65.9623 248.724 65.9592L237.379 64.0783Z" fill="#8EBA3A"/>
</svg>
