<svg width="35" height="35" viewBox="0 0 35 35" fill="none" xmlns="http://www.w3.org/2000/svg">
<g clip-path="url(#clip0_2364_67542)">
<path d="M27.3467 23.0923C26.9233 23.0923 26.4977 22.9534 26.1405 22.6754L22.9077 20.1704C22.6608 19.9786 22.6167 19.6257 22.8084 19.3788C22.9982 19.1318 23.3531 19.0876 23.5979 19.2773L26.8307 21.7823C27.1703 22.047 27.662 22.0117 27.9575 21.7096C28.1494 21.5111 28.2331 21.2819 28.2178 21.0393C28.2045 20.799 28.0876 20.5762 27.8957 20.4241L27.1284 19.8242C25.9045 18.8606 23.5538 17.0193 21.4833 15.4602C21.4678 15.4492 21.4502 15.4382 21.4347 15.4271C18.9363 13.5439 18.2064 13.0919 17.9924 12.9883C17.5051 13.0457 16.8634 13.6519 16.2924 14.19C15.5426 14.9001 14.7663 15.6322 13.8998 15.6322C12.3363 15.6322 11.4476 14.5075 11.4102 14.4591C11.2426 14.2452 11.2535 13.9431 11.4321 13.738C11.732 13.4006 12.1709 12.7678 12.5942 12.1548C13.43 10.9441 13.9703 10.1899 14.4002 9.90551C14.8853 9.58127 16.063 9.08959 17.3706 8.77649C18.2218 8.57141 19.0267 8.46777 19.7588 8.46777C21.062 8.46777 23.0225 9.24167 24.7512 9.92307C25.7038 10.3001 26.7822 10.7258 27.0975 10.7258H30.101C30.4119 10.7258 30.6654 10.9793 30.6654 11.2903C30.6654 11.6012 30.4119 11.8549 30.101 11.8549H27.0975C26.5903 11.8549 25.7612 11.5374 24.3367 10.975C22.7821 10.3597 20.8481 9.5968 19.7588 9.5968C19.1236 9.5968 18.3894 9.69385 17.6331 9.87463C16.396 10.1702 15.3639 10.62 15.0244 10.8448C14.742 11.0323 14.0365 12.0512 13.5227 12.7964C13.2029 13.2595 12.8941 13.7049 12.6207 14.0643C12.892 14.2694 13.3264 14.5031 13.8998 14.5031C14.3165 14.5031 14.9537 13.9012 15.5161 13.3697C16.3055 12.6244 17.1215 11.8549 18.0653 11.8549C18.3232 11.8549 18.568 11.8549 22.0698 14.4922C22.0874 14.5031 22.1029 14.5143 22.1183 14.5253C24.2087 16.0975 26.5903 17.9631 27.8252 18.9355L28.5971 19.5376C29.0425 19.8948 29.3115 20.4151 29.3423 20.9686C29.3821 21.5222 29.1814 22.0735 28.7866 22.4725C28.3898 22.885 27.8692 23.0923 27.3467 23.0923Z" fill="#D892C0"/>
<path d="M25.1913 25.1894C24.7524 25.1894 24.3136 25.0461 23.952 24.755L20.8846 22.2787C20.6443 22.0824 20.6046 21.7274 20.8009 21.4848C20.9971 21.2445 21.3522 21.2047 21.5947 21.401L24.6621 23.8752C24.9906 24.1397 25.4647 24.12 25.7712 23.8354L25.888 23.7252C26.069 23.5554 26.1682 23.315 26.1571 23.0681C26.1439 22.8189 26.0248 22.5918 25.8286 22.4373L25.7447 22.3735C25.4978 22.1816 25.4516 21.8288 25.6411 21.5817C25.833 21.3326 26.1858 21.2885 26.4327 21.4781L26.5188 21.5443C26.9796 21.9016 27.2574 22.4373 27.2839 23.0151C27.3104 23.595 27.0832 24.1531 26.6599 24.5499L26.5431 24.6579C26.166 25.0108 25.6786 25.1894 25.1913 25.1894Z" fill="#D892C0"/>
<path d="M22.468 26.8984C22.0138 26.8984 21.5574 26.7373 21.1869 26.4198L18.2275 23.8927C17.9894 23.6899 17.963 23.3327 18.1636 23.0967C18.3664 22.8586 18.7238 22.8321 18.9597 23.0328L21.9189 25.5621C22.241 25.8355 22.704 25.8355 23.0238 25.5577L23.209 25.3967C23.3941 25.2378 23.4978 25.0064 23.4934 24.7615C23.489 24.519 23.3788 24.2897 23.1891 24.1375C22.9465 23.9412 22.9069 23.5862 23.1032 23.3437C23.2995 23.1011 23.6544 23.0615 23.897 23.26C24.349 23.6215 24.6115 24.1618 24.6224 24.7439C24.6314 25.3217 24.3865 25.873 23.9478 26.2522L23.7624 26.4133C23.3876 26.7351 22.929 26.8984 22.468 26.8984Z" fill="#D892C0"/>
<path d="M19.9997 28.2236C19.6094 28.2236 19.2168 28.1088 18.8794 27.8796L17.0999 26.6535C16.8442 26.4771 16.778 26.1242 16.9544 25.8685C17.1308 25.6104 17.4837 25.5464 17.7394 25.723L19.519 26.9489C19.8299 27.1607 20.2488 27.143 20.5378 26.9048C20.692 26.7769 20.7825 26.5895 20.7847 26.3888C20.7847 26.1947 20.6966 26.0074 20.5465 25.8772L20.3879 25.7405C20.1519 25.5376 20.1254 25.1827 20.3283 24.9467C20.5312 24.7086 20.8883 24.6821 21.1221 24.8849L21.2809 25.0195C21.6822 25.3635 21.9137 25.8663 21.9137 26.3976C21.905 26.9379 21.6668 27.4385 21.2544 27.7759C20.8949 28.0735 20.4473 28.2236 19.9997 28.2236Z" fill="#D892C0"/>
<path d="M21.78 15.5419H21.7734C21.4603 15.5419 21.209 15.2882 21.209 14.9773C21.209 14.6642 21.4603 14.4128 21.7734 14.4128C22.0843 14.4128 22.3402 14.6642 22.3402 14.9773C22.3402 15.2882 22.0909 15.5419 21.78 15.5419Z" fill="#D892C0"/>
<path d="M7.64388 23.0922C7.12789 23.0922 6.61393 22.8871 6.23247 22.4923C5.82012 22.0734 5.61943 21.5221 5.65926 20.9619C5.68998 20.4128 5.95903 19.8947 6.40007 19.5419L7.38141 18.7722C7.48724 18.6863 7.61957 18.6355 7.7519 18.6355C8.06281 18.6355 8.31633 18.887 8.31633 19.2001C8.31633 19.3896 8.22164 19.5594 8.07378 19.6631L7.10139 20.4284C6.91387 20.5761 6.79926 20.7989 6.78609 21.0325C6.76837 21.2818 6.85209 21.511 7.0197 21.683C7.32183 21.9939 7.75848 22.0447 8.0937 21.8308C8.31414 21.6566 8.63399 21.672 8.83907 21.8771C9.05951 22.0977 9.05951 22.4548 8.83907 22.6753C8.81915 22.6952 8.79046 22.7195 8.76396 22.7393C8.75299 22.7458 8.74202 22.7548 8.73088 22.7636C8.40022 22.984 8.02095 23.0922 7.64388 23.0922Z" fill="#D892C0"/>
<path d="M8.41791 22.8564C8.27461 22.8564 8.12912 22.8034 8.0189 22.6932C7.79829 22.4704 7.79829 22.1132 8.0189 21.8928C8.03864 21.8728 8.06734 21.8507 8.09384 21.831L9.06842 21.0635C9.25595 20.9158 9.37056 20.693 9.38389 20.4594C9.40144 20.2101 9.31773 19.9809 9.15012 19.8089C8.84799 19.4978 8.40694 19.4472 8.07392 19.6632C7.90631 19.7934 7.67035 19.8221 7.46746 19.7162C7.18964 19.5707 7.08381 19.2311 7.2293 18.9555C7.27572 18.8628 7.35066 18.7857 7.43894 18.7305V18.7283C8.22617 18.2035 9.2757 18.316 9.93515 18.9996C10.3475 19.4185 10.5504 19.9698 10.5106 20.53C10.4798 21.079 10.2108 21.5972 9.76974 21.95L8.7884 22.7197C8.77963 22.7262 8.77304 22.7328 8.76629 22.7372C8.66266 22.8167 8.54147 22.8564 8.41791 22.8564Z" fill="#D892C0"/>
<path d="M7.90379 11.8549H4.90037C4.58726 11.8549 4.33594 11.6012 4.33594 11.2903C4.33594 10.9793 4.58726 10.7258 4.90037 10.7258H7.90379C8.21909 10.7258 9.29748 10.3001 10.2501 9.92307C11.9789 9.24167 13.9393 8.46777 15.2425 8.46777C15.9746 8.46777 16.7795 8.57141 17.6329 8.77649C17.9351 8.84924 18.1224 9.15576 18.0497 9.45789C17.9769 9.76002 17.6682 9.94737 17.3683 9.87463C16.6119 9.69385 15.8777 9.5968 15.2425 9.5968C14.1532 9.5968 12.2192 10.3597 10.6647 10.975C9.24009 11.5374 8.411 11.8549 7.90379 11.8549Z" fill="#D892C0"/>
<path d="M9.80624 25.1872C9.31675 25.1872 8.83149 25.0087 8.45441 24.6579L8.33761 24.5477C7.91429 24.1553 7.68491 23.5929 7.71799 23.0129C7.74229 22.5124 7.95176 22.0405 8.31111 21.6921L8.54488 21.4936C8.78524 21.293 9.1424 21.326 9.34089 21.5642C9.54158 21.8024 9.5085 22.1595 9.27034 22.358L9.06745 22.5278C8.94626 22.6492 8.85579 22.8521 8.84482 23.0703C8.83149 23.3194 8.92854 23.5554 9.11168 23.7252L9.22848 23.8376C9.5328 24.12 10.0091 24.1375 10.3376 23.8729L11.6629 22.8034C11.6673 22.7991 11.685 22.7859 11.7026 22.7747C11.7093 22.7682 11.7181 22.7616 11.7247 22.755L11.8084 22.6932C11.9959 22.4925 12.3046 22.4529 12.5384 22.6093C12.7963 22.7837 12.8647 23.1365 12.6883 23.3944C12.6618 23.4342 12.6024 23.5004 12.5649 23.5311C12.5538 23.54 12.5275 23.5664 12.5141 23.5753L12.426 23.6415C12.4105 23.6524 12.3973 23.6634 12.384 23.6724L11.0477 24.7528C10.6839 25.0439 10.2451 25.1872 9.80624 25.1872Z" fill="#D892C0"/>
<path d="M12.0407 23.7826C11.8578 23.7826 11.6814 23.7009 11.5734 23.5466C11.399 23.2929 11.441 22.9579 11.6924 22.7791C11.6968 22.7769 11.7408 22.746 11.7476 22.7416L11.7806 22.7197C11.7872 22.7131 11.796 22.7064 11.8048 22.6998C11.8115 22.691 11.8203 22.6822 11.8269 22.6733C11.9835 22.5234 12.0782 22.3139 12.0872 22.1023C12.1003 21.8508 12.0055 21.6148 11.8181 21.4384L11.7033 21.3304C11.4014 21.046 10.9205 21.0305 10.5942 21.2929L9.06821 22.5278C8.83005 22.7285 8.4729 22.6976 8.27221 22.4572C8.07152 22.2191 8.1046 21.8619 8.34276 21.6612L8.54564 21.4936L9.88633 20.413C10.6494 19.8 11.7651 19.842 12.4774 20.5101L12.5942 20.6181C13.0199 21.0195 13.2471 21.5817 13.2162 22.1595C13.1919 22.6557 12.9802 23.1255 12.6185 23.4782C12.601 23.5004 12.581 23.5179 12.5657 23.5311C12.5567 23.54 12.5282 23.5642 12.5171 23.5731L12.3716 23.6833C12.2701 23.7495 12.1555 23.7826 12.0407 23.7826Z" fill="#D892C0"/>
<path d="M12.5296 26.896C12.0708 26.896 11.6122 26.7328 11.2373 26.4109L11.0564 26.2587C10.6133 25.8728 10.3684 25.3216 10.3751 24.746C10.3927 24.1573 10.6574 23.6192 11.105 23.2598C11.3497 23.0613 11.7025 23.101 11.8988 23.3435C12.0951 23.5861 12.0554 23.9434 11.8129 24.1373C11.6254 24.2918 11.5107 24.521 11.5042 24.7703C11.502 25.0063 11.6056 25.2399 11.7908 25.4009L11.9715 25.5531C12.2958 25.8332 12.7588 25.8332 13.0808 25.5597L14.4678 24.3755C14.4964 24.3512 14.5251 24.3271 14.5494 24.3028C14.7699 24.0823 15.1272 24.0823 15.3476 24.3028C15.5681 24.5256 15.5681 24.8827 15.3476 25.1032C15.3036 25.1474 15.2528 25.1914 15.2 25.2355L13.8129 26.4197C13.4402 26.7372 12.986 26.896 12.5296 26.896Z" fill="#D892C0"/>
<path d="M14.836 25.3701C14.6749 25.3701 14.5163 25.3018 14.4037 25.1694C14.2032 24.9313 14.2317 24.5763 14.4699 24.3734C14.4964 24.3513 14.5251 24.3272 14.5494 24.3029C14.6949 24.1574 14.7808 23.9523 14.7853 23.7406C14.7875 23.5003 14.6817 23.2665 14.503 23.1121L14.3112 22.9445C14.0003 22.6732 13.5262 22.6732 13.2085 22.9423L11.826 24.1265C11.59 24.3294 11.2328 24.3029 11.03 24.0669C10.8271 23.8287 10.8558 23.4738 11.0917 23.2709L12.4743 22.0845C13.2153 21.4539 14.3244 21.4583 15.0542 22.0933L15.2417 22.2565C15.6762 22.6292 15.9231 23.176 15.9144 23.7582C15.9054 24.261 15.6981 24.7505 15.3476 25.1033C15.3035 25.1475 15.2527 25.1915 15.1999 25.2356C15.094 25.3239 14.9639 25.3701 14.836 25.3701Z" fill="#D892C0"/>
<path d="M15 28.2236C14.5502 28.2236 14.1026 28.0713 13.743 27.7738C13.3329 27.4385 13.0947 26.9401 13.0859 26.4044C13.0859 25.8663 13.3175 25.3635 13.7187 25.0195L13.8776 24.8849C14.1135 24.6821 14.4707 24.7086 14.6714 24.9467C14.8743 25.1827 14.8478 25.5376 14.6118 25.7405L14.4531 25.8772C14.3009 26.0074 14.215 26.1969 14.215 26.3976C14.2172 26.5895 14.3076 26.7769 14.4597 26.9026C14.7531 27.143 15.172 27.1585 15.4829 26.9467L16.7399 26.0801C16.9934 25.9016 17.3462 25.9655 17.5249 26.2234C17.7013 26.4793 17.6373 26.8299 17.3816 27.0085L16.1224 27.8774C15.785 28.1088 15.3902 28.2236 15 28.2236Z" fill="#D892C0"/>
<path d="M17.0586 27.1077C16.8998 27.1077 16.7411 27.0415 16.6309 26.9092C16.428 26.6732 16.4543 26.3161 16.6925 26.1154L16.8491 25.9787C17.0012 25.8485 17.0873 25.659 17.0873 25.4539C17.0851 25.2642 16.9946 25.079 16.8426 24.9533C16.5514 24.7129 16.1325 24.6954 15.8216 24.9092L14.5624 25.778C14.3067 25.9522 13.9537 25.8882 13.7774 25.6325C13.601 25.3766 13.6649 25.026 13.9207 24.8496L15.1798 23.9787C15.9075 23.4824 16.8844 23.5243 17.5592 24.0801C17.9694 24.4174 18.2076 24.9136 18.2163 25.445C18.2163 25.9874 17.9848 26.4925 17.5857 26.8364L17.4269 26.971C17.3189 27.0636 17.1887 27.1077 17.0586 27.1077Z" fill="#D892C0"/>
<path d="M7.52346 19.9456C7.40447 19.9456 7.28311 19.9058 7.17947 19.8265C6.84206 19.5686 6.21366 19.2906 4.10549 19.2156C3.79459 19.2047 3.54984 18.9422 3.56301 18.6313C3.57415 18.3204 3.84539 18.0713 4.14516 18.0866C6.10125 18.1572 7.17947 18.4019 7.86965 18.9334C8.11659 19.123 8.163 19.4781 7.97109 19.725C7.86087 19.8683 7.69326 19.9456 7.52346 19.9456Z" fill="#D892C0"/>
<path d="M27.4763 19.9455C27.3065 19.9455 27.1389 19.8682 27.0287 19.7249C26.8367 19.4779 26.8832 19.1228 27.1301 18.9333C27.8203 18.4017 28.8985 18.157 30.8546 18.0864C31.1611 18.0733 31.4256 18.3202 31.4389 18.6311C31.4499 18.942 31.2052 19.2045 30.8942 19.2155C28.7861 19.2904 28.1577 19.5684 27.8203 19.8263C27.7166 19.9056 27.5953 19.9455 27.4763 19.9455Z" fill="#D892C0"/>
<path d="M34.4351 20.8871H31.048C30.7592 20.8871 30.5167 20.6688 30.488 20.3821L29.3589 9.65641C29.3412 9.49758 29.392 9.33875 29.5 9.21975C29.6059 9.10059 29.7603 9.03223 29.919 9.03223H34.4351C34.7462 9.03223 34.9997 9.28592 34.9997 9.59682C34.9997 9.90773 34.7462 10.1613 34.4351 10.1613H30.5453L31.5574 19.7581H34.4351C34.7462 19.7581 34.9997 20.0116 34.9997 20.3227C34.9997 20.6336 34.7462 20.8871 34.4351 20.8871Z" fill="#D892C0"/>
<path d="M3.95168 20.8871H0.564598C0.25352 20.8871 0 20.6336 0 20.3227C0 20.0116 0.25352 19.7581 0.564598 19.7581H3.44447L4.45433 10.1613H0.564598C0.25352 10.1613 0 9.90773 0 9.59682C0 9.28592 0.25352 9.03223 0.564598 9.03223H5.08071C5.23937 9.03223 5.39381 9.10059 5.49964 9.21975C5.60766 9.33875 5.65847 9.49758 5.64075 9.65641L4.51172 20.3821C4.48302 20.6688 4.24048 20.8871 3.95168 20.8871Z" fill="#D892C0"/>
<path d="M17.5001 3.38708C17.1892 3.38708 16.9355 3.13356 16.9355 2.82265V0.564598C16.9355 0.25352 17.1892 0 17.5001 0C17.8111 0 18.0647 0.25352 18.0647 0.564598V2.82265C18.0647 3.13356 17.8111 3.38708 17.5001 3.38708Z" fill="#D892C0"/>
<path d="M17.5001 35.0001C17.1892 35.0001 16.9355 34.7466 16.9355 34.4355V32.1775C16.9355 31.8666 17.1892 31.613 17.5001 31.613C17.8111 31.613 18.0647 31.8666 18.0647 32.1775V34.4355C18.0647 34.7466 17.8111 35.0001 17.5001 35.0001Z" fill="#D892C0"/>
<path d="M24.8387 5.35424C24.7416 5.35424 24.6446 5.32993 24.5563 5.27693C24.2874 5.12266 24.1925 4.77647 24.349 4.50743L25.478 2.5515C25.6347 2.28026 25.9809 2.1876 26.2499 2.34423C26.519 2.5007 26.6138 2.84469 26.4572 3.11593L25.3282 5.07185C25.2223 5.2528 25.0326 5.35424 24.8387 5.35424Z" fill="#D892C0"/>
<path d="M9.03197 32.731C8.93492 32.731 8.83803 32.7067 8.74976 32.6558C8.48071 32.4994 8.38585 32.1554 8.54248 31.8841L9.67151 29.9282C9.82815 29.6592 10.1743 29.5665 10.4434 29.721C10.7123 29.8774 10.8071 30.2236 10.6507 30.4927L9.52163 32.4486C9.41563 32.6295 9.22608 32.731 9.03197 32.731Z" fill="#D892C0"/>
<path d="M25.9677 32.731C25.7736 32.731 25.584 32.6295 25.478 32.4486L24.349 30.4927C24.1925 30.2236 24.2874 29.8774 24.5563 29.721C24.8253 29.5665 25.1715 29.6592 25.3282 29.9282L26.4572 31.8841C26.6138 32.1554 26.519 32.4994 26.2499 32.6558C26.1616 32.7067 26.0647 32.731 25.9677 32.731Z" fill="#D892C0"/>
<path d="M10.161 5.35424C9.96706 5.35424 9.77734 5.2528 9.67151 5.07185L8.54248 3.11593C8.38585 2.84469 8.48071 2.5007 8.74976 2.34423C9.01881 2.1876 9.36499 2.28026 9.52163 2.5515L10.6507 4.50743C10.8071 4.77647 10.7123 5.12266 10.4434 5.27693C10.3551 5.32993 10.2581 5.35424 10.161 5.35424Z" fill="#D892C0"/>
</g>
<defs>
<clipPath id="clip0_2364_67542">
<rect width="35" height="35" fill="white"/>
</clipPath>
</defs>
</svg>
