<svg width="34" height="35" viewBox="0 0 34 35" fill="none" xmlns="http://www.w3.org/2000/svg">
<g clip-path="url(#clip0_1552_33042)">
<path d="M26.1603 23.0923C25.7672 23.0923 25.3718 22.9534 25.0402 22.6754L22.038 20.1704C21.8087 19.9786 21.7677 19.6257 21.9458 19.3788C22.122 19.1318 22.4516 19.0876 22.6789 19.2773L25.6811 21.7823C25.9965 22.047 26.4531 22.0117 26.7276 21.7096C26.9058 21.5111 26.9835 21.2819 26.9693 21.0393C26.9569 20.799 26.8484 20.5762 26.6702 20.4241L25.9576 19.8242C24.821 18.8606 22.638 17.0193 20.7152 15.4602C20.7008 15.4492 20.6845 15.4382 20.67 15.4271C18.3499 13.5439 17.6721 13.0919 17.4733 12.9883C17.0208 13.0457 16.4248 13.6519 15.8946 14.19C15.1983 14.9001 14.4774 15.6322 13.6727 15.6322C12.2207 15.6322 11.3954 14.5075 11.3606 14.4591C11.205 14.2452 11.2152 13.9431 11.381 13.738C11.6596 13.4006 12.0671 12.7678 12.4602 12.1548C13.2364 10.9441 13.7382 10.1899 14.1374 9.90551C14.5879 9.58127 15.6815 9.08959 16.8959 8.77649C17.6864 8.57141 18.4339 8.46777 19.1137 8.46777C20.3239 8.46777 22.1446 9.24167 23.75 9.92307C24.6347 10.3001 25.6361 10.7258 25.9289 10.7258H28.7181C29.0068 10.7258 29.2423 10.9793 29.2423 11.2903C29.2423 11.6012 29.0068 11.8549 28.7181 11.8549H25.9289C25.4579 11.8549 24.688 11.5374 23.365 10.975C21.9214 10.3597 20.1253 9.5968 19.1137 9.5968C18.5239 9.5968 17.842 9.69385 17.1396 9.87463C15.9908 10.1702 15.0323 10.62 14.7171 10.8448C14.4548 11.0323 13.7996 12.0512 13.3225 12.7964C13.0255 13.2595 12.7388 13.7049 12.4848 14.0643C12.7367 14.2694 13.1402 14.5031 13.6727 14.5031C14.0597 14.5031 14.6514 13.9012 15.1737 13.3697C15.9068 12.6244 16.6645 11.8549 17.541 11.8549C17.7806 11.8549 18.0078 11.8549 21.2599 14.4922C21.2762 14.5031 21.2906 14.5143 21.3049 14.5253C23.2462 16.0975 25.4579 17.9631 26.6047 18.9355L27.3215 19.5376C27.7351 19.8948 27.985 20.4151 28.0135 20.9686C28.0505 21.5222 27.8641 22.0735 27.4975 22.4725C27.129 22.885 26.6456 23.0923 26.1603 23.0923Z" fill="black"/>
<path d="M24.1592 25.1894C23.7517 25.1894 23.3441 25.0461 23.0084 24.755L20.1598 22.2787C19.9366 22.0824 19.8997 21.7274 20.082 21.4848C20.2642 21.2445 20.594 21.2047 20.8192 21.401L23.6678 23.8752C23.9728 24.1397 24.4131 24.12 24.6978 23.8354L24.8063 23.7252C24.9743 23.5554 25.0665 23.315 25.0561 23.0681C25.0439 22.8189 24.9332 22.5918 24.7511 22.4373L24.6732 22.3735C24.4439 22.1816 24.4009 21.8288 24.5769 21.5817C24.7552 21.3326 25.0828 21.2885 25.3121 21.4781L25.392 21.5443C25.8199 21.9016 26.0779 22.4373 26.1026 23.0151C26.1272 23.595 25.9162 24.1531 25.5231 24.5499L25.4146 24.6579C25.0644 25.0108 24.6117 25.1894 24.1592 25.1894Z" fill="black"/>
<path d="M21.6299 26.8984C21.2081 26.8984 20.7842 26.7373 20.4402 26.4198L17.6919 23.8927C17.4707 23.6899 17.4463 23.3327 17.6325 23.0967C17.8209 22.8586 18.1527 22.8321 18.3719 23.0328L21.12 25.5621C21.419 25.8355 21.849 25.8355 22.146 25.5577L22.318 25.3967C22.4899 25.2378 22.5862 25.0064 22.5821 24.7615C22.578 24.519 22.4757 24.2897 22.2995 24.1375C22.0743 23.9412 22.0374 23.5862 22.2197 23.3437C22.402 23.1011 22.7317 23.0615 22.9569 23.26C23.3767 23.6215 23.6204 24.1618 23.6306 24.7439C23.6389 25.3217 23.4115 25.873 23.0041 26.2522L22.832 26.4133C22.4838 26.7351 22.058 26.8984 21.6299 26.8984Z" fill="black"/>
<path d="M19.3388 28.2238C18.9764 28.2238 18.6118 28.109 18.2985 27.8798L16.6459 26.6537C16.4084 26.4774 16.347 26.1244 16.5108 25.8687C16.6746 25.6106 17.0024 25.5467 17.2398 25.7232L18.8924 26.9491C19.1812 27.161 19.5702 27.1432 19.8386 26.9051C19.9818 26.7771 20.0658 26.5898 20.0679 26.3891C20.0679 26.195 19.9861 26.0076 19.8467 25.8775L19.6994 25.7408C19.4802 25.5379 19.4556 25.1829 19.644 24.947C19.8324 24.7088 20.1641 24.6823 20.3812 24.8852L20.5287 25.0197C20.9013 25.3637 21.1164 25.8665 21.1164 26.3979C21.1082 26.9382 20.887 27.4388 20.5041 27.7762C20.1702 28.0738 19.7545 28.2238 19.3388 28.2238Z" fill="black"/>
<path d="M20.9912 15.5421H20.9851C20.6943 15.5421 20.4609 15.2884 20.4609 14.9775C20.4609 14.6644 20.6943 14.4131 20.9851 14.4131C21.2738 14.4131 21.5115 14.6644 21.5115 14.9775C21.5115 15.2884 21.2799 15.5421 20.9912 15.5421Z" fill="black"/>
<path d="M7.8623 23.0924C7.38312 23.0924 6.90582 22.8874 6.55157 22.4926C6.16864 22.0736 5.98227 21.5224 6.01926 20.9622C6.04779 20.4131 6.29764 19.8949 6.70722 19.5421L7.61856 18.7725C7.71684 18.6865 7.83973 18.6357 7.96262 18.6357C8.25135 18.6357 8.48678 18.8872 8.48678 19.2003C8.48678 19.3899 8.39884 19.5597 8.26153 19.6633L7.35851 20.4286C7.18436 20.5763 7.07793 20.7991 7.06571 21.0327C7.04925 21.282 7.12699 21.5112 7.28264 21.6832C7.56322 21.9941 7.96873 22.0449 8.28003 21.8311C8.48474 21.6569 8.78178 21.6722 8.97223 21.8773C9.17694 22.0979 9.17694 22.4551 8.97223 22.6755C8.95373 22.6954 8.92708 22.7198 8.90248 22.7395C8.89229 22.7461 8.8821 22.755 8.87175 22.7638C8.56468 22.9842 8.21247 23.0924 7.8623 23.0924Z" fill="black"/>
<path d="M8.5814 22.8564C8.44832 22.8564 8.3132 22.8034 8.21084 22.6932C8.00598 22.4704 8.00598 22.1132 8.21084 21.8928C8.22918 21.8728 8.25583 21.8507 8.28044 21.831L9.1855 21.0635C9.35965 20.9158 9.46608 20.693 9.47846 20.4594C9.49477 20.2101 9.41702 19.9809 9.26137 19.8089C8.98079 19.4978 8.57121 19.4472 8.26194 19.6632C8.10629 19.7934 7.88716 19.8221 7.69875 19.7162C7.44074 19.5707 7.34246 19.2311 7.47758 18.9555C7.52068 18.8628 7.59028 18.7857 7.67226 18.7305V18.7283C8.40333 18.2035 9.37799 18.316 9.9904 18.9996C10.3733 19.4185 10.5617 19.9698 10.5248 20.53C10.4962 21.079 10.2464 21.5972 9.83679 21.95L8.92546 22.7197C8.91731 22.7262 8.91119 22.7328 8.90492 22.7372C8.80868 22.8167 8.69614 22.8564 8.5814 22.8564Z" fill="black"/>
<path d="M8.10435 11.8549H5.31518C5.02441 11.8549 4.79102 11.6012 4.79102 11.2903C4.79102 10.9793 5.02441 10.7258 5.31518 10.7258H8.10435C8.39715 10.7258 9.39861 10.3001 10.2833 9.92307C11.8887 9.24167 13.7093 8.46777 14.9196 8.46777C15.5994 8.46777 16.3469 8.57141 17.1394 8.77649C17.42 8.84924 17.594 9.15576 17.5265 9.45789C17.4589 9.76002 17.1722 9.94737 16.8937 9.87463C16.1913 9.69385 15.5094 9.5968 14.9196 9.5968C13.9079 9.5968 12.1119 10.3597 10.6683 10.975C9.34532 11.5374 8.57538 11.8549 8.10435 11.8549Z" fill="black"/>
<path d="M9.87091 25.187C9.41635 25.187 8.9657 25.0084 8.61552 24.6577L8.50705 24.5475C8.11393 24.155 7.90091 23.5926 7.93163 23.0127C7.9542 22.5122 8.14873 22.0403 8.48244 21.6919L8.69954 21.4934C8.92275 21.2927 9.25443 21.3258 9.43876 21.564C9.62513 21.8021 9.59441 22.1593 9.37324 22.3578L9.18483 22.5276C9.07228 22.6489 8.98827 22.8518 8.97808 23.0701C8.9657 23.3192 9.05583 23.5551 9.2259 23.725L9.33437 23.8374C9.61698 24.1197 10.0593 24.1373 10.3644 23.8726L11.5951 22.8032C11.5992 22.7988 11.6157 22.7856 11.632 22.7745C11.6382 22.7679 11.6464 22.7613 11.6525 22.7548L11.7303 22.693C11.9044 22.4923 12.1911 22.4526 12.4082 22.6091C12.6477 22.7834 12.7112 23.1362 12.5474 23.3941C12.5228 23.434 12.4676 23.5001 12.4328 23.5308C12.4225 23.5398 12.398 23.5661 12.3856 23.5751L12.3038 23.6412C12.2894 23.6522 12.2771 23.6632 12.2648 23.6721L11.0238 24.7525C10.686 25.0437 10.2785 25.187 9.87091 25.187Z" fill="black"/>
<path d="M11.9461 23.7823C11.7762 23.7823 11.6124 23.7006 11.5121 23.5464C11.3502 23.2927 11.3892 22.9576 11.6226 22.7789C11.6267 22.7767 11.6676 22.7458 11.6738 22.7414L11.7046 22.7195C11.7107 22.7129 11.7188 22.7061 11.727 22.6995C11.7333 22.6908 11.7414 22.682 11.7475 22.673C11.893 22.5232 11.9809 22.3137 11.9892 22.102C12.0015 21.8505 11.9134 21.6146 11.7394 21.4382L11.6328 21.3302C11.3524 21.0458 10.9058 21.0302 10.6028 21.2927L9.18563 22.5275C8.96446 22.7282 8.63279 22.6973 8.44641 22.457C8.26004 22.2188 8.29076 21.8617 8.51193 21.661L8.70034 21.4934L9.94539 20.4128C10.654 19.7998 11.6901 19.8418 12.3516 20.5098L12.4601 20.6179C12.8554 21.0193 13.0664 21.5815 13.0377 22.1593C13.0151 22.6555 12.8186 23.1252 12.4827 23.478C12.4664 23.5001 12.4479 23.5177 12.4336 23.5308C12.4253 23.5398 12.3988 23.5639 12.3885 23.5729L12.2533 23.6831C12.1591 23.7492 12.0527 23.7823 11.9461 23.7823Z" fill="black"/>
<path d="M12.4003 26.8963C11.9742 26.8963 11.5483 26.7331 11.2002 26.4112L11.0322 26.2589C10.6207 25.8731 10.3933 25.3218 10.3995 24.7462C10.4158 24.1575 10.6616 23.6194 11.0773 23.2601C11.3046 23.0616 11.6322 23.1012 11.8145 23.3438C11.9968 23.5863 11.96 23.9437 11.7347 24.1376C11.5606 24.292 11.4541 24.5212 11.448 24.7705C11.446 25.0065 11.5422 25.2401 11.7142 25.4011L11.8821 25.5534C12.1832 25.8334 12.6131 25.8334 12.9122 25.56L14.2002 24.3757C14.2268 24.3514 14.2535 24.3273 14.2761 24.303C14.4808 24.0826 14.8126 24.0826 15.0173 24.303C15.222 24.5258 15.222 24.883 15.0173 25.1034C14.9764 25.1476 14.9292 25.1917 14.8802 25.2357L13.592 26.4199C13.2459 26.7374 12.8241 26.8963 12.4003 26.8963Z" fill="black"/>
<path d="M14.5421 25.3701C14.3926 25.3701 14.2452 25.3018 14.1407 25.1694C13.9545 24.9313 13.9809 24.5763 14.2021 24.3734C14.2267 24.3513 14.2534 24.3272 14.2759 24.3029C14.4111 24.1574 14.4908 23.9523 14.4951 23.7406C14.4971 23.5003 14.3988 23.2665 14.2328 23.1121L14.0548 22.9445C13.766 22.6732 13.3257 22.6732 13.0307 22.9423L11.7468 24.1265C11.5277 24.3294 11.196 24.3029 11.0076 24.0669C10.8192 23.8287 10.8458 23.4738 11.065 23.2709L12.3489 22.0845C13.037 21.4539 14.067 21.4583 14.7448 22.0933L14.9189 22.2565C15.3224 22.6292 15.5517 23.176 15.5436 23.7582C15.5353 24.261 15.3428 24.7505 15.0172 25.1033C14.9763 25.1475 14.9291 25.1915 14.8801 25.2356C14.7818 25.3239 14.6609 25.3701 14.5421 25.3701Z" fill="black"/>
<path d="M14.6945 28.2238C14.2768 28.2238 13.8611 28.0716 13.5272 27.774C13.1463 27.4388 12.9251 26.9404 12.917 26.4046C12.917 25.8665 13.132 25.3637 13.5046 25.0197L13.6521 24.8852C13.8713 24.6823 14.203 24.7088 14.3893 24.947C14.5777 25.1829 14.5531 25.5379 14.334 25.7408L14.1866 25.8775C14.0453 26.0076 13.9655 26.1972 13.9655 26.3979C13.9675 26.5898 14.0515 26.7771 14.1928 26.9029C14.4652 27.1432 14.8542 27.1588 15.143 26.9469L16.3103 26.0804C16.5457 25.9018 16.8733 25.9658 17.0393 26.2237C17.2031 26.4796 17.1437 26.8301 16.9062 27.0087L15.7369 27.8776C15.4235 28.109 15.0569 28.2238 14.6945 28.2238Z" fill="black"/>
<path d="M16.6065 27.1079C16.459 27.1079 16.3116 27.0418 16.2093 26.9094C16.0209 26.6735 16.0453 26.3163 16.2665 26.1156L16.412 25.9789C16.5532 25.8488 16.6331 25.6592 16.6331 25.4541C16.6311 25.2644 16.5471 25.0793 16.4059 24.9535C16.1355 24.7132 15.7464 24.6956 15.4577 24.9095L14.2883 25.7782C14.0509 25.9524 13.7231 25.8884 13.5593 25.6327C13.3955 25.3768 13.4549 25.0263 13.6924 24.8499L14.8617 23.9789C15.5375 23.4827 16.4447 23.5246 17.0714 24.0804C17.4523 24.4176 17.6735 24.9139 17.6816 25.4452C17.6816 25.9877 17.4666 26.4927 17.096 26.8367L16.9485 26.9712C16.8482 27.0639 16.7273 27.1079 16.6065 27.1079Z" fill="black"/>
<path d="M7.75164 19.9456C7.64113 19.9456 7.52843 19.9058 7.43219 19.8265C7.11885 19.5686 6.53528 19.2906 4.5775 19.2156C4.28877 19.2047 4.06149 18.9422 4.07371 18.6313C4.08406 18.3204 4.33595 18.0713 4.61434 18.0866C6.43088 18.1572 7.43219 18.4019 8.07313 18.9334C8.30245 19.123 8.34556 19.4781 8.16734 19.725C8.06498 19.8683 7.90933 19.9456 7.75164 19.9456Z" fill="black"/>
<path d="M26.2806 19.9455C26.1229 19.9455 25.9673 19.8682 25.8649 19.7249C25.6867 19.4779 25.7298 19.1228 25.9591 18.9333C26.6001 18.4017 27.6014 18.157 29.4179 18.0864C29.7026 18.0733 29.9482 18.3202 29.9606 18.6311C29.9708 18.942 29.7435 19.2045 29.4548 19.2155C27.497 19.2904 26.9134 19.5684 26.6001 19.8263C26.5038 19.9056 26.3911 19.9455 26.2806 19.9455Z" fill="black"/>
<path d="M32.7436 20.8871H29.5982C29.33 20.8871 29.1047 20.6688 29.0781 20.3821L28.0296 9.65641C28.0131 9.49758 28.0603 9.33875 28.1606 9.21975C28.2589 9.10059 28.4023 9.03223 28.5497 9.03223H32.7436C33.0325 9.03223 33.2679 9.28592 33.2679 9.59682C33.2679 9.90773 33.0325 10.1613 32.7436 10.1613H29.1314L30.0712 19.7581H32.7436C33.0325 19.7581 33.2679 20.0116 33.2679 20.3227C33.2679 20.6336 33.0325 20.8871 32.7436 20.8871Z" fill="black"/>
<path d="M4.43442 20.8871H1.28897C1.00008 20.8871 0.764648 20.6336 0.764648 20.3227C0.764648 20.0116 1.00008 19.7581 1.28897 19.7581H3.9634L4.90122 10.1613H1.28897C1.00008 10.1613 0.764648 9.90773 0.764648 9.59682C0.764648 9.28592 1.00008 9.03223 1.28897 9.03223H5.48291C5.63025 9.03223 5.77368 9.10059 5.87196 9.21975C5.97228 9.33875 6.01946 9.49758 6.003 9.65641L4.95451 20.3821C4.92787 20.6688 4.70262 20.8871 4.43442 20.8871Z" fill="black"/>
<path d="M17.0165 3.38708C16.7278 3.38708 16.4922 3.13356 16.4922 2.82265V0.564598C16.4922 0.25352 16.7278 0 17.0165 0C17.3052 0 17.5408 0.25352 17.5408 0.564598V2.82265C17.5408 3.13356 17.3052 3.38708 17.0165 3.38708Z" fill="black"/>
<path d="M17.0165 34.9999C16.7278 34.9999 16.4922 34.7464 16.4922 34.4353V32.1772C16.4922 31.8663 16.7278 31.6128 17.0165 31.6128C17.3052 31.6128 17.5408 31.8663 17.5408 32.1772V34.4353C17.5408 34.7464 17.3052 34.9999 17.0165 34.9999Z" fill="black"/>
<path d="M23.8315 5.35424C23.7414 5.35424 23.6513 5.32993 23.5693 5.27693C23.3196 5.12266 23.2315 4.77647 23.3768 4.50743L24.4253 2.5515C24.5708 2.28026 24.8923 2.1876 25.1421 2.34423C25.392 2.5007 25.4801 2.84469 25.3346 3.11593L24.2861 5.07185C24.1878 5.2528 24.0117 5.35424 23.8315 5.35424Z" fill="black"/>
<path d="M9.15279 32.7312C9.06266 32.7312 8.97268 32.7069 8.8907 32.6561C8.64085 32.4996 8.55276 32.1556 8.69822 31.8844L9.7467 29.9285C9.89216 29.6594 10.2137 29.5668 10.4635 29.7212C10.7132 29.8777 10.8013 30.2238 10.656 30.4929L9.60751 32.4488C9.50907 32.6298 9.33305 32.7312 9.15279 32.7312Z" fill="black"/>
<path d="M24.88 32.7312C24.6998 32.7312 24.5237 32.6298 24.4253 32.4488L23.3768 30.4929C23.2315 30.2238 23.3196 29.8777 23.5693 29.7212C23.8192 29.5668 24.1407 29.6594 24.2861 29.9285L25.3346 31.8844C25.4801 32.1556 25.392 32.4996 25.1421 32.6561C25.0601 32.7069 24.9702 32.7312 24.88 32.7312Z" fill="black"/>
<path d="M10.2013 5.35424C10.0212 5.35424 9.84498 5.2528 9.7467 5.07185L8.69822 3.11593C8.55276 2.84469 8.64085 2.5007 8.8907 2.34423C9.14056 2.1876 9.46205 2.28026 9.60751 2.5515L10.656 4.50743C10.8013 4.77647 10.7132 5.12266 10.4635 5.27693C10.3815 5.32993 10.2914 5.35424 10.2013 5.35424Z" fill="black"/>
</g>
<defs>
<clipPath id="clip0_1552_33042">
<rect width="32.5032" height="35" fill="white" transform="translate(0.764648)"/>
</clipPath>
</defs>
</svg>
