<svg width="354" height="389" viewBox="0 0 354 389" fill="none" xmlns="http://www.w3.org/2000/svg">
<g clip-path="url(#clip0_1637_36342)">
<path d="M24.3066 352.755C23.9958 347.481 23.5332 342.217 22.922 336.976C22.6011 334.237 22.2426 331.509 21.8414 328.785C21.4487 326.118 21.249 323.163 20.4654 320.599C19.8423 318.556 18.2188 318.856 16.5696 318.98C15.5914 319.053 14.6132 319.126 13.635 319.199C12.3819 319.126 11.1254 319.119 9.86555 319.209C7.98595 319.34 5.85027 319.494 4.10042 320.315C0.675824 321.929 0.89605 326.705 1.14359 330.11C1.51234 335.182 2.30959 340.24 2.93442 345.284C3.58314 350.533 4.1909 355.794 4.88572 361.037C5.09912 362.65 5.42177 364.5 6.64411 365.586C7.96547 366.762 9.85702 366.511 11.4327 366.397C13.5326 366.243 15.6256 365.944 17.693 365.504C19.4223 365.136 21.7509 364.894 23.1457 363.579C24.1717 362.615 24.4926 361.142 24.5678 359.716C24.6907 357.414 24.4431 355.051 24.3066 352.755Z" fill="#D892C0"/>
<path d="M120.744 246.314C120.586 246.944 120.248 247.333 119.788 247.595C119.63 247.685 119.456 247.764 119.271 247.834C118.045 248.273 116.721 248.49 115.459 248.781C112.434 249.492 109.392 250.113 106.336 250.649C100.52 251.661 94.6605 252.366 88.7878 252.754C79.4666 253.373 70.1062 253.171 60.814 252.199C59.4295 251.329 57.9579 250.608 56.4027 250.059C56.1278 248.901 55.8461 247.747 55.5764 246.59C55.4893 246.235 55.4023 245.883 55.3203 245.53C48.9628 219.068 42.4704 192.643 36.246 166.149C36.2034 165.974 36.1624 165.794 36.1231 165.619C35.1961 161.68 34.3391 157.444 34.0421 153.236C33.5777 146.537 34.5594 139.924 39.0253 134.732C46.5796 125.962 58.3352 125.69 68.5373 126.219C73.5734 126.477 78.9084 126.866 83.0739 130.336C87.0909 133.676 89.6772 138.9 92.1817 143.586C97.718 153.921 102.24 164.89 105.962 176.155C109.75 187.625 112.714 199.407 115.147 211.309C116.369 217.282 117.453 223.289 118.44 229.312C118.551 230.003 118.663 230.689 118.771 231.38C119.145 233.7 119.502 236.026 119.845 238.353C120.075 239.898 120.299 241.444 120.514 242.994C120.591 243.532 120.727 244.147 120.796 244.753C120.861 245.292 120.872 245.828 120.744 246.314Z" fill="#E6B28B"/>
<path d="M193.017 258.634C192.179 258.649 191.346 258.667 190.513 258.679C181.282 258.84 151.111 259.065 132.571 259.301C130.115 259.335 127.624 259.363 125.119 259.397C98.3218 259.735 69.7864 260.089 56.6753 260.318C56.6343 257.514 55.8268 250.402 55.5776 246.59C55.5724 246.586 55.5724 246.586 55.5776 246.579C55.5417 246.08 55.5161 245.641 55.5059 245.269L107.67 245.005C110.849 244.95 114.473 244.881 118.393 244.804C119.182 244.787 119.984 244.77 120.797 244.753C122.489 244.721 124.225 244.686 125.999 244.652C143.675 244.294 178.088 243.832 191.392 243.594C191.571 246.764 192.768 255.463 193.017 258.634Z" fill="#E6B28B"/>
<path d="M64.4753 256.853C63.3366 257.041 62.1945 257.142 61.061 257.142C59.4494 257.142 57.889 256.968 56.3867 256.641C56.4499 257.067 56.5113 257.484 56.5677 257.874C60.1784 282.361 63.5671 306.842 66.7356 331.318C68.5111 345.046 70.2166 358.769 71.8554 372.49C71.8708 372.628 71.9596 372.709 72.0586 372.737C72.0671 372.741 72.0774 372.741 72.0859 372.743C72.1064 372.745 72.1252 372.752 72.144 372.752C72.1542 372.752 72.161 372.756 72.1713 372.754C73.1102 372.694 74.0543 372.651 75.0001 372.623C75.0103 372.623 75.0154 372.619 75.0257 372.617C75.1537 372.623 75.2783 372.544 75.2647 372.368C73.3356 347.976 71.1879 323.566 68.815 299.138C67.4458 285.047 65.993 270.953 64.4753 256.853Z" fill="#E6B28B"/>
<path d="M196.499 249.282C194.019 248.65 191.658 247.654 189.66 246.367C188.961 245.918 188.29 245.429 187.643 244.902C188.233 249.216 188.759 252.965 189.2 255.955C192.81 280.442 196.201 304.925 199.367 329.397C201.145 343.125 202.85 356.848 204.487 370.571C204.504 370.709 204.593 370.788 204.692 370.818C204.701 370.82 204.709 370.82 204.718 370.824C204.738 370.828 204.757 370.833 204.778 370.833C204.788 370.833 204.793 370.837 204.803 370.837C205.742 370.775 206.686 370.732 207.634 370.704C207.642 370.704 207.649 370.698 207.658 370.696C207.787 370.704 207.91 370.623 207.897 370.449C205.967 346.057 203.82 321.645 201.449 297.217C199.897 281.245 198.241 265.265 196.499 249.282Z" fill="#E6B28B"/>
<path d="M126.224 255.184C123.743 254.551 121.382 253.552 119.385 252.268C118.685 251.818 118.014 251.327 117.365 250.8C117.958 255.116 118.483 258.864 118.926 261.853C122.535 286.342 125.923 310.823 129.092 335.299C130.867 349.025 132.573 362.75 134.212 376.47C134.227 376.607 134.316 376.69 134.415 376.718C134.423 376.722 134.434 376.722 134.442 376.724C134.463 376.726 134.483 376.733 134.502 376.733C134.51 376.733 134.519 376.735 134.527 376.735C135.468 376.675 136.41 376.632 137.356 376.604C137.367 376.604 137.373 376.596 137.382 376.596C137.512 376.604 137.635 376.523 137.621 376.347C135.692 351.957 133.544 327.547 131.173 303.118C129.621 287.146 127.965 271.167 126.224 255.184Z" fill="#E6B28B"/>
<path d="M166.057 135.403C161.678 125.344 156.664 115.631 151.09 106.315C151.177 106.326 151.264 106.337 151.351 106.354C151.672 106.416 151.811 105.874 151.488 105.812C151.234 105.763 150.983 105.733 150.735 105.714C150.64 105.557 150.546 105.394 150.45 105.234C150.269 104.934 149.825 105.217 150.008 105.517C150.045 105.579 150.081 105.639 150.117 105.701C147.027 105.797 144.523 108.26 142.827 111.07C140.586 114.787 138.599 119.37 138.966 123.941C139.335 128.511 141.837 132.882 143.642 136.915C145.702 141.517 147.848 146.079 150.313 150.437C152.415 154.157 156.359 158.376 159.857 160.703C162.789 162.654 168.215 166.135 170.697 163.344C176.319 157.022 167.873 139.579 166.057 135.403Z" fill="#E37D67"/>
<path d="M139.948 122.512C143.217 120.638 146.567 118.93 149.94 117.276C152.411 116.064 154.866 114.822 157.32 113.576C155.188 109.819 153.556 105.744 151.668 101.839C149.338 97.0286 146.521 92.56 142.355 89.4684C139.544 87.3861 136.411 85.9641 133.191 84.8292C129.772 82.9813 125.949 81.6419 121.68 81.0472C121.676 81.0472 121.671 81.0472 121.671 81.0472C121.007 80.9534 120.331 80.8728 119.646 80.8184C119.646 80.8334 124.205 82.0978 124.205 82.1878C124.048 82.2422 123.935 82.4748 124.089 82.6474C132.256 92.1173 137.705 104.309 139.467 117.221C139.708 118.983 139.854 120.746 139.948 122.512Z" fill="#782C2C"/>
<path d="M90.5394 61.254C90.8108 69.345 91.6559 77.3366 93.0984 85.1313C93.3016 86.2325 93.3477 88.3992 94.1671 89.1289C94.5171 89.4441 95.0276 89.4103 95.4612 89.4197C96.3387 89.4404 97.2179 89.4422 98.0971 89.4535C101.771 89.5023 105.446 89.5492 109.12 89.5961C109.289 89.5979 109.393 89.4216 109.385 89.2415C108.91 79.7454 108.437 70.2492 107.963 60.7512C108.424 60.7343 108.886 60.7156 109.347 60.695C109.656 60.6837 109.709 60.1153 109.399 60.1303L107.936 60.1884C107.884 59.1698 107.833 58.1474 107.784 57.125C107.765 56.7667 107.288 56.9111 107.307 57.2713C107.355 58.2487 107.405 59.2298 107.454 60.2091C101.902 60.4398 96.354 60.6687 90.804 60.8994C90.6333 60.9069 90.5326 61.0664 90.5394 61.254Z" fill="#E37D67"/>
<path d="M121.557 53.5926C121.822 58.8021 122.623 64.4713 119.807 70.6657C117.986 74.669 114.664 75.8321 109.459 75.2131C105.317 74.7047 99.0226 72.6261 95.9838 69.24C94.1178 67.1483 92.2399 65.0453 90.5925 62.7473C88.9741 60.4924 87.7245 58.0105 86.5994 55.4329C84.2965 50.1577 82.253 44.6742 81.2321 38.9169C81.1126 38.2547 80.9999 37.5756 80.9043 36.8871C83.057 35.2794 85.1125 33.4747 87.3899 32.0734C90.246 30.3194 93.2472 28.9931 96.3286 27.7906C96.5318 27.7061 96.7298 27.618 96.9159 27.5242C97.3444 27.5335 97.7746 27.5429 98.2082 27.5486C98.9713 27.6236 99.731 27.7043 100.498 27.7868C105.991 28.3665 111.213 29.3701 116.68 30.1637C117.713 33.5235 118.602 36.3262 119.326 39.0426C119.615 40.1119 119.874 41.1737 120.111 42.2524C120.842 45.586 121.332 49.0771 121.557 53.5926Z" fill="#E37D67"/>
<path d="M115.486 47.9421C115.754 49.1877 116.459 50.0713 117.06 49.9137C117.66 49.758 117.93 48.6212 117.66 47.3755C117.391 46.1318 116.686 45.2463 116.085 45.4058C115.486 45.5615 115.216 46.6983 115.486 47.9421Z" fill="#2F1516"/>
<path d="M102.443 52.0504C102.752 53.283 103.483 54.1384 104.079 53.9583C104.674 53.7782 104.908 52.6339 104.599 51.3976C104.292 50.1632 103.558 49.3097 102.964 49.4879C102.368 49.668 102.134 50.8142 102.443 52.0504Z" fill="#2F1516"/>
<path d="M116.082 56.2714C115.934 55.037 115.162 54.0128 114.489 53.0654C113.716 51.9717 112.912 50.923 111.939 50.0338C111.686 49.8031 111.335 50.2102 111.587 50.4428C112.733 51.4896 113.68 52.7634 114.559 54.0822C115.061 54.8382 115.502 55.5904 115.541 56.5491C115.604 58.1174 114.469 59.0891 113.072 58.9447C112.746 58.909 112.763 59.4737 113.088 59.5037C114.81 59.6838 116.32 58.2468 116.082 56.2714Z" fill="#B95547"/>
<path d="M310.243 315.239C310.703 315.986 311.168 316.73 311.629 317.479C318.63 328.827 325.544 340.24 332.371 351.715C332.443 351.837 332.371 352.04 332.255 352.092C330.722 352.786 329.202 353.527 327.656 354.178C326.857 354.51 326.126 354.764 325.332 354.265C324.357 353.649 323.751 352.282 323.103 351.316C322.261 350.059 321.392 348.823 320.498 347.605C316.914 342.724 312.967 338.182 308.873 333.822C304.848 329.538 300.676 325.424 296.512 321.304C301.725 320.659 306.367 318.651 310.243 315.239Z" fill="#E37D67"/>
<mask id="mask0_1637_36342" style="mask-type:luminance" maskUnits="userSpaceOnUse" x="320" y="344" width="34" height="19">
<path d="M320.195 344.62H353.999V362.767H320.195V344.62Z" fill="white"/>
</mask>
<g mask="url(#mask0_1637_36342)">
<path d="M321.325 349.922L324.223 355.52C325.325 357.643 326.397 360.712 328.66 361.928C329.731 362.502 330.91 362.585 332.015 362.631C333.594 362.701 335.166 362.712 336.735 362.708C339.993 362.701 345.288 362.495 348.494 362.239C350.027 362.116 351.724 362.117 353.194 361.769C353.711 361.647 354.06 361.493 354 360.872C353.899 359.842 352.969 358.315 352.318 357.439C351.675 356.574 350.842 355.942 349.918 355.458C347.299 354.083 342.381 353.661 339.668 352.738C338.016 352.175 336.356 351.468 334.873 350.406C333.529 349.443 332.566 348.19 331.503 346.933C330.465 345.705 328.35 343.667 327.257 345.416C327.223 345.474 327.218 345.532 327.226 345.592C326.344 346.179 325.485 346.556 324.23 346.341C323.593 346.232 322.952 345.979 322.311 345.96C321.557 345.933 320.713 346.2 320.398 346.894C319.971 347.832 320.864 349.029 321.325 349.922Z" fill="#A68D82"/>
</g>
<path d="M248.959 304.931C248.921 305.829 248.889 306.732 248.853 307.634C248.286 321.332 247.615 335.025 246.84 348.712C246.834 348.856 246.666 348.971 246.543 348.937C244.94 348.485 243.317 348.08 241.724 347.583C240.903 347.324 240.181 347.046 239.815 346.123C239.368 344.988 239.626 343.493 239.633 342.296C239.643 340.733 239.619 339.171 239.564 337.608C239.351 331.34 238.66 325.105 237.75 318.92C236.857 312.838 235.749 306.797 234.656 300.757C239.185 303.668 243.995 305.113 248.959 304.931Z" fill="#E37D67"/>
<path d="M239.061 342.538L238.336 348.929C238.062 351.355 237.25 354.52 238.406 356.983C238.948 358.148 239.848 358.99 240.709 359.756C241.936 360.847 243.192 361.89 244.449 362.918C247.063 365.055 251.416 368.372 254.129 370.276C255.423 371.186 256.782 372.304 258.149 372.989C258.63 373.233 258.994 373.339 259.283 372.803C259.762 371.91 259.848 370.073 259.805 368.946C259.761 367.83 259.436 366.774 258.96 365.779C257.611 362.956 253.895 359.382 252.223 356.855C251.206 355.321 250.262 353.661 249.651 351.835C249.098 350.183 249.009 348.543 248.842 346.838C248.678 345.17 248.09 342.148 246.264 342.827C246.206 342.849 246.168 342.896 246.144 342.949C245.12 342.838 244.224 342.579 243.336 341.579C242.883 341.073 242.508 340.446 242.004 340.011C241.414 339.495 240.594 339.152 239.963 339.501C239.111 339.972 239.176 341.519 239.061 342.538Z" fill="#A68D82"/>
<path d="M105.387 43.1414C102.905 42.7681 99.54 43.663 97.4026 45.6196C96.7727 46.1974 95.9242 47.1541 96.1342 48.1747C96.269 48.8387 96.8085 49.0864 97.3685 49.0601C98.0291 49.0282 98.7615 48.5142 99.3693 48.2609C100.127 47.9495 100.897 47.6719 101.677 47.4355C102.913 47.0566 104.576 47.0491 105.645 46.2011C106.785 45.2988 106.553 43.5992 105.387 43.1414Z" fill="#964E38"/>
<path d="M119.326 39.0425C119.309 39.0407 119.299 39.0369 119.282 39.035C116.547 38.4891 113.218 39.5303 111.222 41.2018C110.413 42.2336 110.97 43.8338 112.366 44.0045C113.679 44.162 115.127 43.271 116.373 42.9295C117.158 42.7176 117.955 42.5412 118.753 42.4005C119.157 42.3349 119.657 42.3274 120.112 42.2523C119.874 41.1736 119.615 40.1118 119.326 39.0425Z" fill="#964E38"/>
<path d="M116.515 62.0587C116.012 61.9218 115.553 62.2707 115.213 62.7041C115.09 62.4283 114.853 62.2557 114.457 62.3364C113.531 62.5259 112.79 64.6551 111.061 64.959C110.778 65.0115 111.006 65.5255 111.245 65.5574C112.408 65.7094 113.741 65.4392 114.825 64.9871C115.616 64.6588 116.572 64.233 116.956 63.3006C117.162 62.7979 117.053 62.2088 116.515 62.0587Z" fill="#B95547"/>
<path d="M116.166 66.2852C115.295 67.0619 114.218 67.317 113.118 67.3527C112.792 67.362 112.753 67.9248 113.081 67.9136C114.325 67.8723 115.52 67.5834 116.505 66.7054C116.761 66.4785 116.422 66.0582 116.166 66.2852Z" fill="#B95547"/>
<path d="M321.662 324.471C307.131 305.379 260.911 244.828 246.41 225.78C243.124 221.461 239.947 216.867 235.87 213.397C232.276 210.337 228.061 208.343 223.734 206.904C219.018 205.336 214.153 204.373 209.328 203.308C203.765 202.079 198.201 200.848 192.637 199.619C187.075 198.389 181.512 197.16 175.948 195.929C171.472 194.941 166.91 194.145 162.553 192.609C158.878 191.315 154.164 189.651 151.657 186.3C150.323 184.516 149.606 182.454 149.229 180.201C148.911 178.307 148.63 176.198 147.167 174.922C145.729 173.667 144.671 173.493 142.95 173.75C140.608 174.101 138.277 174.701 135.969 175.243C130.802 176.459 125.673 177.866 120.593 179.46C110.638 182.584 100.873 186.433 91.3779 190.968C88.9913 192.106 86.6217 193.292 84.2709 194.517C84.1873 194.56 84.1514 194.629 84.1446 194.701C84.1292 194.733 84.119 194.768 84.1156 194.809C84.0848 195.2 84.078 195.59 84.0951 195.982C84.1002 196.072 84.1343 196.14 84.1856 196.185C84.1873 196.188 84.1873 196.192 84.1873 196.196C86.9648 203 89.8022 209.774 92.7044 216.513C94.9715 221.778 97.3035 227.022 100.091 231.984C105.293 241.243 112.327 249.576 122.155 252.563C128.075 254.36 134.317 254.454 140.411 254.801C147.189 255.186 153.965 255.557 160.742 255.902C174.381 256.594 188.025 257.178 201.675 257.534C207.43 257.686 213.187 257.793 218.943 257.853C221.188 260.284 223.561 262.562 225.746 264.762C233.831 272.908 254.084 298.554 258.425 302.572C262.893 306.703 266.983 311.17 270.698 316.119C272.603 318.657 274.423 321.272 276.21 323.91C277.042 325.138 277.868 326.371 278.691 327.607C278.887 327.9 279.075 328.389 279.391 328.556C279.869 328.808 280.851 328.718 281.399 328.77C294.863 330.057 308.488 328.727 321.55 324.94C321.751 324.881 321.783 324.626 321.662 324.471Z" fill="#92494C"/>
<path d="M165.445 121.88C164.875 120.889 163.989 120.131 163.405 119.135C162.446 117.499 162.003 115.588 161.542 113.732C161.14 112.108 160.737 110.434 159.946 108.975C159.081 107.375 157.853 106.47 156.365 105.645C154.517 104.621 153.165 103.366 152.122 101.381C151.267 99.7545 150.669 97.9911 149.988 96.2745C148.341 92.1193 145.883 89.1459 142.144 87.1592C140.343 86.2025 138.441 85.499 136.52 84.8968C134.153 84.1521 131.749 83.4542 129.268 83.563C128.966 83.5743 128.944 84.047 129.2 84.1108C129.178 84.2158 129.203 84.3359 129.306 84.4147C131.506 86.0956 131.984 88.4968 132.266 91.2676C132.49 93.4644 132.894 95.6273 133.475 97.7416C134.699 102.214 136.623 106.418 138.781 110.423C140.942 114.436 143.243 118.46 145.838 122.153C147.013 123.823 148.308 125.534 149.84 126.828C151.455 128.192 152.651 127.573 154.362 126.781C156.498 125.789 158.703 124.975 160.952 124.346C162.007 124.05 163.069 123.806 164.139 123.585C164.598 123.487 165.394 123.414 165.623 122.838C165.773 122.461 165.626 122.191 165.445 121.88Z" fill="#D892C0"/>
<path d="M256.873 332.834L256.815 328.628C256.776 325.827 256.735 323.024 256.695 320.222C256.379 297.802 256.067 282.126 255.751 259.709C255.603 249.164 255.575 238.602 255.242 228.059C254.957 218.981 254.307 209.834 252.281 201.002C251.306 196.755 250.001 192.594 248.27 188.647C246.597 184.83 244.513 180.481 241.553 177.675C238.429 174.711 233.479 174.619 229.567 174.268C224.587 173.823 219.58 173.874 214.595 174.174C204.765 174.765 194.93 176.024 185.158 177.309C175.703 178.551 152.081 184.278 150.082 184.976C149.77 185.087 149.903 185.629 150.219 185.518C152.284 184.796 150.191 188.54 152.284 187.929C154.825 191.495 158.625 195.057 162.123 197.479C166.672 200.633 175.113 197.44 180.386 198.398C185.602 199.348 191.3 199.892 195.776 203.293C200.649 206.994 202.605 213.434 203.279 219.64C204.027 226.54 203.365 233.588 204.862 240.392C206.265 246.781 209.407 252.518 210.794 258.913C213.589 271.795 205.716 278.11 209.873 290.788C212.116 297.624 216.957 302.938 217.965 310.33C219.079 318.511 216.566 326.739 214.193 334.38C214.135 334.567 214.287 334.717 214.439 334.732C224.513 335.897 234.628 336.552 244.757 336.668C247.287 336.694 249.819 336.689 252.352 336.653C253.641 336.634 255.782 336.942 256.589 335.477C257.008 334.71 256.883 333.674 256.873 332.834Z" fill="#92494C"/>
<path d="M155.528 184.876C154.909 183.55 153.456 182.374 152.531 181.306C150.241 178.667 147.894 178.297 145.605 175.658C144.548 174.439 143.491 173.221 142.434 172.002C141.7 171.156 140.939 170.12 139.894 169.756C137.859 169.047 135.57 171.76 134.093 172.941C131.421 175.076 128.75 177.213 126.078 179.348C120.871 183.509 115.664 187.672 110.457 191.832C101.186 199.244 90.5277 206.919 86.4936 219.501C86.4577 219.614 86.4885 219.707 86.5448 219.775C86.0583 219.42 85.5512 219.09 85.0015 218.811C84.7011 218.659 84.5321 219.201 84.8291 219.351C90.6215 222.289 92.4772 229.931 96.1426 235.18C100.387 241.257 106.619 244.98 112.598 248.517C112.735 248.597 112.931 248.569 112.982 248.376C114.542 242.602 116.137 236.784 118.621 231.408C119.836 228.774 121.267 226.258 122.988 224C124.821 221.593 127.01 219.638 129.217 217.685C131.174 215.952 133.134 214.186 134.726 212.02C136.398 209.746 137.495 207.069 138.66 204.454C141.12 198.927 144.638 192.138 149.744 189.549C150.895 188.966 152.085 188.591 153.283 188.163C154.045 187.893 154.943 187.516 155.429 186.76C155.812 186.169 155.827 185.516 155.528 184.876Z" fill="#F7E8E1"/>
<path d="M92.31 202.842C94.8862 201.69 97.4691 200.689 100.079 199.843C97.4708 200.781 94.8793 201.781 92.31 202.842ZM153.318 165.169C151.421 157.255 147.098 146.109 145.666 138.033C144.227 129.925 143.225 121.733 141.717 113.638C140.558 110.824 139.65 108.539 139.262 107.294C136.558 98.6362 140.096 90.9992 132.791 85.8872C129.361 83.4859 125.605 81.9795 121.679 81.0472C121.675 81.0472 121.67 81.0472 121.67 81.0472C120.837 80.8483 119.992 80.6757 119.149 80.5257C118.882 80.4769 118.612 80.4431 118.344 80.4019C118.204 80.6626 118.034 80.9009 117.824 81.1016C117.812 81.1128 117.793 81.1316 117.771 81.1522C116.607 82.2422 115.497 83.4897 114.09 84.1988C112.868 84.8104 111.596 84.786 110.59 84.0412C108.052 85.3206 105.433 86.3543 102.57 87.0709C97.9352 88.2284 92.8734 88.7405 88.6174 85.9772C88.5986 85.9641 88.5816 85.951 88.5628 85.936C87.7587 86.268 86.9563 86.6 86.1522 86.9302C83.1869 88.1477 80.2164 89.3746 77.2527 90.5958C74.0228 91.9203 70.5367 93.1153 67.8786 95.5597C65.3179 97.914 64.0204 101.285 63.2624 104.652C63.1856 104.994 63.1224 105.333 63.0559 105.673C59.0713 115.709 61.1985 127.603 63.1122 138.046C63.7985 141.783 64.4677 145.532 64.8364 149.327C65.1932 152.992 65.1113 156.609 64.9594 160.284C64.8143 163.845 66.5641 170.953 67.5833 174.369C68.5837 177.719 70.1338 180.837 71.0011 184.24C72.7816 191.224 72.261 198.548 71.4808 205.683C72.2063 206.011 72.8397 206.57 73.3518 207.219C73.6899 207.652 74.0006 208.114 74.3096 208.573C74.4035 208.71 74.4974 208.847 74.5878 208.99C74.5964 209.001 74.5998 209.005 74.6083 209.016C74.6442 209.065 74.68 209.116 74.7176 209.162C74.779 209.243 74.8285 209.329 74.8798 209.414C77.3108 209.421 79.7264 208.776 82.055 207.881C85.8654 206.42 89.5461 204.557 93.3309 203.017C98.1178 201.066 102.975 199.338 107.886 197.822C110.06 197.398 112.265 197.083 114.519 196.886C118.93 196.5 122.892 195.762 127.007 193.907C130.843 192.177 134.537 190.071 138.414 188.441C143.88 186.142 149.748 185.734 155.54 184.944C155.016 178.275 154.897 171.756 153.318 165.169Z" fill="#D892C0"/>
<path d="M105.49 88.3055C103.17 88.842 100.696 88.9827 98.7926 89.1159C95.6548 89.3372 88.0101 89.2772 86.6512 85.0356L84.7562 85.5928C82.5437 86.2438 80.3363 86.8966 78.1221 87.5494C69.9823 89.9525 55.625 96.132 49.1701 100.685C49.1121 100.616 48.5419 101.137 48.4531 101.206C48.9124 102.049 51.2 110.164 51.1914 111.958C51.1744 115.683 51.7702 119.062 52.7398 122.621C53.7607 126.358 54.6024 129.939 54.5085 133.876C54.4265 137.358 54.1056 140.844 55.4218 144.117C55.4628 144.22 55.6147 144.288 55.7103 144.249C59.3466 142.69 63.2407 143.858 66.8975 142.472C68.4049 141.904 69.8218 141.093 71.2764 140.386C73.1696 139.465 75.0373 138.926 77.1098 138.782C78.7453 138.668 80.5941 138.874 82.1835 138.381C83.481 137.975 83.6568 136.506 84.0392 135.257C84.5104 133.715 84.9594 132.166 85.3964 130.61C87.3716 130.565 89.3212 130.261 91.1769 129.327C97.0291 126.389 99.9672 119.156 101.859 112.817C103.581 107.031 104.879 100.994 105.34 94.8995C105.381 94.3704 105.411 93.8358 105.437 93.3068C105.488 92.3125 105.514 91.3183 105.519 90.324C105.519 89.6468 105.507 88.9733 105.49 88.3055Z" fill="#D892C0"/>
<path d="M104.763 130.051C102.484 126.241 88.7721 118.122 85.8511 115.91C82.3207 113.237 70.9372 115.668 66.8537 115.301C65.8789 119.807 65.237 122.099 63.7773 126.414C66.3484 126.117 78.5956 122.846 79.0156 122.677C79.6933 123.69 81.5593 126.082 82.7236 126.639C85.0061 127.733 91.944 129.851 92.714 129.959C97.6972 132.209 97.0417 133.974 97.057 138.234C97.0604 139.219 96.6507 141.204 98.0489 141.288C98.3152 141.303 98.5372 141.249 98.7284 141.146C98.6789 142.738 98.9605 145.663 101.007 145.417C102.407 145.25 102.8 143.245 102.948 141.596C104.092 139.93 105.514 138.249 105.835 136.148C106.151 134.073 105.817 131.813 104.763 130.051Z" fill="#E37D67"/>
<path d="M100.943 79.6477C100.617 79.6534 100.576 80.188 100.907 80.1805H100.979C100.969 80.4056 100.943 80.6382 100.907 80.8559C100.377 81.0735 99.8388 81.2948 99.3078 81.5124C97.9267 81.7882 96.5883 82.0415 95.3728 82.4748C93.9302 82.895 92.4945 83.3171 91.0588 83.7392C88.9572 84.3564 86.8574 84.9736 84.7559 85.5927C85.2014 86.0579 85.6709 86.5044 86.1523 86.9302C91.4002 91.5601 98.5003 93.8863 105.17 93.3367C105.257 93.331 105.35 93.3198 105.437 93.3066C112.153 92.6275 116.829 87.0822 119.149 80.5257C113.196 79.4733 106.949 79.5389 100.943 79.6477Z" fill="#E37D67"/>
<path d="M129.169 81.1317C127.996 79.4133 126.564 77.92 124.959 76.6988C123.264 75.4081 121.371 74.4289 119.384 73.8286C118.759 73.6391 118.074 73.3464 117.502 73.8023C116.785 74.3801 116.415 75.9015 116.036 76.7401C113.197 82.9758 110.356 89.2115 107.519 95.4472C107.514 95.4603 107.514 95.4697 107.51 95.4828C102.967 86.8046 96.9377 79.1056 89.759 72.93C88.0723 71.4799 86.1688 69.5101 83.9631 69.1855C81.7899 68.8704 79.3486 69.8084 77.3803 70.7276C72.8255 72.8531 69.0851 76.5375 65.78 80.5089C62.055 84.9868 57.7256 89.7086 58.0943 96.2351C58.1028 96.3664 58.1694 96.4621 58.2821 96.5071C66.2 99.4692 74.9305 96.1582 82.7374 99.533C84.4907 100.289 86.1125 101.769 88.0279 102.009C89.9963 102.257 91.8315 100.978 93.5558 100.13C97.9569 97.961 102.641 96.1863 107.529 96.8541C107.532 96.8541 107.534 96.8541 107.538 96.8541C107.541 96.9086 107.555 96.9667 107.596 97.0192C107.672 97.1187 107.754 97.2031 107.84 97.2819C107.906 97.4094 107.971 97.537 108.036 97.6683C108.142 97.8841 108.376 97.8203 108.468 97.6589C109.584 98.0735 111.039 97.492 112.092 97.1712C114.139 96.5427 116.14 95.7229 118.066 94.7343C122.066 92.6764 126.072 89.8174 129.079 86.2212C130.521 84.4972 130.419 82.9608 129.169 81.1317Z" fill="#D892C0"/>
<path d="M55.3361 118.507C54.6891 116.207 54.0404 113.905 53.3933 111.603C52.3264 107.812 48.3367 100.951 48.4579 101.212C42.027 105.455 35.2956 109.431 29.3683 114.509C25.1976 118.081 19.3864 124.024 21.4555 130.592C22.4559 133.764 25.3069 134.582 28.0828 134.471C31.8488 134.321 35.6865 133.437 39.3928 132.74C43.2698 132.006 47.1707 131.244 50.9931 130.209C53.3933 129.558 56.7787 128.487 56.8931 125.208C56.9716 122.985 55.9217 120.591 55.3361 118.507Z" fill="#E37D67"/>
<path d="M172.053 154.02C171.251 149.933 169.534 146.13 167.924 142.369C166.305 138.591 164.632 134.82 162.527 131.331C157.855 123.585 150.98 118.859 143.219 115.539C142.912 115.407 142.779 115.949 143.083 116.081C143.161 116.115 143.24 116.148 143.32 116.184C143.262 116.186 143.206 116.208 143.156 116.272C142.212 117.505 141.266 118.733 140.324 119.962C140.315 119.943 140.307 119.925 140.298 119.906C140.157 119.581 139.716 119.865 139.858 120.189C139.9 120.289 139.945 120.386 139.986 120.486C139.977 120.598 140.029 120.703 140.109 120.763C143.34 128.164 146.599 135.566 150.422 142.624C152.37 146.222 154.463 149.724 156.764 153.06C158.93 156.202 161.256 159.547 164.028 162.076C166.024 163.897 169.119 165.314 171.147 162.727C172.97 160.402 172.595 156.776 172.053 154.02Z" fill="#E37D67"/>
<path d="M120.934 27.4699C119.917 24.2751 117.153 23.1326 114.3 22.7499C115.388 20.9396 115.777 18.5984 114.585 16.7562C112.848 14.0717 109.08 15.67 106.674 17.2533C107.151 15.7638 106.398 13.9404 104.998 13.2031C102.065 11.6592 98.9084 14.2274 96.6874 16.1203C95.9619 16.7412 95.2636 17.394 94.5944 18.0863C94.2854 18.4052 93.9713 18.9061 93.6162 19.1518C93.1433 19.4764 93.6981 19.4726 92.7302 19.2963C91.5761 19.0899 92.3734 19.3113 91.9363 18.8779C91.1613 18.1069 90.6491 17.6736 89.5224 17.7655C86.9463 17.9756 84.5767 20.3393 83.1119 22.5117C81.7223 24.5715 80.8755 26.9877 80.6229 29.5015C77.4817 28.5917 75.1855 32.0641 75.0455 35.272C74.9602 37.2511 75.3033 39.5773 76.5291 41.1119C77.1027 41.8285 77.8914 42.2994 78.4531 43.0253C79.4313 44.2935 79.1274 45.8074 79.095 47.3213C79.013 51.3715 82.2737 52.8948 84.2131 55.7819C85.3432 57.4609 85.1179 59.4982 86.6099 60.9202C88.5869 62.798 90.2906 64.6927 91.6683 67.1615C91.7861 67.3735 92.0473 67.3547 92.1378 67.1277C92.9982 64.9385 93.1843 62.5054 92.5321 60.2129C92.1753 58.9654 91.5471 57.8398 91.1903 56.5923C90.6969 54.8702 91.2518 53.724 91.921 52.2119C92.8616 50.0902 92.44 47.644 92.3 45.3778C92.1497 42.9297 91.9995 40.4797 91.8493 38.0315C93.5121 38.8194 95.3422 39.1046 97.1279 38.4593C98.188 38.0784 99.1645 37.4031 99.8901 36.4651C100.088 36.21 100.261 35.9417 100.414 35.6528C100.706 35.0994 100.568 35.0844 101.312 34.9962C102.19 34.8874 102.857 35.4389 103.68 35.7804C106.464 36.9378 109.563 37.1949 112.475 36.5101C113.507 36.2662 117.093 35.1538 116.62 33.4335C117.733 33.7825 118.942 33.5011 119.876 32.6588C121.261 31.4056 121.505 29.2539 120.934 27.4699Z" fill="#964E38"/>
<path d="M150.388 184.615C145.197 181.01 140.005 177.404 134.816 173.799C130.374 170.713 125.836 166.98 120.528 166.019C115.205 165.057 109.91 166.796 104.868 168.505C99.1732 170.437 93.5822 171.906 87.6003 172.187C81.0413 172.497 74.4874 171.808 67.9677 171.095C67.8875 170.852 67.809 170.608 67.727 170.366C67.6161 170.028 67.1227 170.174 67.2354 170.514C67.2968 170.703 67.36 170.893 67.4214 171.082C67.2422 171.193 67.2866 171.583 67.5563 171.611C67.57 171.613 67.5836 171.615 67.599 171.617C69.0518 176.029 70.4653 180.473 71.377 185.064C72.4422 190.429 72.4644 195.571 71.7799 200.985C71.2336 205.305 71.0014 209.545 72.9151 213.513C74.5916 216.985 77.3828 219.711 80.4062 221.73C84.7544 224.634 89.6847 226.253 94.3043 228.526C94.4392 228.592 94.569 228.562 94.6543 228.425C100.02 219.863 105.553 211.055 113.437 205.05C117.206 202.176 121.215 200.48 125.604 199.135C127.541 198.543 129.315 197.745 130.928 196.398C132.729 194.896 134.274 193.061 136.122 191.617C140.347 188.317 145.41 186.7 150.327 185.128C150.542 185.06 150.575 184.745 150.388 184.615Z" fill="#D892C0"/>
<path d="M130.168 85.2889C130.067 85.2026 129.968 85.1313 129.835 85.1407C124.224 85.5309 118.604 85.5553 112.99 85.2176C112.791 85.2064 112.731 85.3171 112.687 85.4821C112.661 85.5722 112.647 85.726 112.663 85.8405C114.29 98.0117 116.109 110.149 118.119 122.251C118.138 122.369 118.261 122.461 118.365 122.457C120.393 122.394 122.421 122.33 124.449 122.266C125.379 122.236 126.31 122.206 127.239 122.178C127.571 122.167 128.23 122.268 128.521 121.972C128.768 121.718 128.748 121.163 128.778 120.85C128.886 119.771 128.978 118.689 129.062 117.608C129.222 115.533 129.345 113.455 129.446 111.374C129.866 102.814 130.084 94.2373 130.385 85.6679C130.392 85.4634 130.282 85.3884 130.168 85.2889Z" fill="white"/>
<path d="M150.571 120.041C150.327 119.234 144.79 115.242 144.222 114.764C143.087 113.813 141.951 112.864 140.816 111.912C136.425 108.239 132.033 104.564 127.642 100.889C125.53 98.9346 122.973 97.1993 120.245 97.6777C118.455 97.9928 116.779 99.0753 115.26 100.109C114.225 100.811 112.96 101.803 112.741 103.232C112.641 103.902 112.834 104.863 113.595 104.887C114.092 104.906 114.573 104.317 114.882 103.988C115.765 103.058 116.526 102.195 117.714 101.718C119.758 100.895 122.01 101.317 123.862 102.497C124.941 103.182 125.82 104.152 126.87 104.831C126.868 104.857 126.867 104.885 126.865 104.913C125.422 105.129 123.925 104.883 122.472 105.058C121.047 105.227 119.647 105.611 118.303 106.157C116.898 106.733 113.378 107.93 113.902 110.258C114.008 110.731 114.196 111.023 114.433 111.181C113.38 112.387 114.812 114.216 116.654 113.779C118.578 113.323 120.4 112.438 122.353 112.029C123.684 111.751 125.026 111.588 126.375 111.505C126.267 112.387 126.146 113.267 126.016 114.143C125.979 114.147 125.941 114.158 125.902 114.182C124.859 114.848 123.077 114.344 121.918 114.404C121.05 114.447 120.181 114.561 119.353 114.865C118.652 115.122 116.63 115.996 116.948 117.13C117.276 118.313 120.209 117.97 120.96 118.009C122.892 118.109 124.825 118.118 126.757 118.051C132.509 119.64 138.192 121.502 143.79 123.662C143.932 123.716 144.054 123.598 144.104 123.467C144.596 122.133 145.058 120.786 145.475 119.422C145.724 118.612 150.835 120.925 150.571 120.041Z" fill="#E37D67"/>
<path d="M86.9579 57.6408C88.1854 60.8656 91.1098 62.9648 94.2527 63.1055C94.4183 63.113 94.5378 62.8991 94.4849 62.7397C93.4674 59.6031 92.2519 56.5621 90.8503 53.6112C91.021 53.5174 91.091 53.221 90.8674 53.1141C89.6655 52.5438 88.0352 52.2999 87.0757 53.5268C86.1829 54.6674 86.4782 56.3783 86.9579 57.6408Z" fill="#E37D67"/>
<path d="M89.5525 54.8982C90.5359 55.81 91.1146 58.5376 92.7262 58.093C93.0437 58.0048 93.2025 58.5395 92.8832 58.6277C90.8432 59.1923 90.4061 56.4253 89.2111 55.3147C88.9602 55.0821 89.2999 54.6637 89.5525 54.8982Z" fill="#B95547"/>
<path d="M123.842 67.9774C123.309 66.1446 122.659 64.3474 122.064 62.539C121.967 62.2389 121.522 62.4152 121.585 62.721C121.953 64.4562 119.48 65.7994 119.482 67.4803C119.485 70.7332 116.12 72.5191 115.181 72.8493C114.196 73.1964 113.173 73.4721 112.136 73.504C109.995 73.5734 108.542 72.3878 106.937 71.0052C106.268 70.4312 105.575 69.8553 104.776 69.512C103.929 69.1518 102.997 69.2456 102.152 68.906C99.8063 67.9643 99.7158 64.5594 98.9015 62.4039C97.418 58.47 95.3915 56.2001 93.698 52.4032C91.6562 47.8277 92.264 42.3836 91.8099 37.568C91.7928 37.3842 91.6528 37.3242 91.5248 37.3598C91.4906 37.1422 91.2038 37.0034 91.0621 37.2398C89.8176 39.3183 88.2709 41.8903 87.8646 44.3853C87.6819 45.5034 87.9278 46.5258 88.288 47.5688C88.8821 49.2909 89.4625 51.0018 89.9166 52.7784C90.2871 54.2247 90.5961 55.6899 90.8436 57.17C91.0963 58.682 91.1714 60.2578 91.5384 61.7474C92.1803 64.3549 94.2648 66.0189 95.5025 68.2607C97.6877 72.2171 98.8827 77.9501 103.4 79.5559C104.204 79.841 105.023 79.8842 105.86 79.8185C106.732 79.7454 107.584 79.5803 108.453 79.7566C109.172 79.9011 109.792 80.2537 110.461 80.5652C112.537 81.5238 114.63 81.5482 116.714 80.6177C118.071 80.0136 119.401 79.2933 120.721 78.5991C121.716 78.072 122.713 77.4717 123.376 76.4699C124.649 74.5396 124.42 71.9545 124.186 69.724C124.178 69.6508 124.147 69.6001 124.11 69.5626C124.079 69.0411 123.999 68.5177 123.842 67.9774Z" fill="#964E38"/>
<path d="M121.509 70.0261C121.344 68.5985 121.24 66.8614 120.164 65.854C118.568 64.3551 115.418 64.4564 113.458 64.0755C112.815 63.9499 112.538 65.0342 113.185 65.1599C115.29 65.5688 117.917 65.5238 119.369 67.3003C120.999 69.2982 120.784 72.6224 120.915 75.2582C121.147 79.8149 121.05 84.3829 120.953 88.9415C120.937 89.6656 121.96 89.6656 121.975 88.9415C122.109 82.6363 122.237 76.3012 121.509 70.0261Z" fill="white"/>
<path d="M123.541 42.4661C123.401 41.9446 123.263 41.5225 122.944 41.2036C122.928 41.1436 122.897 41.0873 122.838 41.0479C121.392 40.0593 118.986 40.6783 117.481 41.0873C116.521 41.348 115.586 41.7101 114.672 42.1322C113.86 42.5055 112.849 42.8488 112.199 43.5523C111.511 44.2952 111.533 45.4527 111.727 46.5445C110.469 46.3456 109.037 46.9084 108.03 47.8145C107.77 46.6626 107.323 45.492 106.319 45.1544C105.435 44.8561 104.368 45.0625 103.468 45.1412C102.457 45.2257 101.45 45.3776 100.463 45.629C98.9133 46.0267 96.4533 46.6945 95.528 48.3079C95.4904 48.3754 95.4836 48.4392 95.4939 48.5011C95.4392 48.6512 95.4153 48.7994 95.4017 48.9532C92.1171 48.2553 88.8051 47.7432 85.4676 47.4468C85.1398 47.4168 85.104 47.9777 85.4318 48.0077C88.783 48.306 92.1085 48.8181 95.4085 49.5235C95.4222 49.6548 95.4409 49.7899 95.4631 49.9306C95.6509 51.1068 95.9343 52.3055 96.3065 53.4293C96.8767 55.1476 97.819 56.7929 99.2514 57.6783C100.885 58.6913 102.654 58.2242 104.306 57.6633C105.873 57.1305 107.311 56.6109 108.047 54.7781C108.771 52.9753 108.561 50.7935 108.235 48.8763C108.211 48.7356 108.183 48.5893 108.158 48.4411C109.098 47.4899 110.607 46.8465 111.85 47.141C111.903 47.3774 111.961 47.61 112.016 47.8257C112.497 49.7017 113.184 51.7578 114.532 53.0147C115.901 54.2903 117.359 54.0483 118.935 53.7482C120.594 53.4368 122.319 52.9828 123.336 51.2719C124.227 49.7711 124.391 47.8314 124.203 46.0136C124.079 44.8261 123.848 43.6142 123.541 42.4661Z" fill="#2F1516"/>
<path d="M207.703 235.711C206.799 232.71 206.411 229.815 206.812 226.667C207.131 224.176 207.732 221.728 207.908 219.214C208.243 214.381 206.367 210.018 203.159 206.772C199.697 203.268 195.157 201.405 190.736 199.895C185.058 197.957 179.212 196.684 173.299 196.033C172.973 195.995 172.974 196.558 173.299 196.593C178.278 197.143 183.209 198.139 188.033 199.608C192.538 200.981 197.213 202.589 201.054 205.613C204.786 208.556 207.55 213.04 207.444 218.231C207.345 223.084 205.499 227.661 206.379 232.554C207.367 238.043 210.978 243.785 208.507 249.415C208.364 249.741 208.804 250.027 208.948 249.7C210.981 245.067 209.061 240.21 207.703 235.711Z" fill="#2F1516"/>
<path d="M254.991 248.335C254.979 247.972 254.467 247.972 254.479 248.335C254.901 260.069 254.404 271.814 252.999 283.454C252.954 283.809 253.467 283.807 253.509 283.454C254.914 271.814 255.409 260.069 254.991 248.335Z" fill="#2F1516"/>
<path d="M125.998 244.652C123.765 240.118 121.363 235.679 118.772 231.38C115.904 226.62 112.807 222.024 109.439 217.631C102.002 207.932 93.3588 199.627 83.6569 192.776C73.8133 185.826 63.304 180.072 53.5833 172.908C46.5105 167.693 38.975 161.271 34.043 153.236C34.34 157.444 35.197 161.68 36.124 165.62C36.1633 165.794 36.2043 165.974 36.2469 166.149C38.0087 167.873 39.8337 169.497 41.6587 171.026C50.9662 178.813 61.4141 184.708 71.437 191.277C81.5571 197.907 90.8953 205.521 98.9447 215.034C106.547 224.001 112.955 234.117 118.393 244.804C118.854 245.697 119.303 246.597 119.743 247.502C119.759 247.534 119.774 247.562 119.789 247.595C121.686 251.469 123.455 255.407 125.119 259.397C127.624 259.363 130.114 259.335 132.571 259.301C130.543 254.328 128.366 249.434 125.998 244.652Z" fill="#E6B28B"/>
<path d="M93.4149 358.915C92.4845 352.409 91.1871 345.93 90.062 339.446C87.7403 326.09 85.4202 307.394 83.1002 294.039C81.9922 287.655 81.055 281.222 79.7268 274.878C78.6735 269.863 76.8604 264.824 72.5054 261.549C72.4286 261.493 72.3518 261.436 72.275 261.386C72.1111 261.254 71.9421 261.138 71.7696 261.026C68.007 258.493 63.355 257.459 58.8429 256.923C57.8305 256.806 56.3641 256.716 54.6211 256.649C53.5933 256.61 52.4734 256.578 51.2921 256.553C42.0716 256.364 29.1415 256.593 29.1517 256.683C27.5162 256.66 25.8551 256.698 24.1889 256.821C23.2944 256.885 22.3998 256.973 21.5104 257.086C17.3193 257.632 13.2442 258.772 9.80598 260.808C9.62673 260.909 9.44748 261.014 9.26822 261.134C6.46163 262.898 4.11767 265.303 2.51805 268.516C0.00167221 273.579 1.00378 278.93 2.26027 284.171C3.00289 287.252 3.75405 290.347 3.73868 293.525C3.71819 296.729 3.10532 299.903 3.34432 303.109C3.7899 309.08 6.46163 314.599 8.51707 320.178C10.7159 326.161 11.9109 332.383 12.6826 338.666C13.4389 344.868 13.8486 351.106 14.6305 357.308C15.0043 360.281 15.4636 363.245 16.0884 366.177C16.6244 368.676 17.0529 371.627 18.6884 373.733C20.0388 375.476 22.1694 376.172 24.3665 376.328C27.465 376.542 68.1607 377.532 74.9877 376.637C80.0392 375.975 86.0604 375.707 90.0979 372.358C94.1456 369 94.079 363.57 93.4149 358.915Z" fill="#32436D"/>
<path d="M52.8647 260.53C50.6778 252.766 46.263 243.613 37.7767 243.47C33.9816 243.406 30.8216 244.603 28.0304 247.207C25.3296 249.73 23.421 254.865 23.4995 258.712C23.2435 258.724 22.9891 258.733 22.7296 258.763C22.4069 258.799 22.4035 259.36 22.7296 259.324C22.9959 259.296 23.2588 259.285 23.52 259.273C23.532 259.461 23.5422 259.65 23.561 259.838C23.5968 260.194 24.1073 260.196 24.0714 259.838C24.0527 259.645 24.0424 259.453 24.0305 259.26C25.0155 259.256 25.9886 259.376 26.9719 259.635C27.1358 259.68 27.2929 259.551 27.2963 259.365C27.38 255.433 27.7146 251.092 30.6543 248.381C33.4968 245.761 37.5103 245.451 40.8479 247.014C44.211 248.586 46.8179 251.764 48.1938 255.454C49.0116 257.649 49.7064 261.626 52.6854 260.877C52.8169 260.842 52.9039 260.669 52.8647 260.53Z" fill="#32436D"/>
<path d="M70.8571 360.058C70.502 352.668 68.2349 332.534 66.7496 325.33C66.4987 324.114 64.194 320.368 60.8053 320.539L29.5588 321.46C27.5222 321.563 25.4753 321.512 23.4488 321.765C17.5301 322.505 16.5143 324.039 15.9202 325.529C14.7696 328.421 15.7 332.016 16.1114 334.982C17.1289 342.315 17.921 349.738 19.198 357.02C19.6862 359.799 20.5432 362.598 22.597 364.451C24.41 366.087 26.7556 366.747 29.0347 367.072C32.0684 367.502 35.1686 367.515 38.221 367.605C41.7344 367.708 45.2495 367.738 48.7646 367.691C52.015 367.65 62.5039 367.254 65.7458 366.989C68.5422 366.761 71.0261 363.6 70.8571 360.058Z" fill="#D892C0"/>
<path d="M72.2743 261.386C70.5825 262.2 68.8856 263.014 67.2143 263.884C64.9454 265.061 63.0027 266.616 62.0723 269.276C61.3006 271.471 61.1982 273.887 61.1828 276.219C61.1675 279.046 61.2084 281.879 61.2238 284.704C61.2392 287.835 62.0364 292.741 58.4377 293.8C56.5 294.374 54.3541 294.489 52.3601 294.746C50.035 295.05 47.6996 295.309 45.3624 295.526C36.1539 296.399 26.7645 296.819 17.5286 296.19C14.3191 295.973 11.3845 294.887 10.198 291.307C9.60051 289.497 9.48271 287.531 9.33931 285.632C9.14469 283.064 9.00641 280.496 8.92105 277.924C8.75204 272.882 8.64449 267.723 9.06275 262.695C9.11055 262.16 9.17542 261.639 9.26761 261.134C9.44686 261.014 9.62611 260.909 9.80537 260.808C9.37516 263.053 9.42125 265.455 9.37004 267.719C9.25736 272.96 9.36492 278.204 9.69781 283.428C9.95389 287.497 9.84122 293.195 14.0016 294.932C15.6678 295.624 17.4979 295.646 19.2495 295.712C21.4278 295.791 23.6045 295.836 25.7828 295.847C34.4109 295.883 43.0424 295.359 51.6141 294.279C53.7617 294.011 56.0254 293.887 58.127 293.315C60.6468 292.622 60.7373 290.122 60.7287 287.722C60.7134 283.316 60.5239 278.872 60.7134 274.471C60.8499 271.219 61.4748 267.785 63.7999 265.539C65.0428 264.335 66.569 263.582 68.0679 262.847C69.3004 262.234 70.5313 261.631 71.769 261.025C71.9415 261.138 72.1105 261.254 72.2743 261.386Z" fill="#2F1516"/>
<path d="M23.2379 300.888C23.2328 299.038 23.197 297.192 23.1253 295.343C22.987 291.598 22.6609 287.88 22.3485 284.143C22.0514 280.631 22.1744 277.243 22.6097 273.748C23.0689 270.085 23.2379 266.59 23.197 262.903C23.1765 260.784 23.3096 258.667 24.1888 256.822C23.2943 256.885 22.3997 256.973 21.5103 257.086C17.7528 262.864 17.4865 270.54 17.4984 277.41C17.5138 284.94 18.1727 292.45 18.9905 299.916C19.2107 301.922 19.4395 303.927 19.6751 305.929C19.8236 307.199 19.926 307.289 21.0237 307.277C21.5768 307.27 22.7821 307.495 23.1457 306.985C23.325 306.732 23.1816 305.704 23.1918 305.326C23.2072 304.771 23.2174 304.214 23.2226 303.664C23.2379 302.736 23.2431 301.815 23.2379 300.888Z" fill="#D892C0"/>
<path d="M54.621 256.649C53.5933 256.61 52.4734 256.578 51.292 256.553C47.0343 261.943 45.252 269.015 46.0544 276.168C46.3139 278.496 46.7134 280.798 46.908 283.138C47.118 285.694 47.147 288.263 47.1829 290.829L47.3826 305.902C47.3826 306.058 47.4953 306.171 47.6387 306.182C48.9925 306.298 50.2916 306.157 51.5993 305.765C51.7069 305.732 51.7939 305.615 51.7888 305.493C51.345 296.714 50.8738 287.931 50.4538 279.147C50.0919 271.448 50.138 262.948 54.621 256.649Z" fill="#D892C0"/>
<path d="M98.9316 350.695C98.6208 345.42 98.1582 340.156 97.547 334.914C97.2261 332.179 96.8659 329.448 96.4664 326.724C96.0737 324.058 95.8723 321.103 95.0904 318.539C94.4673 316.494 92.8438 316.792 91.1946 316.92C90.2164 316.993 89.2382 317.066 88.26 317.139C87.0052 317.066 85.7487 317.059 84.4906 317.149C82.6092 317.28 80.4736 317.434 78.7254 318.256C75.3008 319.869 75.521 324.645 75.7686 328.05C76.1356 333.123 76.9346 338.18 77.5594 343.225C78.2081 348.472 78.8159 353.732 79.5107 358.975C79.7241 360.591 80.0468 362.44 81.2691 363.526C82.5888 364.703 84.482 364.451 86.0577 364.337C88.1576 364.183 90.2506 363.885 92.318 363.446C94.0473 363.076 96.3759 362.832 97.7707 361.519C98.7967 360.555 99.1176 359.082 99.1928 357.655C99.3157 355.355 99.0681 352.991 98.9316 350.695Z" fill="#D892C0"/>
<path d="M69.9696 103.563C69.1126 98.4301 67.0452 93.6238 63.9962 89.6337C64.1754 89.4629 64.0389 89.0596 63.7606 89.1497C63.7213 89.1647 63.6804 89.1778 63.6411 89.1891C63.5079 89.0765 63.3457 89.1609 63.2809 89.3091C60.1738 90.324 57.036 91.4008 54.2345 93.2243C51.2726 95.1546 49.4596 98.0455 47.1207 100.711C44.77 103.392 41.9224 104.176 38.7436 105.026C36.2597 105.69 33.786 106.544 32.2461 108.939C32.1454 109.095 32.2547 109.303 32.3998 109.354C36.934 110.937 40.8947 114.19 43.4828 118.597C44.5907 120.48 45.5689 121.444 47.7285 121.212C50.3063 120.934 52.879 120.444 55.4449 120.058C58.2959 119.627 61.1469 119.197 63.9979 118.767C65.758 118.501 68.0985 118.574 69.1945 116.743C70.1847 115.089 70.2752 112.629 70.3776 110.703C70.5074 108.318 70.3639 105.915 69.9696 103.563Z" fill="#D892C0"/>
<path d="M81.7183 114.698C73.5529 114.82 65.3892 115.154 57.2357 115.689C55.94 115.668 54.6425 115.651 53.3468 115.633C48.0767 115.559 42.764 115.267 37.4956 115.488C33.6494 115.651 29.5624 116.49 26.5543 119.279C26.2897 119.424 22.5391 125.072 22.242 125.759C21.4584 127.564 22.1874 131.505 22.2796 131.488C23.4165 134.872 27.1109 135.803 30.2401 135.724C34.7368 135.61 39.3087 134.146 43.6637 133.021C48.2372 131.841 52.7783 130.516 57.2818 129.053C62.4067 127.385 67.4839 125.538 72.5013 123.512C73.7168 123.024 74.9323 122.525 76.1393 122.011C76.9502 121.664 77.8328 121.356 78.403 120.589C79.47 119.157 79.0671 117.004 79.4973 115.308C80.2365 115.295 80.9774 115.272 81.7183 115.259C82.0478 115.255 82.0495 114.693 81.7183 114.698Z" fill="#E37D67"/>
<path d="M103.784 97.8409C91.2007 92.5751 75.79 99.6887 64.41 90.2658C64.1471 90.05 63.891 90.5378 64.1522 90.7535C75.5937 100.223 91.0248 93.1004 103.648 98.3831C103.957 98.5125 104.09 97.9666 103.784 97.8409Z" fill="#2F1516"/>
<path d="M74.2463 129.128C71.9023 132.167 69.4816 135.13 66.9874 138.022C66.762 138.285 67.1223 138.683 67.3493 138.42C69.8418 135.527 72.2626 132.565 74.6082 129.526C74.8199 129.252 74.4597 128.853 74.2463 129.128Z" fill="#2F1516"/>
<path d="M79.6369 111.534C75.905 112.02 72.2346 111.173 68.5215 110.862C64.9245 110.556 61.8703 111.239 58.5157 112.624C56.8546 113.31 55.1389 114.025 53.3464 114.117C51.3166 114.22 49.5326 113.288 47.6035 112.785C45.6948 112.286 43.7828 112.404 41.9015 112.798C39.2827 110.954 36.3788 109.352 33.1915 109.977C31.5748 110.297 30.3063 111.22 29.2342 112.56C27.8446 114.299 26.5506 115.693 24.7153 116.884C23.2318 117.846 21.7056 118.773 20.5464 120.204C19.4521 121.553 18.7197 123.189 18.1359 124.866C17.0057 128.121 15.879 132.415 18.1444 135.424C19.2353 136.876 20.9049 137.435 22.5182 137.827C24.391 138.281 26.303 138.709 28.2253 138.821C30.1049 138.932 31.8855 138.647 33.6285 137.859C34.5726 137.431 35.474 136.97 36.4812 136.752C37.7138 136.484 38.9942 136.499 40.2438 136.463C44.7081 136.326 49.2406 136.43 53.6912 136.015C55.4343 135.848 57.039 135.342 58.596 134.462C60.4585 133.411 62.1879 132.173 64.2348 131.561C66.6555 130.837 69.1907 130.785 71.6815 130.663C72.2465 130.635 73.0267 130.723 73.462 130.222C73.9913 129.614 74.1125 128.309 74.3344 127.553C75.8965 122.238 77.7471 117.034 79.8588 111.956C79.9288 111.785 79.8503 111.506 79.6369 111.534Z" fill="#F7E8E1"/>
<path d="M171.108 139.626C170.087 136.968 168.923 134.379 167.745 131.803C167.122 130.438 166.494 129.078 165.862 127.717C165.352 126.618 164.903 125.022 164.105 124.134C163.474 123.433 162.581 123.761 161.779 123.737C160.203 123.692 158.687 123.146 157.296 122.358C154.786 120.936 152.737 118.795 150.588 116.826C148.804 115.194 146.858 113.533 144.615 112.755C143.66 112.425 143.29 112.875 143.199 113.588C143.181 113.635 143.169 113.687 143.177 113.747C143.181 113.762 143.181 113.781 143.182 113.8C143.155 114.331 143.249 114.959 143.367 115.524C143.828 120.91 143.211 126.361 141.504 131.451C141.214 132.319 140.835 133.18 141.041 134.122C141.272 135.165 142.115 135.921 142.738 136.677C144.48 138.791 145.798 141.314 146.566 144.042C147.227 146.381 147.297 148.933 148.446 151.086C149.313 152.711 150.61 153.975 151.966 155.097C153.598 156.448 155.363 157.607 156.901 159.091C158.492 160.628 159.486 162.535 160.563 164.503C161.441 166.107 162.47 167.767 164.07 168.572C165.65 169.368 167.475 169.148 168.996 168.283C172.909 166.06 174.096 160.309 174.28 155.891C174.514 150.268 173.078 144.763 171.108 139.626Z" fill="#F7E8E1"/>
<path d="M98.4619 128.277C98.24 128.007 97.8797 128.402 98.1 128.674C100.166 131.209 101.048 134.595 100.511 137.951C100.454 138.304 100.946 138.456 101.004 138.099C101.576 134.533 100.659 130.976 98.4619 128.277Z" fill="#B95547"/>
<path d="M95.0456 172.568C94.9004 172.243 94.46 172.527 94.6051 172.851C98.6477 181.923 100.5 191.996 100.001 202.083C99.9827 202.443 100.493 202.443 100.512 202.083C101.017 191.894 99.1274 181.728 95.0456 172.568Z" fill="#2F1516"/>
<path d="M143.663 170.21C142.214 168.73 140.686 167.343 139.093 166.053C137.365 164.65 135.477 163.31 134.639 161.033C134.591 160.898 134.468 160.781 134.325 160.836C121.398 165.741 108.116 169.439 94.6245 171.891C94.3002 171.949 94.4385 172.491 94.7594 172.433C108.181 169.994 121.396 166.319 134.26 161.453C135.641 164.802 139.173 166.677 141.615 168.959C144.573 171.724 148.57 175.331 148.496 180.002C148.491 180.365 149.002 180.365 149.008 180.002C149.072 175.909 146.205 172.801 143.663 170.21Z" fill="#2F1516"/>
</g>
<defs>
<clipPath id="clip0_1637_36342">
<rect width="354" height="389" fill="white"/>
</clipPath>
</defs>
</svg>
