<svg width="29" height="29" viewBox="0 0 29 29" fill="none" xmlns="http://www.w3.org/2000/svg">
<g clip-path="url(#clip0_2331_51118)">
<path d="M14.4296 18.5663C16.3748 18.5663 17.9518 16.6555 17.9518 14.2984C17.9518 11.9412 17.4341 10.0303 14.4296 10.0303C11.4252 10.0303 10.9072 11.9412 10.9072 14.2984C10.9072 16.6555 12.4843 18.5663 14.4296 18.5663Z" fill="#B9D386"/>
<mask id="mask0_2331_51118" style="mask-type:luminance" maskUnits="userSpaceOnUse" x="7" y="24" width="1" height="2">
<path d="M7.77637 24.9783H7.78637V25.1167H7.77637V24.9783Z" fill="white"/>
</mask>
<g mask="url(#mask0_2331_51118)">
<path d="M7.77715 25.0831C7.77579 25.0426 7.77647 24.9393 7.77715 25.0831V25.0831Z" fill="#8EBA3A"/>
</g>
<mask id="mask1_2331_51118" style="mask-type:luminance" maskUnits="userSpaceOnUse" x="7" y="18" width="15" height="10">
<path d="M7.77637 18.8878H21.083V27.4908H7.77637V18.8878Z" fill="white"/>
</mask>
<g mask="url(#mask1_2331_51118)">
<path d="M21.0753 24.9114C21.0101 20.8051 20.4726 19.6353 16.3589 18.8943C16.3589 18.8943 15.7799 19.6303 14.4303 19.6303C13.0805 19.6303 12.5014 18.8943 12.5014 18.8943C8.43269 19.6268 7.86238 20.7796 7.78738 24.7777C7.78128 25.1041 7.77843 25.1213 7.77734 25.0835C7.77761 25.1544 7.77789 25.2858 7.77789 25.5148C7.77789 25.5148 8.75725 27.4845 14.4303 27.4845C20.1033 27.4845 21.0825 25.5148 21.0825 25.5148C21.0825 25.3677 21.0826 25.2654 21.0828 25.1958C21.0817 25.2192 21.0795 25.1738 21.0753 24.9111V24.9114Z" fill="#B9D386"/>
</g>
</g>
<defs>
<clipPath id="clip0_2331_51118">
<rect width="28.1236" height="28.0301" fill="white" transform="translate(0.286133 0.927734)"/>
</clipPath>
</defs>
</svg>
