<svg xmlns="http://www.w3.org/2000/svg" xmlns:xlink="http://www.w3.org/1999/xlink" width="1080" zoomAndPan="magnify" viewBox="0 0 810 809.999993" height="1080" preserveAspectRatio="xMidYMid meet" version="1.0"><defs><clipPath id="69e49e7a8a"><path d="M 158.761719 413 L 651.511719 413 L 651.511719 728.738281 L 158.761719 728.738281 Z M 158.761719 413 " clip-rule="nonzero"/></clipPath><clipPath id="e11bd49e75"><path d="M 272 59.738281 L 538 59.738281 L 538 396 L 272 396 Z M 272 59.738281 " clip-rule="nonzero"/></clipPath></defs><g clip-path="url(#69e49e7a8a)"><path fill="#9abf7a" d="M 651.191406 634.191406 C 648.773438 483.714844 628.863281 440.855469 476.535156 413.699219 C 476.535156 413.699219 455.097656 440.667969 405.121094 440.667969 C 355.140625 440.667969 333.691406 413.699219 333.691406 413.699219 C 183.03125 440.542969 161.914062 482.78125 159.132812 629.289062 C 158.910156 641.253906 158.800781 641.882812 158.761719 640.496094 C 158.769531 643.09375 158.785156 647.90625 158.785156 656.300781 C 158.785156 656.300781 195.046875 728.480469 405.121094 728.480469 C 615.191406 728.480469 651.457031 656.300781 651.457031 656.300781 C 651.457031 650.910156 651.460938 647.160156 651.464844 644.605469 C 651.425781 645.464844 651.339844 643.804688 651.191406 634.179688 Z M 651.191406 634.191406 " fill-opacity="1" fill-rule="nonzero"/></g><g clip-path="url(#e11bd49e75)"><path fill="#9abf7a" d="M 405.113281 395.488281 C 478.375 395.488281 537.777344 320.328125 537.777344 227.617188 C 537.777344 134.902344 518.273438 59.742188 405.113281 59.742188 C 291.953125 59.742188 272.449219 134.902344 272.449219 227.617188 C 272.449219 320.328125 331.847656 395.488281 405.113281 395.488281 Z M 405.113281 395.488281 " fill-opacity="1" fill-rule="nonzero"/></g></svg>