<svg width="722" height="1080" viewBox="0 0 722 1080" fill="none" xmlns="http://www.w3.org/2000/svg">
<path d="M453.615 354.797C453.974 355.635 457.974 350.63 458.885 351.068C459.083 349.766 458.901 347.448 459.083 347.109C459.641 346.062 461.406 343.307 461.984 342.463C462.417 341.823 461.526 340.193 461.016 340.349C460.536 340.5 457.724 343.609 456.594 345.036C456.266 345.453 453.25 353.745 453.615 354.797Z" fill="#FFAE80"/>
<path d="M705.12 681.38C716.438 659.797 698.935 670.537 623.077 666.912C548.566 663.349 496.223 675.792 405.16 666.693C314.1 657.594 327.993 643.01 190.248 661.88C52.4992 680.745 14.2749 658.427 -3.39098 661.604C-11.0641 662.984 -1.28352 683.146 19.0097 690.271C29.9006 694.104 69.6135 705.609 60.3173 713.802C22.2416 747.375 122.48 741.151 160.662 736.469C178.848 733.792 231.726 723.573 215.672 737.141C145.8 796.177 285.678 769.927 322.498 763.901C348.866 759.219 374.322 745.839 401.595 749.849C420.237 752.526 437.514 760.557 456.149 763.234C471.149 765.24 485.724 765.896 501.608 763.234C564.439 752.714 629.095 742.292 583.431 728.443C562.452 722.073 698.338 694.307 705.12 681.38Z" fill="#B3D2E6"/>
<path d="M65.4933 704.219C63.1496 701.755 59.5037 700.422 56.5506 698.786C53.2016 696.927 49.8527 695.073 46.535 693.156C45.3527 692.474 44.3839 694.203 45.4777 694.963C48.6339 697.151 51.8162 699.271 55.1183 701.234C58.0193 702.953 61.1704 705.333 64.535 705.859C65.4673 706.005 66.2173 704.979 65.4933 704.219Z" fill="#9BC4DE"/>
<path d="M238.084 743.628C233.746 741.045 228.746 739.571 224.277 737.19C222.564 736.279 221.032 738.888 222.756 739.789C227.314 742.18 232.413 744.914 237.611 745.383C238.574 745.472 238.84 744.081 238.084 743.628Z" fill="#9BC4DE"/>
<path d="M343.12 729.521C340.307 727.453 336.026 726.989 332.667 726.187C328.75 725.245 324.833 724.312 320.917 723.37C319.833 723.109 319.292 724.687 320.38 725.042C324.198 726.292 328.016 727.536 331.833 728.786C335.141 729.864 339.005 731.729 342.5 731.443C343.526 731.364 344.016 730.182 343.12 729.521Z" fill="#9BC4DE"/>
<path d="M237.338 705.045C234.39 705.404 231.421 705.581 228.474 705.93C225.515 706.284 222.718 707.196 219.833 707.92C214.093 709.362 208.343 710.878 202.536 712.024C197.171 713.086 191.786 713.821 186.333 714.232C181.145 714.628 175.442 715.31 170.354 713.94C167.854 713.269 165.661 711.914 163.296 710.878C160.187 709.519 157.109 708.743 153.698 708.581C147.656 708.31 141.739 710.18 136.046 711.967C131.604 713.368 125.63 715.633 121.005 713.664C120.395 713.404 119.073 712.321 118.573 711.623C118.031 710.873 117.838 710.435 117.724 709.805C117.77 710.008 117.734 709.331 117.786 709.232C119.796 705.138 117.468 698.425 111.937 699.039C104.411 699.883 96.7444 700.94 89.4892 703.175C82.4996 705.326 74.9736 707.633 68.9475 711.831C64.9996 714.586 67.5673 719.847 72.0725 719.237C78.8277 718.326 85.3746 716.185 92.1246 715.065C96.2288 714.388 100.317 713.748 104.432 713.263C105.489 718.513 109.01 723.336 113.864 726.154C124.161 732.133 135.536 727.055 145.906 724.295C150.38 723.107 154.39 722.69 158.614 724.842C163.89 727.519 168.901 729.102 174.838 729.467C185.552 730.123 196.698 728.654 207.218 726.701C213.088 725.612 218.796 724.211 224.385 722.107C227.208 721.039 230.25 720.06 232.776 718.378C235.437 716.612 237.932 714.446 240.39 712.409C243.13 710.144 241 704.602 237.338 705.045Z" fill="#9BC4DE"/>
<path d="M616.948 660.745C613.089 662.083 607.786 664.984 603.646 663.406C598.995 661.641 602.245 657.115 599.839 653.813C597.552 650.672 593.401 650.745 589.922 650.953C584.88 651.261 579.854 652.167 574.958 653.417C565.271 655.886 556.057 659.833 546.781 663.49C542.318 665.25 537.828 667.031 533.234 668.417C531.734 668.87 529.693 669.729 528.547 668.234C527.646 667.047 528.042 664.776 528.318 663.464C529.828 656.255 470.677 658.49 454.63 673.432C452.891 675.047 453.432 680.844 455.422 680.115C460.286 679.912 475.104 672.859 480.568 679.74C484.021 684.094 484.974 689.62 489.26 693.49C499.547 702.787 514.443 700.287 525.604 694.172C532.078 690.625 537.677 685.12 544.703 682.63C547.755 681.552 551.276 681.052 554.422 682.063C557.766 683.13 559.568 685.839 561.672 688.432C565.979 693.729 571.427 695.703 578.068 693.391C581.495 692.198 584.641 690.292 587.901 688.714C591.609 686.906 595.427 685.313 599.302 683.886C607.661 680.818 629.495 682.682 638.302 681.396C646.99 680.13 669.953 680.427 678.557 678.938C679.891 678.708 679.641 675.406 677.583 674.87C674.818 674.151 626.964 657.255 616.948 660.745Z" fill="#B3D2E6"/>
<path d="M204.937 530.297C200.984 532.708 176.99 534.521 176.99 534.521L175.115 554.057C187.359 554.516 210.094 552.693 215.76 548.24C221.099 544.036 242.109 511.979 246.229 505.062C242.271 503.109 240.266 502.958 236.104 501.625C230.896 507.417 208.51 528.12 204.937 530.297Z" fill="#FFAE80"/>
<path d="M364.208 388.422C364.922 382.193 363.521 370.099 363.469 367.979C363.391 365.318 362.281 358.865 359.37 358.125C357.359 357.609 344.938 379.167 342.859 379.109C339.87 379.026 332.406 382.479 330.042 384.734C325.354 389.203 325.839 399.995 326.5 400.703C328.005 402.318 329.813 403.047 331.984 403.359C333.807 403.62 335.646 403.542 337.464 403.828C339.375 404.13 343.37 402.828 345.245 403.281C349.797 404.385 355.078 401.458 358.104 397.339C358.406 396.932 364.156 388.839 364.208 388.422Z" fill="#B06248"/>
<path d="M460.13 374.385C460.13 374.385 467.036 365.729 468.208 359.865C469.068 355.568 458.51 340.312 455.589 349.297C451.938 360.495 449.844 365.604 449.594 366.094C452.693 369.797 454.411 371.984 457.953 375.354C458.828 374.719 460.13 374.385 460.13 374.385Z" fill="#FFAE80"/>
<path d="M449.594 366.094C449.594 366.104 422.859 400 419.427 400.594C415.995 401.188 391.401 398.427 391.401 398.427L392.932 419.297C392.932 419.297 419.537 422.792 425.609 420.656C431.641 418.536 454.844 382.307 460.375 374.073C455.599 373.01 454.156 367.667 449.594 366.094Z" fill="#FFAE80"/>
<path d="M426.349 484.156C427.271 485.458 486.943 534.865 490.271 543.401C493.464 551.594 492.885 612.146 492.885 612.146L472.172 614.109C472.172 614.109 462.396 568.135 460.859 564.135C459.313 560.135 412.021 528.938 412.021 528.938L393.161 626.25L370.297 624.464C370.297 624.464 368.484 569.276 368.599 550.771C368.63 545.677 364.802 526.786 363.927 518.505C362.719 507.047 365.266 495.312 365.266 495.312L426.349 484.156Z" fill="#593231"/>
<path d="M233.042 634.745C233.443 631.531 232.927 628.651 232.479 625.474C232.01 622.109 232.078 618.708 232.005 615.323C231.901 610.484 231.698 604.292 229.63 599.5C229.229 595.75 226.953 592.198 225.62 588.729C223.802 584.016 220.594 579.708 220.073 574.667C219.625 570.297 217.807 566.776 215.885 562.906C213.792 558.703 212.739 554.229 211.906 549.635C210.516 541.984 209.984 531.766 202.521 527.432C198.427 525.057 193.349 523.214 188.703 522.396C186.057 521.932 182.635 519.078 179.984 518.813C175.656 517.266 171.422 521.87 168.38 524.599C163.984 528.542 163.391 531.458 160.698 536.76C157.958 542.156 158.005 547.818 158.208 553.714C158.333 557.375 157.823 560.729 157.213 564.323C156.76 566.974 156.661 569.474 157.489 572.057C157.958 573.547 161.271 574.036 162.417 574.156C160.891 576.698 160.76 580.099 160.786 582.974C160.838 587.667 160.693 592.271 160.203 596.943C159.75 601.234 159.172 605.521 158.807 609.818C158.656 611.552 158.276 613.625 158.547 615.417C157.776 615.823 157.349 616.771 157.891 617.745C160.786 622.969 167.088 625.573 172.318 627.75C178.734 630.422 183.479 635.672 190.026 638.031C196.266 640.281 202.911 640.203 209.427 639.51C215.786 638.833 222.719 638.37 228.958 636.656C230.588 637.401 232.776 636.932 233.042 634.745Z" fill="#F3E3D5"/>
<path d="M427.307 482.656C426.594 477.724 423.521 470.219 422.865 465.276C422.823 464.969 404.87 395.917 404.458 395.146C399.87 389.136 383.182 382.417 369.703 385.537C358.443 388.141 351.802 408.198 351.542 414.615C351 427.802 352.984 441.323 354.677 454.386C356.297 466.943 359 493.99 359.062 494.594C359.146 495.38 365.276 497.656 367.141 498.188C370.703 499.208 374.521 499.417 378.208 499.182C386.38 498.677 394.245 496.11 402.411 495.495C406.62 495.182 407.969 493.511 412.187 493.313C415.583 493.151 419.104 489.787 422.286 488.422C425.792 486.922 427.729 485.568 427.307 482.656Z" fill="#F3E3D5"/>
<path d="M352.182 405.38C351.656 405.38 351.656 406.197 352.182 406.197C352.703 406.197 352.708 405.38 352.182 405.38Z" fill="#F3E3D5"/>
<path d="M174.797 579.927C165.146 578.495 157.391 568.761 159.151 557.943C160.458 549.839 176.99 538.495 191.385 551.818C204.359 563.828 185.906 581.578 174.797 579.927ZM236.781 607.682C236.75 606.677 236.672 605.594 236.552 604.438C236.177 600.771 235.391 596.375 234.312 591.563C234.094 590.547 233.849 589.516 233.594 588.464C228.781 568.359 219.687 542.542 214.448 531.734C214.109 531.016 213.771 530.365 213.469 529.787C213.359 529.583 213.25 529.391 213.135 529.198C208.672 521.386 201.833 519.479 193.74 520.667C191.672 519.781 187.63 517.859 184.016 518.094C176.13 518.599 173.505 517.573 164.62 522.099C155.734 526.62 144.927 534.662 145.849 537.969C146.609 540.708 150.797 542.651 153.516 541.677C151.208 546.734 149.922 552.833 150.552 560.115C150.776 562.719 154.562 627.156 167.245 629.542C183.838 632.651 233.302 627.99 236.516 612.188C236.76 610.984 236.838 609.458 236.781 607.682Z" fill="#B9D386"/>
<path d="M367.38 436.49C358.495 435.896 353.021 424.755 353.667 407.656C354.125 395.437 378.974 397.552 380.667 417.089C381.943 431.828 378.599 437.24 367.38 436.49ZM425.422 461.698C425.323 460.687 425.203 459.63 425.042 458.531V458.526C424.323 453.589 422.99 447.865 421.323 441.891C421.109 441.115 420.891 440.333 420.656 439.547C415.948 423.266 409.099 405.719 405.812 397.625C403.812 392.703 395.635 385.542 395.635 385.542C395.635 385.542 395.187 382.229 391.406 381.391C389.214 380.906 381.068 380.229 377.458 380.432C369.922 380.859 367.214 381.74 357.901 385.297C348.583 388.849 342.901 392.828 343.464 396.214C343.927 399.016 346.839 399.302 349.635 398.62C346.807 403.406 344.802 412.271 344.661 419.568C344.609 422.187 345.698 483.682 358.052 487.391C374.224 492.245 421.365 482.516 424.99 470.62C425.667 468.411 425.766 465.344 425.422 461.698Z" fill="#B9D386"/>
<path d="M373.453 390.401C355.859 390.042 375.672 381.203 375.672 381.203C375.672 381.203 381.401 381.917 385.391 385.521C387.292 387.224 388.734 389.922 389.797 392.88C389.797 392.88 381.786 390.573 373.453 390.401Z" fill="#FFAE80"/>
<path d="M383.995 377.755C383.995 377.755 383.656 381.094 383.437 383.891C383.234 386.526 376.995 390.938 371.531 390.354C365.307 389.682 360.823 387.615 360.208 383.219C360.146 382.766 362.151 375.016 362.719 366.208C362.797 364.938 382.505 374.609 383.995 377.755Z" fill="#FFAE80"/>
<path d="M394.885 354.448C394.589 351.172 394.833 349.63 394.802 349.057C394.714 347.62 394.682 346.396 394.677 345.505C394.698 344.984 394.792 344.458 394.682 343.943C391.984 331.078 384.182 326.651 372.104 327.068C360.026 327.479 354.073 338.437 354.073 345.562C354.073 352.963 357.255 356.281 359.609 361.104C361.193 363.672 362.422 366.583 363.464 367.979C366.656 372.245 372.214 374.641 376.537 376.625C379.708 378.073 387.146 379.802 390.141 378.453C391.542 377.823 395.583 366.333 395.594 360.792C395.599 359.161 395.094 356.713 394.885 354.448Z" fill="#FFAE80"/>
<path d="M389.078 363.969C389.412 363.589 389.891 363.422 390.318 363.161C390.724 362.906 391.083 362.599 391.401 362.245C390.162 359.276 389.208 356.172 388.146 353.141C388.042 352.849 388.458 352.677 388.589 352.958C389.938 356 391.438 359.01 392.589 362.13C392.656 362.312 392.646 362.552 392.511 362.698C391.776 363.484 390.49 364.766 389.297 364.51C389.063 364.458 388.901 364.172 389.078 363.969Z" fill="#DD8958"/>
<path d="M375.219 351.609C376.948 350.594 378.073 350.349 379.625 349.974C380.375 349.792 381.12 349.677 381.854 349.656C382.594 349.635 383.708 349.51 384.354 349.87C384.912 350.182 384.865 351 384.417 351.823C383.807 352.943 380.375 352.49 379.057 352.74C378.156 352.911 377.083 353.068 376.052 353.24C375.255 353.37 374.542 352.016 375.219 351.609Z" fill="#B06248"/>
<path d="M390.094 351.005C390.693 351.464 392.474 351.427 393.62 351.328C393.958 351.297 394.323 351.333 394.703 351.344C395.297 350.813 395.292 349.646 394.766 349.037C394.563 348.984 393.198 348.635 392.49 348.635C391.771 348.635 390.516 348.708 389.932 349.125C389.432 349.49 389.375 350.458 390.094 351.005Z" fill="#B06248"/>
<path d="M383.906 378.667C383.906 378.667 379.104 378.146 376.318 376.281C372.703 373.859 370.99 371.943 370.99 371.943C370.99 371.943 372.797 376.682 377.047 378.547C381.24 380.385 383.74 380.401 383.74 380.401L383.906 378.667Z" fill="#DD8958"/>
<path d="M392.682 368.094C391.552 368.474 390.271 368.76 388.87 369.005C387.333 369.276 386.458 369.318 384.911 369.239C384.318 369.208 384.115 370.031 384.708 370.156C387.375 370.719 390.354 370.156 392.943 368.781C393.286 368.599 393.068 367.963 392.682 368.094Z" fill="#DD8958"/>
<path d="M394.088 355.807C394.026 355.901 393.713 356.26 393.396 356.281C392.797 356.318 392.432 356 392.349 355.844C391.948 355.12 391.568 352.656 392.979 352.734C394.208 352.802 394.661 354.948 394.088 355.807Z" fill="#36201F"/>
<path d="M383.854 327.484C380.239 323.646 366.005 324.078 359.51 328.578C353.391 332.823 349.802 339.938 350.177 347.333C346.417 349.901 343.401 354.068 344.25 358.708C344.614 360.724 344.156 361 342.672 362.234C341.656 363.083 340.713 364.036 339.943 365.12C338.437 367.25 337.724 369.672 338.255 372.25C338.781 374.766 340.042 377.406 337.328 379.229C336.073 380.078 334.693 380.719 333.458 381.62C331.203 383.271 329.203 385.323 327.927 387.833C326.026 391.563 325.463 398.24 329.635 400.724C330.135 401.026 330.828 400.526 330.646 399.948C330.469 399.375 330.281 398.839 330.094 398.313C330.135 398.281 330.177 398.245 330.213 398.203C330.552 398.625 331.432 398.422 331.401 397.781C331.26 395.063 332.417 393.104 333.896 391.271C334.13 391.406 334.427 391.417 334.641 391.161C337.406 387.901 341.568 391.323 344.542 392.411C346.432 393.104 348.578 393.479 350.583 393.063C352.495 392.667 354.224 391.661 355.359 390.052C355.911 389.266 356.099 388.281 356.604 387.495C356.922 386.432 357.687 385.818 358.917 385.641C359.281 385.792 359.651 385.88 360.042 385.906C364.333 385.089 365.594 381.833 366.068 377.583C366.479 373.948 366.182 369.12 364.031 365.833C366.547 361.245 364.62 353.365 366.364 353.781C370.943 354.87 370.677 351.74 371.052 348.349C371.312 345.984 373.406 344.563 376.068 345.188C377.177 345.453 378.302 345.953 379.474 345.797C380.781 345.615 382.047 344.802 383.01 344.036C384.031 343.219 384.755 342.589 385.547 341.49C385.922 340.974 386.187 340.406 386.427 339.823C388.489 339.922 389.729 343.156 391.479 344.37C392.854 345.328 394.453 345.646 394.672 345.281C396.245 342.714 396.755 328.849 383.854 327.484Z" fill="#B06248"/>
<path d="M367.193 353.974C367.193 353.974 363.787 350.37 361.74 354.698C360.385 357.557 363.682 363.25 368.453 364.068C369.443 364.24 365.912 359.135 367.193 353.974Z" fill="#FFAE80"/>
<path d="M365.979 359.094C365.526 358.453 364.896 358.036 364.625 357.26C364.385 356.583 364.417 355.469 364.974 354.896C365.391 354.469 364.698 353.854 364.25 354.182C363.208 354.948 363.047 356.276 363.328 357.474C363.594 358.614 364.578 359.974 365.901 359.75C366.229 359.693 366.172 359.359 365.979 359.094Z" fill="#DD8958"/>
<path d="M379.703 357.448C381.083 356.771 382.349 356.401 383.786 357.208C384.057 357.364 384.349 356.963 384.109 356.76C382.766 355.63 380.432 355.38 379.297 356.963C379.078 357.255 379.359 357.609 379.703 357.448Z" fill="#DD8958"/>
<path d="M393.703 353.787C393.703 355.125 394.745 356.229 396.083 356.302L448.005 359.26V348.182L396.078 351.271C394.74 351.349 393.703 352.453 393.703 353.787Z" fill="#FCC14F"/>
<path d="M448.734 359.865H485.839V347.714H448.734V359.865Z" fill="#FCC14F"/>
<path d="M484.833 347.906V359.667C484.833 360.125 485.203 360.49 485.656 360.49H486.016C486.474 360.49 486.844 360.125 486.844 359.667V347.906C486.844 347.453 486.474 347.083 486.016 347.083H485.656C485.203 347.083 484.833 347.453 484.833 347.906Z" fill="#DDA036"/>
<path d="M448.01 348.25V359.292C448.01 359.682 448.323 359.995 448.708 359.995H449.318C449.703 359.995 450.016 359.682 450.016 359.292V348.25C450.016 347.865 449.703 347.547 449.318 347.547H448.708C448.323 347.547 448.01 347.865 448.01 348.25Z" fill="#DDA036"/>
<path d="M418.963 348.844C418.625 348.161 415.807 347.766 415.99 348.552C416.224 349.385 416.224 349.417 416.224 349.417C416.224 349.417 416.109 349.073 415.891 348.49C415.51 347.604 412.286 347.615 412.651 348.687C412.849 349.177 412.901 349.599 412.943 349.708C412.963 349.766 412.911 349.604 412.849 349.484C412.771 349.318 412.693 349.068 412.547 348.698C411.719 347.719 409.016 348.297 409.177 349.245C409.234 349.411 409.276 349.531 409.281 349.589C409.255 349.516 409.208 349.396 409.146 349.25C408.615 348.042 405.245 348.979 405.437 350.354C405.557 351.25 405.661 352.156 405.745 353.031C406.125 357.005 404.198 356.771 404.198 356.771L401.583 356.625C401.583 356.625 402.698 361.818 403.292 363.234C404.911 367.099 408.266 370.214 408.266 370.214C408.266 370.214 410.865 371.536 412.724 371.708C414.682 371.885 419.542 370.849 419.542 370.849C419.542 370.849 420.781 362.969 420.812 360.38C420.844 357.557 420.937 354.531 420.151 351.786C420 351.255 419.667 350.443 418.963 348.844Z" fill="#FFAE80"/>
<path d="M409.365 350.349C409.406 350.516 409.667 350.479 409.625 350.302C409.531 349.818 409.354 349.412 409.234 348.932C409.125 348.958 409.089 348.974 408.979 349.005C409.115 349.474 409.245 349.88 409.365 350.349Z" fill="#DD8958"/>
<path d="M413.026 350.781C413.068 350.927 413.271 350.828 413.24 350.682C413.109 350.104 412.828 349.115 412.615 348.49C412.51 348.495 412.458 348.505 412.344 348.51C412.573 349.141 412.844 350.083 413.026 350.781Z" fill="#DD8958"/>
<path d="M415.771 348.312C416.094 349.302 416.422 350.354 416.656 351.104C416.698 351.25 416.937 351.219 416.896 351.062C416.667 350.141 416.281 349.214 416.021 348.349C415.896 348.344 415.896 348.318 415.771 348.312Z" fill="#DD8958"/>
<path d="M419.542 463.057C415.995 442.005 397.563 404.625 390.13 393.328C389.651 392.589 389.078 392.969 389.557 393.719C401.51 412.521 413.99 444.193 418.76 463.385C418.891 463.875 419.615 463.505 419.542 463.057Z" fill="#496822"/>
<path d="M428.125 419.016C424.688 394.078 421.214 373.979 419.958 368.078C415.172 369.453 413.047 369.016 408.266 370.214C408.859 376.208 409.542 411.688 408.036 412.823C406.562 413.927 361.901 400.818 361.901 400.818L360.047 422.813C360.047 422.813 421.896 441.26 427.719 428.771C428.932 426.167 428.453 421.38 428.125 419.016Z" fill="#FFAE80"/>
<path d="M615.22 606.181C613.97 603.397 591.129 606.405 590.658 606.436C551.638 609.137 515.287 613.204 476.863 614.168C475.504 614.199 385.687 618.266 341.706 619.157C291.044 620.19 240.378 620.946 189.705 621.436C162.842 621.696 135.983 621.868 109.12 621.978C101.771 622.098 99.597 623.401 99.5689 624.199C99.0349 630.987 98.8769 637.817 99.0947 644.631C99.1192 645.616 99.1614 646.597 99.2071 647.582C99.6462 656.977 100.788 666.304 102.611 675.412C103.412 679.39 109.911 686.329 112.939 686.58C158.581 690.328 204.276 692.747 249.979 693.821C295.688 694.88 461.203 690.896 462.805 690.818C509.227 688.493 550.875 677.143 588.126 650.939C591.558 648.52 596.163 644.162 600.642 638.979C601.654 637.817 602.651 636.613 603.631 635.366C611.7 625.2 618.322 613.089 615.22 606.181Z" fill="#D49B72"/>
<path d="M506.094 718.021C516.141 706.245 521.792 701.495 524.734 687.432C509.656 683.984 485.073 683.724 443.234 685.547C346.901 689.76 285.792 694.401 168.177 684.245C50.5677 674.089 75.0938 670.662 -103.344 683.943C-139.776 686.662 -178.146 678.807 -206.281 679.021C-186.339 692.412 -162.297 690.755 -136.932 696.604C-130.234 697.943 -116.797 699.88 -110.099 705.234C-101.682 711.542 496.104 729.193 506.094 718.021Z" fill="#B3D2E6"/>
<path d="M545.797 662.911C536.208 667.109 526.229 669.802 516.01 671.948C505.349 674.193 494.688 673.802 483.932 674.979C478.344 675.589 472.912 676.875 467.438 678.104C462.396 679.245 457.224 679.568 452.073 679.625C446.594 679.682 441.13 680.115 435.646 680.151C429.094 680.198 423.162 680.109 417.224 683.339C412.01 686.177 412.75 693.865 417.531 696.62C423.495 700.052 430.063 699.849 436.729 699.552C442.594 699.292 448.568 698.974 454.292 697.562C465.245 694.865 475.401 689.24 486.516 687.266C497.391 685.328 508.198 684.609 518.859 681.437C529.135 678.38 538.865 673.26 547.828 667.443C550.094 665.974 548.495 661.734 545.797 662.911Z" fill="#9BC4DE"/>
<path d="M311.38 687.026C280.156 685.479 256.005 683.047 250.703 683.422C239.656 684.187 228.698 685.396 217.693 686.531C207.932 687.547 200.719 686.552 190.911 686.078C180.776 685.583 172.432 683.891 161.526 683.667C160.318 683.641 162.625 685.62 163.594 686.224C171.641 691.281 176.547 691.344 185.714 693.667C195.406 696.12 205.385 697.349 215.339 698.094C226.276 698.911 237.099 698.693 248.052 698.578C253.797 698.526 259.542 698.406 265.286 698.375C270.844 698.344 277.266 698.411 281.969 695.042C284.167 693.469 314.302 687.172 311.38 687.026Z" fill="#9BC4DE"/>
<path d="M597 636C596.029 637.22 595.044 638.398 594.042 639.536C572.826 640.501 551.637 642.501 530.476 644.787C488.255 649.323 446.047 654.997 403.694 655.875C361.427 656.752 319.147 652.793 276.911 650.997C217.648 648.486 158.385 648.231 99.111 647.955C99.0659 646.991 99.0243 646.032 99 645.067C120.653 645.083 142.314 645.231 163.967 645.399C206.809 645.746 249.651 646.639 292.483 648.379C334.684 650.093 376.843 653.92 419.071 651.966C461.407 650.007 503.584 643.975 545.829 639.786C562.868 638.097 579.923 636.699 597 636Z" fill="#C48B62"/>
<path d="M121.365 679.438C113.167 679.896 105.068 679.234 97.0781 677.344C88.5573 675.318 76.2448 669.406 67.2604 670.609C62.8906 671.193 62.9479 674.302 58.6614 675.104C55.2083 675.745 52.4583 674.974 49.0885 673.974C40.9739 671.563 29.6614 666.344 21.0104 666.406C12.4583 666.469 8.3385 671.573 -0.0573273 672.646C-8.59379 673.734 -16.7292 671.745 -25.1042 670.396C-34.0157 668.958 -49.5573 668.094 -58.5157 669.339C-78.4636 672.115 -90.0573 680.839 -106.807 691.734C-110.135 693.901 -107.714 698.948 -103.943 697.948C-87.3386 693.573 -70.9584 686.953 -53.8438 684.901C-45.4063 683.891 -37.1459 684.188 -28.8386 685.922C-19.9532 687.776 -11.0573 690.193 -1.89587 689.771C6.56246 689.38 14.7083 686.698 23.1302 686.047C30.9323 685.443 37.6927 688.677 45.052 690.771C48.8802 691.854 52.9739 692.594 56.9687 692.453C61.7656 692.287 66.1041 690.646 70.6198 689.26C78.1302 686.964 85.9218 691.479 93.3125 693.005C102.641 694.943 112.37 695.677 121.875 694.99C131.443 694.302 173.177 704.792 180.505 698.078C184.609 694.313 125.807 679.188 121.365 679.438Z" fill="#B3D2E6"/>
<path d="M273.865 699.63C276.26 702.328 281.219 702.021 285.031 701.328C295.422 699.432 307.115 705.636 317.094 702.646C320.932 701.5 326.198 699.13 330.354 700.151C335.016 701.292 331.807 704.797 334.245 707.172C336.557 709.427 340.698 709.214 344.177 708.922C349.208 708.505 354.219 707.636 359.094 706.516C368.75 704.302 377.917 701 387.156 697.917C391.594 696.432 396.063 694.932 400.641 693.719C402.13 693.323 404.161 692.604 405.313 693.677C406.234 694.526 405.859 696.24 405.599 697.229C404.146 702.672 396.974 708.896 403.885 713.781C409.74 717.917 418.745 714.953 425.083 712.656C445.01 705.432 463.214 698.74 479.099 686.974C480.828 685.698 480.234 681.391 478.255 682.011C473.391 682.349 458.661 688.177 453.141 683.25C449.651 680.136 448.646 676.047 444.328 673.318C433.969 666.766 419.115 669.203 408.021 674.193C401.583 677.094 396.047 681.417 389.052 683.542C386.016 684.469 382.495 684.974 379.344 684.339C376 683.672 374.177 681.719 372.052 679.865C367.693 676.068 362.234 674.802 355.63 676.787C352.214 677.807 349.089 679.349 345.849 680.656C342.156 682.141 338.354 683.479 334.5 684.693C326.182 687.307 304.359 686.745 295.568 688.042C286.906 689.323 263.974 689.979 255.38 691.417C254.057 691.641 254.333 694.094 256.401 694.417C259.162 694.844 267.401 692.36 273.865 699.63Z" fill="#CAE7FA"/>
<path d="M256.022 713.415C253.111 711.775 250.506 709.936 247.814 707.978C245.262 706.119 242.215 704.973 239.329 703.707C233.084 700.957 224.715 701.483 218.001 701.572C211.032 701.655 203.986 702.598 197.215 704.228C195.678 704.603 194.157 705.03 192.616 705.389C192.506 705.415 191.199 705.712 190.918 705.796C190.6 705.806 189.939 705.754 189.975 705.79C189.512 705.681 189.048 705.509 188.584 705.405C186.751 700.561 180.709 697.379 175.725 699.014C174.225 699.504 172.715 699.957 171.178 700.311C170.407 700.488 169.626 700.645 168.85 700.79C168.652 700.827 168.345 700.863 168.116 700.895C165.038 701.186 161.939 701.139 158.85 701.004C158.058 700.968 157.272 700.91 156.48 700.848C156.308 700.837 156.121 700.811 155.949 700.785C154.423 700.514 152.923 700.113 151.392 699.858C146.637 699.061 141.381 699.79 137.543 702.895C136.725 703.556 136.267 704.176 135.35 704.624C134.189 705.192 132.709 705.369 131.47 705.764C129.053 706.54 126.543 707.676 123.991 707.9C120.746 708.181 117.694 705.035 119.423 701.775C121.637 697.613 118.006 693.218 113.538 694.119C105.204 695.806 97.0116 698.077 89.022 700.994C81.0168 703.915 73.7407 708.27 66.9334 713.363C65.1314 714.712 66.0741 718.113 68.6001 717.301C81.772 713.082 95.0584 708.619 108.611 705.671C109.032 709.113 110.631 712.405 113.376 714.78C119.47 720.061 126.85 718.02 133.642 715.546C134.397 715.27 135.256 715.093 135.97 714.749C136.98 716.108 138.986 718.03 139.381 718.374C144.105 722.53 149.871 723.322 155.897 724.004C162.459 724.754 168.944 723.817 175.178 721.931C179.371 725.113 184.767 726.598 190.236 725.306C197.553 723.582 204.053 719.473 211.272 717.337C218.173 715.296 225.012 714.442 232.204 714.686C240.001 714.952 248.001 712.468 255.689 714.202C256.152 714.311 256.46 713.665 256.022 713.415Z" fill="#CAE7FA"/>
<path d="M253.115 493.359C253.115 493.359 252.979 495.792 251.453 498.745C250.089 501.401 248.188 503.615 248.188 503.615C248.188 503.615 242.432 508.323 241.151 507.151C239.115 505.292 235.203 505.083 236.276 500.307C237.115 496.568 240.432 491.766 242.787 490.484C247.896 488.859 253.115 493.359 253.115 493.359Z" fill="#FFAE80"/>
<path d="M199.292 398.427L194.135 400.943L353.932 728.536L359.094 726.021L199.292 398.427Z" fill="#C2C2C2"/>
<path d="M232.401 453.391C236.776 438.193 231.703 421.364 224.672 406.958L213.62 384.323C208.557 373.958 196.047 369.656 185.672 374.713C175.302 379.771 170.995 392.271 176.057 402.635L187.104 425.271C194.141 439.677 204.688 452.542 218.781 460.198C219.672 460.682 221.469 461.479 222.026 462.62L223.818 466.328C224.521 467.797 233.443 463.364 232.714 461.828L230.974 458.224C230.412 457.078 232.047 454.625 232.401 453.391Z" fill="#D892C0"/>
<path d="M378.833 735.88C377.953 735.651 377.062 735.463 376.146 735.344C374.245 735.083 372.37 735.229 370.453 735.114C368.146 734.984 366.505 734.187 364.443 733.276C361.781 732.088 358.75 731.411 356.01 732.781C354.698 733.443 354.193 734.63 353.099 735.479C351.26 736.891 349.26 735.583 347.531 734.703C344.453 733.135 341.271 731.557 337.838 730.927C337.094 730.792 336.354 730.708 335.62 730.667L328.865 716.823C321.833 702.417 318.177 686.193 320.812 670.38C320.974 669.385 321.458 667.479 320.906 666.333L319.083 662.641C318.844 662.172 319.625 661.401 320.818 660.641C322.318 659.656 324.469 658.682 326.052 658.271C327.104 658.01 327.901 657.995 328.109 658.406L329.875 662C330.432 663.141 333.375 663.37 334.573 663.844C349.245 669.76 359.401 684.109 366.432 698.521L377.474 721.156C379.807 725.917 380.151 731.135 378.833 735.88Z" fill="#D892C0"/>
<path d="M350.411 708.208C350.495 708.083 350.521 707.922 350.432 707.734C344.068 693.891 336.609 680.229 329.917 666.099C329.526 665.266 328.167 665.859 328.599 666.693C335.255 679.479 341.026 692.823 347.969 705.464C347.979 705.521 347.979 705.578 348.005 705.635C350.286 710.938 350.005 713.344 349.125 713.974C347.729 714.974 345.453 711.505 344.151 709.38C342.932 707.385 331.463 682.302 326.766 672.115C326.505 671.547 325.63 671.938 325.88 672.516C329.328 680.651 333.156 689.021 336.75 697.203C337.953 699.943 339.828 704.75 341.828 707.984C343.302 710.365 345.104 714.412 347.823 715.599C349.297 716.25 350.521 714.99 350.927 713.552C351.437 711.766 351.083 709.984 350.411 708.208Z" fill="#301C33"/>
<path d="M226.469 451.453C223.094 443.286 219.344 434.88 215.828 426.661C214.646 423.906 212.818 419.088 210.849 415.838C209.396 413.443 207.63 409.38 204.927 408.161C203.458 407.5 202.224 408.75 201.802 410.182C201.271 411.963 201.615 413.745 202.266 415.526C202.182 415.656 202.156 415.818 202.24 416.005C208.479 429.906 215.807 443.641 222.365 457.828C222.75 458.667 224.115 458.083 223.687 457.25C217.151 444.401 211.505 431.005 204.687 418.297C204.682 418.245 204.672 418.187 204.646 418.125C202.417 412.802 202.719 410.396 203.609 409.776C205.01 408.792 207.26 412.281 208.536 414.422C209.734 416.422 220.974 441.615 225.573 451.844C225.828 452.417 226.703 452.031 226.469 451.453Z" fill="#301C33"/>
<path d="M286.5 572.385C286.969 571.786 286.115 569.078 285.484 569.578C284.823 570.151 284.802 570.167 284.802 570.167C284.802 570.167 285.068 569.911 285.495 569.463C286.13 568.745 284.729 565.838 283.922 566.63C283.563 567.021 283.198 567.245 283.125 567.333C283.078 567.38 283.208 567.255 283.286 567.151C283.401 567.005 283.594 566.833 283.865 566.542C284.391 565.37 282.703 563.182 281.917 563.74C281.792 563.859 281.698 563.948 281.656 563.984C281.708 563.922 281.792 563.828 281.901 563.713C282.766 562.713 280.464 560.078 279.302 560.844C278.547 561.338 277.781 561.828 277.021 562.276C274.344 563.865 273.068 562.609 273.068 562.609L271.922 560.255C271.922 560.255 267.771 563.318 266.75 564.458C263.958 567.588 262.594 571.953 262.594 571.953C262.594 571.953 262.521 574.87 263.167 576.62C263.849 578.463 266.875 582.396 266.875 582.396C266.875 582.396 274.526 580.12 276.875 579.031C279.438 577.844 282.214 576.62 284.354 574.729C284.766 574.365 285.359 573.713 286.5 572.385Z" fill="#FFAE80"/>
<path d="M281 564.38C280.865 564.484 281.016 564.703 281.156 564.599C281.552 564.302 281.844 563.964 282.224 563.651C282.151 563.568 282.125 563.536 282.047 563.453C281.687 563.776 281.38 564.073 281 564.38Z" fill="#DD8958"/>
<path d="M282.187 567.865C282.068 567.964 282.25 568.109 282.364 568.016C282.838 567.651 283.609 566.969 284.078 566.51C284.031 566.417 283.989 566.375 283.943 566.281C283.474 566.755 282.739 567.401 282.187 567.865Z" fill="#DD8958"/>
<path d="M285.604 569.276C284.849 570 284.037 570.745 283.458 571.276C283.349 571.38 283.479 571.578 283.609 571.479C284.339 570.87 285.011 570.13 285.677 569.521C285.63 569.406 285.651 569.391 285.604 569.276Z" fill="#DD8958"/>
<path d="M211.333 541.958C211.12 541.542 210.516 541.906 210.714 542.323C215.021 551.396 228.526 594.854 231.354 607.417C231.484 608.005 232.313 607.745 232.229 607.177C230.844 597.37 215.88 550.688 211.333 541.958Z" fill="#496822"/>
<path d="M234.312 591.563C224.338 600.162 208.01 600.109 195.755 599.807C194.203 599.766 194.203 597.427 195.755 597.391C203.406 597.188 211.151 596.833 218.604 594.969C224.026 593.609 228.833 591.193 233.594 588.464C233.849 589.516 234.094 590.547 234.312 591.563Z" fill="#593231"/>
<path d="M213.453 575.182C208.911 574.286 190.005 559.411 190.005 559.411L175.406 572.536C184.115 581.146 202.099 595.161 209.286 595.708C216.062 596.219 259.167 584.703 266.88 582.396C265.281 578.281 265.312 574.26 263.146 570.469C255.396 571.224 217.557 575.99 213.453 575.182Z" fill="#FFAE80"/>
<path d="M210.87 541.776C210.87 541.776 206.438 537.594 204 536.516C203.391 536.25 202.302 535.927 200.912 535.568C195.511 534.156 185.583 532.115 181.865 530.172C158.068 517.76 191.552 520.667 191.552 520.667C191.552 520.667 203.563 527.813 206.417 532.37C206.458 532.427 206.495 532.495 206.531 532.552C209.521 537.385 210.87 541.776 210.87 541.776Z" fill="#FFAE80"/>
<path d="M199.276 521.833C199.276 521.833 198.745 525.151 198.375 527.932C198.026 530.547 191.396 531.521 186.198 529.766C180.422 527.823 176.5 525.828 176.13 521.401C176.094 520.948 177.234 517.776 178.292 509.016C178.443 507.75 197.964 518.609 199.276 521.833Z" fill="#FFAE80"/>
<path d="M211.443 499.167C211.323 495.88 211.651 494.354 211.651 493.781C211.646 492.338 211.682 491.115 211.719 490.224C211.766 489.713 211.807 489.193 211.818 488.667C212.073 476.594 202.484 466.599 190.406 466.338C178.323 466.083 168.318 475.667 168.068 487.74C167.922 494.432 171.187 499.75 175.844 503.859C177.286 506.516 178.349 509.484 179.318 510.937C182.271 515.375 187.677 518.625 191.885 520.838C194.974 522.463 202.958 524.349 205.818 522.729C207.828 521.594 211.474 511.073 211.792 505.542C211.891 503.917 211.521 501.448 211.443 499.167Z" fill="#FFAE80"/>
<path d="M191.511 495.938C193.339 495.115 194.49 494.995 196.068 494.792C196.839 494.698 197.589 494.662 198.318 494.719C199.063 494.781 200.182 494.781 200.781 495.208C201.307 495.583 201.136 495.938 200.604 496.703C199.87 497.75 196.511 496.922 195.172 497.031C194.261 497.099 193.177 497.141 192.13 497.198C191.323 497.24 190.792 496.26 191.511 495.938Z" fill="#612F26"/>
<path d="M207.083 496.391C207.75 496.745 209.505 496.417 210.62 496.13C210.948 496.052 211.312 496.021 211.687 495.974C212.187 495.349 212.156 494.667 211.536 494.151C211.328 494.135 209.927 494.01 209.229 494.125C208.516 494.24 207.286 494.521 206.786 495.026C206.349 495.469 206.286 495.969 207.083 496.391Z" fill="#612F26"/>
<path d="M199.089 523.026C199.089 523.026 193.792 521.615 190.271 519.062C186.87 516.599 184.026 513.536 184.026 513.536C184.026 513.536 186.813 519.073 190.891 521.427C194.854 523.713 198.844 524.661 198.844 524.661L199.089 523.026Z" fill="#DD8958"/>
<path d="M208.266 513.073C207.016 513.182 206.036 513.203 204.625 513.37C203.078 513.552 202.172 513.292 200.625 513.125C200.036 513.062 199.792 513.875 200.375 514.031C203.01 514.739 205.813 514.661 208.703 513.703C209.073 513.578 208.672 513.031 208.266 513.073Z" fill="#DD8958"/>
<path d="M165.739 487.297C165.963 486.094 165.948 484.859 166.14 483.641C166.5 481.406 167.25 479.297 168.901 477.688C168.953 477.636 169.005 477.594 169.057 477.547C168.948 476.953 169.031 476.307 169.568 475.49C170.328 474.323 171.63 473.839 172.937 473.328C172.87 471.953 173.271 470.646 174.114 469.557C176.234 466.813 180.187 466.245 183.406 465.958C185.484 465.776 187.531 465.724 189.547 465.141C190.984 464.729 192.354 464.151 193.844 463.927C196.182 463.578 199.099 463.656 200.776 465.427C203.62 465.703 206.114 466.62 207.396 468.87C208.458 470.75 208.37 471.912 210.406 473.229C211.667 474.042 213.932 476.469 214.588 477.865C215.292 479.37 215.182 480.896 214.489 482.141C215.51 485.057 213.203 488.677 210.104 486.677C209.901 486.792 209.693 486.896 209.463 486.974C208.437 487.349 207.411 487.292 206.38 486.943C204.776 486.401 202.88 484.188 201.406 484.188C201.125 484.401 200.844 484.62 200.552 484.839C198.974 486.021 197.542 487.281 195.713 487.984C194.755 488.354 193.14 488.458 191.922 488.854C191.463 489.75 190.943 490.62 190.39 491.464C189.974 492.089 189.568 492.672 189.005 493.182C188.677 493.484 187.937 494.083 187.75 494.412C187.625 494.63 187.812 495.573 187.786 496.646C187.776 497.531 187.453 498.438 187.109 499.255C186.588 500.49 185.828 501.49 184.542 501.964C183.661 502.287 182.687 502.042 182.104 501.302C181.583 500.646 181.734 500.245 182.182 499.563C182.64 498.886 182.646 497.807 182.719 497.099C182.187 497.245 181.5 497.557 180.781 498.109C180.588 498.255 180.557 501.677 180.677 503.802C178.062 504.917 180.958 508.406 178.292 509.016C175.552 506.38 173.573 503.344 172.286 500.104C170.292 498.802 167.38 497.75 166.302 494.854C164.463 489.891 165.552 488.281 165.739 487.297Z" fill="#612F26"/>
<path d="M183 496.922C183 496.922 179.797 493.135 177.51 497.339C176.005 500.125 178.979 505.99 183.693 507.068C184.672 507.292 181.432 502.005 183 496.922Z" fill="#FFAE80"/>
<path d="M181.5 501.964C181.083 501.302 180.479 500.849 180.25 500.063C180.052 499.37 180.141 498.26 180.729 497.719C181.167 497.313 180.516 496.667 180.047 496.969C178.964 497.672 178.729 498.99 178.943 500.203C179.151 501.354 180.057 502.766 181.391 502.615C181.719 502.578 181.677 502.245 181.5 501.964Z" fill="#DD8958"/>
<path d="M170.62 490.786C170.802 490.505 171.229 490.807 171.042 491.088C170.312 492.187 169.776 493.453 168.963 494.484C168.854 494.625 168.661 494.5 168.703 494.344C169.031 493.073 169.906 491.865 170.62 490.786Z" fill="#4A1F15"/>
<path d="M174.083 494.276C174.604 493.542 175.182 492.839 175.781 492.167C176.031 491.885 176.5 492.198 176.266 492.516C175.75 493.203 175.271 493.906 174.828 494.641C174.432 495.286 174.089 496.089 173.51 496.578C173.323 496.734 173.01 496.578 173.042 496.328C173.141 495.594 173.667 494.875 174.083 494.276Z" fill="#4A1F15"/>
<path d="M178.349 485.745C179.896 485.479 180.198 484.13 181.26 483.213C182.318 482.307 183.635 482.599 184.844 482.984C185.51 483.193 186.385 483.495 187.047 483.12C187.687 482.755 188.068 481.823 188.516 481.266C189.396 480.177 190.469 479.266 191.677 478.552C191.87 478.437 192.073 478.76 191.885 478.885C190.406 479.891 189.37 481.161 188.51 482.713C187.833 483.943 186.797 484.385 185.417 484.125C184.698 483.984 184.005 483.651 183.276 483.578C182.302 483.484 181.766 483.984 181.234 484.719C180.599 485.594 179.547 487.047 178.281 486.411C177.995 486.266 177.99 485.807 178.349 485.745Z" fill="#4A1F15"/>
<path d="M179.427 479.385C180.755 479 182.172 478.833 183.537 478.625C183.875 478.573 183.964 479.073 183.625 479.151C182.542 479.396 181.479 479.687 180.401 479.974C179.448 480.229 178.781 480.531 178.104 481.245C177.912 481.453 177.557 481.224 177.589 480.969C177.698 480.047 178.63 479.614 179.427 479.385Z" fill="#4A1F15"/>
<path d="M205.396 476.177C207.516 476.854 209.25 479.036 210.396 480.839C210.583 481.135 210.141 481.391 209.937 481.12C209.266 480.198 208.5 479.375 207.651 478.615C206.854 477.906 205.917 477.359 205.141 476.625C204.958 476.448 205.135 476.094 205.396 476.177Z" fill="#4A1F15"/>
<path d="M204.047 473.594C204.901 473.792 205.724 474.276 206.516 474.635C206.781 474.755 206.563 475.141 206.302 475.026C205.516 474.682 204.625 474.396 203.922 473.906C203.771 473.802 203.849 473.552 204.047 473.594Z" fill="#4A1F15"/>
<path d="M210.563 500.479C210.5 500.568 210.172 500.911 209.849 500.911C209.245 500.922 208.906 500.578 208.828 500.422C208.474 499.677 208.224 497.193 209.63 497.349C210.854 497.484 211.193 499.656 210.563 500.479Z" fill="#36201F"/>
<path d="M197.859 501.552C197.792 501.641 197.469 501.984 197.146 501.984C196.537 501.995 196.193 501.651 196.12 501.495C195.76 500.75 195.521 498.266 196.922 498.422C198.146 498.557 198.484 500.729 197.859 501.552Z" fill="#36201F"/>
<path d="M206.12 507.625C206.604 507.328 207.203 507.047 207.307 506.453C207.406 505.943 207 505.182 206.75 504.745C205.823 503.14 205.042 501.729 204.615 500.031C204.51 499.62 205.073 499.463 205.276 499.864C205.932 501.172 206.63 502.62 207.438 503.932C207.875 504.635 208.427 505.521 208.396 506.39C208.349 507.849 205.854 508.672 204.792 509.062C204.547 509.151 204.323 508.693 204.516 508.557C205.063 508.167 205.443 508.047 206.12 507.625Z" fill="#DD8958"/>
<path d="M360.979 398.906L384.349 407.214C384.349 407.214 383.562 430.036 381.932 430.255C380.297 430.479 357.099 427.047 355.318 421.542C353.547 416.042 351.01 400.469 360.979 398.906Z" fill="#F3E3D5"/>
<path d="M210.87 541.776C210.87 541.776 206.437 537.594 204 536.516C203.391 536.25 202.302 535.927 200.911 535.568C202.984 534.906 204.838 533.891 206.531 532.552C209.521 537.385 210.87 541.776 210.87 541.776Z" fill="#F3E3D5"/>
<path d="M253.151 493.146C253.063 496.021 250.661 498.724 250.661 498.724C250.661 498.724 247 494.776 246.396 494.625C245.328 494.344 242.922 494.635 242.099 494.042C241.562 493.651 241.557 493.271 241.651 493.016C241.708 492.865 241.802 492.755 241.833 492.724L241.839 492.719C241.839 492.719 241.833 492.719 241.818 492.724C241.594 492.745 239.635 492.937 239.469 491.87C239.365 491.203 239.906 491.026 239.906 491.026C239.906 491.026 239.438 490.828 239.438 490.156C239.438 489.62 240.255 489.349 240.62 489.266C242.031 488.927 246.318 488.135 246.318 488.135C246.318 488.135 246.865 487.995 247.167 487.911C248.13 487.646 249.656 487.172 250.286 486.708C250.917 487 251.427 487.297 251.615 487.484C253.026 488.937 253.234 490.568 253.151 493.146Z" fill="#FFAE80"/>
<path d="M247.312 484.833C245.187 484.516 242.203 484.37 241.021 484.474C239.927 484.568 240.417 485.755 241.021 485.922C241.552 486.068 245.448 486.729 245.448 486.729C245.448 486.729 247.266 488.125 247.776 488.26C249.266 488.656 251.552 488 251.338 487.313C250.396 486.464 248.005 484.932 247.312 484.833Z" fill="#FFAE80"/>
<path d="M236.802 487.391C236.802 487.391 235.516 492.063 235.578 493.12C235.724 495.792 236.099 501.63 236.099 501.63C236.099 501.63 241.031 500.703 240 497.583C238.969 494.464 239.818 485.885 236.802 487.391Z" fill="#FFAE80"/>
<path d="M249.714 491.104C248.74 490.646 247.75 490.26 247.115 489.99C245.854 490.073 245.005 490.125 243.609 490.323C242.589 490.469 241.604 490.573 239.922 490.99C239.854 491.005 239.859 491.177 239.922 491.161C242.063 490.776 242.281 490.875 243.495 490.703C244.568 490.557 245.766 490.51 247.073 490.443C247.891 490.807 248.833 491.224 249.526 491.573C250.115 491.875 250.307 491.38 249.714 491.104Z" fill="#DD8958"/>
<path d="M249.255 494.146C248.516 493.854 247.271 493.078 246.495 492.734C245.734 492.734 245.016 492.703 244.297 492.734C243.333 492.781 242.495 492.906 241.656 493.016C241.714 492.859 241.802 492.755 241.833 492.724L241.839 492.714C242.646 492.583 243.406 492.437 244.312 492.37C245.057 492.302 245.854 492.26 246.656 492.219C247.37 492.594 248.807 493.453 249.422 493.885C249.604 494.01 249.453 494.229 249.255 494.146Z" fill="#DD8958"/>
<path d="M249.578 489.156C249.578 489.213 249.479 489.323 249.292 489.213C248.526 488.87 247.255 488.38 246.474 488.094C246.62 488.057 246.87 487.99 247.172 487.911C247.922 488.198 248.823 488.578 249.354 488.88C249.479 488.948 249.604 488.995 249.578 489.156Z" fill="#DD8958"/>
<path d="M458.078 345.078C457.276 345.495 456.859 346.771 456.49 347.713C457.802 347.818 460.161 347.713 460.474 347.932C461.375 348.562 464.422 350.364 465.302 350.875C465.969 351.266 466.713 350.365 466.505 350.068C465.594 348.766 464.208 347.12 462.37 345.307C461.995 344.932 459.109 344.641 458.078 345.078Z" fill="#FFAE80"/>
<path d="M461.146 344.536C460.333 344.948 459.922 346.453 459.547 347.391C460.865 347.495 463.224 347.167 463.531 347.385C464.443 348.021 467.141 349.62 468.026 350.13C468.693 350.521 469.568 349.521 469.568 349.521C469.568 349.521 467.266 346.573 465.438 344.76C465.057 344.385 462.167 344.094 461.146 344.536Z" fill="#FFAE80"/>
<path d="M465.703 344.896C464.896 345.328 464.51 346.838 464.151 347.781C465.474 347.864 467.823 347.489 468.141 347.703C469.057 348.323 470.974 349.302 471.865 349.802C472.542 350.182 473.682 349.292 473.682 349.292C473.682 349.292 471.854 346.828 469.995 345.047C469.609 344.682 466.714 344.443 465.703 344.896Z" fill="#FFAE80"/>
<path d="M468.198 347.542C467.995 347.01 467.495 346.615 467.109 346.208C466.688 345.755 466.26 345.24 465.74 344.911C465.672 344.87 465.615 344.943 465.641 345C465.912 345.526 466.365 345.969 466.76 346.406C467.135 346.833 467.599 347.245 468.037 347.667C468.099 347.729 468.24 347.641 468.198 347.542Z" fill="#DD8958"/>
<path d="M465.714 348.698C465.036 347.568 463.229 345.573 463.109 345.479C462.656 345.026 461.969 344.901 461.333 344.849C461.224 344.839 461.198 345.026 461.313 345.047C461.932 345.162 462.464 345.448 463.01 345.74C463.807 346.766 464.594 347.948 465.578 348.802C465.651 348.865 465.766 348.787 465.714 348.698Z" fill="#DD8958"/>
<path d="M460.365 344.911C460.406 344.828 460.318 344.75 460.25 344.823C459.469 345.599 459.01 346.62 459.208 347.724C459.224 347.833 459.411 347.807 459.401 347.698C459.354 347.115 459.453 346.516 459.74 346C459.948 345.63 460.161 345.302 460.365 344.911Z" fill="#DD8958"/>
<path d="M454.12 360.177C454.422 361.037 456.964 363.146 457.839 363.646C458.49 362.406 459.891 359.74 460.099 359.422C460.833 358.344 462.417 356.354 462.969 355.344C463.339 354.667 461.698 353.792 461.698 353.792C461.698 353.792 459.234 355.787 457.182 357.344C456.755 357.667 455.531 358.719 454.12 360.177Z" fill="#FFAE80"/>
<path d="M421.323 441.891C409.87 450.208 394.531 453.594 380.74 453.776C379.5 453.792 379.51 451.911 380.74 451.859C388.594 451.51 396.266 450.021 403.693 447.443C409.63 445.385 415.151 442.5 420.651 439.547C420.891 440.333 421.104 441.115 421.323 441.891Z" fill="#593231"/>
<path d="M425.422 461.698C413.677 468.854 399.271 471.328 385.703 473.385C383.953 473.646 383.188 470.984 384.964 470.688C394.141 469.172 403.292 467.536 412.125 464.547C416.714 462.995 420.969 460.927 425.042 458.531C425.198 459.63 425.328 460.687 425.422 461.698Z" fill="#593231"/>
<path d="M385.714 391.896C382.74 396.906 376.656 399.844 371.016 400.094C362.995 400.432 355.542 395.818 347.5 397.531C346.927 397.651 346.703 396.838 347.26 396.651C353.37 394.63 359.135 396.974 365.208 398.062C368.953 398.734 372.635 398.719 376.255 397.448C379.62 396.276 382.219 394.083 384.75 391.708C385.089 391.776 385.406 391.838 385.714 391.896Z" fill="#496822"/>
<path d="M203.037 536.5C199.406 538.745 196.156 541.276 191.833 542.104C186.974 543.031 182.349 541.573 177.88 539.786C170.708 536.906 163.047 533.385 155.537 537.213C154.865 537.557 155.453 538.521 156.125 538.219C166.125 533.651 175.599 542.265 185.146 544.026C191.662 545.229 200.412 543.562 203.917 537.38C204.229 536.833 203.594 536.156 203.037 536.5Z" fill="#496822"/>
<path d="M214.318 531.458C213.62 532.328 212.349 533.396 211.214 533.5C209.901 533.625 209.667 532.974 210.87 532.401C212.193 531.776 212.427 531.188 212.875 530.354C213.031 530.063 213.057 529.51 213.141 529.198C213.255 529.391 213.359 529.583 213.469 529.781C213.776 530.365 213.979 530.74 214.318 531.458Z" fill="#D45915"/>
<path d="M395.641 385.412C394.937 386.287 393.661 387.354 392.536 387.458C391.224 387.583 390.984 386.932 392.187 386.359C393.51 385.729 393.745 385.146 394.193 384.313C394.344 384.021 394.38 383.469 394.458 383.151C394.568 383.349 394.677 383.542 394.786 383.74C395.094 384.323 395.292 384.698 395.641 385.412Z" fill="#D45915"/>
<path d="M236.703 606.099C224.229 612.068 209.406 614.792 195.781 614.042C194.536 613.969 194.521 612.083 195.781 612.094C209.99 612.266 223.563 608.344 236.38 602.885C236.51 604.042 236.667 605.094 236.703 606.099Z" fill="#593231"/>
<path d="M165.88 568.729C166.109 569.385 182.771 582.365 182.771 582.365L199.089 566.276L182.484 552.552C182.484 552.552 158.74 548.109 165.88 568.729Z" fill="#F3E3D5"/>
<path d="M357.833 354.922C356.385 356.313 356.432 358.011 355.917 359.859C355.12 362.698 352.937 363.984 351.307 366.229C350.276 367.656 350.036 368.953 350.255 370.672C350.552 372.984 350.974 374.839 350.062 377.099C348.906 379.979 346.234 381.761 343.042 381.318C342.719 381.271 342.568 381.755 342.906 381.823C348.213 382.828 351.828 378.177 351.542 373.146C351.401 370.734 350.609 368.63 352.292 366.474C353.161 365.349 354.365 364.505 355.245 363.386C357.135 360.99 356.922 357.917 358.266 355.261C358.411 354.984 358.068 354.698 357.833 354.922Z" fill="#8F4B35"/>
<path d="M359.01 347.391C357.24 347.974 355.354 349.385 354.453 351.036C353.859 352.12 353.917 353.307 353.562 354.458C353.12 355.87 352.151 357.125 351.292 358.302C351.135 358.516 351.479 358.776 351.651 358.583C352.984 357.078 354.083 355.641 354.516 353.641C354.839 352.13 355.276 350.937 356.458 349.88C357.328 349.099 358.375 348.578 359.24 347.797C359.422 347.635 359.24 347.318 359.01 347.391Z" fill="#8F4B35"/>
<path d="M381.714 333.969C378.604 341.484 366.943 337.625 364.823 345.734C364.74 346.068 365.245 346.203 365.344 345.875C367.599 338.344 381.802 342.615 382.255 334.042C382.276 333.703 381.823 333.703 381.714 333.969Z" fill="#8F4B35"/>
<path d="M358.203 365.651C354.469 370.865 359.344 378.13 354.792 382.932C354.599 383.141 354.906 383.458 355.115 383.25C359.896 378.511 355.531 371.266 358.458 365.797C358.552 365.63 358.318 365.5 358.203 365.651Z" fill="#8F4B35"/>
<path d="M190.875 681.729C190.833 681.729 190.833 681.796 190.875 681.796C190.922 681.796 190.922 681.729 190.875 681.729Z" fill="#9BC4DE"/>
<path d="M192.401 560.99C187.614 566.156 181.807 572.224 176.552 576.891C172.937 573.833 169.203 570.922 165.734 567.662C165.427 567.365 165 567.807 165.271 568.125C168.193 571.552 178.13 579.214 179.109 579.698C179.328 579.807 179.588 579.526 179.38 579.344C178.64 578.677 177.89 578.031 177.13 577.386C182.687 572.844 189.021 567.271 192.953 561.417C193.177 561.083 192.672 560.698 192.401 560.99Z" fill="#D6C2B0"/>
<path d="M196.698 564.427C194.052 561.365 190.781 558.807 187.76 556.125C187.411 555.818 186.906 556.318 187.25 556.635C190.224 559.406 193.094 562.437 196.417 564.797C196.646 564.963 196.865 564.62 196.698 564.427Z" fill="#D6C2B0"/>
<path d="M380.146 429.453C378.849 429.354 377.568 429.234 376.292 429.099C376.307 429.068 376.318 429.031 376.318 428.99C376.641 425 376.401 420.943 376.563 416.938C376.729 412.922 377.042 408.922 377.271 404.917C377.287 404.557 376.698 404.469 376.641 404.828C375.344 412.552 374.568 421.245 375.682 429.037C369.901 428.385 364.328 427.292 358.823 425.042C358.38 424.865 358.057 425.615 358.495 425.818C365.214 428.885 372.708 430.88 380.146 430.24C380.646 430.198 380.651 429.495 380.146 429.453Z" fill="#D6C2B0"/>
<path d="M249.12 723.063C248.958 721.729 248.333 720.781 247.037 720.333C246.167 720.037 245.641 720.224 244.854 720.62C243.974 721.063 243.453 722.115 243.448 723.063C243.427 727.88 244.766 732.516 244.943 737.297C245.016 739.219 247.662 739.13 247.875 737.297C248.427 732.469 249.703 727.974 249.12 723.063Z" fill="#CAE7FA"/>
<path d="M252.807 729.438C251.911 731.276 251.797 733.255 251.568 735.255C251.401 736.646 253.693 737.261 254.255 735.979C255.073 734.136 255.974 732.386 256.141 730.344C256.281 728.599 253.573 727.875 252.807 729.438Z" fill="#CAE7FA"/>
<path d="M73.6641 693.094C71.2005 691.615 68.763 690.099 66.3099 688.604C64.2214 687.323 61.9922 685.464 59.4557 686.146C58.4766 686.406 57.7422 687.557 58.0859 688.563C58.9401 691.084 61.5286 691.844 63.7995 692.891C66.4193 694.104 69.0443 695.292 71.6589 696.521C73.9401 697.599 75.8932 694.427 73.6641 693.094Z" fill="#CAE7FA"/>
<path d="M59.8086 707.301C58.6419 707.229 57.4701 707.187 56.3086 707.031C55.4492 706.911 54.8451 707.135 54.3242 707.838C53.8919 708.426 53.8919 709.015 54.3242 709.609C54.8503 710.317 55.4544 710.531 56.3086 710.411C57.4701 710.255 58.6419 710.213 59.8086 710.14C61.6367 710.031 61.6419 707.411 59.8086 707.301Z" fill="#CAE7FA"/>
<path d="M334.516 734.396C331.474 730.104 325.432 724.667 319.719 725.974C318.625 726.224 318.448 727.906 319.297 728.51C321.193 729.88 323.562 730.37 325.62 731.453C327.963 732.688 329.953 734.427 331.594 736.495C333.021 738.302 335.865 736.297 334.516 734.396Z" fill="#CAE7FA"/>
<path d="M331.932 740.38C329.995 740 328.062 739.615 326.13 739.234C324.448 738.901 322.828 738.474 321.12 738.734C319.99 738.901 319.974 740.516 320.818 741.026C322.266 741.912 324.01 742.094 325.656 742.427C327.458 742.792 329.255 743.156 331.062 743.526C333.115 743.943 333.99 740.787 331.932 740.38Z" fill="#CAE7FA"/>
<path d="M346.188 330.615C346.188 330.615 348.162 333.406 349.922 333.776C351.688 334.146 388.604 324.729 390.943 323.677C393.281 322.625 399.552 307.599 398.635 306.255C397.719 304.917 373.802 316.964 366.938 319.49C360.063 322.011 343.662 328.026 346.188 330.615Z" fill="#F3E3D5"/>
<path d="M390.938 323.677L391.958 330.865L351.422 339.062L349.922 333.776L390.938 323.677Z" fill="#593231"/>
<path d="M390.234 318.375C387.974 319.807 386.766 327.349 389.682 327.016C391.682 326.786 391.417 324.526 392.464 322.203C393.625 319.599 395.531 315.026 390.234 318.375Z" fill="#FCC14F"/>
<path d="M361.698 334.771C361.698 334.771 390.74 328.292 391.62 328.474C392.573 328.677 392.401 329.979 391.844 330.042C391.287 330.109 363.068 336.495 361.807 336.214C360.547 335.932 360.865 335.042 361.698 334.771Z" fill="#FCC14F"/>
<path d="M391.958 330.865C392.188 330.875 399.318 333.213 399.318 333.213C399.318 333.213 400.042 337.135 363.682 336.583L391.958 330.865Z" fill="#593231"/>
<path d="M366.76 333.807C366.484 334.391 366.963 335.469 368.104 335.406C370.594 335.266 369.344 332.854 368.521 332.823C367.698 332.797 367.068 333.161 366.76 333.807Z" fill="#FCC14F"/>
</svg>
