
<svg xmlns="http://www.w3.org/2000/svg" xmlns:xlink="http://www.w3.org/1999/xlink" width="1080" zoomAndPan="magnify" viewBox="0 0 810 809.999993" height="1080" preserveAspectRatio="xMidYMid meet" version="1.0"><path fill="#ffae80" d="M 518.328125 174.34375 C 518.738281 175.300781 523.308594 169.582031 524.347656 170.082031 C 524.574219 168.59375 524.367188 165.945312 524.574219 165.558594 C 525.210938 164.363281 527.230469 161.214844 527.890625 160.253906 C 528.382812 159.519531 527.367188 157.660156 526.785156 157.835938 C 526.234375 158.007812 523.023438 161.5625 521.730469 163.191406 C 521.355469 163.667969 517.910156 173.140625 518.328125 174.34375 Z M 518.328125 174.34375 " fill-opacity="1" fill-rule="nonzero"/><path fill="#b3d2e6" d="M 805.710938 547.417969 C 818.644531 522.761719 798.644531 535.03125 711.964844 530.890625 C 626.824219 526.820312 567.011719 541.035156 462.960938 530.640625 C 358.910156 520.246094 374.785156 503.585938 217.390625 525.140625 C 59.992188 546.691406 16.3125 521.195312 -3.871094 524.828125 C -12.640625 526.402344 -1.464844 549.433594 21.722656 557.574219 C 34.167969 561.953125 79.546875 575.097656 68.921875 584.457031 C 25.417969 622.808594 139.953125 615.699219 183.582031 610.347656 C 204.363281 607.292969 264.785156 595.617188 246.441406 611.117188 C 166.601562 678.558594 326.433594 648.570312 368.503906 641.6875 C 398.636719 636.339844 427.722656 621.054688 458.886719 625.632812 C 480.1875 628.691406 499.929688 637.867188 521.222656 640.925781 C 538.363281 643.214844 555.015625 643.964844 573.167969 640.925781 C 644.960938 628.90625 718.839844 617 666.660156 601.179688 C 642.691406 593.902344 797.960938 562.183594 805.710938 547.417969 Z M 805.710938 547.417969 " fill-opacity="1" fill-rule="nonzero"/><path fill="#9bc4de" d="M 74.839844 573.507812 C 72.160156 570.695312 67.992188 569.171875 64.621094 567.300781 C 60.792969 565.179688 56.964844 563.058594 53.175781 560.871094 C 51.824219 560.089844 50.71875 562.066406 51.96875 562.933594 C 55.574219 565.433594 59.210938 567.855469 62.984375 570.097656 C 66.296875 572.0625 69.898438 574.78125 73.742188 575.382812 C 74.808594 575.546875 75.664062 574.375 74.839844 573.507812 Z M 74.839844 573.507812 " fill-opacity="1" fill-rule="nonzero"/><path fill="#9bc4de" d="M 272.050781 618.527344 C 267.09375 615.578125 261.378906 613.894531 256.273438 611.171875 C 254.316406 610.132812 252.566406 613.113281 254.535156 614.140625 C 259.742188 616.875 265.570312 619.996094 271.507812 620.53125 C 272.609375 620.632812 272.914062 619.046875 272.050781 618.527344 Z M 272.050781 618.527344 " fill-opacity="1" fill-rule="nonzero"/><path fill="#9bc4de" d="M 392.070312 602.414062 C 388.855469 600.050781 383.964844 599.519531 380.125 598.605469 C 375.648438 597.527344 371.171875 596.460938 366.699219 595.386719 C 365.460938 595.085938 364.84375 596.890625 366.085938 597.296875 C 370.449219 598.722656 374.8125 600.144531 379.171875 601.574219 C 382.953125 602.804688 387.367188 604.933594 391.359375 604.609375 C 392.535156 604.515625 393.09375 603.167969 392.070312 602.414062 Z M 392.070312 602.414062 " fill-opacity="1" fill-rule="nonzero"/><path fill="#9bc4de" d="M 271.195312 574.453125 C 267.828125 574.863281 264.4375 575.0625 261.070312 575.460938 C 257.6875 575.867188 254.492188 576.910156 251.195312 577.734375 C 244.636719 579.382812 238.066406 581.113281 231.429688 582.425781 C 225.300781 583.636719 219.148438 584.476562 212.917969 584.945312 C 206.988281 585.398438 200.472656 586.179688 194.65625 584.613281 C 191.800781 583.847656 189.296875 582.296875 186.59375 581.113281 C 183.039062 579.5625 179.523438 578.675781 175.625 578.492188 C 168.722656 578.179688 161.960938 580.316406 155.457031 582.359375 C 150.378906 583.960938 143.554688 586.546875 138.269531 584.296875 C 137.570312 584 136.0625 582.761719 135.488281 581.964844 C 134.871094 581.109375 134.648438 580.609375 134.519531 579.890625 C 134.570312 580.121094 134.53125 579.347656 134.589844 579.234375 C 136.886719 574.558594 134.226562 566.890625 127.90625 567.589844 C 119.308594 568.554688 110.546875 569.761719 102.257812 572.316406 C 94.269531 574.773438 85.671875 577.40625 78.785156 582.203125 C 74.273438 585.351562 77.207031 591.359375 82.355469 590.664062 C 90.074219 589.625 97.554688 587.175781 105.269531 585.898438 C 109.957031 585.125 114.628906 584.394531 119.332031 583.839844 C 120.539062 589.835938 124.5625 595.347656 130.109375 598.566406 C 141.875 605.394531 154.871094 599.59375 166.722656 596.441406 C 171.835938 595.085938 176.417969 594.609375 181.242188 597.066406 C 187.269531 600.125 192.996094 601.933594 199.78125 602.351562 C 212.023438 603.101562 224.757812 601.421875 236.78125 599.191406 C 243.488281 597.945312 250.011719 596.347656 256.394531 593.941406 C 259.621094 592.722656 263.097656 591.605469 265.984375 589.683594 C 269.023438 587.664062 271.875 585.191406 274.683594 582.863281 C 277.816406 580.277344 275.382812 573.945312 271.195312 574.453125 Z M 271.195312 574.453125 " fill-opacity="1" fill-rule="nonzero"/><path fill="#b3d2e6" d="M 704.960938 523.84375 C 700.550781 525.375 694.492188 528.6875 689.761719 526.886719 C 684.445312 524.867188 688.160156 519.699219 685.410156 515.925781 C 682.796875 512.339844 678.054688 512.421875 674.078125 512.660156 C 668.316406 513.011719 662.574219 514.046875 656.980469 515.472656 C 645.910156 518.292969 635.382812 522.804688 624.785156 526.980469 C 619.683594 528.992188 614.554688 531.027344 609.304688 532.609375 C 607.589844 533.125 605.257812 534.109375 603.949219 532.398438 C 602.917969 531.042969 603.371094 528.449219 603.6875 526.953125 C 605.410156 518.714844 537.824219 521.269531 519.488281 538.339844 C 517.5 540.183594 518.117188 546.804688 520.390625 545.972656 C 525.949219 545.742188 542.882812 537.683594 549.125 545.542969 C 553.070312 550.519531 554.160156 556.832031 559.058594 561.25 C 570.8125 571.871094 587.832031 569.015625 600.585938 562.03125 C 607.984375 557.980469 614.378906 551.691406 622.410156 548.847656 C 625.894531 547.613281 629.917969 547.042969 633.515625 548.199219 C 637.335938 549.417969 639.394531 552.511719 641.796875 555.472656 C 646.71875 561.523438 652.945312 563.78125 660.535156 561.136719 C 664.449219 559.777344 668.042969 557.597656 671.769531 555.796875 C 676.007812 553.730469 680.367188 551.910156 684.796875 550.28125 C 694.347656 546.777344 719.296875 548.90625 729.359375 547.4375 C 739.289062 545.988281 765.527344 546.328125 775.359375 544.628906 C 776.882812 544.367188 776.597656 540.59375 774.246094 539.980469 C 771.085938 539.160156 716.40625 519.859375 704.960938 523.84375 Z M 704.960938 523.84375 " fill-opacity="1" fill-rule="nonzero"/><path fill="#ffae80" d="M 234.175781 374.828125 C 229.65625 377.582031 202.238281 379.652344 202.238281 379.652344 L 200.097656 401.96875 C 214.089844 402.492188 240.066406 400.410156 246.539062 395.324219 C 252.640625 390.519531 276.648438 353.902344 281.355469 346 C 276.832031 343.769531 274.542969 343.59375 269.785156 342.074219 C 263.835938 348.6875 238.257812 372.339844 234.175781 374.828125 Z M 234.175781 374.828125 " fill-opacity="1" fill-rule="nonzero"/><path fill="#b06248" d="M 416.164062 212.753906 C 416.980469 205.636719 415.378906 191.824219 415.320312 189.402344 C 415.230469 186.359375 413.964844 178.988281 410.636719 178.144531 C 408.339844 177.554688 394.148438 202.179688 391.769531 202.113281 C 388.355469 202.019531 379.828125 205.964844 377.125 208.539062 C 371.769531 213.644531 372.324219 225.972656 373.078125 226.785156 C 374.796875 228.628906 376.863281 229.460938 379.34375 229.816406 C 381.429688 230.117188 383.527344 230.027344 385.605469 230.351562 C 387.789062 230.699219 392.355469 229.210938 394.496094 229.726562 C 399.699219 230.988281 405.734375 227.644531 409.191406 222.941406 C 409.535156 222.476562 416.105469 213.230469 416.164062 212.753906 Z M 416.164062 212.753906 " fill-opacity="1" fill-rule="nonzero"/><path fill="#ffae80" d="M 525.769531 196.71875 C 525.769531 196.71875 533.664062 186.832031 535 180.132812 C 535.984375 175.222656 523.921875 157.796875 520.582031 168.058594 C 516.410156 180.851562 514.019531 186.6875 513.730469 187.246094 C 517.273438 191.476562 519.238281 193.976562 523.285156 197.824219 C 524.285156 197.101562 525.769531 196.71875 525.769531 196.71875 Z M 525.769531 196.71875 " fill-opacity="1" fill-rule="nonzero"/><path fill="#ffae80" d="M 513.730469 187.246094 C 513.730469 187.257812 483.183594 225.980469 479.261719 226.660156 C 475.339844 227.335938 447.238281 224.183594 447.238281 224.183594 L 448.988281 248.023438 C 448.988281 248.023438 479.386719 252.015625 486.324219 249.578125 C 493.21875 247.15625 519.730469 205.769531 526.050781 196.363281 C 520.59375 195.148438 518.945312 189.042969 513.730469 187.246094 Z M 513.730469 187.246094 " fill-opacity="1" fill-rule="nonzero"/><path fill="#593231" d="M 487.171875 322.117188 C 488.226562 323.605469 556.410156 380.042969 560.210938 389.796875 C 563.859375 399.15625 563.199219 468.328125 563.199219 468.328125 L 539.53125 470.570312 C 539.53125 470.570312 528.359375 418.050781 526.605469 413.480469 C 524.835938 408.914062 470.800781 373.273438 470.800781 373.273438 L 449.25 484.4375 L 423.125 482.398438 C 423.125 482.398438 421.050781 419.355469 421.183594 398.214844 C 421.21875 392.394531 416.84375 370.816406 415.84375 361.355469 C 414.464844 348.265625 417.375 334.859375 417.375 334.859375 Z M 487.171875 322.117188 " fill-opacity="1" fill-rule="nonzero"/><path fill="#f3e3d5" d="M 266.289062 494.144531 C 266.746094 490.472656 266.15625 487.183594 265.644531 483.554688 C 265.109375 479.707031 265.1875 475.824219 265.101562 471.957031 C 264.984375 466.429688 264.753906 459.355469 262.390625 453.882812 C 261.929688 449.597656 259.332031 445.539062 257.808594 441.578125 C 255.730469 436.191406 252.066406 431.273438 251.46875 425.511719 C 250.957031 420.519531 248.878906 416.5 246.683594 412.078125 C 244.292969 407.277344 243.089844 402.164062 242.136719 396.917969 C 240.550781 388.175781 239.941406 376.503906 231.414062 371.554688 C 226.734375 368.839844 220.933594 366.734375 215.625 365.800781 C 212.601562 365.269531 208.691406 362.011719 205.660156 361.707031 C 200.714844 359.941406 195.878906 365.199219 192.402344 368.316406 C 187.378906 372.820312 186.703125 376.152344 183.625 382.210938 C 180.492188 388.375 180.546875 394.839844 180.777344 401.578125 C 180.921875 405.757812 180.339844 409.589844 179.640625 413.695312 C 179.125 416.726562 179.011719 419.582031 179.957031 422.53125 C 180.492188 424.234375 184.277344 424.792969 185.589844 424.929688 C 183.84375 427.832031 183.695312 431.71875 183.726562 435.003906 C 183.785156 440.363281 183.617188 445.625 183.058594 450.960938 C 182.539062 455.863281 181.878906 460.757812 181.464844 465.667969 C 181.289062 467.648438 180.855469 470.015625 181.167969 472.0625 C 180.285156 472.527344 179.796875 473.609375 180.417969 474.722656 C 183.726562 480.691406 190.925781 483.664062 196.902344 486.152344 C 204.234375 489.207031 209.65625 495.203125 217.136719 497.898438 C 224.265625 500.46875 231.859375 500.378906 239.304688 499.585938 C 246.570312 498.8125 254.492188 498.285156 261.621094 496.328125 C 263.484375 497.179688 265.984375 496.640625 266.289062 494.144531 Z M 266.289062 494.144531 " fill-opacity="1" fill-rule="nonzero"/><path fill="#f3e3d5" d="M 488.265625 320.402344 C 487.453125 314.769531 483.941406 306.195312 483.191406 300.550781 C 483.140625 300.199219 462.628906 221.316406 462.15625 220.433594 C 456.914062 213.570312 437.847656 205.894531 422.445312 209.457031 C 409.578125 212.433594 401.988281 235.34375 401.691406 242.675781 C 401.074219 257.738281 403.339844 273.1875 405.273438 288.109375 C 407.125 302.453125 410.214844 333.351562 410.285156 334.039062 C 410.382812 334.9375 417.386719 337.539062 419.515625 338.144531 C 423.585938 339.3125 427.949219 339.550781 432.164062 339.28125 C 441.5 338.703125 450.488281 335.773438 459.820312 335.070312 C 464.628906 334.710938 466.167969 332.804688 470.988281 332.578125 C 474.871094 332.390625 478.894531 328.550781 482.527344 326.988281 C 486.535156 325.277344 488.75 323.730469 488.265625 320.402344 Z M 488.265625 320.402344 " fill-opacity="1" fill-rule="nonzero"/><path fill="#f3e3d5" d="M 402.425781 232.125 C 401.824219 232.125 401.824219 233.058594 402.425781 233.058594 C 403.019531 233.058594 403.023438 232.125 402.425781 232.125 Z M 402.425781 232.125 " fill-opacity="1" fill-rule="nonzero"/><path fill="#b9d386" d="M 199.734375 431.523438 C 188.707031 429.886719 179.84375 418.765625 181.855469 406.40625 C 183.351562 397.152344 202.238281 384.191406 218.6875 399.410156 C 233.511719 413.132812 212.429688 433.40625 199.734375 431.523438 Z M 270.5625 463.226562 C 270.523438 462.078125 270.4375 460.84375 270.300781 459.523438 C 269.871094 455.332031 268.972656 450.3125 267.738281 444.8125 C 267.492188 443.652344 267.210938 442.476562 266.917969 441.273438 C 261.417969 418.308594 251.027344 388.816406 245.042969 376.46875 C 244.65625 375.648438 244.269531 374.902344 243.921875 374.242188 C 243.796875 374.011719 243.671875 373.792969 243.542969 373.570312 C 238.441406 364.648438 230.628906 362.46875 221.378906 363.824219 C 219.015625 362.8125 214.398438 360.617188 210.269531 360.886719 C 201.257812 361.464844 198.257812 360.289062 188.105469 365.460938 C 177.953125 370.625 165.601562 379.8125 166.65625 383.589844 C 167.523438 386.71875 172.3125 388.9375 175.417969 387.828125 C 172.78125 393.601562 171.3125 400.570312 172.03125 408.890625 C 172.285156 411.863281 176.613281 485.472656 191.105469 488.199219 C 210.066406 491.75 266.585938 486.425781 270.257812 468.375 C 270.535156 467 270.625 465.257812 270.5625 463.226562 Z M 270.5625 463.226562 " fill-opacity="1" fill-rule="nonzero"/><path fill="#b9d386" d="M 419.789062 267.664062 C 409.636719 266.988281 403.382812 254.257812 404.121094 234.726562 C 404.644531 220.769531 433.039062 223.183594 434.972656 245.503906 C 436.429688 262.339844 432.609375 268.523438 419.789062 267.664062 Z M 486.113281 296.460938 C 486 295.308594 485.863281 294.097656 485.679688 292.84375 L 485.679688 292.839844 C 484.855469 287.199219 483.332031 280.660156 481.429688 273.835938 C 481.183594 272.949219 480.933594 272.054688 480.667969 271.15625 C 475.285156 252.558594 467.460938 232.511719 463.703125 223.265625 C 461.417969 217.644531 452.074219 209.464844 452.074219 209.464844 C 452.074219 209.464844 451.5625 205.679688 447.242188 204.722656 C 444.738281 204.167969 435.429688 203.394531 431.304688 203.625 C 422.695312 204.113281 419.601562 205.121094 408.957031 209.183594 C 398.3125 213.242188 391.820312 217.789062 392.460938 221.65625 C 392.992188 224.855469 396.320312 225.183594 399.515625 224.402344 C 396.28125 229.871094 393.992188 240 393.832031 248.332031 C 393.769531 251.324219 395.015625 321.574219 409.132812 325.8125 C 427.609375 331.355469 481.476562 320.242188 485.617188 306.652344 C 486.390625 304.128906 486.503906 300.625 486.113281 296.460938 Z M 486.113281 296.460938 " fill-opacity="1" fill-rule="nonzero"/><path fill="#ffae80" d="M 426.730469 215.015625 C 406.625 214.605469 429.265625 204.507812 429.265625 204.507812 C 429.265625 204.507812 435.8125 205.324219 440.371094 209.441406 C 442.542969 211.386719 444.191406 214.46875 445.40625 217.847656 C 445.40625 217.847656 436.25 215.210938 426.730469 215.015625 Z M 426.730469 215.015625 " fill-opacity="1" fill-rule="nonzero"/><path fill="#ffae80" d="M 438.773438 200.566406 C 438.773438 200.566406 438.386719 204.382812 438.136719 207.578125 C 437.90625 210.589844 430.777344 215.628906 424.535156 214.960938 C 417.421875 214.191406 412.296875 211.832031 411.59375 206.808594 C 411.523438 206.292969 413.816406 197.4375 414.464844 187.378906 C 414.554688 185.925781 437.074219 196.972656 438.773438 200.566406 Z M 438.773438 200.566406 " fill-opacity="1" fill-rule="nonzero"/><path fill="#ffae80" d="M 451.21875 173.941406 C 450.878906 170.199219 451.160156 168.4375 451.125 167.785156 C 451.023438 166.144531 450.988281 164.746094 450.980469 163.726562 C 451.003906 163.132812 451.113281 162.53125 450.988281 161.941406 C 447.902344 147.246094 438.988281 142.1875 425.1875 142.664062 C 411.386719 143.136719 404.585938 155.652344 404.585938 163.792969 C 404.585938 172.246094 408.222656 176.039062 410.910156 181.546875 C 412.71875 184.480469 414.125 187.804688 415.316406 189.402344 C 418.960938 194.273438 425.3125 197.011719 430.253906 199.277344 C 433.875 200.929688 442.375 202.90625 445.796875 201.367188 C 447.398438 200.644531 452.015625 187.519531 452.027344 181.191406 C 452.035156 179.328125 451.457031 176.53125 451.21875 173.941406 Z M 451.21875 173.941406 " fill-opacity="1" fill-rule="nonzero"/><path fill="#dd8958" d="M 444.582031 184.820312 C 444.964844 184.386719 445.511719 184.195312 446 183.898438 C 446.464844 183.605469 446.875 183.253906 447.238281 182.851562 C 445.820312 179.457031 444.730469 175.914062 443.519531 172.449219 C 443.398438 172.117188 443.875 171.921875 444.023438 172.242188 C 445.566406 175.714844 447.28125 179.15625 448.59375 182.71875 C 448.671875 182.925781 448.660156 183.199219 448.507812 183.367188 C 447.667969 184.265625 446.195312 185.730469 444.832031 185.4375 C 444.566406 185.378906 444.382812 185.050781 444.582031 184.820312 Z M 444.582031 184.820312 " fill-opacity="1" fill-rule="nonzero"/><path fill="#b06248" d="M 428.746094 170.699219 C 430.722656 169.539062 432.007812 169.261719 433.78125 168.832031 C 434.640625 168.625 435.488281 168.492188 436.328125 168.46875 C 437.175781 168.445312 438.449219 168.300781 439.183594 168.714844 C 439.824219 169.070312 439.769531 170.003906 439.257812 170.945312 C 438.558594 172.222656 434.640625 171.707031 433.132812 171.992188 C 432.101562 172.1875 430.878906 172.367188 429.699219 172.5625 C 428.789062 172.710938 427.972656 171.164062 428.746094 170.699219 Z M 428.746094 170.699219 " fill-opacity="1" fill-rule="nonzero"/><path fill="#b06248" d="M 445.746094 170.011719 C 446.429688 170.535156 448.464844 170.492188 449.773438 170.378906 C 450.160156 170.34375 450.578125 170.386719 451.011719 170.398438 C 451.691406 169.789062 451.683594 168.457031 451.082031 167.761719 C 450.851562 167.703125 449.292969 167.304688 448.480469 167.304688 C 447.660156 167.304688 446.226562 167.386719 445.558594 167.863281 C 444.988281 168.28125 444.921875 169.386719 445.746094 170.011719 Z M 445.746094 170.011719 " fill-opacity="1" fill-rule="nonzero"/><path fill="#dd8958" d="M 438.671875 201.609375 C 438.671875 201.609375 433.1875 201.015625 430.003906 198.882812 C 425.871094 196.117188 423.914062 193.929688 423.914062 193.929688 C 423.914062 193.929688 425.980469 199.34375 430.835938 201.472656 C 435.628906 203.574219 438.484375 203.589844 438.484375 203.589844 Z M 438.671875 201.609375 " fill-opacity="1" fill-rule="nonzero"/><path fill="#dd8958" d="M 448.703125 189.53125 C 447.410156 189.964844 445.945312 190.292969 444.347656 190.574219 C 442.589844 190.882812 441.589844 190.929688 439.820312 190.839844 C 439.144531 190.804688 438.914062 191.746094 439.589844 191.886719 C 442.636719 192.53125 446.042969 191.886719 449 190.316406 C 449.390625 190.109375 449.144531 189.382812 448.703125 189.53125 Z M 448.703125 189.53125 " fill-opacity="1" fill-rule="nonzero"/><path fill="#36201f" d="M 450.308594 175.496094 C 450.238281 175.601562 449.878906 176.011719 449.515625 176.039062 C 448.832031 176.078125 448.414062 175.714844 448.320312 175.539062 C 447.863281 174.710938 447.429688 171.894531 449.039062 171.984375 C 450.445312 172.0625 450.960938 174.515625 450.308594 175.496094 Z M 450.308594 175.496094 " fill-opacity="1" fill-rule="nonzero"/><path fill="#b06248" d="M 438.613281 143.140625 C 434.484375 138.757812 418.21875 139.25 410.796875 144.390625 C 403.804688 149.238281 399.703125 157.367188 400.132812 165.816406 C 395.835938 168.75 392.390625 173.507812 393.359375 178.808594 C 393.777344 181.113281 393.253906 181.429688 391.558594 182.835938 C 390.398438 183.808594 389.320312 184.894531 388.4375 186.132812 C 386.71875 188.566406 385.902344 191.335938 386.511719 194.28125 C 387.113281 197.152344 388.550781 200.167969 385.449219 202.253906 C 384.015625 203.222656 382.441406 203.953125 381.027344 204.984375 C 378.453125 206.871094 376.167969 209.214844 374.710938 212.082031 C 372.535156 216.34375 371.894531 223.96875 376.660156 226.808594 C 377.230469 227.152344 378.023438 226.582031 377.816406 225.921875 C 377.613281 225.265625 377.398438 224.652344 377.183594 224.054688 C 377.230469 224.015625 377.28125 223.976562 377.320312 223.925781 C 377.707031 224.410156 378.714844 224.175781 378.679688 223.445312 C 378.515625 220.339844 379.839844 218.101562 381.53125 216.007812 C 381.796875 216.164062 382.136719 216.175781 382.378906 215.882812 C 385.539062 212.160156 390.296875 216.066406 393.695312 217.3125 C 395.855469 218.101562 398.304688 218.53125 400.597656 218.054688 C 402.78125 217.601562 404.757812 216.453125 406.054688 214.617188 C 406.683594 213.71875 406.898438 212.59375 407.476562 211.695312 C 407.839844 210.480469 408.714844 209.777344 410.121094 209.578125 C 410.535156 209.75 410.957031 209.851562 411.40625 209.878906 C 416.308594 208.945312 417.75 205.226562 418.289062 200.371094 C 418.761719 196.21875 418.421875 190.703125 415.964844 186.949219 C 418.839844 181.707031 416.636719 172.707031 418.628906 173.179688 C 423.863281 174.425781 423.558594 170.851562 423.984375 166.976562 C 424.28125 164.273438 426.675781 162.652344 429.71875 163.363281 C 430.984375 163.667969 432.269531 164.238281 433.609375 164.0625 C 435.101562 163.851562 436.550781 162.925781 437.648438 162.050781 C 438.816406 161.117188 439.644531 160.394531 440.546875 159.140625 C 440.976562 158.550781 441.28125 157.902344 441.554688 157.234375 C 443.910156 157.347656 445.328125 161.042969 447.328125 162.429688 C 448.898438 163.523438 450.726562 163.886719 450.976562 163.472656 C 452.773438 160.539062 453.355469 144.699219 438.613281 143.140625 Z M 438.613281 143.140625 " fill-opacity="1" fill-rule="nonzero"/><path fill="#ffae80" d="M 419.578125 173.402344 C 419.578125 173.402344 415.683594 169.285156 413.34375 174.230469 C 411.796875 177.496094 415.566406 184 421.015625 184.933594 C 422.148438 185.128906 418.113281 179.296875 419.578125 173.402344 Z M 419.578125 173.402344 " fill-opacity="1" fill-rule="nonzero"/><path fill="#dd8958" d="M 418.1875 179.25 C 417.671875 178.519531 416.953125 178.042969 416.640625 177.15625 C 416.367188 176.382812 416.40625 175.109375 417.039062 174.457031 C 417.515625 173.96875 416.726562 173.265625 416.214844 173.640625 C 415.023438 174.515625 414.839844 176.03125 415.160156 177.398438 C 415.464844 178.703125 416.589844 180.257812 418.101562 180 C 418.476562 179.933594 418.410156 179.554688 418.1875 179.25 Z M 418.1875 179.25 " fill-opacity="1" fill-rule="nonzero"/><path fill="#dd8958" d="M 433.871094 177.371094 C 435.449219 176.597656 436.894531 176.175781 438.535156 177.097656 C 438.847656 177.273438 439.179688 176.816406 438.90625 176.585938 C 437.371094 175.292969 434.703125 175.007812 433.40625 176.816406 C 433.15625 177.148438 433.476562 177.554688 433.871094 177.371094 Z M 433.871094 177.371094 " fill-opacity="1" fill-rule="nonzero"/><path fill="#fcc14f" d="M 449.867188 173.1875 C 449.867188 174.714844 451.058594 175.976562 452.585938 176.0625 L 511.917969 179.441406 L 511.917969 166.785156 L 452.582031 170.3125 C 451.054688 170.402344 449.867188 171.664062 449.867188 173.1875 Z M 449.867188 173.1875 " fill-opacity="1" fill-rule="nonzero"/><path fill="#fcc14f" d="M 512.75 180.132812 L 555.148438 180.132812 L 555.148438 166.25 L 512.75 166.25 Z M 512.75 180.132812 " fill-opacity="1" fill-rule="nonzero"/><path fill="#dda036" d="M 554 166.46875 L 554 179.90625 C 554 180.429688 554.421875 180.84375 554.9375 180.84375 L 555.351562 180.84375 C 555.875 180.84375 556.296875 180.429688 556.296875 179.90625 L 556.296875 166.46875 C 556.296875 165.953125 555.875 165.53125 555.351562 165.53125 L 554.9375 165.53125 C 554.421875 165.53125 554 165.953125 554 166.46875 Z M 554 166.46875 " fill-opacity="1" fill-rule="nonzero"/><path fill="#dda036" d="M 511.921875 166.863281 L 511.921875 179.476562 C 511.921875 179.921875 512.28125 180.28125 512.71875 180.28125 L 513.417969 180.28125 C 513.855469 180.28125 514.214844 179.921875 514.214844 179.476562 L 514.214844 166.863281 C 514.214844 166.421875 513.855469 166.058594 513.417969 166.058594 L 512.71875 166.058594 C 512.28125 166.058594 511.921875 166.421875 511.921875 166.863281 Z M 511.921875 166.863281 " fill-opacity="1" fill-rule="nonzero"/><path fill="#ffae80" d="M 478.730469 167.542969 C 478.34375 166.761719 475.125 166.308594 475.335938 167.207031 C 475.601562 168.160156 475.601562 168.195312 475.601562 168.195312 C 475.601562 168.195312 475.46875 167.804688 475.222656 167.136719 C 474.785156 166.125 471.101562 166.136719 471.519531 167.363281 C 471.746094 167.921875 471.804688 168.402344 471.851562 168.527344 C 471.875 168.59375 471.816406 168.410156 471.746094 168.273438 C 471.65625 168.082031 471.566406 167.796875 471.398438 167.375 C 470.453125 166.257812 467.367188 166.917969 467.550781 168 C 467.613281 168.1875 467.664062 168.328125 467.667969 168.394531 C 467.640625 168.308594 467.585938 168.171875 467.515625 168.003906 C 466.90625 166.625 463.058594 167.695312 463.277344 169.265625 C 463.414062 170.289062 463.53125 171.324219 463.628906 172.324219 C 464.0625 176.863281 461.859375 176.597656 461.859375 176.597656 L 458.871094 176.429688 C 458.871094 176.429688 460.144531 182.363281 460.824219 183.980469 C 462.675781 188.394531 466.507812 191.953125 466.507812 191.953125 C 466.507812 191.953125 469.476562 193.464844 471.601562 193.660156 C 473.839844 193.863281 479.394531 192.679688 479.394531 192.679688 C 479.394531 192.679688 480.808594 183.675781 480.84375 180.71875 C 480.882812 177.496094 480.988281 174.039062 480.089844 170.902344 C 479.917969 170.296875 479.535156 169.367188 478.730469 167.542969 Z M 478.730469 167.542969 " fill-opacity="1" fill-rule="nonzero"/><path fill="#dd8958" d="M 467.765625 169.261719 C 467.8125 169.453125 468.109375 169.410156 468.0625 169.207031 C 467.953125 168.652344 467.75 168.191406 467.613281 167.640625 C 467.488281 167.671875 467.449219 167.691406 467.324219 167.726562 C 467.480469 168.261719 467.628906 168.726562 467.765625 169.261719 Z M 467.765625 169.261719 " fill-opacity="1" fill-rule="nonzero"/><path fill="#dd8958" d="M 471.949219 169.753906 C 471.996094 169.921875 472.226562 169.808594 472.191406 169.640625 C 472.042969 168.980469 471.722656 167.851562 471.476562 167.136719 C 471.359375 167.144531 471.296875 167.152344 471.167969 167.160156 C 471.429688 167.878906 471.738281 168.957031 471.949219 169.753906 Z M 471.949219 169.753906 " fill-opacity="1" fill-rule="nonzero"/><path fill="#dd8958" d="M 475.085938 166.933594 C 475.453125 168.066406 475.828125 169.265625 476.09375 170.125 C 476.144531 170.289062 476.417969 170.253906 476.371094 170.074219 C 476.109375 169.023438 475.667969 167.964844 475.371094 166.976562 C 475.226562 166.96875 475.226562 166.941406 475.085938 166.933594 Z M 475.085938 166.933594 " fill-opacity="1" fill-rule="nonzero"/><path fill="#496822" d="M 479.394531 298.015625 C 475.339844 273.964844 454.277344 231.261719 445.785156 218.359375 C 445.238281 217.515625 444.582031 217.949219 445.128906 218.804688 C 458.789062 240.285156 473.050781 276.464844 478.5 298.390625 C 478.648438 298.949219 479.476562 298.527344 479.394531 298.015625 Z M 479.394531 298.015625 " fill-opacity="1" fill-rule="nonzero"/><path fill="#ffae80" d="M 489.199219 247.703125 C 485.273438 219.214844 481.304688 196.253906 479.867188 189.515625 C 474.398438 191.085938 471.972656 190.585938 466.507812 191.953125 C 467.1875 198.800781 467.964844 239.332031 466.246094 240.628906 C 464.5625 241.890625 413.53125 226.914062 413.53125 226.914062 L 411.410156 252.039062 C 411.410156 252.039062 482.082031 273.113281 488.738281 258.847656 C 490.121094 255.871094 489.574219 250.402344 489.199219 247.703125 Z M 489.199219 247.703125 " fill-opacity="1" fill-rule="nonzero"/><path fill="#d49b72" d="M 702.984375 461.511719 C 701.558594 458.332031 675.457031 461.769531 674.917969 461.804688 C 630.332031 464.890625 588.796875 469.535156 544.890625 470.636719 C 543.339844 470.671875 440.707031 475.320312 390.453125 476.335938 C 332.566406 477.515625 274.671875 478.378906 216.769531 478.941406 C 186.074219 479.238281 155.382812 479.433594 124.6875 479.558594 C 116.289062 479.695312 113.808594 481.183594 113.773438 482.097656 C 113.164062 489.851562 112.984375 497.652344 113.234375 505.4375 C 113.261719 506.5625 113.308594 507.683594 113.359375 508.808594 C 113.863281 519.539062 115.167969 530.195312 117.25 540.601562 C 118.167969 545.144531 125.59375 553.070312 129.050781 553.359375 C 181.207031 557.640625 233.417969 560.402344 285.640625 561.628906 C 337.871094 562.839844 526.996094 558.289062 528.828125 558.199219 C 581.871094 555.542969 629.460938 542.578125 672.027344 512.644531 C 675.949219 509.878906 681.210938 504.902344 686.328125 498.980469 C 687.484375 497.652344 688.625 496.277344 689.742188 494.851562 C 698.964844 483.238281 706.53125 469.40625 702.984375 461.511719 Z M 702.984375 461.511719 " fill-opacity="1" fill-rule="nonzero"/><path fill="#b3d2e6" d="M 578.292969 589.273438 C 589.773438 575.824219 596.230469 570.394531 599.589844 554.332031 C 582.363281 550.390625 554.273438 550.09375 506.464844 552.179688 C 396.390625 556.992188 326.5625 562.292969 192.171875 550.691406 C 57.785156 539.089844 85.808594 535.175781 -118.085938 550.34375 C -159.714844 553.453125 -203.558594 544.476562 -235.707031 544.722656 C -212.917969 560.019531 -185.449219 558.128906 -156.464844 564.808594 C -148.808594 566.339844 -133.457031 568.550781 -125.804688 574.667969 C -116.183594 581.875 566.878906 602.039062 578.292969 589.273438 Z M 578.292969 589.273438 " fill-opacity="1" fill-rule="nonzero"/><path fill="#9bc4de" d="M 623.660156 526.320312 C 612.703125 531.113281 601.300781 534.191406 589.621094 536.644531 C 577.441406 539.207031 565.257812 538.761719 552.96875 540.105469 C 546.582031 540.800781 540.375 542.269531 534.121094 543.675781 C 528.359375 544.980469 522.449219 545.347656 516.566406 545.414062 C 510.304688 545.476562 504.0625 545.972656 497.792969 546.015625 C 490.308594 546.066406 483.53125 545.964844 476.746094 549.65625 C 470.785156 552.898438 471.632812 561.679688 477.09375 564.828125 C 483.910156 568.746094 491.414062 568.515625 499.03125 568.175781 C 505.734375 567.878906 512.558594 567.515625 519.101562 565.902344 C 531.617188 562.824219 543.222656 556.398438 555.921875 554.140625 C 568.347656 551.929688 580.695312 551.105469 592.878906 547.484375 C 604.621094 543.992188 615.738281 538.140625 625.980469 531.496094 C 628.570312 529.820312 626.742188 524.976562 623.660156 526.320312 Z M 623.660156 526.320312 " fill-opacity="1" fill-rule="nonzero"/><path fill="#9bc4de" d="M 355.800781 553.867188 C 320.125 552.101562 292.527344 549.320312 286.46875 549.75 C 273.847656 550.625 261.324219 552.003906 248.75 553.300781 C 237.597656 554.460938 229.355469 553.324219 218.148438 552.785156 C 206.566406 552.21875 197.03125 550.285156 184.570312 550.03125 C 183.191406 550 185.824219 552.261719 186.933594 552.953125 C 196.128906 558.726562 201.734375 558.800781 212.207031 561.453125 C 223.285156 564.257812 234.6875 565.660156 246.058594 566.511719 C 258.558594 567.445312 270.925781 567.195312 283.441406 567.0625 C 290.003906 567.003906 296.570312 566.867188 303.132812 566.832031 C 309.484375 566.796875 316.820312 566.875 322.195312 563.023438 C 324.707031 561.226562 359.140625 554.035156 355.800781 553.867188 Z M 355.800781 553.867188 " fill-opacity="1" fill-rule="nonzero"/><path fill="#c48b62" d="M 682.167969 495.578125 C 681.058594 496.972656 679.929688 498.316406 678.785156 499.617188 C 654.542969 500.71875 630.332031 503.003906 606.152344 505.617188 C 557.910156 510.796875 509.679688 517.277344 461.285156 518.28125 C 412.988281 519.285156 364.675781 514.761719 316.414062 512.710938 C 248.699219 509.839844 180.980469 509.550781 113.25 509.234375 C 113.199219 508.132812 113.152344 507.039062 113.125 505.933594 C 137.867188 505.953125 162.617188 506.121094 187.359375 506.316406 C 236.3125 506.710938 285.265625 507.730469 334.207031 509.71875 C 382.429688 511.675781 430.601562 516.046875 478.855469 513.816406 C 527.230469 511.578125 575.425781 504.6875 623.695312 499.902344 C 643.164062 497.972656 662.652344 496.375 682.167969 495.578125 Z M 682.167969 495.578125 " fill-opacity="1" fill-rule="nonzero"/><path fill="#b3d2e6" d="M 138.679688 545.199219 C 129.3125 545.722656 120.058594 544.964844 110.929688 542.808594 C 101.191406 540.492188 87.125 533.738281 76.855469 535.113281 C 71.863281 535.78125 71.929688 539.332031 67.03125 540.25 C 63.085938 540.980469 59.945312 540.101562 56.09375 538.957031 C 46.820312 536.203125 33.894531 530.242188 24.007812 530.3125 C 14.238281 530.382812 9.53125 536.214844 -0.0625 537.441406 C -9.816406 538.683594 -19.113281 536.410156 -28.683594 534.871094 C -38.867188 533.226562 -56.625 532.242188 -66.859375 533.664062 C -89.65625 536.832031 -102.902344 546.800781 -122.042969 559.246094 C -125.84375 561.722656 -123.078125 567.488281 -118.769531 566.34375 C -99.796875 561.347656 -81.078125 553.785156 -61.523438 551.441406 C -51.882812 550.285156 -42.441406 550.625 -32.949219 552.605469 C -22.796875 554.722656 -12.632812 557.484375 -2.164062 557.003906 C 7.5 556.558594 16.808594 553.492188 26.433594 552.75 C 35.347656 552.058594 43.070312 555.753906 51.480469 558.144531 C 55.855469 559.382812 60.53125 560.226562 65.097656 560.066406 C 70.578125 559.878906 75.535156 558.003906 80.695312 556.417969 C 89.277344 553.796875 98.179688 558.953125 106.625 560.699219 C 117.285156 562.910156 128.402344 563.75 139.261719 562.964844 C 150.195312 562.179688 197.882812 574.164062 206.257812 566.492188 C 210.945312 562.191406 143.753906 544.914062 138.679688 545.199219 Z M 138.679688 545.199219 " fill-opacity="1" fill-rule="nonzero"/><path fill="#cae7fa" d="M 312.933594 568.265625 C 315.671875 571.347656 321.339844 570.996094 325.695312 570.207031 C 337.566406 568.039062 350.929688 575.125 362.332031 571.710938 C 366.714844 570.402344 372.734375 567.695312 377.480469 568.859375 C 382.808594 570.164062 379.140625 574.167969 381.929688 576.882812 C 384.570312 579.457031 389.300781 579.214844 393.277344 578.878906 C 399.027344 578.40625 404.75 577.410156 410.320312 576.132812 C 421.355469 573.601562 431.832031 569.832031 442.386719 566.308594 C 447.457031 564.613281 452.566406 562.898438 457.796875 561.511719 C 459.496094 561.0625 461.816406 560.238281 463.132812 561.464844 C 464.1875 562.433594 463.757812 564.394531 463.460938 565.523438 C 461.800781 571.742188 453.605469 578.851562 461.503906 584.429688 C 468.191406 589.15625 478.484375 585.769531 485.726562 583.144531 C 508.496094 574.894531 529.296875 567.25 547.445312 553.808594 C 549.421875 552.351562 548.742188 547.429688 546.480469 548.136719 C 540.925781 548.523438 524.09375 555.183594 517.785156 549.554688 C 513.796875 545.996094 512.648438 541.324219 507.714844 538.207031 C 495.878906 530.722656 478.90625 533.507812 466.230469 539.207031 C 458.871094 542.523438 452.546875 547.460938 444.554688 549.886719 C 441.085938 550.945312 437.0625 551.523438 433.460938 550.796875 C 429.640625 550.035156 427.558594 547.804688 425.128906 545.6875 C 420.148438 541.347656 413.910156 539.902344 406.363281 542.171875 C 402.460938 543.335938 398.890625 545.097656 395.1875 546.589844 C 390.96875 548.285156 386.625 549.816406 382.21875 551.203125 C 372.714844 554.1875 347.777344 553.546875 337.734375 555.027344 C 327.835938 556.492188 301.632812 557.242188 291.8125 558.882812 C 290.300781 559.140625 290.617188 561.941406 292.980469 562.3125 C 296.132812 562.796875 305.546875 559.960938 312.933594 568.265625 Z M 312.933594 568.265625 " fill-opacity="1" fill-rule="nonzero"/><path fill="#cae7fa" d="M 292.546875 584.011719 C 289.21875 582.140625 286.242188 580.039062 283.167969 577.800781 C 280.25 575.679688 276.769531 574.371094 273.472656 572.921875 C 266.335938 569.78125 256.773438 570.382812 249.101562 570.484375 C 241.136719 570.578125 233.085938 571.65625 225.351562 573.519531 C 223.59375 573.945312 221.855469 574.433594 220.09375 574.84375 C 219.96875 574.875 218.476562 575.214844 218.15625 575.308594 C 217.792969 575.320312 217.035156 575.261719 217.078125 575.304688 C 216.546875 575.179688 216.019531 574.980469 215.488281 574.863281 C 213.394531 569.328125 206.488281 565.695312 200.792969 567.5625 C 199.082031 568.121094 197.355469 568.640625 195.597656 569.042969 C 194.71875 569.246094 193.824219 569.425781 192.9375 569.589844 C 192.710938 569.632812 192.363281 569.675781 192.101562 569.710938 C 188.582031 570.042969 185.042969 569.988281 181.511719 569.835938 C 180.609375 569.792969 179.710938 569.726562 178.804688 569.65625 C 178.609375 569.644531 178.394531 569.613281 178.199219 569.585938 C 176.453125 569.277344 174.738281 568.816406 172.992188 568.527344 C 167.558594 567.617188 161.550781 568.449219 157.164062 571.996094 C 156.230469 572.75 155.707031 573.460938 154.660156 573.972656 C 153.332031 574.621094 151.640625 574.820312 150.226562 575.273438 C 147.464844 576.160156 144.597656 577.457031 141.679688 577.714844 C 137.972656 578.035156 134.484375 574.441406 136.460938 570.714844 C 138.992188 565.960938 134.84375 560.941406 129.738281 561.96875 C 120.214844 563.898438 110.851562 566.492188 101.722656 569.824219 C 92.574219 573.160156 84.261719 578.136719 76.484375 583.953125 C 74.425781 585.496094 75.5 589.378906 78.386719 588.453125 C 93.4375 583.632812 108.621094 578.535156 124.105469 575.167969 C 124.585938 579.097656 126.414062 582.859375 129.550781 585.574219 C 136.515625 591.605469 144.949219 589.273438 152.707031 586.449219 C 153.570312 586.132812 154.550781 585.929688 155.367188 585.539062 C 156.523438 587.089844 158.816406 589.285156 159.265625 589.679688 C 164.664062 594.425781 171.253906 595.332031 178.136719 596.109375 C 185.636719 596.964844 193.046875 595.894531 200.167969 593.742188 C 204.960938 597.375 211.125 599.074219 217.375 597.597656 C 225.738281 595.628906 233.164062 590.933594 241.414062 588.492188 C 249.296875 586.164062 257.113281 585.1875 265.332031 585.464844 C 274.238281 585.769531 283.382812 582.929688 292.164062 584.914062 C 292.695312 585.035156 293.046875 584.300781 292.546875 584.011719 Z M 292.546875 584.011719 " fill-opacity="1" fill-rule="nonzero"/><path fill="#ffae80" d="M 289.226562 332.628906 C 289.226562 332.628906 289.070312 335.410156 287.324219 338.78125 C 285.765625 341.816406 283.59375 344.347656 283.59375 344.347656 C 283.59375 344.347656 277.019531 349.722656 275.554688 348.386719 C 273.226562 346.261719 268.757812 346.023438 269.984375 340.566406 C 270.941406 336.296875 274.734375 330.808594 277.421875 329.34375 C 283.261719 327.488281 289.226562 332.628906 289.226562 332.628906 Z M 289.226562 332.628906 " fill-opacity="1" fill-rule="nonzero"/><path fill="#c2c2c2" d="M 227.722656 224.183594 L 221.832031 227.058594 L 404.421875 601.285156 L 410.320312 598.414062 Z M 227.722656 224.183594 " fill-opacity="1" fill-rule="nonzero"/><path fill="#d892c0" d="M 265.554688 286.972656 C 270.554688 269.609375 264.757812 250.386719 256.722656 233.929688 L 244.09375 208.070312 C 238.308594 196.230469 224.015625 191.316406 212.160156 197.09375 C 200.3125 202.871094 195.390625 217.152344 201.175781 228.992188 L 213.796875 254.847656 C 221.839844 271.304688 233.890625 286.003906 249.992188 294.746094 C 251.011719 295.300781 253.0625 296.210938 253.699219 297.515625 L 255.75 301.75 C 256.550781 303.429688 266.746094 298.363281 265.914062 296.609375 L 263.925781 292.492188 C 263.28125 291.183594 265.152344 288.382812 265.554688 286.972656 Z M 265.554688 286.972656 " fill-opacity="1" fill-rule="nonzero"/><path fill="#d892c0" d="M 432.878906 609.675781 C 431.871094 609.414062 430.851562 609.199219 429.804688 609.0625 C 427.632812 608.765625 425.492188 608.933594 423.300781 608.800781 C 420.664062 608.652344 418.789062 607.742188 416.433594 606.703125 C 413.390625 605.34375 409.929688 604.570312 406.796875 606.136719 C 405.300781 606.890625 404.722656 608.25 403.472656 609.21875 C 401.371094 610.832031 399.085938 609.335938 397.109375 608.332031 C 393.59375 606.539062 389.957031 604.738281 386.035156 604.019531 C 385.183594 603.863281 384.339844 603.769531 383.5 603.722656 L 375.78125 587.90625 C 367.746094 571.449219 363.566406 552.914062 366.578125 534.851562 C 366.765625 533.714844 367.316406 531.539062 366.6875 530.230469 L 364.601562 526.011719 C 364.332031 525.476562 365.222656 524.59375 366.585938 523.726562 C 368.300781 522.601562 370.757812 521.488281 372.566406 521.019531 C 373.769531 520.722656 374.679688 520.703125 374.917969 521.171875 L 376.933594 525.277344 C 377.570312 526.582031 380.933594 526.84375 382.304688 527.386719 C 399.066406 534.144531 410.671875 550.535156 418.707031 567 L 431.324219 592.855469 C 433.988281 598.296875 434.382812 604.257812 432.878906 609.675781 Z M 432.878906 609.675781 " fill-opacity="1" fill-rule="nonzero"/><path fill="#301c33" d="M 400.402344 578.066406 C 400.496094 577.921875 400.527344 577.738281 400.425781 577.523438 C 393.152344 561.710938 384.628906 546.101562 376.984375 529.960938 C 376.535156 529.007812 374.984375 529.6875 375.476562 530.640625 C 383.082031 545.246094 389.675781 560.488281 397.609375 574.929688 C 397.621094 574.996094 397.621094 575.0625 397.652344 575.125 C 400.257812 581.183594 399.9375 583.933594 398.929688 584.652344 C 397.335938 585.792969 394.734375 581.832031 393.246094 579.402344 C 391.855469 577.125 378.75 548.472656 373.382812 536.832031 C 373.085938 536.183594 372.085938 536.632812 372.371094 537.292969 C 376.308594 546.585938 380.683594 556.148438 384.789062 565.492188 C 386.164062 568.625 388.308594 574.113281 390.59375 577.808594 C 392.277344 580.527344 394.335938 585.152344 397.441406 586.507812 C 399.128906 587.25 400.527344 585.8125 400.988281 584.167969 C 401.574219 582.128906 401.167969 580.09375 400.402344 578.066406 Z M 400.402344 578.066406 " fill-opacity="1" fill-rule="nonzero"/><path fill="#301c33" d="M 258.777344 284.757812 C 254.921875 275.429688 250.636719 265.824219 246.617188 256.4375 C 245.269531 253.289062 243.179688 247.785156 240.929688 244.074219 C 239.269531 241.335938 237.25 236.695312 234.164062 235.304688 C 232.484375 234.546875 231.074219 235.976562 230.589844 237.613281 C 229.984375 239.644531 230.378906 241.683594 231.121094 243.714844 C 231.027344 243.863281 230.996094 244.050781 231.09375 244.261719 C 238.222656 260.144531 246.59375 275.832031 254.089844 292.039062 C 254.527344 293 256.085938 292.332031 255.597656 291.378906 C 248.128906 276.703125 241.679688 261.398438 233.886719 246.882812 C 233.882812 246.824219 233.871094 246.757812 233.839844 246.683594 C 231.292969 240.605469 231.640625 237.855469 232.65625 237.148438 C 234.257812 236.023438 236.828125 240.007812 238.285156 242.457031 C 239.65625 244.738281 252.5 273.519531 257.753906 285.203125 C 258.046875 285.859375 259.046875 285.417969 258.777344 284.757812 Z M 258.777344 284.757812 " fill-opacity="1" fill-rule="nonzero"/><path fill="#ffae80" d="M 327.371094 422.90625 C 327.90625 422.222656 326.933594 419.128906 326.210938 419.699219 C 325.457031 420.355469 325.433594 420.371094 325.433594 420.371094 C 325.433594 420.371094 325.734375 420.078125 326.222656 419.566406 C 326.949219 418.746094 325.347656 415.425781 324.425781 416.332031 C 324.015625 416.777344 323.597656 417.035156 323.515625 417.136719 C 323.460938 417.1875 323.609375 417.046875 323.699219 416.925781 C 323.832031 416.761719 324.050781 416.5625 324.363281 416.230469 C 324.960938 414.890625 323.035156 412.394531 322.136719 413.03125 C 321.992188 413.167969 321.886719 413.269531 321.835938 413.308594 C 321.898438 413.238281 321.992188 413.132812 322.117188 413 C 323.105469 411.855469 320.476562 408.847656 319.148438 409.722656 C 318.285156 410.285156 317.410156 410.847656 316.542969 411.359375 C 313.480469 413.171875 312.023438 411.738281 312.023438 411.738281 L 310.714844 409.050781 C 310.714844 409.050781 305.972656 412.546875 304.804688 413.851562 C 301.613281 417.425781 300.054688 422.414062 300.054688 422.414062 C 300.054688 422.414062 299.972656 425.746094 300.710938 427.742188 C 301.488281 429.847656 304.949219 434.34375 304.949219 434.34375 C 304.949219 434.34375 313.691406 431.742188 316.375 430.5 C 319.304688 429.140625 322.476562 427.742188 324.921875 425.582031 C 325.390625 425.167969 326.070312 424.421875 327.371094 422.90625 Z M 327.371094 422.90625 " fill-opacity="1" fill-rule="nonzero"/><path fill="#dd8958" d="M 321.085938 413.761719 C 320.933594 413.878906 321.105469 414.128906 321.265625 414.011719 C 321.71875 413.671875 322.050781 413.285156 322.484375 412.929688 C 322.402344 412.832031 322.375 412.796875 322.285156 412.703125 C 321.871094 413.070312 321.523438 413.410156 321.085938 413.761719 Z M 321.085938 413.761719 " fill-opacity="1" fill-rule="nonzero"/><path fill="#dd8958" d="M 322.445312 417.742188 C 322.308594 417.855469 322.515625 418.019531 322.644531 417.914062 C 323.1875 417.5 324.070312 416.71875 324.605469 416.195312 C 324.550781 416.089844 324.503906 416.039062 324.449219 415.933594 C 323.914062 416.476562 323.074219 417.210938 322.445312 417.742188 Z M 322.445312 417.742188 " fill-opacity="1" fill-rule="nonzero"/><path fill="#dd8958" d="M 326.347656 419.355469 C 325.484375 420.179688 324.558594 421.03125 323.894531 421.640625 C 323.773438 421.757812 323.921875 421.984375 324.070312 421.871094 C 324.902344 421.175781 325.671875 420.332031 326.433594 419.632812 C 326.378906 419.503906 326.402344 419.484375 326.347656 419.355469 Z M 326.347656 419.355469 " fill-opacity="1" fill-rule="nonzero"/><path fill="#496822" d="M 241.480469 388.148438 C 241.238281 387.671875 240.550781 388.089844 240.773438 388.5625 C 245.695312 398.929688 261.128906 448.574219 264.359375 462.925781 C 264.507812 463.597656 265.457031 463.300781 265.359375 462.652344 C 263.777344 451.449219 246.679688 398.121094 241.480469 388.148438 Z M 241.480469 388.148438 " fill-opacity="1" fill-rule="nonzero"/><path fill="#593231" d="M 267.738281 444.8125 C 256.34375 454.636719 237.683594 454.578125 223.683594 454.230469 C 221.910156 454.183594 221.910156 451.511719 223.683594 451.472656 C 232.425781 451.238281 241.273438 450.835938 249.789062 448.707031 C 255.984375 447.152344 261.480469 444.390625 266.917969 441.273438 C 267.210938 442.476562 267.492188 443.652344 267.738281 444.8125 Z M 267.738281 444.8125 " fill-opacity="1" fill-rule="nonzero"/><path fill="#ffae80" d="M 243.90625 426.101562 C 238.714844 425.078125 217.113281 408.085938 217.113281 408.085938 L 200.429688 423.078125 C 210.382812 432.914062 230.929688 448.925781 239.144531 449.550781 C 246.886719 450.132812 296.140625 436.976562 304.953125 434.34375 C 303.125 429.640625 303.160156 425.046875 300.6875 420.71875 C 291.832031 421.578125 248.59375 427.023438 243.90625 426.101562 Z M 243.90625 426.101562 " fill-opacity="1" fill-rule="nonzero"/><path fill="#ffae80" d="M 240.953125 387.941406 C 240.953125 387.941406 235.890625 383.164062 233.101562 381.929688 C 232.40625 381.625 231.164062 381.257812 229.574219 380.847656 C 223.402344 379.234375 212.058594 376.902344 207.8125 374.683594 C 180.617188 360.503906 218.878906 363.824219 218.878906 363.824219 C 218.878906 363.824219 232.605469 371.988281 235.863281 377.195312 C 235.910156 377.257812 235.953125 377.335938 235.996094 377.402344 C 239.410156 382.921875 240.953125 387.941406 240.953125 387.941406 Z M 240.953125 387.941406 " fill-opacity="1" fill-rule="nonzero"/><path fill="#ffae80" d="M 227.707031 365.15625 C 227.707031 365.15625 227.097656 368.949219 226.675781 372.125 C 226.277344 375.113281 218.703125 376.226562 212.761719 374.21875 C 206.160156 372 201.679688 369.722656 201.257812 364.664062 C 201.214844 364.144531 202.519531 360.523438 203.726562 350.515625 C 203.902344 349.070312 226.207031 361.472656 227.707031 365.15625 Z M 227.707031 365.15625 " fill-opacity="1" fill-rule="nonzero"/><path fill="#ffae80" d="M 241.609375 339.265625 C 241.472656 335.507812 241.847656 333.765625 241.847656 333.113281 C 241.839844 331.464844 241.882812 330.066406 241.921875 329.046875 C 241.976562 328.464844 242.023438 327.871094 242.035156 327.269531 C 242.328125 313.476562 231.371094 302.058594 217.570312 301.761719 C 203.761719 301.472656 192.332031 312.417969 192.046875 326.210938 C 191.878906 333.855469 195.609375 339.929688 200.929688 344.625 C 202.578125 347.660156 203.792969 351.050781 204.898438 352.710938 C 208.273438 357.78125 214.453125 361.492188 219.261719 364.019531 C 222.789062 365.878906 231.914062 368.03125 235.179688 366.179688 C 237.476562 364.882812 241.644531 352.867188 242.007812 346.546875 C 242.121094 344.691406 241.695312 341.871094 241.609375 339.265625 Z M 241.609375 339.265625 " fill-opacity="1" fill-rule="nonzero"/><path fill="#612f26" d="M 218.832031 335.574219 C 220.921875 334.636719 222.238281 334.5 224.039062 334.265625 C 224.921875 334.160156 225.777344 334.117188 226.609375 334.183594 C 227.460938 334.253906 228.742188 334.253906 229.425781 334.742188 C 230.027344 335.171875 229.832031 335.574219 229.222656 336.449219 C 228.382812 337.644531 224.546875 336.699219 223.015625 336.824219 C 221.976562 336.902344 220.738281 336.949219 219.539062 337.015625 C 218.617188 337.0625 218.011719 335.945312 218.832031 335.574219 Z M 218.832031 335.574219 " fill-opacity="1" fill-rule="nonzero"/><path fill="#612f26" d="M 236.625 336.09375 C 237.386719 336.496094 239.394531 336.125 240.667969 335.796875 C 241.042969 335.707031 241.457031 335.671875 241.886719 335.617188 C 242.457031 334.902344 242.421875 334.125 241.714844 333.535156 C 241.476562 333.515625 239.875 333.375 239.078125 333.503906 C 238.261719 333.636719 236.859375 333.957031 236.285156 334.535156 C 235.789062 335.039062 235.714844 335.613281 236.625 336.09375 Z M 236.625 336.09375 " fill-opacity="1" fill-rule="nonzero"/><path fill="#dd8958" d="M 227.492188 366.519531 C 227.492188 366.519531 221.4375 364.910156 217.414062 361.992188 C 213.53125 359.179688 210.28125 355.679688 210.28125 355.679688 C 210.28125 355.679688 213.464844 362.003906 218.125 364.695312 C 222.652344 367.304688 227.210938 368.386719 227.210938 368.386719 Z M 227.492188 366.519531 " fill-opacity="1" fill-rule="nonzero"/><path fill="#dd8958" d="M 237.976562 355.148438 C 236.550781 355.273438 235.429688 355.300781 233.816406 355.488281 C 232.050781 355.699219 231.015625 355.402344 229.246094 355.210938 C 228.574219 355.136719 228.296875 356.066406 228.960938 356.246094 C 231.972656 357.054688 235.175781 356.964844 238.476562 355.871094 C 238.898438 355.726562 238.441406 355.101562 237.976562 355.148438 Z M 237.976562 355.148438 " fill-opacity="1" fill-rule="nonzero"/><path fill="#612f26" d="M 189.382812 325.703125 C 189.640625 324.332031 189.621094 322.917969 189.84375 321.527344 C 190.253906 318.976562 191.109375 316.566406 192.996094 314.726562 C 193.058594 314.667969 193.117188 314.621094 193.175781 314.566406 C 193.050781 313.886719 193.144531 313.148438 193.757812 312.21875 C 194.628906 310.882812 196.117188 310.332031 197.609375 309.746094 C 197.53125 308.175781 197.992188 306.683594 198.953125 305.4375 C 201.375 302.304688 205.894531 301.65625 209.570312 301.328125 C 211.945312 301.121094 214.285156 301.0625 216.589844 300.394531 C 218.230469 299.925781 219.796875 299.265625 221.5 299.007812 C 224.171875 298.609375 227.503906 298.699219 229.417969 300.722656 C 232.667969 301.035156 235.519531 302.085938 236.984375 304.65625 C 238.195312 306.800781 238.097656 308.128906 240.421875 309.632812 C 241.863281 310.5625 244.453125 313.335938 245.203125 314.929688 C 246.007812 316.648438 245.878906 318.394531 245.089844 319.816406 C 246.253906 323.144531 243.621094 327.28125 240.078125 324.996094 C 239.847656 325.128906 239.609375 325.246094 239.34375 325.335938 C 238.171875 325.765625 237 325.699219 235.824219 325.300781 C 233.988281 324.679688 231.824219 322.152344 230.140625 322.152344 C 229.816406 322.398438 229.496094 322.648438 229.164062 322.898438 C 227.359375 324.246094 225.722656 325.6875 223.632812 326.488281 C 222.539062 326.914062 220.695312 327.03125 219.300781 327.484375 C 218.777344 328.507812 218.183594 329.5 217.550781 330.464844 C 217.078125 331.179688 216.613281 331.84375 215.96875 332.425781 C 215.59375 332.773438 214.75 333.457031 214.535156 333.832031 C 214.390625 334.082031 214.605469 335.160156 214.578125 336.386719 C 214.566406 337.394531 214.195312 338.433594 213.800781 339.363281 C 213.207031 340.777344 212.339844 341.917969 210.871094 342.460938 C 209.863281 342.828125 208.75 342.550781 208.082031 341.703125 C 207.488281 340.953125 207.660156 340.496094 208.171875 339.71875 C 208.695312 338.945312 208.703125 337.710938 208.785156 336.902344 C 208.179688 337.070312 207.394531 337.425781 206.570312 338.054688 C 206.351562 338.222656 206.316406 342.132812 206.453125 344.558594 C 203.464844 345.832031 206.773438 349.820312 203.726562 350.515625 C 200.597656 347.503906 198.335938 344.035156 196.863281 340.335938 C 194.585938 338.847656 191.257812 337.644531 190.027344 334.335938 C 187.925781 328.667969 189.171875 326.828125 189.382812 325.703125 Z M 189.382812 325.703125 " fill-opacity="1" fill-rule="nonzero"/><path fill="#ffae80" d="M 209.109375 336.699219 C 209.109375 336.699219 205.449219 332.375 202.835938 337.175781 C 201.113281 340.359375 204.511719 347.058594 209.898438 348.289062 C 211.019531 348.546875 207.316406 342.507812 209.109375 336.699219 Z M 209.109375 336.699219 " fill-opacity="1" fill-rule="nonzero"/><path fill="#dd8958" d="M 207.394531 342.460938 C 206.917969 341.703125 206.226562 341.1875 205.964844 340.289062 C 205.738281 339.496094 205.839844 338.230469 206.511719 337.609375 C 207.011719 337.148438 206.269531 336.410156 205.734375 336.753906 C 204.496094 337.558594 204.226562 339.0625 204.472656 340.449219 C 204.710938 341.761719 205.746094 343.375 207.269531 343.203125 C 207.644531 343.160156 207.597656 342.78125 207.394531 342.460938 Z M 207.394531 342.460938 " fill-opacity="1" fill-rule="nonzero"/><path fill="#4a1f15" d="M 194.960938 329.691406 C 195.167969 329.371094 195.65625 329.714844 195.445312 330.035156 C 194.609375 331.292969 193.996094 332.738281 193.066406 333.914062 C 192.945312 334.074219 192.722656 333.933594 192.769531 333.753906 C 193.144531 332.304688 194.144531 330.921875 194.960938 329.691406 Z M 194.960938 329.691406 " fill-opacity="1" fill-rule="nonzero"/><path fill="#4a1f15" d="M 198.917969 333.675781 C 199.515625 332.839844 200.175781 332.035156 200.859375 331.269531 C 201.144531 330.945312 201.679688 331.304688 201.414062 331.667969 C 200.824219 332.453125 200.277344 333.253906 199.769531 334.09375 C 199.316406 334.832031 198.925781 335.75 198.265625 336.308594 C 198.050781 336.484375 197.691406 336.308594 197.730469 336.023438 C 197.84375 335.183594 198.441406 334.363281 198.917969 333.675781 Z M 198.917969 333.675781 " fill-opacity="1" fill-rule="nonzero"/><path fill="#4a1f15" d="M 203.792969 323.933594 C 205.5625 323.628906 205.90625 322.085938 207.121094 321.039062 C 208.328125 320.003906 209.832031 320.339844 211.214844 320.777344 C 211.976562 321.015625 212.976562 321.363281 213.730469 320.933594 C 214.464844 320.515625 214.898438 319.453125 215.410156 318.816406 C 216.414062 317.570312 217.640625 316.53125 219.023438 315.714844 C 219.242188 315.582031 219.476562 315.953125 219.261719 316.09375 C 217.570312 317.246094 216.386719 318.695312 215.402344 320.46875 C 214.628906 321.875 213.445312 322.378906 211.871094 322.082031 C 211.046875 321.921875 210.257812 321.539062 209.421875 321.457031 C 208.308594 321.347656 207.699219 321.921875 207.089844 322.761719 C 206.363281 323.757812 205.160156 325.417969 203.714844 324.691406 C 203.386719 324.527344 203.382812 324.003906 203.792969 323.933594 Z M 203.792969 323.933594 " fill-opacity="1" fill-rule="nonzero"/><path fill="#4a1f15" d="M 205.023438 316.667969 C 206.542969 316.226562 208.160156 316.035156 209.722656 315.796875 C 210.105469 315.738281 210.210938 316.308594 209.820312 316.398438 C 208.585938 316.679688 207.371094 317.011719 206.136719 317.339844 C 205.050781 317.628906 204.285156 317.976562 203.511719 318.792969 C 203.292969 319.027344 202.886719 318.765625 202.925781 318.476562 C 203.050781 317.421875 204.113281 316.929688 205.023438 316.667969 Z M 205.023438 316.667969 " fill-opacity="1" fill-rule="nonzero"/><path fill="#4a1f15" d="M 234.699219 313 C 237.121094 313.773438 239.101562 316.269531 240.410156 318.328125 C 240.625 318.664062 240.121094 318.957031 239.886719 318.648438 C 239.121094 317.59375 238.246094 316.65625 237.273438 315.785156 C 236.363281 314.976562 235.292969 314.351562 234.40625 313.511719 C 234.199219 313.3125 234.398438 312.90625 234.699219 313 Z M 234.699219 313 " fill-opacity="1" fill-rule="nonzero"/><path fill="#4a1f15" d="M 233.15625 310.050781 C 234.132812 310.277344 235.074219 310.832031 235.976562 311.242188 C 236.28125 311.378906 236.03125 311.816406 235.734375 311.6875 C 234.835938 311.292969 233.816406 310.96875 233.015625 310.40625 C 232.839844 310.289062 232.929688 310.003906 233.15625 310.050781 Z M 233.15625 310.050781 " fill-opacity="1" fill-rule="nonzero"/><path fill="#36201f" d="M 240.601562 340.761719 C 240.53125 340.863281 240.15625 341.257812 239.785156 341.257812 C 239.097656 341.269531 238.710938 340.875 238.621094 340.699219 C 238.214844 339.847656 237.929688 337.007812 239.535156 337.1875 C 240.933594 337.34375 241.324219 339.824219 240.601562 340.761719 Z M 240.601562 340.761719 " fill-opacity="1" fill-rule="nonzero"/><path fill="#36201f" d="M 226.085938 341.988281 C 226.007812 342.089844 225.640625 342.484375 225.273438 342.484375 C 224.574219 342.496094 224.183594 342.101562 224.097656 341.925781 C 223.6875 341.074219 223.414062 338.234375 225.015625 338.414062 C 226.414062 338.566406 226.800781 341.050781 226.085938 341.988281 Z M 226.085938 341.988281 " fill-opacity="1" fill-rule="nonzero"/><path fill="#dd8958" d="M 235.527344 348.925781 C 236.078125 348.585938 236.761719 348.265625 236.882812 347.589844 C 236.996094 347.003906 236.53125 346.136719 236.246094 345.636719 C 235.1875 343.804688 234.292969 342.191406 233.804688 340.25 C 233.6875 339.78125 234.328125 339.601562 234.5625 340.0625 C 235.3125 341.554688 236.109375 343.210938 237.03125 344.707031 C 237.53125 345.511719 238.160156 346.523438 238.125 347.515625 C 238.074219 349.183594 235.222656 350.121094 234.007812 350.570312 C 233.726562 350.671875 233.472656 350.148438 233.691406 349.992188 C 234.316406 349.546875 234.753906 349.410156 235.527344 348.925781 Z M 235.527344 348.925781 " fill-opacity="1" fill-rule="nonzero"/><path fill="#f3e3d5" d="M 412.476562 224.730469 L 439.179688 234.222656 C 439.179688 234.222656 438.28125 260.292969 436.417969 260.542969 C 434.550781 260.796875 408.042969 256.878906 406.007812 250.589844 C 403.984375 244.304688 401.085938 226.515625 412.476562 224.730469 Z M 412.476562 224.730469 " fill-opacity="1" fill-rule="nonzero"/><path fill="#f3e3d5" d="M 240.953125 387.941406 C 240.953125 387.941406 235.886719 383.164062 233.101562 381.929688 C 232.40625 381.625 231.164062 381.257812 229.574219 380.847656 C 231.941406 380.089844 234.0625 378.933594 235.996094 377.402344 C 239.410156 382.921875 240.953125 387.941406 240.953125 387.941406 Z M 240.953125 387.941406 " fill-opacity="1" fill-rule="nonzero"/><path fill="#ffae80" d="M 289.265625 332.386719 C 289.164062 335.671875 286.421875 338.757812 286.421875 338.757812 C 286.421875 338.757812 282.238281 334.25 281.546875 334.074219 C 280.328125 333.753906 277.578125 334.085938 276.636719 333.410156 C 276.023438 332.964844 276.019531 332.53125 276.125 332.238281 C 276.191406 332.066406 276.296875 331.941406 276.332031 331.90625 L 276.339844 331.898438 C 276.339844 331.898438 276.332031 331.898438 276.316406 331.90625 C 276.058594 331.929688 273.820312 332.148438 273.632812 330.929688 C 273.511719 330.167969 274.132812 329.964844 274.132812 329.964844 C 274.132812 329.964844 273.597656 329.738281 273.597656 328.972656 C 273.597656 328.359375 274.53125 328.050781 274.949219 327.953125 C 276.558594 327.566406 281.457031 326.664062 281.457031 326.664062 C 281.457031 326.664062 282.082031 326.503906 282.429688 326.40625 C 283.527344 326.105469 285.273438 325.5625 285.992188 325.03125 C 286.714844 325.367188 287.296875 325.703125 287.511719 325.917969 C 289.125 327.578125 289.359375 329.441406 289.265625 332.386719 Z M 289.265625 332.386719 " fill-opacity="1" fill-rule="nonzero"/><path fill="#ffae80" d="M 282.59375 322.890625 C 280.164062 322.527344 276.757812 322.359375 275.40625 322.480469 C 274.15625 322.585938 274.714844 323.941406 275.40625 324.132812 C 276.011719 324.300781 280.464844 325.054688 280.464844 325.054688 C 280.464844 325.054688 282.542969 326.652344 283.125 326.804688 C 284.828125 327.257812 287.4375 326.507812 287.195312 325.722656 C 286.117188 324.753906 283.386719 323.003906 282.59375 322.890625 Z M 282.59375 322.890625 " fill-opacity="1" fill-rule="nonzero"/><path fill="#ffae80" d="M 270.585938 325.8125 C 270.585938 325.8125 269.113281 331.148438 269.1875 332.355469 C 269.351562 335.410156 269.78125 342.078125 269.78125 342.078125 C 269.78125 342.078125 275.417969 341.019531 274.238281 337.457031 C 273.0625 333.890625 274.03125 324.09375 270.585938 325.8125 Z M 270.585938 325.8125 " fill-opacity="1" fill-rule="nonzero"/><path fill="#dd8958" d="M 285.339844 330.054688 C 284.226562 329.53125 283.09375 329.089844 282.367188 328.78125 C 280.929688 328.875 279.957031 328.933594 278.363281 329.160156 C 277.195312 329.328125 276.070312 329.445312 274.148438 329.921875 C 274.070312 329.941406 274.078125 330.136719 274.148438 330.117188 C 276.597656 329.679688 276.84375 329.792969 278.234375 329.597656 C 279.457031 329.429688 280.828125 329.375 282.320312 329.296875 C 283.253906 329.714844 284.332031 330.191406 285.125 330.589844 C 285.796875 330.933594 286.015625 330.367188 285.339844 330.054688 Z M 285.339844 330.054688 " fill-opacity="1" fill-rule="nonzero"/><path fill="#dd8958" d="M 284.8125 333.527344 C 283.96875 333.195312 282.546875 332.308594 281.660156 331.914062 C 280.789062 331.914062 279.96875 331.878906 279.148438 331.914062 C 278.046875 331.96875 277.089844 332.113281 276.132812 332.238281 C 276.199219 332.058594 276.296875 331.941406 276.332031 331.90625 L 276.339844 331.894531 C 277.261719 331.742188 278.128906 331.578125 279.164062 331.5 C 280.015625 331.421875 280.929688 331.375 281.84375 331.328125 C 282.660156 331.757812 284.300781 332.738281 285.003906 333.230469 C 285.214844 333.375 285.039062 333.625 284.8125 333.527344 Z M 284.8125 333.527344 " fill-opacity="1" fill-rule="nonzero"/><path fill="#dd8958" d="M 285.183594 327.828125 C 285.183594 327.894531 285.070312 328.019531 284.855469 327.894531 C 283.980469 327.5 282.527344 326.941406 281.636719 326.617188 C 281.804688 326.574219 282.089844 326.496094 282.433594 326.40625 C 283.289062 326.734375 284.320312 327.167969 284.925781 327.511719 C 285.070312 327.589844 285.214844 327.644531 285.183594 327.828125 Z M 285.183594 327.828125 " fill-opacity="1" fill-rule="nonzero"/><path fill="#ffae80" d="M 523.425781 163.238281 C 522.511719 163.714844 522.035156 165.171875 521.613281 166.25 C 523.109375 166.371094 525.808594 166.25 526.164062 166.5 C 527.195312 167.21875 530.675781 169.277344 531.679688 169.863281 C 532.441406 170.308594 533.292969 169.277344 533.054688 168.941406 C 532.015625 167.453125 530.429688 165.570312 528.332031 163.5 C 527.902344 163.074219 524.605469 162.738281 523.425781 163.238281 Z M 523.425781 163.238281 " fill-opacity="1" fill-rule="nonzero"/><path fill="#ffae80" d="M 526.933594 162.621094 C 526.003906 163.089844 525.535156 164.808594 525.105469 165.882812 C 526.609375 166 529.308594 165.625 529.65625 165.875 C 530.699219 166.601562 533.78125 168.429688 534.792969 169.011719 C 535.554688 169.457031 536.554688 168.316406 536.554688 168.316406 C 536.554688 168.316406 533.925781 164.945312 531.835938 162.875 C 531.402344 162.449219 528.097656 162.117188 526.933594 162.621094 Z M 526.933594 162.621094 " fill-opacity="1" fill-rule="nonzero"/><path fill="#ffae80" d="M 532.140625 163.03125 C 531.21875 163.523438 530.777344 165.25 530.367188 166.328125 C 531.878906 166.421875 534.5625 165.992188 534.925781 166.238281 C 535.972656 166.945312 538.164062 168.066406 539.179688 168.636719 C 539.953125 169.070312 541.257812 168.054688 541.257812 168.054688 C 541.257812 168.054688 539.167969 165.238281 537.042969 163.203125 C 536.601562 162.785156 533.292969 162.515625 532.140625 163.03125 Z M 532.140625 163.03125 " fill-opacity="1" fill-rule="nonzero"/><path fill="#dd8958" d="M 534.988281 166.054688 C 534.757812 165.445312 534.1875 164.996094 533.746094 164.53125 C 533.265625 164.011719 532.777344 163.425781 532.179688 163.046875 C 532.105469 163 532.039062 163.085938 532.070312 163.148438 C 532.378906 163.75 532.894531 164.257812 533.347656 164.757812 C 533.777344 165.246094 534.304688 165.714844 534.804688 166.195312 C 534.878906 166.269531 535.039062 166.167969 534.988281 166.054688 Z M 534.988281 166.054688 " fill-opacity="1" fill-rule="nonzero"/><path fill="#dd8958" d="M 532.152344 167.375 C 531.378906 166.082031 529.3125 163.804688 529.175781 163.699219 C 528.65625 163.179688 527.871094 163.039062 527.144531 162.976562 C 527.019531 162.964844 526.992188 163.179688 527.121094 163.203125 C 527.832031 163.335938 528.4375 163.660156 529.0625 163.996094 C 529.972656 165.167969 530.871094 166.519531 531.996094 167.492188 C 532.078125 167.566406 532.210938 167.476562 532.152344 167.375 Z M 532.152344 167.375 " fill-opacity="1" fill-rule="nonzero"/><path fill="#dd8958" d="M 526.039062 163.046875 C 526.085938 162.953125 525.984375 162.863281 525.910156 162.949219 C 525.015625 163.835938 524.492188 165 524.71875 166.261719 C 524.734375 166.386719 524.949219 166.355469 524.9375 166.230469 C 524.882812 165.566406 524.996094 164.882812 525.324219 164.292969 C 525.5625 163.871094 525.808594 163.496094 526.039062 163.046875 Z M 526.039062 163.046875 " fill-opacity="1" fill-rule="nonzero"/><path fill="#ffae80" d="M 518.902344 180.488281 C 519.25 181.46875 522.152344 183.878906 523.152344 184.449219 C 523.898438 183.035156 525.5 179.988281 525.734375 179.625 C 526.574219 178.394531 528.382812 176.121094 529.015625 174.96875 C 529.4375 174.195312 527.5625 173.195312 527.5625 173.195312 C 527.5625 173.195312 524.746094 175.472656 522.402344 177.25 C 521.914062 177.621094 520.515625 178.824219 518.902344 180.488281 Z M 518.902344 180.488281 " fill-opacity="1" fill-rule="nonzero"/><path fill="#593231" d="M 481.429688 273.835938 C 468.339844 283.335938 450.8125 287.203125 435.054688 287.410156 C 433.640625 287.429688 433.652344 285.28125 435.054688 285.222656 C 444.03125 284.824219 452.796875 283.121094 461.285156 280.175781 C 468.066406 277.828125 474.375 274.53125 480.660156 271.15625 C 480.933594 272.054688 481.179688 272.949219 481.429688 273.835938 Z M 481.429688 273.835938 " fill-opacity="1" fill-rule="nonzero"/><path fill="#593231" d="M 486.113281 296.460938 C 472.691406 304.636719 456.230469 307.460938 440.726562 309.8125 C 438.726562 310.109375 437.851562 307.070312 439.882812 306.730469 C 450.367188 305 460.824219 303.128906 470.917969 299.714844 C 476.160156 297.941406 481.023438 295.582031 485.679688 292.84375 C 485.855469 294.097656 486.003906 295.308594 486.113281 296.460938 Z M 486.113281 296.460938 " fill-opacity="1" fill-rule="nonzero"/><path fill="#496822" d="M 440.738281 216.722656 C 437.339844 222.445312 430.390625 225.800781 423.945312 226.085938 C 414.78125 226.472656 406.261719 221.203125 397.074219 223.160156 C 396.417969 223.296875 396.164062 222.367188 396.800781 222.15625 C 403.78125 219.84375 410.367188 222.523438 417.308594 223.765625 C 421.585938 224.535156 425.792969 224.515625 429.929688 223.066406 C 433.777344 221.726562 436.746094 219.222656 439.636719 216.507812 C 440.023438 216.585938 440.386719 216.65625 440.738281 216.722656 Z M 440.738281 216.722656 " fill-opacity="1" fill-rule="nonzero"/><path fill="#496822" d="M 232.003906 381.914062 C 227.855469 384.476562 224.140625 387.367188 219.199219 388.3125 C 213.648438 389.375 208.363281 387.707031 203.257812 385.667969 C 195.0625 382.375 186.308594 378.355469 177.726562 382.726562 C 176.960938 383.121094 177.632812 384.222656 178.398438 383.875 C 189.824219 378.65625 200.652344 388.5 211.558594 390.511719 C 219.003906 391.882812 229.003906 389.980469 233.007812 382.917969 C 233.363281 382.292969 232.640625 381.519531 232.003906 381.914062 Z M 232.003906 381.914062 " fill-opacity="1" fill-rule="nonzero"/><path fill="#d45915" d="M 244.894531 376.152344 C 244.09375 377.148438 242.644531 378.367188 241.347656 378.484375 C 239.847656 378.628906 239.578125 377.882812 240.953125 377.230469 C 242.464844 376.515625 242.734375 375.84375 243.246094 374.890625 C 243.421875 374.558594 243.453125 373.925781 243.546875 373.570312 C 243.679688 373.792969 243.796875 374.011719 243.921875 374.238281 C 244.273438 374.902344 244.503906 375.332031 244.894531 376.152344 Z M 244.894531 376.152344 " fill-opacity="1" fill-rule="nonzero"/><path fill="#d45915" d="M 452.082031 209.316406 C 451.277344 210.316406 449.820312 211.535156 448.535156 211.652344 C 447.035156 211.796875 446.761719 211.050781 448.136719 210.398438 C 449.648438 209.675781 449.917969 209.011719 450.429688 208.058594 C 450.601562 207.726562 450.640625 207.097656 450.730469 206.734375 C 450.855469 206.957031 450.980469 207.179688 451.105469 207.40625 C 451.457031 208.070312 451.683594 208.5 452.082031 209.316406 Z M 452.082031 209.316406 " fill-opacity="1" fill-rule="nonzero"/><path fill="#593231" d="M 270.472656 461.417969 C 256.21875 468.238281 239.28125 471.351562 223.710938 470.492188 C 222.289062 470.410156 222.273438 468.253906 223.710938 468.269531 C 239.949219 468.464844 255.457031 463.984375 270.101562 457.75 C 270.25 459.070312 270.429688 460.273438 270.472656 461.417969 Z M 270.472656 461.417969 " fill-opacity="1" fill-rule="nonzero"/><path fill="#f3e3d5" d="M 189.546875 418.730469 C 189.808594 419.480469 208.847656 434.308594 208.847656 434.308594 L 227.492188 415.925781 L 208.519531 400.25 C 208.519531 400.25 181.386719 395.175781 189.546875 418.730469 Z M 189.546875 418.730469 " fill-opacity="1" fill-rule="nonzero"/><path fill="#8f4b35" d="M 408.882812 174.484375 C 407.226562 176.074219 407.28125 178.011719 406.691406 180.125 C 405.78125 183.367188 403.285156 184.835938 401.425781 187.402344 C 400.246094 189.03125 399.972656 190.511719 400.222656 192.476562 C 400.5625 195.117188 401.042969 197.238281 400 199.820312 C 398.679688 203.109375 395.628906 205.144531 391.980469 204.636719 C 391.609375 204.585938 391.4375 205.136719 391.824219 205.214844 C 397.890625 206.363281 402.019531 201.050781 401.691406 195.304688 C 401.53125 192.546875 400.625 190.144531 402.550781 187.679688 C 403.542969 186.394531 404.917969 185.433594 405.925781 184.152344 C 408.082031 181.417969 407.839844 177.90625 409.375 174.871094 C 409.542969 174.554688 409.148438 174.230469 408.882812 174.484375 Z M 408.882812 174.484375 " fill-opacity="1" fill-rule="nonzero"/><path fill="#8f4b35" d="M 410.226562 165.882812 C 408.203125 166.546875 406.046875 168.160156 405.019531 170.046875 C 404.339844 171.285156 404.40625 172.640625 404 173.953125 C 403.496094 175.566406 402.386719 177 401.40625 178.347656 C 401.226562 178.589844 401.621094 178.886719 401.816406 178.667969 C 403.339844 176.949219 404.597656 175.304688 405.089844 173.019531 C 405.460938 171.296875 405.960938 169.933594 407.308594 168.726562 C 408.304688 167.832031 409.5 167.238281 410.488281 166.34375 C 410.695312 166.160156 410.488281 165.796875 410.226562 165.882812 Z M 410.226562 165.882812 " fill-opacity="1" fill-rule="nonzero"/><path fill="#8f4b35" d="M 436.167969 150.550781 C 432.617188 159.132812 419.289062 154.726562 416.867188 163.988281 C 416.773438 164.371094 417.351562 164.523438 417.464844 164.148438 C 420.039062 155.546875 436.269531 160.425781 436.785156 150.632812 C 436.8125 150.246094 436.292969 150.246094 436.167969 150.550781 Z M 436.167969 150.550781 " fill-opacity="1" fill-rule="nonzero"/><path fill="#8f4b35" d="M 409.304688 186.742188 C 405.039062 192.699219 410.609375 200.996094 405.40625 206.480469 C 405.1875 206.722656 405.535156 207.082031 405.777344 206.84375 C 411.238281 201.433594 406.25 193.15625 409.59375 186.90625 C 409.703125 186.71875 409.433594 186.570312 409.304688 186.742188 Z M 409.304688 186.742188 " fill-opacity="1" fill-rule="nonzero"/><path fill="#9bc4de" d="M 218.105469 547.816406 C 218.058594 547.816406 218.058594 547.894531 218.105469 547.894531 C 218.160156 547.894531 218.160156 547.816406 218.105469 547.816406 Z M 218.105469 547.816406 " fill-opacity="1" fill-rule="nonzero"/><path fill="#d6c2b0" d="M 219.851562 409.890625 C 214.378906 415.789062 207.746094 422.722656 201.738281 428.054688 C 197.609375 424.558594 193.34375 421.234375 189.378906 417.511719 C 189.027344 417.171875 188.539062 417.675781 188.847656 418.039062 C 192.1875 421.953125 203.542969 430.707031 204.660156 431.261719 C 204.910156 431.382812 205.207031 431.0625 204.972656 430.855469 C 204.125 430.09375 203.269531 429.355469 202.398438 428.617188 C 208.75 423.429688 215.988281 417.0625 220.480469 410.375 C 220.738281 409.996094 220.160156 409.554688 219.851562 409.890625 Z M 219.851562 409.890625 " fill-opacity="1" fill-rule="nonzero"/><path fill="#d6c2b0" d="M 224.757812 413.816406 C 221.734375 410.316406 218 407.394531 214.546875 404.332031 C 214.148438 403.980469 213.570312 404.550781 213.964844 404.914062 C 217.363281 408.078125 220.640625 411.542969 224.4375 414.238281 C 224.699219 414.425781 224.949219 414.035156 224.757812 413.816406 Z M 224.757812 413.816406 " fill-opacity="1" fill-rule="nonzero"/><path fill="#d6c2b0" d="M 434.378906 259.625 C 432.894531 259.511719 431.429688 259.375 429.972656 259.222656 C 429.992188 259.1875 430.003906 259.144531 430.003906 259.097656 C 430.371094 254.539062 430.097656 249.90625 430.28125 245.328125 C 430.472656 240.742188 430.832031 236.171875 431.09375 231.597656 C 431.109375 231.1875 430.4375 231.085938 430.371094 231.496094 C 428.890625 240.320312 428.003906 250.25 429.277344 259.152344 C 422.671875 258.40625 416.304688 257.15625 410.011719 254.585938 C 409.507812 254.386719 409.136719 255.242188 409.636719 255.472656 C 417.316406 258.976562 425.878906 261.257812 434.378906 260.523438 C 434.949219 260.476562 434.953125 259.675781 434.378906 259.625 Z M 434.378906 259.625 " fill-opacity="1" fill-rule="nonzero"/><path fill="#cae7fa" d="M 284.660156 595.035156 C 284.476562 593.511719 283.761719 592.429688 282.28125 591.917969 C 281.285156 591.578125 280.683594 591.792969 279.785156 592.242188 C 278.78125 592.75 278.183594 593.953125 278.179688 595.035156 C 278.15625 600.539062 279.683594 605.832031 279.886719 611.296875 C 279.96875 613.492188 282.992188 613.390625 283.238281 611.296875 C 283.867188 605.78125 285.324219 600.644531 284.660156 595.035156 Z M 284.660156 595.035156 " fill-opacity="1" fill-rule="nonzero"/><path fill="#cae7fa" d="M 288.871094 602.316406 C 287.847656 604.417969 287.71875 606.679688 287.457031 608.960938 C 287.265625 610.550781 289.886719 611.253906 290.527344 609.789062 C 291.460938 607.683594 292.492188 605.683594 292.683594 603.351562 C 292.84375 601.359375 289.75 600.53125 288.871094 602.316406 Z M 288.871094 602.316406 " fill-opacity="1" fill-rule="nonzero"/><path fill="#cae7fa" d="M 84.175781 560.800781 C 81.359375 559.109375 78.574219 557.378906 75.769531 555.671875 C 73.382812 554.207031 70.835938 552.082031 67.9375 552.863281 C 66.820312 553.160156 65.980469 554.472656 66.375 555.625 C 67.351562 558.503906 70.308594 559.371094 72.902344 560.566406 C 75.894531 561.953125 78.894531 563.308594 81.882812 564.714844 C 84.488281 565.945312 86.722656 562.320312 84.175781 560.800781 Z M 84.175781 560.800781 " fill-opacity="1" fill-rule="nonzero"/><path fill="#cae7fa" d="M 68.34375 577.027344 C 67.007812 576.945312 65.671875 576.898438 64.34375 576.71875 C 63.359375 576.582031 62.671875 576.839844 62.074219 577.640625 C 61.582031 578.3125 61.582031 578.988281 62.074219 579.664062 C 62.675781 580.472656 63.367188 580.71875 64.34375 580.582031 C 65.671875 580.402344 67.007812 580.355469 68.34375 580.273438 C 70.429688 580.148438 70.4375 577.15625 68.34375 577.027344 Z M 68.34375 577.027344 " fill-opacity="1" fill-rule="nonzero"/><path fill="#cae7fa" d="M 382.238281 607.980469 C 378.761719 603.078125 371.859375 596.867188 365.332031 598.359375 C 364.078125 598.644531 363.878906 600.566406 364.847656 601.257812 C 367.015625 602.824219 369.722656 603.382812 372.074219 604.621094 C 374.75 606.03125 377.023438 608.015625 378.898438 610.378906 C 380.53125 612.441406 383.78125 610.152344 382.238281 607.980469 Z M 382.238281 607.980469 " fill-opacity="1" fill-rule="nonzero"/><path fill="#cae7fa" d="M 379.285156 614.816406 C 377.070312 614.382812 374.863281 613.941406 372.65625 613.507812 C 370.734375 613.128906 368.882812 612.640625 366.929688 612.9375 C 365.640625 613.128906 365.621094 614.972656 366.585938 615.554688 C 368.242188 616.566406 370.234375 616.773438 372.113281 617.15625 C 374.171875 617.574219 376.226562 617.988281 378.292969 618.410156 C 380.636719 618.886719 381.636719 615.28125 379.285156 614.816406 Z M 379.285156 614.816406 " fill-opacity="1" fill-rule="nonzero"/><path fill="#f3e3d5" d="M 395.574219 146.71875 C 395.574219 146.71875 397.832031 149.90625 399.839844 150.328125 C 401.859375 150.75 444.042969 139.992188 446.714844 138.792969 C 449.386719 137.589844 456.550781 120.425781 455.503906 118.890625 C 454.457031 117.359375 427.128906 131.125 419.285156 134.007812 C 411.429688 136.886719 392.6875 143.761719 395.574219 146.71875 Z M 395.574219 146.71875 " fill-opacity="1" fill-rule="nonzero"/><path fill="#593231" d="M 446.707031 138.792969 L 447.875 147.003906 L 401.554688 156.367188 L 399.839844 150.328125 Z M 446.707031 138.792969 " fill-opacity="1" fill-rule="nonzero"/><path fill="#fcc14f" d="M 445.90625 132.734375 C 443.320312 134.371094 441.941406 142.988281 445.273438 142.605469 C 447.558594 142.34375 447.257812 139.761719 448.453125 137.109375 C 449.777344 134.132812 451.957031 128.910156 445.90625 132.734375 Z M 445.90625 132.734375 " fill-opacity="1" fill-rule="nonzero"/><path fill="#fcc14f" d="M 413.296875 151.464844 C 413.296875 151.464844 446.484375 144.0625 447.488281 144.273438 C 448.578125 144.503906 448.378906 145.992188 447.742188 146.0625 C 447.109375 146.140625 414.863281 153.433594 413.421875 153.113281 C 411.980469 152.792969 412.347656 151.773438 413.296875 151.464844 Z M 413.296875 151.464844 " fill-opacity="1" fill-rule="nonzero"/><path fill="#593231" d="M 447.875 147.003906 C 448.136719 147.015625 456.285156 149.683594 456.285156 149.683594 C 456.285156 149.683594 457.113281 154.164062 415.566406 153.535156 Z M 447.875 147.003906 " fill-opacity="1" fill-rule="nonzero"/><path fill="#fcc14f" d="M 419.082031 150.363281 C 418.765625 151.03125 419.3125 152.261719 420.617188 152.191406 C 423.460938 152.03125 422.035156 149.273438 421.09375 149.238281 C 420.152344 149.210938 419.433594 149.625 419.082031 150.363281 Z M 419.082031 150.363281 " fill-opacity="1" fill-rule="nonzero"/></svg>