<svg width="38" height="38" viewBox="0 0 38 38" fill="none" xmlns="http://www.w3.org/2000/svg">
<ellipse cx="19" cy="18.9991" rx="19" ry="18.9991" fill="#B9D99E"/>
<mask id="mask0_2887_79430" style="mask-type:luminance" maskUnits="userSpaceOnUse" x="9" y="25" width="20" height="14">
<path d="M9.62061 25.9766H28.3801V38.0013H9.62061V25.9766Z" fill="white"/>
</mask>
<g mask="url(#mask0_2887_79430)">
<path d="M28.3688 34.3961C28.2768 28.6623 27.5188 27.029 21.7196 25.9941C21.7196 25.9941 20.9033 27.0219 19.0006 27.0219C17.0979 27.0219 16.2813 25.9941 16.2813 25.9941C10.5455 27.017 9.7415 28.6266 9.63566 34.2094C9.62713 34.6652 9.62297 34.6894 9.62158 34.6364C9.62178 34.7355 9.62237 34.9188 9.62237 35.2388C9.62237 35.2388 11.003 37.9891 19.0006 37.9891C26.9983 37.9891 28.3789 35.2388 28.3789 35.2388C28.3789 35.0332 28.3791 34.8904 28.3793 34.7931C28.3777 34.8259 28.3745 34.7625 28.3688 34.3957V34.3961Z" fill="#9ABF7A"/>
</g>
<path d="M19.0002 23.7487C22.0606 23.7487 24.5418 20.736 24.5418 17.02C24.5418 13.3037 23.7271 10.291 19.0002 10.291C14.2732 10.291 13.4585 13.3037 13.4585 17.02C13.4585 20.736 15.9398 23.7487 19.0002 23.7487Z" fill="#9ABF7A"/>
</svg>
