<svg width="666" height="659" viewBox="0 0 666 659" fill="none" xmlns="http://www.w3.org/2000/svg">
<path d="M233.697 322.022L208.893 259.961L194.623 266.883C194.623 266.883 205.665 326.954 211.95 343.827C218.236 360.699 226.191 364.926 231.305 363.858C239.087 362.228 258.338 352.608 258.338 352.608L240.282 317.284L233.697 322.022Z" fill="#FF9F80"/>
<path d="M313.598 303.558C313.549 306.707 312.605 310.39 311.205 314.179C306.605 326.576 296.97 340.169 296.347 340.569C295.846 340.903 283.802 347.936 273.399 353.984C272.551 354.495 271.7 354.978 270.884 355.465C270.479 355.703 270.071 355.938 269.676 356.177C268.539 356.828 267.45 357.454 266.432 358.058C261.704 360.816 258.338 362.771 258.338 362.771C258.338 362.771 257.166 360.629 255.358 357.276C254.905 356.437 254.401 355.512 253.874 354.53C253.681 354.174 253.479 353.809 253.286 353.44C252.821 352.576 252.342 351.664 251.838 350.729C249.326 346.054 246.439 340.595 243.831 335.538C243.326 334.556 242.825 333.584 242.356 332.649C242.154 332.271 241.974 331.893 241.782 331.524C241.303 330.565 240.837 329.643 240.394 328.753C237.664 323.214 235.833 319.105 236.193 318.666C237.388 317.185 249.959 308.01 256.244 300.017C258.338 297.341 261.451 294.275 264.865 291.09C265.928 290.108 267.017 289.101 268.109 288.093C268.468 287.775 268.815 287.458 269.172 287.137C269.843 286.533 270.502 285.938 271.147 285.335C276.058 280.873 280.738 276.528 283.31 273.08C288.828 265.682 302.298 260.733 302.298 260.733C302.298 260.733 302.848 262.948 303.721 266.378C304.081 267.766 304.489 269.34 304.942 271.056C304.98 271.221 305.025 271.402 305.086 271.577C305.086 271.577 305.086 271.577 305.086 271.59C305.337 272.572 305.613 273.604 305.889 274.656C308.102 282.98 310.906 293.14 313.048 299.426C313.466 300.659 313.633 302.045 313.598 303.558Z" fill="#79B3D1"/>
<path d="M219.723 230.227C217.092 228.667 216.206 232.83 215.769 234.13C215.3 235.519 215.117 237.086 214.308 238.325C213.974 238.837 210.486 244.605 210.486 244.605C210.486 244.605 207.415 237.607 206.689 235.207C205.514 231.298 204.303 227.405 203.824 223.366C203.664 221.996 203.079 211.283 201.036 212.414C199.819 213.091 199.726 216.527 199.633 217.696C199.447 220.007 199.472 222.33 199.553 224.64C199.681 228.301 199.977 231.963 200.404 235.601C200.42 235.764 200.439 235.922 200.458 236.081C200.458 236.081 197.282 222.079 196.717 219.889C196.386 218.599 194.276 210.044 192.297 211.436C190.585 212.64 191.163 216.406 191.369 218.163C191.751 221.431 194.921 238.093 194.921 238.093C194.921 238.093 189.577 224.469 188.488 222.038C188.029 221.005 187.312 219.279 186.307 218.659C185.26 218.017 184.563 217.9 184.149 219.002C183.526 220.661 185.854 228.702 187.043 233.259C187.431 234.759 188.738 239.87 188.738 239.87C188.738 239.87 185.347 233.491 184.345 231.317C183.792 230.122 182.273 227.176 180.539 227.777C178.538 228.473 180.529 232.188 181.155 233.803C181.994 235.961 183.275 238.389 184.149 240.537C185.475 243.791 194.423 268.221 195.323 268.186C197.388 268.103 200.314 270.309 202.305 269.702C206.93 268.291 211.953 262.637 211.953 262.637C213.161 261.277 214.089 259.081 214.911 257.425C215.865 255.509 216.656 253.5 217.128 251.406C218.065 247.224 217.436 242.809 218.64 238.684C219.36 236.224 220.757 230.841 219.723 230.227Z" fill="#FF9F80"/>
<path d="M274.799 320.325C274.346 331.49 272.897 342.514 273.386 353.726C273.386 353.809 273.399 353.901 273.399 353.984C272.551 354.495 271.699 354.978 270.884 355.465C270.479 355.703 270.071 355.938 269.676 356.177C268.539 356.828 267.45 357.454 266.432 358.058C266.349 356.733 266.275 355.408 266.217 354.079C265.726 342.857 267.161 331.868 267.64 320.678C268.06 310.699 266.48 300.894 264.865 291.09C265.928 290.108 267.017 289.101 268.109 288.093C268.468 287.775 268.815 287.458 269.172 287.137C269.843 286.533 270.501 285.939 271.147 285.335C273.003 296.941 275.313 308.496 274.799 320.325Z" fill="#32436D"/>
<path d="M270.884 355.465C270.479 355.703 270.071 355.938 269.676 356.177C269.663 353.796 269.676 351.429 269.663 349.061L269.544 323.71C269.496 311.833 269.592 299.878 268.109 288.093C268.468 287.776 268.815 287.458 269.172 287.137C270.668 298.431 270.694 309.892 270.742 321.294C270.778 329.748 270.8 338.192 270.848 346.646C270.861 349.582 270.874 352.528 270.884 355.465Z" fill="white"/>
<path d="M409.027 419.01C409.027 419.01 438.206 383.492 438.206 381.865C438.206 380.237 432.967 375.795 432.967 375.795C432.967 375.795 447.931 347.971 448.381 347.971C448.831 347.971 458.257 347.971 458.257 347.971C458.257 347.971 472.624 368.838 474.12 374.463C475.614 380.088 457.958 400.215 443.444 412.793C428.93 425.375 410.87 440.709 410.87 440.709L409.027 419.01Z" fill="#FF9F80"/>
<path d="M464.34 346.693C464.53 347.189 462.221 350.103 458.701 354.022C458.521 354.222 458.341 354.426 458.148 354.626C457.888 354.921 457.621 355.217 457.348 355.512C456.247 356.707 455.049 357.975 453.806 359.278C450.26 363.009 446.252 367.011 442.529 370.481C442.275 370.716 442.038 370.939 441.784 371.167C441.485 371.438 441.199 371.711 440.914 371.972C439.606 373.154 438.351 374.257 437.191 375.229C433.751 378.118 431.082 379.926 430.064 379.691C429.264 379.503 427.517 378.331 425.23 376.551C424.8 376.221 424.357 375.877 423.888 375.499C423.396 375.121 422.895 374.708 422.381 374.279C421.209 373.322 419.95 372.28 418.659 371.167C409.175 363.102 397.432 352.15 397.002 351.616C396.321 350.79 386.011 317.732 393.661 307.406C396.931 302.979 401.299 296.181 405.227 289.848C406.685 287.493 408.073 285.195 409.332 283.123C412.598 277.723 414.924 273.732 414.924 273.732C414.924 273.732 424.98 280.031 429.37 287.788C429.611 288.214 429.826 288.64 430.032 289.066C430.989 291.116 432.03 293.067 433.109 294.974C433.465 295.613 433.835 296.251 434.23 296.881C434.747 297.745 435.274 298.609 435.813 299.452C441.02 307.68 446.923 314.9 451.58 322.81C456.712 331.559 463.656 344.917 464.34 346.693Z" fill="#79B3D1"/>
<path d="M435.813 299.452C433.886 312.25 431.859 325.025 429.48 337.741C427.109 350.469 425.995 363.505 425.23 376.551C424.8 376.22 424.357 375.877 423.888 375.499C423.396 375.121 422.895 374.708 422.381 374.279C421.209 373.322 419.95 372.28 418.659 371.167C419.327 358.001 420.274 343.153 422.211 332.081C425.108 315.409 427.061 302.966 429.37 287.788C429.611 288.214 429.826 288.64 430.032 289.066C430.989 291.116 432.03 293.067 433.109 294.974C433.465 295.612 433.835 296.251 434.23 296.88C434.747 297.745 435.274 298.609 435.813 299.452Z" fill="#32436D"/>
<path d="M423.878 351.073C423.541 359.208 423.852 367.354 423.888 375.499C423.396 375.121 422.895 374.708 422.381 374.279C422.311 365.755 421.986 357.232 422.487 348.705C423.001 339.895 424.906 331.359 426.859 322.728C428.94 313.479 431.024 304.234 433.109 294.974C433.465 295.612 433.835 296.251 434.23 296.88C432.258 305.595 430.305 314.309 428.342 323.023C426.236 332.341 424.273 341.529 423.878 351.073Z" fill="white"/>
<path d="M401.18 421.32C400.641 419.833 400.93 418.374 400.808 417.236C400.509 414.478 400.188 411.872 399.851 409.444C398.222 397.688 396.308 390.096 396.308 390.096L290.566 397.997C290.566 397.997 289.968 401.203 289.213 405.465C288.687 408.519 288.064 412.133 287.514 415.508C287.058 418.409 286.663 421.12 286.422 423.154C285.526 430.851 279.989 504.14 279.989 504.14C279.989 504.14 297.114 508.752 319.372 509.648C326.872 509.95 336.087 508.116 340.766 508.075C340.952 503.854 341.707 494.813 342.122 490.602C342.179 490.036 345.815 509.295 345.815 509.295C345.815 509.295 358.884 510.531 366.93 510.836C382.494 511.431 410.244 504.032 410.244 504.032C410.244 504.032 406.961 437.268 401.18 421.32Z" fill="#6F5E68"/>
<path d="M401.18 421.32C396.931 421.593 392.752 421.854 392.296 421.864C364.309 422.884 336.093 421.641 308.295 418.479C301.328 417.697 294.41 416.667 287.514 415.507C288.064 412.132 288.687 408.519 289.213 405.465C289.332 405.49 289.416 405.503 289.464 405.516C295.978 406.65 302.488 407.41 309.098 408.049C336.8 410.712 364.919 412.059 392.717 410.06C395.097 409.882 397.48 409.682 399.851 409.444C400.188 411.872 400.509 414.478 400.808 417.236C400.93 418.374 401.049 419.744 401.18 421.32Z" fill="#36303A"/>
<path d="M307.906 424.225L305.539 423.863L308.732 403.539L311.099 403.898L307.906 424.225Z" fill="#6F5E68"/>
<path d="M380.384 425.973L377.191 405.649L379.558 405.284L382.751 425.61L380.384 425.973Z" fill="#6F5E68"/>
<path d="M404.694 268.472C404.376 268.361 404.064 268.234 403.746 268.119C403.596 267.849 403.278 267.684 403.005 267.846C394.725 264.779 388.195 261.436 381.643 255.544C377.519 251.835 376.459 246.96 376.443 241.408C376.427 236.212 376.286 230.933 377.143 225.81C377.256 225.133 375.071 224.672 374.657 225.215C371.339 229.598 363.833 229.115 358.894 228.832C353.559 228.53 348.359 227.392 343.345 225.603C343.127 223.566 342.899 221.535 342.69 219.539C342.61 218.789 341.412 218.78 341.492 219.539C341.688 221.411 341.903 223.309 342.109 225.219C341.582 225.27 341.428 226.166 342.048 226.398C342.115 226.423 342.179 226.442 342.247 226.468C342.677 230.551 343.047 234.654 343.092 238.76C343.13 242.065 342.44 247.478 340.304 250.255C334.137 258.274 322.986 260.829 313.479 262.408C312.721 262.532 313.042 263.676 313.797 263.549C314.654 263.409 315.515 263.254 316.379 263.095C318.351 269.905 325.028 272.918 331.439 274.675C340.378 277.123 348.176 284.845 357.329 286.304C365.805 287.655 375.695 281.934 384.036 279.773C391.098 277.942 398.566 274.914 403.339 269.228C403.685 269.352 404.029 269.495 404.376 269.613C405.105 269.864 405.417 268.72 404.694 268.472Z" fill="#FF9F80"/>
<path d="M397.397 165.586C395.042 161.219 392.052 156.56 388.311 153.22C384.048 149.419 378.489 148.224 372.894 147.951C368.844 147.754 364.228 147.989 361.168 150.579C355.785 149.518 349.679 148.92 345.449 153.007C344.556 153.865 344.004 154.784 343.438 155.864C342.912 156.881 342.43 158.445 341.505 159.198C340.959 159.643 339.793 159.948 339.157 160.244C336.726 161.369 334.253 162.761 332.666 164.972C328.439 170.884 332.554 178.47 332.38 184.889C332.3 187.927 331.638 191.128 333.148 193.95C333.507 194.624 333.989 195.208 334.538 195.736C335.948 203.455 346.894 207.244 353.874 208.143C360.182 208.953 366.875 208.903 373.215 208.515C378.476 208.194 384.887 207.689 389.325 204.59C392.775 202.178 394.657 198.129 395.364 194.109C395.739 191.967 395.579 189.837 395.755 187.686C396.019 184.448 398.206 182.019 399.163 179.007C400.628 174.395 399.651 169.762 397.397 165.586Z" fill="#36303A"/>
<path d="M330.752 257.632C330.752 257.632 343.833 264.792 357.201 265.682C370.568 266.568 387.334 263.314 387.334 263.314L357.329 287.788L330.752 257.632Z" fill="white"/>
<path d="M342.237 173.623C338.367 182.868 336.077 214.499 337.647 220.839C339.642 228.88 353.562 240.527 357.4 240.546C363.878 240.575 378.052 234.6 381.941 226.312C384.058 221.799 394.002 185.487 389.611 174.039C385.221 162.595 348.025 159.811 342.237 173.623Z" fill="#FF9F80"/>
<path d="M350.485 200.656C351.327 199.254 351.375 196.413 350.18 195.809C348.034 194.725 347.819 198.758 347.944 199.785C348.006 200.293 348.153 200.843 348.574 201.148C349.387 201.736 350.045 201.396 350.485 200.656Z" fill="#36303A"/>
<path d="M377.422 203.986C378.261 202.582 378.309 199.74 377.117 199.137C374.969 198.056 374.753 202.086 374.882 203.112C374.943 203.627 375.087 204.174 375.508 204.479C376.321 205.064 376.979 204.724 377.422 203.986Z" fill="#36303A"/>
<path d="M361.868 217.061C361.197 217.061 359.382 216.956 358.344 215.891C357.766 215.297 357.519 214.525 357.612 213.6C357.914 210.527 360.74 202.569 360.863 202.232C360.975 201.914 361.325 201.749 361.646 201.86C361.964 201.971 362.134 202.318 362.022 202.636C361.993 202.718 359.125 210.79 358.836 213.717C358.781 214.283 358.91 214.712 359.228 215.046C359.947 215.786 361.511 215.866 362.054 215.84C362.388 215.812 362.684 216.075 362.703 216.409C362.722 216.746 362.465 217.032 362.125 217.054C362.109 217.054 362.016 217.061 361.868 217.061Z" fill="#F27C55"/>
<path d="M351.098 219.851C351.863 219.158 355.014 220.985 359.822 221.675C364.633 222.368 367.938 221.964 368.176 222.562C368.526 223.452 365.381 226.166 359.597 225.772C353.469 225.352 350.334 220.541 351.098 219.851Z" fill="white"/>
<path d="M352.843 188.89C351.089 188.751 349.351 188.897 347.61 189.345C346.429 189.65 345.275 190.082 344.203 190.664C343.936 190.81 343.644 191.01 343.618 191.306C343.573 191.83 344.299 192.014 344.829 192.002C347.402 191.925 350.068 191.767 352.663 192.075C353.658 192.192 357.766 193.572 358.28 191.9C358.868 189.99 355.826 189.345 354.542 189.113C353.973 189.008 353.408 188.935 352.843 188.89Z" fill="#36303A"/>
<path d="M376.18 192.008C374.876 191.929 371.767 191.821 371.869 193.817C371.956 195.561 376.282 195.209 377.275 195.332C379.867 195.66 382.414 196.448 384.893 197.141C385.401 197.284 386.149 197.277 386.236 196.759C386.284 196.464 386.049 196.203 385.828 195.997C384.932 195.174 383.917 194.481 382.844 193.899C381.267 193.044 379.616 192.485 377.882 192.202C377.323 192.11 376.754 192.046 376.18 192.008Z" fill="#36303A"/>
<path d="M387.228 200.71C387.228 200.71 390.116 198.784 390.719 203.274C391.32 207.762 389.871 214.407 387.228 216.25C384.585 218.09 381.643 217.137 381.643 217.137L387.228 200.71Z" fill="#FF9F80"/>
<path d="M339.825 192.828C339.825 192.828 337.631 190.152 335.73 194.271C333.825 198.39 333.241 205.162 335.223 207.689C337.207 210.215 340.304 210.155 340.304 210.155L339.825 192.828Z" fill="#FF9F80"/>
<path d="M395.126 171.3C394.278 167.992 391.23 166.285 388.182 165.255C383.339 163.622 378.062 162.573 372.974 162.055C367.8 161.524 362.732 162.119 357.622 162.894C352.904 163.612 348.06 164.448 343.859 166.816C340.628 168.63 337.818 171.398 336.485 174.875C334.603 179.779 336.963 184.626 337.079 189.596C337.079 189.631 337.092 189.65 337.098 189.682C337.073 189.799 337.069 189.927 337.127 190.06C337.888 191.84 339.157 193.708 340.564 191.036C341.566 189.132 341.746 186.625 342.086 184.537C342.167 184.047 342.237 183.561 342.314 183.068C344.855 183.173 347.832 182.147 350.286 180.809C352.714 185.134 358.916 184.301 362.491 180.999C363.772 179.814 364.373 178.946 366.409 178.816C367.315 178.762 368.24 179 369.146 179.004C370.398 179.013 371.583 178.765 372.698 178.184C374.365 177.313 375.605 175.959 376.719 174.475C377.978 175.45 379.234 176.423 380.493 177.392C382.52 178.959 385.269 180.523 386.772 182.627C388.307 184.775 387.806 188.754 387.887 191.344C387.97 194.245 387.919 197.122 387.652 200.01C387.614 200.459 388.192 200.751 388.555 200.522C388.998 200.246 389.441 199.963 389.888 199.686C389.942 199.651 389.958 199.6 389.997 199.559C390.241 199.594 390.501 199.502 390.626 199.279C390.796 199.273 390.967 199.191 391.086 199.009C393.594 195.186 394.281 190.816 394.503 186.338C394.647 183.456 394.641 180.57 394.959 177.697C395.193 175.587 395.666 173.404 395.126 171.3Z" fill="#36303A"/>
<path d="M377.153 173.541C376.844 173.541 376.581 173.315 376.542 173.007C376.53 172.895 376.25 170.216 379.7 166.597C382.696 163.45 381.081 158.88 381.065 158.833C380.949 158.518 381.116 158.168 381.434 158.054C381.755 157.936 382.105 158.105 382.221 158.419C382.298 158.636 384.103 163.749 380.596 167.429C377.58 170.591 377.763 172.848 377.766 172.87C377.798 173.201 377.554 173.502 377.22 173.537C377.198 173.537 377.175 173.541 377.153 173.541Z" fill="#4E4552"/>
<path d="M339.841 183.113C339.735 183.113 339.629 183.087 339.533 183.03C339.302 182.897 333.896 179.722 334.445 175.905C334.969 172.282 339.43 170.703 343.091 170.451C344.389 170.362 344.996 169.606 346.101 168.23C347.058 167.035 348.372 165.402 350.726 163.615C356.058 159.573 360.027 161.464 362.655 162.716C364.01 163.364 365.577 162.767 367.565 162.014C369.024 161.464 370.674 160.841 372.582 160.59C377.371 159.948 380.018 163.342 380.13 163.488C380.332 163.758 380.281 164.137 380.011 164.34C379.738 164.543 379.353 164.489 379.147 164.222C379.054 164.102 376.809 161.261 372.746 161.798C370.98 162.026 369.399 162.627 368.005 163.151C365.831 163.975 363.949 164.686 362.121 163.813C359.485 162.557 356.205 160.994 351.474 164.582C349.242 166.276 348.034 167.779 347.064 168.986C345.876 170.471 345.015 171.542 343.178 171.665C340.596 171.843 336.112 172.972 335.663 176.077C335.303 178.581 338.781 181.184 340.153 181.978C340.445 182.15 340.545 182.522 340.374 182.814C340.259 183.008 340.053 183.113 339.841 183.113Z" fill="#4E4552"/>
<path d="M347.916 160.221C347.787 160.221 347.659 160.183 347.546 160.097C347.277 159.897 347.222 159.516 347.427 159.249C347.517 159.128 349.705 156.29 352.602 155.759C354.272 155.451 355.714 155.712 357.384 156.01C358.544 156.223 359.857 156.458 361.473 156.538C363.082 156.621 364.036 156.223 365.15 155.762C366.66 155.14 368.365 154.434 371.905 154.666C378.225 155.073 380.567 158.543 380.663 158.689C380.846 158.972 380.766 159.347 380.48 159.532C380.198 159.713 379.815 159.633 379.632 159.354C379.542 159.217 377.484 156.246 371.824 155.877C368.577 155.667 367.074 156.287 365.626 156.888C364.424 157.38 363.291 157.847 361.408 157.755C359.716 157.669 358.36 157.425 357.162 157.212C355.547 156.919 354.275 156.69 352.823 156.957C350.395 157.399 348.43 159.951 348.41 159.98C348.288 160.139 348.102 160.221 347.916 160.221Z" fill="#4E4552"/>
<path d="M350.986 178.953C350.72 178.953 350.482 178.781 350.402 178.533C350.379 178.495 350.347 178.447 350.312 178.393C348.908 176.216 349.602 174.211 352.377 172.425C356.886 169.52 361.055 171.179 361.229 171.249C361.54 171.379 361.691 171.732 361.559 172.044C361.431 172.355 361.071 172.501 360.756 172.374C360.605 172.314 356.995 170.9 353.048 173.445C349.891 175.476 350.877 177.005 351.349 177.739C351.471 177.926 351.558 178.06 351.59 178.234C351.651 178.565 351.429 178.883 351.099 178.94C351.06 178.95 351.021 178.953 350.986 178.953Z" fill="#4E4552"/>
<path d="M395.373 183.113C395.348 183.113 395.322 183.113 395.293 183.11C394.956 183.065 394.721 182.757 394.763 182.423C394.776 182.347 395.772 174.43 392.345 169.066C389.088 163.962 383.618 166.241 383.384 166.336C383.075 166.473 382.712 166.329 382.574 166.024C382.439 165.716 382.581 165.357 382.892 165.224C382.96 165.195 389.557 162.42 393.385 168.417C397.053 174.16 396.029 182.242 395.984 182.582C395.942 182.89 395.678 183.113 395.373 183.113Z" fill="#4E4552"/>
<path d="M337.137 205.448C337.008 205.448 336.877 205.407 336.764 205.321C336.642 205.222 335.56 204.298 335.839 201.895C335.99 200.608 337.146 198.768 337.278 198.561C337.461 198.278 337.84 198.196 338.126 198.374C338.415 198.555 338.499 198.927 338.319 199.213C338.004 199.709 337.163 201.18 337.063 202.035C336.861 203.754 337.516 204.352 337.542 204.374C337.792 204.596 337.824 204.978 337.612 205.229C337.49 205.372 337.313 205.448 337.137 205.448Z" fill="#F27C55"/>
<path d="M385.886 213.355C385.648 213.355 385.42 213.218 385.32 212.99C385.189 212.688 385.324 212.335 385.626 212.195C385.68 212.167 386.448 211.741 386.698 210.056C386.824 209.201 386.393 207.568 386.22 207.009C386.117 206.688 386.297 206.348 386.621 206.246C386.949 206.144 387.289 206.325 387.392 206.646C387.466 206.878 388.105 208.95 387.916 210.234C387.562 212.627 386.274 213.244 386.13 213.307C386.049 213.342 385.966 213.355 385.886 213.355Z" fill="#F27C55"/>
<path d="M359.118 242.256C358.791 242.256 358.47 242.244 358.145 242.212C350.675 241.503 342.989 230.742 342.664 230.285C342.472 230.008 342.539 229.63 342.815 229.436C343.095 229.242 343.48 229.312 343.673 229.585C343.75 229.693 351.359 240.346 358.264 241.001C365.195 241.671 373.944 233.911 374.031 233.828C374.281 233.606 374.67 233.625 374.898 233.873C375.126 234.124 375.107 234.508 374.856 234.734C374.496 235.055 366.355 242.256 359.118 242.256Z" fill="#F27C55"/>
<path d="M423.936 282.15C423.053 278.979 419.449 277.015 416.934 275.178C414.239 273.21 411.487 271.319 408.66 269.54C408.015 269.117 407.369 268.713 406.711 268.323C406.123 267.954 405.535 267.598 404.938 267.245C403.933 266.651 402.031 265.825 399.863 264.957C394.834 262.958 388.381 260.756 388.381 260.756L383.101 264.286L375.213 269.565L370.556 272.667C370.546 272.68 370.533 272.692 370.52 272.702L357.329 281.537L350.206 275.13C350.206 275.13 350.145 275.082 350.051 274.977L342.735 268.415V268.405L336.427 262.732L330.752 257.632C330.752 257.632 324.145 258.115 317.236 258.757C314.4 259.027 311.516 259.325 309.014 259.618C309.001 259.618 309.001 259.618 309.001 259.618C305.889 259.996 303.374 260.377 302.298 260.733C296.228 262.697 291.69 266.285 290.052 272.559C288.086 280.043 286.365 311.064 286.172 320.443C285.812 338.427 283.323 357.81 283.31 375.795C283.31 380.177 283.108 391.224 283.31 395.626C283.48 399.382 288.735 401.972 295.306 403.691C297.522 404.26 299.88 404.743 302.237 405.134C308.667 406.189 315.155 406.612 318.817 406.638C321.103 406.65 323.377 406.568 325.651 406.51C327.929 406.437 330.203 406.402 332.464 406.485C332.586 406.485 332.717 406.498 332.836 406.498C339.623 406.758 346.387 407.41 353.138 408.084C354.982 408.262 356.816 408.449 358.659 408.627C359.173 408.675 359.77 408.722 360.442 408.748C365.854 409.031 375.788 408.748 384.816 407.728C387.485 407.432 390.08 407.063 392.454 406.638C398.318 405.573 402.844 404.092 403.92 402.137C406.891 396.728 414.121 315.847 416.969 307.692C418.585 303.049 420.143 298.384 421.627 293.706C422.703 290.296 424.954 285.821 423.936 282.15Z" fill="#79B3D1"/>
<path d="M355.017 419.661C354.994 420.195 354.766 420.694 354.371 421.063C353.989 421.428 353.485 421.629 352.936 421.606L335.997 421.082C335.457 421.072 334.956 420.847 334.583 420.456C334.214 420.065 334.021 419.556 334.034 419.023L334.249 412.276C334.259 411.742 334.487 411.243 334.882 410.877C335.255 410.521 335.743 410.334 336.26 410.334H336.331L353.27 410.855C353.809 410.865 354.301 411.09 354.67 411.481C355.043 411.872 355.235 412.38 355.222 412.914L355.161 414.929L355.126 415.899L355.017 419.661ZM355.797 410.973C355.724 410.865 355.64 410.76 355.544 410.664C354.959 410.048 354.156 409.692 353.308 409.67L336.366 409.148C334.596 409.113 333.1 410.486 333.051 412.241L332.836 418.988C332.788 420.742 334.176 422.22 335.961 422.267L352.9 422.789H352.997C354.718 422.789 356.157 421.428 356.215 419.699L356.359 415.056C356.359 415.047 356.359 415.047 356.359 415.031L356.42 412.949C356.443 412.228 356.215 411.538 355.797 410.973Z" fill="white"/>
<path d="M386.432 428.188L409.027 419.01L421 428.337C421 428.337 416.061 436.031 406.933 444.615C403.252 448.076 398.852 450.981 398.852 450.981L391.863 440.303L386.432 428.188Z" fill="#FF9F80"/>
<path d="M287.514 443.153C287.254 443.153 287.017 442.991 286.93 442.737C286.821 442.419 286.994 442.076 287.319 441.968C287.37 441.949 292.804 440.071 299.273 432.828C303.641 427.934 306.114 421.365 306.14 421.298C306.255 420.983 306.612 420.824 306.93 420.936C307.248 421.053 307.412 421.403 307.293 421.717C307.19 421.997 304.72 428.563 300.195 433.632C293.485 441.148 287.942 443.045 287.707 443.122C287.643 443.141 287.579 443.153 287.514 443.153Z" fill="#594852"/>
<path d="M400.217 452.92C400.066 452.92 399.912 452.862 399.79 452.751C399.616 452.586 395.483 448.597 391.522 440.989C387.588 433.425 384.697 424.498 384.668 424.409C384.566 424.088 384.742 423.748 385.067 423.647C385.391 423.545 385.738 423.72 385.841 424.041C385.87 424.13 388.731 432.958 392.618 440.433C396.475 447.847 400.602 451.836 400.644 451.874C400.888 452.109 400.894 452.494 400.66 452.735C400.541 452.856 400.377 452.92 400.217 452.92Z" fill="#594852"/>
<path d="M341.479 487.557C341.473 487.557 341.466 487.557 341.46 487.557C341.123 487.547 340.856 487.268 340.866 486.931L341.373 469.611L343.069 425.229C343.082 424.892 343.342 424.616 343.705 424.644C344.045 424.657 344.312 424.94 344.296 425.274L342.603 469.652L342.096 486.966C342.083 487.3 341.81 487.557 341.479 487.557Z" fill="#594852"/>
<path d="M342.353 467.869C342.083 467.869 341.839 467.694 341.762 467.427C341.669 467.103 341.858 466.766 342.186 466.674C344.148 466.124 349.364 464.125 349.913 461.513C350.646 458.046 352.28 424.533 352.296 424.196C352.313 423.859 352.614 423.602 352.942 423.618C353.279 423.634 353.543 423.92 353.527 424.257C353.459 425.639 351.869 458.201 351.118 461.761C350.305 465.629 342.838 467.758 342.52 467.847C342.465 467.863 342.407 467.869 342.353 467.869Z" fill="#594852"/>
<path d="M350.206 275.13L347.919 285.716C347.919 285.716 345.012 284.651 341.277 283.145V283.132C339.083 282.258 336.62 281.229 334.285 280.174C331.063 278.731 328.096 277.237 326.48 276.042C321.691 272.489 317.692 266.368 316.494 264.404C316.266 264.035 315.788 263.61 315.155 263.158C313.585 262.036 311.06 260.721 309.014 259.618C309.001 259.618 309.001 259.618 309.001 259.618C307.347 258.744 306.008 258.01 305.722 257.632C305.16 256.872 307.158 256.519 310.999 255.452C312.496 255.035 314.282 254.504 316.305 253.805C318.759 252.954 320.445 252.328 321.726 251.829C324.193 250.894 325.173 250.443 327.27 249.791C330.466 248.809 331.661 253.548 333.986 257.632C334.477 258.483 335.457 259.739 336.726 261.194C338.45 263.184 340.676 265.551 342.844 267.766C346.184 271.211 349.319 274.275 350.051 274.977C350.145 275.082 350.206 275.13 350.206 275.13Z" fill="#79B3D1"/>
<path d="M409.02 268.348C409.033 268.643 408.901 269.057 408.661 269.54C408.217 270.477 407.382 271.72 406.364 273.035V273.045C404.354 275.651 401.646 278.54 399.863 279.986C399.587 280.208 399.205 280.469 398.726 280.755C394.429 283.313 382.912 287.836 379.106 288.853C378.601 288.992 378.242 289.066 378.039 289.066C377.082 289.066 375.129 284.899 373.43 280.79V280.777C371.767 276.798 370.366 272.88 370.366 272.88C370.366 272.88 370.427 272.823 370.52 272.702C370.533 272.692 370.546 272.68 370.556 272.667C371.156 272.028 373.071 269.956 375.502 267.423C377.956 264.865 380.949 261.82 383.666 259.262C386.885 256.246 389.711 253.9 390.848 253.805C392.393 253.688 396.497 256.456 400.413 259.643C402.902 261.668 405.32 263.845 406.962 265.551V265.561C408.217 266.864 409.007 267.897 409.02 268.348Z" fill="#79B3D1"/>
<path d="M321.727 251.829C319.992 254.031 318.505 256.354 317.236 258.757C316.472 260.187 315.778 261.668 315.155 263.158C310.906 273.388 309.743 284.864 308.953 295.911C307.852 311.23 306.596 326.529 303.435 341.589C301.759 349.63 299.928 357.441 300.381 365.708C300.811 373.557 302.571 381.264 302.931 389.127C303.172 394.478 302.787 399.808 302.237 405.134C301.004 404.934 299.784 404.696 298.576 404.448C298.181 404.365 297.795 404.283 297.413 404.2C296.694 404.035 295.987 403.87 295.306 403.692C295.724 398.861 295.978 394.005 295.75 389.127C295.329 380.152 293.103 371.342 293.09 362.358C293.08 354.661 294.947 347.176 296.514 339.705C300.153 322.289 300.692 304.708 302.501 287.076C303.484 277.545 305.266 268.192 309.001 259.618C309.612 258.21 310.283 256.815 310.999 255.452C311.622 255.286 312.281 255.083 313 254.87C313.466 254.73 313.957 254.574 314.471 254.422C315.059 254.231 315.669 254.031 316.305 253.805C318.759 252.954 320.445 252.328 321.727 251.829Z" fill="#32436D"/>
<path d="M342.844 267.767C342.809 267.979 342.77 268.192 342.735 268.405V268.415C342.019 273.284 341.598 278.197 341.277 283.132V283.145C340.882 289.066 340.628 294.999 340.162 300.929C339.649 307.336 338.881 313.753 337.397 320.004C335.708 327.193 333.087 334.14 332.441 341.542C331.112 356.672 332.406 372.302 332.595 387.48C332.679 393.817 332.762 400.164 332.836 406.498C332.717 406.498 332.586 406.485 332.464 406.485C331.449 406.45 330.418 406.438 329.387 406.438C328.992 406.438 328.597 406.438 328.192 406.45C327.354 406.463 326.503 406.472 325.651 406.511C325.568 399.382 325.475 392.251 325.388 385.126C325.199 370.052 323.737 354.387 325.475 339.4C326.275 332.459 328.549 325.89 330.225 319.127C332.046 311.741 332.801 304.187 333.292 296.607C333.639 291.128 333.89 285.634 334.285 280.174C334.715 274.326 335.325 268.497 336.427 262.733C336.523 262.214 336.62 261.703 336.726 261.194C337.314 261.868 337.946 262.58 338.618 263.314C338.964 263.692 339.311 264.07 339.684 264.452C340.702 265.551 341.778 266.676 342.844 267.767Z" fill="#32436D"/>
<path d="M383.666 259.262C383.486 260.946 383.307 262.615 383.101 264.286C382.134 272.537 380.936 280.765 379.106 288.853C378.781 290.321 378.421 291.777 378.052 293.235C376.16 300.529 373.417 307.68 372.653 315.208C371.934 322.102 372.579 329.049 372.004 335.951C370.858 349.735 367.434 363.327 365.924 377.11C364.762 387.789 363.493 398.48 360.442 408.748C359.77 408.722 359.173 408.675 358.659 408.627C358.251 408.592 357.831 408.544 357.426 408.509C357.031 408.462 356.623 408.427 356.228 408.392C355.197 408.284 354.169 408.179 353.138 408.084C356.588 397.011 357.821 385.481 359.09 373.913C360.561 360.521 364.225 347.224 364.977 333.797C365.362 326.872 364.835 319.934 365.722 313.041C366.57 306.364 368.773 300.005 370.546 293.531C371.693 289.314 372.64 285.077 373.43 280.79V280.777C374.124 277.059 374.712 273.318 375.213 269.565C375.322 268.844 375.406 268.132 375.502 267.423C376.302 266.581 377.166 265.694 378.052 264.792C378.482 264.356 378.926 263.905 379.369 263.47C380.792 262.024 382.266 260.581 383.666 259.262Z" fill="#32436D"/>
<path d="M406.962 265.551V265.561C406.878 266.486 406.795 267.398 406.711 268.323C406.579 269.899 406.457 271.459 406.364 273.036V273.045C405.715 282.316 405.404 291.611 404.806 300.894C403.862 315.742 401 329.891 398.354 344.491C395.566 359.917 397.744 375.642 395.492 391.141C394.737 396.36 393.697 401.524 392.454 406.638C391.445 406.816 390.392 406.994 389.316 407.149C388.873 407.219 388.417 407.28 387.964 407.337C386.933 407.48 385.879 407.61 384.816 407.728C386.586 400.873 388.022 393.935 388.86 386.889C390.62 372.124 388.767 357.314 391.436 342.606C394.307 326.729 397.085 311.385 397.959 295.222C398.222 290.394 398.45 285.573 398.726 280.755C399.025 275.486 399.385 270.217 399.863 264.957C400.03 263.184 400.21 261.417 400.413 259.643C401.466 260.495 402.507 261.382 403.477 262.259C403.862 262.58 404.219 262.91 404.578 263.241C405.478 264.058 406.281 264.852 406.962 265.551Z" fill="#32436D"/>
<path d="M314.471 254.422C312.184 259.701 309.84 266.047 308.905 271.532C307.54 279.557 306.57 292.476 305.709 303.879C305.253 309.761 304.836 315.326 304.428 319.318C303.914 324.196 302.693 330.082 301.399 336.307C299.639 344.809 297.808 353.596 297.712 360.416C297.615 367.033 298.239 373.049 298.801 378.366C299.231 382.532 299.639 386.473 299.639 390.096C299.639 394.443 299.09 400.1 298.576 404.448C298.181 404.365 297.795 404.283 297.413 404.2C297.917 399.9 298.444 394.361 298.444 390.096C298.444 386.533 298.036 382.628 297.606 378.483C297.053 373.132 296.421 367.08 296.514 360.391C296.61 353.475 298.454 344.631 300.227 336.072C301.518 329.878 302.729 324.018 303.23 319.2C303.65 315.221 304.068 309.669 304.511 303.796C305.375 292.368 306.355 279.417 307.733 271.342C308.629 266.06 310.797 260.034 313 254.87C313.466 254.73 313.957 254.574 314.471 254.422Z" fill="white"/>
<path d="M339.684 264.452C338.797 271.863 337.731 282.128 337.696 289.066C337.648 300.777 336.678 309.418 334.571 317.093C334.201 318.418 333.781 319.839 333.35 321.342C331.352 328.149 328.873 336.616 328.513 345.034C328.166 353.037 329.005 390.369 329.387 406.437C328.992 406.437 328.597 406.437 328.192 406.45C327.81 390.36 326.971 353.027 327.318 344.987C327.688 336.415 330.19 327.879 332.191 321.011C332.631 319.518 333.051 318.097 333.411 316.785C335.505 309.218 336.45 300.669 336.498 289.066C336.536 281.75 337.709 270.821 338.617 263.314C338.964 263.692 339.311 264.07 339.684 264.452Z" fill="white"/>
<path d="M379.369 263.47C379.044 267.067 378.733 270.382 378.412 273.614C377.622 281.642 375.537 289.778 373.527 297.65C372.544 301.476 371.526 305.442 370.687 309.326C369.239 315.942 369.049 322.658 368.844 329.157C368.69 334.734 368.51 340.49 367.565 346.172C366.403 353.157 360.108 391.911 357.426 408.509C357.031 408.462 356.623 408.427 356.228 408.392C358.91 391.837 365.218 352.979 366.39 345.981C367.325 340.369 367.492 334.652 367.649 329.122C367.851 322.572 368.044 315.799 369.515 309.075C370.366 305.169 371.384 301.203 372.364 297.354C374.365 289.527 376.433 281.429 377.227 273.496C377.5 270.7 377.763 267.849 378.052 264.792C378.482 264.356 378.926 263.905 379.369 263.47Z" fill="white"/>
<path d="M404.578 263.241C403.31 276.398 401.334 297.402 400.82 306.246C400.342 314.369 398.547 323.805 396.809 332.945C394.859 343.162 393.016 352.824 393.337 359.256C393.912 371.177 392.81 393.531 391.304 400.494C390.764 402.957 390.035 405.242 389.316 407.149C388.873 407.219 388.416 407.279 387.964 407.337C388.741 405.338 389.557 402.887 390.128 400.234C391.625 393.353 392.717 371.167 392.142 359.3C391.818 352.741 393.674 343.023 395.624 332.719C397.361 323.627 399.157 314.226 399.622 306.176C400.149 297.119 402.208 275.343 403.477 262.259C403.862 262.58 404.219 262.91 404.578 263.241Z" fill="white"/>
<path d="M343.615 405.894C343.512 405.894 343.406 405.865 343.31 405.811C343.014 405.643 342.912 405.274 343.082 404.982C343.114 404.931 346.184 399.493 345.417 390.147C344.591 380.145 347.064 339.994 347.81 332.589C348.041 330.314 348.407 327.476 348.834 324.186C349.888 316.079 351.198 305.995 351.198 298.142C351.198 287.74 355.2 284.117 356.514 282.929C356.616 282.834 356.7 282.757 356.761 282.7C356.995 282.459 357.384 282.452 357.628 282.687C357.872 282.919 357.879 283.307 357.644 283.545C357.57 283.622 357.468 283.714 357.345 283.825C356.128 284.928 352.428 288.274 352.428 298.142C352.428 306.071 351.115 316.203 350.055 324.342C349.631 327.619 349.261 330.453 349.033 332.71C348.182 341.167 345.873 380.752 346.641 390.048C347.447 399.798 344.283 405.357 344.148 405.589C344.036 405.783 343.827 405.894 343.615 405.894Z" fill="#32436D"/>
<path d="M285.774 342.759C285.729 342.759 285.68 342.753 285.632 342.74C285.301 342.664 285.096 342.336 285.173 342.009C285.212 341.856 288.793 326.44 285.167 305.35C283.596 296.216 278.659 282.452 278.608 282.316C278.496 281.998 278.663 281.648 278.981 281.537C279.305 281.426 279.655 281.588 279.768 281.906C279.819 282.045 284.791 295.908 286.381 305.147C290.048 326.494 286.41 342.133 286.371 342.289C286.304 342.571 286.053 342.759 285.774 342.759Z" fill="#32436D"/>
<path d="M410.247 358.665C410.228 358.665 410.205 358.665 410.186 358.662C409.849 358.63 409.605 358.337 409.631 358.004C409.666 357.61 415.058 313.219 418.081 305.038C421.02 297.074 423.57 286.472 423.595 286.367C423.676 286.04 424.007 285.837 424.334 285.916C424.665 285.992 424.871 286.317 424.793 286.647C424.768 286.755 422.202 297.424 419.237 305.455C416.285 313.435 410.902 357.702 410.857 358.115C410.825 358.43 410.556 358.665 410.247 358.665Z" fill="#32436D"/>
<path d="M354.506 283.73C354.426 283.73 354.342 283.714 354.259 283.679C353.276 283.253 330.125 273.194 327.55 271.3C325.565 269.842 324.575 265.863 323.984 263.486C323.869 263.022 323.74 262.51 323.657 262.246C322.42 262.001 314.985 260.911 310.325 260.247C309.991 260.199 309.756 259.888 309.804 259.554C309.853 259.224 310.171 258.992 310.501 259.039C319.372 260.307 324.033 261.032 324.357 261.191C324.726 261.375 324.813 261.725 325.179 263.193C325.693 265.268 326.654 269.123 328.285 270.325C330.254 271.774 346.461 278.966 354.754 282.567C355.065 282.7 355.206 283.059 355.072 283.367C354.969 283.596 354.744 283.73 354.506 283.73Z" fill="#32436D"/>
<path d="M357.201 283.73C356.909 283.73 356.652 283.526 356.597 283.234C356.533 282.904 356.755 282.586 357.089 282.522C357.291 282.487 377.535 278.747 383.984 275.883C390.093 273.169 390.234 269.197 390.238 269.028L390.25 268.396L390.89 268.428L407.617 269.416C407.957 269.435 408.214 269.724 408.195 270.058C408.172 270.395 407.877 270.643 407.543 270.63L391.397 269.677C391.14 271.097 389.952 274.568 384.488 276.992C377.904 279.916 358.152 283.568 357.313 283.72C357.275 283.73 357.236 283.73 357.201 283.73Z" fill="#32436D"/>
<path d="M375.955 406.075C375.746 406.075 375.544 405.97 375.428 405.776C375.254 405.49 375.348 405.115 375.64 404.944C375.698 404.909 381.203 401.648 383.172 399.013C385.182 396.328 386.769 393.214 386.785 393.185C386.939 392.883 387.308 392.762 387.61 392.912C387.915 393.064 388.037 393.43 387.883 393.728C387.819 393.859 386.236 396.967 384.161 399.738C382.044 402.567 376.504 405.853 376.273 405.989C376.173 406.046 376.064 406.075 375.955 406.075Z" fill="#32436D"/>
<path d="M305.488 404.146C305.353 404.146 305.211 404.098 305.099 404.006L292.701 393.925C292.438 393.716 292.4 393.331 292.615 393.071C292.83 392.81 293.222 392.772 293.482 392.988L305.88 403.069C306.143 403.282 306.178 403.663 305.963 403.924C305.844 404.07 305.668 404.146 305.488 404.146Z" fill="#32436D"/>
<path d="M286.557 311.188C286.554 311.188 286.548 311.188 286.544 311.188C286.204 311.182 285.934 310.902 285.941 310.568L286.798 272.696C286.808 272.359 287.065 272.104 287.428 272.101C287.768 272.108 288.035 272.384 288.028 272.724L287.171 310.594C287.164 310.924 286.891 311.188 286.557 311.188Z" fill="#32436D"/>
<path d="M358.113 288.605C357.715 289.943 356.719 290.823 355.887 290.582C355.055 290.34 354.702 289.062 355.097 287.731C355.495 286.396 356.491 285.513 357.323 285.754C358.155 285.999 358.508 287.273 358.113 288.605Z" fill="white"/>
<path d="M355.081 315.358C354.943 316.74 354.131 317.795 353.267 317.709C352.406 317.624 351.818 316.435 351.956 315.053C352.094 313.67 352.907 312.618 353.771 312.701C354.635 312.787 355.223 313.975 355.081 315.358Z" fill="white"/>
<path d="M352.033 345.775C351.895 347.157 351.082 348.209 350.219 348.123C349.355 348.041 348.767 346.849 348.905 345.466C349.046 344.084 349.859 343.032 350.72 343.115C351.584 343.2 352.171 344.392 352.033 345.775Z" fill="white"/>
<path d="M350.556 373.789C350.671 375.175 350.061 376.357 349.197 376.427C348.333 376.497 347.54 375.429 347.424 374.044C347.309 372.661 347.916 371.479 348.78 371.412C349.647 371.342 350.44 372.407 350.556 373.789Z" fill="white"/>
<path d="M346.156 403.73C346.634 402.424 347.681 401.604 348.497 401.896C349.313 402.185 349.589 403.485 349.11 404.788C348.632 406.094 347.582 406.921 346.766 406.628C345.95 406.333 345.677 405.039 346.156 403.73Z" fill="white"/>
<path d="M201.708 258.591C201.679 258.591 201.65 258.591 201.618 258.585C201.281 258.537 201.049 258.232 201.098 257.899C201.117 257.756 201.621 254.371 202.835 251.568C204.085 248.692 208.816 245.155 209.018 245.005C209.291 244.805 209.676 244.859 209.879 245.129C210.084 245.396 210.03 245.781 209.757 245.981C209.712 246.016 205.087 249.467 203.969 252.048C202.819 254.701 202.321 258.038 202.315 258.07C202.27 258.375 202.006 258.591 201.708 258.591Z" fill="#F27C55"/>
<path d="M439.536 380.32C439.401 380.32 439.263 380.276 439.15 380.187C438.887 379.977 438.842 379.592 439.054 379.332L447.055 369.458C447.263 369.194 447.652 369.153 447.919 369.362C448.185 369.572 448.224 369.957 448.012 370.217L440.014 380.091C439.895 380.244 439.716 380.32 439.536 380.32Z" fill="#F27C55"/>
<ellipse cx="227.273" cy="137.612" rx="58.275" ry="59.8314" fill="#8EBA3A" fill-opacity="0.71"/>
<path d="M199 169.48H263V105.48H199V169.48Z" fill="black"/>
<ellipse cx="532.8" cy="111.115" rx="58.275" ry="59.8314" fill="#8EBA3A" fill-opacity="0.46"/>
<path d="M501 142.48H565V78.48H501V142.48Z" fill="black"/>
<ellipse cx="519.48" cy="482.07" rx="58.275" ry="59.8314" fill="#8EBA3A" fill-opacity="0.7"/>
<path d="M487 514.48H551V450.48H487V514.48Z" fill="black"/>
<ellipse cx="178.155" cy="547.03" rx="58.275" ry="59.8314" fill="#8EBA3A" fill-opacity="0.49"/>
<path d="M148 579.48H212V515.48H148V579.48Z" fill="black"/>
<ellipse cx="64.935" cy="316.252" rx="58.275" ry="59.8314" fill="#8EBA3A"/>
<path d="M32.9999 353.48H96.9999V289.48H32.9999V353.48Z" fill="black"/>
</svg>
