<svg width="48" height="47" viewBox="0 0 48 47" fill="none" xmlns="http://www.w3.org/2000/svg">
<path d="M42.8294 5.17526C42.6711 5.02023 42.5088 4.86927 42.3431 4.72195C42.1771 4.57484 42.0076 4.43159 41.8345 4.29265C41.6616 4.15371 41.485 4.01885 41.3053 3.88829C41.1255 3.75774 40.9424 3.63149 40.7563 3.50977C40.5701 3.38806 40.381 3.27087 40.1889 3.15822C39.997 3.04558 39.8023 2.93746 39.6049 2.8341C39.4074 2.73097 39.2074 2.63238 39.0051 2.53877C38.8028 2.44493 38.5981 2.35608 38.3912 2.27222C38.1845 2.18835 37.9757 2.10947 37.7648 2.03581C37.5539 1.96192 37.3414 1.89324 37.1273 1.82955C36.913 1.76586 36.6975 1.70761 36.4803 1.65434C36.263 1.60108 36.0447 1.55303 35.8252 1.51019C35.6056 1.46758 35.385 1.42995 35.1637 1.39799C34.9421 1.36581 34.7201 1.33883 34.4972 1.31753C34.2745 1.29599 34.0514 1.2799 33.8278 1.26902C33.6042 1.25837 33.3803 1.25293 33.1565 1.25293C32.9326 1.25293 32.709 1.25837 32.4854 1.26902C32.2618 1.2799 32.0384 1.29599 31.8157 1.31753C31.5931 1.33883 31.3708 1.36581 31.1493 1.39799C30.928 1.42995 30.7074 1.46758 30.488 1.51019C30.2683 1.55303 30.05 1.60108 29.8329 1.65434C29.6157 1.70761 29.4 1.76586 29.1856 1.82955C28.9715 1.89324 28.759 1.96192 28.5481 2.03581C28.3375 2.10947 28.1287 2.18835 27.9218 2.27222C27.715 2.35608 27.5104 2.44493 27.3079 2.53877C27.1056 2.63238 26.9058 2.73097 26.7083 2.8341C26.5109 2.93746 26.316 3.04558 26.1241 3.15822C25.9319 3.27087 25.7428 3.38806 25.5567 3.50977C25.3706 3.63149 25.1877 3.75774 25.0079 3.88829C24.828 4.01885 24.6516 4.15371 24.4785 4.29265C24.3053 4.43159 24.1359 4.57484 23.9699 4.72195C23.8042 4.86927 23.6419 5.02023 23.4838 5.17526C23.3326 5.3235 23.1852 5.47513 23.0414 5.62994C22.8977 5.78498 22.7576 5.94318 22.6213 6.10456C22.4852 6.26595 22.3528 6.4305 22.2245 6.598C22.0961 6.76528 21.9718 6.93572 21.8516 7.10889C21.7315 7.28206 21.6153 7.45795 21.5035 7.63633C21.3917 7.81493 21.2843 7.99581 21.181 8.17917C21.078 8.36254 20.9792 8.54817 20.885 8.7363C20.7905 8.9242 20.7009 9.11414 20.6157 9.30612C20.5306 9.49833 20.45 9.69212 20.3741 9.88796C20.2981 10.0836 20.2269 10.281 20.1604 10.48C20.094 10.679 20.0322 10.8796 19.9752 11.0813C19.9183 11.2833 19.8664 11.4861 19.8192 11.6903C19.772 11.8946 19.7296 12.0999 19.6924 12.306C19.6549 12.5122 19.6225 12.7192 19.5949 12.9268C19.5674 13.1344 19.5449 13.3425 19.5273 13.5512C19.51 13.76 19.4975 13.969 19.4898 14.1782C19.4822 14.3874 19.4796 14.5968 19.4822 14.806C19.4847 15.0154 19.4921 15.2246 19.5046 15.4336C19.5171 15.6428 19.5345 15.8514 19.5569 16.0597C19.5794 16.2677 19.6067 16.4753 19.6391 16.6825C19.6715 16.8895 19.7088 17.0955 19.7512 17.3008C19.7933 17.506 19.8405 17.7102 19.8924 17.9133C19.9444 18.1164 20.0012 18.3183 20.063 18.5187C20.1245 18.7193 20.191 18.9183 20.262 19.1157C20.3333 19.3131 20.409 19.5089 20.4896 19.7027C20.5701 19.8968 20.6553 20.0887 20.7449 20.2789C20.8347 20.4691 20.9289 20.657 21.0275 20.8426C21.1262 21.0285 21.2292 21.2118 21.3368 21.3929C21.4442 21.5738 21.556 21.7524 21.672 21.9283C21.788 22.1042 21.9081 22.2774 22.0322 22.4478C22.1565 22.6183 22.2847 22.7855 22.4171 22.9501C22.5493 23.1146 22.6856 23.276 22.8255 23.4345L17.7199 28.4142C17.6377 28.3924 17.5544 28.3756 17.4699 28.3643C17.3854 28.353 17.3007 28.3471 17.2155 28.3462C17.1303 28.3455 17.0454 28.3502 16.9606 28.3602C16.8762 28.37 16.7926 28.3851 16.71 28.4058C16.6273 28.4262 16.5463 28.4516 16.4671 28.4822C16.3877 28.5127 16.3109 28.5483 16.2361 28.5885C16.1616 28.6288 16.0898 28.6735 16.0211 28.7229C15.9523 28.772 15.887 28.8253 15.8252 28.8829L1.24606 43.1191C1.19954 43.1644 1.15532 43.2118 1.11343 43.2612C1.07153 43.3109 1.03241 43.3623 0.995833 43.4156C0.959028 43.4691 0.925232 43.5239 0.894213 43.5806C0.862963 43.6372 0.834954 43.6953 0.809491 43.7547C0.784259 43.8138 0.762037 43.8743 0.743056 43.9358C0.723843 43.9974 0.70787 44.0595 0.694907 44.1228C0.681944 44.1858 0.672454 44.2492 0.665972 44.3131C0.659491 44.3771 0.65625 44.4412 0.65625 44.5056C0.65625 44.57 0.659491 44.6341 0.665972 44.698C0.672454 44.7619 0.681944 44.8254 0.694907 44.8886C0.70787 44.9516 0.723843 45.0137 0.743056 45.0754C0.762037 45.1368 0.784259 45.1973 0.809491 45.2565C0.834954 45.3159 0.862963 45.3739 0.894213 45.4306C0.925232 45.4872 0.959028 45.5421 0.995833 45.5956C1.03241 45.6488 1.07153 45.7003 1.11343 45.7499C1.15532 45.7993 1.19954 45.8469 1.24606 45.8921C1.33935 45.9827 1.44074 46.0634 1.55 46.1341C1.65949 46.2051 1.775 46.2649 1.89653 46.3134C2.01806 46.3621 2.14329 46.3986 2.27199 46.4229C2.40093 46.4474 2.53102 46.4592 2.66227 46.4585C2.79352 46.4592 2.92338 46.4474 3.05231 46.4229C3.18125 46.3986 3.30625 46.3621 3.42778 46.3134C3.54931 46.2649 3.66481 46.2051 3.77431 46.1341C3.8838 46.0634 3.98495 45.9827 4.07824 45.8921L18.6572 31.6168C18.7201 31.5541 18.7785 31.4872 18.8322 31.4167C18.8859 31.346 18.9345 31.2723 18.9782 31.1953C19.0218 31.1182 19.0597 31.0389 19.0924 30.9568C19.1248 30.8748 19.1516 30.7909 19.1727 30.7052C19.1935 30.6195 19.2086 30.533 19.2176 30.4455C19.2266 30.358 19.2296 30.27 19.2264 30.1821C19.2234 30.0941 19.2144 30.0069 19.1991 29.9201C19.1838 29.8333 19.1627 29.7478 19.1359 29.6639L24.1817 24.7622C24.3475 24.8969 24.5162 25.0274 24.6882 25.1541C24.8604 25.2808 25.0352 25.4037 25.2132 25.5222C25.3912 25.6408 25.5718 25.7552 25.7553 25.8656C25.9387 25.9758 26.1248 26.0816 26.3134 26.1834C26.5019 26.2849 26.6928 26.3822 26.8861 26.4751C27.0794 26.5678 27.2748 26.6562 27.4722 26.7398C27.6697 26.8237 27.8692 26.9028 28.0706 26.9774C28.272 27.0519 28.475 27.1217 28.6796 27.1868C28.8845 27.2521 29.0905 27.3124 29.2981 27.3679C29.5058 27.4237 29.7146 27.4744 29.9248 27.5202C30.135 27.5662 30.3458 27.6072 30.5579 27.6433C30.7701 27.6796 30.9829 27.7108 31.1965 27.7371C31.41 27.7634 31.6241 27.7847 31.8387 27.8013C32.0532 27.8176 32.2683 27.8289 32.4833 27.8355C32.6984 27.8418 32.9137 27.8434 33.1289 27.8398C33.3442 27.8364 33.5593 27.828 33.7741 27.8144C33.9889 27.801 34.2032 27.7827 34.4171 27.7591C34.631 27.7358 34.8442 27.7074 35.0569 27.6743C35.2694 27.641 35.481 27.6029 35.6917 27.5599C35.9025 27.5168 36.112 27.469 36.3204 27.4162C36.5289 27.3634 36.7359 27.3058 36.9414 27.2435C37.1472 27.1811 37.3512 27.1143 37.5535 27.0424C37.756 26.9706 37.9565 26.8942 38.1551 26.8133C38.3539 26.7321 38.5505 26.6464 38.7451 26.5565C38.9396 26.4662 39.1319 26.3717 39.322 26.2727C39.512 26.1736 39.6995 26.07 39.8845 25.9624C40.0694 25.8547 40.2519 25.7428 40.4315 25.6265C40.6111 25.5104 40.7877 25.3901 40.9616 25.2659C41.1354 25.1414 41.306 25.0131 41.4736 24.881C41.6412 24.7486 41.8056 24.6126 41.9667 24.4728C42.1278 24.3329 42.2852 24.1895 42.4394 24.0424C42.5935 23.895 42.744 23.7445 42.891 23.5904C43.0377 23.4363 43.1808 23.2787 43.3199 23.118C43.4593 22.9573 43.5944 22.7935 43.7259 22.6264C43.8572 22.4596 43.9845 22.2896 44.1076 22.1167C44.2308 21.9437 44.3495 21.7683 44.4644 21.5899C44.5789 21.4113 44.6891 21.2304 44.7951 21.0471C44.9009 20.8635 45.0025 20.6776 45.0993 20.4895C45.1963 20.3013 45.2887 20.111 45.3764 19.9185C45.4641 19.7261 45.5472 19.5316 45.6257 19.3353C45.7039 19.139 45.7775 18.9409 45.8465 18.7413C45.9153 18.5416 45.9792 18.3405 46.0384 18.1377C46.0975 17.935 46.1516 17.7313 46.2009 17.5259C46.2502 17.3208 46.2944 17.1145 46.3338 16.9074C46.3731 16.7002 46.4074 16.4921 46.4366 16.2834C46.4657 16.0746 46.49 15.8652 46.5093 15.6553C46.5285 15.4452 46.5424 15.2351 46.5514 15.0245C46.5604 14.8137 46.5644 14.6031 46.5632 14.3923C46.562 14.1816 46.5558 13.971 46.5444 13.7604C46.5331 13.5501 46.5167 13.34 46.4954 13.1303C46.4738 12.9204 46.4472 12.7114 46.4157 12.5029C46.384 12.2944 46.3475 12.0868 46.306 11.8798C46.2644 11.6731 46.2178 11.4673 46.1662 11.2629C46.1148 11.0582 46.0583 10.8549 45.997 10.6527C45.9356 10.4508 45.8694 10.2502 45.7984 10.0512C45.7273 9.85237 45.6516 9.65518 45.5711 9.45957C45.4905 9.26419 45.4053 9.07062 45.3155 8.8791C45.2257 8.68757 45.1313 8.49831 45.0322 8.31109C44.9331 8.1241 44.8296 7.93914 44.7218 7.75691C44.6137 7.57445 44.5014 7.39471 44.385 7.21769C44.2683 7.04044 44.1475 6.86614 44.0225 6.69456C43.8975 6.52298 43.7683 6.35434 43.635 6.18888C43.5019 6.02319 43.3648 5.86068 43.2238 5.70157C43.0829 5.54222 42.938 5.38628 42.7894 5.23374L42.8294 5.17526ZM41.4333 22.7509C41.2979 22.8832 41.1595 23.0122 41.0178 23.138C40.8759 23.2638 40.7313 23.386 40.5833 23.5047C40.4354 23.6235 40.2847 23.7386 40.131 23.8501C39.9773 23.9617 39.8211 24.0693 39.662 24.1734C39.503 24.2772 39.3414 24.3774 39.1773 24.4737C39.0132 24.5698 38.847 24.662 38.6782 24.7502C38.5095 24.8386 38.3387 24.9227 38.1657 25.0027C37.9928 25.0827 37.8181 25.1584 37.6414 25.23C37.4648 25.3017 37.2863 25.369 37.1063 25.432C36.9262 25.495 36.7447 25.5537 36.5616 25.6081C36.3785 25.6625 36.1942 25.7124 36.0088 25.7577C35.8232 25.8033 35.6368 25.8441 35.4491 25.8806C35.2616 25.9171 35.0732 25.949 34.884 25.9764C34.6949 26.0039 34.5051 26.0268 34.3148 26.0451C34.1243 26.0635 33.9338 26.0773 33.7428 26.0864C33.5516 26.0954 33.3606 26.1 33.1694 26.1C32.978 26.1 32.787 26.0954 32.5961 26.0861C32.4049 26.0768 32.2144 26.063 32.0241 26.0447C31.8336 26.0263 31.644 26.0034 31.4546 25.9758C31.2655 25.9483 31.0771 25.9161 30.8896 25.8797C30.7021 25.8432 30.5155 25.8021 30.3301 25.7566C30.1444 25.711 29.9602 25.6609 29.7773 25.6068C29.5942 25.5524 29.4127 25.4934 29.2326 25.4304C29.0528 25.3672 28.8743 25.2999 28.6977 25.2282C28.5211 25.1564 28.3463 25.0807 28.1734 25.0004C28.0005 24.9204 27.8296 24.8361 27.6611 24.7479C27.4924 24.6595 27.3262 24.5673 27.162 24.471C26.9979 24.3749 26.8366 24.2747 26.6775 24.1704C26.5185 24.0664 26.3623 23.9587 26.2086 23.847C26.0551 23.7355 25.9044 23.6203 25.7565 23.5015C25.6088 23.3828 25.4639 23.2604 25.3222 23.1346C25.1806 23.0088 25.0421 22.8798 24.9069 22.7472C24.7718 22.6149 24.6398 22.4793 24.5113 22.3406C24.3831 22.2019 24.2581 22.06 24.1368 21.9152C24.0155 21.7706 23.8979 21.623 23.784 21.4725C23.6701 21.322 23.56 21.169 23.4539 21.0133C23.3477 20.8576 23.2454 20.6994 23.147 20.5389C23.0486 20.3782 22.9544 20.2152 22.8644 20.0502C22.7743 19.885 22.6882 19.7177 22.6065 19.5484C22.5248 19.3793 22.4472 19.2079 22.3741 19.035C22.3009 18.8621 22.2322 18.6873 22.1676 18.511C22.1032 18.3349 22.0433 18.1569 21.9877 17.9779C21.9324 17.7986 21.8813 17.6182 21.835 17.4366C21.7884 17.2548 21.7465 17.0721 21.7093 16.8885C21.672 16.705 21.6391 16.5205 21.6111 16.3353C21.5831 16.1501 21.5597 15.9642 21.541 15.7779C21.5222 15.5914 21.5081 15.4048 21.4988 15.2178C21.4894 15.0306 21.4847 14.8436 21.4847 14.6564C21.4847 14.469 21.4894 14.282 21.4988 14.095C21.5081 13.9078 21.5222 13.7212 21.541 13.5349C21.5597 13.3484 21.5831 13.1627 21.6111 12.9773C21.6391 12.7921 21.672 12.6076 21.7093 12.424C21.7465 12.2404 21.7884 12.0578 21.835 11.8762C21.8813 11.6944 21.9324 11.514 21.9877 11.3347C22.0433 11.1557 22.1032 10.978 22.1676 10.8016C22.2322 10.6253 22.3009 10.4505 22.3741 10.2776C22.4472 10.1046 22.5248 9.93351 22.6065 9.7642C22.6882 9.59489 22.7743 9.42761 22.8644 9.26238C22.9544 9.09737 23.0486 8.9344 23.147 8.7737C23.2454 8.61323 23.3477 8.45502 23.4539 8.2993C23.56 8.14359 23.6701 7.99059 23.784 7.84009C23.8979 7.68982 24.0155 7.54204 24.1368 7.39743C24.2581 7.25259 24.3831 7.11093 24.5116 6.97199C24.6398 6.83327 24.7718 6.69773 24.9069 6.56536C25.0421 6.43277 25.1806 6.3038 25.3222 6.178C25.4639 6.05221 25.6088 5.92981 25.7565 5.81104C25.9044 5.69227 26.0551 5.57713 26.2086 5.46561C26.3623 5.35387 26.5185 5.24621 26.6775 5.14217C26.8366 5.03813 26.9979 4.93795 27.162 4.84162C27.3262 4.74529 27.4924 4.65304 27.6611 4.56464C27.8296 4.47647 28.0005 4.39216 28.1734 4.31215C28.3463 4.23191 28.5211 4.1562 28.6977 4.08435C28.8743 4.01273 29.0528 3.94541 29.2326 3.88217C29.4127 3.81916 29.5942 3.76046 29.7773 3.70606C29.9602 3.65166 30.1444 3.60157 30.3301 3.55601C30.5155 3.51045 30.7021 3.46943 30.8896 3.43294C31.0771 3.39644 31.2655 3.36426 31.4546 3.33683C31.644 3.30941 31.8336 3.28629 32.0241 3.26793C32.2144 3.24957 32.4049 3.23574 32.5961 3.22645C32.787 3.21738 32.978 3.21262 33.1694 3.21262C33.3606 3.21262 33.5516 3.21716 33.7428 3.22622C33.9338 3.23552 34.1243 3.24912 34.3148 3.26747C34.5051 3.28583 34.6949 3.30873 34.884 3.33615C35.0732 3.36358 35.2616 3.39554 35.4491 3.43203C35.6368 3.46852 35.8232 3.50932 36.0088 3.55488C36.1942 3.60044 36.3785 3.6503 36.5616 3.70447C36.7447 3.75887 36.9262 3.81758 37.1063 3.88059C37.2863 3.9436 37.4648 4.01092 37.6414 4.08254C37.8181 4.15416 37.9928 4.22987 38.1657 4.30988C38.3387 4.38989 38.5095 4.47421 38.6782 4.56238C38.847 4.65055 39.0132 4.7428 39.1773 4.8389C39.3414 4.93523 39.503 5.03541 39.662 5.13922C39.8211 5.24326 39.9773 5.35115 40.131 5.46267C40.2847 5.57396 40.4354 5.6891 40.5833 5.80787C40.7313 5.92664 40.8759 6.04903 41.0178 6.1746C41.1595 6.3004 41.2979 6.42937 41.4333 6.56174C41.5694 6.69342 41.7021 6.82851 41.8315 6.96655C41.9609 7.10481 42.0866 7.24602 42.2088 7.39017C42.331 7.53456 42.4495 7.68166 42.5644 7.83171C42.6792 7.98153 42.79 8.1343 42.897 8.28978C43.0042 8.44504 43.1072 8.60303 43.2063 8.76327C43.3053 8.92375 43.4005 9.08626 43.4912 9.25127C43.5822 9.41628 43.6688 9.58333 43.7512 9.75241C43.8336 9.92173 43.9118 10.0926 43.9854 10.2656C44.0593 10.4385 44.1287 10.6133 44.1935 10.7896C44.2586 10.9657 44.319 11.1436 44.375 11.3227C44.431 11.502 44.4824 11.6824 44.5292 11.8642C44.5762 12.046 44.6183 12.2287 44.656 12.4125C44.6935 12.5963 44.7266 12.7808 44.7549 12.9662C44.7831 13.1516 44.8067 13.3375 44.8257 13.524C44.8447 13.7106 44.8588 13.8973 44.8683 14.0845C44.8778 14.2718 44.8824 14.4592 44.8824 14.6464C44.8824 14.8339 44.8778 15.0213 44.8683 15.2085C44.8588 15.3958 44.8447 15.5825 44.8257 15.7691C44.8067 15.9556 44.7831 16.1415 44.7549 16.3269C44.7266 16.5123 44.6935 16.6968 44.656 16.8806C44.6183 17.0644 44.5762 17.2471 44.5292 17.4289C44.4824 17.6107 44.431 17.7911 44.375 17.9704C44.319 18.1494 44.2586 18.3274 44.1935 18.5035C44.1287 18.6798 44.0593 18.8546 43.9854 19.0275C43.9118 19.2005 43.8336 19.3714 43.7512 19.5407C43.6688 19.7098 43.5822 19.8768 43.4912 20.0418C43.4005 20.2068 43.3053 20.3693 43.2063 20.5298C43.1072 20.6901 43.0042 20.848 42.897 21.0033C42.79 21.1588 42.6792 21.3116 42.5644 21.4614C42.4495 21.6114 42.331 21.7585 42.2088 21.9029C42.0866 22.0471 41.9609 22.1883 41.8315 22.3265C41.7021 22.4646 41.5694 22.5997 41.4333 22.7314V22.7509Z" fill="#8EBA3A"/>
<path d="M40.1376 7.8111C40.0906 7.76645 40.0397 7.72679 39.9849 7.69165C39.9302 7.65675 39.8724 7.62728 39.8117 7.60326C39.7511 7.57901 39.6886 7.56087 39.6242 7.54863C39.5601 7.53639 39.4953 7.53027 39.4298 7.53027C39.3643 7.53027 39.2994 7.53639 39.2351 7.54863C39.171 7.56087 39.1085 7.57901 39.0478 7.60326C38.9872 7.62728 38.9293 7.65675 38.8744 7.69165C38.8196 7.72679 38.7687 7.76645 38.7217 7.8111C38.6985 7.83377 38.6763 7.85757 38.6555 7.88227C38.6344 7.90698 38.6147 7.93282 38.5964 7.95934C38.5781 7.98608 38.5612 8.01351 38.5457 8.04184C38.5302 8.07018 38.5161 8.09919 38.5034 8.12888C38.4909 8.15857 38.4798 8.18872 38.47 8.21954C38.4606 8.25037 38.4525 8.28142 38.4462 8.31293C38.4397 8.34443 38.4349 8.37616 38.4316 8.40812C38.4284 8.44008 38.4268 8.47227 38.4268 8.50445C38.4268 8.53664 38.4284 8.5686 38.4316 8.60056C38.4349 8.63252 38.4397 8.66425 38.4462 8.69598C38.4525 8.72749 38.4606 8.75854 38.47 8.78936C38.4798 8.81996 38.4909 8.85034 38.5034 8.88003C38.5161 8.90949 38.5302 8.93851 38.5457 8.96684C38.5612 8.99517 38.5781 9.0226 38.5964 9.04934C38.6147 9.07609 38.6344 9.1017 38.6555 9.12663C38.6763 9.15134 38.6985 9.17514 38.7217 9.19758C38.8069 9.28099 38.8897 9.36644 38.971 9.45347C39.052 9.54051 39.1312 9.62936 39.208 9.72003C39.2851 9.81046 39.3599 9.90271 39.4325 9.99678C39.5052 10.0906 39.5758 10.186 39.6441 10.283C39.7124 10.3803 39.7786 10.4787 39.8423 10.5786C39.9059 10.6786 39.9675 10.7799 40.0265 10.8826C40.0856 10.9852 40.1423 11.0893 40.1964 11.1944C40.2508 11.2996 40.3027 11.4059 40.352 11.5136C40.4013 11.621 40.4481 11.7296 40.4925 11.8391C40.5367 11.9488 40.5786 12.0591 40.6177 12.1707C40.6571 12.282 40.6937 12.3944 40.7277 12.5073C40.7617 12.6204 40.7932 12.7341 40.8219 12.8486C40.8506 12.9631 40.8768 13.078 40.9004 13.1936C40.9237 13.3092 40.9446 13.4252 40.9626 13.5417C40.9807 13.6582 40.9962 13.7752 41.0087 13.8924C41.0214 14.0095 41.0314 14.127 41.0388 14.2446C41.046 14.3622 41.0506 14.4801 41.0525 14.598C41.0543 14.7156 41.0534 14.8335 41.0497 14.9513C41.046 15.0692 41.0397 15.1868 41.0307 15.3042C41.0217 15.4219 41.0099 15.539 40.9953 15.656C40.9809 15.7732 40.9638 15.8897 40.9439 16.006C40.924 16.1222 40.9015 16.2378 40.8763 16.3532C40.8511 16.4683 40.8231 16.583 40.7925 16.697C40.7619 16.8111 40.7288 16.9244 40.6932 17.0368C40.6573 17.1495 40.6191 17.2612 40.5781 17.372C40.5372 17.4829 40.4937 17.5926 40.4478 17.7016C40.4018 17.8104 40.3534 17.9183 40.3022 18.025C40.2513 18.1318 40.1978 18.2374 40.142 18.3419C40.0862 18.4462 40.0279 18.5493 39.9673 18.6511C39.9066 18.7528 39.8437 18.8532 39.7784 18.9523C39.7131 19.0513 39.6455 19.1488 39.5758 19.2449C39.5059 19.341 39.4342 19.4353 39.3599 19.5282C39.3393 19.5529 39.3196 19.5786 39.3015 19.6053C39.2835 19.6318 39.2666 19.6592 39.2513 19.6876C39.236 19.7159 39.2221 19.7449 39.2099 19.7746C39.1974 19.8041 39.1867 19.8342 39.1775 19.8651C39.1682 19.8957 39.1606 19.9267 39.1543 19.9582C39.1483 19.9897 39.1439 20.0214 39.1411 20.0532C39.1381 20.0851 39.1369 20.1171 39.1374 20.1491C39.1379 20.1812 39.14 20.213 39.1437 20.2449C39.1474 20.2767 39.1527 20.3082 39.1596 20.3395C39.1666 20.3707 39.1751 20.4016 39.1851 20.4322C39.1953 20.4625 39.2069 20.4924 39.22 20.5217C39.2332 20.5509 39.2478 20.5795 39.264 20.6074C39.2802 20.6352 39.2976 20.6622 39.3166 20.6885C39.3353 20.7146 39.3555 20.7397 39.377 20.764C39.3985 20.788 39.421 20.8111 39.4448 20.8331C39.4687 20.8551 39.4934 20.8757 39.5196 20.8952C39.6045 20.9698 39.7001 21.0274 39.8066 21.0677C39.9131 21.1081 40.0235 21.1287 40.1376 21.1296C40.2124 21.1285 40.2862 21.1196 40.3589 21.1026C40.4316 21.0856 40.5018 21.0611 40.5689 21.0292C40.6362 20.997 40.699 20.9582 40.7575 20.9124C40.8159 20.8669 40.8687 20.8154 40.9156 20.7585C41.0089 20.6425 41.0997 20.5244 41.1876 20.4043C41.2756 20.2841 41.3608 20.1622 41.443 20.0384C41.5254 19.9145 41.6048 19.7889 41.6812 19.6615C41.7578 19.5341 41.8312 19.4049 41.9018 19.2744C41.9721 19.1436 42.0397 19.0115 42.1041 18.878C42.1684 18.7442 42.2295 18.6091 42.2876 18.4727C42.3457 18.3365 42.4008 18.1989 42.4525 18.0599C42.5041 17.9212 42.5527 17.7812 42.5978 17.6402C42.6432 17.4992 42.6851 17.3573 42.7237 17.2145C42.7624 17.0717 42.7978 16.928 42.8298 16.7836C42.8617 16.6392 42.8904 16.4942 42.9156 16.3484C42.9409 16.2027 42.9629 16.0565 42.9814 15.9099C42.9997 15.7632 43.015 15.6161 43.0265 15.4688C43.0381 15.3214 43.0464 15.1739 43.0513 15.0263C43.0562 14.8786 43.0575 14.7308 43.0555 14.583C43.0536 14.4352 43.0481 14.2877 43.0393 14.1401C43.0302 13.9925 43.018 13.8454 43.0025 13.6983C42.9867 13.5515 42.9675 13.4048 42.945 13.2586C42.9226 13.1127 42.8967 12.9669 42.8675 12.8221C42.8383 12.677 42.8057 12.5329 42.7698 12.3892C42.7339 12.2457 42.6946 12.1031 42.652 11.9612C42.6096 11.8196 42.5638 11.6788 42.5147 11.539C42.4656 11.3991 42.4133 11.2606 42.3578 11.1233C42.3022 10.9857 42.2437 10.8497 42.1819 10.7148C42.12 10.58 42.0552 10.4467 41.9872 10.3148C41.9191 10.1826 41.8481 10.0523 41.7742 9.92357C41.7001 9.79482 41.6231 9.66767 41.5432 9.54233C41.4633 9.41698 41.3805 9.29345 41.2948 9.17196C41.2092 9.05025 41.1207 8.93057 41.0295 8.81271C40.9383 8.69507 40.8444 8.57925 40.7478 8.46569C40.6513 8.35214 40.552 8.24085 40.4504 8.1316C40.3487 8.02258 40.2444 7.91559 40.1376 7.8111Z" fill="#8EBA3A"/>
</svg>
