<svg width="55" height="55" viewBox="0 0 55 55" fill="none" xmlns="http://www.w3.org/2000/svg">
<path d="M5.92411 6.05594C6.10553 5.87451 6.29147 5.69787 6.48138 5.52546C6.67155 5.35332 6.86571 5.18569 7.06411 5.0231C7.26224 4.8605 7.46462 4.70269 7.67044 4.54991C7.87654 4.39713 8.08634 4.24939 8.29959 4.10696C8.51284 3.96453 8.72955 3.8274 8.9497 3.69557C9.16958 3.56375 9.39264 3.43723 9.61889 3.31628C9.84514 3.1956 10.0743 3.08022 10.3061 2.97068C10.5379 2.86087 10.7724 2.75689 11.0095 2.65875C11.2464 2.56062 11.4856 2.46831 11.7273 2.38211C11.9689 2.29564 12.2124 2.21527 12.4577 2.14074C12.7034 2.06621 12.9503 1.99804 13.1991 1.93571C13.4482 1.87338 13.6983 1.81715 13.9497 1.76702C14.2014 1.71715 14.4542 1.67312 14.7078 1.63573C14.9616 1.59806 15.216 1.5665 15.4714 1.54157C15.7266 1.51637 15.9822 1.49754 16.2385 1.4848C16.4947 1.47234 16.7512 1.46597 17.0077 1.46597C17.2641 1.46597 17.5204 1.47234 17.7766 1.4848C18.0328 1.49754 18.2888 1.51637 18.5439 1.54157C18.7991 1.5665 19.0537 1.59806 19.3076 1.63573C19.5611 1.67312 19.8139 1.71715 20.0653 1.76702C20.3171 1.81715 20.5672 1.87338 20.816 1.93571C21.0648 1.99804 21.312 2.06621 21.5576 2.14074C21.8029 2.21527 22.0464 2.29564 22.288 2.38211C22.5294 2.46831 22.7687 2.56062 23.0058 2.65875C23.2426 2.75689 23.4771 2.86087 23.7092 2.97068C23.941 3.08022 24.1699 3.1956 24.3962 3.31628C24.6224 3.43723 24.8457 3.56375 25.0656 3.69557C25.2858 3.8274 25.5025 3.96453 25.7157 4.10696C25.929 4.24939 26.1385 4.39713 26.3446 4.54991C26.5507 4.70269 26.7528 4.8605 26.9512 5.0231C27.1496 5.18569 27.3438 5.35332 27.5339 5.52546C27.7239 5.69787 27.9098 5.87451 28.0909 6.05594C28.2641 6.2294 28.4331 6.40685 28.5978 6.58801C28.7625 6.76943 28.923 6.95457 29.0792 7.14342C29.2352 7.33227 29.3869 7.52483 29.5338 7.72084C29.6811 7.91659 29.8235 8.11605 29.9611 8.31869C30.0988 8.52134 30.232 8.72716 30.3601 8.93591C30.4882 9.14491 30.6112 9.35658 30.7295 9.57115C30.8476 9.78573 30.9608 10.003 31.0688 10.2231C31.177 10.443 31.2797 10.6653 31.3773 10.8899C31.4749 11.1148 31.5672 11.3416 31.6542 11.5708C31.7412 11.7997 31.8229 12.0307 31.899 12.2636C31.9751 12.4965 32.0459 12.7312 32.1112 12.9673C32.1764 13.2036 32.2358 13.441 32.2899 13.68C32.3441 13.919 32.3926 14.1593 32.4353 14.4004C32.4783 14.6417 32.5154 14.8839 32.547 15.1269C32.5785 15.3698 32.6043 15.6133 32.6244 15.8576C32.6443 16.1019 32.6586 16.3464 32.6674 16.5912C32.6761 16.8361 32.6791 17.0811 32.6761 17.326C32.6732 17.571 32.6647 17.8159 32.6504 18.0604C32.6361 18.3052 32.6162 18.5492 32.5905 18.793C32.5647 19.0365 32.5334 19.2794 32.4963 19.5219C32.4592 19.764 32.4165 20.0051 32.3679 20.2454C32.3197 20.4855 32.2655 20.7245 32.2061 20.9621C32.1465 21.1998 32.0815 21.4361 32.0107 21.6706C31.9401 21.9053 31.864 22.1382 31.7825 22.3692C31.7009 22.6002 31.6141 22.8294 31.5218 23.0562C31.4295 23.2832 31.3319 23.5079 31.2293 23.7304C31.1263 23.953 31.0184 24.1728 30.9054 24.3901C30.7924 24.6076 30.6744 24.8221 30.551 25.0341C30.428 25.2457 30.2999 25.4547 30.167 25.6606C30.0341 25.8664 29.8964 26.069 29.7543 26.2685C29.6118 26.468 29.4649 26.6637 29.3132 26.8563C29.1617 27.0488 29.0055 27.2377 28.8453 27.4231L34.6954 33.2504C34.7896 33.2249 34.885 33.2053 34.9819 33.192C35.0787 33.1788 35.1758 33.1719 35.2734 33.1708C35.371 33.17 35.4683 33.1756 35.5654 33.1873C35.6622 33.1987 35.758 33.2164 35.8526 33.2406C35.9473 33.2644 36.0402 33.2942 36.1309 33.33C36.2219 33.3658 36.3099 33.4074 36.3956 33.4544C36.481 33.5016 36.5632 33.5538 36.642 33.6116C36.7208 33.6692 36.7956 33.7315 36.8664 33.7989L53.5717 50.4583C53.625 50.5114 53.6757 50.5668 53.7237 50.6246C53.7717 50.6827 53.8165 50.7429 53.8584 50.8052C53.9006 50.8678 53.9393 50.932 53.9748 50.9983C54.0107 51.0647 54.0427 51.1326 54.0719 51.202C54.1008 51.2713 54.1263 51.3421 54.148 51.414C54.1701 51.4861 54.1884 51.5588 54.2032 51.6328C54.2181 51.7065 54.2289 51.7808 54.2364 51.8556C54.2438 51.9304 54.2475 52.0055 54.2475 52.0808C54.2475 52.1561 54.2438 52.2312 54.2364 52.306C54.2289 52.3808 54.2181 52.455 54.2032 52.529C54.1884 52.6028 54.1701 52.6754 54.148 52.7476C54.1263 52.8195 54.1008 52.8903 54.0719 52.9595C54.0427 53.029 54.0107 53.0969 53.9748 53.1632C53.9393 53.2295 53.9006 53.2937 53.8584 53.3563C53.8165 53.4186 53.7717 53.4789 53.7237 53.5369C53.6757 53.5948 53.625 53.6505 53.5717 53.7033C53.4648 53.8093 53.3486 53.9038 53.2234 53.9865C53.098 54.0695 52.9656 54.1396 52.8264 54.1963C52.6871 54.2534 52.5436 54.2961 52.3961 54.3244C52.2484 54.3531 52.0993 54.3669 51.9489 54.3661C51.7986 54.3669 51.6498 54.3531 51.502 54.3244C51.3543 54.2961 51.2111 54.2534 51.0718 54.1963C50.9326 54.1396 50.8002 54.0695 50.6747 53.9865C50.5493 53.9038 50.4334 53.8093 50.3265 53.7033L33.6215 36.9982C33.5493 36.9247 33.4825 36.8465 33.4209 36.764C33.3594 36.6813 33.3037 36.5951 33.2536 36.5049C33.2037 36.4147 33.1602 36.3219 33.1228 36.2258C33.0857 36.1298 33.0549 36.0317 33.0308 35.9314C33.0069 35.8312 32.9897 35.7298 32.9793 35.6275C32.969 35.5251 32.9655 35.4222 32.9692 35.3193C32.9727 35.2163 32.983 35.1142 33.0005 35.0126C33.018 34.911 33.0422 34.8111 33.0729 34.7129L27.2913 28.9769C27.1013 29.1344 26.908 29.2872 26.7109 29.4355C26.5136 29.5837 26.3133 29.7275 26.1093 29.8662C25.9054 30.0049 25.6985 30.1389 25.4882 30.268C25.2781 30.3969 25.0648 30.5208 24.8487 30.6399C24.6328 30.7587 24.4139 30.8725 24.1925 30.9813C23.971 31.0897 23.7471 31.1932 23.5209 31.2911C23.2946 31.3892 23.066 31.4818 22.8352 31.569C22.6045 31.6563 22.3719 31.738 22.1374 31.8141C21.9027 31.8905 21.6666 31.9611 21.4287 32.026C21.1908 32.0913 20.9515 32.1507 20.7107 32.2043C20.4698 32.2581 20.2282 32.3061 19.9852 32.3483C19.742 32.3907 19.4983 32.4273 19.2534 32.4581C19.0089 32.4889 18.7635 32.5138 18.5177 32.5332C18.2718 32.5523 18.0254 32.5655 17.779 32.5732C17.5326 32.5807 17.2859 32.5825 17.0392 32.5783C16.7926 32.5743 16.5461 32.5645 16.3 32.5486C16.0539 32.5329 15.8083 32.5114 15.5632 32.4838C15.3181 32.4565 15.0738 32.4234 14.83 32.3846C14.5866 32.3457 14.3441 32.3011 14.1028 32.2507C13.8611 32.2003 13.6211 32.1443 13.3824 32.0825C13.1434 32.0207 12.9063 31.9534 12.6707 31.8804C12.4349 31.8075 12.2013 31.7292 11.9694 31.6452C11.7374 31.5611 11.5077 31.4717 11.2801 31.377C11.0522 31.282 10.8271 31.1818 10.604 31.0765C10.3812 30.9709 10.1608 30.8603 9.94302 30.7444C9.72525 30.6285 9.51041 30.5073 9.29848 30.3813C9.08656 30.2553 8.87755 30.1243 8.67172 29.9882C8.4659 29.8524 8.26352 29.7116 8.06433 29.5662C7.86513 29.4206 7.66965 29.2705 7.47762 29.1158C7.28558 28.9609 7.09726 28.8018 6.91266 28.6381C6.72805 28.4745 6.54769 28.3066 6.37104 28.1345C6.19439 27.962 6.02198 27.7859 5.85356 27.6056C5.68539 27.4252 5.52148 27.2409 5.36207 27.0528C5.2024 26.8648 5.0475 26.673 4.89684 26.4775C4.74645 26.2823 4.60057 26.0834 4.45946 25.881C4.31835 25.6786 4.18229 25.4733 4.05073 25.2646C3.91943 25.0556 3.79318 24.8439 3.6717 24.6293C3.55048 24.4145 3.43404 24.197 3.32317 23.9768C3.21204 23.7567 3.10621 23.5339 3.00568 23.3087C2.90516 23.0835 2.80994 22.8559 2.72002 22.6262C2.63037 22.3965 2.54602 22.1647 2.46698 21.931C2.38821 21.6974 2.315 21.4621 2.2471 21.2247C2.17946 20.9876 2.1174 20.7491 2.0609 20.5088C2.00441 20.2688 1.95375 20.0274 1.90865 19.785C1.86356 19.5426 1.82431 19.2991 1.79089 19.0548C1.75747 18.8105 1.72962 18.5654 1.7076 18.3198C1.68559 18.0739 1.66967 17.8281 1.65933 17.5816C1.64899 17.335 1.64448 17.0886 1.6458 16.8419C1.64713 16.5952 1.65429 16.3488 1.66729 16.1024C1.68028 15.8563 1.69912 15.6104 1.72352 15.365C1.74818 15.1194 1.77869 14.8749 1.81476 14.6309C1.8511 14.3868 1.89301 14.1439 1.94048 13.9017C1.98823 13.6598 2.04154 13.419 2.10069 13.1797C2.15957 12.9402 2.22429 12.7023 2.29458 12.4657C2.36486 12.2294 2.44072 11.9946 2.52215 11.7618C2.60358 11.5292 2.69032 11.2984 2.78262 11.0695C2.87492 10.8409 2.97253 10.6143 3.07544 10.3902C3.17836 10.1661 3.28657 9.94461 3.40009 9.72552C3.51362 9.5067 3.63218 9.29027 3.75578 9.07701C3.87965 8.8635 4.00829 8.65316 4.1417 8.44601C4.27538 8.23859 4.41384 8.03462 4.55707 7.83384C4.7003 7.63305 4.8483 7.43571 5.00108 7.24209C5.15359 7.0482 5.31061 6.85802 5.47215 6.67182C5.63367 6.48536 5.79971 6.30288 5.97 6.12437L5.92411 6.05594ZM7.52377 26.6231C7.67893 26.778 7.83755 26.9289 7.99987 27.0761C8.16246 27.2234 8.32824 27.3663 8.49773 27.5053C8.66721 27.6443 8.83989 27.779 9.016 27.9095C9.19212 28.04 9.37116 28.166 9.55338 28.2878C9.7356 28.4092 9.92073 28.5265 10.1088 28.6392C10.2968 28.7517 10.4873 28.8596 10.6806 28.9628C10.874 29.0662 11.0698 29.1646 11.2679 29.2583C11.466 29.3519 11.6663 29.4405 11.8687 29.5243C12.071 29.6081 12.2755 29.6869 12.4819 29.7606C12.6882 29.8344 12.8962 29.9031 13.106 29.9667C13.3158 30.0304 13.5269 30.0887 13.7394 30.1418C13.9521 30.1951 14.1656 30.2428 14.3807 30.2855C14.5956 30.3282 14.8115 30.3656 15.0282 30.3977C15.2449 30.4298 15.4624 30.4566 15.6804 30.4781C15.8987 30.4996 16.117 30.5158 16.3358 30.5264C16.5549 30.537 16.7737 30.5423 16.9928 30.5423C17.2122 30.5423 17.431 30.537 17.6498 30.5261C17.8689 30.5152 18.0872 30.4991 18.3052 30.4776C18.5235 30.4561 18.7407 30.4293 18.9577 30.3969C19.1744 30.3648 19.3903 30.3272 19.6051 30.2845C19.82 30.2418 20.0338 30.1938 20.2462 30.1405C20.459 30.0871 20.6701 30.0285 20.8796 29.9651C21.0894 29.9015 21.2974 29.8325 21.5037 29.7588C21.7098 29.6848 21.9143 29.606 22.1167 29.5222C22.3191 29.4381 22.5193 29.3495 22.7175 29.2556C22.9156 29.162 23.1113 29.0633 23.3044 28.9601C23.4978 28.8567 23.6882 28.7487 23.8763 28.636C24.0644 28.5236 24.2492 28.4063 24.4314 28.2843C24.6137 28.1626 24.7927 28.0366 24.9688 27.9058C25.1447 27.7753 25.3173 27.6406 25.4868 27.5016C25.6561 27.3626 25.8221 27.2194 25.9844 27.0722C26.1467 26.925 26.3054 26.774 26.4603 26.6189C26.6152 26.464 26.7663 26.3054 26.9136 26.143C27.0605 25.9807 27.2037 25.8147 27.3427 25.6452C27.4817 25.476 27.6164 25.3033 27.7469 25.1272C27.8774 24.9511 28.0037 24.772 28.1252 24.5898C28.2469 24.4076 28.3641 24.2224 28.4769 24.0346C28.5896 23.8466 28.6975 23.6559 28.8007 23.4628C28.9039 23.2694 29.0026 23.0737 29.0962 22.8756C29.1898 22.6777 29.2787 22.4772 29.3625 22.2748C29.4463 22.0724 29.5251 21.8679 29.5991 21.6616C29.6728 21.4555 29.7415 21.2472 29.8052 21.0377C29.8686 20.8279 29.9272 20.6168 29.9802 20.4043C30.0336 20.1916 30.0816 19.9778 30.1243 19.763C30.167 19.5481 30.2046 19.3322 30.2367 19.1155C30.2688 18.8988 30.2956 18.6813 30.3171 18.4633C30.3386 18.245 30.3548 18.0267 30.3654 17.8079C30.3762 17.5888 30.3816 17.37 30.3816 17.1509C30.3816 16.9315 30.3762 16.7127 30.3654 16.4939C30.3548 16.2748 30.3386 16.0565 30.3171 15.8385C30.2956 15.6202 30.2688 15.403 30.2367 15.186C30.2046 14.9693 30.167 14.7534 30.1243 14.5386C30.0816 14.3237 30.0336 14.1099 29.9802 13.8975C29.9272 13.6847 29.8686 13.4736 29.8052 13.2638C29.7415 13.0543 29.6728 12.8463 29.5991 12.64C29.5251 12.4336 29.4463 12.2291 29.3625 12.0267C29.2787 11.8244 29.1898 11.6241 29.0962 11.426C29.0026 11.2278 28.9039 11.0321 28.8007 10.8387C28.6975 10.6456 28.5896 10.4549 28.4769 10.2669C28.3641 10.0791 28.2469 9.89395 28.1252 9.71173C28.0037 9.52951 27.8774 9.35047 27.7469 9.17436C27.6164 8.9985 27.4817 8.82557 27.3427 8.65634C27.2037 8.48686 27.0605 8.32108 26.9133 8.15849C26.7663 7.99616 26.6152 7.83755 26.4603 7.68265C26.3054 7.52749 26.1467 7.37656 25.9844 7.22936C25.8221 7.08215 25.6561 6.93892 25.4868 6.79993C25.3173 6.66095 25.1447 6.52621 24.9688 6.39571C24.7927 6.26495 24.6137 6.13896 24.4314 6.01721C24.2492 5.89547 24.0644 5.77823 23.8763 5.66551C23.6882 5.55278 23.4978 5.44483 23.3044 5.34138C23.1113 5.23821 22.9156 5.13954 22.7175 5.04591C22.5193 4.95201 22.3191 4.86342 22.1167 4.77934C21.9143 4.69553 21.7098 4.61675 21.5037 4.54275C21.2974 4.46901 21.0894 4.40031 20.8796 4.33666C20.6701 4.273 20.459 4.21438 20.2462 4.16107C20.0338 4.10776 19.82 4.05975 19.6051 4.01704C19.3903 3.97434 19.1744 3.93668 18.9577 3.90458C18.7407 3.87249 18.5235 3.84543 18.3052 3.82395C18.0872 3.80247 17.8689 3.78629 17.6498 3.77541C17.431 3.7648 17.2122 3.75923 16.9928 3.75923C16.7737 3.75923 16.5549 3.76454 16.3358 3.77515C16.117 3.78602 15.8987 3.80193 15.6804 3.82342C15.4624 3.8449 15.2449 3.87169 15.0282 3.90379C14.8115 3.93588 14.5956 3.97328 14.3807 4.01598C14.1656 4.05869 13.9521 4.10643 13.7394 4.15974C13.5269 4.21306 13.3158 4.27141 13.106 4.3348C12.8962 4.39846 12.6882 4.46715 12.4819 4.54089C12.2755 4.61463 12.071 4.6934 11.8687 4.77722C11.6663 4.86104 11.466 4.94963 11.2679 5.04325C11.0698 5.13688 10.874 5.23555 10.6806 5.33873C10.4873 5.44191 10.2968 5.54986 10.1088 5.66232C9.92073 5.77505 9.7356 5.89229 9.55338 6.01376C9.37116 6.13551 9.19212 6.26176 9.016 6.39226C8.83989 6.52249 8.66721 6.65724 8.49773 6.79622C8.32824 6.93521 8.16246 7.07844 7.99987 7.22538C7.83755 7.37259 7.67893 7.52351 7.52377 7.67841C7.36781 7.83251 7.21582 7.99059 7.06756 8.15212C6.91929 8.31392 6.77526 8.47916 6.63522 8.64786C6.49517 8.81681 6.35937 8.98895 6.22781 9.16454C6.09625 9.33987 5.9692 9.51864 5.84666 9.70059C5.72385 9.88228 5.60582 10.0672 5.4923 10.2547C5.37878 10.4425 5.26976 10.6326 5.16579 10.8257C5.06155 11.0188 4.96235 11.2143 4.86793 11.4122C4.7735 11.6103 4.68385 11.8103 4.59951 12.0127C4.5149 12.2151 4.43532 12.4196 4.36106 12.6259C4.28653 12.832 4.2173 13.0402 4.15311 13.2498C4.08892 13.4596 4.03004 13.6707 3.97646 13.8834C3.92262 14.0961 3.87434 14.3099 3.83111 14.525C3.78814 14.7401 3.75021 14.956 3.71785 15.173C3.68549 15.39 3.65844 15.6075 3.63669 15.8258C3.61494 16.0441 3.59876 16.2626 3.58788 16.4817C3.57701 16.7008 3.5717 16.9201 3.5717 17.1392C3.5717 17.3586 3.57701 17.5779 3.58788 17.797C3.59876 18.0161 3.61494 18.2347 3.63669 18.453C3.65844 18.6712 3.68549 18.8887 3.71785 19.1057C3.75021 19.3227 3.78814 19.5386 3.83111 19.7537C3.87434 19.9688 3.92262 20.1826 3.97646 20.3953C4.03004 20.608 4.08892 20.8192 4.15311 21.029C4.2173 21.2385 4.28653 21.4467 4.36106 21.6528C4.43532 21.8592 4.5149 22.0637 4.59951 22.266C4.68385 22.4684 4.7735 22.6684 4.86793 22.8665C4.96235 23.0644 5.06155 23.2599 5.16579 23.453C5.26976 23.6461 5.37878 23.8363 5.4923 24.024C5.60582 24.2116 5.72385 24.3964 5.84666 24.5781C5.9692 24.7601 6.09625 24.9389 6.22781 25.1142C6.35937 25.2898 6.49517 25.4619 6.63522 25.6309C6.77526 25.7996 6.91929 25.9648 7.06756 26.1266C7.21582 26.2881 7.36781 26.4462 7.52377 26.6003V26.6231Z" fill="#3A8EBA"/>
<path d="M9.00937 9.14093C9.06322 9.08868 9.12157 9.04226 9.18443 9.00115C9.24703 8.96031 9.31334 8.92582 9.38283 8.89771C9.45232 8.86933 9.52394 8.84811 9.59767 8.83379C9.67115 8.81946 9.74541 8.8123 9.82048 8.8123C9.89554 8.8123 9.96981 8.81946 10.0435 8.83379C10.117 8.84811 10.1886 8.86933 10.2581 8.89771C10.3276 8.92582 10.3939 8.96031 10.4568 9.00115C10.5196 9.04226 10.578 9.08868 10.6318 9.14093C10.6584 9.16746 10.6838 9.19531 10.7077 9.22422C10.7318 9.25313 10.7544 9.28337 10.7753 9.3144C10.7963 9.3457 10.8157 9.37779 10.8334 9.41095C10.8512 9.4441 10.8674 9.47805 10.882 9.5128C10.8963 9.54754 10.909 9.58282 10.9202 9.61889C10.931 9.65497 10.9403 9.6913 10.9475 9.72817C10.9549 9.76504 10.9605 9.80217 10.9642 9.83957C10.9679 9.87697 10.9698 9.91464 10.9698 9.9523C10.9698 9.98996 10.9679 10.0274 10.9642 10.0648C10.9605 10.1022 10.9549 10.1393 10.9475 10.1764C10.9403 10.2133 10.931 10.2496 10.9202 10.2857C10.909 10.3215 10.8963 10.3571 10.882 10.3918C10.8674 10.4263 10.8512 10.4602 10.8334 10.4934C10.8157 10.5265 10.7963 10.5586 10.7753 10.5899C10.7544 10.6212 10.7318 10.6512 10.7077 10.6804C10.6838 10.7093 10.6584 10.7371 10.6318 10.7634C10.5342 10.861 10.4393 10.961 10.3462 11.0629C10.2533 11.1647 10.1626 11.2687 10.0746 11.3748C9.98625 11.4806 9.90058 11.5886 9.81729 11.6986C9.73401 11.8084 9.65311 11.9201 9.57486 12.0336C9.49662 12.1474 9.42076 12.2625 9.34782 12.3795C9.27488 12.4965 9.20432 12.615 9.13669 12.7352C9.06905 12.8553 9.00407 12.9771 8.942 13.1002C8.87967 13.2232 8.82026 13.3476 8.76376 13.4736C8.70727 13.5993 8.65369 13.7264 8.60276 13.8545C8.5521 13.9829 8.50409 14.112 8.45927 14.2425C8.41418 14.3728 8.37227 14.5043 8.33328 14.6364C8.29429 14.7688 8.25822 14.9019 8.22533 15.0359C8.19244 15.1698 8.16247 15.3043 8.13541 15.4396C8.10862 15.5748 8.08475 15.7106 8.06406 15.847C8.04337 15.9833 8.0256 16.1202 8.01128 16.2573C7.99669 16.3944 7.98529 16.5318 7.9768 16.6695C7.96858 16.8071 7.96327 16.9451 7.96115 17.083C7.95903 17.2206 7.96009 17.3586 7.96433 17.4965C7.96858 17.6344 7.97574 17.7721 7.98608 17.9095C7.99643 18.0471 8.00995 18.1843 8.02666 18.3211C8.04311 18.4583 8.06274 18.5946 8.08555 18.7307C8.10836 18.8667 8.13408 19.002 8.163 19.137C8.19191 19.2717 8.224 19.406 8.25901 19.5394C8.29402 19.6728 8.33195 19.8054 8.3728 19.937C8.41391 20.0688 8.45768 20.1996 8.50462 20.3293C8.55157 20.459 8.60144 20.5873 8.65395 20.7149C8.70674 20.8422 8.76217 20.9685 8.82079 21.0934C8.87914 21.2183 8.94041 21.3419 9.00433 21.4642C9.06826 21.5862 9.1351 21.7069 9.20459 21.826C9.27408 21.9451 9.34623 22.0626 9.42103 22.1785C9.49582 22.2944 9.57327 22.4085 9.65311 22.5209C9.73321 22.6334 9.81544 22.7437 9.90058 22.8525C9.92418 22.8814 9.94673 22.9114 9.96742 22.9427C9.98811 22.9737 10.0075 23.0058 10.025 23.0389C10.0425 23.0721 10.0584 23.106 10.0725 23.1408C10.0868 23.1753 10.099 23.2105 10.1096 23.2466C10.1202 23.2824 10.1289 23.3188 10.1361 23.3556C10.143 23.3925 10.148 23.4296 10.1512 23.4668C10.1547 23.5042 10.156 23.5416 10.1555 23.579C10.1549 23.6166 10.1526 23.6538 10.1483 23.6912C10.1441 23.7283 10.138 23.7652 10.13 23.8018C10.1221 23.8384 10.1122 23.8744 10.1008 23.9102C10.0892 23.9458 10.0759 23.9808 10.0608 24.015C10.0457 24.0492 10.029 24.0827 10.0104 24.1153C9.99182 24.1479 9.97193 24.1795 9.95018 24.2102C9.92869 24.2407 9.90562 24.2702 9.88095 24.2986C9.85628 24.3267 9.83055 24.3537 9.80324 24.3795C9.77592 24.4052 9.74753 24.4293 9.71756 24.4521C9.62022 24.5394 9.51068 24.6068 9.38867 24.654C9.26666 24.7012 9.14014 24.7253 9.00937 24.7264C8.9237 24.7251 8.83909 24.7147 8.75581 24.6948C8.67252 24.6749 8.59215 24.6463 8.51523 24.6089C8.43805 24.5712 8.36617 24.5259 8.29906 24.4723C8.23222 24.419 8.17175 24.3588 8.11791 24.2922C8.01101 24.1564 7.90704 24.0182 7.80625 23.8776C7.70546 23.737 7.60785 23.5943 7.51369 23.4495C7.41927 23.3044 7.32829 23.1575 7.24076 23.0084C7.15296 22.8594 7.06888 22.7082 6.98799 22.5554C6.90735 22.4024 6.8299 22.2477 6.75617 22.0915C6.68243 21.935 6.61241 21.7769 6.54583 21.6173C6.47926 21.4578 6.41613 21.2968 6.35698 21.1343C6.29783 20.9719 6.24213 20.808 6.19041 20.643C6.13842 20.4781 6.09042 20.312 6.04612 20.1449C6.00183 19.9778 5.96125 19.8097 5.92464 19.6407C5.88804 19.4717 5.85515 19.302 5.82624 19.1314C5.79733 18.9609 5.77213 18.7898 5.75091 18.6182C5.72996 18.4466 5.71245 18.2744 5.69919 18.102C5.68593 17.9296 5.67638 17.757 5.67081 17.5843C5.66524 17.4114 5.66365 17.2384 5.66603 17.0655C5.66816 16.8925 5.67452 16.7199 5.6846 16.5472C5.69494 16.3745 5.709 16.2024 5.72677 16.0303C5.74481 15.8584 5.76682 15.6868 5.79255 15.5157C5.81828 15.3449 5.84799 15.1743 5.88141 15.0048C5.91483 14.8351 5.95223 14.6664 5.99334 14.4982C6.03445 14.3303 6.07954 14.1635 6.12835 13.9975C6.17688 13.8317 6.2294 13.667 6.28563 13.5033C6.34186 13.3397 6.40181 13.1776 6.46546 13.0169C6.52912 12.8559 6.59623 12.6967 6.66705 12.5389C6.73787 12.3811 6.81213 12.2251 6.89011 12.0708C6.96809 11.9161 7.04952 11.7636 7.13413 11.613C7.21901 11.4623 7.30733 11.3135 7.39884 11.1668C7.49035 11.0202 7.5853 10.8756 7.68344 10.7334C7.78158 10.591 7.8829 10.4509 7.98741 10.313C8.09191 10.1754 8.1996 10.0398 8.3102 9.90694C8.42081 9.77406 8.5346 9.64383 8.65104 9.51598C8.76748 9.3884 8.8871 9.26321 9.00937 9.14093Z" fill="#3A8EBA"/>
</svg>
