<svg width="231" height="228" viewBox="0 0 231 228" fill="none" xmlns="http://www.w3.org/2000/svg">
<path d="M100.668 163.19C100.335 161.462 99.6322 158.086 99.4473 156.491C99.4105 156.172 99.3771 155.944 99.347 155.842C99.3615 155.839 99.376 155.835 99.3905 155.832C99.4429 155.817 99.4195 155.735 99.3671 155.751C99.3537 155.754 99.3392 155.757 99.3248 155.762C99.2858 155.627 99.2479 155.492 99.2089 155.358C99.1933 155.305 99.1109 155.327 99.1265 155.379C99.1655 155.513 99.2033 155.649 99.2423 155.784C97.9601 156.129 96.6233 156.116 95.3054 156.026C93.9196 155.931 92.5427 155.796 91.1513 155.787C90.3425 155.781 89.5349 155.806 88.7284 155.857C88.6983 155.859 88.6827 155.883 88.6882 155.911C88.8041 156.598 88.9311 157.284 89.0681 157.968C89.1294 158.276 89.1929 158.583 89.2575 158.889C89.2419 158.896 89.2297 158.913 89.2352 158.935C89.6352 160.942 90.1498 162.926 90.7792 164.876C91.0845 165.82 91.402 166.765 91.8186 167.669C92.2241 168.554 92.7443 169.378 93.3036 170.175C94.4733 171.84 101.37 178.33 102.712 179.992C102.748 180.038 102.792 180.084 102.841 180.133H111.796C107.972 174.172 100.919 163.679 100.668 163.19Z" fill="#F6976F"/>
<path d="M49.229 164.806C49.2201 164.644 49.2089 164.481 49.1989 164.317C49.3036 161.664 49.0875 159.001 48.545 156.399C48.4748 156.066 48.4002 155.734 48.32 155.403C48.2732 155.213 48.2264 155.016 48.0181 154.95C47.7953 154.88 47.5435 154.975 47.3285 155.033C46.991 155.122 46.6512 155.209 46.3114 155.292C44.9379 155.631 43.5554 155.925 42.1618 156.173C40.5854 156.454 38.998 156.676 37.4038 156.841C37.4016 156.762 37.3983 156.682 37.396 156.603C37.3938 156.549 37.3092 156.561 37.3114 156.615C37.3337 157.225 37.3571 157.835 37.3793 158.444C37.3804 158.462 37.3804 158.479 37.3804 158.496C37.3649 159.932 37.3481 161.366 37.3337 162.801C37.3114 164.689 37.2534 166.579 37.2969 168.466C37.3392 170.337 37.63 172.171 37.992 174.006C38.3597 175.861 38.7373 177.715 39.1094 179.57C39.1461 179.751 39.1829 179.935 39.2197 180.117H48.9082C49.0352 178.344 49.1488 176.569 49.2301 174.793C49.3816 171.467 49.4184 168.132 49.229 164.806Z" fill="#F6976F"/>
<path d="M84.0684 74.8434V74.8423C83.732 74.132 83.2452 73.4909 82.6648 72.9456C81.514 71.8636 80.0413 71.2127 78.5073 70.8476C78.1642 70.7674 77.8178 70.6981 77.468 70.6387C75.8749 70.0758 74.2407 69.5865 72.5585 69.3633C71.2095 69.1829 69.8292 69.1851 68.4947 69.4611C68.4791 69.4512 68.4601 69.4457 68.4378 69.449C66.3324 69.7811 64.0776 70.4232 62.6138 72.0505C61.8162 72.9357 61.3806 74.0451 60.9172 75.1204C60.7423 75.5273 60.5395 75.9154 60.3268 76.297C59.9491 76.9787 59.5358 77.6384 59.1771 78.3377C58.7672 79.136 58.5455 79.9936 58.57 80.8732C58.5722 80.9711 58.5789 81.07 58.5878 81.169V81.1701C58.5989 81.3009 58.6157 81.4329 58.6391 81.5637C58.7382 82.1366 58.9487 82.6633 59.2261 83.1724C59.5893 83.8387 59.7787 84.4335 59.7609 85.1955C59.7464 85.8178 59.6539 86.4435 59.7363 87.0658C59.7664 87.2846 59.8199 87.4968 59.8923 87.7025C59.9859 87.9608 60.1095 88.2093 60.2566 88.4457C60.8437 89.3968 61.7115 90.1632 62.1248 91.2188C62.5715 92.3612 62.5303 93.6334 63.0282 94.7593C63.2566 95.2761 63.6008 95.6917 64.0297 96.0589C64.3071 96.2964 64.5967 96.5163 64.8574 96.7648C65.0657 96.9628 65.2551 97.1783 65.4011 97.4345C65.4334 97.4938 65.5035 97.4828 65.5381 97.4433C65.5615 97.4531 65.5916 97.4476 65.596 97.418C65.7108 96.6714 65.8355 95.927 65.9725 95.1848C66.0695 94.6625 66.1708 94.1402 66.2789 93.6191C66.2856 93.5883 66.2923 93.5586 66.2989 93.5289C66.3023 93.5124 66.3056 93.4959 66.309 93.4794C66.3134 93.4585 66.3179 93.4365 66.3223 93.4156C66.5229 92.4656 66.7412 91.52 66.9796 90.5788L67.0308 90.3776C67.0308 90.3754 67.0308 90.3754 67.032 90.3754C67.0386 90.3479 67.0453 90.3204 67.0531 90.293C67.2648 89.4694 67.4909 88.6514 67.7316 87.8355C67.775 87.6926 67.8184 87.5485 67.8619 87.4056C67.8764 87.3528 67.8931 87.3 67.9098 87.2472C67.9143 87.2318 67.9187 87.2165 67.9243 87.2022C67.9321 87.1725 67.9421 87.1428 67.951 87.1131C67.9677 87.0592 67.9833 87.0064 67.9989 86.9526C68.0011 86.9482 68.0023 86.9427 68.0045 86.9372C68.1103 86.5952 68.2173 86.2544 68.3298 85.9135C68.3476 85.8607 68.3654 85.8069 68.3833 85.7541C68.3833 85.7508 68.3855 85.7464 68.3866 85.742C68.4768 85.4693 68.5715 85.1966 68.6718 84.9272C68.8322 84.4896 69.006 84.0564 69.1998 83.632C70.0442 81.7825 71.3376 80.2399 72.9941 79.0425C73.7483 78.4971 74.5526 78.0254 75.387 77.612C75.3881 77.612 75.3892 77.612 75.3892 77.612C76.2927 77.1634 77.2318 76.7829 78.1831 76.4487C79.0855 76.1331 80.0157 75.8154 80.957 75.6086C80.9849 75.6009 81.0127 75.5954 81.0406 75.5889C81.1865 75.5581 81.3324 75.5295 81.4784 75.5042C81.4839 75.5031 81.4895 75.5009 81.4951 75.5009C81.5396 75.4932 81.5831 75.4866 81.6276 75.4789C81.6588 75.4745 81.69 75.4712 81.7201 75.4668C82.3194 75.3876 82.911 75.4096 83.497 75.5889C83.6585 75.6383 83.8635 75.6977 84.0506 75.6933C84.0885 75.5394 84.1576 75.3942 84.2511 75.2667C84.1965 75.1226 84.1353 74.9819 84.0684 74.8434Z" fill="#8C5046"/>
<path d="M105.753 155.025C105.445 154.484 105.199 153.911 104.996 153.324C104.186 150.966 104.086 143.907 103.385 141.523C103.01 140.245 102.441 139.038 101.913 137.817C101.383 136.598 100.947 135.359 100.643 134.064C99.5152 129.265 99.8082 123.981 97.0265 119.686C95.7176 117.665 93.8995 116.013 91.9433 114.611C89.722 113.018 86.2842 111.71 83.8244 110.519C83.5292 110.376 83.234 110.235 82.9388 110.096C82.9132 110.083 82.8876 110.071 82.8619 110.059C82.0231 109.665 81.1798 109.281 80.3343 108.9C80.2407 108.859 80.1471 108.817 80.0535 108.774C79.7115 108.62 79.3695 108.465 79.0275 108.311C78.8905 108.437 78.719 108.53 78.514 108.568C77.9236 108.682 77.3287 108.756 76.7327 108.809C75.7914 108.894 74.8467 108.921 73.8987 108.945C73.7616 108.95 73.6235 108.953 73.4854 108.956H73.4843C72.5819 108.981 71.6807 109.01 70.7839 109.093C70.2358 109.142 69.6911 109.195 69.1441 109.249C69.1419 109.248 69.1419 109.249 69.1419 109.249C68.9425 109.269 68.7419 109.287 68.5425 109.308H68.5403C67.2102 109.438 65.8801 109.569 64.5477 109.676C64.0108 109.717 63.4716 109.757 62.9324 109.789C62.5436 109.813 62.1905 109.614 61.9576 109.319C61.6513 109.458 61.3472 109.597 61.0408 109.737C60.2187 110.112 59.3965 110.487 58.5744 110.861C58.5477 110.873 58.5221 110.886 58.4953 110.897C57.0894 111.538 55.6825 112.179 54.2755 112.82C50.9736 114.326 47.5614 115.832 44.8265 118.252C43.4886 119.436 42.3723 120.835 41.5747 122.426C40.7325 124.109 40.229 125.931 39.8224 127.757C39.4046 129.637 39.0849 131.537 38.5992 133.401C38.0656 135.447 37.2568 137.399 36.5572 139.389C35.1391 143.426 34.4874 152.565 34.7024 156.835C34.7291 157.358 34.7693 157.881 34.8205 158.404C34.8227 158.424 34.8328 158.439 34.8528 158.446C35.3964 158.621 35.9356 158.621 36.4748 158.541C36.7811 158.496 37.0864 158.425 37.3938 158.347C38.2093 158.137 39.027 157.873 39.8547 157.897C40.7916 157.923 43.7392 158.216 44.6705 158.305C45.3913 158.373 46.121 158.348 46.835 158.237C46.8406 158.385 46.8462 158.531 46.8517 158.679C46.8985 159.885 46.9431 161.091 47.0612 162.292C47.1737 163.431 47.3798 164.547 47.6349 165.66C47.6405 165.689 47.6471 165.717 47.6538 165.745C47.9223 166.909 48.2075 168.079 48.261 169.276C48.3144 170.484 48.1128 171.682 47.9301 172.873C47.5681 175.233 47.5469 177.597 47.5714 179.98C47.5714 179.993 47.5714 180.006 47.5725 180.02C47.5725 180.056 47.5725 180.092 47.5736 180.13H92.2808C92.3811 177.248 92.4814 174.366 92.5805 171.485C92.6373 169.818 92.3611 162.503 92.2419 158.724C92.2419 158.723 92.2419 158.723 92.2419 158.722C92.2318 158.406 92.224 158.115 92.2162 157.853C92.1951 157.102 92.1862 156.601 92.1951 156.475C94.53 156.569 99.3537 156.44 101.69 156.395C101.992 156.389 102.294 156.383 102.595 156.374C103.053 156.363 103.511 156.348 103.969 156.33H103.975C104.34 156.316 104.704 156.301 105.07 156.283C105.296 156.272 105.536 156.272 105.749 156.182C106.315 155.941 105.961 155.391 105.753 155.025Z" fill="#F2E2D8"/>
<path d="M85.5032 88.3798C85.4709 87.2549 85.4297 86.1202 85.3862 85.0251C85.3829 84.969 85.3818 84.914 85.3785 84.8579C85.3773 84.8162 85.3762 84.7744 85.374 84.7326C85.3439 84.0311 85.3138 83.3472 85.2804 82.6985C85.1568 80.252 85.0097 78.2728 84.8538 77.4943C84.8192 77.3261 84.7858 77.214 84.7513 77.1656C84.1386 76.2991 83.1115 75.8835 82.1077 75.6361C81.9707 75.6009 81.8348 75.5702 81.6978 75.5416C81.6699 75.535 81.6421 75.5306 81.6142 75.5251C81.5741 75.5163 81.534 75.5086 81.495 75.5009C81.3402 75.4712 81.1876 75.4459 81.0338 75.4228C81.006 75.4184 80.9781 75.414 80.9492 75.4107C78.8404 75.1149 76.8118 75.4426 74.84 76.1595C74.6506 76.2277 74.4645 76.298 74.283 76.3695H74.2819C74.2406 76.3849 74.1994 76.4025 74.1593 76.419C72.505 77.0809 71.1292 77.9023 70.2102 79.1909C70.209 79.192 70.2079 79.192 70.2079 79.1931C70.1533 79.269 70.0999 79.3471 70.0497 79.4262C69.9105 79.6417 69.7835 79.8693 69.671 80.1112C69.6487 80.1563 69.6275 80.2036 69.6064 80.252C69.3947 80.7314 69.2321 81.2636 69.1229 81.8573C69.114 81.9035 69.1062 81.9497 69.095 81.9937C69.095 81.997 69.095 81.9991 69.0939 82.0002C69.0672 82.1344 69.036 82.263 69.0004 82.3884C69.0004 82.3895 68.9992 82.3928 68.9981 82.395C68.8099 83.0789 68.5224 83.6551 68.215 84.2103C67.9877 84.6215 67.7482 85.0207 67.5288 85.4451C67.5031 85.4946 67.4775 85.5452 67.4519 85.5957C67.3984 85.7035 67.3461 85.8134 67.2959 85.9256C67.2157 86.1048 67.14 86.2884 67.0731 86.4809C67.0419 86.5633 67.0141 86.6458 66.9873 86.7316C66.9283 86.9207 66.8759 87.1186 66.8325 87.3264C66.828 87.3429 66.8247 87.3594 66.8214 87.3748C66.6531 88.1983 66.5261 89.0934 66.7311 89.9191C66.7567 90.0214 66.7868 90.1236 66.8236 90.2237C66.867 90.3446 66.9183 90.4634 66.9795 90.5788C67.0208 90.6569 67.0653 90.735 67.1155 90.8097C67.1823 90.9131 67.2257 91.9522 67.3717 93.2254C67.3717 93.2298 67.3728 93.2342 67.3728 93.2397C67.3772 93.2683 67.3806 93.2991 67.3839 93.3299C67.385 93.3409 67.3862 93.353 67.3873 93.364C67.3906 93.3915 67.394 93.4167 67.3973 93.4442C67.5722 94.8901 67.883 96.5768 68.5057 97.5389C68.6116 97.7038 68.7263 97.8468 68.8533 97.9644C71.2807 100.234 73.2458 101.574 74.7731 102.291C75.632 102.695 76.3416 102.94 76.9621 103.084C78.0784 103.342 78.9061 103.275 79.7984 103.215C81.7513 103.084 82.7505 100.919 83.7119 98.0568C83.8032 97.7885 84.6956 97.8072 84.8471 97.5587C84.8582 97.5422 84.8649 97.5224 84.8671 97.5026C85.1289 95.5432 85.3261 93.9247 85.433 92.3205C85.4375 92.2688 85.4408 92.216 85.4442 92.1644C85.5199 90.9483 85.5433 89.7344 85.5032 88.3798Z" fill="#F6976F"/>
<path d="M77.0756 100.809C77.0522 101.241 77.03 101.679 77.0088 102.12C76.9988 102.323 76.9887 102.528 76.9776 102.734C76.972 102.856 76.9665 102.979 76.9609 103.101C76.942 103.485 76.923 103.872 76.9063 104.255L76.8918 104.599C76.8038 106.558 76.7325 108.472 76.6991 110.139C75.6397 110.455 72.6809 112.478 71.5981 112.638C68.7139 113.003 67.6868 111.161 64.8405 110.802C64.757 110.789 64.6745 110.775 64.5921 110.762C64.4328 107.667 64.5598 104.553 64.6523 101.455C64.6946 100.054 64.7893 98.0282 64.8973 96.0095C64.9698 94.6834 65.0466 93.3607 65.1201 92.2194C65.2438 90.2776 65.3574 88.8636 65.4064 88.8603C65.4432 88.4798 65.5624 88.0928 65.7986 87.8234C66.1038 87.476 66.7956 87.2516 67.239 87.3198C67.7336 87.3935 67.8105 88.084 67.8405 88.493C67.8673 88.8636 67.8071 89.2275 67.6322 89.5332C71.0088 89.708 77.4232 89.8762 77.5023 91.265C77.5535 92.1435 77.3085 96.2316 77.0756 100.809Z" fill="#F6976F"/>
<path d="M76.4874 89.3187C76.5063 90.1203 76.2056 90.7712 75.8179 90.7734C75.4291 90.7745 75.0994 90.1258 75.0815 89.3231C75.0637 88.5215 75.3634 87.8717 75.7522 87.8706C76.1398 87.8684 76.4696 88.5171 76.4874 89.3187Z" fill="#3B2523"/>
<path d="M84.5775 87.8652C84.5675 88.6689 84.2444 89.3088 83.8568 89.2967C83.4691 89.2858 83.1627 88.6249 83.1739 87.8223C83.1839 87.0196 83.507 86.3786 83.8946 86.3907C84.2823 86.4039 84.5887 87.0636 84.5775 87.8652Z" fill="#3B2523"/>
<path d="M67.5799 93.0506C67.5643 93.0418 67.5432 93.0429 67.5298 93.0605C67.5008 93.1001 67.4708 93.1375 67.4385 93.1716V93.1738C67.4173 93.1968 67.395 93.2188 67.3727 93.2397C67.2636 93.3464 67.1355 93.4321 66.9884 93.4948C66.9828 93.4959 66.9761 93.4992 66.9706 93.5014C66.848 93.5498 66.6241 93.5531 66.6241 93.5531C66.5194 93.5443 65.6739 93.1298 65.6516 93.0759C65.6093 92.9692 65.5636 92.8626 65.5135 92.7603C65.4288 92.5855 65.3408 92.3997 65.1915 92.271C65.1681 92.2523 65.1458 92.2348 65.1202 92.2205V92.2194H65.1191C65.1124 92.3282 65.1057 92.4404 65.0979 92.5525C65.0979 92.5591 65.0979 92.5635 65.0968 92.5701C65.0957 92.6042 65.0935 92.6372 65.0913 92.6702C65.0868 92.7394 65.0823 92.8087 65.079 92.8791C65.0667 93.0627 65.0556 93.2496 65.0445 93.4387C65.0378 93.5586 65.03 93.6795 65.0222 93.8016C65.0222 93.8093 65.0211 93.8159 65.0211 93.8247C65.0155 93.9203 65.0099 94.0171 65.0044 94.1139C64.9988 94.2117 64.9932 94.3096 64.9876 94.4074C64.9843 94.4481 64.9821 94.4877 64.981 94.5284C64.9709 94.69 64.962 94.8517 64.952 95.0144C64.9342 95.3442 64.9164 95.6763 64.8985 96.0095C64.9041 95.993 64.9108 95.9787 64.9175 95.9633C64.9331 95.9699 64.9542 95.9666 64.9654 95.9523C64.9999 95.9105 64.991 95.8907 64.9888 95.8357C64.9888 95.8313 64.9876 95.828 64.9876 95.8247C64.9943 95.8126 65.001 95.8017 65.0077 95.7907C65.147 95.5795 65.3653 95.4652 65.5959 95.3618C65.7218 95.3036 65.851 95.2497 65.9724 95.1848C66.1496 95.0925 66.3111 94.9781 66.4258 94.8077C66.6364 94.4976 66.5528 94.0127 66.9316 93.8269C67.1388 93.7246 67.2803 93.6004 67.3972 93.4442C67.4295 93.4025 67.4596 93.3574 67.4886 93.3112C67.5142 93.2705 67.5387 93.2254 67.5632 93.1804C67.5755 93.1562 67.59 93.132 67.6022 93.1056C67.6134 93.0836 67.6 93.0605 67.5799 93.0506Z" fill="#D5744E"/>
<path d="M64.5989 92.3887C64.6301 92.4833 64.6557 92.5789 64.678 92.6757C64.7158 92.8472 64.708 93.1056 64.6468 93.3189C64.3605 92.4217 64.1043 91.5113 63.8714 90.5954C63.7255 89.5618 63.4659 88.5535 62.9435 87.6409C62.8677 87.509 62.7686 87.4001 62.6538 87.3155C62.5636 86.9185 62.4845 86.5205 62.421 86.1269C62.6917 85.3638 63.0526 84.6392 63.5083 84.0004C64.3037 82.8909 65.001 82.4434 66.2298 82.0058C67.5911 81.522 68.6126 79.2262 70.053 79.4274C68.0579 83.477 69.0059 86.3841 68.3508 86.8284C68.2071 86.9273 67.874 87.0087 67.7203 86.9339C67.6602 86.9031 67.6022 86.8745 67.541 86.8493C67.4128 86.7998 67.2814 86.7668 67.1477 86.7481C66.5796 86.6678 66.1796 86.846 65.7831 87.2682C65.2327 87.8542 64.7002 89.509 64.62 90.6734C64.5777 91.2936 64.6568 91.773 64.5989 92.3887Z" fill="#8C5046"/>
<path d="M80.6384 98.6274C80.1627 98.8143 79.6436 98.8253 79.1534 98.6549C79.1011 98.6362 79.0665 98.7109 79.1189 98.7296C79.6313 98.9078 80.1727 98.9012 80.6718 98.7043C80.722 98.6845 80.6896 98.6076 80.6384 98.6274Z" fill="#D5744E"/>
<path d="M67.8874 87.1736C67.8874 87.1703 67.8874 87.167 67.8874 87.1637C67.8996 87.1758 67.9119 87.189 67.9241 87.2022C68.118 87.4067 68.2829 87.6387 68.4087 87.8938C68.4332 87.9433 68.5068 87.9015 68.4823 87.8531C68.3497 87.5827 68.1681 87.3331 67.9509 87.1132C67.9097 87.0725 67.8684 87.0318 67.825 86.9922C67.8105 86.979 67.796 86.9658 67.7816 86.9537C67.5688 86.7668 67.3282 86.6074 67.073 86.4809C66.5261 86.2115 65.9067 86.0961 65.3174 86.2071C63.8937 86.4721 63.5907 88.1775 63.7722 89.3661C63.8859 90.1116 64.1733 90.8296 64.4652 91.5267C64.5142 91.6443 64.5654 91.7543 64.6211 91.8599C64.7136 92.0391 64.8138 92.2007 64.9208 92.347H64.9219C64.9787 92.4261 65.0378 92.4998 65.0968 92.5702H65.0979C65.1202 92.5965 65.1436 92.6229 65.167 92.6471C65.1692 92.6493 65.1692 92.6504 65.1714 92.6526C65.3263 92.8209 65.4878 92.9616 65.6516 93.0759C65.8788 93.2354 66.1072 93.3464 66.3222 93.4157C66.5183 93.4784 66.7032 93.507 66.8636 93.5059C66.9004 93.5059 66.936 93.5048 66.9706 93.5015C67.0686 93.4927 67.1544 93.4707 67.2245 93.441C67.2279 93.4388 67.2323 93.4366 67.2357 93.4355C67.2357 93.4355 67.2368 93.4344 67.2379 93.4344C67.2903 93.4113 67.3404 93.3882 67.3872 93.364C67.4228 93.3475 67.4563 93.3299 67.4886 93.3112C67.9119 93.077 68.1347 92.7923 68.2639 92.2843C68.4555 91.5201 68.4967 90.679 68.4444 89.8895C68.4433 89.8532 68.4399 89.8191 68.4377 89.7839C68.4332 89.7136 68.4266 89.6421 68.4188 89.5706C68.3965 89.3617 68.3642 89.1539 68.3185 88.9483C68.2884 88.8108 68.2539 88.6734 68.2127 88.5382C68.1024 88.1753 67.8673 87.7916 67.8618 87.4056C67.8584 87.3287 67.8662 87.2517 67.8874 87.1758C67.8874 87.1747 67.8874 87.1747 67.8874 87.1736Z" fill="#F6976F"/>
<path d="M67.2958 90.3567C66.6853 90.3116 66.6095 89.6035 66.6185 89.1428C66.6251 88.7811 66.6441 88.3819 66.4335 88.0609C66.0759 87.5144 65.1936 87.6035 65.099 88.2764C65.0912 88.3291 65.1769 88.3313 65.1847 88.2786C65.2594 87.742 65.9389 87.6243 66.2898 88.0103C66.5583 88.3061 66.5405 88.736 66.5338 89.1021C66.5249 89.6211 66.6107 90.3897 67.2958 90.4403C67.3504 90.4447 67.3515 90.3611 67.2958 90.3567Z" fill="#D5744E"/>
<path d="M78.6243 92.9087C79.4387 92.9153 80.2808 93.155 81.0852 92.901C81.4272 92.7921 81.758 92.5975 81.9563 92.293C82.2003 91.918 82.1758 91.4672 82.0777 91.0582C81.9819 90.659 81.8293 90.272 81.6956 89.885L81.2678 88.6447C80.9838 87.8178 80.6997 86.991 80.4145 86.1652C80.3978 86.1136 80.4802 86.0927 80.497 86.1421C80.9905 87.5759 81.4862 89.0097 81.9786 90.4435C82.1646 90.9856 82.3763 91.6167 82.1123 92.183C81.9017 92.636 81.4327 92.9054 80.9593 93.023C80.1873 93.2133 79.3974 92.9989 78.6221 92.9934C78.5675 92.9934 78.5697 92.9087 78.6243 92.9087Z" fill="#D5744E"/>
<path d="M84.7903 76.9412C84.7814 76.8434 84.7759 76.7477 84.7703 76.651C84.6801 76.3651 84.582 76.0803 84.4818 75.7977C84.4272 75.646 84.3715 75.4932 84.3135 75.3425C84.2835 75.2645 84.2066 75.094 84.1966 75.0687C84.1632 75.0039 84.1308 74.9379 84.1008 74.8719C83.9994 74.784 83.9136 74.6806 83.8479 74.564C83.5126 74.3958 83.1706 74.2397 82.8364 74.0901C81.4661 73.4755 80.0135 73.0181 78.5074 72.8268C77.0135 72.6388 75.3659 72.6706 73.931 73.2314C73.2504 73.4964 72.6521 73.9109 72.1029 74.387C71.5359 74.8807 70.99 75.4151 70.4754 75.9616C69.5173 76.9753 68.6551 78.3454 69.1029 79.7506C69.1118 79.7803 69.6265 80.2992 69.6332 80.2651C70.0599 78.1101 73.7216 77.734 74.312 77.6384C74.9125 77.5405 75.5229 77.6164 76.1156 77.6955C77.1338 77.8308 78.152 77.9737 79.1379 77.5526C80.0848 77.1469 80.8456 76.8126 81.8716 76.5971C82.9455 76.3717 83.9426 76.5267 84.6422 77.259C84.6288 77.2733 84.8238 77.4569 84.8828 77.5273C84.9173 77.568 84.9786 77.5086 84.9441 77.4679C84.885 77.3965 84.797 77.0149 84.7903 76.9412Z" fill="#8C5046"/>
<path d="M80.0535 108.774C79.7115 108.62 79.3695 108.465 79.0275 108.311C78.2845 107.977 77.5381 107.648 76.7795 107.356C76.6269 107.295 76.4731 107.239 76.3194 107.182C75.0372 106.715 73.7093 106.386 72.3379 106.329C70.9109 106.27 69.4872 106.465 68.0902 106.739C67.3895 106.875 66.6922 107.032 65.9948 107.191C65.9402 107.204 65.9636 107.286 66.0193 107.274C66.2466 107.223 66.4738 107.172 66.7022 107.121C66.7133 107.127 66.7234 107.136 66.7334 107.143C65.9948 107.479 65.2573 107.816 64.5187 108.152C63.6654 108.541 62.811 108.93 61.9576 109.319C61.6513 109.458 61.3472 109.598 61.0408 109.737C61.2692 110.298 61.629 110.821 61.9688 111.3C62.4734 112.008 63.0583 112.664 63.7077 113.249C64.9944 114.406 66.5473 115.289 68.2306 115.745C71.7821 116.708 75.7847 115.745 78.2488 112.983C79.2838 111.823 80.019 110.41 80.3343 108.9C80.2407 108.859 80.1471 108.817 80.0535 108.774Z" fill="#F6976F"/>
<path d="M62.2016 79.6055C61.883 78.9348 61.3616 78.3641 61.121 77.656C61.0441 77.4306 60.9907 77.1832 60.9773 76.938C60.9884 76.9479 60.9996 76.9589 61.0096 76.9699C61.0464 77.0084 61.1065 76.949 61.0698 76.9105C61.0397 76.8775 61.0063 76.8478 60.9762 76.816C60.9795 76.4113 61.1088 76.021 61.4608 75.7593C61.5042 75.7274 61.4619 75.6548 61.4185 75.6867C61.0486 75.9616 60.8993 76.3289 60.8826 76.7236C60.7111 76.5631 60.525 76.4212 60.3267 76.297C59.4077 75.7219 58.2491 75.5405 57.1763 75.7615C55.6936 76.0705 54.5172 77.1788 53.9212 78.5257C53.6115 79.2261 53.4723 79.9694 53.4645 80.7314C53.4544 81.6396 53.5781 82.6116 53.1681 83.4583C52.825 84.1708 52.1455 84.6304 51.4838 85.0295C50.8321 85.422 50.1715 85.7915 49.6223 86.3226C48.3757 87.5287 47.7017 89.2715 47.8287 90.989C47.8321 91.0187 47.8577 91.0308 47.88 91.0286C49.0363 91.7356 50.5413 91.8884 51.8803 91.6454C53.2417 91.398 54.8681 90.1588 56.2138 91.0934C56.2472 91.1154 56.284 91.0781 56.2762 91.0451C56.1414 90.4172 56.284 89.7575 56.6461 89.2242C57.0226 88.669 57.5863 88.3765 58.2257 88.2017C58.7805 88.051 59.3665 87.9697 59.8845 87.7058C59.8867 87.7047 59.89 87.7036 59.8923 87.7025C60.3847 87.4485 60.7155 87.0164 60.8369 86.4809C60.974 85.8816 60.8938 85.2582 60.9027 84.648C60.9127 83.9728 61.0898 83.4011 61.4541 82.8293C61.7705 82.3334 62.1559 81.8617 62.3531 81.301C62.5536 80.7259 62.46 80.1465 62.2016 79.6055Z" fill="#8C5046"/>
<path d="M77.4466 84.9525C76.8885 84.7447 76.2714 84.6193 75.6832 84.5512C75.125 84.4874 74.5636 84.5292 74.02 84.6699C72.8469 84.9745 71.8064 85.7002 70.9954 86.6073C70.9921 86.6106 70.9899 86.615 70.9887 86.6194C70.9475 86.6711 70.9486 86.7404 70.9854 86.8041C70.9899 86.8118 70.9943 86.8195 70.9999 86.8261C71.1113 86.9779 71.3653 87.0361 71.5535 87.0559C71.5781 87.0592 71.6003 87.0603 71.6215 87.0614C71.6906 87.0669 71.8209 87.0592 71.9991 87.0394C72.3434 87.0053 72.8614 86.9317 73.4362 86.8459C74.9301 86.6216 76.8128 86.3082 77.0378 86.3291C77.2093 86.3467 77.4344 86.3412 77.6449 86.2917C77.7285 86.272 77.8087 86.2456 77.8833 86.2115C78.0749 86.1224 78.2231 85.9773 78.2599 85.753C78.3289 85.3066 77.7708 85.0724 77.4466 84.9525Z" fill="#8C5046"/>
<path d="M85.2804 82.6985C84.9874 82.7524 84.6977 82.8293 84.4159 82.9305C83.7531 83.1669 83.0746 83.477 82.4864 83.8618C82.1456 84.0839 81.5629 84.4984 81.7657 84.9756C82.0074 85.543 82.8685 85.4352 83.3331 85.2791C83.6238 85.1801 84.6743 84.8954 85.3739 84.7326C85.3439 84.0311 85.3138 83.3472 85.2804 82.6985Z" fill="#8C5046"/>
<path d="M81.6231 95.828C80.2473 96.2932 78.7735 96.4768 77.3086 96.3624C77.1938 96.3547 77.0791 96.3448 76.9643 96.3316C76.9298 96.3283 76.9098 96.3525 76.9086 96.3767C76.863 96.347 76.8162 96.3184 76.7705 96.291C76.7371 96.2712 76.6981 96.2921 76.6914 96.3173C76.687 96.3305 76.6914 96.3437 76.7081 96.3547C76.8975 96.4702 77.0913 96.5911 77.2896 96.7088C77.977 97.1156 78.7278 97.4861 79.5923 97.4499C80.1794 97.4268 80.6016 97.3971 81.0316 97.1453C81.3836 96.9386 81.6454 96.4361 81.7601 96.0458C81.7791 95.9831 81.7936 95.9237 81.8036 95.8676C81.8091 95.8379 81.6576 95.8171 81.6231 95.828Z" fill="white"/>
<path d="M81.7823 95.1078C81.2799 95.0199 80.8622 95.3618 80.6238 95.7324C80.5803 95.5345 80.401 95.3651 80.167 95.3014C79.7515 95.1859 79.3349 95.3937 79.0474 95.6301C78.4971 96.0831 77.7975 96.2261 77.3129 96.2689C76.981 96.2986 76.7493 96.2799 76.7348 96.2799C76.7036 96.2799 76.6891 96.2975 76.6913 96.3173C76.6924 96.336 76.708 96.3558 76.7381 96.3624C76.9364 96.4086 77.1236 96.4504 77.3007 96.4867C78.4013 96.7132 79.1756 96.767 80.4778 96.568C80.9167 96.4998 81.4504 96.3437 81.76 96.0457C81.8558 95.9534 81.9294 95.8478 81.9728 95.728C82.1399 95.2684 81.9617 95.1397 81.7823 95.1078Z" fill="#D5744E"/>
<path d="M59.9734 77.5725C59.9901 77.5208 59.9077 77.4988 59.891 77.5505C59.4922 78.8413 58.6845 80.0035 58.4673 81.3494C58.269 82.5764 58.6957 83.8266 59.6214 84.6744C59.6615 84.7117 59.7217 84.6513 59.6816 84.615C58.699 83.7145 58.3136 82.384 58.601 81.1009C58.8784 79.8639 59.6002 78.7797 59.9734 77.5725Z" fill="#5C3630"/>
<path d="M55.4876 86.2829C54.9317 86.7095 54.3402 87.1625 54.0249 87.8013C53.7553 88.3478 53.7074 89.0141 54.0572 89.5364C54.0873 89.5815 54.1608 89.5397 54.1307 89.4946C53.7587 88.9393 53.8589 88.2191 54.1942 87.6716C54.5262 87.1262 55.0464 86.7271 55.5477 86.3422C55.5912 86.3092 55.5299 86.2499 55.4876 86.2829Z" fill="#5C3630"/>
<path d="M52.6522 90.3633C51.9326 89.9257 52.3114 89.0065 52.601 88.4358C52.6255 88.3874 52.552 88.3446 52.5275 88.3929C52.2156 89.0098 51.8446 89.9719 52.6099 90.4359C52.6567 90.4634 52.699 90.3908 52.6522 90.3633Z" fill="#5C3630"/>
<path d="M65.9301 83.5011C65.2495 83.2779 64.5154 83.3395 63.8804 83.6693C63.8325 83.6957 63.8748 83.7683 63.9238 83.7419C64.5387 83.4219 65.2484 83.3659 65.9079 83.5825C65.9602 83.599 65.9825 83.5176 65.9301 83.5011Z" fill="#5C3630"/>
<path d="M80.8467 74.5091C80.635 73.8472 80.2496 73.2501 79.7349 72.7773C79.6948 72.741 79.6336 72.8004 79.6748 72.8378C80.1616 73.2853 80.5326 73.8439 80.7442 74.4684C80.9525 75.0797 81.0962 75.8923 80.7386 76.475C80.7097 76.5212 80.7832 76.563 80.8122 76.5168C81.172 75.9319 81.0461 75.1292 80.8467 74.5091Z" fill="#5C3630"/>
<path d="M81.6623 74.1803C81.6433 74.1308 81.5618 74.1528 81.5808 74.2034C81.7551 74.6619 81.7573 75.1446 81.5863 75.6053C81.5674 75.6559 81.65 75.6779 81.669 75.6273C81.8445 75.1545 81.8422 74.652 81.6623 74.1803Z" fill="#5C3630"/>
<path d="M74.8368 76.5356C73.4955 76.1431 72.0529 75.7021 71.1795 74.5454C71.1472 74.5025 71.0737 74.5443 71.106 74.5883C71.9938 75.7637 73.4476 76.2167 74.8134 76.617C74.8657 76.6324 74.8891 76.551 74.8368 76.5356Z" fill="#5C3630"/>
<path d="M65.4689 72.6344C64.7993 72.3276 64.0407 72.2979 63.3489 72.5585C63.2988 72.5772 63.3211 72.6586 63.3723 72.6388C64.0407 72.387 64.776 72.409 65.4265 72.7069C65.4755 72.73 65.519 72.6575 65.4689 72.6344Z" fill="#5C3630"/>
<path d="M84.8449 96.4844C84.7915 96.5229 83.2564 97.7346 82.6893 98.0623C81.0295 99.02 79.0042 99.2849 77.1706 98.9749C76.7116 98.8979 76.2638 98.7847 75.8382 98.6362C74.6451 98.2228 72.8482 97.7027 71.9994 96.7241C70.999 95.5751 71.0825 94.0445 70.9856 92.6294C70.9611 92.2853 70.9143 91.9367 70.7973 91.6102C70.6815 91.2924 70.4954 91.0131 70.2871 90.747C69.9986 90.3754 69.7201 90.0158 69.4806 89.6233V89.6222C69.3681 89.4386 69.2656 89.2484 69.1731 89.0461C68.8256 88.2797 68.6239 87.466 68.498 86.6381C68.4613 86.4061 68.4323 86.1752 68.4067 85.9421C68.4011 85.8805 68.3933 85.8178 68.3878 85.7551C68.3866 85.7507 68.3866 85.7474 68.3866 85.7419C68.3443 85.3131 68.3165 84.8821 68.2931 84.4555C68.2897 84.4104 68.2207 84.3961 68.2084 84.4445C68.1226 84.8282 68.0023 85.1999 67.8497 85.5583C67.8274 85.61 67.8051 85.6606 67.7817 85.7123C67.7082 85.8728 67.628 86.03 67.5422 86.1829C67.5344 86.1961 67.5355 86.2103 67.5411 86.2213C67.54 86.2411 67.5478 86.2642 67.5623 86.2807C67.5567 86.2906 67.5545 86.3038 67.5612 86.317C67.6525 86.5281 67.7361 86.7425 67.8118 86.958C67.8174 86.9701 67.8207 86.9811 67.8252 86.9921C67.8463 87.0537 67.8664 87.1142 67.8876 87.1757C67.8942 87.1999 67.902 87.2241 67.9098 87.2472C68.0892 87.8047 68.2229 88.372 68.3187 88.9482C68.3532 89.1549 68.3833 89.3616 68.4089 89.5705C68.4223 89.6761 68.4345 89.7827 68.4446 89.8894C68.5203 90.614 68.5471 91.3452 68.5482 92.0731C68.5493 93.033 68.5047 93.9929 68.459 94.9528C68.4189 95.8082 68.3254 96.6944 68.5058 97.5389C68.5281 97.6477 68.556 97.7566 68.5883 97.8632C68.7264 98.3173 68.9336 98.7473 69.1397 99.1739C69.328 99.5642 69.5363 99.9414 69.885 100.217C70.2381 100.496 73.7227 103.825 76.4765 104.769C76.6124 104.816 76.7461 104.858 76.8787 104.898C80.5995 106.016 83.4268 104.646 84.0573 102.786C84.2278 102.282 84.6377 99.1871 84.8472 97.5587C84.9218 96.9759 84.9708 96.5801 84.9742 96.557C84.982 96.4954 84.894 96.4503 84.8449 96.4844Z" fill="#8C5046"/>
<path d="M88.7515 88.2313C88.6089 89.565 87.8882 91.454 86.4868 91.9334C86.1648 92.0445 85.8061 92.1269 85.4441 92.1643C85.043 92.205 84.6364 92.1907 84.2677 92.0939C83.5168 91.896 82.9944 91.3122 82.6279 90.6656C81.8737 89.3363 81.7912 87.6903 82.5889 86.3972C82.6368 86.3203 83.0723 85.7969 83.1258 85.7507C83.5413 85.3879 84.1574 85.2922 84.6119 85.1801C84.8659 85.1185 85.1243 85.0624 85.3861 85.025C85.8574 84.9569 86.3375 84.9448 86.8054 85.0437C87.4537 85.1801 88.0753 85.5187 88.4218 86.0927C88.8039 86.7238 88.8273 87.5199 88.7515 88.2313ZM79.1109 89.3385C78.9917 90.4523 78.4693 91.9543 77.4823 92.6976C77.2884 92.8438 77.0768 92.9604 76.8473 93.0395C76.1677 93.2715 75.33 93.3848 74.6271 93.199C73.8773 93.0011 73.3549 92.4183 72.9884 91.7718C72.6419 91.1615 72.4369 90.4853 72.3946 89.8069C72.3378 88.9185 72.5584 88.0279 73.1009 87.278C73.1187 87.2681 73.1343 87.2549 73.1443 87.2307C73.1488 87.2186 73.1555 87.2087 73.1599 87.1977C73.2 87.146 73.2401 87.0954 73.2825 87.046C73.3014 87.0229 73.3047 86.9998 73.3014 86.9756C73.3415 86.9283 73.3872 86.8854 73.4362 86.8459C73.8428 86.5127 74.5112 86.4005 74.9713 86.2862C75.6854 86.1103 76.4373 85.9959 77.167 86.1498C77.3296 86.185 77.4889 86.2312 77.6449 86.2917C78.1083 86.472 78.5216 86.7689 78.7823 87.1988C78.9048 87.4022 78.9906 87.6232 79.0474 87.8519C79.0341 87.886 79.0463 87.9256 79.0708 87.9498C79.1666 88.4039 79.1588 88.8877 79.1109 89.3385ZM87.2131 84.9799C86.6171 84.7798 85.9944 84.7732 85.3783 84.8579C85.0787 84.8986 84.7823 84.9623 84.4905 85.0371C83.9747 85.1691 83.2795 85.2955 82.8963 85.699C82.7482 85.8563 82.5131 86.2015 82.4507 86.3038C82.2457 86.6347 82.0954 86.9888 81.9962 87.3549C81.6241 87.2472 81.2431 87.2032 80.8688 87.2208C80.8388 87.2208 80.8087 87.2241 80.7786 87.2252C80.2127 87.2659 79.6601 87.444 79.1678 87.7563C78.9761 87.0987 78.574 86.5391 77.8833 86.2114C77.7853 86.1652 77.6828 86.1235 77.5736 86.0861C76.6869 85.7881 75.7366 85.9189 74.8499 86.1433C74.3853 86.262 73.7982 86.3764 73.3894 86.6754C73.3883 86.6743 73.3872 86.6732 73.385 86.6732C72.8491 86.5347 72.2854 86.5028 71.9991 87.0394C71.9913 87.0537 71.9846 87.0669 71.978 87.0812C71.9557 87.1284 71.9367 87.1757 71.9223 87.2241C71.7986 87.168 71.6772 87.1119 71.5535 87.0559C71.3653 86.9712 71.1759 86.8876 70.9854 86.8041C70.2078 86.4643 69.4224 86.1454 68.6282 85.8453C68.5479 85.8145 68.4677 85.7848 68.3875 85.7551C68.3864 85.7551 68.3842 85.754 68.3831 85.754C68.2059 85.6869 68.0277 85.6221 67.8495 85.5583C67.7425 85.5198 67.6367 85.4824 67.5286 85.445C66.946 85.2383 66.3578 85.0448 65.7663 84.8601C65.6616 84.8293 65.617 84.9909 65.7206 85.0228C66.3021 85.2042 66.8792 85.3945 67.4518 85.5957C67.5621 85.6331 67.6712 85.6737 67.7815 85.7122C67.9642 85.7782 68.148 85.8453 68.3296 85.9134C68.3552 85.9233 68.3808 85.9321 68.4065 85.942C68.4766 85.9673 68.5457 85.9937 68.6148 86.0212C69.7199 86.4379 70.8083 86.8953 71.8799 87.3901C71.8098 87.8101 71.9835 88.2357 72.3266 88.5172C72.3311 88.5204 72.3356 88.5215 72.34 88.5237C72.2364 88.9372 72.1974 89.3649 72.2219 89.7926C72.2531 90.36 72.3946 90.9284 72.6397 91.4617C72.9471 92.1368 73.4117 92.8185 74.0912 93.1715C74.7975 93.5398 75.633 93.4893 76.3917 93.332C76.8183 93.243 77.1692 93.0945 77.4756 92.8779C77.7842 92.6613 78.0459 92.3776 78.2921 92.0214C78.7845 91.3122 79.1076 90.4897 79.2413 89.642C79.3337 89.0614 79.3371 88.4677 79.2112 87.9278C79.708 87.6034 80.265 87.422 80.8365 87.3901C80.8666 87.3879 80.8956 87.3868 80.9257 87.3857C81.2688 87.3758 81.6152 87.4198 81.9561 87.5188C81.7467 88.4512 81.8648 89.4518 82.2792 90.3556C82.5877 91.0296 83.0512 91.7113 83.7307 92.0665C84.2554 92.3391 84.8514 92.3809 85.4329 92.3204C85.6357 92.2985 85.8362 92.2655 86.0311 92.2259C86.8889 92.0467 87.4415 91.6244 87.9327 90.9163C88.424 90.2071 88.7471 89.3836 88.8819 88.5358C89.1136 87.0669 88.785 85.5088 87.2131 84.9799Z" fill="white"/>
<path d="M69.9462 109.316C68.8333 109.196 67.7126 109.187 66.5975 109.29C66.544 109.295 66.5429 109.379 66.5975 109.374C67.7126 109.271 68.8333 109.28 69.9462 109.4C70.0008 109.405 70.0008 109.321 69.9462 109.316Z" fill="#D5744E"/>
<path d="M75.5575 108.541C74.576 108.696 73.6057 108.907 72.6499 109.174C72.5976 109.188 72.6199 109.27 72.6733 109.254C73.6291 108.988 74.5983 108.777 75.5798 108.622C75.6344 108.613 75.611 108.532 75.5575 108.541Z" fill="#D5744E"/>
<path d="M92.2936 137.941C92.3081 136.935 92.326 135.93 92.3472 134.926C92.3483 134.872 92.2634 134.872 92.2623 134.926C92.1852 138.499 92.1561 142.073 92.1796 145.647C92.1852 146.652 92.1964 147.657 92.2098 148.662C92.2109 148.717 92.2969 148.717 92.2958 148.662C92.2455 145.09 92.2444 141.515 92.2936 137.941Z" fill="#BDAEA4"/>
<path d="M46.602 139.277C46.4327 138.365 46.2444 137.457 46.0372 136.552C46.025 136.499 45.9425 136.522 45.9548 136.575C46.6844 139.763 47.178 143.004 47.4253 146.264C47.4954 147.19 47.5445 148.115 47.5757 149.041C47.5779 149.095 47.6625 149.095 47.6614 149.041C47.5511 145.767 47.198 142.5 46.602 139.277Z" fill="#BDAEA4"/>
<path d="M84.7211 169.947C83.0189 167.285 81.2242 164.68 79.336 162.143C78.7979 161.42 78.2521 160.702 77.6995 159.989C77.6661 159.946 77.5926 159.989 77.626 160.032C79.5644 162.531 81.4147 165.098 83.1693 167.727C83.6706 168.476 84.163 169.23 84.6476 169.99C84.6765 170.035 84.7501 169.993 84.7211 169.947Z" fill="#BDAEA4"/>
<path d="M85.7459 175.1C84.4759 173.685 83.3274 172.168 82.3114 170.566C82.2825 170.521 82.2089 170.562 82.2379 170.608C83.2572 172.217 84.4113 173.739 85.6869 175.159C85.7225 175.199 85.7827 175.14 85.7459 175.1Z" fill="#BDAEA4"/>
<path d="M82.9388 110.096C82.462 111.417 81.8683 112.698 81.1297 113.899C80.5003 114.92 79.7695 115.912 78.8928 116.74C77.9737 117.607 76.8909 118.15 75.6688 118.476C73.14 119.152 70.4286 119.2 67.8831 118.574C65.6183 118.017 63.4939 116.911 61.7627 115.365C60.3669 114.118 59.2551 112.588 58.4953 110.897C58.5221 110.886 58.5477 110.873 58.5744 110.861C59.4411 112.793 60.7713 114.504 62.4512 115.833C64.2937 117.291 66.5039 118.271 68.8255 118.687C70.1088 118.919 71.4211 118.983 72.7212 118.888C74.0112 118.792 75.3291 118.562 76.5422 118.115C77.7375 117.675 78.7056 116.897 79.53 115.95C80.3187 115.041 80.9904 114.034 81.5619 112.981C82.071 112.041 82.4999 111.063 82.862 110.059C82.8876 110.071 82.9132 110.084 82.9388 110.096Z" fill="#BDAEA4"/>
<path d="M130.375 154.727C131.497 153.62 133.093 152.884 134.69 152.711C135.542 152.088 137.626 150.854 137.751 150.534C139.029 147.258 141.77 138.397 143.484 132.627C142.154 132.593 140.822 132.51 139.499 132.372C137.174 132.13 134.728 131.883 132.491 131.141C132.404 131.113 132.317 131.082 132.231 131.052C132.067 131.887 131.908 132.723 131.751 133.56C130.904 138.075 130.076 142.595 129.239 147.111C128.764 149.671 128.29 152.231 127.815 154.792C127.811 154.81 127.822 154.828 127.839 154.837C128.409 155.131 128.998 155.388 129.602 155.603C129.824 155.291 130.08 154.997 130.375 154.727Z" fill="#D97E57"/>
<path d="M156.9 106.643C156.825 104.337 156.217 102.077 155.373 99.9358C154.96 98.888 154.497 97.8533 153.974 96.8538C153.472 95.8917 152.878 94.9714 152.084 94.2182C150.492 92.7086 148.357 91.8619 146.397 90.9306C145.928 90.7074 145.459 90.4853 144.99 90.2621C144.939 89.7552 144.837 89.256 144.736 88.7568C144.725 88.704 144.642 88.726 144.653 88.7788C144.75 89.256 144.848 89.7354 144.902 90.2203C144.842 90.1917 144.783 90.1642 144.722 90.1356C144.673 90.1126 144.63 90.1851 144.679 90.2082C144.756 90.2445 144.833 90.2808 144.91 90.3182C144.923 90.4446 144.932 90.5711 144.937 90.6986C144.961 91.311 144.861 91.9004 144.68 92.4854C144.382 93.465 143.947 94.4403 144.124 95.4849C144.294 96.4932 144.896 97.3662 145.111 98.3624C145.338 99.4168 144.939 100.426 144.656 101.428C144.407 102.31 144.276 103.231 144.748 104.065C145.196 104.855 146.011 105.435 146.28 106.324C146.628 107.473 145.887 108.578 145.67 109.677C145.587 110.094 145.678 110.431 145.996 110.722C146.341 111.042 146.744 111.257 146.979 111.681C147.442 112.518 147.272 113.558 147.359 114.469C147.39 114.796 147.405 115.327 147.805 115.423C147.98 115.465 148.16 115.404 148.318 115.332C148.576 115.216 148.818 115.06 149.056 114.91C149.966 114.338 150.798 113.657 151.668 113.03C152.112 112.711 152.566 112.407 153.044 112.14C153.482 111.893 153.942 111.698 154.402 111.5C155.25 111.135 156.129 110.7 156.529 109.825C156.731 109.382 156.804 108.896 156.849 108.415C156.905 107.827 156.921 107.233 156.9 106.643Z" fill="#4A2F2D"/>
<path d="M196.3 133.015C196.209 131.96 194.984 128.958 194.536 128.063C193.614 126.221 192.647 125.827 192.626 123.723C192.615 122.747 192.724 121.75 192.507 120.788C192.317 119.949 191.841 119.273 191.182 118.723C190.558 118.201 189.846 117.797 189.2 117.302C188.451 116.729 187.877 116.034 187.621 115.118C187.356 114.174 187.389 113.179 187.36 112.208C187.332 111.28 187.237 110.363 186.873 109.497C186.532 108.688 186.003 107.954 185.336 107.375C184.607 106.745 183.703 106.371 182.945 105.783C182.802 105.671 182.67 105.551 182.55 105.426C182.473 105.188 182.368 104.961 182.24 104.749C182.084 104.492 181.896 104.263 181.685 104.056C181.271 103.076 181.075 101.974 180.635 100.998C180.273 100.193 179.71 99.5445 178.978 99.042C178.207 98.512 177.334 98.1524 176.476 97.7808C175.186 97.2222 173.826 96.5075 173.122 95.3321C173.13 95.2815 173.139 95.2288 173.15 95.1771C173.239 94.7868 173.383 94.414 173.435 94.016C173.482 93.6509 173.475 93.2804 173.417 92.9164C173.302 92.1907 172.98 91.5255 172.5 90.967C172.02 90.4062 171.423 89.9411 171.006 89.3276C170.446 88.5018 170.514 87.5551 170.645 86.6183C171.216 85.6936 171.537 84.6193 171.541 83.5319C171.549 81.8375 170.757 80.1816 169.475 79.0634C169.166 78.794 168.83 78.5587 168.472 78.3575C168.072 78.1343 167.641 77.9451 167.293 77.6428C166.475 76.9325 166.728 75.8813 166.811 74.9412C166.882 74.1253 166.716 73.3579 166.25 72.6729C165.803 72.0197 165.158 71.5051 164.445 71.1555C162.763 70.3297 160.853 70.5343 159.05 70.9114C158.342 70.3231 157.563 69.8273 156.685 69.5183C155.534 69.1126 154.302 69.0719 153.197 69.4809C151.996 69.6568 150.845 70.167 149.919 70.9532C149.174 71.5854 148.702 72.5563 147.716 72.8587C147.27 72.995 146.811 73.0709 146.371 73.2259C145.977 73.3645 145.594 73.5393 145.229 73.7438C143.775 74.5608 142.541 75.9066 142.012 77.4877C141.74 78.297 141.658 79.2173 142.017 80.0134C142.214 80.4499 142.635 80.8413 142.32 81.3328C142.078 81.7111 141.639 81.9387 141.313 82.2355C140.596 82.8876 140.083 83.754 139.861 84.6897C139.756 85.1284 139.674 85.6727 139.965 86.063C140.153 86.3148 140.476 86.4556 140.778 86.3687C140.395 87.3825 140.036 88.8196 141.211 89.4606C142.187 89.9917 143.357 89.5804 144.104 88.8679C144.508 88.482 144.827 88.0235 145.12 87.5529C145.128 87.6431 145.137 87.7343 145.147 87.8256C145.155 87.8784 145.239 87.8784 145.233 87.8256C145.218 87.6925 145.206 87.5606 145.198 87.4286C145.264 87.3198 145.331 87.2098 145.398 87.101C145.426 87.0548 145.352 87.0119 145.323 87.0581C145.28 87.1307 145.235 87.2054 145.189 87.2802C145.095 85.201 145.842 83.1185 147.182 81.512C147.896 80.6544 148.78 79.932 149.784 79.4262C150.802 78.9116 151.916 78.6225 152.983 78.2288C153.644 77.9847 154.294 77.6944 154.864 77.2964C156.404 78.4817 157.619 80.0716 158.359 81.8606C158.872 83.0998 159.131 84.4093 159.162 85.7464C159.2 87.3341 159.003 88.9328 159.257 90.5107C159.503 92.0346 160.191 93.4695 161.208 94.6394C161.212 96.4416 161.278 98.2437 161.522 100.032C161.811 102.135 162.385 104.17 163.266 106.108C164.545 108.927 166.335 111.471 168.182 113.957C168.323 115.396 168.344 116.843 168.195 118.295C167.977 120.414 167.465 122.492 166.824 124.522C165.793 127.794 163.959 130.291 162.527 135.296C161.876 137.573 161.426 138.905 161.386 141.274C161.386 141.305 161.414 141.319 161.439 141.316C162.876 141.108 164.342 140.004 165.793 140.17C166.533 140.256 167.266 140.438 167.938 140.754C168.538 141.033 169.08 141.413 169.63 141.775C170.154 142.123 170.691 142.463 171.287 142.681C171.89 142.9 172.526 142.962 173.164 142.9C174.493 142.774 180.492 142.423 181.147 142.646C181.778 142.862 182.423 143.058 183.093 143.113C183.698 143.162 184.305 143.086 184.892 142.94C186.122 142.631 187.254 142.037 188.445 141.618C189.044 141.406 189.664 141.236 190.301 141.184C190.972 141.129 191.621 141.251 192.282 141.353C192.879 141.446 193.522 141.526 194.102 141.313C194.624 141.119 194.935 140.699 195.227 140.258C195.561 139.756 195.774 139.181 195.909 138.596C196.145 137.575 196.211 136.498 196.281 135.455C196.336 134.645 196.37 133.826 196.3 133.015Z" fill="#4A2F2D"/>
<path d="M144.435 87.4606C144.435 89.0241 144.581 93.4629 145.456 97.1233C146.163 100.076 148.085 101.742 150.032 101.959C152.298 102.211 155.145 102.181 161.54 96.601C163.129 95.2134 162.578 90.8054 162.745 90.5668C163.448 89.5596 163.329 88.2808 163.127 87.1373C162.73 84.8745 161.773 82.7106 160.399 80.8601C158.978 78.9491 157.149 77.5394 155.092 76.3465C152.928 75.093 150.703 74.1826 148.16 74.7004C147.152 74.9061 146.548 75.4041 145.913 76.2442C145.386 76.9435 145.026 78.8072 144.793 80.9172C144.724 81.5308 144.667 82.1652 144.62 82.7985C144.492 84.5204 144.436 86.228 144.435 87.4606Z" fill="#D97E57"/>
<path d="M163.901 108.485C163.842 104.628 162.375 87.5243 162.279 87.5276C162.254 87.1516 162.167 86.7789 161.987 86.5315C161.756 86.2137 161.227 86.051 160.884 86.1576C160.504 86.2753 160.438 86.9713 160.411 87.3792C160.389 87.7508 160.431 88.1071 160.563 88.3952C157.965 88.8702 153.033 89.6102 152.961 90.9989C152.914 91.8752 153.068 95.9204 153.21 100.452C153.225 100.894 153.237 101.34 153.25 101.788C153.256 101.978 153.261 102.168 153.267 102.358C153.28 102.799 153.293 103.241 153.305 103.682C153.394 106.956 153.453 110.161 153.407 112.338C153.406 112.373 153.028 113.274 153.053 113.271L159.992 115.946C160.012 115.943 161.242 113.638 161.866 112.453C162.015 112.541 162.171 112.618 162.334 112.681C162.391 112.703 162.46 112.66 162.469 112.571C162.928 108.362 163.965 112.662 163.901 108.485Z" fill="#D97E57"/>
<path d="M153.899 86.9878C153.889 87.7927 154.194 88.4491 154.581 88.4535C154.969 88.459 155.291 87.8103 155.302 87.0054C155.312 86.2005 155.007 85.5441 154.619 85.5397C154.232 85.5342 153.909 86.1829 153.899 86.9878Z" fill="#3B2523"/>
<path d="M145.91 86.5469C145.899 87.3517 146.205 88.0082 146.593 88.0137C146.981 88.0169 147.303 87.3693 147.314 86.5645C147.324 85.7596 147.019 85.1032 146.631 85.0977C146.243 85.0933 145.92 85.742 145.91 86.5469Z" fill="#3B2523"/>
<path d="M148.632 97.3146C149.105 97.5092 149.619 97.5235 150.103 97.3552C150.155 97.3387 150.19 97.4146 150.138 97.4322C149.632 97.6081 149.095 97.596 148.599 97.3926C148.549 97.3717 148.58 97.2937 148.632 97.3146Z" fill="#B35536"/>
<path d="M152.061 94.4184C152.072 94.3909 152.024 94.3821 151.997 94.3931C151.634 94.5448 151.228 94.5646 150.84 94.5954C150.451 94.6262 150.06 94.657 149.671 94.6658C149.278 94.6746 148.911 94.6141 148.537 94.4943C148.236 94.3986 147.942 94.2996 147.625 94.2733C147.614 94.226 147.537 94.248 147.544 94.2996C147.624 94.8153 147.829 95.4432 148.24 95.7983C148.611 96.1194 149.19 96.2205 149.668 96.1799C150.168 96.1381 150.635 95.9391 151.007 95.607C151.242 95.3981 151.891 94.8043 152.061 94.4184Z" fill="white"/>
<path d="M151.956 94.3964C151.566 94.5185 151.161 94.5932 150.834 94.2832C150.562 94.0259 150.344 93.7103 150.044 93.4816C149.826 93.3167 149.537 93.1957 149.26 93.2716C149.021 93.3376 148.854 93.5388 148.848 93.7818C148.848 93.7862 148.85 93.7895 148.851 93.7939C148.851 93.795 148.85 93.7961 148.85 93.7972V93.8005C148.668 93.5839 148.453 93.3365 148.163 93.2793C147.502 93.1484 147.426 93.9786 147.579 94.4162C147.588 94.4426 147.591 94.4547 147.622 94.491C148.187 95.0133 148.981 95.1485 149.741 95.1133C150.189 95.0924 150.63 95.0045 151.063 94.8956C151.402 94.8098 151.741 94.712 151.998 94.4712C152.013 94.4657 152.065 94.414 152.04 94.3887C152.017 94.3634 151.958 94.3942 151.956 94.3964Z" fill="#B35536"/>
<path d="M150.855 91.266C150.255 91.4342 149.54 91.4485 148.973 91.1594C148.314 90.8218 148.32 90.1445 148.483 89.5156C148.807 88.2775 149.297 87.0735 149.891 85.9377C149.916 85.8893 149.842 85.8475 149.818 85.8959C149.477 86.5479 149.174 87.2186 148.914 87.9069C148.67 88.5546 148.396 89.2506 148.311 89.9411C148.239 90.5128 148.447 91.0076 148.988 91.2594C149.568 91.5288 150.271 91.5178 150.877 91.3474C150.93 91.332 150.907 91.2506 150.855 91.266Z" fill="#B35536"/>
<path d="M152.992 75.1677C152.741 74.2694 151.454 74.1815 150.692 74.0803C148.853 73.8362 146.738 74.0924 145.463 75.5713C144.746 76.4047 144.425 77.5394 144.262 78.6005C144.178 79.1547 144.145 79.7154 144.164 80.2762C144.173 80.5456 144.196 80.8161 144.229 81.0843C144.278 81.0756 144.326 81.0701 144.376 81.0679C144.458 80.8337 144.546 80.6017 144.646 80.374C145.027 79.4955 145.512 78.5521 146.2 77.8682C146.575 77.4944 147.03 77.2558 147.571 77.2536C148.037 77.2514 148.503 77.3756 148.97 77.2986C149.438 77.2217 149.749 76.8995 150.119 76.6367C150.578 76.3124 151.077 76.3212 151.618 76.3058C152.248 76.2882 153.219 75.9858 152.992 75.1677Z" fill="#4A2F2D"/>
<path d="M173.143 73.7042C172.857 73.481 172.49 73.4579 172.137 73.4777C172.933 73.0598 173.353 72.0197 172.965 71.1895C172.683 70.5837 172.031 70.2263 171.374 70.2032C171.104 69.2939 170.197 68.6683 169.239 68.7354C168.703 68.7716 168.199 68.9959 167.815 69.3599C167.84 68.8123 167.51 68.312 167.034 68.0339C166.474 67.7051 165.764 67.6501 165.129 67.7304C163.966 67.8777 162.895 68.5341 162.196 69.4545C161.862 69.8943 161.62 70.3957 161.488 70.9267C161.317 70.9487 161.149 70.9883 160.983 71.0488C160.931 71.0675 160.953 71.1488 161.005 71.1301C161.158 71.0741 161.312 71.0356 161.465 71.0136C161.446 71.1038 161.428 71.1939 161.415 71.2863C161.406 71.3402 161.49 71.3621 161.497 71.3083C161.512 71.2049 161.534 71.1038 161.556 71.0015C162.649 70.8849 163.712 71.5557 164.327 72.4408C164.706 72.9873 164.959 73.6063 165.145 74.2396C165.326 74.8576 165.438 75.4733 165.8 76.0209C165.97 76.2793 166.179 76.5476 166.35 76.829C166.423 76.9511 166.489 77.0753 166.543 77.2018C166.563 77.2491 166.579 77.2964 166.595 77.3436C166.448 77.2985 166.302 77.2513 166.158 77.1974C166.106 77.1787 166.084 77.259 166.136 77.2788C166.294 77.3381 166.459 77.392 166.623 77.4393C166.681 77.668 166.683 77.9055 166.601 78.1562C166.585 78.2079 166.665 78.2299 166.683 78.1793C166.763 77.9352 166.763 77.6955 166.711 77.4646C166.8 77.4888 166.887 77.5119 166.977 77.5328C167.164 77.5778 167.355 77.6152 167.546 77.6438C167.674 77.6636 167.804 77.679 167.935 77.6911C168.293 77.7263 168.653 77.7329 169.011 77.712C169.53 77.6801 170.047 77.5899 170.545 77.4371C171.223 77.2282 171.862 76.9005 172.411 76.4552C172.958 76.0099 173.556 75.3799 173.556 74.6333C173.556 74.288 173.423 73.9241 173.143 73.7042Z" fill="#4A2F2D"/>
<path d="M163.167 83.81C162.935 82.4906 162.639 81.17 162.113 79.9308C161.562 78.6312 160.734 77.5449 159.728 76.5542C159.24 76.0726 158.737 75.5965 158.152 75.2303C157.555 74.8576 156.883 74.6454 156.191 74.5211C155.398 74.3782 154.586 74.3265 153.783 74.2528C153.418 74.2188 152.962 74.1011 152.607 74.2254C152.383 74.3045 152.227 74.5101 152.278 74.7476C152.287 74.7839 152.338 74.7861 152.356 74.7575C152.397 74.6927 152.437 74.6267 152.492 74.5728C152.504 74.5618 152.518 74.5497 152.536 74.5387C152.642 75.2842 152.723 76.0407 152.88 76.7796C153.007 77.3788 153.216 77.9858 153.646 78.4432C154.556 79.413 156.093 79.3052 157.062 80.1969C157.577 80.6697 157.914 81.3339 157.969 82.0266C158.019 82.6401 157.843 83.3053 158.093 83.8914C158.344 84.4807 158.978 84.6325 159.448 84.9975C160.041 85.4582 160.003 86.2576 160.208 86.9107C160.4 87.5221 160.756 88.1026 161.381 88.3522C162.098 88.6392 162.912 88.4589 163.622 88.2444C163.639 88.239 163.652 88.2236 163.653 88.2038C163.725 86.7381 163.42 85.2482 163.167 83.81Z" fill="#4A2F2D"/>
<path d="M181.315 126.016C181.314 125.959 181.313 125.899 181.311 125.841C181.309 125.757 181.305 125.674 181.303 125.589C181.271 124.838 181.186 124.093 181.026 123.356C180.935 122.934 180.817 122.515 180.67 122.1C180.472 121.541 180.22 120.999 179.911 120.494C178.458 116.129 173.301 112.041 168.974 109.312C168.65 109.108 168.332 108.911 168.021 108.723C167.432 109.209 166.818 109.528 166.088 109.81C164.981 110.238 163.727 110.353 162.546 110.35C161.202 110.345 159.851 110.158 158.532 109.916C157.719 109.768 156.906 109.585 156.102 109.374C154.496 109.746 152.869 110.017 151.229 109.902C150.266 109.834 149.483 109.34 149.094 108.497L148.33 108.892L144.082 111.087L140.873 112.748C140.835 112.772 140.796 112.797 140.759 112.821C139.833 113.423 138.901 114.019 138.031 114.698C137.157 115.379 136.353 116.15 135.719 117.057C135.13 117.898 134.691 118.83 134.342 119.791C133.877 121.066 133.562 122.383 133.227 123.696C133.105 124.174 132.98 124.651 132.844 125.125C132.763 125.404 132.678 125.684 132.589 125.961C132.25 127.004 131.813 128.003 131.266 128.957C131.005 129.411 130.728 129.858 130.452 130.304C130.157 130.778 129.863 131.252 129.588 131.737C129.526 131.844 129.465 131.952 129.407 132.062C128.978 132.853 128.608 133.681 128.415 134.56C128.157 135.728 128.385 136.863 128.389 138.038C128.389 138.877 128.174 139.671 127.888 140.446C128.826 141.052 129.949 141.195 131.074 141.225C132.419 141.258 133.771 141.195 135.094 141.482C136.067 141.693 136.967 141.96 137.59 142.746C137.695 142.882 137.835 143.664 137.99 144.841C138.113 145.778 138.245 146.965 138.376 148.274C138.665 151.126 138.951 154.553 139.139 157.223C139.173 157.704 139.204 158.162 139.232 158.587C139.333 160.187 139.38 161.325 139.342 161.581C139.595 161.564 139.849 161.551 140.102 161.547C140.132 161.545 140.162 161.545 140.191 161.545C140.963 161.538 141.723 161.701 142.478 161.857C143.424 162.052 145.956 162.407 146.756 162.946C147.596 163.512 148.228 164.393 149.204 164.749C150.167 165.101 151.238 164.959 152.219 164.77C153.374 164.547 154.502 164.215 155.625 163.87C157.741 163.219 159.85 162.551 162.068 162.403C162.208 162.158 162.377 161.922 162.577 161.701C164.023 160.099 166.206 159.643 168.028 158.613C168.021 158.597 168.017 158.579 168.017 158.557C168.189 156.967 168.46 155.39 168.773 153.821C168.845 153.457 168.92 153.092 168.996 152.728C169.005 152.692 169.011 152.655 169.019 152.619C169.068 152.393 169.116 152.165 169.165 151.938C169.181 151.867 169.196 151.795 169.211 151.724C169.225 151.658 169.238 151.594 169.253 151.528C169.29 151.368 169.323 151.206 169.359 151.046C169.785 149.093 170.224 147.142 170.553 145.172C170.64 144.661 170.74 144.142 170.777 143.625C170.804 143.263 170.799 142.9 170.859 142.543C170.916 142.212 171.058 141.899 171.199 141.594C171.24 141.506 171.268 141.419 171.366 141.382C171.481 141.339 171.668 141.403 171.787 141.397C172.138 141.382 172.452 141.339 172.808 141.374C173.368 141.428 173.862 141.454 174.39 141.21C174.568 141.127 174.742 141.033 174.915 140.942C175.174 140.921 175.431 140.889 175.687 140.851C176.16 140.779 177.972 140.459 178.105 140.445C179.013 140.339 179.936 140.368 180.767 140.779C180.798 140.794 180.829 140.775 180.831 140.742C180.967 139.208 180.872 137.673 180.807 136.138C180.803 136 180.797 135.861 180.792 135.722C180.785 135.529 180.78 135.335 180.776 135.142C180.753 133.682 180.84 132.234 180.992 130.777C181.095 129.79 181.206 128.792 181.267 127.795C181.288 127.498 181.3 127.202 181.309 126.905C181.309 126.896 181.31 126.889 181.31 126.88C181.311 126.799 181.314 126.717 181.315 126.637C181.318 126.43 181.318 126.222 181.315 126.016Z" fill="#79B3D1"/>
<path d="M162.54 105.923C162.482 106.233 153.339 106.301 153.339 106.301L148.329 108.892C148.109 111.822 146.948 114.677 147.096 117.645C147.188 119.538 148.041 121.262 148.302 123.125C148.562 124.976 148.334 126.85 148.196 128.701C148.047 130.692 147.992 132.745 148.755 134.633C148.772 134.672 148.822 134.672 148.839 134.633C149.309 133.506 149.794 132.35 150.626 131.429C151.423 130.548 152.448 129.903 153.237 129.009C154.707 127.342 155.445 125.211 156.598 123.345C157.781 121.43 159.435 119.872 161.094 118.361C162.799 116.807 164.483 115.262 165.859 113.408C166.724 112.241 167.541 111.044 168.465 109.92C168.634 109.716 168.802 109.513 168.975 109.312C165.699 107.247 162.898 105.959 162.54 105.923Z" fill="#D97E57"/>
<path d="M172.751 109.865C172.574 109.04 172.368 108.222 172.134 107.412C171.678 105.834 171.111 104.286 170.445 102.783C169.098 99.7457 167.336 96.888 165.214 94.3184C164.917 93.9588 164.604 93.6135 164.306 93.2573C164.12 93.0341 163.98 92.8054 163.907 92.5228C163.849 92.3029 163.817 92.0775 163.73 91.8642C163.469 91.2276 162.695 90.7152 162.054 91.21C162.011 91.244 162.073 91.3023 162.115 91.2704C162.231 91.1792 162.362 91.1286 162.495 91.1099C162.667 92.16 162.578 93.243 162.226 94.2502C161.908 95.1573 161.36 96.0138 161.418 97.0078C161.47 97.9281 161.914 98.7649 162.084 99.661C162.181 100.171 162.146 100.662 162.023 101.163C161.911 101.621 161.751 102.07 161.687 102.54C161.632 102.941 161.658 103.343 161.829 103.716C162.002 104.093 162.284 104.407 162.532 104.736C162.841 105.144 163.022 105.549 163.08 106.057C163.128 106.479 163.144 106.912 163.364 107.291C163.752 107.954 164.535 108.277 165.247 108.477C166.152 108.731 167.118 108.9 167.755 109.65C168.11 110.068 168.371 110.549 168.771 110.931C169.108 111.253 169.508 111.585 169.999 111.593C170.276 111.599 170.55 111.557 170.828 111.577C171.091 111.596 171.353 111.647 171.605 111.727C172.133 111.894 172.967 111.96 173.356 112.352C173.384 112.378 173.427 112.357 173.428 112.322C173.457 111.415 172.939 110.748 172.751 109.865Z" fill="#4A2F2D"/>
<path d="M157.098 83.3021C156.391 82.8293 155.716 82.6764 154.788 82.6512C154.059 82.6325 152.607 82.6995 152.323 83.577C152.223 83.8848 152.308 84.2202 152.624 84.3246C152.777 84.373 152.941 84.3697 153.098 84.3587C153.367 84.34 153.638 84.3137 153.91 84.3082C154.471 84.295 155.019 84.3565 155.571 84.4676C156.017 84.5566 156.488 84.6974 156.947 84.6721C157.287 84.6523 157.651 84.4874 157.702 84.0926C157.746 83.7474 157.354 83.4747 157.098 83.3021Z" fill="#4A2F2D"/>
<path d="M148.637 82.5742C147.93 82.1014 147.255 81.9475 146.326 81.9233C145.598 81.9046 144.148 81.9705 143.862 82.8491C143.762 83.1569 143.846 83.4912 144.163 83.5957C144.315 83.6451 144.48 83.6418 144.636 83.6297C144.907 83.6111 145.177 83.5858 145.45 83.5792C146.01 83.5671 146.558 83.6275 147.111 83.7386C147.556 83.8277 148.027 83.9684 148.484 83.9431C148.826 83.9244 149.19 83.7584 149.241 83.3648C149.284 83.0184 148.893 82.7457 148.637 82.5742Z" fill="#4A2F2D"/>
<path d="M162.979 159.082C162.159 158.338 161.338 157.592 160.517 156.848C159.79 156.187 159.056 155.515 158.49 154.71C157.904 153.879 157.571 152.918 157.169 151.994C156.784 151.108 156.316 150.259 155.808 149.435C154.795 147.794 153.63 146.252 152.615 144.613C151.556 142.904 150.744 141.079 150.113 139.177C149.605 137.644 149.207 136.081 148.84 134.511C148.817 134.531 148.793 134.548 148.765 134.564C149.532 137.826 150.445 141.072 152.144 143.993C153.132 145.692 154.318 147.266 155.381 148.918C155.91 149.74 156.411 150.584 156.834 151.465C157.269 152.371 157.579 153.336 158.075 154.213C158.61 155.158 159.386 155.928 160.183 156.658C161.09 157.49 162.006 158.314 162.919 159.141C162.959 159.178 163.019 159.118 162.979 159.082Z" fill="#C7883C"/>
<path d="M159.282 72.0616C158.793 71.8483 158.266 71.8813 157.77 72.0517C157.51 72.1407 157.262 72.2617 157.024 72.3991C156.767 72.5498 156.533 72.7499 156.256 72.8631C155.918 73.0017 155.565 72.9258 155.216 72.8785C154.936 72.8411 154.656 72.84 154.377 72.8994C153.872 73.0083 153.407 73.2909 153.093 73.6977C152.733 74.1628 152.583 74.7576 152.661 75.3349C152.667 75.3877 152.753 75.3888 152.745 75.3349C152.652 74.6477 152.894 73.9352 153.423 73.4679C153.681 73.2403 153.999 73.0786 154.335 72.9951C154.711 72.9027 155.063 72.9434 155.439 72.9951C155.729 73.0358 156.018 73.0534 156.294 72.9401C156.593 72.8159 156.847 72.5949 157.129 72.4365C157.761 72.0792 158.535 71.8263 159.239 72.1341C159.289 72.1561 159.333 72.0836 159.282 72.0616Z" fill="#704844"/>
<path d="M166.692 83.0701C166.674 83.0184 166.593 83.0415 166.609 83.0932C166.772 83.6078 166.94 84.1356 166.933 84.6809C166.925 85.2318 166.717 85.6826 166.336 86.0784C166.068 86.3555 165.764 86.6161 165.616 86.979C165.456 87.3671 165.505 87.8454 165.187 88.1599C165.148 88.1983 165.208 88.2577 165.247 88.2192C165.549 87.9213 165.534 87.4957 165.657 87.1175C165.814 86.6293 166.246 86.3324 166.565 85.9531C167.275 85.1108 166.991 84.0168 166.692 83.0701Z" fill="#704844"/>
<path d="M164.883 86.0851C164.826 86.3226 164.769 86.5612 164.712 86.7998C164.7 86.8525 164.782 86.8745 164.795 86.8206C164.851 86.5831 164.908 86.3445 164.964 86.1081C164.977 86.0554 164.895 86.0323 164.883 86.0851Z" fill="#704844"/>
<path d="M165.51 76.2991C165.13 74.6245 163.715 73.3699 161.988 73.1643C161.934 73.1566 161.935 73.2413 161.988 73.2479C163.677 73.4491 165.056 74.6861 165.429 76.3211C165.441 76.375 165.522 76.3519 165.51 76.2991Z" fill="#704844"/>
<path d="M146.5 76.3683C145.628 76.2078 144.733 76.3815 143.99 76.8565C143.943 76.8862 143.985 76.9588 144.032 76.9291C144.755 76.4662 145.628 76.2936 146.476 76.4497C146.53 76.4596 146.553 76.3782 146.5 76.3683Z" fill="#704844"/>
<path d="M160.437 78.297C160.4 78.2574 160.34 78.3179 160.378 78.3564C160.867 78.8588 161.063 79.5735 160.897 80.2498C160.883 80.3025 160.966 80.3245 160.979 80.2717C161.152 79.5669 160.948 78.8215 160.437 78.297Z" fill="#704844"/>
<path d="M162.189 78.9347C162.163 78.8874 162.09 78.9292 162.115 78.9776C162.386 79.4922 162.304 80.1277 161.909 80.5587C161.873 80.5994 161.933 80.6588 161.97 80.6181C162.391 80.1585 162.479 79.4856 162.189 78.9347Z" fill="#704844"/>
<path d="M169.007 77.6769C168.956 77.4042 168.913 77.1063 168.798 76.8512C168.598 76.4037 168.124 76.209 167.674 76.0936C167.347 76.0078 167.068 75.9133 166.989 75.5493C166.939 75.3206 166.945 75.093 166.829 74.8819C166.623 74.508 166.191 74.2892 165.765 74.3332C165.736 74.3365 165.721 74.364 165.726 74.3882V74.3893C165.727 74.3926 165.729 74.3959 165.73 74.3992C165.73 74.4014 165.733 74.4047 165.735 74.408H165.736C165.737 74.4113 165.74 74.4146 165.745 74.4168C166.531 74.9556 166.102 76.032 166.351 76.8292C166.375 76.9094 166.408 76.9864 166.449 77.0612C166.477 77.1118 166.507 77.1579 166.541 77.2019C166.656 77.3515 166.806 77.4603 166.977 77.5318C167.086 77.578 167.203 77.6076 167.326 77.6219C167.4 77.6307 167.473 77.6373 167.546 77.6439C167.676 77.6538 167.807 77.6648 167.935 77.6912C168.292 77.7264 168.652 77.733 169.011 77.711C169.011 77.7011 169.009 77.689 169.007 77.6769Z" fill="#704844"/>
<path d="M166.927 85.0965C166.935 85.0459 166.816 85.555 166.544 85.9014C166.37 86.1213 165.977 86.4171 165.755 86.7777C165.56 87.0977 165.53 87.4803 165.47 87.7145C165.396 87.9949 165.082 88.2951 164.927 88.427C164.67 88.6458 164.499 88.6821 164.329 88.8679C164.111 89.1043 164.23 89.5793 164.093 89.8652C164.076 89.8388 164.027 89.8366 164.016 89.8751C163.91 90.2742 163.792 90.6734 163.698 91.0747C163.636 91.3375 163.832 91.5167 164.048 91.6476C164.24 91.7619 164.478 91.8037 164.665 91.6564C164.865 91.5002 164.879 91.2495 164.896 91.0208C164.918 90.747 165.13 90.7184 165.33 90.6184C165.462 90.5513 165.578 90.4568 165.674 90.3435C165.866 90.1148 165.97 89.8311 166.009 89.5397C166.114 88.7668 165.731 87.9751 166.168 87.2604C166.372 86.9272 166.587 86.6183 166.714 86.2444C166.821 85.9322 166.876 85.6089 166.882 85.2823C166.901 85.2219 166.917 85.1603 166.927 85.0965Z" fill="#704844"/>
<path d="M164.361 88.3588C163.998 87.7233 163.312 87.4231 162.588 87.5353C161.788 87.6595 161.187 88.2126 160.728 88.8371C160.735 89.0043 160.704 89.167 160.639 89.3253C160.8 90.6283 160.791 91.9466 160.609 93.2496C160.605 93.2771 160.63 93.298 160.658 93.2947C162.236 93.0693 163.686 92.0456 164.342 90.5997C164.663 89.8927 164.76 89.0559 164.361 88.3588Z" fill="#D97E57"/>
<path d="M162.681 94.4569C162.757 94.3492 162.743 94.1216 162.759 93.9907C162.785 93.8126 162.807 93.6334 162.826 93.453C162.919 93.453 163.009 93.4519 163.101 93.4519C163.269 93.4519 163.442 93.5025 163.474 93.6971C163.487 93.7796 163.481 93.861 163.479 93.9423C163.467 94.3481 163.45 94.7549 163.415 95.1573C163.38 95.5367 163.333 95.9182 163.238 96.2821C163.194 96.4559 163.128 96.5065 162.933 96.535C162.83 96.5493 162.716 96.546 162.61 96.5504C162.407 96.5592 162.205 96.5658 162.002 96.5702C161.798 96.5746 161.595 96.5768 161.393 96.5768C161.299 96.5768 161.184 96.5955 161.091 96.5746C160.85 96.5218 160.84 96.3866 160.855 96.214C160.887 95.839 160.963 95.4663 161.016 95.0957C161.072 94.7219 161.113 94.3404 161.224 93.983C161.298 93.7444 161.418 93.5366 161.67 93.4497C161.756 93.4201 161.848 93.4058 161.941 93.3981C161.932 93.6103 161.922 93.8082 161.912 93.9698C161.902 94.1216 161.803 94.4459 162.018 94.5273C162.17 94.5867 162.585 94.5922 162.681 94.4569ZM164.281 92.8065C164.06 92.6416 163.704 92.6669 163.457 92.6559C163.272 92.6471 163.088 92.646 162.904 92.6493C162.912 92.547 162.922 92.447 162.93 92.3447C162.942 92.1611 162.954 91.9775 162.963 91.7927C162.967 91.7213 162.989 91.6201 162.925 91.5585C162.866 91.4992 162.774 91.5124 162.702 91.5124C162.482 91.5102 162.332 91.5223 162.118 91.5552C161.997 91.5739 162.024 91.6729 162.013 91.8455C161.996 92.0654 161.983 92.3909 161.969 92.7339C161.596 92.7372 161.19 92.7977 160.956 93.0231C160.813 93.1595 160.755 93.3519 160.702 93.5388C160.619 93.8302 160.552 94.126 160.491 94.4239C160.377 94.9968 160.3 95.5795 160.265 96.1678C160.25 96.4119 160.221 96.6681 160.244 96.9155C160.26 97.0749 160.333 97.2047 160.492 97.2717C160.707 97.3619 160.98 97.3355 161.203 97.3443C161.541 97.3586 161.879 97.363 162.217 97.3608C162.526 97.3575 162.834 97.3476 163.142 97.3311C163.365 97.3201 163.617 97.3344 163.789 97.1882C163.908 97.0859 163.973 96.9375 164.023 96.7912C164.121 96.5142 164.19 96.225 164.248 95.9347C164.36 95.3618 164.416 94.7758 164.454 94.1875C164.472 93.8984 164.507 93.6026 164.496 93.3101C164.488 93.1298 164.445 92.9297 164.281 92.8065Z" fill="#EEDED4"/>
<path d="M174.307 99.4488C173.466 99.0299 172.451 98.9056 171.724 98.2822C170.969 97.6346 170.73 96.6076 170.653 95.6664C170.603 95.0441 170.611 94.4195 170.545 93.7983C170.495 93.3288 170.417 92.8384 170.083 92.4777C170.046 92.4371 169.985 92.4975 170.023 92.5371C170.385 92.9296 170.436 93.4959 170.478 94.0006C170.525 94.5548 170.524 95.1122 170.57 95.6664C170.635 96.491 170.816 97.3531 171.351 98.0172C171.93 98.7363 172.835 98.9606 173.669 99.2685C174.501 99.5753 175.24 100.062 175.833 100.717C176.5 101.45 176.954 102.358 177.129 103.328C177.139 103.381 177.22 103.359 177.211 103.305C176.915 101.668 175.816 100.2 174.307 99.4488Z" fill="#704844"/>
<path d="M179.134 109.51C178.551 109.108 177.894 108.898 177.238 108.645C176.873 108.504 176.507 108.34 176.203 108.091C175.87 107.817 175.663 107.453 175.503 107.063C175.215 106.358 175.009 105.52 174.269 105.14C174.22 105.115 174.178 105.187 174.226 105.212C174.957 105.588 175.147 106.425 175.434 107.117C175.698 107.757 176.104 108.214 176.735 108.52C177.361 108.825 178.05 108.983 178.663 109.318C179.291 109.664 179.842 110.146 180.269 110.716C180.745 111.349 181.067 112.084 181.201 112.862C181.21 112.915 181.291 112.893 181.282 112.839C181.053 111.502 180.262 110.287 179.134 109.51Z" fill="#704844"/>
<path d="M182.167 109.515C182.136 109.471 182.062 109.513 182.093 109.558C182.65 110.356 182.888 111.333 182.755 112.294C182.747 112.346 182.829 112.369 182.837 112.317C182.974 111.333 182.738 110.334 182.167 109.515Z" fill="#704844"/>
<path d="M185.676 109.996C185.354 108.903 184.542 107.993 183.482 107.546C183.432 107.525 183.387 107.596 183.439 107.618C184.48 108.058 185.278 108.944 185.593 110.018C185.609 110.069 185.69 110.047 185.676 109.996Z" fill="#704844"/>
<path d="M170.898 109.379C169.785 109.714 168.894 108.807 168.323 107.99C168.292 107.945 168.218 107.988 168.249 108.032C168.843 108.881 169.77 109.806 170.922 109.459C170.973 109.444 170.952 109.362 170.898 109.379Z" fill="#704844"/>
<path d="M176.139 180.065H137.351C137.351 180.055 137.352 180.046 137.352 180.037H131.685C131.694 179.973 131.706 179.907 131.722 179.84C131.996 178.62 132.349 177.41 132.75 176.216C132.984 175.519 133.235 174.828 133.499 174.14C133.625 173.813 133.754 173.485 133.885 173.158C133.892 173.14 133.899 173.122 133.907 173.105C134.037 172.78 134.17 172.457 134.305 172.134C134.378 171.961 134.449 171.791 134.523 171.619C134.634 171.355 134.749 171.091 134.864 170.827C135.015 170.48 135.167 170.133 135.319 169.786C135.408 169.586 135.497 169.388 135.585 169.189C135.901 168.485 136.217 167.782 136.533 167.079C137.262 165.456 137.984 163.829 138.643 162.18C139.423 160.231 140.111 158.248 140.607 156.229C140.489 156.065 140.383 155.896 140.287 155.718C140.261 155.671 140.337 155.63 140.363 155.676C140.446 155.828 140.537 155.975 140.634 156.116C140.727 155.733 140.815 155.348 140.894 154.961C140.905 154.908 140.989 154.908 140.978 154.961C140.894 155.378 140.801 155.792 140.7 156.206C140.731 156.249 140.762 156.29 140.795 156.331C140.782 156.271 140.771 156.208 140.76 156.147C140.75 156.095 140.833 156.073 140.845 156.124C140.864 156.23 140.884 156.334 140.903 156.441C141.016 156.57 141.126 156.698 141.239 156.828C141.255 156.846 141.251 156.864 141.241 156.879C141.406 157.07 141.581 157.254 141.768 157.427C141.806 157.464 141.741 157.522 141.702 157.487C141.425 157.228 141.173 156.948 140.943 156.649C141.219 158.128 141.482 159.611 141.727 161.097C142.742 160.043 143.712 158.878 144.399 157.596C145.046 156.388 145.646 155.169 146.044 153.879C146.172 153.903 146.299 153.928 146.427 153.952C148.029 154.251 149.64 154.482 151.273 154.637C154.316 154.925 157.394 155.034 160.404 155.504C163.32 155.958 165.129 157.375 167.82 158.473C173.282 160.703 176.163 178.666 176.139 180.065Z" fill="#79B3D1"/>
<path d="M139.534 128.807C139.937 127.538 140.212 126.222 140.175 124.887C140.174 124.833 140.088 124.832 140.091 124.887C140.222 129.696 136.331 133.785 137.045 138.649C137.211 139.774 137.638 140.854 138.382 141.731C138.416 141.772 138.476 141.713 138.442 141.672C137.011 139.988 136.83 137.637 137.24 135.555C137.701 133.214 138.816 131.073 139.534 128.807Z" fill="#C7883C"/>
<path d="M167.267 125.371C167.265 125.318 167.179 125.318 167.183 125.371C167.249 126.274 167.002 127.145 166.76 128.005C166.518 128.867 166.346 129.714 166.324 130.61C166.303 131.55 166.382 132.49 166.32 133.429C166.259 134.346 166.026 135.235 165.838 136.133C165.641 137.073 165.503 138.033 165.685 138.986C165.695 139.039 165.777 139.017 165.767 138.964C165.426 137.171 166.221 135.436 166.386 133.669C166.473 132.745 166.402 131.818 166.406 130.891C166.41 129.958 166.552 129.073 166.801 128.174C167.056 127.257 167.338 126.334 167.267 125.371Z" fill="#C7883C"/>
<path d="M163.792 89.3528C163.383 88.8745 162.692 89.0867 162.318 89.4859C162.07 89.7475 161.914 90.0719 161.747 90.3864C161.572 90.7184 161.225 91.4034 160.741 91.1286C160.693 91.1011 160.65 91.1736 160.699 91.2C161.311 91.5486 161.717 90.6261 161.925 90.2291C162.104 89.8894 162.307 89.5331 162.644 89.3187C162.982 89.1032 163.456 89.09 163.731 89.4122C163.767 89.454 163.827 89.3946 163.792 89.3528Z" fill="#B35536"/>
<path d="M156.181 99.1002C156.162 99.0815 156.131 99.0859 156.114 99.109C155.213 100.238 154.418 100.98 153.249 101.789C153.256 101.979 153.26 102.168 153.267 102.358C153.279 102.8 153.292 103.242 153.305 103.683C153.354 103.619 153.397 103.55 153.432 103.477C153.512 103.31 153.537 103.119 153.694 103C153.928 102.826 154.257 102.848 154.524 102.752C154.734 102.675 154.882 102.53 154.961 102.322C155.063 102.059 155.054 101.771 155.127 101.5C155.225 101.143 155.504 100.895 155.769 100.649C156.173 100.28 156.716 99.6048 156.181 99.1002Z" fill="#B35536"/>
<path d="M155.223 108.955C154.263 108.661 153.267 108.51 152.261 108.508C152.205 108.508 152.205 108.591 152.261 108.591C153.259 108.595 154.247 108.744 155.201 109.037C155.253 109.053 155.275 108.972 155.223 108.955Z" fill="#B35536"/>
<path d="M161.648 108.797C160.487 108.465 159.188 108.428 158.159 109.137C158.115 109.168 158.156 109.24 158.202 109.209C159.214 108.511 160.485 108.552 161.625 108.877C161.679 108.893 161.7 108.811 161.648 108.797Z" fill="#B35536"/>
<path d="M132.959 145.405C131.719 143.866 122.97 129.186 119.031 121.715C118.566 121.975 116.529 123.115 115.478 123.632C117.782 130.865 122.763 145.637 123.237 147.078C123.782 148.74 124.319 150.42 125.127 151.979C125.855 153.388 126.82 154.681 128.118 155.626C129.331 156.511 130.903 157.122 132.434 156.92C134.057 156.706 135.249 155.261 136.08 153.982C136.96 152.627 137.553 151.113 138.08 149.595C138.209 149.22 138.335 148.843 138.461 148.467C138.507 148.495 134.445 147.25 132.959 145.405Z" fill="#D97E57"/>
<path d="M120.191 125.051C120.174 124.902 120.11 124.746 120.07 124.601C120.024 124.427 119.976 124.253 119.93 124.081C119.836 123.727 119.741 123.374 119.645 123.021C119.807 121.207 119.915 119.372 119.577 117.573C119.385 116.542 119.002 115.577 118.615 114.604C118.254 113.694 117.789 112.051 117.279 111.341C117.105 111.099 116.822 110.708 116.469 110.774C116.16 110.832 116.1 111.187 116.104 111.447C116.117 112.469 116.674 114.566 116.844 115.584C116.968 116.337 117.079 117.094 117.207 117.848C116.789 117.224 116.344 116.619 115.824 116.061C115.295 115.493 114.754 114.938 114.209 114.384C113.223 113.021 113.763 113.646 112.778 112.284C111.68 110.764 110.591 109.229 109.318 107.843C109.002 107.497 108.675 107.162 108.335 106.841C108.053 106.574 107.761 106.277 107.391 106.131C106.813 105.902 106.311 105.998 106.526 106.689C106.646 107.073 106.957 107.39 107.203 107.7C107.526 108.108 107.847 108.519 108.165 108.931C108.775 109.718 109.374 110.512 109.967 111.313C111.102 112.851 110.679 112.425 111.749 114.009C111.535 114.246 111.555 114.209 111.345 114.45C110.167 112.972 107.201 108.379 105.808 106.777C105.511 106.435 104.881 105.387 104.36 105.734C104.025 105.957 104.066 106.355 104.142 106.694C104.251 107.184 108.119 112.74 108.796 113.669C109.169 114.18 109.522 114.705 109.865 115.236C109.977 115.407 110.086 115.58 110.195 115.753C109.968 116.035 110.061 116.012 109.84 116.299C108.815 114.974 105.412 111.501 104.345 110.788C104.096 110.622 103.588 110.474 103.43 110.81C103.269 111.151 103.177 111.472 103.363 111.791C103.845 112.616 104.395 113.076 104.859 113.724C104.866 113.733 104.871 113.742 104.878 113.75C104.829 113.726 104.78 113.704 104.73 113.681C104.429 113.549 104.133 113.534 103.99 113.877C103.855 114.198 103.949 114.592 104.087 114.896C104.263 115.285 105.854 116.926 108.59 119.155C111.005 121.122 115.679 125.514 116.764 126.363C116.683 126.384 116.602 126.406 116.52 126.426C116.467 126.439 116.489 126.52 116.543 126.507C116.645 126.482 116.748 126.456 116.849 126.428C117.027 126.569 117.204 126.708 117.382 126.85C117.423 126.883 117.484 126.825 117.441 126.791C117.278 126.66 117.114 126.531 116.95 126.403C117.428 126.275 117.903 126.133 118.371 125.973C118.919 125.785 119.485 125.591 120.006 125.335C120.139 125.269 120.207 125.202 120.191 125.051Z" fill="#D97E57"/>
<path d="M109.028 117.21C108.1 115.908 106.862 114.843 105.426 114.117C105.377 114.092 105.335 114.165 105.383 114.189C106.805 114.909 108.034 115.962 108.954 117.252C108.984 117.296 109.059 117.254 109.028 117.21Z" fill="#B35536"/>
<path d="M116.223 120.881C115.804 120.482 115.297 120.234 114.737 120.089C114.044 119.911 113.338 119.828 112.684 119.519C112.021 119.205 111.446 118.739 110.997 118.166C110.963 118.123 110.904 118.184 110.937 118.226C111.677 119.17 112.707 119.74 113.88 119.988C114.52 120.124 115.174 120.233 115.73 120.596C116.191 120.896 116.562 121.323 116.811 121.809C117.105 122.382 117.221 123.034 117.12 123.668C117.112 123.721 117.193 123.745 117.202 123.691C117.366 122.664 116.979 121.6 116.223 120.881Z" fill="#B35536"/>
<path d="M179.917 140.483C179.573 140.47 178.477 140.391 178.13 140.431C177.998 140.446 176.184 140.765 175.713 140.835C175.457 140.875 175.2 140.908 174.941 140.929C174.766 141.019 174.594 141.112 174.414 141.196C173.888 141.441 173.394 141.414 172.832 141.36C172.479 141.326 172.163 141.367 171.813 141.383C171.695 141.388 171.507 141.325 171.392 141.367C171.293 141.406 171.267 141.492 171.225 141.581C171.083 141.885 170.942 142.199 170.885 142.53C170.825 142.887 170.829 143.249 170.804 143.611C170.766 144.128 170.664 144.647 170.58 145.159C170.369 146.423 170.112 147.68 169.841 148.932C170.31 154.242 170.769 159.059 170.828 159.887C170.951 161.624 171.162 172.807 171.573 176.32C171.723 177.591 171.873 178.863 172.034 180.133H178.142C178.202 170.86 180.103 155.24 180.111 153.67C180.116 153.101 180.305 146.152 179.917 140.483Z" fill="#D97E57"/>
<path d="M133.864 147.953C132.966 145.92 131.973 143.928 130.888 141.985C130.861 141.938 130.787 141.981 130.814 142.028C131.899 143.97 132.893 145.963 133.791 147.994C133.813 148.044 133.886 148.002 133.864 147.953Z" fill="#B35536"/>
<path d="M175.858 159.223C175.143 157.225 174.09 155.36 172.743 153.709C172.71 153.667 172.649 153.726 172.684 153.768C174.02 155.406 175.067 157.261 175.775 159.244C175.793 159.295 175.875 159.273 175.858 159.223Z" fill="#B35536"/>
<path d="M158.785 159.98C157.599 160.129 156.406 160.125 155.215 160.159C154.045 160.192 152.9 160.3 151.755 160.547C151.175 160.67 150.596 160.802 150.004 160.86C149.39 160.922 148.771 160.914 148.156 160.886C146.946 160.832 145.739 160.744 144.531 160.67C143.154 160.586 141.777 160.503 140.4 160.419C140.346 160.416 140.346 160.499 140.4 160.503C142.845 160.651 145.29 160.811 147.735 160.949C148.917 161.015 150.06 160.988 151.222 160.746C151.792 160.627 152.359 160.493 152.936 160.41C153.541 160.324 154.153 160.282 154.763 160.258C156.104 160.205 157.45 160.232 158.785 160.064C158.838 160.057 158.838 159.974 158.785 159.98Z" fill="#C7883C"/>
<path d="M166.554 158.496C165.58 159.004 164.494 159.247 163.393 159.209C163.339 159.206 163.339 159.291 163.393 159.293C164.509 159.332 165.61 159.082 166.596 158.569C166.645 158.543 166.602 158.471 166.554 158.496Z" fill="#C7883C"/>
<path d="M141.827 164.439C142.408 163.676 142.892 162.829 143.161 161.908C143.248 161.609 143.321 161.189 142.963 161.033C142.619 160.883 142.214 161.1 141.939 161.29C141.546 161.559 141.227 161.918 140.912 162.271C140.532 162.7 140.149 163.127 139.765 163.554C138.989 164.417 138.206 165.276 137.417 166.128C137.124 166.446 136.829 166.762 136.534 167.079C136.217 167.782 135.901 168.485 135.586 169.189C135.498 169.388 135.408 169.586 135.32 169.786C136.066 169.383 136.789 168.938 137.484 168.455C139.096 167.334 140.641 166.003 141.827 164.439ZM144.599 177.908C144.107 177.618 143.538 177.426 143.013 177.199C142.418 176.943 141.824 176.687 141.229 176.43C140.067 175.927 138.903 175.426 137.739 174.923C136.472 174.375 135.111 173.859 133.886 173.158C133.754 173.485 133.625 173.813 133.499 174.14C134.174 174.782 134.904 175.37 135.626 175.935C137.396 177.325 139.332 178.571 141.519 179.213C142.05 179.37 142.594 179.489 143.144 179.562C143.602 179.624 144.094 179.694 144.55 179.579C144.875 179.496 145.177 179.293 145.231 178.944C145.301 178.497 144.96 178.123 144.599 177.908ZM144.132 169.242C145.32 168.834 146.511 168.344 147.556 167.642C148.396 167.08 149.209 166.297 149.409 165.275C149.491 164.86 149.472 164.351 148.975 164.226C148.426 164.089 147.891 164.553 147.461 164.817C146.252 165.561 145.031 166.283 143.799 166.989C142.589 167.679 141.374 168.373 140.121 168.988C138.442 169.813 136.671 170.377 134.864 170.827C134.749 171.091 134.635 171.355 134.523 171.619C136.442 171.46 138.339 170.913 140.182 170.41C141.505 170.048 142.834 169.687 144.132 169.242ZM147.726 173.023C146.373 172.957 145.021 173.108 143.67 173.127C142.313 173.146 140.952 173.025 139.603 172.9C137.826 172.736 136.052 172.499 134.306 172.134C134.17 172.457 134.037 172.78 133.908 173.105C134.231 173.249 134.562 173.374 134.899 173.485C136.186 173.9 137.533 174.168 138.862 174.408C141.53 174.889 144.256 175.148 146.97 175.124C147.558 175.12 148.153 175.087 148.722 174.936C149.182 174.814 149.791 174.603 150.023 174.154C150.563 173.105 148.245 173.049 147.726 173.023Z" fill="#FFD991"/>
<path d="M166.419 154.219C167.309 153.793 168.221 153.34 168.996 152.728C168.919 153.092 168.844 153.457 168.773 153.821C168.227 154.464 167.632 155.064 166.989 155.615C165.873 156.571 164.592 157.449 163.224 158.014C162.746 158.211 161.758 158.529 161.415 157.94C161.116 157.427 161.645 156.797 162.011 156.481C162.57 155.999 163.284 155.712 163.945 155.396C164.77 155.004 165.595 154.613 166.419 154.219Z" fill="#FFD991"/>
<path d="M169.105 151.923C169.124 151.929 169.145 151.934 169.165 151.938C169.115 152.165 169.067 152.393 169.019 152.619C167.892 153.004 166.695 153.185 165.5 153.153C164.118 153.115 162.743 152.801 161.496 152.206C160.978 151.957 160.372 151.608 160.34 150.972C160.31 150.41 160.804 150.097 161.334 150.197C161.654 150.258 161.93 150.452 162.191 150.636C162.504 150.855 162.829 151.061 163.167 151.24C163.836 151.592 164.552 151.853 165.291 152.02C166.549 152.306 167.865 152.312 169.124 152.032C169.112 152.024 169.1 152.015 169.089 152.007C167.145 151.491 165.416 150.356 164.017 148.94C162.723 147.629 161.545 146.008 161.22 144.17C161.142 143.729 161.119 143.28 161.163 142.835C161.195 142.509 161.219 141.972 161.57 141.808C161.862 141.673 162.204 141.856 162.434 142.031C162.794 142.307 163.1 142.686 163.381 143.039C165.551 145.763 166.279 149.744 169.105 151.923Z" fill="#FFD991"/>
<path d="M169.359 151.046C169.322 151.206 169.288 151.368 169.253 151.529C169.238 151.594 169.225 151.659 169.21 151.725C168.275 150.598 167.509 149.335 166.951 147.983C166.321 146.457 165.892 144.765 165.882 143.11C165.88 142.673 165.917 142.232 166.048 141.811C166.151 141.471 166.321 141.062 166.616 140.838C166.891 140.626 167.138 140.746 167.285 141.028C167.476 141.386 167.604 141.78 167.697 142.173C168.094 143.85 167.847 145.602 168.12 147.296C168.329 148.601 168.751 149.869 169.359 151.046Z" fill="#FFD991"/>
<path d="M144.104 111.097L140.893 112.759C140.856 112.783 140.817 112.807 140.779 112.832C140.631 113.213 140.814 113.565 141.181 113.726C141.612 113.917 142.11 113.838 142.552 113.722C143.164 113.561 143.747 113.299 144.346 113.101C145.426 112.743 146.534 112.476 147.657 112.299C147.63 112.334 147.605 112.371 147.58 112.408C145.482 113.292 143.4 114.416 142.273 116.445C142.009 116.919 141.749 117.485 141.705 118.03C141.677 118.362 141.759 118.888 142.174 118.944C142.412 118.977 142.609 118.827 142.754 118.658C142.979 118.4 143.163 118.104 143.361 117.827C143.824 117.179 144.286 116.531 144.749 115.885C145.246 115.189 145.734 114.483 146.246 113.796C146.589 113.336 146.975 112.883 147.47 112.591C147.41 112.705 147.355 112.825 147.305 112.945C145.308 115.147 143.465 117.764 143.613 120.835C143.643 121.448 143.747 122.207 144.341 122.546C144.572 122.679 144.863 122.735 145.12 122.648C145.422 122.548 145.585 122.269 145.701 121.995C146.009 121.267 146.027 120.462 146.041 119.685C146.057 118.804 146.113 117.93 146.247 117.059C146.391 116.116 146.613 115.183 146.906 114.275C147.048 113.838 147.201 113.403 147.383 112.981C147.5 112.853 147.617 112.727 147.736 112.6C147.792 112.333 147.85 112.066 147.903 111.798C146.697 111.409 145.374 111.048 144.104 111.097Z" fill="#FFD991"/>
<path d="M173.554 127.677C172.555 127.518 171.512 127.459 170.504 127.576C170.109 127.622 169.752 127.785 169.64 128.19C169.528 128.584 169.698 128.978 169.951 129.283C170.536 129.99 171.447 130.367 172.319 130.594C173.253 130.838 174.258 131.02 175.226 131.011C176.152 131.001 177.063 130.777 177.904 130.4C178.869 129.969 179.739 129.342 180.498 128.615C180.767 128.356 181.026 128.081 181.267 127.795C181.286 127.498 181.3 127.202 181.307 126.906C179.915 127.678 178.323 128.095 176.719 128.094C175.644 128.093 174.609 127.845 173.554 127.677ZM176.741 123.565C176.091 122.904 175.441 122.243 174.791 121.582C174.584 121.372 174.372 121.145 174.051 121.158C173.806 121.169 173.58 121.308 173.423 121.489C173.004 121.972 173.195 122.629 173.505 123.115C174.309 124.369 175.698 125.245 177.059 125.806C177.918 126.159 178.817 126.405 179.723 126.602C180.16 126.696 180.602 126.79 181.045 126.857C181.13 126.869 181.218 126.879 181.309 126.88C181.311 126.799 181.313 126.718 181.314 126.638C180.31 126.467 179.365 125.94 178.578 125.305C177.92 124.774 177.333 124.166 176.741 123.565ZM177.307 121.897C177.681 122.486 178.101 123.047 178.559 123.576C179.365 124.504 180.295 125.325 181.314 126.016C181.313 125.959 181.312 125.899 181.311 125.841C181.307 125.759 181.305 125.674 181.302 125.589C180.675 124.616 180.143 123.586 179.628 122.551C179.284 121.861 178.947 121.168 178.587 120.486C178.402 120.135 178.212 119.788 178.011 119.445C177.852 119.171 177.7 118.874 177.491 118.632C177.366 118.487 177.189 118.332 176.985 118.322C176.771 118.312 176.629 118.472 176.554 118.654C176.347 119.166 176.4 119.777 176.546 120.296C176.708 120.867 176.99 121.398 177.307 121.897Z" fill="#FFD991"/>
<path d="M152.361 125.364C151.532 127.14 150.704 128.915 149.876 130.69C149.852 130.739 149.926 130.782 149.949 130.733C150.777 128.957 151.606 127.181 152.435 125.406C152.457 125.357 152.383 125.314 152.361 125.364Z" fill="#B35536"/>
<path d="M144.334 61.7335C144.059 59.8885 143.481 58.0798 142.642 56.4096C141 53.1417 138.308 50.4314 134.901 48.969C133.25 48.2598 131.463 47.8497 129.66 47.8123C127.556 47.7694 125.48 48.2631 123.52 48.9866C121.739 49.6452 120.003 50.4655 118.389 51.4583C116.897 52.3732 115.499 53.4595 114.334 54.7625C113.162 56.0731 112.255 57.6004 111.739 59.2761C111.212 60.9836 111.086 62.7935 111.264 64.5648C111.448 66.3945 111.948 68.1889 112.673 69.8789C113.023 70.6914 113.362 71.5315 113.883 72.2495C116.765 76.2254 120.276 78.5322 123.579 78.8621C125.678 79.0721 127.796 78.8093 129.833 78.2881C130.853 78.0276 131.846 77.6812 132.843 77.3469C132.976 77.3019 133.116 77.2568 133.255 77.2788C133.37 77.2953 133.471 77.3579 133.569 77.4162C134.52 77.9935 135.469 78.5696 136.42 79.1425C136.885 79.424 137.375 79.6714 137.85 79.9353C137.991 80.0133 138.126 80.0045 138.134 79.8231C138.149 79.5262 138.07 79.2436 138.023 78.9523C137.955 78.518 137.872 78.0858 137.781 77.6548C137.702 77.27 137.618 76.8851 137.536 76.5003C137.46 76.143 137.34 75.7614 137.316 75.3975C137.305 75.3326 137.293 75.2644 137.313 75.2017C137.337 75.1325 137.396 75.0819 137.453 75.0346C137.941 74.6267 138.427 74.2243 138.884 73.7822C139.103 73.5711 140.336 72.6046 140.388 72.3034C140.391 72.2825 140.405 72.2627 140.419 72.2451C141.671 70.8091 142.945 69.3027 143.719 67.5523C144.53 65.7204 144.626 63.6918 144.334 61.7335Z" fill="#F2EDEB"/>
<path d="M115.894 85.2835C115.87 83.9025 115.564 82.5896 115.022 81.4417C114.456 80.2443 113.624 79.2624 112.67 78.4301C111.668 77.5559 110.555 76.7819 109.372 76.1694C108.726 75.8341 105.608 74.9478 101.992 75.1447C96.9073 75.4228 93.602 78.948 92.1694 81.0481C91.3384 82.2653 90.6923 83.7551 90.3057 85.1273C89.6841 87.3396 89.8579 89.4155 90.4728 91.5926C90.494 91.6685 90.5162 91.7466 90.5084 91.8246C90.5006 91.9082 90.4594 91.9841 90.4204 92.0588C90.397 92.2886 90.113 92.6339 90.0016 92.8417C89.8412 93.1419 89.6796 93.4431 89.5192 93.7444C89.3889 93.9874 88.5868 95.1155 88.7706 95.3563C88.833 95.4388 88.9577 95.4333 89.0625 95.419C90.1798 95.2717 91.305 95.0892 92.4279 94.9924C92.5393 94.9781 92.6551 94.9649 92.761 94.999C92.8601 95.0309 92.9414 95.1035 93.0194 95.1716C93.9942 96.0238 95.1438 96.6637 96.3748 97.0782C99.0763 97.9864 102.17 97.8853 105.202 97.1849C107.833 96.5779 110.631 95.4795 112.729 93.2474C114.796 91.0484 115.943 88.0411 115.894 85.2835Z" fill="#F2EDEB"/>
</svg>
