<svg width="27" height="37" viewBox="0 0 27 37" fill="none" xmlns="http://www.w3.org/2000/svg">
<mask id="mask0_2364_67506" style="mask-type:luminance" maskUnits="userSpaceOnUse" x="0" y="0" width="27" height="37">
<path d="M0 0.323486H27V36.8149H0V0.323486Z" fill="white"/>
</mask>
<g mask="url(#mask0_2364_67506)">
<path d="M12.0517 36.8149C12.0902 36.8149 12.0902 36.8149 12.1287 36.8149C14.2464 36.8149 16.2869 36.1874 18.058 35.0667C18.0965 35.0219 18.1736 35.0219 18.2121 34.977C19.9062 33.901 21.3307 32.3769 22.3702 30.5388C22.4858 30.3595 22.5628 30.1802 22.6398 30.0009C22.8323 29.8215 23.0247 29.6422 23.2172 29.4181C23.2558 29.4181 23.2558 29.3733 23.2943 29.3733C25.5658 26.9973 26.9904 23.6799 26.9904 20.0487C26.9904 18.7037 26.798 17.4037 26.4129 16.1037C26.4129 16.0589 26.3744 16.0139 26.3744 15.9691C26.1434 15.1173 25.8355 14.2656 25.3734 13.4587C25.3734 13.1898 25.4119 12.9206 25.4119 12.6965C25.4119 11.3517 25.2194 10.0517 24.8343 8.75153C24.8343 8.7067 24.7958 8.66187 24.7958 8.66187C23.6408 3.86501 18.982 0.323486 13.3994 0.323486C7.89356 0.323486 3.23494 3.82018 2.0028 8.52739C2.0028 8.52739 2.0028 8.52739 2.0028 8.57222C1.57936 9.91703 1.38689 11.3069 1.38689 12.6965C1.38689 14.1311 1.61785 15.476 2.0028 16.7313C1.38689 17.6727 0.924797 18.7037 0.655335 19.7349C0.231739 21.0797 0.039266 22.4695 0.039266 23.8592C0.000771422 31.0319 5.42944 36.8149 12.0517 36.8149ZM25.1039 23.8592C24.7188 24.9799 24.1799 26.0559 23.4868 26.9973V25.8318C24.1029 25.204 24.6418 24.5764 25.1039 23.8592ZM21.9082 18.4796C22.5243 17.8968 23.0632 17.2244 23.5253 16.552C23.1402 17.6727 22.6013 18.7485 21.9082 19.6901V18.4796ZM21.4461 27.4007C21.7158 27.2662 21.9467 27.0869 22.2162 26.9076V28.5216C21.9852 28.7457 21.7158 28.9698 21.4461 29.194V27.4007ZM7.97055 34.4391C7.31614 34.1251 6.66158 33.7665 6.084 33.3631V31.5252C6.70007 31.8389 7.31614 32.1079 7.97055 32.332V34.4391ZM4.89052 23.8592C5.62207 25.0247 6.58459 26.0111 7.73958 26.8179V28.3871C6.4691 27.1766 5.46809 25.6524 4.89052 23.8592ZM11.4743 35.2908C10.7043 35.246 9.97273 35.1115 9.27967 34.9322V32.7355C9.97273 32.9148 10.7043 33.0045 11.4743 33.0493V35.2908ZM9.04871 29.5078V27.6697C9.66462 27.9835 10.2807 28.2526 10.9353 28.4767V30.5836C10.2422 30.3146 9.62613 29.956 9.04871 29.5078ZM10.6273 23.7247V21.528C11.3202 21.7073 12.0517 21.7969 12.8218 21.8418V24.1281C12.0902 24.0833 11.3587 23.9488 10.6273 23.7247ZM12.2057 28.8354C12.8988 28.9698 13.6303 29.1043 14.4004 29.1043V31.3907C13.6303 31.3458 12.8988 31.2112 12.2057 31.0319V28.8354ZM17.211 33.901C15.8635 34.7081 14.3619 35.1563 12.7833 35.2908V32.7355C13.5149 32.87 14.2464 32.9596 15.0165 32.9596C15.0549 32.9596 15.0549 32.9596 15.0934 32.9596C15.825 32.9596 16.5181 32.87 17.211 32.7355V33.901ZM18.4816 33.0045V32.3769C18.8665 32.2424 19.2516 32.1079 19.6366 31.9286C19.2901 32.332 18.905 32.6907 18.4816 33.0045ZM20.1372 30.0457C18.7895 30.8077 17.2879 31.301 15.7095 31.4355V29.1491C17.2879 29.0595 18.7895 28.7009 20.1372 28.0731V30.0457ZM19.8677 20.0487C20.1372 19.9142 20.3681 19.7349 20.6376 19.5556V21.1694C20.4066 21.3935 20.1372 21.6176 19.8677 21.8418V20.0487ZM18.5586 22.7385C17.211 23.5006 15.7095 23.9937 14.1309 24.1281V21.8418C15.7095 21.7521 17.211 21.3935 18.5586 20.7659V22.7385ZM8.0092 11.7551H9.01021C8.97172 11.531 8.97172 11.3517 8.97172 11.1275C8.97172 10.9034 8.97172 10.6793 9.01021 10.5H8.0092V8.97567H9.35666C10.1267 6.86861 12.0517 5.34449 14.2464 5.34449C15.0549 5.34449 15.825 5.5238 16.5181 5.92724L16.0175 7.27223C15.4784 7.00327 14.8625 6.82378 14.2849 6.82378C12.8218 6.82378 11.5513 7.67568 10.8583 8.93084H15.4399V10.4551H10.3192C10.2807 10.6793 10.2807 10.9034 10.2807 11.1275C10.2807 11.3517 10.3192 11.5758 10.3192 11.7551H15.4014V13.2794H10.8198C11.5128 14.5346 12.7833 15.3863 14.2464 15.3863C14.8625 15.3863 15.4399 15.2518 15.9405 14.9829L16.4796 16.3727C15.7865 16.7313 15.0165 16.9106 14.2464 16.9106C12.0133 16.9106 10.1267 15.3863 9.35666 13.2794H8.0092V11.7551ZM7.47012 20.3625C8.08619 20.6763 8.7021 20.9452 9.35666 21.1694V23.2764C8.7021 22.9626 8.04769 22.604 7.47012 22.2006V20.3625ZM6.16099 19.5108V21.0797C4.89052 19.8246 3.8895 18.2554 3.31193 16.5072C4.04348 17.6727 5.006 18.7037 6.16099 19.5108ZM4.77503 30.7181V32.2872C3.5044 31.0319 2.50339 29.4629 1.92581 27.7145C2.69586 28.8802 3.65838 29.9112 4.77503 30.7181Z" fill="#D892C0"/>
</g>
</svg>
