<svg width="204" height="204" viewBox="0 0 204 204" fill="none" xmlns="http://www.w3.org/2000/svg">
<path d="M102.788 13.8647C54.0571 13.8647 14.5527 53.3691 14.5527 102.1C14.5527 150.831 54.0571 190.335 102.788 190.335C151.52 190.335 191.024 150.831 191.024 102.1C191.024 53.3691 151.52 13.8647 102.788 13.8647Z" fill="#C969A8"/>
<path d="M102.613 127.258C116.224 127.258 127.259 113.874 127.259 97.3663C127.259 80.8572 123.636 67.4736 102.613 67.4736C81.5901 67.4736 77.9668 80.8572 77.9668 97.3663C77.9668 113.874 89.002 127.258 102.613 127.258Z" fill="#D892C0"/>
<path d="M56.0633 172.898C56.0552 172.615 56.0592 171.892 56.0633 172.898V172.898Z" fill="#C969A8"/>
<path d="M149.16 173.684C149.164 171.773 149.173 173.409 149.16 173.684V173.684Z" fill="#C969A8"/>
<path d="M149.111 171.694C148.654 142.935 144.892 134.743 116.109 129.552C116.109 129.552 112.058 134.707 102.615 134.707C93.1713 134.707 89.118 129.552 89.118 129.552C60.6499 134.683 56.6596 142.756 56.1343 170.758C56.092 173.044 56.0713 173.165 56.0645 172.899C56.0654 173.396 56.0684 174.316 56.0684 175.921C56.0684 175.921 62.9205 189.715 102.615 189.715C142.309 189.715 149.161 175.921 149.161 175.921C149.161 174.89 149.162 174.173 149.163 173.685C149.155 173.85 149.139 173.532 149.111 171.692V171.694Z" fill="#D892C0"/>
<path d="M178.464 138.305C168 138.305 159.518 146.787 159.518 157.251C159.518 167.715 168 176.197 178.464 176.197C188.927 176.197 197.409 167.715 197.409 157.251C197.409 146.787 188.927 138.305 178.464 138.305Z" fill="#D892C0"/>
<path d="M168.377 162.616V166.653H172.414L184.327 154.739L180.29 150.702L168.377 162.616ZM187.439 151.628C187.859 151.208 187.859 150.525 187.439 150.105L184.925 147.59C184.505 147.17 183.822 147.17 183.401 147.59L181.432 149.561L185.469 153.598L187.439 151.628Z" fill="white"/>
</svg>
