<svg width="204" height="204" viewBox="0 0 204 204" fill="none" xmlns="http://www.w3.org/2000/svg">
<path d="M102.789 13.8643C54.0581 13.8643 14.5537 53.3686 14.5537 102.1C14.5537 150.83 54.0581 190.335 102.789 190.335C151.521 190.335 191.025 150.83 191.025 102.1C191.025 53.3686 151.521 13.8643 102.789 13.8643Z" fill="#88B038"/>
<path d="M102.613 127.258C116.224 127.258 127.259 113.874 127.259 97.3663C127.259 80.8572 123.636 67.4736 102.613 67.4736C81.5901 67.4736 77.9668 80.8572 77.9668 97.3663C77.9668 113.874 89.002 127.258 102.613 127.258Z" fill="#AAD060"/>
<path d="M56.0623 172.898C56.0542 172.615 56.0582 171.892 56.0623 172.898V172.898Z" fill="#88B038"/>
<path d="M149.16 173.685C149.164 171.773 149.173 173.409 149.16 173.685V173.685Z" fill="#88B038"/>
<path d="M149.111 171.694C148.654 142.934 144.892 134.742 116.109 129.552C116.109 129.552 112.058 134.707 102.615 134.707C93.1713 134.707 89.118 129.552 89.118 129.552C60.6499 134.682 56.6596 142.755 56.1343 170.757C56.092 173.043 56.0713 173.164 56.0645 172.899C56.0654 173.396 56.0684 174.315 56.0684 175.92C56.0684 175.92 62.9205 189.715 102.615 189.715C142.309 189.715 149.161 175.92 149.161 175.92C149.161 174.889 149.162 174.173 149.163 173.685C149.155 173.849 149.139 173.531 149.111 171.692V171.694Z" fill="#AAD060"/>
<path d="M178.464 138.305C168 138.305 159.518 146.787 159.518 157.251C159.518 167.714 168 176.197 178.464 176.197C188.927 176.197 197.409 167.714 197.409 157.251C197.409 146.787 188.927 138.305 178.464 138.305Z" fill="#AAD060"/>
<path d="M168.378 162.616V166.653H172.415L184.328 154.74L180.291 150.702L168.378 162.616ZM187.44 151.628C187.86 151.208 187.86 150.525 187.44 150.105L184.926 147.59C184.506 147.17 183.823 147.17 183.402 147.59L181.433 149.561L185.47 153.598L187.44 151.628Z" fill="white"/>
</svg>
