<svg width="258" height="259" viewBox="0 0 258 259" fill="none" xmlns="http://www.w3.org/2000/svg">
<g clip-path="url(#clip0_2366_3475)">
<path d="M162.325 218.455C162.325 218.455 167.541 256 169.122 263.861C170.705 271.725 175.45 317.716 175.902 319.075C176.355 320.435 182.681 319.868 184.264 319.868C185.845 319.868 190.931 319.527 191.156 318.622C191.382 317.716 193.53 293.249 192.512 277.161C191.495 261.075 191.721 250.428 191.947 243.177C192.174 235.927 194.659 190.162 194.659 190.162L187.032 160.662C187.032 160.662 181.665 150.061 179.913 150.061C178.161 150.061 160.159 151.874 159.217 153.231C158.275 154.591 153.949 163.881 153.739 166.373C153.528 168.865 162.325 218.455 162.325 218.455Z" fill="#FAD3B1"/>
<path d="M146.504 99.4893C146.504 99.4893 145.838 104.186 144.998 110.506C144.965 110.758 144.937 111.01 144.896 111.26C144.218 116.44 143.439 122.585 142.816 128.103C142.787 128.361 142.754 128.621 142.726 128.873C142.286 132.834 141.94 136.431 141.777 139.04C141.615 141.705 141.479 144.443 141.344 147.189C141.222 149.589 141.106 151.989 140.971 154.353C140.951 154.619 140.937 154.878 140.923 155.135C140.781 157.521 140.625 159.86 140.428 162.116C140.143 165.418 139.785 168.538 139.29 171.359C139.147 172.162 139.032 173.187 138.944 174.398C138.916 174.669 138.896 174.947 138.875 175.241C138.531 180.575 138.531 188.827 138.645 196.698C138.653 196.915 138.653 197.14 138.659 197.356C138.822 208.368 139.209 218.441 139.161 218.455C139.073 218.481 136.774 218.631 133.208 218.481C132.998 218.475 132.781 218.467 132.557 218.455H132.51C128.557 218.258 126.408 219.555 126.3 217.381C126.259 216.585 126.652 208.028 127.167 197.229C127.175 197.01 127.181 196.799 127.195 196.582C127.499 190.051 127.853 182.737 128.178 175.845C128.184 175.6 128.197 175.356 128.211 175.111C128.374 171.495 128.536 168.008 128.679 164.82C129.031 156.887 129.269 150.838 129.235 149.377C129.228 149.147 129.228 148.862 129.228 148.521C129.221 148.304 129.221 148.065 129.228 147.801C129.241 145.211 129.337 140.63 129.54 135.464C129.587 134.451 129.628 133.427 129.676 132.379C129.73 131.34 129.784 130.285 129.845 129.233C129.859 128.974 129.872 128.709 129.886 128.444C130.069 125.263 130.299 122.088 130.57 119.214C130.761 117.269 130.971 115.454 131.201 113.872C131.201 113.858 131.201 113.851 131.207 113.844C131.391 112.593 131.588 111.485 131.804 110.561C131.852 110.351 131.9 110.147 131.954 109.956C132.211 108.983 132.49 108.284 132.795 107.917C133.635 106.91 135.181 105.757 136.944 104.634C139.811 102.807 143.256 101.059 145.126 100.147C145.174 100.129 145.215 100.101 145.262 100.08C146.036 99.7066 146.504 99.4893 146.504 99.4893Z" fill="#58867B"/>
<path d="M181.746 54.9962C181.686 54.8738 181.62 54.7527 181.549 54.629C180.802 53.3213 180.032 51.9498 179.205 50.6971C178.413 49.4955 177.222 48.5787 176.476 47.3334C175.335 45.4311 172.227 44.0397 170.247 43.349C168.345 42.6857 166.156 43.8086 164.317 44.1334C163.25 44.3245 162.142 44.2833 161.092 44.0185C159.957 44.0085 152.757 45.8408 151.013 47.532C150.159 48.3601 146.797 50.7045 146.323 51.8112C145.772 53.0977 144.122 56.5001 143.896 57.869C143.584 59.7638 143.97 65.5281 145.083 67.1469C146.293 68.9067 145.427 70.1133 146.573 71.9407C147.661 73.6781 148.601 75.5554 150.078 77.0042C151.688 78.5855 153.881 79.6447 155.818 80.7576C156.077 80.9087 156.324 80.5702 156.13 80.3542C154.946 79.0464 153.301 78.3819 151.881 77.3777C151.59 77.1716 151.324 76.9468 151.067 76.7145C153.939 76.1599 156.979 77.4889 159.829 77.8311C162.545 78.1559 165.291 78.1196 168 77.7462C170.781 77.364 173.003 78.989 175.592 77.9023C177.738 77.0017 177.61 72.8949 179.066 70.9776C180.504 69.0841 182.806 65.3333 182.541 63.1362C182.183 60.1785 183.111 57.7241 181.746 54.9962Z" fill="#B06D51"/>
<path d="M176.049 75.0918C175.643 78.9388 174.568 81.9752 172.117 84.8018C169.453 87.8707 166.728 90.2788 163.713 90.35C161.525 90.4012 157.073 87.817 154.659 85.2265C153.724 84.221 152.911 83.0856 152.264 81.8491C150.521 78.5042 149.235 71.5296 148.599 66.2499C148.204 62.9749 147.7 62.5577 149.991 60.3394C153.814 56.641 157.458 54.5939 161.969 51.8622C161.996 51.8448 162.025 51.8273 162.055 51.8198C162.698 51.6287 175.387 54.8225 175.388 54.8225C175.602 54.9036 175.858 56.4674 175.923 56.7285C176.087 57.4005 176.229 58.0762 176.355 58.7557C176.783 61.0714 176.76 63.5607 176.871 65.9026C177.005 68.7317 176.357 72.1778 176.049 75.0918Z" fill="#FEA689"/>
<path d="M157.032 70.0148C157.012 68.9768 156.355 68.3336 155.799 68.9031C155.407 69.3053 155.382 70.1572 155.482 70.673C155.564 71.0977 155.866 71.701 156.386 71.5523C156.974 71.3862 157.046 70.6855 157.032 70.0148Z" fill="#252730"/>
<path d="M170.842 70.0148C170.822 68.9768 170.166 68.3336 169.609 68.9031C169.217 69.3053 169.192 70.1572 169.291 70.673C169.374 71.0977 169.677 71.701 170.196 71.5523C170.783 71.3862 170.855 70.6855 170.842 70.0148Z" fill="#252730"/>
<path d="M167.299 65.6432C167.436 65.4421 167.659 65.261 167.934 65.1499C169.02 64.7052 170.64 64.8913 171.729 65.1174C172.315 65.236 174.129 66.1291 173.879 66.7711C173.758 67.0821 172.256 66.7849 171.772 66.7149C170.667 66.5588 169.558 66.7998 168.441 66.8098C167.491 66.8148 166.79 66.3977 167.299 65.6432Z" fill="#B06D51"/>
<path d="M158.954 65.7204C158.803 65.5293 158.565 65.3681 158.284 65.2782C157.164 64.9222 155.565 65.2382 154.496 65.5468C153.923 65.7141 152.186 66.7496 152.486 67.3691C152.63 67.6701 154.103 67.2529 154.58 67.1455C155.671 66.902 156.794 67.0531 157.908 66.9719C158.855 66.9057 159.522 66.4323 158.954 65.7204Z" fill="#B06D51"/>
<path d="M182.561 100.216L163.723 108.486L147.014 99.4242C147.014 99.4242 154.923 94.1258 155.906 92.5146C155.933 92.4746 155.955 92.4396 155.974 92.3997C156.116 92.1349 156.205 91.7214 156.252 91.2106C156.503 88.6963 155.764 83.8825 155.764 83.8825L171.148 82.7559C171.148 82.7559 170.998 88.4789 171.276 91.2518C171.338 91.8226 171.411 92.271 171.513 92.5146C171.52 92.5358 171.527 92.557 171.541 92.577C172.211 94.0459 182.561 100.216 182.561 100.216Z" fill="#FEA689"/>
<path d="M163.589 78.2347C163.53 78.2347 163.47 78.2197 163.415 78.186C162.901 77.8675 161.698 77.0706 161.606 76.501C161.526 75.9964 162.219 72.7552 162.435 71.7747C162.473 71.5936 162.651 71.4799 162.829 71.5211C163.008 71.5586 163.121 71.736 163.082 71.9158C162.652 73.8818 162.228 76.0951 162.26 76.3999C162.318 76.5872 163.019 77.1605 163.762 77.6202C163.919 77.7164 163.967 77.92 163.872 78.0773C163.809 78.1797 163.7 78.2347 163.589 78.2347Z" fill="#F2835E"/>
<path d="M163.705 90.6813C160.637 90.6813 156.503 87.3327 156.32 87.1828C156.179 87.0679 156.157 86.858 156.273 86.7157C156.39 86.5733 156.598 86.552 156.74 86.6682C156.784 86.7044 161.264 90.3229 164.084 89.9944C166.937 89.6484 170.288 86.7057 170.323 86.6769C170.46 86.5558 170.669 86.5683 170.789 86.7057C170.911 86.8431 170.899 87.0529 170.761 87.1753C170.618 87.3027 167.223 90.2829 164.164 90.6539C164.015 90.6714 163.862 90.6813 163.705 90.6813Z" fill="#F2835E"/>
<path d="M174.223 67.5965C174.223 67.5965 176.709 65.6867 178.303 67.2605C180.187 69.1203 179.594 72.0468 178.047 73.9116C177.278 74.8409 176.697 75.5141 175.534 75.8314C175.28 75.9001 173.462 76.2298 173.47 76.1449C173.47 76.1437 174.223 67.5965 174.223 67.5965Z" fill="#FEA689"/>
<path d="M177.04 72.8677C177.02 72.8677 176.999 72.8639 176.978 72.8602C176.799 72.829 176.679 72.6528 176.714 72.4742L176.881 71.5874C177.033 70.7805 176.808 69.6114 176.805 69.5989C176.77 69.4191 176.887 69.2442 177.068 69.2092C177.246 69.173 177.421 69.2892 177.457 69.4703C177.467 69.5253 177.708 70.7743 177.533 71.7123L177.366 72.5966C177.336 72.7565 177.197 72.8677 177.04 72.8677Z" fill="#F2835E"/>
<path d="M152.379 68.4109C152.379 68.4109 149.363 66.761 147.885 68.4447C146.139 70.4356 146.938 73.3109 148.613 75.062C149.447 75.9339 150.476 76.5334 151.66 76.7657C151.917 76.8182 153.752 76.9681 153.739 76.8831C153.739 76.8819 152.379 68.4109 152.379 68.4109Z" fill="#FEA689"/>
<path d="M149.925 73.9952C149.778 73.9952 149.645 73.8965 149.606 73.7466L149.377 72.8773C149.134 71.9543 149.286 70.689 149.293 70.6353C149.316 70.4554 149.481 70.3243 149.662 70.3467C149.844 70.3705 149.973 70.5354 149.951 70.7177C149.95 70.7302 149.808 71.9105 150.017 72.7062L150.246 73.578C150.294 73.7554 150.188 73.9377 150.01 73.9839C149.983 73.9914 149.954 73.9952 149.925 73.9952Z" fill="#F2835E"/>
<path d="M159.682 80.6679C159.682 80.6679 161.479 80.7304 163.553 80.7217C165.628 80.7129 167.405 80.3569 167.405 80.3569C167.405 80.3569 167.041 82.479 163.628 82.6089C160.399 82.7276 159.682 80.6679 159.682 80.6679Z" fill="#F2835E"/>
<path d="M170.278 35.8946C170.371 35.2339 170.426 34.5694 170.033 34.0024C169.21 32.8183 166.394 31.5642 164.954 31.8378C163.893 32.0401 162.997 32.9569 162.33 33.9724C160.726 34.3259 159.37 35.1415 158.656 36.9089C158.184 38.073 157.658 39.4831 157.893 40.7646C158.087 41.8301 158.074 44.6404 159.535 44.7578C160.028 45.4623 160.61 46.1043 161.285 46.6726C161.613 46.9511 162.091 46.4765 161.76 46.1967C161.554 46.0218 161.36 45.8395 161.17 45.6521C161.656 46.0006 162.151 46.158 162.651 46.1967C163.206 46.3778 163.791 46.4802 164.395 46.5015C166.379 46.9436 168.728 46.5214 169.734 45.2037C170.895 43.6849 171.808 41.238 171.745 39.3257C171.7 38.0018 171.02 36.9351 170.278 35.8946Z" fill="#B06D51"/>
<path d="M149.724 81.6056C149.521 81.6543 149.228 81.6056 149.026 81.6056C148.761 81.6131 148.496 81.6056 148.232 81.5519C147.906 81.4907 147.893 81.2946 147.941 80.9886C148.089 80.1467 148.489 79.3299 148.843 78.5492C148.924 78.3718 149.195 78.3369 149.276 78.5355C149.297 78.5817 149.317 78.6366 149.337 78.6854C149.527 79.2224 149.649 79.7982 149.763 80.3566C149.818 80.6214 150.123 81.5044 149.724 81.6056ZM150.524 80.1305C150.3 79.0638 150.076 77.9697 149.704 76.9454C149.669 76.8493 149.635 76.7543 149.594 76.6657C149.439 76.2847 148.924 76.3522 148.767 76.6856C148.096 78.1683 147.343 79.7233 147.059 81.3346C146.957 81.9191 146.984 82.2863 147.609 82.4087C148.102 82.5049 148.611 82.5174 149.114 82.5124C149.513 82.5049 150.062 82.5986 150.442 82.5049C151.208 82.3138 150.624 80.6351 150.524 80.1305Z" fill="#6B3939"/>
<path d="M149.925 75.7951C149.925 75.2568 149.588 74.8184 149.172 74.8184C148.754 74.8184 148.417 75.2568 148.417 75.7951C148.417 76.3347 148.754 76.7719 149.172 76.7719C149.588 76.7719 149.925 76.3347 149.925 75.7951Z" fill="white"/>
<path d="M150.103 85.3367C150.106 85.3118 150.108 85.2868 150.108 85.2618C150.145 84.5523 150.157 83.8429 150.157 83.1309C150.159 82.3278 148.851 82.5576 148.319 82.6463C148.14 82.6775 147.948 82.725 147.826 82.8624C147.669 83.0348 147.671 83.2946 147.682 83.5294C147.701 83.9428 147.719 84.3562 147.738 84.7697C147.753 85.1094 147.804 85.5328 148.171 85.6727C148.476 85.7914 148.829 85.7639 149.148 85.7389C149.36 85.7214 149.796 85.7502 149.976 85.624C150.063 85.5603 150.092 85.4492 150.103 85.3367Z" fill="#DBC7BF"/>
<path d="M177.898 81.005C177.696 81.0599 177.402 81.0262 177.2 81.0349C176.936 81.0524 176.672 81.0574 176.405 81.0162C176.077 80.9675 176.055 80.7714 176.09 80.4641C176.201 79.616 176.565 78.7829 176.884 77.9873C176.957 77.8062 177.227 77.7625 177.317 77.9548C177.339 78.001 177.361 78.0547 177.384 78.1009C177.597 78.6293 177.745 79.2001 177.884 79.7522C177.949 80.0157 178.292 80.885 177.898 81.005ZM178.633 79.4949C178.363 78.4394 178.092 77.3565 177.674 76.3461C177.636 76.2524 177.598 76.1599 177.553 76.0738C177.381 75.6991 176.87 75.7915 176.728 76.13C176.122 77.6388 175.438 79.2276 175.224 80.8488C175.148 81.4371 175.192 81.8018 175.819 81.898C176.318 81.9717 176.826 81.9617 177.328 81.9355C177.726 81.9093 178.28 81.9817 178.654 81.8705C179.412 81.6445 178.756 79.9932 178.633 79.4949Z" fill="#6B3939"/>
<path d="M177.847 75.1895C177.823 74.6512 177.467 74.2278 177.05 74.2477C176.633 74.264 176.316 74.7161 176.339 75.257C176.362 75.7953 176.719 76.2162 177.135 76.1987C177.552 76.18 177.869 75.7279 177.847 75.1895Z" fill="white"/>
<path d="M178.44 84.7136C178.441 84.6898 178.442 84.6623 178.442 84.6374C178.449 83.9279 178.428 83.2172 178.398 82.509C178.364 81.7046 177.069 81.9932 176.54 82.1043C176.361 82.143 176.173 82.198 176.056 82.3416C175.908 82.5228 175.92 82.7813 175.942 83.0136C175.979 83.4258 176.014 83.8392 176.052 84.2502C176.082 84.5912 176.151 85.0096 176.524 85.1357C176.834 85.2394 177.185 85.1969 177.502 85.157C177.715 85.1307 178.15 85.1407 178.324 85.0046C178.41 84.9384 178.433 84.8247 178.44 84.7136Z" fill="#DBC7BF"/>
<path d="M161.895 45.1203C160.64 45.1203 159.658 44.8143 159.587 44.7918C159.412 44.7356 159.315 44.5483 159.371 44.3746C159.427 44.1998 159.613 44.1024 159.788 44.1561C159.816 44.1661 162.591 45.0279 164.616 43.7539C166.7 42.4424 168.279 40.2241 168.997 38.724C169.686 37.2826 169.764 36.4133 169.764 36.4045C169.78 36.2222 169.943 36.0885 170.123 36.0998C170.304 36.116 170.441 36.2746 170.426 36.457C170.424 36.497 170.344 37.4437 169.594 39.01C168.802 40.6688 167.17 42.932 164.968 44.3184C163.975 44.9405 162.855 45.1203 161.895 45.1203Z" fill="#8F5238"/>
<path d="M164.094 43.0506C164.088 43.0506 164.082 43.0506 164.077 43.0506C163.894 43.0406 163.753 42.8845 163.762 42.7009C163.767 42.606 163.905 40.3465 165.941 38.1307C167.813 36.0922 168.117 34.7883 168.121 34.7745C168.159 34.5972 168.335 34.4797 168.514 34.521C168.693 34.5584 168.806 34.7333 168.769 34.9132C168.758 34.9719 168.444 36.387 166.428 38.5803C164.553 40.6212 164.427 42.7146 164.425 42.7334C164.417 42.912 164.27 43.0506 164.094 43.0506Z" fill="#8F5238"/>
<path d="M159.97 37.7248C159.899 37.7248 159.828 37.7035 159.767 37.6561C159.623 37.5436 159.595 37.3351 159.707 37.1889L161.664 34.6409C161.776 34.4948 161.985 34.4673 162.13 34.5809C162.275 34.6921 162.303 34.9007 162.191 35.0468L160.232 37.5961C160.168 37.6798 160.069 37.7248 159.97 37.7248Z" fill="#8F5238"/>
<path d="M171.541 92.5774C166.375 93.5154 161.119 93.4942 155.906 92.5149C155.933 92.475 155.955 92.44 155.974 92.4C156.116 92.1352 156.205 91.7218 156.252 91.2109C161.269 92.1477 166.306 92.1552 171.276 91.2522C171.338 91.823 171.411 92.2714 171.513 92.5149C171.52 92.5362 171.527 92.5574 171.541 92.5774Z" fill="#524242"/>
<path d="M177.629 58.7733C177.369 56.931 177.015 54.8576 175.359 53.7522C173.425 52.4594 170.837 51.8112 168.658 51.068C166.318 50.2699 163.854 49.3418 161.394 49.0158C157.037 48.4325 154.256 51.8099 152.063 55.1099C151.428 56.0642 150.944 57.0459 150.483 58.0901C150.073 59.0156 149.746 59.5677 148.932 60.1685C148.674 60.3596 148.375 60.5132 148.14 60.738C146.504 62.3018 147.538 64.5226 147.524 66.4549C147.523 66.6585 147.673 66.7646 147.831 66.7746C147.433 66.8708 147.031 66.9432 146.626 66.967C146.429 66.9782 147.667 67.5278 147.865 67.5853C150.699 68.4184 153.18 65.6567 154.48 63.3935C155.02 62.453 155.435 61.4875 156.311 60.8067C157.216 60.1023 158.32 59.6539 158.983 58.6709C158.533 60.4707 157.697 62.132 156.35 63.4847C156.201 63.6321 155.241 64.2141 155.422 64.2828C156.121 64.5376 157.643 63.5134 158.086 63.05C159.101 61.9883 160.087 60.8979 160.817 59.6127C161.875 57.7516 162.331 57.4581 162.673 55.2136C164.689 54.1406 166.975 55.577 168.974 56.1778C169.76 56.4126 170.641 56.3614 171.408 56.6075C173.562 57.3019 172.477 59.6913 173.843 60.8579C174.546 61.455 175.323 61.4825 175.626 62.4767C176.08 63.9693 175.787 65.4219 176.89 66.6435C177.038 66.8071 177.634 66.3649 177.669 66.1239C178.027 63.5246 177.996 61.3788 177.629 58.7733Z" fill="#B06D51"/>
<path d="M162.93 54.3206C162.88 54.3206 162.828 54.3094 162.781 54.2869C162.618 54.2044 162.552 54.0046 162.634 53.841C162.639 53.8297 163.148 52.7893 163.257 50.9682C163.354 49.3694 162.377 46.9925 162.058 46.2119C162.003 46.082 161.966 45.9895 161.951 45.9433C161.89 45.7697 161.98 45.5786 162.153 45.5199C162.326 45.4587 162.515 45.5511 162.576 45.7235C162.59 45.7635 162.624 45.8446 162.671 45.9596C163.006 46.7764 164.026 49.2583 163.92 51.0082C163.802 52.9791 163.25 54.0933 163.226 54.1382C163.167 54.2544 163.05 54.3206 162.93 54.3206Z" fill="#8F5238"/>
<path d="M148.387 66.0451C148.234 66.0451 148.096 65.9401 148.064 65.784C148.025 65.6029 148.139 65.4255 148.319 65.3881L150.251 64.9696C151.532 64.6948 151.743 63.8455 152.136 61.7796C152.231 61.2837 152.334 60.7391 152.471 60.1434C153.091 57.4554 157.322 54.5289 158.711 53.8232C159.009 53.6709 159.18 53.6122 159.348 53.6821C159.516 53.7558 159.594 53.9519 159.522 54.1193C159.467 54.2454 159.345 54.3204 159.217 54.3204H159.216C158.554 54.5302 153.719 57.6865 153.118 60.2945C152.982 60.8803 152.88 61.4174 152.788 61.9057C152.405 63.9142 152.152 65.2419 150.391 65.6216L148.458 66.0376C148.433 66.0438 148.411 66.0451 148.387 66.0451Z" fill="#8F5238"/>
<path d="M153.802 55.7384C153.704 55.7384 153.606 55.6922 153.54 55.6098C153.429 55.4649 153.454 55.2601 153.594 55.1464C153.642 55.1002 153.705 55.0003 153.798 54.8654C154.316 54.1184 155.527 52.3673 158.198 51.1932C161.409 49.7818 162.156 49.5957 162.186 49.5869C162.365 49.547 162.543 49.6544 162.585 49.833C162.629 50.0116 162.518 50.1927 162.34 50.2352C162.313 50.2414 161.576 50.4338 158.464 51.8027C155.966 52.9006 154.829 54.5431 154.343 55.2451C154.188 55.4687 154.103 55.5923 154.005 55.6672C153.945 55.716 153.873 55.7384 153.802 55.7384Z" fill="#8F5238"/>
<path d="M174.659 58.6773C174.522 58.6773 174.394 58.5899 174.345 58.4538C174.337 58.4275 173.402 55.7908 171.588 54.7903C169.708 53.7536 165.159 52.9942 165.113 52.9867C164.933 52.9568 164.811 52.7856 164.841 52.6045C164.87 52.4234 165.038 52.296 165.222 52.331C165.413 52.3622 169.929 53.1154 171.908 54.2083C173.946 55.3337 174.931 58.1153 174.973 58.2352C175.034 58.4075 174.941 58.5986 174.769 58.6574C174.732 58.6686 174.696 58.6773 174.659 58.6773Z" fill="#8F5238"/>
<path d="M177.763 60.1824C177.615 60.1824 177.48 60.0824 177.442 59.9325C177.435 59.9051 176.765 57.3395 174.976 55.7495C173.217 54.187 172.543 53.9709 172.538 53.9696C172.365 53.9184 172.261 53.7373 172.31 53.5612C172.356 53.3888 172.531 53.2814 172.706 53.3276C172.783 53.3464 173.517 53.565 175.415 55.2524C177.363 56.9811 178.056 59.6565 178.084 59.7677C178.129 59.9463 178.022 60.1274 177.845 60.1724C177.818 60.1786 177.791 60.1824 177.763 60.1824Z" fill="#8F5238"/>
<path d="M166.269 45.1153C166.12 45.1153 165.984 45.0141 165.947 44.8629C165.904 44.6856 166.013 44.5045 166.191 44.4595L170.017 43.5277C170.196 43.484 170.375 43.5927 170.419 43.7725C170.462 43.9512 170.353 44.1298 170.174 44.1735L166.348 45.1065C166.322 45.114 166.295 45.1153 166.269 45.1153Z" fill="#8F5238"/>
<path d="M179.913 67.4804C179.863 67.4804 179.814 67.4692 179.765 67.4455C179.602 67.363 179.535 67.1632 179.616 66.9996C179.636 66.9583 181.544 63.0788 181.223 60.7169C180.885 58.2326 180.881 57.5843 180.881 57.5581C180.881 57.3732 181.047 57.2458 181.213 57.2246C181.395 57.2246 181.544 57.3732 181.544 57.5556C181.544 57.5631 181.552 58.2138 181.88 60.6282C182.23 63.1913 180.293 67.1282 180.211 67.2956C180.152 67.413 180.035 67.4804 179.913 67.4804Z" fill="#8F5238"/>
<path d="M140.665 159.075C140.665 159.075 135.224 176.117 134.094 185.744C132.964 195.373 141.552 251.333 142.455 257.905C143.36 264.475 144.716 275.637 145.394 280.478C146.072 285.317 150.139 318.91 149.913 320.353C149.688 321.794 166.636 321.258 166.636 319.147C166.636 317.036 168.327 287.669 166.636 276.028C164.274 259.762 165.466 245.478 164.787 240.232C164.111 234.986 163.472 159.075 163.472 159.075H140.665Z" fill="#FAD3B1"/>
<path d="M148.417 98.4653C148.417 98.4653 156.608 103.36 164.15 103.274C171.693 103.189 180.752 99.1161 180.752 99.1161L184.236 99.9604C184.236 99.9604 186.015 126.385 186.015 135.73C186.015 145.076 187.202 157.046 187.033 160.662C186.862 164.277 140.591 161.974 138.049 160.662C135.506 159.35 144.657 100.38 144.657 100.38L148.417 98.4653Z" fill="white"/>
<path d="M202.002 218.258C201.42 218.305 199.989 218.801 198.233 219.304C198.002 219.373 197.771 219.441 197.534 219.501C195.364 220.1 192.842 220.636 190.815 220.405C189.968 220.31 189.066 220.256 188.179 220.229C187.92 220.222 187.662 220.215 187.412 220.215C184.442 220.168 181.778 220.405 181.778 220.405C181.778 220.405 182.062 207.335 182.978 199.234C182.999 198.981 183.033 198.737 183.059 198.506C183.276 196.718 183.528 195.223 183.813 194.238C184.666 191.307 184.334 183.247 183.656 175.159C183.636 174.914 183.615 174.663 183.587 174.418C183.011 167.743 182.211 161.164 181.655 157.535C181.574 157.004 181.513 156.468 181.472 155.917C181.446 155.685 181.432 155.441 181.419 155.201C180.965 147.441 183.459 137.897 182.578 130.68C182.578 130.627 182.571 130.579 182.565 130.53C182.537 130.334 182.517 130.128 182.49 129.911C181.941 125.207 181.466 116.25 181.155 109.208C181.14 108.957 181.134 108.706 181.12 108.46C180.89 103.159 180.754 99.1147 180.754 99.1147C180.754 99.1147 183.852 99.9379 187.1 101.025C187.296 101.093 187.501 101.161 187.697 101.223C190.504 102.194 193.296 103.335 194.206 104.294C194.626 104.735 195.045 107.482 195.466 111.614C195.493 111.86 195.514 112.105 195.541 112.362C195.934 116.371 196.321 121.559 196.7 127.173C196.944 130.823 197.182 134.655 197.412 138.468C197.752 143.899 198.07 149.289 198.369 154.027C198.619 158.031 198.856 161.572 199.08 164.304C199.236 166.254 199.385 167.784 199.527 168.777C199.561 169.028 199.596 169.246 199.629 169.429C199.771 170.177 199.914 171.25 200.05 172.562C200.077 172.793 200.097 173.031 200.123 173.276C200.7 179.189 201.215 189.2 201.561 197.344C201.575 197.595 201.589 197.84 201.595 198.085C201.853 204.201 202.002 209.122 202.002 210.21C202.002 213.159 203.358 218.142 202.002 218.258Z" fill="#D892C0"/>
<path d="M204.374 163.754C203.114 164.196 201.25 164.338 199.161 164.304H199.08C198.856 164.304 198.632 164.298 198.402 164.291C195.304 164.188 191.845 163.747 189.215 163.346C188.992 163.313 188.781 163.278 188.572 163.244C186.408 162.897 184.944 162.604 184.944 162.604L185.452 155.379L185.507 154.624L186.185 144.961L188.775 137.715V137.706L189.385 135.995L190.591 132.616L190.917 130.075L191.012 129.3L193.188 112.261L193.277 111.56L194.206 104.294C194.206 104.294 195.745 105.178 197.345 106.524C197.601 106.741 197.866 106.972 198.124 107.21V107.216C199.289 108.305 200.368 109.617 200.761 110.976C200.768 111.003 200.781 111.038 200.789 111.072C200.848 111.282 200.911 111.513 200.979 111.756H200.984C201.954 115.361 203.548 122.558 204.137 127.39C204.164 127.641 204.192 127.881 204.213 128.117C204.233 128.301 204.253 128.478 204.266 128.648C204.51 131.415 207.541 134.996 207.995 140.318C208.402 145.15 208.253 151.201 208.565 154.815C208.592 155.08 208.612 155.339 208.638 155.577C208.653 155.665 208.66 155.746 208.673 155.828C209.121 159.227 209.379 162.02 204.374 163.754Z" fill="#D892C0"/>
<path d="M142.51 161.362C142.51 161.362 141.71 161.674 140.428 162.116C139.127 162.565 137.323 163.148 135.37 163.659C135.133 163.719 134.889 163.781 134.645 163.842C132.652 164.332 130.55 164.725 128.679 164.82C127.099 164.909 125.695 164.78 124.659 164.311C124.197 164.107 123.777 163.89 123.391 163.665C123.181 163.543 122.984 163.42 122.794 163.284C119.629 161.171 118.99 158.173 117.858 152.893C117.391 150.718 118.719 147.755 119.961 144.505C120.028 144.336 120.096 144.159 120.156 143.981C120.761 142.378 121.317 140.713 121.608 139.04C122.306 135.071 122.829 131.253 123.255 128.445C123.297 128.186 123.33 127.935 123.37 127.69C123.466 127.077 123.554 126.527 123.642 126.044C124.543 121.008 128.502 114.055 129.825 110.643C129.852 110.576 129.88 110.501 129.913 110.431C130.002 110.235 130.104 110.038 130.224 109.842C130.435 109.487 130.686 109.147 130.971 108.822C131.194 108.556 131.439 108.305 131.696 108.053C133.88 105.98 137.938 104.016 137.938 104.016L136.944 104.634L137.161 110.18L137.187 110.84L137.865 128.533L137.899 129.327L138.042 133.1L137.601 136.75C137.812 137.51 138.055 138.3 138.333 139.102C138.483 139.557 138.645 140.013 138.814 140.474C139.608 142.649 140.523 144.92 141.344 147.189C142.327 149.929 143.16 152.662 143.425 155.197C143.459 155.454 143.479 155.714 143.494 155.971C143.608 157.928 143.35 159.758 142.51 161.362Z" fill="#58867B"/>
<path d="M134.196 193.084C134.196 193.084 134.04 195.73 133.953 197.064C131.696 197.106 129.459 196.941 127.195 196.582C127.181 196.799 127.175 197.01 127.167 197.229C129.398 197.608 131.635 197.82 133.913 197.771C133.642 201.87 133.357 205.962 133.1 210.054C132.923 212.854 132.74 215.655 132.557 218.455C132.781 218.467 132.998 218.475 133.208 218.481C133.31 216.789 133.411 215.104 133.52 213.411C133.845 208.192 134.565 197.712 134.565 197.712L134.196 193.084Z" fill="#426362"/>
<path d="M136.225 152.064C135.805 151.818 135.384 151.582 134.963 151.322C133.052 150.146 131.174 148.907 129.228 147.801C128.435 147.339 127.635 146.904 126.815 146.497C127.486 143.525 128.197 140.556 128.97 137.612C129.16 136.899 129.35 136.177 129.54 135.464C130.082 133.439 130.604 131.4 130.896 129.32C131.974 129.396 133.052 129.45 134.136 129.464C135.398 129.476 136.652 129.422 137.899 129.326C138.592 129.286 139.276 129.233 139.968 129.165C139.411 132.475 138.869 135.784 138.333 139.101C137.621 143.418 136.923 147.741 136.225 152.064ZM143.425 155.196C142.59 154.953 141.777 154.673 140.97 154.353C139.553 153.802 138.177 153.144 136.815 152.396C137.452 148.412 138.13 144.443 138.814 140.474C139.331 137.476 139.844 134.48 140.347 131.475C140.483 130.68 140.611 129.878 140.747 129.083C141.405 129.015 142.069 128.945 142.726 128.873C142.753 128.621 142.787 128.361 142.816 128.104C142.381 128.145 141.947 128.192 141.513 128.241C141.296 128.26 141.086 128.28 140.876 128.301C141.736 123.167 142.592 118.035 143.418 112.9C143.234 112.617 143.066 112.322 142.919 112.02C141.94 117.463 141.01 122.923 140.096 128.376C139.351 128.444 138.611 128.498 137.865 128.533C135.574 128.661 133.289 128.653 130.991 128.519C131.317 125.529 131.146 122.51 131.099 119.506C131.073 117.629 131.106 115.747 131.201 113.872C131.201 113.858 131.201 113.851 131.207 113.845C131.262 112.743 131.337 111.641 131.439 110.541C131.56 110.547 131.682 110.555 131.804 110.561C133.194 110.649 134.591 110.718 135.974 110.779C136.381 110.798 136.78 110.821 137.187 110.839C138.972 110.928 140.769 111.025 142.566 111.125C142.491 110.883 142.435 110.636 142.396 110.383C142.156 110.372 141.916 110.365 141.676 110.351C140.184 110.282 138.679 110.227 137.161 110.18C135.431 110.12 133.696 110.059 131.954 109.956C131.798 109.949 131.649 109.935 131.493 109.929C131.5 109.876 131.5 109.814 131.506 109.758C131.567 109.187 131.629 108.624 131.696 108.053C131.439 108.305 131.193 108.556 130.971 108.822C130.937 109.181 130.902 109.535 130.875 109.889C130.658 109.876 130.442 109.86 130.224 109.841C130.104 110.037 130.001 110.235 129.913 110.431C130.218 110.458 130.523 110.48 130.828 110.501C130.617 113.409 130.584 116.304 130.57 119.214C130.564 121.321 130.57 123.435 130.523 125.569C130.503 126.541 130.428 127.513 130.32 128.478C130.171 128.463 130.028 128.457 129.886 128.444C129.459 128.41 129.031 128.376 128.604 128.335C126.855 128.157 125.106 127.94 123.37 127.69C123.33 127.935 123.296 128.186 123.255 128.444C125.438 128.784 127.635 129.063 129.845 129.233C129.974 129.245 130.096 129.259 130.224 129.268C130.082 130.306 129.899 131.346 129.676 132.379C128.821 136.546 127.479 140.656 126.53 144.756C126.421 145.239 126.32 145.722 126.212 146.205C125.709 145.966 125.208 145.741 124.692 145.531C123.235 144.939 121.71 144.443 120.156 143.981C120.096 144.159 120.028 144.336 119.961 144.505C120.103 144.545 120.238 144.593 120.374 144.633C122.353 145.259 124.232 146.006 126.062 146.87C124.842 152.314 123.77 157.793 122.794 163.284C122.984 163.42 123.181 163.542 123.391 163.665C124.374 158.147 125.438 152.641 126.658 147.17C126.658 147.17 126.658 147.17 126.666 147.163C127.527 147.591 128.38 148.038 129.228 148.521C129.906 148.902 130.584 149.302 131.262 149.726C132.868 150.737 134.469 151.785 136.109 152.749C135.954 153.749 135.791 154.748 135.628 155.746C135.187 158.444 134.828 161.13 134.645 163.842C134.529 165.398 134.482 166.962 134.517 168.532C134.557 170.632 134.645 172.725 134.713 174.819C132.537 175.07 130.395 175.295 128.211 175.111C128.197 175.356 128.184 175.601 128.177 175.845C130.34 176.035 132.496 175.893 134.733 175.607C134.787 177.509 134.793 181.342 134.793 181.342L135.354 178.588C135.354 178.588 135.34 176.897 135.317 175.539C135.731 175.489 136.078 175.463 136.078 175.463L136.28 174.63C136.28 174.63 135.763 174.69 135.296 174.744C135.228 171.047 135.16 167.348 135.37 163.659C135.466 161.917 135.628 160.179 135.879 158.439C136.144 156.65 136.422 154.869 136.707 153.089C138.069 153.857 139.466 154.572 140.923 155.135C141.214 155.25 141.505 155.36 141.804 155.461C142.36 155.652 142.923 155.821 143.494 155.971C143.479 155.713 143.459 155.454 143.425 155.196Z" fill="#426362"/>
<path d="M140.2 109.803L139.068 112.294L143.06 114.115L142.819 109.262L140.2 109.803Z" fill="#DE684E"/>
<path d="M140.2 109.803L150.529 150.562L180.579 143.645L170.903 101.915L140.2 109.803Z" fill="#DE684E"/>
<path d="M140.403 112.924L141.611 110.851L170.141 103.438L179.672 144.699L178.414 146.77L140.403 112.924Z" fill="white"/>
<path d="M139.068 112.295L148.982 154.75L179.25 147.099L169.377 104.521L139.068 112.295Z" fill="#DE684E"/>
<path d="M138.915 116.128L137.521 119.904L141.12 121.546V116.128H138.915Z" fill="#232C44"/>
<path d="M138.915 116.128L147.853 154.404L175.319 146.637L166.595 109.016L138.915 116.128Z" fill="#232C44"/>
<path d="M138.725 120.469L140.188 117.072L165.91 110.387L174.502 147.587L172.993 150.985L138.725 120.469Z" fill="white"/>
<path d="M137.521 119.904L146.459 158.181L173.747 151.281L164.846 112.896L137.521 119.904Z" fill="#232C44"/>
<path d="M145.599 123.837L147.336 130.687L161.871 126.846L160.185 120.014L145.599 123.837Z" fill="white"/>
<path d="M147.116 125.146C146.969 125.146 146.833 125.046 146.795 124.893C146.75 124.717 146.857 124.536 147.035 124.49L159.076 121.391C159.256 121.344 159.436 121.45 159.481 121.629C159.526 121.807 159.419 121.988 159.242 122.034L147.199 125.135C147.172 125.142 147.143 125.146 147.116 125.146Z" fill="#F2E2DA"/>
<path d="M151.299 126.865C151.148 126.865 151.013 126.761 150.975 126.61C150.934 126.431 151.044 126.253 151.223 126.209L156.097 125.064C156.273 125.017 156.454 125.131 156.495 125.31C156.537 125.488 156.425 125.667 156.247 125.711L151.375 126.856C151.35 126.863 151.324 126.865 151.299 126.865Z" fill="#F2E2DA"/>
<path d="M148.091 129.141C147.944 129.141 147.811 129.045 147.77 128.897C147.723 128.719 147.827 128.537 148.004 128.489L159.951 125.256C160.126 125.209 160.309 125.313 160.358 125.49C160.405 125.667 160.301 125.849 160.124 125.898L148.177 129.13C148.148 129.138 148.12 129.141 148.091 129.141Z" fill="#F2E2DA"/>
<path d="M182.102 133.325C181.94 132.865 181.769 132.491 181.49 132.32C181.624 132.006 181.611 131.636 181.361 131.201C180.912 130.423 179.721 130.223 178.966 130.025C177.117 129.539 175.221 129.172 173.341 128.834C172.175 128.626 170.931 128.338 169.745 128.572C168.311 128.856 167.024 129.846 165.805 130.597C162.571 132.588 158.646 136.447 158.646 136.447C158.646 136.447 162.322 143.924 162.325 143.93C162.424 144.105 163.314 144.016 163.473 144.018C164.127 144.024 164.778 144.003 165.432 143.98C167.332 143.914 168.751 143.169 170.107 141.893C170.717 141.318 171.333 140.751 171.981 140.222C172.362 139.913 172.888 139.385 173.402 139.32C177.152 138.905 180.607 138.807 179.648 136.447C180.291 136.24 180.601 136.125 181.218 135.875C182.158 135.495 182.597 134.732 182.102 133.325Z" fill="#FEA689"/>
<path d="M196.633 198.227C195.704 198.397 194.774 198.56 193.846 198.71C193.046 198.833 192.246 198.913 191.453 198.961C191.472 198.092 191.479 197.221 191.46 196.345C191.33 190.839 190.286 185.428 189.622 179.977C189.405 178.204 189.27 176.43 189.175 174.655C190.408 174.533 191.636 174.411 192.87 174.262C194.856 174.023 196.836 173.766 198.815 173.473C198.619 176.953 198.029 180.392 197.459 183.852C196.673 188.65 196.531 193.436 196.633 198.227ZM189.215 163.346C189.235 162.91 189.263 162.469 189.283 162.027C189.405 159.695 189.555 157.363 189.677 155.026C192.517 154.878 195.35 154.897 198.245 155.1C198.253 155.108 198.267 155.108 198.279 155.108C198.143 156.964 198.056 158.82 198.131 160.681C198.178 161.884 198.287 163.088 198.402 164.291C198.55 165.847 198.721 167.403 198.822 168.959C198.904 170.225 198.911 171.481 198.864 172.739C198.361 172.806 197.852 172.889 197.351 172.956C194.619 173.33 191.886 173.636 189.14 173.914C188.998 170.393 189.052 166.88 189.215 163.346ZM189.161 130.252C189.744 130.198 190.335 130.136 190.917 130.074C192.246 129.932 193.575 129.768 194.897 129.586C195.466 129.504 196.036 129.415 196.606 129.326C196.537 132.045 196.68 134.751 197.223 137.519C197.284 137.838 197.351 138.149 197.412 138.468C197.9 140.827 198.45 143.172 198.632 145.58C198.843 148.208 198.619 150.852 198.408 153.478C198.389 153.66 198.375 153.845 198.369 154.027C198.355 154.137 198.347 154.238 198.341 154.346C195.955 154.177 193.561 154.053 191.167 154.13C190.687 154.142 190.199 154.17 189.718 154.205C189.879 150.873 189.988 147.537 189.873 144.199C189.777 141.447 189.555 138.72 189.385 135.995C189.263 134.086 189.168 132.174 189.161 130.252ZM189.229 127.178C189.527 121.92 189.899 116.734 189.521 111.506C190.727 111.852 191.927 112.118 193.188 112.261C193.948 112.341 194.727 112.383 195.541 112.362C195.711 112.362 195.88 112.357 196.056 112.341C196.545 112.314 197.039 112.281 197.528 112.233C197.567 115.897 197.439 119.568 197.039 123.25C196.897 124.577 196.775 125.875 196.7 127.173C196.667 127.634 196.647 128.097 196.625 128.559C196.307 128.613 195.995 128.661 195.676 128.709C194.131 128.939 192.571 129.136 191.012 129.3C190.394 129.369 189.777 129.429 189.154 129.484C189.161 128.723 189.181 127.954 189.229 127.178ZM197.256 198.112C197.134 194.658 197.161 191.206 197.589 187.766C198.186 182.961 199.33 178.211 199.568 173.364C199.751 173.337 199.941 173.31 200.123 173.276C200.097 173.031 200.077 172.793 200.05 172.562C199.9 172.583 199.751 172.61 199.602 172.63C199.602 172.48 199.615 172.338 199.615 172.188C199.635 171.047 199.595 169.911 199.527 168.777C199.44 167.288 199.289 165.792 199.161 164.304C198.931 161.81 198.734 159.316 198.87 156.794C198.897 156.242 198.931 155.7 198.965 155.156C202.212 155.386 205.418 155.604 208.638 155.577C208.612 155.339 208.592 155.08 208.565 154.815C207.494 154.864 206.409 154.869 205.318 154.823C203.216 154.727 201.115 154.549 199.012 154.394C199.289 150.146 199.595 146.001 198.795 141.724C198.369 139.429 197.799 137.157 197.465 134.846C197.202 132.971 197.154 131.094 197.229 129.224C199.554 128.845 201.874 128.417 204.213 128.117C204.192 127.881 204.164 127.641 204.137 127.39C201.84 127.675 199.547 128.09 197.263 128.463C197.296 127.819 197.345 127.173 197.406 126.527C197.846 121.702 198.259 116.956 198.267 112.145C199.175 112.035 200.069 111.906 200.979 111.756C200.911 111.513 200.848 111.281 200.789 111.072C199.941 111.207 199.1 111.329 198.267 111.424C198.259 110.52 198.245 109.61 198.206 108.698C198.186 108.203 198.157 107.713 198.124 107.216V107.21C197.866 106.972 197.601 106.741 197.345 106.524C197.432 108.181 197.494 109.841 197.52 111.499C196.836 111.568 196.151 111.601 195.466 111.614C194.734 111.635 194.001 111.614 193.277 111.56C192.008 111.466 190.74 111.254 189.48 110.881C189.412 110.086 189.323 109.289 189.215 108.495C188.883 106.056 188.287 103.641 187.697 101.223C187.5 101.161 187.296 101.093 187.1 101.024C187.405 102.296 187.703 103.566 187.961 104.845C188.348 106.782 188.612 108.72 188.794 110.664C188.68 110.622 188.572 110.588 188.462 110.547C185.948 109.63 183.642 108.72 181.12 108.46C181.134 108.706 181.14 108.957 181.155 109.208C182.537 109.297 183.927 109.568 185.35 110.094C186.551 110.533 187.703 110.949 188.857 111.309C189.161 115.027 189.134 118.766 188.883 122.523C188.733 124.87 188.551 127.208 188.476 129.551C186.49 129.728 184.491 129.845 182.49 129.911C182.517 130.128 182.537 130.334 182.565 130.53C182.571 130.579 182.578 130.627 182.578 130.68C184.544 130.605 186.504 130.483 188.462 130.313C188.45 130.7 188.436 131.087 188.436 131.475C188.429 133.561 188.592 135.634 188.775 137.706V137.715C188.835 138.482 188.904 139.244 188.971 140.006C189.364 144.748 189.283 149.501 189.052 154.252C187.866 154.341 186.687 154.469 185.507 154.624C184.144 154.794 182.782 154.998 181.419 155.201C181.432 155.441 181.446 155.685 181.472 155.917C182.171 155.816 182.863 155.72 183.561 155.617C184.191 155.53 184.822 155.454 185.452 155.379C186.646 155.245 187.833 155.135 189.018 155.06C188.979 155.835 188.938 156.609 188.89 157.385C188.781 159.334 188.666 161.287 188.572 163.244C188.395 166.819 188.3 170.401 188.462 173.983C186.835 174.145 185.215 174.289 183.587 174.418C183.615 174.663 183.636 174.914 183.656 175.158C185.27 175.036 186.877 174.894 188.49 174.73C188.497 174.777 188.497 174.826 188.497 174.874C188.829 180.589 189.975 186.204 190.53 191.892C190.768 194.279 190.822 196.649 190.76 199.015C188.185 199.124 185.635 198.893 183.059 198.505C183.032 198.736 182.999 198.981 182.978 199.234C185.433 199.621 187.9 199.906 190.382 199.811C190.497 199.804 190.618 199.791 190.734 199.783C190.455 206.683 189.073 213.479 187.412 220.215C187.662 220.215 187.92 220.222 188.179 220.229C189.826 213.479 191.202 206.689 191.432 199.743C193.188 199.6 194.923 199.294 196.652 198.961C196.802 204.426 197.249 209.89 197.432 215.396C197.473 216.763 197.508 218.134 197.534 219.5C197.771 219.44 198.002 219.373 198.233 219.304C198.233 219.134 198.233 218.958 198.226 218.787C198.104 213.425 197.819 208.083 197.486 202.727C197.406 201.434 197.337 200.137 197.284 198.845C198.45 198.614 199.615 198.39 200.781 198.199C201.052 198.159 201.324 198.118 201.595 198.084C201.589 197.84 201.575 197.595 201.561 197.344C200.123 197.567 198.686 197.84 197.256 198.112Z" fill="#422645"/>
<path d="M159.158 135.899L138.049 142.018C138.049 142.018 139.893 157.227 141.692 156.63C143.493 156.035 163.288 144.038 163.288 144.038L166.805 136.435L159.158 135.899Z" fill="#FEA689"/>
<path d="M187.276 162.265C186.083 162.259 176.76 160.165 169.994 158.608C169.54 158.5 169.1 158.398 168.679 158.302C168.435 158.248 168.198 158.194 167.967 158.138C167.574 158.051 167.195 157.962 166.835 157.881C166.192 157.725 165.601 157.589 165.093 157.474C164.577 157.35 164.137 157.249 163.784 157.168C163.195 157.031 162.862 156.95 162.862 156.95L157.181 150.799L164.293 147.931L166.043 147.876L167.669 147.822L170.144 147.747L171.486 147.706L186.259 147.238C186.259 147.238 189.175 162.279 187.276 162.265Z" fill="#FEA689"/>
<path d="M180.608 132.61C180.593 132.61 180.576 132.609 180.561 132.606C180.484 132.595 180.14 132.517 179.638 132.402C178.117 132.047 174.951 131.311 173.886 131.279C172.509 131.236 172.098 131.276 172.093 131.276C171.914 131.295 171.749 131.164 171.729 130.98C171.71 130.8 171.841 130.636 172.022 130.616C172.039 130.613 172.46 130.571 173.906 130.613C175.037 130.648 178.128 131.367 179.788 131.751C180.257 131.861 180.579 131.938 180.655 131.949C180.835 131.977 180.961 132.143 180.935 132.324C180.91 132.492 180.769 132.61 180.608 132.61Z" fill="#F2835E"/>
<path d="M181.627 134.539C181.619 134.539 181.612 134.539 181.604 134.539C181.568 134.534 177.957 134.295 175.741 134.344C173.543 134.386 172.611 134.533 172.602 134.534C172.421 134.565 172.251 134.44 172.223 134.259C172.193 134.079 172.315 133.907 172.496 133.878C172.535 133.871 173.472 133.723 175.728 133.678C177.981 133.632 181.612 133.873 181.648 133.874C181.831 133.887 181.969 134.044 181.957 134.228C181.945 134.403 181.799 134.539 181.627 134.539Z" fill="#F2835E"/>
<path d="M179.057 136.781C179.056 136.781 179.056 136.781 179.056 136.781L174.365 136.764C174.181 136.764 174.033 136.614 174.034 136.432C174.034 136.25 174.183 136.099 174.366 136.099L179.058 136.116C179.241 136.116 179.389 136.266 179.388 136.45C179.388 136.634 179.24 136.781 179.057 136.781Z" fill="#F2835E"/>
<path d="M165.321 148.867C165.495 148.885 165.677 148.674 165.574 148.487C164.714 146.937 163.837 145.058 161.969 144.705C160.925 144.507 159.763 144.522 158.635 144.711C159.005 144.459 159.376 144.203 159.741 143.939C159.894 143.828 159.766 143.608 159.594 143.688C158.423 144.22 157.226 144.83 156.039 145.508C155.972 145.539 155.902 145.567 155.836 145.599C155.811 145.613 155.803 145.635 155.788 145.655C152.465 147.585 149.245 150.053 146.948 152.88C146.812 153.047 146.834 153.348 147.085 153.401C149.166 153.829 151.307 154.416 153.44 154.797C152.528 154.957 149.674 154.851 148.78 155.064C148.228 155.194 147.358 155.396 147.424 156.158C147.499 157.041 148.711 157.015 149.32 157.056C151.403 157.19 155.441 157.501 157.527 157.439C159.295 157.386 161.193 157.406 162.935 157.076C164.054 156.864 164.696 156.295 165.143 155.242C165.914 153.427 166.346 150.704 165.321 148.867Z" fill="#FEA689"/>
<path d="M148.091 153.433C147.978 153.433 147.866 153.375 147.805 153.27C147.712 153.109 147.765 152.905 147.923 152.813L161.442 144.903C161.6 144.808 161.802 144.862 161.894 145.022C161.987 145.18 161.933 145.384 161.775 145.476L148.259 153.389C148.206 153.419 148.148 153.433 148.091 153.433Z" fill="#F2835E"/>
<path d="M153.735 152.261C153.725 152.261 153.715 152.261 153.704 152.26L151.269 152.033C151.086 152.018 150.952 151.854 150.968 151.672C150.985 151.489 151.146 151.359 151.33 151.372L153.766 151.598C153.949 151.615 154.082 151.778 154.066 151.96C154.05 152.134 153.905 152.261 153.735 152.261Z" fill="#F2835E"/>
<path d="M171.486 147.706C171.256 151.383 170.761 155.012 169.994 158.608C169.54 158.5 169.1 158.398 168.679 158.302C168.909 157.249 169.113 156.19 169.29 155.122C168.897 156.141 168.449 157.146 167.967 158.138C167.574 158.051 167.195 157.962 166.835 157.881C166.963 156.468 166.91 155.012 166.924 153.606C166.937 152.321 166.957 151.042 166.971 149.758C166.348 152.335 165.717 154.904 165.093 157.474C164.577 157.35 164.137 157.249 163.784 157.167C164.537 154.075 165.29 150.975 166.043 147.876L167.669 147.822C167.641 149.962 167.615 152.11 167.588 154.252C167.574 155.339 167.595 156.433 167.527 157.513C168.537 155.373 169.385 153.164 169.872 150.874C169.988 149.841 170.076 148.793 170.144 147.747L171.486 147.706Z" fill="#524242"/>
<path d="M187.048 147.102C186.98 147.102 186.911 147.081 186.85 147.037C186.703 146.928 186.673 146.718 186.783 146.569C186.853 146.475 188.567 144.183 191.696 144.366C193.28 144.443 194.882 144.13 196.431 143.82C197.74 143.563 198.973 143.322 200.089 143.337C202.533 143.385 204.699 144.85 204.79 144.914C204.942 145.018 204.979 145.223 204.876 145.376C204.774 145.527 204.567 145.566 204.415 145.464C204.396 145.449 202.318 144.047 200.077 144.002C199.033 143.992 197.834 144.22 196.561 144.473C194.972 144.789 193.331 145.119 191.662 145.029C188.895 144.892 187.33 146.946 187.315 146.968C187.249 147.056 187.15 147.102 187.048 147.102Z" fill="#223D3C"/>
<path d="M194.88 144.003C194.872 144.003 194.865 144.003 194.857 144.003C194.674 143.989 194.536 143.831 194.548 143.649C194.557 143.504 194.791 140.118 195.507 137.62C195.962 136.033 195.8 133.411 195.642 130.876C195.559 129.54 195.482 128.276 195.493 127.191C195.53 124.037 198.444 110.465 198.568 109.888C198.607 109.709 198.785 109.597 198.962 109.634C199.142 109.672 199.256 109.849 199.217 110.029C199.187 110.169 196.194 124.112 196.158 127.198C196.145 128.26 196.222 129.511 196.304 130.834C196.466 133.427 196.632 136.107 196.145 137.802C195.448 140.232 195.213 143.659 195.211 143.693C195.198 143.869 195.053 144.003 194.88 144.003Z" fill="#223D3C"/>
<path d="M196.919 164.642C196.904 164.642 196.891 164.64 196.876 164.639L187.005 163.32C186.824 163.295 186.695 163.129 186.72 162.947C186.745 162.764 186.911 162.637 187.092 162.661L196.963 163.98C197.144 164.003 197.273 164.171 197.248 164.353C197.225 164.52 197.083 164.642 196.919 164.642Z" fill="#223D3C"/>
<path d="M121.103 144.367C120.995 144.367 120.889 144.316 120.826 144.22C120.726 144.069 120.762 143.869 120.91 143.764C120.998 143.704 121.887 143.152 126.238 142.37C130.62 141.582 136.338 141.504 136.396 141.504C136.555 141.493 136.729 141.648 136.732 141.833C136.733 142.018 136.586 142.169 136.403 142.17C136.347 142.17 130.682 142.245 126.355 143.025C122.169 143.778 121.317 144.295 121.282 144.316C121.226 144.351 121.164 144.367 121.103 144.367Z" fill="#223D3C"/>
<path d="M135.338 141.102C135.314 141.102 135.291 141.101 135.268 141.097L126.228 139.17C126.049 139.131 125.934 138.955 125.972 138.777C126.01 138.595 126.186 138.484 126.366 138.52L135.405 140.445C135.584 140.484 135.699 140.661 135.662 140.84C135.628 140.997 135.49 141.102 135.338 141.102Z" fill="#223D3C"/>
<path d="M132.454 139.178C132.444 139.178 132.435 139.176 132.425 139.176C132.242 139.161 132.107 138.999 132.124 138.817C132.125 138.798 132.29 136.857 132.123 132.856C131.954 128.817 132.12 108.686 132.122 108.484C132.124 108.301 132.272 108.153 132.454 108.153C132.455 108.153 132.455 108.153 132.458 108.153C132.641 108.154 132.787 108.305 132.786 108.49C132.785 108.691 132.617 128.804 132.785 132.829C132.955 136.881 132.791 138.795 132.785 138.874C132.77 139.048 132.624 139.178 132.454 139.178Z" fill="#223D3C"/>
<path d="M130.64 164.962C130.491 164.962 130.355 164.859 130.318 164.707C130.275 164.528 130.386 164.348 130.563 164.306L138.648 162.359C138.826 162.32 139.005 162.425 139.047 162.603C139.089 162.782 138.98 162.962 138.802 163.006L130.718 164.953C130.692 164.959 130.666 164.962 130.64 164.962Z" fill="#223D3C"/>
<path d="M182.308 115.502C182.124 115.502 181.976 115.352 181.976 115.17C181.976 114.985 182.124 114.836 182.308 114.836C183.63 114.836 187.64 114.537 188.111 114.073C188.043 113.216 186.261 105.907 185.054 101.107C185.009 100.928 185.118 100.747 185.294 100.704C185.474 100.659 185.653 100.767 185.698 100.943C186.012 102.2 188.777 113.228 188.777 114.116C188.777 115.487 182.373 115.502 182.308 115.502Z" fill="#223D3C"/>
<path d="M137.52 117.882C137.452 117.882 137.381 117.86 137.323 117.814C137.253 117.762 135.633 116.523 136.083 115.07C136.46 113.847 138.975 104.033 138.999 103.934C139.046 103.757 139.225 103.649 139.403 103.696C139.581 103.74 139.688 103.92 139.642 104.098C139.539 104.504 137.1 114.028 136.717 115.269C136.409 116.262 137.707 117.273 137.721 117.283C137.868 117.393 137.897 117.6 137.787 117.748C137.722 117.835 137.622 117.882 137.52 117.882Z" fill="#223D3C"/>
<path d="M161.278 201.401C161.278 201.401 159.979 183.843 159.707 180.217C159.437 176.619 159.704 164.424 159.706 164.302C159.711 164.118 159.852 163.987 160.046 163.976C160.229 163.98 160.373 164.133 160.369 164.316C160.365 164.439 160.1 176.6 160.368 180.169C160.639 183.793 161.939 201.352 161.939 201.352L161.278 201.401Z" fill="#EBBD94"/>
<path d="M164.397 230.368C164.227 230.368 164.082 230.24 164.067 230.067L161.995 207.777C161.978 207.595 162.112 207.432 162.295 207.416C162.473 207.405 162.64 207.532 162.656 207.717L164.727 230.005C164.745 230.189 164.609 230.35 164.428 230.367C164.418 230.367 164.406 230.368 164.397 230.368Z" fill="#EBBD94"/>
<path d="M160.762 183.803C160.599 183.803 160.457 183.683 160.434 183.517C160.408 183.336 160.535 183.167 160.716 183.141C161.81 182.986 163.711 182.563 164.155 182.088C164.57 181.292 164.323 170.766 164.066 164.322C164.058 164.138 164.201 163.985 164.383 163.976C164.563 163.97 164.72 164.112 164.728 164.296C164.938 169.529 165.348 181.785 164.639 182.543C163.89 183.343 161.122 183.756 160.808 183.799C160.793 183.802 160.777 183.803 160.762 183.803Z" fill="#EBBD94"/>
<path d="M165.798 164.702C164.531 164.702 163.236 164.684 161.937 164.642C152.542 164.337 140.287 163.024 140.164 163.012C139.983 162.992 139.851 162.828 139.871 162.646C139.889 162.463 140.05 162.329 140.235 162.351C140.357 162.364 152.588 163.673 161.958 163.976C171.317 164.282 180.452 163.334 180.544 163.324C180.722 163.302 180.889 163.436 180.909 163.62C180.927 163.802 180.795 163.966 180.614 163.985C180.535 163.995 173.705 164.702 165.798 164.702Z" fill="#EBBD94"/>
<path d="M135.338 182.649C135.234 182.649 135.132 182.599 135.067 182.509C134.961 182.359 134.996 182.15 135.144 182.044C135.164 182.031 137.054 180.65 138.771 177.212C140.504 173.743 141.186 164.44 141.193 164.345C141.206 164.163 141.366 164.024 141.548 164.037C141.73 164.052 141.868 164.211 141.854 164.394C141.827 164.781 141.156 173.923 139.364 177.509C137.566 181.111 135.611 182.528 135.53 182.588C135.471 182.628 135.404 182.649 135.338 182.649Z" fill="#EBBD94"/>
<path d="M141.523 160.959C141.359 160.959 141.216 160.836 141.195 160.668L140.79 157.488C140.768 157.306 140.896 157.141 141.079 157.117C141.26 157.092 141.426 157.223 141.45 157.405L141.853 160.585C141.875 160.767 141.747 160.933 141.565 160.957C141.552 160.958 141.537 160.959 141.523 160.959Z" fill="#223D3C"/>
<path d="M144.234 149.156C144.234 149.156 149.93 169.6 151.784 176.169C153.638 182.739 152.525 193.647 153.267 195.505C154.009 197.365 153.39 199.1 152.155 199.72C150.918 200.339 143.137 202.198 142.332 201.331C141.525 200.463 142.447 173.054 141.369 171.017C140.289 168.981 138.813 165.34 138.813 165.34L139.688 160.551L144.234 149.156Z" fill="#79B3D1"/>
<path d="M127.292 44.7694C127.005 37.8272 126.465 29.9808 117.913 28.6756C115.905 27.5252 113.609 26.7608 111.434 26.521C106.737 25.9989 97.5363 27.4153 95.558 32.7599C95.4958 32.8611 95.4274 32.9585 95.3714 33.0609C92.6876 33.2595 90.0922 35.3591 89.0022 37.7748C87.7431 40.5689 86.5773 43.9138 86.8659 47.0189C87.0762 49.2821 88.2047 51.679 89.0657 53.7612C89.9976 56.0157 90.9967 58.2689 91.4857 60.6746C91.5491 60.9881 91.9958 60.9481 92.0804 60.6746C92.2409 60.1525 92.2807 59.6217 92.2422 59.0833C93.1505 60.2274 94.4718 60.531 95.9512 60.4985C98.5926 60.4385 101.136 60.5847 103.776 60.6971C108.905 60.9144 114.022 59.9689 118.958 58.6512C122.636 57.6682 126.072 55.3687 127.364 51.5317C127.794 50.2539 127.62 48.8987 127.482 47.5872C127.385 46.6579 127.331 45.7161 127.292 44.7694Z" fill="#524242"/>
<path d="M81.8157 92.5322C81.8157 92.5322 69.2242 98.6163 66.9996 102.388C64.7749 106.163 61.2538 112.423 58.8438 120.839C56.4325 129.255 49.2111 151.954 55.1435 159.608C60.4326 166.431 62.4669 171.065 69.595 169.972C79.2924 168.485 85.7138 162.907 85.7138 162.907L81.8157 92.5322Z" fill="#79B3D1"/>
<path d="M107.247 223.624C107.247 223.624 111.595 265.605 113.363 274.396C115.131 283.188 120.435 337.588 120.94 339.108C121.446 340.63 131.485 339.996 133.253 339.996C135.021 339.996 143.671 339.615 143.923 338.602C144.177 337.588 144.758 307.29 144.697 289.267C144.599 259.735 143.666 211.239 143.29 191.224C143.155 184.084 139.672 157.229 139.672 157.229C139.672 157.229 128.866 147.146 126.907 147.146C124.95 147.146 104.825 149.174 103.774 150.694C102.72 152.214 97.8848 162.601 97.6496 165.387C97.4157 168.174 107.247 223.624 107.247 223.624Z" fill="#485A7E"/>
<path d="M123.024 62.5417C122.556 66.9771 121.483 71.4211 118.657 74.6811C115.585 78.2209 112.135 79.4087 108.66 79.4912C106.136 79.5499 101.234 77.7325 98.4509 74.7448C95.8878 71.9919 94.5205 68.1911 93.591 64.6101C92.5471 60.5907 91.874 56.4639 91.3776 52.3434C90.9222 48.5663 90.3424 48.0829 92.9814 45.5274C97.3896 41.2582 101.59 38.9012 106.792 35.7474C106.823 35.7299 106.857 35.71 106.893 35.6987C107.632 35.4814 122.263 39.1623 122.263 39.1623C122.509 39.2585 122.805 41.0608 122.88 41.3618C123.069 42.1362 123.232 42.9156 123.377 43.7C123.87 46.3692 123.845 49.242 123.973 51.9437C124.128 55.2049 123.38 59.1806 123.024 62.5417Z" fill="#FEA689"/>
<path d="M101.101 56.6839C101.076 55.4849 100.321 54.7467 99.6788 55.4037C99.2259 55.8658 99.1985 56.8488 99.313 57.4433C99.4075 57.9342 99.7559 58.6299 100.356 58.4576C101.032 58.2665 101.116 57.4596 101.101 56.6839Z" fill="#252730"/>
<path d="M166.12 152.394L147.116 174.392L137.773 174.649L140.605 166.539L152.65 144.568L166.12 152.394Z" fill="#FEA689"/>
<path d="M142.146 166.36C142.292 166.228 142.248 165.921 142.016 165.871C140.083 165.453 137.86 164.808 136.188 166.122C135.252 166.856 134.41 167.848 133.738 168.938C133.8 168.439 132.8 170.213 132.495 171.714C132.471 171.794 132.443 171.873 132.422 171.952C132.414 171.982 132.427 172.007 132.433 172.035C131.603 176.259 131.301 180.792 131.979 184.81C132.02 185.048 132.291 185.253 132.519 185.08C134.411 183.639 136.479 182.267 138.369 180.749C137.83 181.636 135.64 183.965 135.161 184.875C134.864 185.437 134.392 186.32 135.079 186.826C135.876 187.413 136.746 186.372 137.228 185.888C138.877 184.231 142.11 181.055 143.596 179.25C144.855 177.72 146.268 176.136 147.276 174.423C147.922 173.324 147.916 172.362 147.362 171.209C146.409 169.222 144.444 166.851 142.146 166.36Z" fill="#FEA689"/>
<path d="M133.801 165.454L142.332 187.238C142.332 187.238 132.322 193.977 131.992 193.734C131.664 193.491 124.119 190.15 124.177 186.681C124.236 183.212 125.301 171.674 125.67 171.069C126.04 170.466 133.801 165.454 133.801 165.454Z" fill="#485A7E"/>
<path d="M117.022 56.6839C116.998 55.4849 116.242 54.7467 115.6 55.4037C115.148 55.8658 115.12 56.8488 115.234 57.4433C115.329 57.9342 115.678 58.6299 116.277 58.4576C116.955 58.2665 117.037 57.4596 117.022 56.6839Z" fill="#252730"/>
<path d="M112.922 51.8361C113.067 51.595 113.313 51.3727 113.622 51.2266C114.863 50.6458 116.349 50.6508 117.669 50.9056C118.309 51.0317 120.904 51.7062 120.566 52.7354C120.445 53.1001 115.592 53.0302 114.307 53.1101C113.213 53.1763 112.381 52.7367 112.922 51.8361Z" fill="#524242"/>
<path d="M103.351 51.95C103.189 51.7215 102.928 51.5179 102.609 51.3955C101.345 50.9083 99.8432 50.9983 98.5554 51.343C97.9209 51.5129 95.3864 52.4134 95.792 53.3977C95.9388 53.7549 100.774 53.3365 102.06 53.3202C103.155 53.3077 103.954 52.8106 103.351 51.95Z" fill="#524242"/>
<path d="M130.534 91.5156L108.815 101.053L89.5498 90.6025C89.5498 90.6025 98.2083 84.4935 99.3405 82.6349C99.3729 82.5887 99.3965 82.5488 99.4201 82.5013C99.5844 82.1978 99.6852 81.7182 99.7399 81.1311C100.03 78.2308 99.1775 72.6801 99.1775 72.6801L117.828 71.3799C117.828 71.3799 117.655 77.9798 117.976 81.1761C118.046 81.8356 118.133 82.3527 118.25 82.6349C118.258 82.6599 118.265 82.6824 118.281 82.7061C119.055 84.3986 130.534 91.5156 130.534 91.5156Z" fill="#FEA689"/>
<path d="M84.6389 91.898C84.6389 91.898 90.8052 89.6548 92.9926 87.424C95.1786 85.192 97.8276 84.2314 97.8276 84.2314C97.8276 84.2314 102.262 87.5177 107.248 87.1442C112.234 86.772 120.762 84.6349 122.245 85.4717C123.728 86.3073 127.327 88.8741 129.867 89.9345C132.408 90.9925 137.01 92.6687 137.01 92.6687C137.01 92.6687 123.264 97.3688 122.801 97.6486C122.337 97.9296 95.0455 100.035 93.8312 99.7869C92.6156 99.5371 84.6389 91.898 84.6389 91.898Z" fill="white"/>
<path d="M108.658 66.871C108.591 66.871 108.523 66.851 108.46 66.8123C107.639 66.2889 106.248 65.3197 106.149 64.6939C106.054 64.1119 107.038 59.9651 107.341 58.7098C107.389 58.5087 107.59 58.3888 107.79 58.4337C107.989 58.4825 108.111 58.6823 108.062 58.8834C107.455 61.3952 106.848 64.2143 106.882 64.584C106.955 64.8063 107.881 65.562 108.857 66.1865C109.032 66.2939 109.081 66.525 108.972 66.6974C108.902 66.8098 108.781 66.871 108.658 66.871Z" fill="#F2835E"/>
<path d="M109.276 80.478C105.089 80.478 100.478 76.6372 100.284 76.4724C100.127 76.34 100.106 76.1064 100.238 75.9503C100.369 75.7916 100.603 75.7717 100.76 75.9028C100.805 75.9415 105.36 79.7361 109.276 79.7361C113.408 79.7361 116.354 75.9977 116.382 75.9615C116.508 75.7979 116.742 75.7692 116.904 75.8953C117.066 76.0202 117.094 76.2538 116.969 76.4174C116.839 76.5823 113.767 80.478 109.276 80.478Z" fill="#F2835E"/>
<path d="M120.92 53.8959C120.92 53.8959 123.785 51.6926 125.624 53.5087C127.794 55.6546 127.111 59.0282 125.328 61.1815C124.441 62.252 123.772 63.0276 122.432 63.3936C122.138 63.4723 120.043 63.852 120.052 63.7546C120.052 63.7533 120.92 53.8959 120.92 53.8959Z" fill="#FEA689"/>
<path d="M124.168 59.9622C124.145 59.9622 124.123 59.961 124.099 59.956C123.898 59.9185 123.766 59.7249 123.803 59.5213L123.995 58.5009C124.17 57.5653 123.911 56.2164 123.909 56.2026C123.87 56.0003 124.001 55.8067 124.201 55.7667C124.401 55.7243 124.597 55.8567 124.637 56.0602C124.648 56.1202 124.926 57.5603 124.724 58.6395L124.532 59.6612C124.498 59.8386 124.343 59.9622 124.168 59.9622Z" fill="#F2835E"/>
<path d="M95.7347 54.8352C95.7347 54.8352 92.2584 52.9304 90.5538 54.8739C88.5419 57.1684 89.4614 60.4871 91.3937 62.5055C92.3542 63.511 93.5424 64.203 94.9048 64.4715C95.2035 64.5302 97.3186 64.7051 97.3037 64.6052L95.7347 54.8352Z" fill="#FEA689"/>
<path d="M92.9067 61.2626C92.7437 61.2626 92.5931 61.1527 92.5496 60.9878L92.2846 59.9824C92.0059 58.9219 92.1813 57.4631 92.1888 57.4019C92.2149 57.1995 92.3965 57.0471 92.6018 57.0809C92.8046 57.1046 92.9502 57.2895 92.9253 57.4943C92.9228 57.5068 92.7599 58.872 93.0012 59.7925L93.2662 60.7955C93.3185 60.9966 93.2003 61.1989 93.0012 61.2514C92.9701 61.2601 92.939 61.2626 92.9067 61.2626Z" fill="#F2835E"/>
<path d="M104.208 69.1803C104.208 69.1803 106.278 69.2515 108.671 69.2403C111.062 69.2315 113.111 68.8193 113.111 68.8193C113.111 68.8193 112.646 70.8728 108.711 71.0201C104.988 71.1613 104.208 69.1803 104.208 69.1803Z" fill="#F2835E"/>
<path d="M75.5137 159.888C75.5137 159.888 75.5137 173.792 75.6904 187.048C75.8347 197.887 80.3201 260.386 81.3304 267.733C82.3407 275.08 87.6933 338.926 87.4407 340.536C87.1894 342.149 109.842 341.55 109.842 339.189C109.842 336.83 113.957 301.016 112.066 288C109.425 269.812 114.174 246.718 113.416 240.853C112.658 234.986 108.53 157.229 108.53 157.229L75.5137 159.888Z" fill="#485A7E"/>
<path d="M91.7022 89.4561C91.7022 89.4561 100.857 95.6812 109.288 95.5726C117.719 95.4652 127.844 90.2842 127.844 90.2842L131.738 91.3583C131.738 91.3583 133.728 124.96 133.728 136.844C133.728 148.73 135.053 163.954 134.865 168.55C134.675 173.148 82.9541 170.22 80.1124 168.55C77.2706 166.881 87.498 91.8904 87.498 91.8904L91.7022 89.4561Z" fill="white"/>
<path d="M144.512 123.386C144.512 123.386 141.711 142.642 143.565 146.082C145.419 149.522 142.668 155.082 142.931 157.229C143.194 159.375 140.556 164.26 140.556 164.26C140.556 164.26 138.911 165.088 136.984 166.765C135.056 168.443 135.501 169.762 133.554 171.693C131.149 174.076 126.106 174.514 122.952 174.985C118.173 175.697 113.348 175.973 108.526 176.195C104.419 176.385 100.2 176.68 96.1055 176.169C90.2117 175.433 87.9148 187.449 83.483 186.426C79.0511 185.403 75.4354 186.891 74.9713 185.031C74.5085 183.172 76.5403 160.059 76.6398 153.209C76.7393 146.36 74.3231 100.251 75.6208 97.0914C76.9185 93.9313 91.7022 89.4561 91.7022 89.4561L144.512 123.386Z" fill="white"/>
<path d="M94.1818 86.2759C94.1818 86.2759 90.9556 117.727 94.0388 125.077C97.1232 132.425 93.9243 136.858 94.9221 143.468C95.92 150.079 96.7387 183.965 96.9776 190.262C97.2177 196.558 98.4283 202.323 97.4529 203.809C96.4762 205.296 73.4831 204.426 72.28 204.768C71.0781 205.11 71.9988 201.206 72.28 198.604C72.5612 196.001 70.7073 193.584 70.7073 188.378C70.7073 183.172 71.5384 164.092 72.28 160.79C73.0215 157.488 74.2247 98.6713 75.0608 96.8602C75.8981 95.0466 94.1818 86.2759 94.1818 86.2759Z" fill="#79B3D1"/>
<path d="M82.5163 102.132L81.2522 104.919L85.7139 106.956L85.4427 101.526L82.5163 102.132Z" fill="#DE684E"/>
<path d="M82.5161 102.132L94.0612 147.708L127.65 139.975L116.834 93.314L82.5161 102.132Z" fill="#DE684E"/>
<path d="M82.7439 105.622L84.0939 103.305L115.984 95.0156L126.637 141.153L125.231 143.468L82.7439 105.622Z" fill="white"/>
<path d="M81.2522 104.919L92.3332 152.393L126.166 143.836L115.13 96.2256L81.2522 104.919Z" fill="#DE684E"/>
<path d="M81.0817 109.205L79.5227 113.426L83.5452 115.265V109.205H81.0817Z" fill="#DBC7BF"/>
<path d="M81.0815 109.205L91.0713 152.003L121.772 143.321L112.02 101.252L81.0815 109.205Z" fill="#DBC7BF"/>
<path d="M80.8677 114.06L82.5026 110.26L111.254 102.787L120.858 144.38L119.172 148.182L80.8677 114.06Z" fill="white"/>
<path d="M79.5227 113.426L89.5125 156.225L120.016 148.514L110.064 105.591L79.5227 113.426Z" fill="#DBC7BF"/>
<path d="M88.5518 117.825L90.4927 125.484L106.74 121.19L104.855 113.55L88.5518 117.825Z" fill="white"/>
<path d="M90.2478 119.288C90.0823 119.288 89.9318 119.178 89.8882 119.008C89.8372 118.81 89.9567 118.607 90.1557 118.557L103.617 115.088C103.816 115.038 104.018 115.156 104.067 115.357C104.118 115.555 103.999 115.758 103.801 115.808L90.3399 119.277C90.3088 119.284 90.2777 119.288 90.2478 119.288Z" fill="#F2E2DA"/>
<path d="M94.9224 121.213C94.7544 121.213 94.6014 121.096 94.5615 120.925C94.5143 120.725 94.6387 120.524 94.8378 120.478L100.285 119.195C100.483 119.144 100.683 119.273 100.73 119.474C100.778 119.671 100.653 119.872 100.454 119.919L95.007 121.201C94.9784 121.21 94.9497 121.213 94.9224 121.213Z" fill="#F2E2DA"/>
<path d="M91.3364 123.759C91.1734 123.759 91.0241 123.65 90.978 123.483C90.9258 123.285 91.0427 123.08 91.2406 123.028L104.593 119.412C104.789 119.36 104.994 119.475 105.049 119.674C105.102 119.872 104.984 120.077 104.786 120.13L91.4334 123.747C91.4011 123.754 91.3687 123.759 91.3364 123.759Z" fill="#F2E2DA"/>
<path d="M98.8862 129.904L71.8308 140.414L73.1173 152.371L79.6532 157.228L103.484 139.101L101.427 129.671L98.8862 129.904Z" fill="#FEA689"/>
<path d="M122.523 123.771C122.373 123.599 121.955 123.241 121.772 123.166C122.231 122.745 122.538 122.509 122.597 121.864C122.766 120.029 119.318 121.002 118.029 121.26C116.706 121.525 111.586 123.244 111.586 123.244C111.586 123.244 114.387 121.177 115.757 120.641C116.465 120.364 117.303 120.015 117.954 119.623C119.464 118.72 119.774 117.697 118.537 117.356C117.659 117.114 116.127 117.472 114.932 117.975C110.825 119.703 106.726 121.606 103.151 124.302C102.941 124.46 102.731 124.622 102.524 124.786C100.69 126.234 96.1055 131.952 96.1055 131.952C96.1055 131.952 99.8493 133.508 101.244 135.509C102.052 136.667 102.764 137.886 103.484 139.102C106.004 138.241 107.093 137.241 109.547 136.196C111.226 135.481 113.442 134.187 115.108 133.437C116.224 132.938 118.993 131.897 119.909 131.027C120.702 130.273 120.843 129.127 119.519 128.852C118.927 128.731 117.184 129.167 116.498 129.403C117.493 128.68 121.828 126.726 122.431 125.854C122.808 125.311 122.989 124.308 122.523 123.771Z" fill="#FEA689"/>
<path d="M112.513 127.537C112.37 127.537 112.234 127.452 112.173 127.313C112.09 127.125 112.176 126.906 112.364 126.822L120.93 123.045C121.118 122.964 121.337 123.05 121.419 123.238C121.501 123.425 121.415 123.645 121.229 123.726L112.661 127.503C112.612 127.525 112.563 127.537 112.513 127.537Z" fill="#F2835E"/>
<path d="M113.416 131.392C113.282 131.392 113.151 131.32 113.086 131.19C112.993 131.007 113.065 130.784 113.248 130.689L115.89 129.342C116.071 129.249 116.295 129.32 116.389 129.504C116.482 129.688 116.408 129.911 116.226 130.004L113.584 131.353C113.531 131.378 113.473 131.392 113.416 131.392Z" fill="#F2835E"/>
<path d="M123.064 85.9648C123.064 85.9648 138.492 90.3365 144.702 95.0154C150.913 99.693 152.972 106.249 154.827 110.018C156.68 113.786 161.547 121.639 162.289 125.077C163.031 128.512 166.924 132.975 167.665 135.112C168.407 137.249 151.151 146.168 149.297 147.014C147.443 147.861 140.098 142.701 137.782 141.769C135.464 140.835 131.267 131.068 130.835 130.348C130.402 129.627 128.254 119.997 127.844 116.91C127.436 113.823 123.064 85.9648 123.064 85.9648Z" fill="#79B3D1"/>
<path d="M150.052 141.374C150.052 141.374 146.873 140.755 146.688 144.568C146.502 148.378 148.542 150.581 147.244 152.003C145.946 153.425 144.599 159.253 144.599 159.253C144.599 159.253 152.341 166.719 153.454 167.276C154.566 167.834 167.451 157.608 169.397 152.773C171.344 147.941 170.651 142.951 168.873 136.91C167.791 133.236 158.492 122.186 158.492 122.186C158.492 122.186 152.527 132.603 152.527 133.344C152.527 134.089 150.052 141.374 150.052 141.374Z" fill="#79B3D1"/>
<path d="M63.6626 140.519C63.6626 140.519 66.8764 137.387 72.932 136.761C78.9876 136.135 80.1957 135.233 82.7438 133.826C85.2908 132.417 88.5518 133.921 88.5518 133.921C88.5518 133.921 93.8559 147.09 93.6494 148.73C93.4428 150.369 91.5068 151.406 87.6572 155.359C83.8076 159.312 82.6953 160.409 78.8656 160.79C75.0335 161.172 69.2242 164.492 67.7411 158.247C66.258 152 63.6626 140.519 63.6626 140.519Z" fill="#79B3D1"/>
<path d="M124.838 44.9654C124.818 41.6479 124.485 38.8726 121.313 37.1264C118.411 35.5289 114.723 35.0655 111.478 34.7583C108.685 34.4935 104.234 33.3294 101.901 35.4615C101.886 35.4739 101.886 35.4927 101.877 35.5064C100.272 36.1934 99.5259 37.2563 98.2381 38.5903C96.546 40.3439 94.3039 41.4169 92.5148 43.0568C90.9296 44.5095 90.0052 46.4555 89.887 48.6051C89.8273 49.6767 89.9517 50.7522 90.1756 51.7988C90.2976 52.3759 90.4083 55.2974 91.5256 54.7878C91.5866 54.7603 91.6426 54.7241 91.6998 54.6916C91.8802 55.0576 92.0942 55.3973 92.3655 55.6496C92.5309 55.8045 92.8731 55.7633 92.9179 55.5022C93.1506 54.132 93.1331 52.7456 93.158 51.3604C93.4156 51.8738 93.7266 52.3871 94.1385 52.7943C94.2878 52.9417 94.9771 53.8273 95.2035 53.6999C95.4088 53.5837 94.9161 51.8775 94.8688 51.5977C94.6162 50.0927 94.5441 48.5726 94.8166 47.0625C94.9708 46.2094 95.1699 45.2202 95.4548 44.2534C97.086 42.561 99.0556 41.4968 101.192 40.941C102.684 40.0417 105.05 42.2212 106.053 43.213C106.797 43.9499 107.566 44.7955 108.428 45.4525C109.359 46.1644 110.511 46.5117 111.396 47.2861C112.758 48.4802 113.7 50.0365 114.974 51.3042C115.075 51.4066 115.214 51.333 115.24 51.223C115.273 51.1968 115.298 51.1631 115.296 51.1219C115.247 49.8791 114.932 48.7787 114.459 47.7545C114.974 48.4827 115.432 49.2271 115.89 50.0952C116.713 51.654 118.233 53.0241 120.037 53.1815C120.354 54.2869 120.49 55.4298 120.899 56.5052C120.909 56.5314 120.929 56.5464 120.948 56.5652C120.94 56.805 121.272 56.9037 121.349 56.6488C121.582 55.8882 121.822 55.15 122.044 54.4143C122.075 55.2225 122.192 56.0531 122.54 56.7912C122.637 56.9986 123.027 57.733 123.32 57.698C123.636 57.6581 123.731 56.5414 123.779 56.2666C123.982 55.095 124.541 53.0766 124.842 51.9287C125.495 49.4244 124.852 47.2411 124.838 44.9654Z" fill="#524242"/>
<path d="M98.4509 40.8223C98.3078 40.8223 98.1697 40.7362 98.11 40.595C98.0577 40.4739 96.8446 37.5911 96.6182 35.9299C96.4278 34.5422 95.6203 34.1213 95.5855 34.105C95.4038 34.0138 95.3279 33.7928 95.4163 33.6092C95.5046 33.4243 95.7211 33.3481 95.9065 33.433C95.955 33.458 97.1047 34.0188 97.3523 35.8287C97.5663 37.3912 98.7806 40.2753 98.7931 40.3052C98.8727 40.4938 98.7843 40.7124 98.5965 40.7911C98.5492 40.8136 98.4994 40.8223 98.4509 40.8223Z" fill="#362828"/>
<path d="M92.7025 50.8906C92.5283 50.8906 92.3728 50.767 92.3392 50.5884C92.3106 50.4385 91.6412 46.88 92.5557 44.1671C93.4839 41.4155 95.8976 39.9678 96.0009 39.9054C96.1776 39.8017 96.404 39.8617 96.5073 40.0378C96.6118 40.2139 96.5533 40.4412 96.3767 40.5461C96.3543 40.5599 94.0948 41.9226 93.2574 44.4057C92.4076 46.93 93.0608 50.4123 93.0671 50.4472C93.1056 50.6508 92.9737 50.8444 92.7734 50.8832C92.7485 50.8881 92.7262 50.8906 92.7025 50.8906Z" fill="#362828"/>
<path d="M91.5032 54.0855C91.334 54.0855 91.181 53.9681 91.1424 53.7945C91.1138 53.6658 90.4332 50.6069 90.3685 48.6135C90.3051 46.6288 90.3673 45.943 90.3698 45.9143C90.3897 45.7095 90.5688 45.5558 90.7729 45.5796C90.9769 45.5996 91.1275 45.7794 91.1076 45.9843C91.1076 45.9918 91.0479 46.6687 91.1088 48.5897C91.171 50.5108 91.8591 53.6009 91.8666 53.6309C91.9101 53.8319 91.7857 54.0318 91.5854 54.0768C91.558 54.083 91.5306 54.0855 91.5032 54.0855Z" fill="#362828"/>
<path d="M97.3036 33.4404C97.2427 33.4404 97.1817 33.4241 97.1245 33.3929C96.9453 33.2942 96.8806 33.0682 96.9777 32.8895C97.0536 32.7522 98.8676 29.5371 104.029 28.1694C106.862 27.42 109.763 27.6074 109.885 27.6136C110.09 27.6274 110.243 27.8047 110.23 28.0096C110.216 28.2144 110.043 28.3743 109.835 28.3555C109.807 28.3543 106.93 28.1707 104.219 28.8876C99.3616 30.1741 97.6446 33.2155 97.6271 33.2468C97.5612 33.3692 97.4343 33.4404 97.3036 33.4404Z" fill="#362828"/>
<path d="M120.441 34.5758C120.307 34.5758 120.178 34.5022 120.113 34.3748C120.096 34.346 118.57 31.4745 115.2 30.4191C111.794 29.3499 109.963 29.7496 109.945 29.7533C109.748 29.7958 109.547 29.6746 109.499 29.476C109.453 29.2774 109.577 29.0763 109.776 29.0314C109.854 29.0114 111.795 28.5717 115.421 29.7071C119.095 30.86 120.704 33.9026 120.771 34.0325C120.864 34.2136 120.793 34.4385 120.611 34.5334C120.558 34.5621 120.498 34.5758 120.441 34.5758Z" fill="#362828"/>
<path d="M124.776 52.1047C124.751 52.1047 124.725 52.1022 124.7 52.0959C124.5 52.0559 124.371 51.8586 124.413 51.6575C124.419 51.6225 125.147 47.9903 124.429 46.0818C123.662 44.0459 123.167 42.6532 123.167 42.6532C123.099 42.4596 123.198 42.246 123.391 42.1773C123.584 42.1049 123.795 42.2098 123.865 42.4021C123.865 42.4046 124.359 43.7898 125.122 45.8195C125.916 47.9291 125.17 51.6475 125.138 51.8074C125.102 51.9835 124.948 52.1047 124.776 52.1047Z" fill="#362828"/>
<path d="M113.971 47.166C113.867 47.166 113.762 47.1223 113.689 47.0349L110.772 43.5838C110.639 43.4264 110.659 43.1903 110.816 43.0592C110.971 42.9268 111.207 42.9443 111.338 43.1029L114.254 46.554C114.387 46.7101 114.367 46.9462 114.211 47.0786C114.142 47.1373 114.057 47.166 113.971 47.166Z" fill="#362828"/>
<path d="M123.064 85.9648C123.064 85.9648 121.565 97.6995 123.064 102.787C124.562 107.873 127.715 135.108 128.919 138.828C130.125 142.549 134.666 158.073 136.428 160.954C138.188 163.836 138.813 165.34 138.813 165.34L141.199 165.453C141.199 165.453 143.602 160.124 144.599 157.887C145.597 155.65 144.599 151.194 144.599 151.194C144.599 151.194 135.593 100.883 135.593 100.661C135.593 100.439 131.682 90.7824 130.828 90.6375C129.972 90.4913 123.064 85.9648 123.064 85.9648Z" fill="#79B3D1"/>
<path d="M111.368 260.787C111.365 260.787 111.362 260.787 111.36 260.787C111.154 260.784 110.993 260.611 110.998 260.406C111.004 260.143 111.607 233.902 111.001 229.705C110.388 225.453 110.38 222.591 110.38 222.562C110.38 222.357 110.546 222.191 110.751 222.191C110.955 222.191 111.122 222.357 111.122 222.562C111.122 222.589 111.129 225.403 111.735 229.599C112.35 233.857 111.764 259.342 111.739 260.425C111.734 260.627 111.57 260.787 111.368 260.787Z" fill="#324366"/>
<path d="M109.707 201.929C109.508 201.929 109.345 201.771 109.338 201.57L108.527 177.793C108.52 177.588 108.681 177.416 108.885 177.408C109.096 177.426 109.261 177.563 109.268 177.768L110.078 201.545C110.086 201.749 109.925 201.922 109.721 201.929C109.716 201.929 109.712 201.929 109.707 201.929Z" fill="#324366"/>
<path d="M110.725 197.841C110.577 197.841 110.438 197.752 110.379 197.607C110.305 197.418 110.397 197.2 110.587 197.124C110.607 197.117 112.555 196.313 113.059 194.536C113.493 193.012 113.24 182.919 113.046 177.794C113.038 177.59 113.197 177.417 113.401 177.408C113.602 177.399 113.778 177.562 113.786 177.767C113.809 178.376 114.346 192.722 113.772 194.74C113.166 196.874 110.955 197.777 110.861 197.815C110.816 197.832 110.77 197.841 110.725 197.841Z" fill="#324366"/>
<path d="M142.037 186.86C141.889 186.86 141.748 186.771 141.692 186.624L140.485 183.546C140.411 183.355 140.505 183.139 140.696 183.064C140.887 182.99 141.102 183.083 141.177 183.274L142.381 186.353C142.456 186.544 142.363 186.759 142.172 186.835C142.128 186.851 142.082 186.86 142.037 186.86Z" fill="#324366"/>
<path d="M143.471 142.533C143.297 142.533 143.142 142.408 143.108 142.232C143.081 142.093 140.47 128.468 139.324 122.918C138.406 118.471 138.427 113.953 138.446 109.969C138.451 108.909 138.457 107.902 138.442 106.961C138.374 102.554 140.18 98.2306 140.258 98.0482C140.337 97.8584 140.555 97.7697 140.743 97.8521C140.931 97.9308 141.019 98.1507 140.939 98.3393C140.922 98.383 139.118 102.703 139.184 106.95C139.199 107.893 139.193 108.909 139.188 109.974C139.169 113.922 139.149 118.396 140.051 122.768C141.198 128.324 143.81 141.954 143.836 142.092C143.875 142.292 143.743 142.488 143.541 142.525C143.519 142.53 143.495 142.533 143.471 142.533Z" fill="#485A7E"/>
<path d="M148.198 146.453C148.126 146.453 148.053 146.432 147.988 146.385C147.819 146.268 147.778 146.037 147.895 145.867C147.992 145.729 150.316 142.416 154.256 140.63C158.274 138.805 161.5 140.569 161.636 140.644C161.814 140.744 161.877 140.968 161.778 141.15C161.678 141.328 161.454 141.394 161.274 141.293C161.244 141.274 158.228 139.644 154.562 141.306C150.814 143.007 148.527 146.259 148.504 146.293C148.432 146.397 148.316 146.453 148.198 146.453Z" fill="#485A7E"/>
<path d="M149.868 147.479C149.709 147.479 149.561 147.375 149.512 147.215C149.455 147.015 149.566 146.808 149.762 146.752L159.124 143.939C159.32 143.879 159.527 143.993 159.585 144.189C159.644 144.385 159.533 144.592 159.336 144.651L149.975 147.464C149.939 147.472 149.903 147.479 149.868 147.479Z" fill="#485A7E"/>
<path d="M55.8764 144.667C55.808 144.667 55.7408 144.649 55.6786 144.609C55.5057 144.5 55.4534 144.27 55.5629 144.096C55.6226 144.001 57.046 141.778 60.0757 140.353C63.1004 138.93 69.1771 137.133 72.2466 137.604C75.0411 138.025 81.557 134.068 81.6217 134.025C81.7971 133.918 82.0261 133.973 82.1318 134.149C82.2388 134.325 82.1828 134.552 82.0087 134.66C81.7324 134.829 75.209 138.808 72.1346 138.338C69.3177 137.906 63.3952 139.613 60.3905 141.026C57.5561 142.36 56.2037 144.473 56.19 144.493C56.1203 144.604 55.9996 144.667 55.8764 144.667Z" fill="#485A7E"/>
<path d="M57.2674 147.479C57.1604 147.479 57.0534 147.433 56.98 147.343C56.8506 147.184 56.8743 146.949 57.0323 146.819L64.6332 140.589C64.7924 140.455 65.0251 140.48 65.1557 140.642C65.2851 140.799 65.2615 141.034 65.1035 141.164L57.5013 147.395C57.4329 147.45 57.3495 147.479 57.2674 147.479Z" fill="#485A7E"/>
<path d="M77.5667 131.28C77.3627 131.28 77.1959 131.115 77.1959 130.907L77.2009 130.729C77.2693 128.367 77.2457 122.214 75.5411 116.156C73.518 108.964 72.3908 100.663 72.3796 100.58C72.3522 100.377 72.4953 100.189 72.6969 100.162C72.9059 100.125 73.0875 100.277 73.1149 100.48C73.1261 100.563 74.2471 108.812 76.2553 115.954C77.9872 122.11 78.0121 128.353 77.9412 130.751L77.9375 130.907C77.9375 131.115 77.772 131.28 77.5667 131.28Z" fill="#485A7E"/>
<path d="M83.3287 199.554C79.0337 199.554 74.8904 198.854 74.8407 198.847C74.6391 198.81 74.5035 198.619 74.5371 198.417C74.5732 198.215 74.766 198.08 74.9651 198.113C75.0236 198.123 80.7718 199.096 85.6865 198.728C90.5937 198.365 94.3537 197.129 94.3898 197.117C94.5839 197.052 94.7941 197.158 94.8588 197.352C94.9235 197.548 94.8178 197.758 94.6237 197.822C94.5863 197.835 90.7442 199.1 85.7412 199.471C84.9487 199.529 84.1362 199.554 83.3287 199.554Z" fill="#485A7E"/>
<path d="M75.5137 167.669C75.4179 167.669 75.3221 167.632 75.2499 167.558C75.1056 167.411 75.1093 167.176 75.2561 167.032L86.5498 155.961C86.6967 155.819 86.9331 155.82 87.0761 155.967C87.218 156.113 87.2155 156.351 87.0699 156.492L75.7737 167.563C75.7015 167.635 75.6082 167.669 75.5137 167.669Z" fill="#485A7E"/>
<path d="M125.892 171.955C125.755 171.955 125.623 171.878 125.559 171.747C125.469 171.562 125.545 171.34 125.728 171.249C125.76 171.233 129.056 169.588 130.672 167.095C132.411 164.414 135.394 163.229 135.521 163.179C135.71 163.105 135.925 163.2 136 163.391C136.075 163.583 135.98 163.797 135.79 163.872C135.761 163.884 132.899 165.025 131.294 167.5C129.565 170.168 126.198 171.847 126.055 171.917C126.002 171.943 125.946 171.955 125.892 171.955Z" fill="#F2E2DA"/>
<path d="M119.464 173.319C119.339 173.319 119.216 173.254 119.147 173.138C119.041 172.962 119.099 172.733 119.274 172.628C119.306 172.608 122.544 170.656 123.893 169.051L125.298 167.377C125.429 167.22 125.664 167.201 125.821 167.332C125.978 167.465 125.998 167.699 125.866 167.857L124.46 169.529C123.03 171.23 119.792 173.184 119.655 173.265C119.595 173.301 119.529 173.319 119.464 173.319Z" fill="#F2E2DA"/>
<path d="M106.068 90.0353C101.11 90.0353 96.933 86.4206 96.7339 86.2445C96.5796 86.1096 96.5647 85.8772 96.6991 85.7199C96.8347 85.5662 97.0686 85.5513 97.2229 85.6874C97.2739 85.7311 102.526 90.2614 107.954 89.0923C113.568 87.8795 118.61 86.8178 119.946 86.5617C121.269 86.3107 121.753 86.3069 121.772 86.3069C121.978 86.3069 122.143 86.4743 122.143 86.6791C122.143 86.884 121.978 87.0513 121.772 87.0513C121.77 87.0513 121.317 87.0576 120.085 87.2912C118.754 87.5447 113.719 88.6089 108.111 89.8192C107.422 89.9691 106.737 90.0353 106.068 90.0353Z" fill="#F2E2DA"/>
<path d="M103.484 175.729C103.413 175.729 103.343 175.709 103.281 175.668C103.15 175.583 100.072 173.549 98.6238 170.894C97.2066 168.3 96.6554 166.88 96.633 166.821C96.5584 166.63 96.6542 166.414 96.8446 166.34C97.0337 166.264 97.2502 166.362 97.3236 166.553C97.3298 166.567 97.8835 167.993 99.2733 170.537C100.632 173.025 103.655 175.026 103.685 175.046C103.857 175.159 103.905 175.388 103.793 175.561C103.723 175.669 103.603 175.729 103.484 175.729Z" fill="#F2E2DA"/>
<path d="M142.037 161.444C141.907 161.444 141.782 161.377 141.715 161.256C141.686 161.206 138.98 156.372 137.428 152.532C135.867 148.667 135.309 143.699 135.286 143.491C135.263 143.286 135.41 143.103 135.614 143.081C135.819 143.056 136.001 143.206 136.024 143.408C136.028 143.459 136.592 148.483 138.116 152.254C139.65 156.05 142.333 160.842 142.359 160.89C142.46 161.069 142.398 161.297 142.218 161.397C142.16 161.429 142.099 161.444 142.037 161.444Z" fill="#485A7E"/>
</g>
<defs>
<clipPath id="clip0_2366_3475">
<path d="M0 50C0 22.3858 22.3858 0 50 0H208C235.614 0 258 22.3858 258 50V209C258 236.614 235.614 259 208 259H50C22.3858 259 0 236.614 0 209V50Z" fill="white"/>
</clipPath>
</defs>
</svg>
