<svg width="276" height="271" viewBox="0 0 276 271" fill="none" xmlns="http://www.w3.org/2000/svg">
<path d="M185.525 168.473C179.135 145.801 154.663 130.528 131.135 135.261C105.663 140.382 89.929 164.72 95.1453 189.569C96.6081 196.535 99.6601 203.167 104.118 208.779C118.515 226.909 147.352 231.486 166.798 218.601C174.571 213.452 180.551 205.847 183.973 197.297C185.685 193.022 186.762 188.499 187.101 183.917C187.489 178.693 186.932 173.463 185.525 168.473Z" fill="#D892C0"/>
<path d="M143.105 151.093C142.688 148.49 139.834 145.909 137.039 145.14C133.85 144.138 130.44 144.716 127.229 145.456C123.412 146.334 119.663 147.706 116.347 149.786C111.225 152.999 105.358 159.289 106.225 165.774C107.293 173.783 116.917 171.377 122.464 171.01C125.882 170.782 128.37 169.4 130.903 167.216C132.219 166.079 133.488 164.857 134.977 163.937C136.565 162.957 138.26 162.37 139.489 160.918C141.519 158.521 143.613 154.275 143.105 151.093Z" fill="#211736"/>
<path d="M177.738 159.51C176.357 156.995 174.324 155.164 172.002 153.5C169.5 151.708 167.031 149.63 164.131 148.497C164.068 148.474 164.012 148.463 163.956 148.459C162.062 147.395 159.971 146.618 157.766 146.615C155.945 146.613 153.481 147.137 152.765 149.038C152.038 150.975 153.656 152.835 155.027 154.012C157.007 155.714 159.079 157.436 161.254 158.895C163.463 160.377 165.367 162.22 167.59 163.669C169.838 165.137 172.497 166.516 175.064 167.365C176.715 167.913 178.323 167.307 178.984 165.65C179.781 163.647 178.707 161.274 177.738 159.51Z" fill="#9487FE"/>
<path d="M128.61 174.907C127.987 174.676 127.256 174.958 126.652 175.263C125.299 175.738 123.813 176.66 123.423 177.947C123.228 178.589 123.545 179.187 124.261 179.21C125.137 179.236 126.099 178.57 126.806 178.144C127.482 177.735 130.604 175.65 128.61 174.907Z" fill="#211736"/>
<path d="M102.586 166.667C101.701 165.657 100.847 166.232 100.216 167.283C99.5536 168.037 99.2408 169.491 99.125 170.204C98.9853 171.053 98.8948 172.628 100.07 172.811C101.217 172.99 102.107 171.001 102.449 170.184C102.853 169.217 103.386 167.578 102.586 166.667Z" fill="#FFF4ED"/>
<path d="M160.338 204.24C157.274 203.757 153.623 204.71 150.685 205.505C149.899 205.719 149.098 205.874 148.293 206.006C145.86 206.258 143.429 206.576 141.057 207.167C138.624 207.772 135.431 208.636 133.769 210.629C132.506 212.143 132.468 214.191 133.98 215.554C136.214 217.571 139.463 216.725 142.173 217.231C143.62 217.502 145.024 218.005 146.516 217.762C147.948 217.529 149.177 216.644 150.539 216.203C153.47 215.251 156.537 215.394 159.238 213.736C161.194 212.538 163.517 210.74 163.794 208.322C164.051 206.087 162.48 204.579 160.338 204.24Z" fill="#211736"/>
<path d="M118.524 204.979C118.296 203.064 116.673 202.173 115.475 200.876C113.699 198.954 112.241 197.424 109.72 196.385C108.312 195.803 106.468 195.438 105.228 196.603C104.718 197.081 104.489 197.652 104.509 198.206C104.361 198.937 104.601 199.679 105.301 200.508C106.118 201.475 107.252 202.161 108.19 203.004C109.229 203.935 110.15 204.987 111.216 205.888C112.535 207.001 114.57 208.386 116.436 208.108C117.959 207.878 118.691 206.385 118.524 204.979Z" fill="#211736"/>
<path d="M128.013 200.287C126.961 199.732 125.759 199.366 124.583 199.392C124.165 199.401 123.721 199.477 123.42 199.762C122.744 200.4 123.037 201.406 123.596 201.993C124.144 202.569 124.899 202.96 125.632 203.264C126.785 203.744 129.238 204.732 130.18 203.381C130.968 202.249 129.631 201.304 128.781 200.742C128.538 200.581 128.281 200.428 128.013 200.287Z" fill="#9487FE"/>
<path d="M176.578 177.777C176.247 176.465 175.698 174.882 174.767 173.856C174.112 173.135 173.014 172.634 172.017 172.757C171.679 172.799 171.342 172.938 171.118 173.193C170.165 174.271 170.897 176.159 171.442 177.239C172.082 178.513 172.977 179.758 174.107 180.66C174.68 181.116 175.724 181.789 176.392 181.116C177.172 180.331 176.811 178.696 176.578 177.777Z" fill="#FFF4ED"/>
<path d="M216.192 181.332C216.229 181.291 216.267 181.252 216.303 181.213C216.356 181.156 216.409 181.098 216.458 181.041C216.505 180.987 216.551 180.933 216.595 180.88C216.627 180.842 216.657 180.804 216.687 180.766C216.723 180.72 216.759 180.675 216.794 180.629C216.819 180.596 216.844 180.562 216.868 180.528C216.919 180.459 216.967 180.388 217.013 180.319C217.033 180.289 217.053 180.259 217.072 180.228C217.104 180.178 217.134 180.128 217.164 180.079C217.18 180.053 217.196 180.024 217.212 179.998C217.252 179.927 217.288 179.858 217.321 179.791C217.333 179.769 217.343 179.745 217.355 179.722C217.379 179.668 217.405 179.616 217.426 179.566C217.435 179.543 217.446 179.521 217.455 179.498C217.482 179.43 217.508 179.362 217.53 179.298C217.535 179.283 217.54 179.267 217.544 179.253C217.563 179.198 217.579 179.143 217.592 179.089C217.598 179.071 217.603 179.053 217.608 179.034C217.623 178.97 217.638 178.906 217.648 178.845C217.65 178.837 217.651 178.829 217.652 178.821C217.662 178.765 217.667 178.712 217.674 178.657C217.676 178.642 217.676 178.625 217.678 178.608C217.682 178.55 217.685 178.491 217.685 178.436C217.685 178.377 217.684 178.317 217.682 178.257C217.68 178.237 217.678 178.216 217.676 178.197C217.676 178.156 217.674 178.116 217.67 178.076C217.667 178.05 217.664 178.026 217.66 177.999C217.656 177.963 217.652 177.927 217.647 177.892C217.644 177.863 217.639 177.836 217.634 177.807C217.63 177.773 217.623 177.738 217.618 177.704C217.612 177.675 217.606 177.644 217.599 177.614C217.592 177.581 217.586 177.547 217.578 177.515C217.57 177.483 217.563 177.45 217.555 177.419C217.546 177.388 217.538 177.355 217.528 177.324C217.52 177.288 217.51 177.254 217.499 177.22C217.49 177.189 217.481 177.159 217.47 177.129C217.459 177.092 217.447 177.057 217.434 177.022C217.423 176.992 217.414 176.963 217.403 176.934C217.389 176.895 217.374 176.857 217.359 176.819C217.349 176.792 217.337 176.766 217.326 176.738C217.309 176.696 217.292 176.656 217.273 176.614C217.264 176.592 217.253 176.57 217.242 176.547C217.22 176.5 217.198 176.453 217.174 176.406C217.169 176.396 217.164 176.385 217.16 176.377C216.999 176.057 216.796 175.729 216.549 175.395C216.492 175.316 216.442 175.254 216.392 175.19C216.385 175.182 216.38 175.174 216.373 175.166C216.323 175.103 216.271 175.041 216.217 174.976C216.211 174.969 216.205 174.962 216.196 174.953C216.143 174.889 216.087 174.825 216.028 174.76C216.023 174.753 216.016 174.746 216.011 174.74C215.951 174.673 215.889 174.605 215.825 174.54C212.429 170.988 203.715 166.87 183.968 163.942C184.474 165.19 184.925 166.463 185.315 167.764C187.019 168.041 188.6 168.33 190.072 168.624C190.412 168.69 190.739 168.758 191.065 168.828C191.202 168.856 191.343 168.884 191.478 168.914C191.776 168.976 192.063 169.041 192.351 169.105C192.505 169.139 192.661 169.174 192.813 169.208C193.087 169.271 193.353 169.333 193.619 169.396C193.772 169.433 193.925 169.468 194.076 169.504C194.333 169.567 194.586 169.63 194.835 169.694C194.981 169.731 195.127 169.767 195.271 169.805C195.515 169.868 195.753 169.931 195.987 169.995C196.126 170.032 196.264 170.069 196.4 170.107C196.631 170.171 196.859 170.235 197.083 170.299C197.209 170.336 197.336 170.372 197.459 170.41C197.682 170.476 197.903 170.541 198.116 170.608C198.227 170.641 198.335 170.675 198.444 170.711C198.663 170.779 198.881 170.848 199.091 170.917C199.174 170.943 199.251 170.971 199.332 170.998C200.373 171.347 201.302 171.699 202.131 172.049C202.2 172.078 202.272 172.108 202.34 172.137C202.497 172.205 202.646 172.273 202.795 172.34C202.877 172.378 202.96 172.415 203.039 172.45C203.176 172.516 203.309 172.578 203.441 172.644C203.523 172.683 203.606 172.725 203.687 172.764C203.81 172.827 203.931 172.889 204.048 172.951C204.128 172.993 204.205 173.033 204.282 173.076C204.394 173.138 204.503 173.198 204.611 173.259C204.685 173.301 204.757 173.343 204.829 173.387C204.932 173.446 205.031 173.506 205.129 173.566C205.198 173.608 205.263 173.651 205.33 173.693C205.421 173.753 205.515 173.812 205.603 173.872C205.665 173.914 205.724 173.957 205.785 174C205.867 174.058 205.953 174.117 206.031 174.175C206.088 174.217 206.142 174.259 206.196 174.302C206.272 174.36 206.348 174.418 206.418 174.476C206.466 174.514 206.509 174.553 206.554 174.591C206.683 174.701 206.804 174.812 206.919 174.919C206.965 174.965 207.015 175.01 207.059 175.055C207.108 175.103 207.152 175.154 207.197 175.204C207.242 175.251 207.288 175.299 207.33 175.348C207.373 175.395 207.41 175.443 207.449 175.49C207.489 175.538 207.53 175.587 207.566 175.635C207.6 175.681 207.634 175.727 207.666 175.772C207.7 175.822 207.733 175.872 207.765 175.917C207.796 175.963 207.823 176.008 207.848 176.052C207.879 176.1 207.906 176.149 207.933 176.197C207.956 176.239 207.978 176.282 208 176.325C208.024 176.375 208.046 176.423 208.068 176.47C208.086 176.512 208.103 176.551 208.119 176.591C208.139 176.641 208.155 176.69 208.173 176.74C208.186 176.777 208.198 176.815 208.21 176.852C208.225 176.903 208.238 176.954 208.25 177.005C208.257 177.037 208.266 177.073 208.273 177.107C208.285 177.162 208.291 177.217 208.298 177.271C208.303 177.299 208.307 177.326 208.31 177.352C208.318 177.435 208.322 177.515 208.322 177.592C208.322 177.647 208.318 177.701 208.311 177.758C208.308 177.777 208.304 177.794 208.303 177.812C208.296 177.853 208.29 177.895 208.279 177.937C208.274 177.958 208.267 177.98 208.262 178.002C208.25 178.042 208.238 178.086 208.223 178.127C208.215 178.15 208.207 178.172 208.198 178.195C208.181 178.242 208.158 178.295 208.135 178.343C208.127 178.36 208.121 178.377 208.113 178.393C208.08 178.462 208.041 178.531 208 178.602C207.99 178.615 207.982 178.628 207.974 178.641C207.937 178.7 207.9 178.759 207.857 178.819C207.84 178.842 207.824 178.865 207.805 178.889C207.768 178.94 207.728 178.993 207.686 179.045C207.664 179.07 207.643 179.096 207.62 179.122C207.575 179.177 207.526 179.232 207.474 179.287C207.453 179.312 207.433 179.332 207.41 179.357C207.339 179.43 207.264 179.505 207.182 179.581C207.178 179.586 207.173 179.59 207.169 179.595C207.08 179.677 206.985 179.76 206.886 179.845C206.864 179.863 206.839 179.881 206.818 179.9C206.738 179.965 206.657 180.03 206.571 180.097C206.537 180.122 206.504 180.147 206.469 180.171C206.386 180.234 206.3 180.296 206.212 180.358C206.175 180.383 206.139 180.409 206.102 180.434C206 180.503 205.894 180.573 205.785 180.642C205.756 180.66 205.729 180.677 205.701 180.696C205.416 180.875 205.105 181.054 204.764 181.234C204.724 181.256 204.683 181.277 204.642 181.299C204.508 181.369 204.373 181.438 204.233 181.507C204.181 181.532 204.128 181.558 204.076 181.584C203.933 181.652 203.787 181.721 203.637 181.789C203.585 181.813 203.537 181.835 203.484 181.86C203.296 181.944 203.102 182.03 202.899 182.114C202.885 182.12 202.873 182.127 202.858 182.132C202.63 182.227 202.395 182.321 202.151 182.417C202.125 182.427 202.098 182.438 202.071 182.447C201.86 182.528 201.644 182.609 201.42 182.69C201.357 182.712 201.293 182.736 201.227 182.758C201.032 182.828 200.832 182.898 200.626 182.967C200.553 182.99 200.481 183.017 200.406 183.041C200.188 183.113 199.96 183.186 199.729 183.258C199.671 183.277 199.616 183.296 199.556 183.313C198.961 183.498 198.33 183.68 197.659 183.86C197.599 183.877 197.535 183.894 197.473 183.909C197.202 183.982 196.924 184.053 196.639 184.125C196.546 184.148 196.453 184.171 196.36 184.194C196.09 184.259 195.814 184.326 195.531 184.393C195.436 184.415 195.343 184.437 195.247 184.458C194.921 184.534 194.588 184.608 194.248 184.682C194.197 184.692 194.148 184.704 194.097 184.713C193.689 184.802 193.268 184.888 192.835 184.974C192.823 184.976 192.811 184.978 192.801 184.981C192.397 185.061 191.985 185.139 191.563 185.217C191.458 185.236 191.349 185.257 191.242 185.275C190.903 185.336 190.558 185.398 190.205 185.458C190.079 185.479 189.951 185.501 189.822 185.523C189.465 185.582 189.101 185.641 188.731 185.7C188.613 185.719 188.499 185.736 188.38 185.756C187.895 185.832 187.402 185.905 186.894 185.978C175.655 187.588 158.823 188.567 133.85 187.936C117.392 187.519 104.525 186.681 94.4917 185.598C80.516 184.09 72.0481 182.104 67.0834 180.117C66.4472 179.863 65.8722 179.609 65.3491 179.357C65.3358 179.351 65.3225 179.344 65.3091 179.338C64.9258 179.152 64.5704 178.966 64.243 178.782C64.1259 178.716 64.0274 178.658 63.9315 178.602C63.9089 178.589 63.8863 178.576 63.865 178.563C63.5815 178.393 63.3193 178.223 63.0784 178.054C63.0571 178.04 63.0331 178.023 63.0118 178.007C62.9413 177.958 62.8721 177.908 62.8068 177.858C62.7776 177.837 62.7509 177.816 62.723 177.794C62.5207 177.64 62.3357 177.487 62.1666 177.337C62.1387 177.311 62.108 177.284 62.0814 177.258C62.0348 177.215 61.9909 177.173 61.947 177.13C61.9177 177.102 61.8884 177.073 61.8605 177.043C61.8205 177.002 61.7806 176.963 61.7433 176.922C61.6861 176.862 61.6315 176.801 61.5796 176.741C61.5504 176.706 61.5211 176.67 61.4918 176.634C61.4638 176.6 61.4359 176.564 61.4093 176.529C61.3826 176.495 61.3574 176.461 61.3321 176.427C61.3041 176.388 61.2775 176.35 61.2522 176.312C61.2322 176.282 61.2109 176.252 61.191 176.222C61.151 176.161 61.1138 176.098 61.0792 176.036C61.0632 176.009 61.0499 175.982 61.0339 175.954C61.0126 175.914 60.9913 175.872 60.9727 175.831C60.958 175.805 60.9461 175.776 60.9328 175.749C60.9128 175.703 60.8928 175.656 60.8755 175.61C60.8675 175.591 60.8596 175.571 60.8516 175.554C60.8289 175.49 60.809 175.429 60.7903 175.367C60.785 175.346 60.7797 175.324 60.773 175.303C60.7624 175.259 60.7517 175.214 60.7424 175.171C60.7371 175.149 60.7331 175.127 60.7291 175.107C60.7185 175.051 60.7105 174.999 60.7038 174.946C60.7038 174.937 60.7012 174.928 60.7012 174.92C60.6945 174.86 60.6905 174.8 60.6892 174.74C60.6892 174.722 60.6892 174.705 60.6892 174.688C60.6892 174.642 60.6892 174.599 60.6918 174.553C60.6932 174.537 60.6932 174.519 60.6945 174.502C60.6985 174.445 60.7038 174.386 60.7131 174.33C60.7278 174.226 60.7544 174.123 60.789 174.019C60.801 173.985 60.817 173.949 60.8303 173.915C60.8582 173.845 60.8875 173.775 60.9234 173.704C60.9434 173.663 60.9687 173.623 60.9927 173.583C61.0299 173.518 61.0699 173.451 61.1138 173.387C61.1444 173.343 61.1763 173.301 61.2083 173.258C61.2575 173.194 61.3094 173.131 61.3653 173.066C61.4026 173.023 61.4399 172.98 61.4811 172.935C61.5424 172.871 61.6102 172.804 61.6781 172.739C61.7221 172.697 61.7633 172.657 61.8099 172.615C61.8898 172.543 61.9776 172.472 62.0668 172.399C62.1107 172.365 62.1506 172.33 62.1972 172.293C62.3357 172.186 62.4821 172.082 62.6391 171.973C62.6498 171.968 62.6604 171.961 62.6711 171.954C62.8201 171.854 62.9785 171.754 63.1449 171.653C63.2061 171.618 63.2714 171.581 63.3339 171.545C63.4564 171.474 63.5788 171.403 63.7106 171.333C63.7878 171.291 63.8703 171.249 63.9528 171.207C64.0766 171.142 64.2044 171.077 64.3362 171.013C64.4254 170.97 64.5185 170.925 64.6117 170.881C64.7461 170.819 64.8846 170.755 65.0256 170.692C65.1241 170.649 65.2226 170.606 65.3251 170.56C65.4742 170.498 65.6299 170.432 65.787 170.368C65.8881 170.328 65.988 170.287 66.0918 170.245C66.2715 170.175 66.4591 170.106 66.6468 170.035C66.7387 170.001 66.8252 169.967 66.9197 169.933C67.2032 169.83 67.4973 169.727 67.8021 169.625C67.8341 169.613 67.8687 169.602 67.9006 169.593C68.1775 169.502 68.4597 169.409 68.7525 169.319C68.8643 169.285 68.9814 169.25 69.0959 169.214C69.3155 169.148 69.5365 169.082 69.7641 169.017C69.9012 168.978 70.0422 168.939 70.182 168.899C70.3976 168.838 70.6173 168.778 70.8409 168.718C70.9913 168.677 71.1443 168.638 71.2987 168.596C71.525 168.537 71.7553 168.48 71.9882 168.421C72.1453 168.381 72.3036 168.343 72.4647 168.303C72.7109 168.243 72.9625 168.185 73.2181 168.126C73.3738 168.089 73.5282 168.053 73.6879 168.017C73.9767 167.952 74.2736 167.887 74.573 167.824C74.7061 167.794 74.8352 167.765 74.9697 167.736C75.4089 167.643 75.8575 167.553 76.318 167.463C76.3499 167.457 76.3819 167.45 76.4138 167.443C76.8424 167.361 77.2803 167.278 77.7276 167.196C77.8806 167.169 78.039 167.14 78.1947 167.113C78.5288 167.054 78.8642 166.994 79.2076 166.935C79.3913 166.905 79.579 166.872 79.7667 166.842C80.0914 166.789 80.4202 166.735 80.7543 166.682C80.9553 166.65 81.1576 166.62 81.3612 166.587C81.6966 166.536 82.0374 166.486 82.3821 166.435C82.5871 166.404 82.7907 166.374 82.9984 166.346C83.3631 166.293 83.7331 166.242 84.1071 166.191C84.3028 166.164 84.4958 166.138 84.6928 166.113C85.1293 166.056 85.5752 165.998 86.0238 165.942C86.1649 165.925 86.302 165.908 86.4431 165.89C89.5749 165.507 93.0037 165.169 96.7372 164.887C97.191 163.6 97.7048 162.337 98.2705 161.101C94.71 161.36 91.3758 161.67 88.2572 162.024C88.2413 162.026 88.2266 162.028 88.2107 162.03C87.5119 162.11 86.8224 162.191 86.1449 162.275C86.1236 162.277 86.101 162.28 86.0797 162.284C83.9993 162.543 82.0227 162.821 80.1487 163.118C80.134 163.119 80.1194 163.122 80.1048 163.124C79.4885 163.222 78.8829 163.322 78.2879 163.422C78.2706 163.426 78.2533 163.429 78.236 163.43C76.4271 163.74 74.7221 164.066 73.1182 164.405C73.1116 164.406 73.1049 164.408 73.0983 164.41C72.5712 164.521 72.0548 164.635 71.549 164.75C71.5317 164.754 71.5144 164.758 71.4971 164.762C69.9637 165.111 68.5302 165.474 67.1979 165.848C66.748 165.973 66.3247 166.096 65.9121 166.219C65.8895 166.227 65.8668 166.233 65.8429 166.241C65.4343 166.365 65.0336 166.488 64.645 166.615C64.6357 166.618 64.6263 166.62 64.617 166.623C63.8224 166.879 63.0717 167.14 62.3636 167.404C62.3569 167.407 62.349 167.41 62.3423 167.412C62.0002 167.539 61.6701 167.668 61.3494 167.796C61.3227 167.807 61.2961 167.817 61.2695 167.828C60.9554 167.954 60.6506 168.083 60.3551 168.211C60.3338 168.22 60.3125 168.229 60.2912 168.239C59.6829 168.503 59.1159 168.771 58.5902 169.041C58.5822 169.043 58.5729 169.05 58.5649 169.052C58.312 169.183 58.0711 169.312 57.8368 169.443C57.8115 169.457 57.7849 169.472 57.7583 169.487C57.5333 169.613 57.3177 169.741 57.1101 169.868C57.0848 169.883 57.0595 169.899 57.0342 169.914C56.8266 170.044 56.6256 170.174 56.4339 170.303C56.4246 170.31 56.4166 170.316 56.406 170.323C56.213 170.456 56.0293 170.589 55.8549 170.721C55.8483 170.726 55.8403 170.732 55.8336 170.737C55.6646 170.868 55.5062 170.996 55.3545 171.126C55.3345 171.142 55.3132 171.16 55.2932 171.177C55.1495 171.303 55.0137 171.427 54.8873 171.552C54.8673 171.572 54.8473 171.592 54.8274 171.613C54.7023 171.737 54.5838 171.863 54.4747 171.988C54.4627 172.002 54.452 172.016 54.4414 172.029C54.3322 172.157 54.2311 172.284 54.1392 172.412C54.0381 172.553 53.9569 172.68 53.8837 172.807C53.873 172.827 53.8624 172.845 53.8517 172.863C53.7825 172.985 53.724 173.106 53.6707 173.228C53.6614 173.249 53.6521 173.271 53.6441 173.292C53.5935 173.413 53.5509 173.534 53.5177 173.654C53.5123 173.672 53.5083 173.691 53.5043 173.706C53.4711 173.833 53.4444 173.958 53.4298 174.084C53.4192 174.16 53.4125 174.238 53.4085 174.315C53.4072 174.34 53.4058 174.364 53.4045 174.388C53.4032 174.446 53.4019 174.502 53.4019 174.56C53.4019 174.587 53.4019 174.613 53.4032 174.641C53.4045 174.703 53.4085 174.766 53.4138 174.83C53.4152 174.85 53.4165 174.869 53.4178 174.889C53.4245 174.97 53.4351 175.054 53.4484 175.136C53.4524 175.162 53.4591 175.188 53.4631 175.214C53.4737 175.273 53.4857 175.332 53.499 175.392C53.5057 175.425 53.5137 175.459 53.523 175.493C53.5376 175.549 53.5523 175.605 53.5696 175.661C53.5789 175.694 53.5882 175.727 53.5988 175.759C53.6241 175.843 53.6534 175.927 53.6854 176.01C53.6973 176.04 53.712 176.07 53.724 176.102C53.7479 176.162 53.7732 176.221 53.7998 176.281C53.8185 176.323 53.8384 176.363 53.8584 176.405C53.8824 176.455 53.9076 176.504 53.9343 176.554C53.9569 176.598 53.9808 176.641 54.0048 176.686C54.0328 176.737 54.0634 176.788 54.094 176.839C54.1352 176.909 54.1805 176.98 54.2258 177.052C54.2617 177.107 54.2976 177.162 54.3362 177.218C54.3722 177.269 54.4108 177.321 54.448 177.372C54.4786 177.414 54.5093 177.456 54.5412 177.498C54.5838 177.552 54.6264 177.606 54.6716 177.661C54.7023 177.7 54.7342 177.738 54.7675 177.777C54.9379 177.981 55.1282 178.186 55.3372 178.393C55.3678 178.423 55.3957 178.452 55.4263 178.482C55.4942 178.547 55.5634 178.611 55.634 178.678C55.6659 178.706 55.6965 178.735 55.7285 178.763C55.8057 178.832 55.8829 178.9 55.9627 178.969C55.976 178.981 55.9894 178.991 56.0013 179C56.2848 179.242 56.595 179.484 56.933 179.727C56.9597 179.745 56.9863 179.765 57.0116 179.783C57.1207 179.86 57.2325 179.938 57.347 180.015C57.3603 180.024 57.3736 180.033 57.3869 180.042C57.7663 180.297 58.1789 180.553 58.6234 180.811C58.6314 180.814 58.6394 180.82 58.6461 180.822C58.7938 180.909 58.9469 180.993 59.1026 181.08C59.1133 181.084 59.1226 181.09 59.1332 181.095C64.8273 184.206 75.6299 187.386 95.1559 189.615C105.663 190.815 118.688 191.74 134.815 192.23C180.794 193.625 201.973 189.134 211.191 184.691C211.202 184.685 211.211 184.682 211.221 184.676C211.659 184.465 212.07 184.254 212.456 184.044C212.473 184.033 212.492 184.023 212.51 184.012C212.882 183.807 213.231 183.605 213.555 183.402C213.578 183.386 213.603 183.371 213.626 183.356C213.937 183.16 214.228 182.966 214.498 182.772C214.527 182.751 214.555 182.732 214.582 182.711C214.665 182.651 214.745 182.592 214.825 182.533C214.85 182.512 214.877 182.493 214.902 182.473C215.038 182.368 215.167 182.264 215.291 182.162C215.324 182.133 215.358 182.107 215.391 182.081C215.452 182.027 215.513 181.975 215.573 181.923C215.609 181.889 215.645 181.857 215.681 181.826C215.773 181.742 215.861 181.66 215.946 181.578C215.983 181.541 216.02 181.504 216.056 181.469C216.103 181.423 216.148 181.378 216.192 181.332Z" fill="#3A8EBA"/>
<path d="M217.222 196.096C217.233 196.002 217.238 195.912 217.242 195.82C217.243 195.799 217.243 195.778 217.245 195.756C217.247 195.666 217.247 195.573 217.245 195.478C217.241 195.377 217.233 195.278 217.222 195.176C217.222 195.156 217.22 195.137 217.217 195.118C217.194 194.912 217.158 194.699 217.106 194.479C217.104 194.462 217.1 194.445 217.096 194.428C217.041 194.204 216.971 193.971 216.883 193.731C216.879 193.719 216.873 193.707 216.869 193.694C216.778 193.448 216.668 193.195 216.541 192.932C216.538 192.925 216.534 192.919 216.53 192.911C216.398 192.644 216.245 192.369 216.07 192.085C213.395 187.763 205.578 181.646 186.729 174.081C186.928 175.414 187.068 176.759 187.146 178.108C191.663 179.988 195.271 181.72 198.135 183.301C205.039 187.116 207.63 190.061 208.197 192.103C208.243 192.273 208.272 192.424 208.294 192.569C208.294 192.579 208.296 192.59 208.296 192.597C208.315 192.739 208.323 192.873 208.322 193.003C208.322 193.016 208.322 193.029 208.322 193.042C208.318 193.166 208.307 193.289 208.287 193.405C208.286 193.418 208.284 193.431 208.282 193.446C208.271 193.503 208.259 193.559 208.246 193.614C208.232 193.666 208.214 193.721 208.194 193.774C208.187 193.791 208.179 193.809 208.171 193.826C208.154 193.865 208.137 193.903 208.115 193.942C208.105 193.963 208.094 193.981 208.085 194.001C208.061 194.042 208.035 194.081 208.009 194.121C207.997 194.14 207.986 194.158 207.974 194.174C207.934 194.231 207.89 194.289 207.84 194.347C207.787 194.409 207.731 194.47 207.669 194.53C207.655 194.543 207.639 194.558 207.626 194.572C207.576 194.618 207.524 194.666 207.47 194.713C207.45 194.729 207.43 194.746 207.41 194.762C207.351 194.809 207.29 194.856 207.226 194.903C207.208 194.917 207.189 194.932 207.172 194.945C206.996 195.069 206.8 195.19 206.577 195.312C206.566 195.318 206.557 195.324 206.546 195.328C206.445 195.382 206.34 195.436 206.228 195.491C206.207 195.5 206.183 195.512 206.159 195.522C206.051 195.573 205.938 195.624 205.819 195.674C205.802 195.682 205.782 195.69 205.762 195.697C205.338 195.874 204.85 196.042 204.291 196.197C204.271 196.202 204.251 196.207 204.233 196.214C204.058 196.261 203.877 196.308 203.691 196.352C203.676 196.356 203.662 196.36 203.646 196.364C203.027 196.512 202.331 196.645 201.555 196.76C201.544 196.761 201.533 196.763 201.521 196.765C201.271 196.802 201.013 196.836 200.744 196.868C200.734 196.87 200.722 196.871 200.71 196.872C199.87 196.973 198.943 197.051 197.925 197.104C197.58 197.122 197.237 197.136 196.883 197.148C196.871 197.148 196.859 197.149 196.846 197.149C195.408 197.194 193.8 197.189 192.011 197.121C191.987 197.121 191.965 197.119 191.941 197.118C190.594 197.067 189.14 196.981 187.576 196.854C187.568 196.854 187.563 196.854 187.555 196.854C187.056 196.812 186.546 196.768 186.024 196.719C185.978 196.714 185.933 196.71 185.886 196.706C185.355 196.655 184.815 196.602 184.259 196.544C172.99 195.347 156.725 192.29 133.437 185.958C116.859 181.451 104.196 177.428 94.5648 173.881C93.7689 173.588 92.9955 173.298 92.2395 173.012C92.2169 173.003 92.1929 172.994 92.1703 172.985C91.8189 172.851 91.4729 172.719 91.1295 172.587C91.0602 172.561 90.9924 172.535 90.9232 172.508C89.865 172.099 88.8494 171.696 87.8738 171.301C87.8379 171.286 87.8019 171.271 87.766 171.257C87.4412 171.126 87.1231 170.994 86.8076 170.865C86.7784 170.853 86.7504 170.841 86.7198 170.828C85.7615 170.432 84.8417 170.043 83.9633 169.659C83.926 169.644 83.89 169.627 83.8528 169.612C82.6655 169.093 81.5488 168.588 80.5013 168.094C80.4707 168.081 80.4401 168.066 80.4094 168.051C79.6241 167.681 78.8774 167.319 78.1693 166.964C77.9258 166.841 77.6968 166.725 77.4719 166.61C77.4519 166.599 77.4319 166.589 77.412 166.578C76.7398 166.233 76.1036 165.896 75.5006 165.564C75.4807 165.554 75.4607 165.543 75.4407 165.531C75.2411 165.422 75.0441 165.312 74.8511 165.205C74.2615 164.87 73.7118 164.547 73.194 164.234C73.1674 164.218 73.1407 164.201 73.1155 164.187C72.6057 163.876 72.1278 163.571 71.6793 163.273C71.6713 163.268 71.6633 163.263 71.6553 163.257C71.5142 163.163 71.3771 163.071 71.2414 162.978C71.2134 162.959 71.1855 162.94 71.1575 162.92C70.7542 162.642 70.3762 162.37 70.0235 162.106C69.9982 162.086 69.9703 162.066 69.945 162.047C69.8358 161.965 69.7293 161.881 69.6242 161.8C69.5962 161.778 69.5696 161.757 69.5417 161.735C69.2249 161.484 68.9294 161.24 68.6565 161C68.6233 160.972 68.59 160.944 68.558 160.914C68.4769 160.844 68.397 160.772 68.3198 160.701C68.2932 160.676 68.2692 160.653 68.2426 160.628C68.0988 160.496 67.9631 160.365 67.834 160.236C67.8074 160.208 67.7794 160.182 67.7528 160.155C67.6902 160.091 67.6303 160.029 67.5704 159.965C67.5372 159.931 67.5039 159.897 67.4719 159.862C67.4147 159.801 67.3588 159.741 67.3042 159.68C67.2789 159.652 67.2563 159.624 67.231 159.597C67.1365 159.488 67.046 159.381 66.9622 159.278C66.9302 159.24 66.8996 159.201 66.869 159.163C66.8277 159.111 66.7878 159.058 66.7492 159.006C66.7172 158.966 66.688 158.926 66.6587 158.884C66.6241 158.836 66.5881 158.786 66.5535 158.739C66.5016 158.662 66.4497 158.585 66.4018 158.511C66.3738 158.468 66.3472 158.423 66.3206 158.38C66.294 158.336 66.2674 158.294 66.2434 158.251C66.2194 158.209 66.1942 158.167 66.1715 158.125C66.1449 158.076 66.1196 158.027 66.0957 157.98C66.0704 157.932 66.0464 157.885 66.0251 157.838C65.9958 157.778 65.9692 157.717 65.9439 157.66C65.9293 157.625 65.916 157.589 65.9013 157.555C65.884 157.51 65.8654 157.464 65.8494 157.417C65.8374 157.385 65.8255 157.353 65.8148 157.32C65.7935 157.255 65.7736 157.188 65.7549 157.124C65.7483 157.099 65.7429 157.074 65.7363 157.05C65.723 156.996 65.7097 156.942 65.699 156.889C65.6937 156.863 65.6897 156.835 65.6844 156.808C65.6764 156.758 65.6697 156.71 65.6631 156.663C65.6604 156.641 65.6564 156.618 65.6538 156.596C65.6484 156.529 65.6431 156.464 65.6405 156.399C65.6405 156.382 65.6405 156.365 65.6405 156.348C65.6391 156.298 65.6405 156.248 65.6418 156.2C65.6431 156.179 65.6444 156.158 65.6458 156.137C65.6498 156.086 65.6538 156.035 65.6604 155.986C65.6618 155.974 65.6631 155.961 65.6644 155.95C65.6737 155.889 65.6844 155.83 65.6977 155.773C65.7004 155.756 65.7057 155.741 65.7097 155.726C65.7203 155.681 65.7323 155.638 65.7456 155.595C65.7509 155.578 65.7549 155.562 65.7602 155.545C65.7789 155.49 65.7988 155.437 65.8215 155.383C65.8627 155.284 65.9133 155.189 65.9745 155.093C65.9945 155.062 66.0211 155.032 66.0451 155C66.089 154.938 66.1329 154.876 66.1862 154.816C66.2181 154.781 66.2567 154.744 66.2913 154.709C66.3446 154.655 66.3951 154.602 66.455 154.549C66.4976 154.513 66.5469 154.478 66.5935 154.441C66.6547 154.393 66.7159 154.343 66.7838 154.296C66.8357 154.259 66.8943 154.224 66.9515 154.189C67.0221 154.144 67.0926 154.099 67.1698 154.055C67.2324 154.02 67.3016 153.986 67.3681 153.951C67.448 153.909 67.5278 153.869 67.6157 153.828C67.6876 153.794 67.7661 153.761 67.842 153.729C67.9325 153.69 68.023 153.652 68.1188 153.615C68.2013 153.582 68.2892 153.552 68.3757 153.521C68.4755 153.486 68.5767 153.45 68.6818 153.415C68.775 153.385 68.8708 153.356 68.968 153.328C69.0771 153.295 69.189 153.262 69.3047 153.232C69.4072 153.203 69.5124 153.176 69.6202 153.15C69.7387 153.12 69.8611 153.091 69.9862 153.064C70.098 153.037 70.2125 153.013 70.3296 152.989C70.4601 152.962 70.5932 152.935 70.7276 152.909C70.8501 152.887 70.9738 152.865 71.1003 152.843C71.2401 152.819 71.3838 152.797 71.5289 152.773C71.6607 152.754 71.7938 152.734 71.9308 152.715C72.0799 152.694 72.2343 152.674 72.39 152.654C72.5325 152.637 72.6736 152.619 72.82 152.604C72.981 152.585 73.1474 152.57 73.3124 152.553C73.4642 152.538 73.6146 152.524 73.769 152.511C73.9407 152.496 74.1177 152.483 74.2961 152.47C74.4558 152.458 74.6142 152.445 74.7792 152.435C74.9629 152.423 75.1532 152.414 75.3409 152.405C75.51 152.396 75.6763 152.387 75.8494 152.38C76.0464 152.371 76.25 152.366 76.4523 152.359C76.628 152.354 76.7997 152.347 76.9794 152.343C77.1937 152.338 77.416 152.337 77.6356 152.333C77.8139 152.332 77.9883 152.328 78.1707 152.326C78.4156 152.325 78.6711 152.326 78.9254 152.329C79.0917 152.329 79.2528 152.329 79.4218 152.33C79.8438 152.336 80.275 152.343 80.7182 152.355C80.8766 152.359 81.043 152.367 81.2054 152.372C81.4982 152.381 81.7897 152.389 82.0918 152.402C82.2955 152.41 82.5098 152.422 82.7174 152.431C82.9863 152.444 83.2512 152.456 83.5267 152.47C83.753 152.483 83.9885 152.498 84.2201 152.512C84.485 152.528 84.7499 152.543 85.0214 152.562C85.265 152.577 85.5152 152.597 85.7628 152.615C86.033 152.635 86.3019 152.654 86.5787 152.675C86.8343 152.696 87.0978 152.72 87.3587 152.741C87.6369 152.766 87.9151 152.788 88.1999 152.814C88.4661 152.837 88.7376 152.865 89.0091 152.891C89.298 152.918 89.5868 152.946 89.8823 152.976C90.1605 153.005 90.4453 153.035 90.7288 153.065C91.0256 153.098 91.3225 153.129 91.6246 153.162C91.9148 153.196 92.2089 153.23 92.5031 153.263C92.8119 153.3 93.1207 153.337 93.4348 153.375C93.7343 153.411 94.0364 153.449 94.3399 153.488C94.6593 153.527 94.9788 153.569 95.3022 153.612C95.6137 153.653 95.9264 153.695 96.2419 153.738C96.5707 153.784 96.9034 153.829 97.2375 153.876C97.5569 153.921 97.8777 153.968 98.2012 154.015C99.4097 154.19 100.648 154.378 101.925 154.583C102.691 153.448 103.508 152.345 104.376 151.28C102.405 150.954 100.504 150.665 98.6617 150.405C98.2171 150.34 97.7859 150.282 97.3493 150.224C97.0618 150.184 96.7703 150.143 96.4855 150.106C95.8892 150.028 95.3062 149.954 94.7245 149.883C94.5315 149.859 94.3319 149.833 94.1416 149.809C93.3709 149.717 92.6135 149.629 91.8708 149.548C91.7151 149.532 91.5674 149.518 91.4143 149.501C90.83 149.439 90.2497 149.378 89.6813 149.323C89.4191 149.298 89.1649 149.276 88.9067 149.253C88.4581 149.211 88.0096 149.169 87.5716 149.132C87.2828 149.109 87.002 149.088 86.7185 149.066C86.3218 149.034 85.9238 149.002 85.5339 148.976C85.2437 148.955 84.9589 148.936 84.6727 148.918C84.304 148.893 83.9353 148.87 83.5733 148.849C83.2858 148.833 83.0036 148.819 82.7214 148.804C82.374 148.786 82.0266 148.769 81.6872 148.755C81.4064 148.743 81.1308 148.732 80.8567 148.722C80.5252 148.71 80.1991 148.7 79.8757 148.691C79.6055 148.684 79.338 148.678 79.0718 148.672C78.7576 148.666 78.4462 148.661 78.1374 148.658C77.8778 148.654 77.621 148.653 77.3654 148.651C77.0646 148.65 76.7691 148.651 76.4763 148.653C76.2274 148.654 75.9798 148.657 75.7376 148.659C75.4474 148.664 75.1652 148.67 74.883 148.678C74.6488 148.683 74.4145 148.688 74.1856 148.696C73.9047 148.705 73.6332 148.717 73.3617 148.729C73.1434 148.739 72.9225 148.748 72.7095 148.76C72.434 148.774 72.1691 148.791 71.9029 148.81C71.7046 148.823 71.5023 148.834 71.3079 148.849C71.0297 148.87 70.7622 148.895 70.4933 148.918C70.323 148.934 70.1486 148.948 69.9809 148.964C69.6588 148.996 69.3487 149.032 69.0412 149.068C68.9387 149.081 68.8309 149.092 68.7297 149.104C68.3265 149.155 67.9378 149.208 67.5598 149.267C67.4333 149.287 67.3162 149.309 67.1938 149.328C66.9449 149.37 66.6946 149.411 66.4564 149.455C66.31 149.483 66.1742 149.511 66.0331 149.54C65.8281 149.581 65.6218 149.622 65.4262 149.666C65.2824 149.697 65.1466 149.731 65.0069 149.764C64.8245 149.808 64.6422 149.851 64.4678 149.897C64.3321 149.933 64.2016 149.97 64.0699 150.008C63.9061 150.055 63.7411 150.101 63.584 150.15C63.4563 150.19 63.3351 150.23 63.2113 150.271C63.0623 150.322 62.9145 150.371 62.7734 150.422C62.6563 150.465 62.5432 150.509 62.4314 150.553C62.2956 150.607 62.1625 150.66 62.0347 150.715C61.9282 150.761 61.8244 150.808 61.7233 150.854C61.6008 150.91 61.4837 150.969 61.3679 151.026C61.2734 151.074 61.1802 151.123 61.0897 151.172C60.9806 151.233 60.8754 151.294 60.7729 151.357C60.6904 151.406 60.6079 151.456 60.5307 151.508C60.4322 151.572 60.3417 151.638 60.2512 151.703C60.1806 151.755 60.1087 151.808 60.0422 151.86C59.957 151.928 59.8785 152 59.7999 152.07C59.7427 152.123 59.6815 152.174 59.6282 152.227C59.551 152.302 59.4858 152.379 59.4179 152.456C59.374 152.507 59.3248 152.556 59.2848 152.609C59.217 152.696 59.1584 152.784 59.1012 152.874C59.0732 152.917 59.0399 152.96 59.0133 153.005C58.9361 153.139 58.8682 153.275 58.8137 153.414C58.7857 153.486 58.7604 153.56 58.7365 153.635C58.7298 153.657 58.7232 153.679 58.7165 153.703C58.7005 153.758 58.6846 153.812 58.6699 153.87C58.6646 153.895 58.6579 153.92 58.6526 153.944C58.638 154.011 58.6247 154.078 58.6127 154.147C58.61 154.161 58.6074 154.174 58.6047 154.189C58.5927 154.269 58.5821 154.352 58.5754 154.436C58.5727 154.462 58.5714 154.488 58.5688 154.516C58.5648 154.576 58.5608 154.636 58.5594 154.698C58.5581 154.73 58.5581 154.761 58.5581 154.793C58.5581 154.858 58.5594 154.923 58.5621 154.99C58.5621 155.016 58.5621 155.042 58.5648 155.067C58.5688 155.156 58.5767 155.247 58.5887 155.339C58.5914 155.37 58.5967 155.4 58.6007 155.433C58.61 155.497 58.6193 155.562 58.6326 155.629C58.6393 155.667 58.646 155.706 58.6539 155.745C58.6672 155.809 58.6819 155.873 58.6979 155.94C58.7058 155.977 58.7138 156.013 58.7245 156.05C58.7484 156.148 58.7764 156.245 58.8083 156.344C58.8203 156.38 58.8336 156.417 58.8469 156.455C58.8696 156.523 58.8935 156.591 58.9188 156.66C58.9361 156.706 58.9547 156.756 58.9747 156.801C59 156.864 59.0253 156.927 59.0519 156.991C59.0732 157.039 59.0945 157.089 59.1171 157.138C59.1531 157.216 59.193 157.297 59.2329 157.376C59.2662 157.446 59.3035 157.516 59.3394 157.585C59.3767 157.653 59.4126 157.723 59.4512 157.791C59.4845 157.848 59.5178 157.907 59.5524 157.964C59.5883 158.023 59.6243 158.083 59.6615 158.143C59.6988 158.205 59.7374 158.266 59.776 158.328C59.8172 158.389 59.8598 158.452 59.9024 158.515C59.973 158.62 60.0475 158.726 60.1247 158.832C60.17 158.895 60.2152 158.958 60.2631 159.022C60.3137 159.09 60.3683 159.159 60.4215 159.228C60.4655 159.286 60.512 159.342 60.5586 159.401C60.6159 159.473 60.6744 159.544 60.7343 159.616C60.7809 159.671 60.8288 159.727 60.8767 159.784C61.0005 159.929 61.131 160.075 61.2667 160.223C61.3067 160.266 61.3439 160.309 61.3852 160.352C61.4597 160.433 61.5396 160.514 61.6181 160.597C61.6687 160.65 61.7206 160.702 61.7725 160.755C61.855 160.838 61.9389 160.922 62.0241 161.006C62.076 161.058 62.1292 161.108 62.1825 161.16C62.4899 161.456 62.8214 161.758 63.1754 162.068C63.2313 162.115 63.2846 162.164 63.3405 162.211C63.4509 162.305 63.5627 162.4 63.6772 162.494C63.7344 162.543 63.793 162.591 63.8529 162.638C63.974 162.739 64.0951 162.838 64.2216 162.939C64.2282 162.945 64.2376 162.952 64.2455 162.958C64.5291 163.183 64.8285 163.414 65.1373 163.646C65.1892 163.685 65.2411 163.724 65.2931 163.763C65.4355 163.868 65.5792 163.974 65.7256 164.079C65.7895 164.126 65.8547 164.172 65.92 164.219C66.0717 164.328 66.2248 164.438 66.3832 164.547C66.4151 164.57 66.4484 164.59 66.4803 164.614C66.8251 164.852 67.1831 165.096 67.5558 165.341C67.5917 165.364 67.6277 165.389 67.6649 165.412C67.842 165.529 68.023 165.645 68.2053 165.761C68.2745 165.807 68.3438 165.852 68.4143 165.896C68.5993 166.012 68.787 166.13 68.9786 166.25C69.0279 166.28 69.0798 166.31 69.1291 166.342C69.7653 166.734 70.4374 167.132 71.1455 167.539C71.2201 167.582 71.296 167.625 71.3718 167.67C71.5914 167.794 71.8151 167.92 72.0413 168.046C72.1065 168.082 72.1718 168.119 72.237 168.154C72.9797 168.566 73.761 168.986 74.5796 169.41C74.6608 169.452 74.7406 169.495 74.8232 169.537C75.0774 169.668 75.3356 169.8 75.5978 169.933C75.6817 169.975 75.7682 170.018 75.8534 170.061C76.7119 170.494 77.6103 170.933 78.55 171.379C78.6325 171.418 78.715 171.457 78.7976 171.496C79.0877 171.633 79.3819 171.771 79.6787 171.909C79.7865 171.959 79.8957 172.01 80.0048 172.059C80.9898 172.514 82.0173 172.974 83.0888 173.442C83.17 173.477 83.2485 173.513 83.331 173.549C83.6558 173.69 83.9872 173.833 84.3213 173.975C84.4517 174.032 84.5835 174.088 84.7153 174.144C85.052 174.286 85.3914 174.43 85.7375 174.575C85.8147 174.607 85.8959 174.641 85.9731 174.673C86.7171 174.983 87.4785 175.297 88.2598 175.613C88.325 175.638 88.3876 175.665 88.4528 175.69C88.8122 175.835 89.1782 175.98 89.5455 176.127C89.7066 176.191 89.8677 176.255 90.0287 176.319C90.3907 176.461 90.7568 176.605 91.1281 176.749C91.2732 176.805 91.4223 176.862 91.5687 176.92C92.4245 177.25 93.299 177.585 94.1975 177.921C104.301 181.711 117.115 185.863 133.316 190.355C154.375 196.194 170.313 199.406 182.322 200.945C182.718 200.994 183.109 201.043 183.495 201.09C183.563 201.099 183.63 201.105 183.698 201.113C184.862 201.253 185.988 201.379 187.077 201.487C187.127 201.492 187.174 201.497 187.224 201.501C188.33 201.61 189.397 201.704 190.427 201.782C190.454 201.785 190.482 201.788 190.509 201.789C194.053 202.057 197.154 202.15 199.86 202.106C202.578 202.061 204.894 201.88 206.864 201.605C207.459 201.52 208.008 201.431 208.527 201.333C208.544 201.33 208.563 201.326 208.581 201.322C209.084 201.228 209.561 201.126 210.013 201.019C210.039 201.013 210.064 201.007 210.088 201.001C210.528 200.896 210.941 200.784 211.332 200.668C211.36 200.66 211.388 200.651 211.416 200.644C211.54 200.605 211.663 200.568 211.781 200.53C211.805 200.523 211.829 200.515 211.852 200.506C212.075 200.435 212.289 200.36 212.496 200.285C212.522 200.276 212.55 200.265 212.578 200.255C212.679 200.217 212.778 200.18 212.875 200.141C212.916 200.125 212.956 200.11 212.996 200.093C213.173 200.022 213.345 199.949 213.51 199.877C213.534 199.865 213.561 199.853 213.586 199.842C213.667 199.806 213.746 199.77 213.821 199.732C213.868 199.71 213.915 199.687 213.96 199.666C214.032 199.631 214.105 199.595 214.174 199.559C214.269 199.511 214.36 199.461 214.45 199.412C214.512 199.379 214.571 199.344 214.631 199.31C214.679 199.284 214.725 199.255 214.772 199.227C214.826 199.193 214.881 199.162 214.934 199.128C214.997 199.089 215.058 199.05 215.118 199.009C215.182 198.969 215.242 198.927 215.302 198.884C215.351 198.85 215.4 198.816 215.448 198.78C215.488 198.752 215.528 198.722 215.566 198.692C215.621 198.651 215.673 198.609 215.723 198.567C215.765 198.535 215.805 198.502 215.845 198.469C215.898 198.424 215.948 198.378 215.998 198.333C216.026 198.307 216.052 198.281 216.08 198.256C216.125 198.212 216.169 198.169 216.212 198.126C216.232 198.107 216.252 198.088 216.27 198.067C216.328 198.009 216.381 197.951 216.432 197.89C216.45 197.869 216.466 197.849 216.485 197.826C216.522 197.782 216.559 197.736 216.593 197.692C216.606 197.673 216.621 197.656 216.634 197.637C216.678 197.578 216.719 197.518 216.759 197.459C216.768 197.443 216.778 197.428 216.787 197.413C216.816 197.364 216.845 197.317 216.871 197.27C216.88 197.254 216.891 197.237 216.899 197.22C216.931 197.161 216.96 197.102 216.985 197.046C216.991 197.037 216.993 197.028 216.997 197.017C217.019 196.968 217.038 196.918 217.057 196.868C217.062 196.854 217.069 196.838 217.073 196.824C217.092 196.766 217.11 196.71 217.124 196.655C217.144 196.576 217.16 196.495 217.176 196.411C217.18 196.39 217.184 196.369 217.188 196.348C217.202 196.266 217.213 196.182 217.222 196.096Z" fill="#B9D386"/>
<path d="M116.118 76.3533C116.118 76.3533 109.553 75.6946 105.518 79.8989C101.482 84.1046 101.92 88.5454 103.282 94.3716C104.643 100.199 102.211 106.36 100.12 109.274C98.0307 112.186 96.717 119.016 108.119 117.774L107.706 122.166C107.706 122.166 101.774 122.896 98.0786 119.762C94.3837 116.628 93.8966 112.425 95.6961 108.796C97.4957 105.165 100.655 103.064 99.5374 96.1869C98.4194 89.31 97.9815 85.5578 99.4882 81.1523C100.996 76.748 104.935 74.4021 108.679 73.7852C112.423 73.1671 116.118 73.4912 116.118 73.4912V76.3533Z" fill="#FFF4ED"/>
<path d="M118.925 70.5404C118.925 70.5404 115.874 70.4803 115.789 70.5404C115.704 70.6005 115.486 79.328 115.559 79.3868C115.631 79.447 118.743 79.3868 118.743 79.3868L118.925 70.5404Z" fill="#F6D76A"/>
<path d="M175.983 95.9842C175.225 95.9659 174.475 96.0143 173.727 96.0979C174.23 95.8561 174.844 95.6444 175.211 95.2471C175.37 95.0772 175.461 94.7583 175.304 94.5532C174.804 93.9023 173.84 94.2421 173.147 94.3833C172.041 94.6094 170.941 94.876 169.851 95.1648C166.882 95.5686 163.904 95.911 160.908 96.0117C157.233 96.1345 152.998 96.1567 149.61 94.5924C148.934 94.28 148.341 95.2693 149.021 95.5817C149.173 95.6523 149.326 95.715 149.479 95.7777C149.469 95.8457 149.469 95.9176 149.488 95.9934C150.151 98.8633 150.104 101.631 150.252 104.546C150.259 104.67 150.297 104.771 150.357 104.852C150.176 105.182 150.338 105.717 150.847 105.744C155.15 105.977 159.427 105.566 163.666 104.852C166.035 104.452 168.423 104.053 170.695 103.26C171.555 102.96 172.395 102.6 173.207 102.188C173.607 101.986 174.001 101.77 174.387 101.542C174.7 101.36 175.044 101.157 175.048 100.753C175.053 100.341 174.721 100.115 174.354 99.9925C174.496 99.9389 174.64 99.888 174.781 99.8318C175.287 99.6292 176.124 99.3691 176.066 98.6934C176.051 98.5079 175.97 98.2818 175.777 98.1994C175.452 98.0596 175.083 97.9799 174.697 97.9354C175.359 97.7067 176.215 97.4545 176.486 96.8468C176.662 96.4547 176.461 95.9973 175.983 95.9842Z" fill="#FFF4ED"/>
<path d="M112.741 123.048C112.5 120.842 112.567 118.638 112.436 116.424C112.476 116.422 112.516 116.42 112.555 116.418C113.3 116.364 113.306 115.218 112.555 115.272C110.88 115.392 109.209 115.201 107.533 115.253C107.203 115.263 107.018 115.49 106.978 115.74C106.963 115.789 106.954 115.842 106.953 115.9C106.919 118.442 106.963 120.98 107.086 123.52C107.096 123.727 107.199 123.875 107.339 123.965C107.422 124.033 107.528 124.084 107.657 124.099C109.334 124.306 111.006 124.338 112.691 124.194C113.415 124.131 113.437 123.041 112.741 123.048Z" fill="#F6D76A"/>
<path d="M155.838 105.517C155.078 103.413 153.537 101.704 151.458 100.781C150.779 100.479 150.185 101.466 150.868 101.769C151.055 101.853 151.232 101.945 151.407 102.041C151.385 102.085 151.363 102.135 151.351 102.194C151.184 103.012 151.086 103.834 151.071 104.669C151.068 104.751 151.084 104.824 151.109 104.888C151.084 104.971 151.055 105.052 151.028 105.134C150.956 105.367 151.075 105.623 151.273 105.76C152.809 105.828 154.342 105.819 155.87 105.742C155.874 105.673 155.868 105.598 155.838 105.517Z" fill="#9487FE"/>
<path d="M124.806 91.639C124.78 91.3724 124.597 91.1071 124.253 91.0744C120.851 90.7398 114.952 89.4839 112.785 93.0452C111.803 94.6619 111.673 96.7751 111.527 98.6074C111.313 101.304 111.37 104.019 111.364 106.721C111.349 112.1 111.33 117.48 111.422 122.858C111.448 124.336 111.377 126.133 112.667 127.165C114.2 128.389 116.87 128.49 118.747 128.696C119.317 128.759 119.446 128.104 119.145 127.755C118.891 121.648 119.957 115.648 121.221 109.689C122.454 103.877 123.831 98.0977 125.333 92.3473C125.438 91.9461 125.129 91.6756 124.806 91.639Z" fill="#EF6B47"/>
<path d="M157.317 160.235C157.169 159.486 156.388 159.492 155.752 159.333C154.943 159.129 154.135 158.928 153.325 158.728C151.707 158.329 150.087 157.937 148.466 157.553C148.371 153.335 148.149 149.122 147.764 144.92C147.437 141.334 146.453 137.364 146.693 133.648C147.514 129.973 149.362 126.586 150.225 122.899C150.989 120.663 151.342 118.245 151.642 115.964C152.021 113.085 152.138 110.195 152.025 107.305C152.033 107.062 152.044 106.817 152.048 106.574C152.103 103.626 151.887 100.657 151.257 97.7698C150.812 95.731 150.196 93.8713 148.464 92.5683C148.12 92.3095 147.78 92.5343 147.67 92.8545C147.611 92.8662 147.554 92.8858 147.494 92.9185C144.483 94.6018 139.929 94.0568 136.567 94.0856C132.561 94.1196 128.885 93.5053 125.039 92.4428C124.763 92.367 124.549 92.4807 124.428 92.6584C124.28 92.5931 124.103 92.5853 123.921 92.6833C122.241 93.5837 121.467 95.3271 120.806 97.0013C119.776 99.6099 118.816 102.242 118.357 105.01C118.352 105.039 118.353 105.066 118.352 105.094C116.532 113.328 116.145 121.783 117.235 130.161C117.241 130.215 117.256 130.263 117.275 130.31C116.943 140.894 116.612 151.477 116.279 162.062C116.272 162.272 116.37 162.466 116.572 162.552C116.69 162.603 116.821 162.617 116.949 162.63C119.615 162.906 122.283 163.15 124.961 163.269C126.254 163.327 127.548 163.354 128.841 163.341C129.497 163.335 130.152 163.318 130.809 163.288C131.265 163.268 131.951 163.354 132.325 163.05C132.776 162.681 132.78 161.889 132.466 161.445C132.128 160.963 131.501 160.705 130.968 160.493C128.733 159.605 126.475 158.767 124.228 157.91C127.168 151.772 129.885 145.319 131.855 138.847C132.005 138.851 132.158 138.842 132.311 138.834C133.652 142.858 134.828 146.998 136.573 150.871C137.496 152.92 138.365 154.993 139.162 157.092C139.56 158.141 139.941 159.197 140.301 160.259C140.626 161.219 140.796 162.296 141.34 163.167C141.835 163.962 142.794 163.736 143.58 163.684C145.731 163.54 147.872 163.268 149.998 162.918C151.76 162.625 153.534 162.377 155.301 162.104C155.717 162.038 156.142 161.972 156.52 161.786C157.128 161.487 157.445 160.895 157.317 160.235Z" fill="#FFF4ED"/>
<path d="M125.664 100.931C125.394 100.872 124.205 117.711 124.497 117.934C124.788 118.156 145.567 119.718 145.729 119.463C145.89 119.208 147.188 102.651 146.994 102.363C146.798 102.077 125.956 100.994 125.664 100.931Z" fill="#D892C0"/>
<path d="M124.452 121.086C124.324 121.103 124.108 126.021 124.237 126.021C124.368 126.021 144.691 127.391 144.821 127.263C144.951 127.136 145.567 122.137 145.404 122.073C145.243 122.009 124.696 121.055 124.452 121.086Z" fill="#9487FE"/>
<path d="M128.076 122.279C127.741 122.154 127.281 122.122 126.935 122.235C126.452 122.393 126.09 122.707 125.892 123.167C125.88 123.194 125.873 123.223 125.862 123.252C125.732 123.553 125.691 123.885 125.796 124.225C125.957 124.743 126.352 125.145 126.878 125.307C127.824 125.599 128.845 124.948 129.058 124.017C129.238 123.235 128.827 122.558 128.076 122.279Z" fill="#211736"/>
<path d="M145.412 103.414C145.287 103.28 134.522 102.677 134.522 102.677C134.522 102.677 133.359 116.879 133.641 116.989C133.923 117.099 143.791 117.939 144.037 117.866C144.285 117.793 145.624 103.639 145.412 103.414Z" fill="#EF6B47"/>
<path d="M127.674 103.542C127.674 103.542 126.895 116.266 127.058 116.454C127.22 116.641 131.304 116.85 131.369 116.71C131.434 116.571 132.05 103.89 132.05 103.89L127.674 103.542Z" fill="#F6D76A"/>
<path d="M168.897 108.957C169.363 108.727 169.899 108.326 169.636 107.752C169.247 106.902 167.788 107.1 167.047 107.129C164.777 107.219 162.492 107.062 160.231 106.885C157.675 106.686 155.331 106.869 152.342 106.718C148.78 106.539 146.312 106.312 142.495 105.119C138.877 103.987 136.181 99.5368 133.485 97.1177C131.019 94.9051 128.21 93.1172 124.889 92.5409C124.637 92.4952 124.436 92.6023 124.309 92.7631C124.197 92.7448 124.075 92.7565 123.95 92.8127C119.886 94.6751 120.71 99.6073 122.318 102.886C124.372 107.067 128.619 110.811 132.585 113.214C136.77 115.748 141.847 115.985 146.612 115.783C149.275 115.669 151.937 115.518 154.598 115.352C156.737 115.218 158.924 115.038 161.088 114.973C163.088 114.911 165.322 115.25 167.232 114.511C168.203 114.135 168.202 113.677 167.817 113.25C167.931 113.233 168.042 113.22 168.156 113.199C168.713 113.102 169.704 113.031 169.905 112.363C170.088 111.752 169.674 111.402 169.073 111.197C169.105 111.188 169.137 111.183 169.167 111.173C169.67 111.032 170.77 110.826 170.92 110.201C171.137 109.299 170.031 109.028 168.897 108.957Z" fill="#FFF4ED"/>
<path d="M136.783 53.1072C136.516 50.5313 136.291 47.9541 136.107 45.3717C136.055 44.6398 134.888 44.6333 134.94 45.3717C135.124 47.9541 135.349 50.5313 135.617 53.1072C135.692 53.8326 136.861 53.8404 136.783 53.1072Z" fill="#F6D76A"/>
<path d="M141.703 55.6662C141.338 55.0272 140.954 54.3972 140.549 53.7804C140.352 53.4785 140.136 53.1648 139.925 52.8629C139.813 52.7035 139.7 52.5453 139.588 52.3859C139.505 52.2696 139.426 52.1258 139.278 52.0866C139.183 52.0618 139.083 52.067 138.986 52.0749C138.077 52.0749 137.149 52.2055 136.247 52.3114C135.761 52.3689 135.277 52.4329 134.791 52.4931C134.545 52.5231 134.296 52.5636 134.048 52.5832C133.869 52.5989 133.665 52.5728 133.502 52.6656C133.283 52.795 133.127 53.1792 133.011 53.3948C132.836 53.7189 132.685 54.0548 132.547 54.3959C132.277 55.0624 132.058 55.7473 131.801 56.4164C131.716 56.6386 132.054 56.7353 132.17 56.5432C135.07 55.7368 138.19 55.4127 141.16 55.9407C141.252 55.9577 141.324 55.9172 141.366 55.8597C141.489 56.074 141.825 55.8819 141.703 55.6662Z" fill="#9487FE"/>
<path d="M137.136 43.2626C137.011 43.0378 136.837 42.8352 136.614 42.6705C136.528 42.596 136.435 42.5307 136.338 42.4797C135.668 42.1334 134.851 42.1438 134.22 42.579C133.5 43.0757 133.244 43.9683 133.452 44.7851C133.666 45.6241 134.523 46.2227 135.386 46.2227C136.078 46.2227 136.813 45.8293 137.136 45.219C137.462 44.6021 137.465 43.8546 137.136 43.2626Z" fill="#EF6B47"/>
<path d="M126.983 89.6147C128.007 89.7924 142.881 92.3305 147.735 90.7713C152.917 89.1063 159.038 82.7574 159.54 76.3104C160.083 69.3119 157.774 64.4215 152.053 60.4524C145.599 55.975 137.52 54.9974 130.439 57.8412C122.476 61.0379 118.216 68.6402 119.323 77.6827C120.44 86.8088 126.355 89.369 126.983 89.6147ZM142.953 92.418C136.319 92.418 127.22 90.821 126.721 90.7334L126.624 90.7073C126.33 90.6001 119.407 87.9824 118.164 77.8186C116.991 68.2429 121.526 60.1819 129.998 56.7787C137.448 53.7872 145.945 54.8105 152.726 59.5167C158.739 63.687 161.273 69.0519 160.702 76.3967C160.159 83.3978 153.746 90.046 148.098 91.86C146.845 92.2625 145.017 92.418 142.953 92.418Z" fill="#FFF4ED"/>
<path d="M148.455 63.8893C145.368 61.4349 140.36 62.615 138.586 66.0234C138.355 66.4652 138.737 66.8703 139.117 66.8886C139.153 67.0062 139.24 67.1108 139.396 67.1814C140.316 67.5917 141.104 68.1615 141.861 68.8137C142.21 69.1156 142.552 69.424 142.897 69.7311C143.269 70.0644 143.896 70.4512 143.987 70.9753C144.037 71.2694 144.25 71.3909 144.478 71.387C144.812 71.6261 145.258 71.715 145.68 71.5896C146.178 71.4419 146.518 71.0877 146.742 70.6603C147.176 70.8054 147.643 70.7923 148.077 70.5048C148.519 70.2121 148.735 69.786 148.826 69.3182C149.472 69.522 150.128 69.3652 150.557 68.5693C151.478 66.8559 149.7 64.8773 148.455 63.8893Z" fill="#D892C0"/>
<path d="M163.666 104.852C166.035 104.452 168.423 104.053 170.695 103.26C171.555 102.96 172.395 102.6 173.207 102.188C173.608 101.986 174.001 101.77 174.387 101.542C174.7 101.36 175.044 101.157 175.048 100.753C175.053 100.341 174.722 100.115 174.354 99.9925C174.497 99.9389 174.64 99.888 174.781 99.8318C175.287 99.6292 176.124 99.3691 176.066 98.6934C176.051 98.5079 175.97 98.2818 175.777 98.1994C175.452 98.0596 175.084 97.9799 174.698 97.9354C175.359 97.7067 176.215 97.4545 176.487 96.8468C176.662 96.4547 176.461 95.9973 175.983 95.9842C175.225 95.9659 174.475 96.0143 173.727 96.0979C174.23 95.8561 174.844 95.6444 175.211 95.2471C175.37 95.0772 175.462 94.7583 175.305 94.5532C174.804 93.9023 173.84 94.2421 173.147 94.3833C172.041 94.6094 170.941 94.876 169.851 95.1648C167.02 95.5503 164.181 95.8771 161.326 95.9934C161.265 99.0672 161.242 102.142 161.261 105.218C162.062 105.106 162.866 104.986 163.666 104.852Z" fill="#D892C0"/>
<path d="M167.769 73.7593C167.181 74.0076 166.592 74.2573 166.006 74.5095C165.559 84.408 161.984 163.646 162.27 164.238C162.576 164.866 165.734 164.946 166.051 164.619C166.345 164.317 169.982 84.8027 170.517 73.085C169.855 73.2562 169.191 73.4195 168.521 73.5711C168.273 73.6286 168.021 73.6927 167.769 73.7593Z" fill="#F6D76A"/>
<path d="M167.664 45.2505C167.728 44.9054 172.009 43.1895 174.666 44.8218C177.325 46.4515 187.309 47.4238 194.114 45.2505C200.923 43.0771 208.637 44.9237 213.046 47.3441C217.454 49.7645 227.697 49.0941 227.892 49.2378C228.086 49.3816 225.882 77.3977 225.751 77.7493C225.622 78.1008 220.308 80.6702 216.675 79.4483C213.046 78.2289 204.748 74.0259 200.988 74.9813C197.228 75.9366 189.641 78.0943 183.482 77.748C177.325 77.4017 173.498 73.66 170.679 74.5435C167.859 75.4269 165.969 75.3485 165.969 75.3485C165.969 75.3485 167.535 45.9588 167.664 45.2505Z" fill="#9487FE"/>
<path d="M154.726 115.344C156.823 115.21 158.967 115.037 161.088 114.973C163.088 114.911 165.322 115.25 167.232 114.511C168.203 114.135 168.202 113.677 167.817 113.25C167.931 113.233 168.042 113.22 168.155 113.199C168.713 113.102 169.703 113.031 169.904 112.363C170.088 111.752 169.674 111.402 169.073 111.197C169.104 111.188 169.135 111.183 169.167 111.173C169.67 111.032 170.77 110.826 170.92 110.201C171.137 109.299 170.031 109.028 168.897 108.957C169.363 108.727 169.899 108.326 169.636 107.752C169.247 106.902 167.788 107.1 167.047 107.129C164.777 107.219 162.492 107.062 160.231 106.885C158.516 106.752 156.895 106.789 155.113 106.782C154.711 109.635 154.578 112.482 154.726 115.344Z" fill="#D892C0"/>
<path d="M157.502 74.4847C157.413 73.9084 157.229 73.332 156.885 72.9504C156.295 72.2996 155.219 72.3714 154.419 72.408C151.708 72.5296 148.984 72.9399 146.268 72.9373C145.556 71.5585 144.956 70.1418 144.199 68.7474C143.432 67.3333 142.202 66.4015 140.613 66.0395C138.687 65.6004 136.857 66.1479 135.023 66.7086C132.772 67.396 130.597 68.171 128.614 69.4453C128.446 69.5524 128.366 69.704 128.351 69.8596C128.284 69.9497 128.216 70.0556 128.112 70.2268C128.023 70.3719 128.009 70.5143 128.041 70.6385C126.97 73.0419 127.468 76.0347 127.633 78.557C127.892 82.5117 127.593 86.32 126.451 90.1336C126.312 90.5975 126.744 90.8851 127.12 90.8341C133.172 92.6115 140.159 93.1917 146.28 91.3934C146.31 91.3869 146.335 91.3738 146.361 91.3621C146.709 91.7424 147.517 91.4327 147.357 90.8171C146.886 88.994 146.501 87.1565 146.191 85.302C149.272 83.8892 152.492 82.3065 155.124 80.3174C156.609 79.1935 157.555 77.4004 157.575 75.5524C157.578 75.2349 157.559 74.8598 157.502 74.4847Z" fill="#EF6B47"/>
<path d="M130.628 68.082C129.166 67.2953 127.071 67.7396 125.712 68.5186C123.68 69.6817 122.082 71.6826 121.129 73.7658C120.532 75.0688 119.565 77.4944 120.661 78.8235C121.515 79.8599 122.709 79.524 123.7 78.8719C123.901 79.4273 124.389 79.8677 125.052 79.8978C125.777 79.9305 126.455 79.3868 126.978 78.7843C129.069 81.1655 131.388 77.0592 131.804 75.0309C132.045 73.8546 132.237 72.651 132.215 71.4486C132.202 70.6201 132.112 69.6843 131.626 68.9786C131.353 68.5826 131.012 68.2898 130.628 68.082Z" fill="#D892C0"/>
<path d="M142.704 73.6544C142.074 71.6797 139.595 70.5845 137.758 71.749C137.682 71.7973 137.609 71.8483 137.538 71.9019C136.619 72.6024 136.025 73.7838 136.207 74.9352C136.238 75.1338 136.286 75.3312 136.347 75.5233C136.581 76.2408 137.035 76.906 137.717 77.268C138.635 77.7542 139.794 77.9332 140.774 77.5176C142.247 76.8929 143.198 75.1992 142.704 73.6544Z" fill="white"/>
<path d="M157.503 76.3532C157.545 76.0879 157.571 75.8213 157.575 75.5521C157.578 75.2345 157.559 74.8594 157.502 74.4844C157.413 73.908 157.229 73.3317 156.885 72.9501C156.295 72.2992 155.219 72.3711 154.419 72.4077C154.228 72.4155 154.036 72.4273 153.844 72.4391C153.972 73.4297 154.151 74.4504 154.913 75.1744C155.563 75.7913 156.572 76.1716 157.503 76.3532Z" fill="#D892C0"/>
<path d="M145.625 80.4085C147.118 81.6906 149.093 82.4578 151.128 82.8564C151.667 82.5597 152.195 82.2539 152.713 81.9389C150.442 81.6841 148.071 80.9901 146.451 79.5983C145.886 79.1134 145.058 79.9211 145.625 80.4085Z" fill="#211736"/>
<path d="M138.544 77.596C139.276 77.8038 140.071 77.8156 140.774 77.5176C142.247 76.8929 143.198 75.1991 142.704 73.6544C142.32 72.4494 141.246 71.5764 140.052 71.3398C138.797 72.9735 138.471 75.4971 138.544 77.596Z" fill="#211736"/>
<path d="M134.386 58.7348C133.786 58.4329 132.784 58.8511 132.223 59.0916C132.151 59.123 132.086 59.1622 132.016 59.1962C130.767 59.583 129.453 60.4142 129.05 61.5434C128.862 62.0727 129.085 62.5954 129.69 62.6412C130.528 62.7039 131.615 61.9956 132.318 61.6335C132.871 61.3486 135.978 59.5334 134.386 58.7348Z" fill="#FFF4ED"/>
<path d="M126.811 64.7061C126.773 64.4591 126.484 64.2879 126.248 64.2853C125.724 64.2787 125.26 64.5806 124.895 64.974C124.284 65.4353 123.596 66.0548 123.614 66.822C123.621 67.0807 123.793 67.299 124.043 67.3748C124.396 67.4793 124.625 67.316 124.876 67.0977C125.172 66.8403 125.457 66.5697 125.748 66.3057C126.244 65.8549 126.93 65.4523 126.811 64.7061Z" fill="#FFF4ED"/>
<path d="M149.259 93.6856C149.423 92.9655 149.082 92.0898 148.848 91.4416C148.637 90.8627 148.132 89.7087 147.321 89.9674C143.972 91.043 140.506 91.2129 137.008 91.2129C133.637 91.2129 130.193 90.975 127.157 89.4081C126.958 89.3061 126.727 89.2277 126.507 89.2787C125.798 89.446 125.156 90.2288 124.706 90.7529C124.388 91.124 124.101 91.5226 123.854 91.9422C123.657 92.2806 123.256 92.8335 123.355 93.2478C123.436 93.5928 123.891 93.7287 124.168 93.8711C124.553 94.0672 124.943 94.2502 125.338 94.4214C126.138 94.7703 126.959 95.0696 127.792 95.3297C129.477 95.8576 131.213 96.2249 132.961 96.4863C134.111 96.6562 135.269 96.7816 136.428 96.8705C139.556 97.111 142.834 97.0561 145.822 96.0106C146.501 95.7727 147.163 95.4799 147.788 95.1271C148.311 94.8291 148.958 94.4932 149.194 93.8986C149.222 93.8293 149.243 93.7574 149.259 93.6856Z" fill="#211736"/>
<path d="M145.411 141.073C144.746 142.322 144.394 143.718 144.629 145.127C144.943 147.021 146.302 148.424 148.065 148.743C147.979 147.467 147.88 146.193 147.764 144.92C147.594 143.062 147.249 141.099 146.988 139.122C146.258 139.366 145.701 140.527 145.411 141.073Z" fill="#EF6B47"/>
<path d="M125.527 146.961C125.186 148.676 126.071 150.065 127.369 150.987C128.454 148.447 129.468 145.875 130.384 143.289C128.16 143.43 126 144.579 125.527 146.961Z" fill="#EF6B47"/>
<path d="M148.181 150.556C144.74 151.638 141.313 152.763 137.902 153.933C138.049 154.286 138.193 154.64 138.336 154.995C141.626 153.87 144.929 152.784 148.248 151.738C148.226 151.344 148.204 150.949 148.181 150.556Z" fill="#5547B0"/>
<path d="M148.313 153.137C145.206 154.262 141.948 155.143 138.886 156.383C138.978 156.618 139.071 156.854 139.162 157.091C139.207 157.21 139.25 157.329 139.294 157.448C142.231 156.247 145.373 155.399 148.367 154.335C148.353 153.935 148.33 153.537 148.313 153.137Z" fill="#5547B0"/>
<path d="M117.208 135.9C117.172 135.877 117.136 135.86 117.102 135.845C117.087 136.28 117.074 136.716 117.06 137.152C119.105 138.354 121.461 139.03 123.605 140.033C125.86 141.086 128.274 141.867 130.48 143.015C130.609 142.646 130.735 142.279 130.86 141.912C128.709 140.821 126.38 140.064 124.195 139.043C121.897 137.969 119.338 137.271 117.208 135.9Z" fill="#5547B0"/>
<path d="M116.591 152.141C119.792 152.703 122.97 153.325 126.195 153.664C126.359 153.3 126.52 152.934 126.681 152.567C123.302 152.237 119.975 151.573 116.627 150.989C116.615 151.373 116.603 151.756 116.591 152.141Z" fill="#5547B0"/>
<path d="M116.496 155.16C119.303 155.64 122.122 156.046 124.952 156.371C125.122 156.008 125.293 155.646 125.461 155.28C122.471 154.944 119.496 154.52 116.532 154.007C116.52 154.391 116.508 154.775 116.496 155.16Z" fill="#5547B0"/>
<path d="M146.759 137.059C142.253 138.605 137.755 140.176 133.272 141.786C133.388 142.149 133.505 142.513 133.624 142.876C138.029 141.295 142.45 139.75 146.878 138.23C146.833 137.841 146.793 137.45 146.759 137.059Z" fill="#5547B0"/>
<path d="M117.241 131.386C117.227 131.848 117.212 132.31 117.198 132.771C119.11 134.083 121.233 134.978 123.384 135.908C126.182 137.115 128.809 138.55 131.501 139.959C131.618 139.589 131.742 139.218 131.855 138.847C129.462 137.586 127.112 136.288 124.621 135.198C122.069 134.081 119.452 133.098 117.241 131.386Z" fill="#5547B0"/>
<path d="M146.693 133.648C146.726 133.499 146.763 133.351 146.801 133.204C141.9 134.907 137.193 137.099 132.353 138.959C132.472 139.32 132.591 139.683 132.709 140.047C137.385 138.247 141.937 136.143 146.661 134.469C146.666 134.194 146.676 133.92 146.693 133.648Z" fill="#5547B0"/>
<path d="M140.284 110.3C137.237 109.81 134.513 111.163 132.215 112.982C132.339 113.061 132.463 113.139 132.585 113.214C136.665 115.684 141.591 115.97 146.251 115.796C145.134 113.172 143.363 110.796 140.284 110.3Z" fill="#9487FE"/>
<path d="M98.8921 91.8989C98.9387 92.2583 98.9906 92.6281 99.0452 93.0058C99.0638 93.0084 99.0811 93.0124 99.1011 93.0137C100.401 93.0503 101.702 93.0895 103.002 93.1274C102.918 92.7366 102.84 92.3537 102.769 91.9747C101.546 91.9394 100.323 91.9028 99.1011 91.8675C99.0225 91.8649 98.9546 91.878 98.8921 91.8989Z" fill="#211736"/>
<path d="M98.6178 89.353C99.8836 89.4328 101.149 89.5125 102.415 89.5935C102.375 89.2041 102.347 88.8198 102.331 88.4421C101.071 88.3611 99.8091 88.2827 98.5486 88.2017C98.5632 88.5767 98.5872 88.9597 98.6178 89.353Z" fill="#211736"/>
<path d="M98.5447 86.1184C99.7998 86.453 101.064 86.7392 102.341 86.9718C102.365 86.585 102.407 86.206 102.465 85.8296C101.177 85.5891 99.9023 85.2964 98.6365 84.9526C98.5953 85.3369 98.5633 85.725 98.5447 86.1184Z" fill="#211736"/>
<path d="M99.6028 80.8569C99.5656 80.9563 99.5243 81.0517 99.4884 81.1523C99.3979 81.4202 99.314 81.6842 99.2368 81.9482C100.15 82.3455 100.962 82.9323 101.85 83.4002C102.208 83.591 102.576 83.7583 102.948 83.9177C103.075 83.5609 103.226 83.2081 103.399 82.8591C102.813 82.6043 102.244 82.3167 101.687 81.9861C100.994 81.5757 100.33 81.1641 99.6028 80.8569Z" fill="#211736"/>
<path d="M101.722 77.4185C101.46 77.7007 101.211 77.9961 100.978 78.3111C102.041 79.3723 103.187 80.3381 104.41 81.2111C104.631 80.9105 104.872 80.6112 105.136 80.3146C103.917 79.4468 102.779 78.481 101.722 77.4185Z" fill="#211736"/>
<path d="M105.873 74.5771C105.518 74.7222 105.168 74.8908 104.823 75.0699C105.222 75.7625 105.572 76.4813 106.005 77.157C106.326 77.6575 106.678 78.1359 107.055 78.5946C107.383 78.3685 107.715 78.1633 108.053 77.9803C107.601 77.434 107.182 76.8655 106.812 76.2565C106.479 75.7063 106.189 75.1339 105.873 74.5771Z" fill="#211736"/>
<path d="M110.026 73.5996C109.66 73.6401 109.289 73.6898 108.915 73.7486C109.077 74.3001 109.179 74.9052 109.293 75.2698C109.488 75.905 109.685 76.5388 109.881 77.174C110.256 77.042 110.629 76.9296 110.995 76.8342C110.737 75.9965 110.477 75.1587 110.218 74.321C110.148 74.0949 110.089 73.8492 110.026 73.5996Z" fill="#211736"/>
<path d="M112.774 73.4181C112.824 74.4336 112.873 75.4478 112.923 76.4632C113.339 76.4083 113.729 76.3704 114.084 76.3495C114.036 75.368 113.988 74.3892 113.94 73.4077C113.582 73.4051 113.192 73.4077 112.774 73.4181Z" fill="#211736"/>
<path d="M99.5376 96.1868C99.5775 96.439 99.6121 96.6808 99.6414 96.92C100.979 96.9879 102.318 97.0454 103.656 97.0899C103.637 96.7069 103.604 96.3227 103.557 95.9385C102.194 95.8927 100.833 95.8365 99.4697 95.7646C99.4924 95.9071 99.5137 96.0417 99.5376 96.1868Z" fill="#211736"/>
<path d="M99.644 100.663C100.903 100.751 102.162 100.84 103.423 100.929C103.484 100.553 103.536 100.176 103.576 99.7928C102.302 99.7026 101.028 99.6138 99.7545 99.5249C99.7346 99.9235 99.6973 100.301 99.644 100.663Z" fill="#211736"/>
<path d="M98.6858 103.762C99.9782 103.951 101.269 104.151 102.558 104.362C102.68 104.004 102.793 103.637 102.9 103.26C101.649 103.058 100.395 102.864 99.141 102.677C99.0052 103.056 98.8522 103.416 98.6858 103.762Z" fill="#211736"/>
<path d="M96.3923 107.547C97.9456 107.626 99.4989 107.706 101.054 107.784C101.248 107.434 101.44 107.062 101.626 106.667C100.117 106.59 98.6071 106.513 97.0978 106.437C96.8595 106.803 96.6213 107.17 96.3923 107.547Z" fill="#211736"/>
<path d="M94.8179 111.46C96.2527 111.432 97.6836 111.36 99.1104 111.234C99.2595 110.808 99.4445 110.402 99.6481 110.031C98.1334 110.18 96.6161 110.274 95.0947 110.31C94.9776 110.69 94.8844 111.074 94.8179 111.46Z" fill="#211736"/>
<path d="M95.0734 115.411C96.3512 115.106 97.5624 114.596 98.7843 114.115C98.7204 113.719 98.7098 113.311 98.7444 112.905C97.4426 113.411 96.1609 113.967 94.8032 114.295C94.8658 114.67 94.9563 115.043 95.0734 115.411Z" fill="#211736"/>
<path d="M97.4557 119.191C98.5951 118.443 99.7464 117.712 100.914 117.002C100.514 116.789 100.179 116.543 99.9008 116.274C98.8134 116.942 97.7379 117.627 96.6731 118.328C96.9127 118.622 97.1696 118.911 97.4557 119.191Z" fill="#211736"/>
<path d="M101.901 121.695C102.651 120.447 103.326 119.162 103.925 117.837C103.497 117.791 103.102 117.728 102.737 117.647C102.149 118.909 101.493 120.133 100.769 121.322C101.144 121.468 101.525 121.59 101.901 121.695Z" fill="#211736"/>
<path d="M151.228 96.0056C151.019 95.2985 149.891 95.5991 150.102 96.3101C150.966 99.2402 151.156 102.23 151.135 105.265C151.129 106.003 152.297 106.003 152.302 105.265C152.323 102.126 152.121 99.0337 151.228 96.0056Z" fill="#211736"/>
<path d="M151.796 105.909C148.246 105.65 143.867 105.187 140.788 103.193C137.896 101.319 135.611 98.2164 133.274 95.7019C132.72 95.1086 131.841 96.0065 132.392 96.5985C134.939 99.3364 137.444 102.812 140.748 104.642C144.011 106.447 148.146 106.911 151.796 107.177C152.596 107.235 152.592 105.966 151.796 105.909Z" fill="#211736"/>
<path d="M150.812 114.977C144.284 115.525 137.643 115.863 131.746 112.557C126.213 109.458 122.519 104.133 121.325 98.0221C121.183 97.2994 120.058 97.6052 120.199 98.3279C121.406 104.497 125.117 109.953 130.606 113.229C136.815 116.934 143.827 116.711 150.812 116.123C151.555 116.061 151.562 114.914 150.812 114.977Z" fill="#211736"/>
<path d="M70.5268 117.901C70.6998 117.67 70.4655 117.35 70.2046 117.348C68.6034 117.344 66.8452 117.906 65.2666 118.319C65.409 116.852 65.5235 115.38 65.602 113.906C65.6233 113.506 65.1055 113.455 64.9059 113.72C63.9515 114.985 63.1183 116.313 62.4009 117.714C61.1204 116.696 59.7854 115.751 58.4438 114.81C58.2321 114.663 58.0272 114.78 57.9433 114.96C57.8661 115.039 57.8315 115.153 57.8834 115.291C58.4784 116.866 59.1678 118.395 59.9438 119.889C58.4225 120.327 56.9198 120.812 55.4317 121.35C55.1575 121.449 55.1242 121.754 55.244 121.938C55.248 122.078 55.3279 122.211 55.5102 122.253C56.977 122.593 58.4504 122.887 59.9318 123.143C59.2104 124.504 58.5023 125.869 57.8595 127.268C57.7263 127.556 58.0378 128.02 58.3706 127.769C59.6097 126.842 60.8369 125.899 62.0601 124.95C62.55 126.344 63.0544 127.735 63.873 128.981C64.0274 129.216 64.5079 129.229 64.5571 128.893C64.7847 127.291 64.9471 125.685 65.0456 124.071C66.5803 124.515 68.1243 124.924 69.6802 125.294C70.0715 125.387 70.2739 124.905 70.0529 124.681C70.0396 124.655 70.025 124.63 70.005 124.605C68.9828 123.326 67.918 122.083 66.8145 120.872C67.4228 120.417 68.0324 119.961 68.638 119.501C69.2876 119.008 70.0383 118.56 70.5268 117.901Z" fill="#F6D76A"/>
<path d="M47.1022 132.54C47.2752 132.307 47.041 131.988 46.7788 131.988C45.1775 131.983 43.4206 132.544 41.8407 132.958C41.9844 131.489 42.0976 130.019 42.1774 128.544C42.1987 128.145 41.681 128.094 41.48 128.359C40.527 129.623 39.6937 130.951 38.9763 132.353C37.6959 131.335 36.3595 130.389 35.0179 129.449C34.8062 129.301 34.6026 129.418 34.5174 129.6C34.4402 129.678 34.4069 129.791 34.4588 129.93C35.0538 131.503 35.742 133.034 36.5179 134.526C34.9979 134.964 33.4939 135.45 32.0071 135.989C31.7329 136.088 31.6996 136.392 31.8194 136.575C31.8221 136.717 31.9033 136.85 32.0856 136.892C33.5511 137.23 35.0259 137.526 36.5073 137.782C35.7845 139.142 35.0778 140.508 34.4336 141.906C34.3005 142.195 34.6119 142.659 34.946 142.408C36.1838 141.48 37.4124 140.539 38.6356 139.589C39.1254 140.984 39.6299 142.374 40.4484 143.62C40.6028 143.854 41.0833 143.868 41.1312 143.532C41.3602 141.929 41.5212 140.324 41.6197 138.71C43.1544 139.154 44.6984 139.563 46.2543 139.933C46.647 140.026 46.8493 139.543 46.6284 139.32C46.615 139.294 46.5991 139.268 46.5791 139.243C45.5582 137.965 44.4934 136.722 43.3887 135.51C43.9983 135.055 44.6079 134.599 45.2121 134.139C45.863 133.645 46.6137 133.198 47.1022 132.54Z" fill="#9487FE"/>
<path d="M235.151 87.1434C235.299 86.9447 235.098 86.6716 234.874 86.6716C233.502 86.6677 231.998 87.1473 230.645 87.5015C230.767 86.2442 230.864 84.9844 230.933 83.7219C230.952 83.3808 230.507 83.3364 230.335 83.5638C229.519 84.6459 228.806 85.7829 228.191 86.9826C227.096 86.1122 225.951 85.3019 224.802 84.4969C224.621 84.3701 224.446 84.4707 224.372 84.6263C224.307 84.6929 224.278 84.7909 224.323 84.9099C224.832 86.2573 225.423 87.5668 226.085 88.8463C224.784 89.22 223.497 89.6356 222.223 90.097C221.987 90.1819 221.959 90.4433 222.062 90.6001C222.066 90.7217 222.132 90.8341 222.289 90.872C223.546 91.1621 224.808 91.4143 226.077 91.6339C225.459 92.7984 224.853 93.9693 224.302 95.1652C224.187 95.4135 224.455 95.8095 224.74 95.5951C225.801 94.8005 226.852 93.9942 227.9 93.1813C228.318 94.3745 228.75 95.5664 229.452 96.6328C229.585 96.8341 229.996 96.8445 230.039 96.557C230.233 95.1848 230.371 93.8099 230.455 92.4285C231.769 92.8088 233.092 93.1591 234.424 93.4753C234.761 93.5551 234.934 93.1421 234.745 92.95C234.733 92.9277 234.72 92.9068 234.704 92.8859C233.828 91.7894 232.916 90.7256 231.97 89.6879C232.492 89.2985 233.013 88.9077 233.531 88.513C234.089 88.0922 234.732 87.7066 235.151 87.1434Z" fill="#FFA087"/>
<path d="M180.527 30.3984C180.655 30.2259 180.482 29.9893 180.288 29.988C179.1 29.9854 177.797 30.4023 176.627 30.7081C176.733 29.6195 176.818 28.5295 176.876 27.4369C176.891 27.1403 176.508 27.1024 176.359 27.2997C175.652 28.2368 175.034 29.2209 174.503 30.2586C173.553 29.5045 172.564 28.804 171.57 28.1074C171.413 27.9976 171.259 28.0839 171.198 28.2185C171.141 28.276 171.116 28.3622 171.154 28.4642C171.595 29.6299 172.106 30.7643 172.681 31.8713C171.554 32.1954 170.44 32.5548 169.336 32.956C169.134 33.0279 169.109 33.2553 169.196 33.3912C169.199 33.4945 169.259 33.5938 169.395 33.6251C170.481 33.8761 171.575 34.0943 172.673 34.2851C172.138 35.2928 171.612 36.3056 171.137 37.342C171.037 37.5576 171.267 37.9 171.515 37.7145C172.432 37.027 173.344 36.3278 174.25 35.6247C174.612 36.6572 174.988 37.6896 175.595 38.6123C175.709 38.7874 176.066 38.7966 176.1 38.547C176.271 37.359 176.391 36.1684 176.462 34.9726C177.602 35.3019 178.745 35.6038 179.899 35.8796C180.189 35.9488 180.34 35.592 180.176 35.4248C180.167 35.4052 180.155 35.3869 180.14 35.3686C179.381 34.4197 178.592 33.4984 177.775 32.6005C178.226 32.2634 178.677 31.9249 179.126 31.5838C179.609 31.2191 180.165 30.8872 180.527 30.3984Z" fill="#D892C0"/>
<path d="M203.775 221.719C203.947 221.485 203.714 221.167 203.451 221.167C201.852 221.163 200.092 221.722 198.513 222.136C198.657 220.669 198.77 219.197 198.85 217.723C198.87 217.324 198.354 217.272 198.153 217.537C197.198 218.801 196.366 220.13 195.649 221.53C194.369 220.513 193.034 219.567 191.691 218.627C191.479 218.48 191.274 218.596 191.19 218.779C191.114 218.856 191.08 218.97 191.132 219.108C191.727 220.682 192.416 222.212 193.191 223.705C191.672 224.144 190.167 224.629 188.68 225.166C188.406 225.266 188.372 225.571 188.491 225.755C188.495 225.895 188.576 226.028 188.758 226.071C190.224 226.41 191.699 226.704 193.18 226.961C192.457 228.321 191.75 229.686 191.108 231.083C190.973 231.375 191.285 231.836 191.619 231.588C192.857 230.659 194.085 229.716 195.308 228.767C195.798 230.162 196.301 231.552 197.121 232.798C197.276 233.033 197.756 233.046 197.804 232.709C198.033 231.108 198.195 229.502 198.292 227.889C199.828 228.332 201.371 228.741 202.927 229.11C203.32 229.204 203.522 228.722 203.301 228.498C203.288 228.472 203.273 228.447 203.253 228.422C202.231 227.143 201.165 225.9 200.061 224.69C200.671 224.234 201.281 223.778 201.886 223.318C202.536 222.825 203.286 222.377 203.775 221.719Z" fill="#FFF4ED"/>
<path d="M112.928 238.709C111.951 238.221 111.374 237.548 110.935 236.529C110.515 235.554 110.218 234.52 110.163 233.46C110.155 233.314 110.179 233.143 110.054 233.04C109.945 232.948 109.769 232.957 109.667 233.055C109.596 233.121 109.576 233.224 109.573 233.319C109.536 234.431 109.206 235.519 108.743 236.529C108.274 237.548 107.659 238.221 106.62 238.709C106.448 238.789 106.442 238.957 106.521 239.079C106.549 239.151 106.607 239.213 106.7 239.242C108.369 239.782 109.168 241.741 109.466 243.294C109.52 243.572 109.484 244.035 109.631 244.271C109.704 244.39 109.862 244.44 109.993 244.382C110.15 244.313 110.158 244.144 110.167 243.994C110.27 242.315 111.056 239.866 112.852 239.242C112.941 239.213 112.994 239.151 113.02 239.079C113.095 238.957 113.089 238.789 112.928 238.709Z" fill="#F6D76A"/>
<path d="M42.3516 220.658C41.1683 220.067 40.4682 219.251 39.9371 218.017C39.4273 216.835 39.068 215.583 39.0014 214.297C38.9921 214.12 39.0201 213.912 38.8696 213.789C38.7365 213.678 38.5236 213.688 38.3998 213.806C38.3146 213.887 38.2893 214.01 38.2853 214.126C38.2427 215.474 37.8421 216.792 37.2804 218.017C36.7134 219.251 35.968 220.067 34.7076 220.659C34.4986 220.756 34.4919 220.959 34.5878 221.109C34.621 221.194 34.6902 221.268 34.8047 221.306C36.8265 221.96 37.7955 224.334 38.1562 226.215C38.2214 226.552 38.1775 227.113 38.3559 227.402C38.4437 227.545 38.6367 227.606 38.7951 227.535C38.9841 227.45 38.9948 227.248 39.0054 227.065C39.1305 225.03 40.0835 222.06 42.2611 221.306C42.3676 221.268 42.4328 221.194 42.4647 221.109C42.5539 220.959 42.5473 220.756 42.3516 220.658Z" fill="#FFA087"/>
<path d="M201.309 101.108C200.332 100.621 199.755 99.947 199.316 98.9276C198.895 97.9553 198.6 96.9202 198.544 95.8603C198.536 95.7139 198.56 95.5414 198.436 95.4395C198.326 95.3493 198.15 95.3571 198.048 95.4552C197.977 95.5218 197.956 95.6237 197.953 95.7191C197.917 96.8313 197.587 97.9187 197.124 98.9276C196.655 99.947 196.04 100.621 195.001 101.109C194.829 101.19 194.822 101.356 194.902 101.48C194.93 101.552 194.988 101.612 195.081 101.643C196.75 102.183 197.55 104.141 197.847 105.692C197.9 105.972 197.864 106.434 198.01 106.672C198.085 106.791 198.245 106.841 198.372 106.782C198.531 106.712 198.539 106.546 198.548 106.395C198.65 104.716 199.437 102.265 201.234 101.643C201.322 101.612 201.375 101.552 201.402 101.48C201.475 101.356 201.47 101.19 201.309 101.108Z" fill="#FFF4ED"/>
<path d="M159.242 37.3813C158.267 36.8938 157.688 36.2195 157.249 35.2014C156.83 34.2278 156.533 33.194 156.479 32.1328C156.471 31.9864 156.495 31.8152 156.371 31.712C156.26 31.6218 156.085 31.6309 155.982 31.7276C155.912 31.7943 155.892 31.8962 155.888 31.9916C155.852 33.1038 155.522 34.1912 155.057 35.2014C154.59 36.2195 153.975 36.8938 152.935 37.3813C152.764 37.4623 152.757 37.6296 152.837 37.7525C152.865 37.8244 152.922 37.8858 153.015 37.9158C154.684 38.4556 155.484 40.4133 155.781 41.9659C155.834 42.2443 155.8 42.707 155.946 42.9448C156.019 43.0624 156.178 43.1134 156.307 43.0546C156.465 42.984 156.473 42.8167 156.483 42.6664C156.585 40.9884 157.372 38.5379 159.167 37.9158C159.255 37.8858 159.31 37.8244 159.336 37.7525C159.409 37.6296 159.404 37.461 159.242 37.3813Z" fill="#FFF4ED"/>
<path d="M190.101 125.185C189.126 124.697 188.548 124.023 188.109 123.005C187.69 122.03 187.393 120.997 187.337 119.937C187.329 119.79 187.353 119.617 187.229 119.515C187.119 119.425 186.943 119.434 186.842 119.531C186.77 119.598 186.751 119.699 186.746 119.795C186.71 120.907 186.38 121.994 185.917 123.005C185.448 124.023 184.833 124.697 183.794 125.185C183.622 125.266 183.617 125.432 183.695 125.556C183.723 125.626 183.78 125.689 183.874 125.719C185.543 126.259 186.343 128.218 186.641 129.769C186.694 130.048 186.657 130.51 186.803 130.748C186.878 130.866 187.037 130.917 187.167 130.859C187.324 130.787 187.332 130.621 187.341 130.471C187.443 128.79 188.23 126.341 190.027 125.719C190.115 125.689 190.168 125.626 190.195 125.556C190.269 125.432 190.262 125.266 190.101 125.185Z" fill="#9487FE"/>
<path d="M243.972 199.239C242.811 198.66 242.124 197.859 241.602 196.649C241.103 195.491 240.751 194.262 240.687 193.002C240.677 192.827 240.705 192.623 240.556 192.502C240.426 192.395 240.218 192.405 240.097 192.519C240.012 192.599 239.989 192.72 239.985 192.834C239.941 194.155 239.55 195.448 238.998 196.649C238.443 197.859 237.712 198.66 236.475 199.239C236.27 199.336 236.264 199.533 236.357 199.681C236.392 199.764 236.458 199.838 236.569 199.874C238.553 200.516 239.503 202.843 239.858 204.689C239.921 205.019 239.879 205.568 240.052 205.851C240.14 205.992 240.329 206.052 240.483 205.983C240.669 205.899 240.68 205.7 240.691 205.521C240.813 203.526 241.748 200.614 243.881 199.874C243.986 199.838 244.05 199.764 244.082 199.681C244.17 199.533 244.163 199.336 243.972 199.239Z" fill="#FFF4ED"/>
<path d="M48.6581 103.638C47.2978 102.961 46.4952 102.021 45.8829 100.603C45.2986 99.2463 44.886 97.8074 44.8088 96.3306C44.7981 96.1268 44.83 95.8863 44.6583 95.7451C44.504 95.6197 44.2604 95.6301 44.118 95.7661C44.0195 95.8588 43.9915 96.0013 43.9875 96.1346C43.9369 97.6833 43.4764 99.1967 42.8309 100.603C42.18 102.021 41.3241 102.961 39.876 103.638C39.6364 103.75 39.6284 103.983 39.7389 104.155C39.7775 104.254 39.856 104.339 39.9878 104.381C42.3104 105.134 43.4232 107.86 43.8384 110.022C43.913 110.409 43.8624 111.054 44.0674 111.385C44.1685 111.55 44.3908 111.619 44.5718 111.538C44.7901 111.44 44.8008 111.208 44.8141 110.998C44.9578 108.66 46.0533 105.249 48.5529 104.381C48.6754 104.339 48.7499 104.254 48.7872 104.155C48.8897 103.983 48.883 103.75 48.6581 103.638Z" fill="#FFF4ED"/>
<path d="M83.4548 89.4604C82.3101 88.8906 81.6326 88.0999 81.1175 86.9041C80.625 85.7631 80.2776 84.5516 80.2138 83.3075C80.2044 83.1362 80.2311 82.935 80.086 82.8147C79.9569 82.7076 79.7506 82.718 79.6308 82.833C79.5496 82.9102 79.5243 83.0304 79.5216 83.1428C79.479 84.4458 79.0917 85.72 78.5473 86.9041C77.9989 88.0999 77.2789 88.8906 76.0583 89.4604C75.8573 89.5558 75.8507 89.7518 75.9438 89.8956C75.9758 89.9792 76.0423 90.0524 76.1528 90.0877C78.1094 90.7202 79.0464 93.0178 79.3965 94.8357C79.4591 95.1637 79.4165 95.7061 79.5882 95.9844C79.6747 96.123 79.861 96.1805 80.0128 96.1138C80.1964 96.0302 80.2071 95.8341 80.2177 95.659C80.3375 93.6895 81.2599 90.8182 83.3669 90.0877C83.4694 90.0524 83.532 89.9792 83.5626 89.8956C83.6504 89.7518 83.6438 89.5558 83.4548 89.4604Z" fill="#EF6B47"/>
<path d="M218.805 109.402C217.66 108.831 216.983 108.04 216.467 106.846C215.976 105.704 215.629 104.491 215.564 103.249C215.554 103.077 215.582 102.874 215.437 102.755C215.307 102.649 215.101 102.66 214.982 102.772C214.9 102.851 214.876 102.971 214.872 103.083C214.83 104.386 214.442 105.662 213.899 106.846C213.35 108.04 212.629 108.831 211.41 109.402C211.207 109.496 211.201 109.692 211.295 109.837C211.327 109.921 211.392 109.992 211.503 110.028C213.461 110.661 214.396 112.958 214.746 114.778C214.809 115.104 214.768 115.648 214.938 115.925C215.025 116.064 215.211 116.122 215.363 116.054C215.548 115.972 215.557 115.776 215.568 115.6C215.689 113.631 216.61 110.759 218.717 110.028C218.821 109.992 218.883 109.921 218.914 109.837C219 109.692 218.994 109.496 218.805 109.402Z" fill="#F6D76A"/>
<path d="M233.242 217.404C231.882 216.726 231.077 215.786 230.466 214.365C229.881 213.009 229.467 211.569 229.39 210.092C229.378 209.887 229.412 209.646 229.239 209.505C229.085 209.378 228.841 209.391 228.698 209.526C228.601 209.619 228.573 209.76 228.568 209.894C228.517 211.444 228.057 212.959 227.41 214.365C226.759 215.786 225.902 216.726 224.454 217.404C224.214 217.516 224.205 217.749 224.315 217.921C224.355 218.021 224.434 218.106 224.564 218.149C226.891 218.9 228.005 221.63 228.42 223.792C228.493 224.182 228.444 224.826 228.648 225.158C228.75 225.321 228.971 225.392 229.152 225.309C229.372 225.211 229.384 224.979 229.396 224.77C229.538 222.429 230.635 219.017 233.137 218.148C233.261 218.106 233.334 218.021 233.371 217.921C233.475 217.749 233.467 217.516 233.242 217.404Z" fill="#EF6B47"/>
<path d="M62.2263 64.7391C61.4224 66.1584 60.6185 67.5777 59.8145 68.997C59.5031 69.5432 60.4082 69.9418 60.717 69.3956C61.5209 67.9776 62.3248 66.5583 63.1288 65.139C63.4389 64.5901 62.5351 64.1941 62.2263 64.7391Z" fill="#FFF4ED"/>
<path d="M67.3641 57.1784C66.4829 58.352 65.6644 59.5648 64.9003 60.8142C64.5729 61.3513 65.478 61.7473 65.8028 61.2141C66.5229 60.0366 67.3028 58.8969 68.1347 57.7913C68.5127 57.2894 67.7447 56.6726 67.3641 57.1784Z" fill="#FFF4ED"/>
<path d="M64.3813 65.4562C64.714 67.0493 65.0454 68.6398 65.3782 70.2316C65.506 70.8393 66.4922 70.7557 66.3658 70.1427C66.0317 68.5509 65.7003 66.9604 65.3675 65.3673C65.2411 64.7596 64.2535 64.8445 64.3813 65.4562Z" fill="#FFF4ED"/>
<path d="M61.7153 63.0828C60.0303 63.5389 58.3439 63.9872 56.6535 64.425C56.0385 64.5858 56.3926 65.4941 57.0035 65.3359C58.6939 64.8955 60.3803 64.4485 62.0654 63.9924C62.6803 63.8278 62.3263 62.9182 61.7153 63.0828Z" fill="#FFF4ED"/>
<path d="M61.9457 55.7929C62.3676 57.4762 62.7349 59.17 63.0517 60.8755C63.1649 61.4871 64.1525 61.4008 64.038 60.7866C63.7053 58.9948 63.3153 57.2161 62.8734 55.4492C62.7216 54.8428 61.7952 55.1917 61.9457 55.7929Z" fill="#FFF4ED"/>
<path d="M70.6384 60.6223C69.0345 60.9987 67.4692 61.4822 65.9359 62.0743C65.3423 62.3043 65.691 63.2152 66.286 62.9852C67.8193 62.3919 69.3846 61.9083 70.9885 61.5319C71.606 61.3868 71.2507 60.4785 70.6384 60.6223Z" fill="#FFF4ED"/>
<path d="M70.2178 66.6391C69.0092 65.855 67.8299 65.0303 66.6812 64.1638C66.1768 63.7822 65.5499 64.5376 66.0583 64.9192C67.207 65.787 68.3849 66.6104 69.5948 67.3958C70.1206 67.7369 70.7515 66.9841 70.2178 66.6391Z" fill="#FFF4ED"/>
<path d="M62.1985 61.4766C60.9846 60.7238 59.7707 59.9698 58.5555 59.217C58.023 58.8863 57.3935 59.6378 57.9325 59.9724C59.1464 60.7265 60.3616 61.4792 61.5755 62.2333C62.1079 62.564 62.7388 61.8125 62.1985 61.4766Z" fill="#FFF4ED"/>
<path d="M81.6327 227.598C80.8287 229.015 80.0248 230.435 79.2208 231.854C78.9107 232.402 79.8145 232.798 80.1233 232.254C80.9272 230.835 81.7311 229.415 82.5351 227.996C82.8452 227.449 81.9415 227.053 81.6327 227.598Z" fill="#FFF4ED"/>
<path d="M86.7717 220.037C85.8893 221.21 85.0707 222.424 84.308 223.673C83.9792 224.21 84.8857 224.606 85.2104 224.073C85.9305 222.895 86.7092 221.756 87.541 220.65C87.9191 220.148 87.1511 219.531 86.7717 220.037Z" fill="#FFF4ED"/>
<path d="M83.7875 228.315C84.1203 229.907 84.4517 231.499 84.7844 233.09C84.9122 233.698 85.8998 233.615 85.7721 233C85.4393 231.41 85.1065 229.818 84.7738 228.226C84.6473 227.618 83.6597 227.702 83.7875 228.315Z" fill="#FFF4ED"/>
<path d="M81.1216 225.942C79.4378 226.398 77.7501 226.845 76.0597 227.284C75.4448 227.442 75.7988 228.353 76.4098 228.194C78.1002 227.755 79.7879 227.308 81.473 226.852C82.0866 226.686 81.7325 225.776 81.1216 225.942Z" fill="#FFF4ED"/>
<path d="M81.3531 218.65C81.7737 220.335 82.1411 222.029 82.4579 223.734C82.571 224.346 83.5586 224.26 83.4442 223.645C83.1114 221.854 82.7214 220.075 82.2795 218.308C82.1278 217.7 81.2027 218.049 81.3531 218.65Z" fill="#FFF4ED"/>
<path d="M90.0448 223.481C88.4409 223.856 86.8756 224.341 85.3423 224.933C84.75 225.161 85.0974 226.074 85.6924 225.844C87.2257 225.25 88.791 224.765 90.3948 224.39C91.0138 224.245 90.6571 223.337 90.0448 223.481Z" fill="#FFF4ED"/>
<path d="M89.624 229.498C88.4154 228.713 87.2362 227.889 86.0875 227.023C85.583 226.641 84.9561 227.395 85.4646 227.778C86.6132 228.645 87.7912 229.469 89.0011 230.254C89.5282 230.595 90.1578 229.843 89.624 229.498Z" fill="#FFF4ED"/>
<path d="M81.606 224.336C80.3908 223.583 79.1769 222.829 77.963 222.076C77.4306 221.744 76.7997 222.495 77.3388 222.831C78.5527 223.585 79.7679 224.338 80.9818 225.092C81.5142 225.422 82.1451 224.67 81.606 224.336Z" fill="#FFF4ED"/>
<path d="M233.966 159.725C233.162 161.144 232.358 162.564 231.555 163.983C231.244 164.53 232.149 164.926 232.457 164.383C233.261 162.964 234.065 161.544 234.869 160.125C235.18 159.577 234.275 159.181 233.966 159.725Z" fill="#F6D76A"/>
<path d="M239.106 152.164C238.224 153.338 237.405 154.551 236.641 155.8C236.314 156.337 237.22 156.732 237.543 156.2C238.264 155.022 239.044 153.883 239.876 152.777C240.253 152.275 239.486 151.658 239.106 152.164Z" fill="#F6D76A"/>
<path d="M236.123 160.444C236.454 162.035 236.786 163.627 237.12 165.218C237.246 165.825 238.234 165.742 238.105 165.129C237.773 163.537 237.44 161.945 237.108 160.353C236.983 159.747 235.994 159.831 236.123 160.444Z" fill="#F6D76A"/>
<path d="M233.457 158.07C231.772 158.525 230.085 158.974 228.395 159.411C227.779 159.571 228.133 160.48 228.744 160.321C230.434 159.883 232.12 159.436 233.807 158.979C234.42 158.813 234.066 157.904 233.457 158.07Z" fill="#F6D76A"/>
<path d="M233.687 150.779C234.107 152.463 234.475 154.156 234.792 155.862C234.905 156.473 235.892 156.388 235.778 155.773C235.445 153.981 235.055 152.204 234.613 150.436C234.462 149.829 233.536 150.178 233.687 150.779Z" fill="#F6D76A"/>
<path d="M242.379 155.608C240.776 155.985 239.211 156.468 237.676 157.06C237.082 157.29 237.432 158.201 238.026 157.971C239.561 157.378 241.126 156.895 242.729 156.518C243.348 156.373 242.992 155.464 242.379 155.608Z" fill="#F6D76A"/>
<path d="M241.958 161.625C240.749 160.841 239.571 160.016 238.421 159.15C237.917 158.769 237.29 159.522 237.799 159.905C238.947 160.772 240.127 161.598 241.335 162.38C241.863 162.723 242.492 161.97 241.958 161.625Z" fill="#F6D76A"/>
<path d="M233.94 156.463C232.726 155.71 231.512 154.956 230.298 154.203C229.764 153.873 229.133 154.624 229.674 154.959C230.888 155.713 232.102 156.466 233.315 157.22C233.848 157.55 234.479 156.799 233.94 156.463Z" fill="#F6D76A"/>
<path d="M62.9679 207.24C63.0225 207.181 63.1622 207.174 63.3392 207.214C63.9236 207.35 66.2169 208.372 66.4991 207.35C66.6894 206.659 65.7218 206.023 65.2825 205.637C63.9276 204.437 62.4315 203.374 60.8369 202.504C60.7185 202.439 59.0707 201.494 59.1346 201.427C59.2916 201.269 59.5977 201.26 59.8001 201.204C60.2406 201.085 61.0872 200.86 60.7784 200.236C60.4429 199.563 59.5884 199.191 58.9469 198.86C57.6758 198.204 56.2835 197.752 54.9299 197.287C53.487 196.79 52.0243 196.355 50.5615 195.918C46.2423 194.627 41.8699 193.519 37.4576 192.575C37.3444 192.552 37.246 192.571 37.1674 192.619C37.0849 192.585 36.9917 192.57 36.8972 192.588C36.848 192.598 36.7987 192.607 36.7495 192.617C36.6696 192.568 36.5658 192.548 36.446 192.585C35.5862 192.835 35.4384 193.719 35.517 194.485C35.5263 194.583 35.5662 194.661 35.6208 194.721C35.6288 194.831 35.6847 194.941 35.8138 195.014C38.9057 196.772 41.7381 198.65 44.311 201.103C45.5236 202.26 46.7188 203.432 47.942 204.577C48.8697 205.447 49.8281 206.276 50.7824 207.116C51.0513 207.351 51.4892 207.828 51.8832 207.813C52.6245 207.783 52.0176 206.276 51.9577 205.908C53.2195 207.1 54.452 208.322 55.7045 209.522C56.3314 210.123 56.9637 210.718 57.6065 211.302C57.9273 211.593 58.2521 211.881 58.5795 212.165C58.8684 212.417 59.1652 212.749 59.5205 212.908C59.6816 212.981 59.8693 213.034 60.0357 212.942C60.5295 212.67 60.2659 211.98 60.1302 211.584C60.029 211.288 59.9172 210.995 59.8054 210.702C59.6976 210.425 59.466 210.097 59.4873 209.796C59.4926 209.713 60.1368 210.266 60.1621 210.289C61.1138 211.184 62.1626 211.98 63.2607 212.695C63.7412 213.008 64.2284 213.321 64.7248 213.605C65.1281 213.835 65.7005 214.129 66.1623 213.887C66.3793 213.775 66.5071 213.537 66.5337 213.299C66.5603 213.06 66.4964 212.819 66.4059 212.596C66.2102 212.116 65.9427 211.68 65.6925 211.226C64.9524 209.883 64.0806 208.688 63.0637 207.537C62.9359 207.393 62.916 207.295 62.9679 207.24Z" fill="#9487FE"/>
<path d="M37.323 187.137C37.347 186.915 37.0635 186.789 36.8878 186.887C35.807 187.495 34.846 188.541 33.9463 189.419C33.4644 188.376 32.96 187.342 32.4329 186.321C32.2891 186.044 31.9218 186.206 31.8912 186.461C31.7474 187.674 31.7115 188.886 31.7794 190.101C30.5176 189.904 29.2464 189.774 27.9726 189.653C27.7717 189.633 27.6798 189.79 27.6945 189.944C27.6732 190.027 27.6958 190.117 27.785 190.189C28.8059 191.022 29.8733 191.79 30.9834 192.499C30.1329 193.372 29.3116 194.271 28.5237 195.198C28.3773 195.371 28.4758 195.586 28.6288 195.666C28.6861 195.759 28.7926 195.819 28.9323 195.777C30.053 195.448 31.1604 195.084 32.2599 194.694C32.3091 195.884 32.3717 197.072 32.4901 198.259C32.5141 198.503 32.9067 198.697 33.0318 198.401C33.5004 197.306 33.9542 196.204 34.4028 195.101C35.2826 195.851 36.1704 196.596 37.2126 197.123C37.4082 197.222 37.7383 197.05 37.6372 196.803C37.1593 195.638 36.6349 194.496 36.0652 193.374C37.2738 193.089 38.473 192.776 39.6656 192.434C39.9665 192.348 39.9132 191.946 39.6763 191.88C39.6563 191.867 39.6364 191.855 39.6137 191.847C38.4211 191.374 37.2152 190.943 35.9947 190.548C36.225 190.01 36.4552 189.471 36.6815 188.931C36.9237 188.352 37.2525 187.766 37.323 187.137Z" fill="#F6D76A"/>
<path d="M235.578 126.26C234.145 126.436 232.859 126.92 231.548 127.503C229.476 128.425 227.639 129.011 225.339 128.962C223.69 128.927 221.997 128.775 220.398 129.277C218.763 129.79 217.474 130.935 216.092 131.887C214.573 132.932 212.95 133.898 211.157 134.414C209.381 134.925 207.511 134.928 205.712 135.315C202.473 136.013 199.587 137.731 197.329 140.093C196.87 140.572 197.622 141.281 198.082 140.8C200.67 138.096 203.937 136.52 207.665 136.028C210.844 135.611 213.481 134.859 216.164 133.08C217.543 132.165 218.834 130.933 220.411 130.347C222.183 129.688 224.13 129.997 225.975 129.994C229.541 129.99 232.173 127.702 235.602 127.285C236.261 127.204 236.245 126.179 235.578 126.26Z" fill="#FFF4ED"/>
<path d="M237.283 127.438C235.596 128.013 234.151 128.964 232.689 129.95C230.692 131.294 228.902 132.175 226.469 132.493C222.87 132.962 220.559 134.598 217.889 136.921C216.429 138.188 214.914 139.499 213.065 140.188C210.945 140.977 208.629 140.883 206.418 141.243C202.553 141.871 199.702 144.272 197.377 147.252C196.973 147.769 197.721 148.483 198.13 147.96C199.357 146.387 200.722 144.898 202.423 143.809C204.458 142.508 206.659 142.208 209.027 141.971C212.61 141.611 215.199 140.558 217.921 138.252C219.205 137.164 220.425 135.98 221.849 135.061C223.755 133.829 225.689 133.714 227.88 133.336C231.607 132.695 234.094 129.607 237.583 128.419C238.212 128.204 237.92 127.221 237.283 127.438Z" fill="#FFF4ED"/>
<path d="M234.894 131.338C231.563 133.067 229.673 136.736 225.942 137.811C224.161 138.323 222.236 138.039 220.509 138.77C219.402 139.239 218.464 140.001 217.627 140.84C215.605 142.868 213.988 145.809 211.005 146.571C209.236 147.023 207.311 146.683 205.6 147.403C204.001 148.075 202.907 149.547 201.85 150.84C201.432 151.35 202.182 152.062 202.604 151.547C204.113 149.701 205.475 148.173 208.022 147.927C209.526 147.784 211.021 147.798 212.42 147.16C214.848 146.053 216.317 143.714 218.085 141.854C219.212 140.669 220.443 139.7 222.095 139.379C223.904 139.029 225.642 139.121 227.375 138.382C230.588 137.011 232.376 133.8 235.439 132.211C236.032 131.902 235.485 131.03 234.894 131.338Z" fill="#FFF4ED"/>
<path d="M246.27 125.321C245.53 124.926 244.684 124.993 243.863 124.967C242.816 124.933 241.768 124.9 240.721 124.866C240.531 123.377 240.178 121.904 239.662 120.497C239.524 120.118 238.903 119.966 238.705 120.395C238.093 121.735 237.563 123.103 237.112 124.503C235.668 124.412 234.221 124.334 232.774 124.28C232.312 124.263 232.056 124.803 232.285 125.163C232.369 125.297 232.489 125.403 232.606 125.509C233.338 126.166 233.969 126.916 234.681 127.591C234.978 127.872 235.286 128.144 235.594 128.41C234.922 130.095 234.269 131.782 233.832 133.545C233.727 133.97 234.222 134.351 234.612 134.106C236.189 133.109 237.703 132.022 239.156 130.859C240.439 132.042 241.828 133.078 243.346 133.962C243.674 134.153 244.154 133.89 244.121 133.503C243.96 131.688 243.603 129.924 243.043 128.197C244.155 127.583 245.239 126.922 246.289 126.204C246.603 125.99 246.63 125.513 246.27 125.321Z" fill="#EF6B47"/>
<path d="M105.015 55.7384C104.844 55.2156 104.406 54.864 104.026 54.4798C103.539 53.9897 103.052 53.5009 102.566 53.0109C103.173 52.2097 103.694 51.3432 104.107 50.4336C104.217 50.1905 103.991 49.8364 103.697 49.954C102.773 50.3186 101.878 50.7355 101.004 51.2021C100.354 50.5055 99.6973 49.8142 99.0278 49.132C98.8135 48.9163 98.4382 49.0588 98.3796 49.3345C98.357 49.4365 98.365 49.5423 98.3717 49.6469C98.4142 50.2925 98.3637 50.9381 98.3903 51.585C98.4009 51.8529 98.4209 52.1222 98.4449 52.3914C97.3308 52.8945 96.226 53.4082 95.1905 54.0564C94.9403 54.2132 94.9988 54.6197 95.2997 54.6785C96.5269 54.9137 97.7607 55.0771 99.0039 55.1777C99.0638 56.3252 99.2448 57.4517 99.5589 58.5626C99.6255 58.8018 99.9809 58.8932 100.145 58.692C100.919 57.7497 101.575 56.7421 102.116 55.6586C102.94 55.8677 103.769 56.0416 104.609 56.1723C104.86 56.2115 105.097 55.9932 105.015 55.7384Z" fill="#F6D76A"/>
<path d="M94.8431 52.3378C94.529 52.0163 94.0777 51.8503 93.6598 51.7066C93.2099 51.5524 92.7707 51.3851 92.3261 51.2126C91.3611 50.8388 90.3842 50.4833 89.3792 50.2219C88.4276 49.9736 87.4612 49.8246 86.5029 49.6116C85.4447 49.3777 84.4598 49.064 83.367 49.0065C83.3417 49.0052 83.3204 49.0117 83.3005 49.0209C83.182 48.9974 83.0742 49.162 83.1927 49.2522C83.3031 49.3267 83.4016 49.4143 83.4975 49.5058C82.7401 49.5698 82.0054 49.7175 81.2827 49.9579C81.1482 50.0024 81.1908 50.1853 81.3133 50.2102C84.0206 50.7186 86.7332 51.1982 89.4471 51.6648C90.3482 51.8203 91.252 51.964 92.1544 52.1143C92.7347 52.211 93.331 52.36 93.9207 52.4607C94.1682 52.5038 94.4358 52.5704 94.6887 52.5495C94.8803 52.5325 94.9389 52.4371 94.8431 52.3378Z" fill="#EF6B47"/>
<path d="M96.0889 51.0152C96.0197 50.8204 95.8454 50.6401 95.7243 50.4767C95.5073 50.1866 95.2504 49.9265 94.9789 49.6847C94.4265 49.1947 93.8116 48.783 93.2233 48.3386C92.0267 47.4343 90.7689 46.607 89.4658 45.8594C88.1348 45.0949 86.7572 44.4114 85.3436 43.8089C84.0459 43.2561 82.5804 42.5268 81.1563 42.3987C81.0538 42.3909 80.9473 42.519 81.0311 42.6065C81.1163 42.6967 81.2028 42.783 81.2907 42.8679C79.6322 42.2654 77.7661 42.1491 76.0252 42.204C75.9054 42.2079 75.8734 42.3726 75.9586 42.4393C76.3899 42.7686 76.9436 42.8967 77.4494 43.0796C78.1362 43.3306 78.8043 43.6207 79.4672 43.9278C80.2938 44.3094 81.127 44.6754 81.9695 45.0217C81.7073 45.0714 81.4504 45.138 81.1922 45.2217C81.0697 45.2635 81.099 45.4151 81.1895 45.4661C84.0459 47.05 87.3442 47.6381 90.3389 48.9163C91.4597 49.3972 92.5644 49.9121 93.6612 50.4401C94.1417 50.6715 94.6341 50.9315 95.1293 51.1524C95.3808 51.2648 96.2726 51.717 96.1036 51.0635C96.0996 51.0479 96.0943 51.0322 96.0889 51.0152Z" fill="#FFA087"/>
<path d="M96.9314 49.5081C96.9327 49.2533 96.777 49.0298 96.6625 48.8115C96.5228 48.5475 96.3777 48.2835 96.2273 48.0235C95.4114 46.6146 94.4344 45.313 93.3257 44.1132C93.1872 43.9655 93.0475 43.8165 92.9064 43.6702C92.0306 42.7671 91.0949 41.9228 90.1246 41.1178C89.2328 40.3755 88.3144 39.526 87.2522 39.0254C87.1471 38.9771 87.0353 39.0842 87.0712 39.1888C87.1271 39.3561 87.1963 39.5011 87.2762 39.6384C86.1661 39.0542 84.9549 38.751 83.6758 38.751C83.6292 38.751 83.5986 38.7706 83.5799 38.7993C83.5027 38.8385 83.4628 38.9444 83.5493 39.0097C85.0441 40.1428 86.5774 41.2184 88.1493 42.243C87.9097 42.1973 87.6675 42.1633 87.4199 42.1437C87.2935 42.1346 87.2056 42.2835 87.3108 42.375C89.4018 44.1681 91.5461 45.9024 93.7396 47.5739C94.2667 47.9751 94.7964 48.3724 95.3288 48.7658C95.7494 49.0768 96.0835 49.4833 96.5733 49.7002C96.8409 49.8179 96.9301 49.6859 96.9314 49.5081Z" fill="#EF6B47"/>
</svg>
