<svg width="253" height="243" viewBox="0 0 253 243" fill="none" xmlns="http://www.w3.org/2000/svg">
<path d="M185.061 154.701C183.042 153.359 180.344 153.381 178.578 151.637C177.091 150.173 176.401 148.164 175.192 146.511C172.454 142.772 167.498 143.218 163.543 141.531C159.28 139.712 156.085 135.899 155.135 131.517C153.89 125.782 155.924 119.875 154.422 114.157C154.373 113.972 154.074 114.05 154.123 114.235C155.477 119.385 153.971 124.669 154.559 129.875C155.033 134.066 157.201 137.839 160.769 140.33C162.531 141.559 164.502 142.308 166.61 142.789C168.902 143.313 171.402 143.642 173.334 145.045C175.133 146.352 175.935 148.431 177.08 150.219C177.578 150.995 178.154 151.739 178.895 152.318C179.724 152.966 180.714 153.325 181.72 153.641C183.091 154.071 184.417 154.498 185.524 155.42C186.426 156.173 187.115 157.137 187.644 158.16C188.741 160.282 189.201 162.661 189.584 164.981C189.615 165.169 189.913 165.09 189.882 164.901C189.285 161.285 188.426 156.937 185.061 154.701Z" fill="#B8AAA5"/>
<mask id="mask0_2366_485" style="mask-type:luminance" maskUnits="userSpaceOnUse" x="17" y="123" width="53" height="66">
<path d="M17.1558 123H69.653V188.4H17.1558V123Z" fill="white"/>
</mask>
<g mask="url(#mask0_2366_485)">
<path d="M69.5249 123.968L67.5862 136.771L67.5398 137.068L65.3937 151.233L65.3473 151.527L63.239 165.455L63.1926 165.75L60.9757 180.377L60.933 180.675L59.8007 188.135L17.1558 187.476L18.2648 179.788L18.3088 179.49L20.4232 164.862L20.4671 164.564L22.4791 150.636L22.523 150.339L24.5691 136.173L24.613 135.876L26.4395 123.244L69.5249 123.968Z" fill="#F7E8E1"/>
</g>
<path d="M67.5862 136.771L67.5398 137.068L24.5691 136.173L24.613 135.876L67.5862 136.771Z" fill="#E3C8BB"/>
<path d="M65.3936 151.233L65.3472 151.527L22.479 150.637L22.5229 150.339L65.3936 151.233Z" fill="#E3C8BB"/>
<path d="M63.2391 165.455L63.1927 165.75L20.4233 164.862L20.4673 164.564L63.2391 165.455Z" fill="#E3C8BB"/>
<path d="M60.9757 180.377L60.933 180.675L18.2649 179.788L18.3088 179.49L60.9757 180.377Z" fill="#E3C8BB"/>
<mask id="mask1_2366_485" style="mask-type:luminance" maskUnits="userSpaceOnUse" x="105" y="29" width="111" height="33">
<path d="M105.26 29.8677H215.831V61.5001H105.26V29.8677Z" fill="white"/>
</mask>
<g mask="url(#mask1_2366_485)">
<path d="M215.545 30.5249C212.166 31.2925 208.695 31.1284 205.266 30.7991C203.259 30.6058 182.119 30.0034 162.724 29.9542C148.484 29.9191 134.906 30.4066 131.936 30.4312C124.045 30.4968 116.157 30.198 108.274 29.9015C108.188 29.898 108.124 29.9718 108.119 30.0503C107.635 38.8347 106.931 47.6085 106.011 56.3613C105.973 56.3683 105.935 56.3765 105.897 56.3847C105.703 56.4245 105.785 56.7105 105.979 56.6706C105.822 58.153 105.661 59.6343 105.492 61.1155C105.47 61.3054 105.78 61.3042 105.801 61.1155C105.973 59.6132 106.135 58.1097 106.294 56.6062C106.339 56.5968 106.385 56.5874 106.431 56.578C106.404 56.6378 106.414 56.7116 106.492 56.7527C112.714 59.9249 119.861 60.273 126.493 58.1249C130.069 56.9671 133.462 55.3476 137.037 54.1851C140.607 53.0226 144.304 52.2163 148.047 51.778C151.802 51.3398 155.607 51.2695 159.377 51.5753C163.26 51.8905 167.061 52.712 170.901 53.3062C174.462 53.8581 178.044 54.1335 181.633 53.6648C184.903 53.2394 188.078 52.3359 191.201 51.3327C198.269 49.0605 205.483 46.0687 213.102 46.9265C213.163 46.9323 213.242 46.8761 213.252 46.8175C214.08 41.448 214.907 36.0773 215.736 30.7077C215.753 30.5976 215.67 30.498 215.545 30.5249Z" fill="#F7E8E1"/>
</g>
<mask id="mask2_2366_485" style="mask-type:luminance" maskUnits="userSpaceOnUse" x="102" y="29" width="8" height="62">
<path d="M102.137 29.8677H109.321V90.3001H102.137V29.8677Z" fill="white"/>
</mask>
<g mask="url(#mask2_2366_485)">
<path d="M109.276 29.9546L104.125 88.587L104.049 89.5362C103.785 89.6522 103.535 89.7929 103.273 89.923C102.93 89.9851 102.589 90.0601 102.277 90.2136C102.24 90.2288 102.212 90.2522 102.181 90.271C102.178 90.2733 102.175 90.2733 102.172 90.2769L107.455 29.9546H109.276Z" fill="#D892C0"/>
</g>
<mask id="mask3_2366_485" style="mask-type:luminance" maskUnits="userSpaceOnUse" x="207" y="29" width="9" height="62">
<path d="M207.71 29.8677H215.206V90.6001H207.71V29.8677Z" fill="white"/>
</mask>
<g mask="url(#mask3_2366_485)">
<path d="M215.028 29.9546L209.585 90.2265C209.539 90.2288 209.487 90.2323 209.441 90.2347C208.888 90.2675 208.341 90.312 207.788 90.3542C207.776 90.3542 207.762 90.3565 207.751 90.3565V90.3542L207.895 88.5835L213.198 29.9546H215.028Z" fill="#D892C0"/>
</g>
<mask id="mask4_2366_485" style="mask-type:luminance" maskUnits="userSpaceOnUse" x="155" y="29" width="8" height="61">
<path d="M155.236 29.8677H162.732V89.7001H155.236V29.8677Z" fill="white"/>
</mask>
<g mask="url(#mask4_2366_485)">
<path d="M162.723 29.9546L157.408 88.5835L157.333 89.4952C156.729 89.4565 156.12 89.4659 155.513 89.5163L155.588 88.587L160.903 29.9546H162.723Z" fill="#D892C0"/>
</g>
<path d="M209.414 89.9189C209.394 89.4654 209.436 89.0178 209.531 88.583L102.649 88.5877L102.158 90.3572L209.455 90.3537C209.439 90.2096 209.42 90.0654 209.414 89.9189Z" fill="#D892C0"/>
<path d="M147.585 99.4604L145.105 125.387L143.195 125.393L142.882 125.395L135.38 125.42L137.855 99.4909L145.108 99.4698L145.442 99.4663L147.585 99.4604Z" fill="#2F1616"/>
<path d="M145.458 99.3248C145.452 99.3717 145.448 99.4197 145.442 99.4666C145.251 101.193 145.019 102.915 144.852 104.625C144.174 111.536 143.622 118.462 143.195 125.393L142.882 125.396C143.132 121.348 143.423 117.304 143.761 113.262C144.035 109.942 144.339 106.624 144.672 103.307C144.799 102.033 144.964 100.756 145.108 99.4701C145.115 99.4197 145.121 99.367 145.127 99.3154L145.355 99.3189C145.39 99.3189 145.424 99.3213 145.458 99.3248Z" fill="#6B4D4D"/>
<path d="M148.839 124.139L148.629 126.346C148.624 126.393 148.585 126.427 148.537 126.425L131.152 126.338C131.097 126.336 131.055 126.291 131.059 126.238L131.271 124.031C131.275 123.986 131.314 123.952 131.362 123.952L148.747 124.04C148.802 124.041 148.844 124.086 148.839 124.139Z" fill="#2F1616"/>
<path d="M169.659 84.1758L167.186 115.4C167.186 116.047 166.679 116.534 166.017 116.525L165.656 116.522L165.346 116.516L117.763 115.949C117.003 115.941 116.348 115.289 116.348 114.547L118.821 83.3238C118.821 82.6781 119.321 82.1918 119.986 82.1953L168.012 82.7719L168.241 82.7742C168.274 82.7742 168.308 82.7766 168.342 82.7801C169.06 82.8422 169.659 83.468 169.659 84.1758Z" fill="#2F1616"/>
<path d="M166.179 85.1532L163.706 114.246C163.706 114.831 163.248 115.272 162.65 115.263L118.45 114.743C117.763 114.735 117.171 114.148 117.171 113.476L119.646 84.3844C119.646 83.802 120.098 83.3625 120.697 83.3672L164.897 83.8875C165.583 83.8957 166.179 84.4852 166.179 85.1532Z" fill="white"/>
<path d="M168.342 82.7802C168.147 84.5521 167.905 86.3239 167.736 88.0806C166.807 97.5423 166.115 107.029 165.655 116.522L165.345 116.516C165.345 116.513 165.345 116.513 165.345 116.51C165.665 109.906 166.098 103.307 166.644 96.7173C166.919 93.3974 167.222 90.0798 167.556 86.7622C167.689 85.438 167.859 84.1067 168.011 82.772L168.241 82.7743C168.274 82.7743 168.308 82.7767 168.342 82.7802Z" fill="#6B4D4D"/>
<path d="M157.763 110.418L139.917 110.12L142.598 86.9053L160.442 87.2018L157.763 110.418Z" fill="#F7E8E1"/>
<path d="M144.433 106.956L121.427 106.617L123.477 89.4351L146.483 89.7726L144.433 106.956Z" fill="#F7E8E1"/>
<path d="M141.899 90.7101C141.268 95.0636 140.606 99.4136 139.91 103.758C139.88 103.945 140.177 104.026 140.208 103.837C140.903 99.4921 141.567 95.1433 142.197 90.7886C142.225 90.6023 141.926 90.5214 141.899 90.7101Z" fill="#E3C8BB"/>
<path d="M60.3681 119.42L38.9126 118.988L39.4006 114.389L60.8561 114.822L60.3681 119.42Z" fill="#F7E8E1"/>
<path d="M44.7545 119.11L23.2991 118.678L23.7883 114.08L45.2438 114.512L44.7545 119.11Z" fill="#232C44"/>
<path d="M60.7097 114.764L44.8155 114.493C44.6178 114.49 44.6117 114.786 44.8106 114.79L60.7036 115.062C60.9037 115.065 60.9086 114.767 60.7097 114.764Z" fill="#7D443B"/>
<path d="M64.464 123.947L43.0085 123.514L43.4978 118.916L64.9533 119.35L64.464 123.947Z" fill="#F7E8E1"/>
<path d="M48.8517 123.637L27.3962 123.205L27.8843 118.606L49.3397 119.04L48.8517 123.637Z" fill="#F7C068"/>
<path d="M64.8067 119.291L48.9125 119.021C48.7136 119.017 48.7075 119.314 48.9064 119.317L64.8006 119.589C64.9995 119.592 65.0044 119.295 64.8067 119.291Z" fill="#F7C068"/>
<path d="M192.956 125.794L192.339 131.036L146.637 130.201L48.9895 128.417L49.6081 123.175L147.844 124.969L192.956 125.794Z" fill="#D69158"/>
<path d="M198.233 189.799C195.282 173.454 192.329 157.11 189.378 140.764C188.61 136.515 187.843 132.267 187.074 128.018C187.434 128.064 187.793 128.106 188.153 128.143C188.351 128.163 188.349 127.866 188.153 127.846C187.775 127.807 187.396 127.763 187.021 127.714C186.967 127.417 186.913 127.12 186.86 126.824C186.827 126.636 186.525 126.716 186.559 126.902C186.606 127.158 186.652 127.413 186.699 127.669C185.902 127.559 185.108 127.426 184.318 127.272C184.275 127.061 184.233 126.85 184.19 126.639C184.153 126.451 183.856 126.531 183.892 126.718L183.99 127.205C183.82 127.171 183.649 127.139 183.479 127.103C183.286 127.061 183.203 127.347 183.397 127.389C183.615 127.436 183.835 127.478 184.053 127.521C187.295 143.664 190.537 159.805 193.778 175.947L196.585 189.929C196.603 190.021 196.684 190.048 196.757 190.03H198.042C198.069 190.035 198.095 190.035 198.124 190.028C198.252 190.018 198.288 189.882 198.233 189.799Z" fill="#D69158"/>
<path d="M164.373 191.906C161.422 175.562 158.469 159.217 155.518 142.871C154.749 138.622 153.981 134.374 153.214 130.125C153.574 130.171 153.931 130.213 154.293 130.25C154.489 130.27 154.488 129.973 154.293 129.953C153.913 129.914 153.536 129.87 153.16 129.821C153.105 129.525 153.053 129.227 152.999 128.931C152.965 128.743 152.665 128.823 152.699 129.009C152.745 129.265 152.792 129.52 152.838 129.776C152.04 129.666 151.247 129.533 150.457 129.379C150.415 129.168 150.372 128.957 150.33 128.746C150.292 128.558 149.994 128.638 150.032 128.824L150.13 129.313C149.96 129.278 149.789 129.246 149.618 129.209C149.426 129.166 149.343 129.454 149.535 129.496C149.755 129.543 149.973 129.585 150.193 129.628C153.435 145.77 156.675 161.912 159.917 178.054L162.723 192.036C162.742 192.128 162.823 192.155 162.897 192.137H164.181C164.208 192.142 164.235 192.142 164.263 192.134C164.39 192.125 164.427 191.991 164.373 191.906Z" fill="#D69158"/>
<path d="M44.2604 188.653C44.2884 188.66 44.3165 188.66 44.3421 188.656H45.6269C45.7001 188.673 45.7818 188.646 45.8001 188.554C45.8001 188.554 57.5631 142.288 60.8037 126.147C61.0221 126.103 61.2417 126.061 61.4601 126.014C61.6541 125.972 61.5712 125.686 61.3784 125.727C61.2088 125.765 61.038 125.796 60.8672 125.831L60.9648 125.343C61.0026 125.156 60.7049 125.077 60.6671 125.264C60.6244 125.475 60.5817 125.686 60.5402 125.897C59.7496 126.052 58.9565 126.184 58.1598 126.294C58.2049 126.039 58.2513 125.782 58.2976 125.528C58.3318 125.34 58.0316 125.262 57.9987 125.448C57.9438 125.746 57.8901 126.042 57.8377 126.34C57.4606 126.388 57.0836 126.433 56.7054 126.471C56.509 126.491 56.5077 126.789 56.7054 126.769C57.0653 126.731 57.424 126.689 57.7827 126.644C57.0153 130.892 47.102 172.079 44.1493 188.425C44.0969 188.508 44.1323 188.643 44.2604 188.653Z" fill="#D69158"/>
<path d="M109.237 150.475C108.865 149.931 108.084 149.625 107.51 149.337C106.099 148.627 104.61 148.063 103.092 147.603C99.7822 146.601 81.9688 145.863 69.2639 145.812C69.2456 145.76 69.1992 145.718 69.1248 145.718C68.134 145.719 67.1445 145.721 66.1538 145.721C65.5365 145.722 64.7837 145.624 64.2944 146.073C63.8832 146.452 63.8247 147.076 63.7368 147.583C63.5733 148.525 63.4135 149.468 63.2524 150.41C63.0914 151.353 62.9291 152.296 62.768 153.238C62.6851 153.726 62.4581 154.372 62.8217 154.808C63.0889 155.127 63.5526 155.194 63.9503 155.228C64.9301 155.311 65.933 155.288 66.9164 155.316C67.8156 155.342 68.716 155.366 69.6165 155.392C66.9591 170.105 64.3017 184.817 61.6456 199.528C61.5919 199.613 61.6285 199.746 61.7541 199.755C61.781 199.763 61.809 199.763 61.8347 199.758H63.1085C63.1804 199.776 63.261 199.749 63.2793 199.657L66.0611 185.805C68.0913 175.69 70.1228 165.578 72.1531 155.463C78.4219 155.643 84.6908 155.82 90.9597 155.997C93.6512 156.074 96.344 156.149 99.0355 156.226C100.963 171.146 102.891 186.066 104.818 200.985C104.792 201.08 104.868 201.198 104.992 201.172C105.021 201.172 105.048 201.165 105.071 201.151L106.301 200.793C106.377 200.789 106.445 200.74 106.435 200.647L104.886 186.487C103.785 176.424 102.684 166.361 101.583 156.298C102.049 156.312 102.515 156.325 102.983 156.338C103.957 156.366 104.933 156.394 105.911 156.421C106.564 156.438 107.646 156.673 108.246 156.294C108.699 156.008 108.835 155.399 108.977 154.935C109.231 154.112 109.389 153.259 109.456 152.403C109.504 151.79 109.61 151.019 109.237 150.475Z" fill="#D892C0"/>
<path d="M164.001 185.019C164.033 185.035 164.066 185.054 164.099 185.071C164.656 185.348 165.235 185.579 165.825 185.783L162.886 199.023C162.865 199.114 162.785 199.131 162.713 199.103L161.442 198.919C161.417 198.92 161.388 198.916 161.361 198.903C161.236 198.875 161.202 198.733 161.257 198.655C162.172 194.11 163.086 189.565 164.001 185.019Z" fill="#2F1616"/>
<path d="M185.686 186.622C185.717 186.637 185.75 186.657 185.782 186.672C186.341 186.951 186.921 187.181 187.51 187.386L184.571 200.625C184.551 200.715 184.471 200.731 184.397 200.703L183.127 200.521C183.102 200.523 183.074 200.517 183.047 200.506C182.92 200.478 182.888 200.335 182.942 200.258C183.857 195.712 184.772 191.167 185.686 186.622Z" fill="#2F1616"/>
<path d="M225.592 185.819C225.625 185.837 225.656 185.854 225.69 185.872C226.248 186.149 226.828 186.379 227.417 186.585L224.478 199.823C224.457 199.915 224.376 199.931 224.304 199.903L223.034 199.719C223.009 199.721 222.979 199.717 222.953 199.705C222.828 199.677 222.794 199.535 222.849 199.458C223.763 194.912 224.678 190.365 225.592 185.819Z" fill="#2F1616"/>
<path d="M179.838 193.469L158.281 192.574L162.993 159.976L184.857 160.344L179.838 193.469Z" fill="#854C32"/>
<path d="M230.038 193.047L179.798 193.492L184.818 160.366L235.058 160.813L230.038 193.047Z" fill="#854C32"/>
<path d="M231.924 163.686L227.704 190.271L189.152 190.411L183.014 190.432L187.234 163.152L193.491 163.227L231.924 163.686Z" fill="#61341F"/>
<path d="M186.341 168.925L183.014 190.432L187.853 190.416C189.045 183.28 190.186 176.137 191.274 168.983L186.341 168.925Z" fill="#D892C0"/>
<path d="M191.176 168.925L187.85 190.432L192.688 190.416C193.879 183.28 195.021 176.137 196.11 168.983L191.176 168.925Z" fill="#B9D386"/>
<path d="M196.029 168.925L192.701 190.432L197.539 190.416C198.732 183.28 199.872 176.137 200.963 168.983L196.029 168.925Z" fill="#32436D"/>
<path d="M200.864 168.925L197.537 190.432L202.376 190.416C203.566 183.28 204.707 176.137 205.797 168.983L200.864 168.925Z" fill="#D892C0"/>
<path d="M205.665 168.925L202.337 190.432L207.176 190.416C208.368 183.28 209.508 176.137 210.597 168.983L205.665 168.925Z" fill="#B9D386"/>
<path d="M210.499 168.925L207.173 190.432L212.011 190.416C213.202 183.28 214.344 176.137 215.433 168.983L210.499 168.925Z" fill="#32436D"/>
<path d="M215.35 168.925L212.024 190.432L216.862 190.416C218.055 183.28 219.195 176.137 220.284 168.983L215.35 168.925Z" fill="#D892C0"/>
<path d="M225.012 168.925L221.685 190.432L226.524 190.416C227.716 183.28 228.857 176.137 229.946 168.983L225.012 168.925Z" fill="#F7E8E1"/>
<path d="M220.187 168.925L216.859 190.432L221.698 190.416C222.889 183.28 224.03 176.137 225.119 168.983L220.187 168.925Z" fill="#B9D386"/>
<path d="M183.06 78.8132C182.529 76.1484 181.771 73.3534 180.402 70.9616C179.352 69.1277 177.575 67.6734 175.271 68.1374C172.93 68.6074 171.4 70.562 170.919 72.7218C170.314 75.4359 171.164 78.157 171.817 80.7831C172.606 83.9659 172.671 87.1792 172.848 90.4312C173.018 93.5519 173.388 96.771 174.886 99.5964C175.843 101.406 178.125 104.012 180.41 102.571C180.455 102.613 180.522 102.628 180.586 102.575C182.416 101.067 182.98 98.7702 183.269 96.5624C183.651 93.6562 183.85 90.7089 183.861 87.7781C183.873 84.7769 183.651 81.764 183.06 78.8132Z" fill="#B9D386"/>
<path d="M198.364 63.3597C198.163 61.262 197.161 58.8808 195.042 57.9526C192.875 57.0022 190.5 58.146 189.031 59.7186C187.263 61.6101 186.074 64.1003 185.344 66.5261C184.506 69.314 184.421 72.2448 184.209 75.1229C183.961 78.5143 183.576 81.9327 183.659 85.337C183.697 86.9038 183.826 88.5116 184.23 90.035C184.504 91.0616 184.959 92.0179 185.797 92.7034C185.766 92.8218 185.887 92.9601 186.012 92.871C186.024 92.8792 186.034 92.8886 186.045 92.8968C186.186 92.994 186.318 92.8147 186.249 92.6929C188.241 91.1858 189.442 89.2101 190.31 86.9284C191.36 84.1581 192.574 81.5015 193.882 78.8343C195.132 76.2843 196.238 73.6851 197.1 70.9897C197.883 68.5405 198.612 65.946 198.364 63.3597Z" fill="#B9D386"/>
<path d="M233.595 111.297C232.251 112.502 230.063 111.754 228.52 111.279C226.936 110.793 225.594 109.894 224.345 108.859C222.045 106.951 219.946 104.997 217.23 103.615C214.267 102.106 210.977 101.191 207.631 100.959C205.745 100.828 203.884 101.059 202.001 101.041C200.024 101.024 198.233 100.429 196.569 99.4501C197.843 93.0317 205.312 90.5391 211.354 90.4372C217.319 90.3376 223.305 92.3251 227.945 95.9239C230.313 97.7614 232.428 100.037 233.757 102.687C234.969 105.108 235.958 109.174 233.595 111.297Z" fill="#B9D386"/>
<path d="M178.673 87.218C178.037 83.8781 177.253 80.5664 176.331 77.2875C176.28 77.1024 175.99 77.2043 176.041 77.3871C179.321 89.059 180.788 101.184 180.366 113.269C180.244 116.779 179.96 120.281 179.523 123.769C179.5 123.956 179.803 124.015 179.827 123.826C181.35 111.654 180.97 99.2789 178.673 87.218Z" fill="#505C36"/>
<path d="M190.924 64.458C188.032 79.5483 185.533 94.7076 183.44 109.917C182.846 114.239 182.283 118.565 181.751 122.894C181.729 123.083 182.039 123.081 182.062 122.894C183.933 107.633 186.203 92.419 188.876 77.269C189.628 73.0209 190.41 68.7764 191.223 64.5377C191.259 64.3502 190.96 64.2705 190.924 64.458Z" fill="#505C36"/>
<path d="M228.694 104.249C225.655 101.463 222.301 98.9003 218.429 97.2725C214.816 95.755 210.882 95.2229 206.972 95.7116C199.135 96.6936 192.414 101.402 188.427 107.87C186.151 111.565 184.759 115.712 184.19 119.964C184.166 120.152 184.476 120.151 184.499 119.964C185.48 112.623 189.07 105.418 195.209 100.793C201.323 96.185 209.752 94.4471 217.125 97.085C221.456 98.6319 225.165 101.424 228.476 104.458C228.62 104.591 228.84 104.381 228.694 104.249Z" fill="#505C36"/>
<path d="M190.231 112.267H175.666C175.572 112.816 175.481 113.366 175.397 113.918C175.153 115.516 174.964 117.119 174.923 118.729C174.915 119.127 174.912 119.529 174.921 119.926C174.933 120.485 174.964 121.045 175.023 121.601C175.106 122.441 175.251 123.273 175.463 124.09C175.604 124.645 175.699 125.648 176.343 125.762C176.993 125.878 177.775 125.768 178.44 125.771L182.782 125.788C183.525 125.794 184.335 125.878 185.071 125.771C185.883 125.648 186.367 124.906 186.82 124.316C187.389 123.579 187.891 122.798 188.324 121.987C188.814 121.064 189.217 120.098 189.529 119.103C189.979 117.667 190.243 116.172 190.301 114.67C190.336 113.871 190.314 113.066 190.231 112.267Z" fill="#E3C8BB"/>
<path d="M190.231 112.267H175.666C175.572 112.816 175.481 113.366 175.397 113.918C175.975 113.995 176.559 114.135 177.148 114.326C177.982 114.595 178.811 114.895 179.688 115.008C180.578 115.12 181.457 114.999 182.322 114.788C183.265 114.56 184.186 114.233 185.151 114.078C186.329 113.886 187.504 114.028 188.665 114.266C189.173 114.369 189.727 114.521 190.301 114.67C190.336 113.871 190.314 113.066 190.231 112.267Z" fill="#232C44"/>
<path d="M187.356 119.27C184.78 119.651 182.254 120.431 179.626 120.033C178.006 119.787 176.483 119.202 174.923 118.729C174.915 119.127 174.912 119.529 174.921 119.926C174.933 120.485 174.964 121.045 175.023 121.601C176.34 121.848 177.428 122.64 178.71 122.976C181.098 123.596 183.46 122.433 185.766 122.011C186.661 121.844 187.494 121.844 188.324 121.987C188.814 121.064 189.217 120.098 189.529 119.103C188.804 119.115 188.082 119.165 187.356 119.27Z" fill="#232C44"/>
<path d="M147.844 124.969C147.427 126.709 147.026 128.455 146.636 130.201L192.339 131.036L192.956 125.794L147.844 124.969Z" fill="#854C32"/>
<path d="M73.8368 78.505C72.6228 76.9699 70.75 75.4699 68.7576 76.7566C68.189 77.1222 67.6827 77.3847 66.997 77.4972C66.3906 77.5968 65.761 77.6249 65.1863 77.8523C64.4152 78.1582 63.8979 78.7863 63.6136 79.5246C63.0585 80.9601 62.8108 84.7464 65.3218 84.5027C65.4584 84.4898 65.4987 84.341 65.4438 84.2589C68.1316 84.0093 70.9269 83.6191 73.4842 82.7812C74.2749 82.521 74.9654 82.0664 75.0691 81.2109C75.196 80.1691 74.4505 79.2808 73.8368 78.505Z" fill="#79B3D1"/>
<path d="M73.4013 76.0053C72.5582 73.9146 70.6109 72.5529 68.8991 71.1291C68.1683 70.5221 67.4094 69.976 66.4541 69.7498C65.445 69.5107 64.3897 69.601 63.3672 69.7193C63.3562 69.7217 63.3465 69.7217 63.3355 69.724C63.2745 69.731 63.2135 69.7381 63.1537 69.7463C62.956 69.7697 62.9804 70.065 63.1781 70.0416C63.2001 70.0392 63.2232 70.0369 63.2452 70.0334C63.388 70.8971 63.8321 71.6822 64.5739 72.2119C65.5829 72.9338 66.8408 72.8717 67.4973 74.0389C68.6661 76.1096 71.0612 76.2455 73.2683 76.2045C73.3684 76.201 73.4355 76.0908 73.4013 76.0053Z" fill="#7D443B"/>
<path d="M91.7368 202.078C92.0174 202.331 92.625 202.264 92.9642 202.3C93.6109 202.366 94.2575 202.433 94.9042 202.5C94.9847 202.508 95.0701 202.466 95.0848 202.382C95.9559 197.299 96.7417 192.204 97.4505 187.099C97.5457 187.132 97.6409 187.165 97.736 187.199C97.9215 187.263 98.0569 186.996 97.8703 186.93C97.7434 186.887 97.6189 186.844 97.492 186.799C97.5372 186.48 97.5835 186.164 97.6262 185.847C97.6519 185.657 97.3481 185.602 97.3224 185.79C97.281 186.093 97.237 186.395 97.1955 186.696C96.1194 186.321 95.0433 185.947 93.9672 185.572C93.3156 185.346 92.6653 185.121 92.015 184.895C91.7136 184.789 91.189 184.492 90.8486 184.678C90.6582 184.784 90.6387 184.939 90.5997 185.127C90.4752 185.705 90.6363 186.471 90.6595 187.055C90.7119 188.366 90.7717 189.677 90.8388 190.988C90.9755 193.658 91.1451 196.327 91.3452 198.994C91.3964 199.671 91.4489 200.351 91.5038 201.029C91.5282 201.325 91.4721 201.84 91.7368 202.078Z" fill="#FFA57A"/>
<path d="M90.7876 205.661C90.9157 205.087 91.1195 204.532 91.2452 203.958C91.3977 203.264 91.4087 202.56 91.4038 201.853C91.4001 201.277 91.1781 199.583 91.782 199.187C92.0858 198.988 92.5641 199.177 92.8874 199.204C93.5158 199.254 94.1319 199.203 94.7371 199.071C94.8408 199.13 94.9531 199.176 95.0726 199.193C95.2434 199.219 95.4179 199.233 95.5924 199.24C95.2983 202.214 96.7795 205.085 99.2051 206.972C100.472 207.956 101.893 208.459 103.324 209.152C104.371 209.659 105.259 210.505 105.136 211.708C105.13 211.778 105.058 211.808 104.997 211.828C103.02 212.474 99.8786 210.815 97.5384 210.107C96.261 209.72 94.9933 209.569 93.6805 209.356C92.7715 209.209 91.8101 208.924 91.2012 208.214C90.5741 207.483 90.59 206.542 90.7876 205.661Z" fill="#FFA57A"/>
<path d="M132.48 199.512C132.794 199.761 133.393 199.697 133.738 199.731C134.393 199.796 135.048 199.863 135.703 199.929C135.785 199.937 135.864 199.894 135.868 199.812C136.069 194.781 136.184 189.738 136.219 184.684C136.319 184.718 136.418 184.75 136.518 184.784C136.712 184.847 136.811 184.582 136.616 184.518C136.485 184.474 136.353 184.431 136.222 184.388C136.224 184.073 136.229 183.758 136.23 183.444C136.23 183.258 135.919 183.202 135.919 183.389C135.918 183.688 135.913 183.986 135.911 184.286C134.786 183.914 133.659 183.544 132.535 183.175C131.854 182.951 131.173 182.727 130.493 182.503C130.177 182.399 129.615 182.102 129.299 182.289C129.121 182.392 129.123 182.546 129.107 182.733C129.06 183.305 129.322 184.063 129.422 184.641C129.648 185.939 129.88 187.236 130.12 188.534C130.609 191.177 131.13 193.819 131.682 196.458C131.822 197.129 131.965 197.802 132.11 198.473C132.172 198.765 132.183 199.275 132.48 199.512Z" fill="#FFA57A"/>
<path d="M132.004 203.058C132.056 202.491 132.186 201.941 132.237 201.373C132.298 200.685 132.215 199.989 132.117 199.289C132.038 198.719 131.593 197.042 132.144 196.65C132.422 196.453 132.925 196.64 133.252 196.665C133.886 196.716 134.496 196.664 135.085 196.534C135.196 196.593 135.314 196.637 135.436 196.656C135.61 196.682 135.786 196.696 135.961 196.702C136.059 199.647 137.92 202.488 140.593 204.355C141.99 205.329 143.478 205.828 145 206.514C146.114 207.015 147.114 207.853 147.15 209.043C147.151 209.112 147.084 209.144 147.027 209.163C145.133 209.802 141.774 208.159 139.34 207.458C138.012 207.075 136.724 206.928 135.383 206.715C134.455 206.569 133.457 206.289 132.753 205.586C132.031 204.862 131.922 203.93 132.004 203.058Z" fill="#FFA57A"/>
<path d="M71.6442 48.6856C71.2245 48.4172 70.7999 48.1559 70.3777 47.8899C69.4492 47.3051 68.5207 46.7227 67.5922 46.1391C65.8194 45.0234 64.0478 43.9102 62.275 42.7945C61.959 42.5965 61.4881 42.157 61.0854 42.3902C60.7975 42.5578 60.6157 43.0676 60.4571 43.3266C60.1679 43.8024 59.8775 44.2781 59.5872 44.7539C59.5359 44.8395 67.5898 51.4969 69.0466 52.6547C69.0124 52.6992 68.9783 52.7426 68.9441 52.7859C68.8245 52.9383 69.06 53.1305 69.1808 52.9781L69.2857 52.8445C69.4456 52.9723 69.6042 53.1 69.764 53.2254C69.919 53.3461 70.1178 53.1188 69.9641 52.9981C69.7994 52.8692 69.6371 52.7367 69.4724 52.6078C70.0178 51.9164 70.5632 51.225 71.1086 50.5324C71.3514 50.2254 72.1847 49.5317 72.1005 49.0957C72.0602 48.8953 71.7906 48.7793 71.6442 48.6856Z" fill="#FFA57A"/>
<path d="M97.07 73.5764C96.5124 71.9662 95.4876 70.5647 94.8482 68.9908C93.9697 67.5682 93.5561 66.0705 93.0705 64.4662C92.0347 61.0479 88.9442 59.4471 86.6333 56.9123C85.5035 55.6725 84.7922 54.1584 83.7477 52.8576C82.4435 51.2311 80.6816 50.5022 78.6441 50.0627C75.9562 49.4826 73.3195 48.6541 71.6407 46.5764L70.8793 46.2143C70.3486 45.96 69.7837 45.5873 69.1944 45.4772C68.2159 45.2932 67.4777 46.3854 66.8847 46.9619C65.7952 48.0201 64.7056 49.0783 63.6161 50.1365C63.5258 50.2233 63.6088 50.3498 63.7088 50.3768C65.3377 50.8244 66.8176 51.6553 68.017 52.8061C68.6112 53.3779 69.1297 54.026 69.5482 54.7268C69.9936 55.4697 70.2852 56.2889 70.7549 57.019C71.5699 58.2893 72.9194 59.058 74.1321 59.9346C75.5804 60.9822 76.526 62.2748 77.219 63.8768C77.8339 65.3006 78.2707 66.7959 78.9845 68.1811C79.6238 69.4221 80.5059 70.5061 81.4918 71.5104C83.6026 73.6631 86.2709 83.5947 87.674 86.2971C89.4871 89.794 88.6806 85.8483 90.346 89.4014C90.3802 89.4729 90.4656 89.5197 90.5461 89.4869C91.5844 89.0756 92.7289 89.0112 93.7941 89.3838C94.6835 89.6944 95.3558 90.3213 96.0805 90.8768C97.0712 91.635 98.4158 92.249 99.5956 91.5553C99.5175 92.8502 99.3736 94.1404 99.1613 95.4237C99.1308 95.6123 99.4346 95.6639 99.4663 95.4752C100.522 89.1014 99.8982 82.5764 97.746 76.5178C97.6081 75.5229 97.4031 74.5385 97.07 73.5764Z" fill="#79B3D1"/>
<path d="M75.4365 85.0863C75.4535 85.1378 75.5194 85.18 75.5792 85.1683C77.3727 84.8578 79.1553 84.4839 80.9208 84.0398C81.3759 83.9261 82.4899 83.83 82.7839 83.441C83.0474 83.0929 82.6729 82.514 82.5618 82.1953C81.5028 79.1519 80.3949 76.125 79.2456 73.1132C79.248 73.0746 79.2334 73.0394 79.2078 73.0125C79.1675 72.9082 79.1285 72.8015 79.0882 72.6972C79.0284 72.5414 78.7576 72.6351 78.8161 72.791C78.8491 72.8742 78.8796 72.9585 78.9113 73.0429C76.5602 73.916 74.0065 74.0414 71.648 73.3792C71.5346 73.3464 71.4089 73.4296 71.4479 73.5445C72.7779 77.3917 74.1065 81.239 75.4365 85.0863Z" fill="#FFA57A"/>
<path d="M102.803 135.384C101.914 131.994 100.556 128.401 98.2559 125.645C95.7071 122.59 91.5685 120.83 87.7545 119.719C83.8599 118.586 79.7628 118.202 75.7157 118.56C75.7047 118.19 75.6852 117.818 75.6486 117.444C75.6291 117.253 75.3265 117.314 75.3448 117.503C75.3814 117.867 75.3997 118.229 75.4107 118.589C75.2887 118.601 75.1667 118.611 75.0459 118.624C74.8482 118.647 74.9105 118.937 75.1069 118.916C75.2106 118.904 75.3155 118.9 75.4192 118.888C75.4424 121.295 75.9024 123.457 75.2179 125.756C74.0283 129.764 70.5096 135.282 70.5449 142.158C70.5596 145.025 71.1623 144.362 73.5098 146.406C76.0927 148.655 79.9641 147.861 83.0986 147.613C87.4238 147.272 91.7283 147.321 96.0585 147.546C97.6434 147.628 99.3466 147.636 100.761 146.836C101.822 146.235 102.569 145.276 103.013 144.183C104.144 141.395 103.538 138.185 102.803 135.384Z" fill="#2F1616"/>
<path d="M99.4334 87.3187C98.7758 85.0886 97.7716 82.2257 95.4534 80.9741C94.1528 80.2733 92.5691 80.1163 91.1013 79.8819C89.2102 79.5796 87.319 79.2784 85.4279 78.9761C84.3847 78.8085 82.535 78.4687 81.4808 78.355C79.5787 79.4144 78.1243 80.1175 75.7317 80.1374C74.7752 80.1456 74.4201 80.1937 73.4855 79.9979C70.1656 82.2339 66.2345 84.3772 62.9585 86.6647C61.4761 87.6995 60.0059 88.5972 59.5129 90.321C59.0188 92.0437 59.1469 93.9034 59.5117 95.6226C60.3243 99.4546 62.2179 103.042 63.4051 106.78C64.6544 110.709 65.3279 114.694 66.0917 118.72C66.459 120.649 66.9873 122.569 68.0854 124.261C69.3445 126.203 71.0661 127.914 72.6095 129.668C72.7242 129.798 86.7651 127.369 93.5976 125.788C95.2326 125.409 96.8761 125.026 98.4854 124.558C99.4297 124.285 99.3382 122.801 99.2638 122.068C99.1198 120.671 98.6342 119.341 98.8319 117.919C99.0308 116.489 99.6164 115.126 99.7775 113.689C100.1 110.815 99.3028 107.993 98.9588 105.164C98.7672 103.59 98.7404 102.021 99.043 100.451C99.3346 98.9354 99.8092 97.4519 100.036 95.9261C100.464 93.0479 100.255 90.1065 99.4334 87.3187Z" fill="#79B3D1"/>
<path d="M100.695 166.485C100.411 163.573 100.863 160.62 101.146 157.72C101.42 154.907 101.914 152.024 101.867 149.194C101.832 146.985 101.047 144.995 99.4052 143.428C95.9767 140.159 90.9535 139.635 86.4855 138.598C84.9165 138.233 83.4219 137.774 82.0151 137.139H79.0832C76.4734 137.347 73.7282 137.824 71.0879 137.562C69.8848 141.088 69.7177 143.46 69.5762 146.582C69.4847 148.579 70.2289 151.061 71.5539 152.705C72.674 154.096 74.3992 154.801 76.1379 155.194C78.123 155.64 80.1642 155.713 82.1664 156.054C84.2369 156.407 86.9113 157.504 86.6844 159.938C86.5709 161.161 85.8108 162.238 85.285 163.327C84.8262 164.279 84.5553 165.275 84.4748 166.324C84.282 168.841 84.9287 171.38 85.1544 173.878C85.7034 179.964 85.2605 186.074 84.8189 192.151C84.8128 192.238 84.8957 192.289 84.9738 192.3C90.0531 192.919 95.1824 192.997 100.28 192.534C100.361 192.527 100.439 192.473 100.435 192.387C100.317 189.476 100.199 186.561 100.313 183.649C100.426 180.737 100.988 177.929 101.39 175.051C101.588 173.639 101.642 172.238 101.437 170.824C101.227 169.372 100.836 167.947 100.695 166.485Z" fill="#2F1616"/>
<path d="M85.6205 74.024C84.3065 73.0267 82.4702 73.1005 81.3819 74.372C80.9585 74.8677 80.6926 75.4408 80.5657 76.0384C80.3363 77.1247 80.5754 78.3001 81.1721 79.2728C81.5173 80.14 82.1054 80.8759 83.029 81.0986C83.2828 81.1607 83.5305 81.1818 83.7684 81.1689C85.1935 81.1009 86.2855 79.8283 86.7211 78.5615C87.2555 77.0122 87.0237 75.0915 85.6205 74.024Z" fill="#32436D"/>
<path d="M138.561 189.779C138.286 186.714 137.654 183.663 137.073 180.64C136.46 177.451 135.784 174.275 135.042 171.111C133.558 164.787 131.821 158.516 129.83 152.32C129.001 149.74 128.07 147.239 125.972 145.347C124.115 143.672 121.759 142.586 119.36 141.825C113.66 140.018 106.971 139.88 102.431 135.64C101.704 134.959 101.083 134.195 100.592 133.352C100.72 133.22 100.847 133.086 100.979 132.958C101.119 132.82 100.901 132.611 100.761 132.748C100.65 132.856 100.545 132.968 100.437 133.078C100.291 132.806 100.156 132.527 100.037 132.24C99.9652 132.065 99.6651 132.142 99.7383 132.32C99.8798 132.662 100.041 132.99 100.215 133.306C97.5787 136.085 95.8047 139.567 95.1019 143.255C94.6102 144.435 94.0953 145.62 93.7598 146.847C93.4767 147.888 93.2351 149.091 93.8915 150.048C94.5248 150.974 95.679 151.69 96.6807 152.196C97.9362 152.829 99.2783 153.054 100.625 153.428C101.969 153.799 103.072 154.554 104.178 155.345C105.187 156.065 106.207 156.775 107.407 157.173C108.746 157.618 110.176 157.73 111.52 158.16C113.308 158.732 114.871 159.817 116.036 161.214C116.012 161.96 115.995 162.706 116.112 163.398C116.535 165.895 118.178 167.978 119.229 170.244C119.866 171.613 120.186 173.008 120.163 174.51C120.141 175.957 119.907 177.4 119.989 178.846C120.063 180.097 120.413 181.289 121.185 182.311C121.955 183.331 122.998 184.116 124.012 184.897C125.146 185.77 126.284 186.687 127.014 187.918C127.391 188.554 127.627 189.26 127.63 189.996C127.632 190.61 127.464 191.211 127.443 191.824C127.416 192.638 127.722 193.404 128.635 193.57C129.171 193.669 129.743 193.548 130.274 193.472C131.075 193.355 131.873 193.214 132.665 193.05C134.229 192.724 135.798 192.326 137.299 191.786C138.348 191.411 138.656 190.845 138.561 189.779Z" fill="#2F1616"/>
<path d="M41.9251 65.0391C41.6188 64.6524 41.3077 64.2727 40.999 63.8883C40.3206 63.0446 39.641 62.202 38.9627 61.3582C37.6669 59.7481 36.3712 58.1379 35.0754 56.5289C34.8436 56.243 34.5484 55.6793 34.0896 55.7731C33.7614 55.8399 33.4149 56.2653 33.177 56.461C32.7414 56.8196 32.3046 57.1782 31.869 57.5356C31.7909 57.6 37.1362 66.4219 38.1184 67.9758C38.0708 68.0051 38.0244 68.0356 37.9768 68.0649C37.8121 68.1727 37.9695 68.427 38.1354 68.3204L38.2794 68.2278C38.3868 68.3989 38.4942 68.5688 38.6027 68.7387C38.7065 68.9004 38.9737 68.7493 38.8687 68.5852C38.7565 68.4118 38.6479 68.236 38.5369 68.0625C39.2872 67.5809 40.0388 67.0993 40.7892 66.6164C41.1235 66.402 42.1471 66.0094 42.2155 65.57C42.2472 65.3684 42.0312 65.1739 41.9251 65.0391Z" fill="#FFA57A"/>
<path d="M70.7 82.0912C70.7 82.0912 66.6456 83.7986 64.1712 83.7447C62.945 83.7166 61.2369 83.1072 60.1924 82.4521C59.3079 81.8966 58.5465 81.1572 57.8425 80.3662C56.5578 78.9236 55.4377 77.2912 53.9455 76.0783C52.4143 74.8361 50.5232 74.2197 48.9553 73.0396C46.9019 71.4939 46.3285 68.8502 44.9827 66.6998C43.6674 64.5986 41.8446 62.9732 40.051 61.3748C40.001 61.3314 39.9132 61.3525 39.8656 61.3982C39.0567 62.1939 38.2477 62.9884 37.4388 63.7841C37.0715 64.1451 36.7031 64.5072 36.3358 64.8693C35.9905 65.208 35.5171 65.5525 35.2499 65.9591C34.9486 66.4173 35.1011 66.8123 35.3793 67.192C36.0015 68.0404 36.6433 68.7892 37.0838 69.7888C37.9293 71.7048 37.9037 73.908 38.5137 75.9142C39.0274 77.6017 39.8729 79.1322 40.9075 80.4798C41.9507 81.8392 43.1879 83.0158 44.5227 84.0353C45.328 84.6494 46.1698 85.2095 47.041 85.7158C47.828 86.1728 48.6967 86.5127 49.4482 87.0318C51.0673 88.1498 50.6866 90.4572 51.5822 92.1213C52.3484 93.5439 53.5844 94.5927 54.8862 95.4107C55.7147 95.931 56.6041 96.3213 57.4521 96.8029C58.4123 97.349 59.159 98.0908 59.7605 99.0599C60.4902 100.234 61.731 102.366 62.2861 103.681C63.2256 103.587 63.4757 102.901 64.3981 103.061C64.6178 102.97 64.8349 102.874 65.0399 102.76C65.7927 102.341 66.3759 101.661 66.8274 100.894C67.9315 99.0107 68.5843 96.7244 69.2749 94.6595C70.0228 92.4259 70.6621 90.1443 71.0038 87.8205C71.1612 86.7494 71.3478 85.5623 71.2502 84.4947C71.1868 83.788 70.7 82.0912 70.7 82.0912Z" fill="#79B3D1"/>
<path d="M36.2127 58.97C36.3091 57.811 36.4299 56.6766 36.6483 55.5504C36.6532 55.5422 36.6605 55.5352 36.6641 55.5223C37.2437 53.6426 38.3418 51.3024 37.2229 49.4192C36.6287 48.4208 35.7649 47.4973 34.9316 46.6794C34.5082 46.2633 34.0629 45.8614 33.5883 45.4958C33.3735 45.3317 33.0795 45.0493 32.7647 45.136C32.0277 45.3376 32.7696 46.4415 32.9392 46.7731C33.3589 47.5911 33.7859 48.3751 34.0763 49.22C33.0831 48.1676 32.0497 47.1493 30.998 46.1497C30.5478 45.7219 30.0951 45.2954 29.64 44.8723C29.2581 44.5161 28.836 43.9653 28.3565 43.7204C27.9782 43.5294 27.4731 43.6372 27.4597 44.0626C27.1095 43.7708 26.6556 43.5586 26.2652 43.7262C25.8479 43.9032 25.9992 44.3602 26.2323 44.7622C25.7955 44.5958 25.3367 44.6544 25.2025 45.2309C25.1049 45.6586 25.2843 46.1251 25.5356 46.5598C25.2245 46.4204 24.8804 46.411 24.6742 46.7684C24.3814 47.277 24.9268 47.8512 25.1854 48.252C26.2628 49.9208 27.0656 51.7524 28.3089 53.3227C28.9494 54.4231 30.7857 56.9989 31.6495 57.9352C32.1388 58.4661 32.6219 59.0086 33.0221 59.6063C33.1539 59.802 33.271 60.1231 33.4211 60.3985C33.404 60.4735 33.4406 60.5555 33.5224 60.5626C33.6102 60.6938 33.7103 60.8028 33.8323 60.859C33.8945 60.886 33.9592 60.859 34.0019 60.8145C34.069 60.7477 34.0763 60.7043 34.058 60.6129C34.0458 60.5567 33.9982 60.4993 33.9323 60.4958C33.9189 60.4946 33.9043 60.4934 33.8896 60.4922C33.8542 60.4899 33.825 60.5004 33.8006 60.5168C33.7993 60.5145 33.7981 60.5098 33.7957 60.5075C34.7632 60.2836 36.1261 60.0329 36.2127 58.97Z" fill="#FFA57A"/>
<path d="M62.5448 44.2981C62.4801 44.0461 62.4252 43.7918 62.3532 43.5422C62.313 43.4016 62.2788 43.2516 62.2105 43.1215C62.2007 43.1027 62.1971 43.0934 62.1946 43.0817C62.1775 43.0723 62.1568 43.0606 62.1263 43.0406C61.864 42.8672 61.7371 42.6504 61.7005 42.4301C61.6456 42.4078 61.5919 42.3867 61.537 42.3656C60.3352 41.8805 57.2056 41.0402 55.9148 40.8129C53.9675 40.1871 51.9031 40.0477 49.9119 39.6059C49.4336 39.4992 48.6918 39.1887 48.2855 39.6188C47.9988 39.9211 48.1183 40.2305 48.3562 40.4684C47.8462 40.3805 47.3301 40.3676 46.9397 40.5949C46.4138 40.902 46.5041 41.3391 46.8092 41.6813C46.3382 41.5992 45.8392 41.6086 45.7977 42.0469C45.7599 42.4547 46.1149 42.7981 46.5139 43.0242C46.1003 43.1719 46.1552 43.6664 46.4675 43.9488C46.8628 44.3063 47.5412 44.5125 48.0158 44.7445C48.5795 45.0223 49.1444 45.2977 49.7118 45.5695C51.0356 46.2035 52.3716 46.8141 53.7296 47.3801C52.8023 47.3871 51.8933 47.2512 50.9514 47.134C50.5707 47.0871 49.2433 46.766 49.2823 47.502C49.2982 47.816 49.6703 47.993 49.9033 48.1348C50.4146 48.4477 50.9538 48.7242 51.5004 48.975C52.5754 49.4684 53.7625 49.9582 54.9387 50.1762C57.1556 50.5875 59.1078 48.8356 60.7744 47.7035C60.7842 47.6953 60.7891 47.686 60.7976 47.6789C61.6261 47.2301 62.4813 46.8387 63.3586 46.4637C62.9474 45.7805 62.74 45.0633 62.5448 44.2981Z" fill="#FFA57A"/>
<mask id="mask5_2366_485" style="mask-type:luminance" maskUnits="userSpaceOnUse" x="90" y="200" width="16" height="14">
<path d="M90.1995 200.303H105.53V213.211H90.1995V200.303Z" fill="white"/>
</mask>
<g mask="url(#mask5_2366_485)">
<path d="M105.379 210.485C105.122 209.876 104.445 209.398 103.925 209.01C102.807 208.169 101.462 207.512 100.197 206.773C100.07 206.701 99.9503 206.627 99.8259 206.553H99.8234C98.4533 205.721 97.2136 204.759 96.4962 203.313C96.3693 203.058 96.2742 202.8 96.2034 202.535C96.1753 202.437 96.1534 202.339 96.1314 202.241C96.0851 202.015 96.057 201.784 96.0387 201.546C96.0228 201.31 96.1009 200.996 95.9899 200.787C95.9057 200.627 95.752 200.536 95.569 200.48C95.2786 200.394 94.9162 200.402 94.6563 200.391C94.0072 200.36 93.3581 200.485 92.9043 200.961C92.7188 201.153 92.5943 201.391 92.487 201.629C92.3882 201.837 92.3808 202.028 92.1807 202.164C91.9831 202.297 91.6732 202.258 91.4011 202.227C91.3145 202.214 91.2339 202.206 91.1595 202.199C91.0765 202.196 91.0058 202.274 91.0058 202.348C91.0094 202.742 90.9838 203.129 90.9411 203.515C90.4921 204.539 90.2359 205.63 90.2237 206.743C90.22 206.839 90.22 206.933 90.2237 207.028C90.2261 207.156 90.2335 207.287 90.242 207.416C90.2762 207.887 90.2701 208.56 90.6446 208.914C91.0826 209.324 91.9489 209.382 92.5016 209.559C95.863 210.63 98.9108 212.591 102.466 213.075C103.175 213.17 104.04 213.288 104.748 213.143C105.243 213.042 105.35 212.885 105.413 212.44C105.416 212.425 105.416 212.409 105.419 212.392C105.431 212.309 105.441 212.219 105.453 212.13C105.524 211.592 105.586 210.971 105.379 210.485Z" fill="#854C32"/>
</g>
<path d="M147.093 207.431C146.8 206.839 146.095 206.402 145.554 206.039C144.377 205.255 142.982 204.67 141.662 203.996C141.554 203.942 141.446 203.886 141.338 203.829C139.913 203.073 138.601 202.182 137.794 200.768C137.647 200.509 137.532 200.245 137.446 199.976C137.414 199.887 137.389 199.796 137.365 199.705C137.309 199.486 137.266 199.26 137.234 199.028C137.201 198.795 137.26 198.478 137.136 198.27C136.954 197.965 136.499 197.938 136.106 197.944C135.989 197.946 135.878 197.949 135.781 197.949C135.132 197.959 134.493 198.119 134.068 198.619C133.893 198.822 133.784 199.064 133.689 199.308C133.606 199.524 133.608 199.713 133.419 199.86C133.169 200.048 132.712 199.954 132.403 199.954C132.319 199.951 132.252 200.033 132.258 200.109C132.282 200.501 132.282 200.89 132.26 201.279C132.252 201.3 132.245 201.323 132.238 201.344C131.818 202.502 131.649 203.729 131.766 204.957C131.776 205.042 131.784 205.127 131.796 205.21C131.8 205.228 131.8 205.243 131.803 205.261C131.862 205.725 131.911 206.363 132.292 206.685C132.752 207.067 133.62 207.079 134.184 207.225C137.603 208.11 140.765 209.894 144.345 210.178C145.056 210.235 145.925 210.308 146.624 210.123C147.131 209.992 147.217 209.819 147.248 209.335C147.264 209.137 147.283 208.92 147.289 208.698C147.292 208.599 147.294 208.504 147.289 208.41C147.283 208.065 147.237 207.719 147.093 207.431Z" fill="#854C32"/>
<path d="M105.453 212.13C105.441 212.219 105.431 212.308 105.419 212.392C105.417 212.409 105.417 212.424 105.413 212.44C103.375 212.124 101.372 211.638 99.4455 210.895C98.8403 210.66 98.24 210.408 97.6495 210.144C97.647 210.14 97.6409 210.14 97.6373 210.138C96.5709 209.662 95.5289 209.151 94.4711 208.664C93.3279 208.135 92.0321 207.444 90.7059 207.126C90.5448 207.088 90.385 207.051 90.2239 207.028C90.2203 206.933 90.2203 206.839 90.2239 206.743C90.3752 206.767 90.5241 206.799 90.6717 206.835C91.5904 207.055 92.4775 207.452 93.3303 207.824C95.0714 208.581 96.76 209.451 98.5096 210.193C100.42 211.005 102.39 211.568 104.402 211.95H104.405C104.754 212.014 105.103 212.076 105.453 212.13Z" fill="#2F1616"/>
<path d="M147.289 208.41C147.294 208.505 147.292 208.6 147.289 208.698C147.084 208.719 146.883 208.738 146.683 208.757C144.895 208.914 143.079 208.784 141.334 208.374C139.492 207.942 137.881 207.073 136.131 206.405C134.737 205.869 133.284 205.49 131.802 205.261C131.8 205.243 131.8 205.228 131.796 205.211C131.784 205.127 131.776 205.042 131.766 204.958C133.012 205.143 134.239 205.433 135.43 205.834C137.111 206.405 138.661 207.284 140.36 207.803C142.136 208.348 144.002 208.584 145.863 208.513C146.327 208.497 146.806 208.463 147.289 208.41Z" fill="#2F1616"/>
<path d="M100.197 206.773C99.9507 206.887 99.6933 206.974 99.4212 207.037C98.2121 207.314 97.0408 206.889 96.0488 206.23C95.3119 205.74 93.8722 204.866 93.9429 203.874C94.0076 202.94 95.2106 202.491 96.1318 202.241C96.1538 202.34 96.1757 202.437 96.2038 202.535C95.0471 202.871 93.594 203.515 94.7287 204.779C95.3339 205.454 96.2123 206.07 97.0444 206.453C98.0547 206.922 98.9795 206.879 99.8238 206.554H99.8263C99.9507 206.628 100.07 206.701 100.197 206.773Z" fill="#2F1616"/>
<path d="M141.662 203.996C141.344 204.185 141.007 204.32 140.661 204.403C139.52 204.667 138.292 204.347 137.377 203.37C136.793 202.743 135.813 201.629 136.057 200.708C136.162 200.316 136.422 200.064 136.756 199.904C136.942 199.812 137.152 199.75 137.365 199.705C137.389 199.796 137.414 199.887 137.446 199.976C137.242 200.009 137.043 200.064 136.877 200.156C136.774 200.214 136.684 200.282 136.613 200.367C136.156 200.923 136.406 201.472 136.731 202.004C137.111 202.624 137.572 203.235 138.175 203.677C138.845 204.165 139.61 204.302 140.342 204.175C140.685 204.115 141.023 203.996 141.338 203.829C141.446 203.886 141.554 203.943 141.662 203.996Z" fill="#2F1616"/>
<path d="M97.3091 139.826C96.5282 139.519 95.6741 139.414 94.8494 139.275C93.8355 139.104 92.824 138.933 91.8101 138.763C89.7847 138.421 87.7594 138.078 85.734 137.737C85.54 137.705 85.4558 137.991 85.6522 138.023C89.099 138.606 92.5739 139.105 96.0024 139.775C99.6627 140.491 100.563 143.899 100.281 147.066C100.264 147.257 100.573 147.254 100.59 147.066C100.83 144.357 100.27 140.987 97.3091 139.826Z" fill="#6B4D4D"/>
<path d="M130.902 180.134C129.247 178.921 127.591 177.71 125.935 176.497C125.777 176.382 125.623 176.639 125.779 176.753C127.198 177.793 128.617 178.83 130.037 179.871C131.272 180.775 133.101 181.731 133.396 183.329C133.43 183.517 133.728 183.438 133.694 183.251C133.428 181.803 132.034 180.962 130.902 180.134Z" fill="#6B4D4D"/>
<path d="M65.6817 89.1235C65.6536 88.936 65.3449 88.9594 65.373 89.1481C65.9086 92.7164 65.8244 96.3258 65.1217 99.8672C65.0838 100.056 65.3876 100.111 65.4255 99.9235C66.1331 96.3575 66.221 92.7176 65.6817 89.1235Z" fill="#232C44"/>
<path d="M88.2158 82.2073C88.0645 82.0842 87.8924 82.3315 88.0437 82.4545C92.2775 85.8893 95.4973 90.3518 97.3751 95.3592C97.4422 95.5385 97.7179 95.4061 97.652 95.2268C95.7548 90.169 92.4922 85.676 88.2158 82.2073Z" fill="#232C44"/>
<path d="M33.2868 54.4606C33.0831 53.5091 33.0892 52.5458 33.3625 51.6071C33.5626 50.9216 34.0006 50.3063 33.942 49.5751C33.9261 49.3852 33.6199 49.4263 33.6345 49.6173C33.7016 50.4434 33.0648 51.3212 32.9183 52.1497C32.7792 52.936 32.8134 53.7212 32.9806 54.5016C33.0208 54.6868 33.3271 54.6493 33.2868 54.4606Z" fill="#DD6B4B"/>
<path d="M31.3494 48.1617C30.3049 46.9383 29.252 45.7219 28.077 44.6074C27.9355 44.4738 27.7476 44.7106 27.8879 44.843C29.0434 45.9375 30.0768 47.1375 31.1041 48.3422C31.2298 48.4899 31.4762 48.3106 31.3494 48.1617Z" fill="#DD6B4B"/>
<path d="M30.0951 48.5589C29.0641 47.5428 28.0331 46.5268 27.0021 45.5108C26.8643 45.376 26.6166 45.5542 26.7557 45.6925C27.7866 46.7073 28.8176 47.7233 29.8486 48.7393C29.9865 48.8741 30.2342 48.696 30.0951 48.5589Z" fill="#DD6B4B"/>
<path d="M85.0117 75.5084C84.2504 73.9112 82.1176 73.7752 81.0476 75.1288C80.9805 75.212 81.0317 75.2928 81.1098 75.3256C80.9183 75.5471 80.7353 75.7862 80.5657 76.0381C80.3363 77.1245 80.5754 78.2999 81.1721 79.2725C81.5173 80.1397 82.1054 80.8756 83.029 81.0983C83.2828 81.1604 83.5305 81.1815 83.7684 81.1686C83.9417 81.0538 84.1088 80.9166 84.2626 80.7526C85.4412 79.5151 85.7352 77.0237 85.0117 75.5084Z" fill="#2F1616"/>
<path d="M29.0945 50.3053C28.2856 49.3584 27.4779 48.4115 26.669 47.4658C26.5421 47.317 26.2969 47.4975 26.4225 47.6451C27.2315 48.592 28.0404 49.5377 28.8493 50.4858C28.975 50.6334 29.2214 50.4541 29.0945 50.3053Z" fill="#DD6B4B"/>
<path d="M58.5869 45.1064C56.9727 44.9342 55.4207 45.2646 54.0322 46.0709C53.8626 46.1681 54.0493 46.406 54.2177 46.3076C55.5354 45.5447 57.0117 45.2365 58.5393 45.3994C58.7369 45.4205 58.7845 45.1263 58.5869 45.1064Z" fill="#DD6B4B"/>
<path d="M52.5789 44.5982C51.0526 44.2068 49.5262 43.8166 47.9999 43.424C47.8071 43.3748 47.7619 43.6689 47.9523 43.7181C49.4786 44.1095 51.005 44.4998 52.5325 44.8912C52.7241 44.9416 52.7692 44.6463 52.5789 44.5982Z" fill="#DD6B4B"/>
<path d="M53.4965 43.0291C51.9616 42.3166 50.3596 41.7881 48.693 41.4412C48.499 41.4014 48.4526 41.6955 48.6466 41.7353C50.2876 42.0764 51.8628 42.6014 53.3733 43.3021C53.5526 43.3853 53.6758 43.1135 53.4965 43.0291Z" fill="#DD6B4B"/>
<path d="M73.5514 76.8972C72.2349 75.8976 70.3987 75.9726 69.3128 77.2418C68.1159 78.6398 67.7376 81.0129 68.6612 82.5152C69.0065 83.3847 70.0351 83.7457 70.9587 83.9695C72.7388 84.3996 74.1419 82.9101 74.6507 81.4336C75.1863 79.8832 74.9545 77.9625 73.5514 76.8972Z" fill="#32436D"/>
<path d="M71.8821 53.7061C69.4358 53.3358 66.9639 53.8033 65.1471 55.465C64.1259 56.4014 63.1962 57.3072 61.9749 58.008C60.8573 58.649 59.6738 59.1975 58.6916 60.0318C57.9437 60.667 57.2909 61.4627 57.0408 62.4084C56.9505 62.7518 56.8822 63.1525 57.0908 63.4713C57.1494 63.5604 57.2311 63.633 57.3153 63.6975C57.7655 64.0408 58.228 64.3654 57.9986 65.0018C57.6631 65.924 57.3141 66.6904 58.084 67.5307C58.8453 68.3615 60.0154 68.4025 61.0659 68.1775C60.8548 68.9826 60.5632 70.4533 61.6467 70.5787C62.2152 70.6443 62.8326 70.3279 63.3804 70.2436C64.2833 70.1041 65.1716 70.1932 65.9646 70.6525C66.0939 70.7275 66.2038 70.5775 66.1769 70.4674C65.7926 68.8947 65.3997 67.2565 65.5656 65.6287C65.7206 64.0971 66.4478 62.7717 67.602 61.7182C68.6318 60.7783 69.8787 60.0799 71.1134 59.4201C72.6788 58.5846 74.2515 57.7584 75.8206 56.9287C75.9792 57.1807 76.1756 57.374 76.4441 57.5358C76.4477 57.5522 76.455 57.5662 76.4599 57.5826C76.5112 57.7678 76.8015 57.6647 76.7503 57.4818C76.1537 55.3256 74.0856 54.0389 71.8821 53.7061Z" fill="#7D443B"/>
<path d="M65.4132 69.6655C66.321 71.5276 70.0374 75.6526 73.9027 76.7659C75.8743 77.3331 78.489 77.5768 80.396 76.5596C84.7103 74.2604 83.0107 69.3503 81.8772 66.0608C81.0927 63.785 79.4993 61.4225 77.9741 59.1702C76.8882 57.5682 76.1306 56.5417 74.0759 56.0612C74.0064 56.046 73.9478 56.0706 73.9051 56.1104C73.8234 56.1069 73.744 56.1514 73.7392 56.2475C73.7331 56.3835 71.881 56.2299 71.6784 56.2405C71.1001 56.271 70.5279 56.3729 69.9678 56.5346C68.8063 56.8686 67.7351 57.4628 66.7968 58.2022C64.9496 59.6589 63.6087 61.0686 63.4171 63.3292C63.2317 65.5229 64.4847 67.7577 65.4132 69.6655Z" fill="#FFA57A"/>
<path d="M72.1201 68.4844C72.5727 69.1032 73.1925 69.4348 73.5037 69.2262C73.8136 69.0153 73.6976 68.3426 73.245 67.7227C72.7911 67.1039 72.1713 66.7711 71.8602 66.9797C71.5503 67.1907 71.6662 67.8633 72.1201 68.4844Z" fill="#301616"/>
<path d="M77.6058 64.8467C77.9816 65.5135 78.5563 65.9119 78.8906 65.7385C79.2249 65.565 79.1907 64.8842 78.8161 64.2174C78.4404 63.5517 77.8657 63.151 77.5314 63.3256C77.1971 63.499 77.23 64.1799 77.6058 64.8467Z" fill="#301616"/>
<path d="M74.6947 65.4796C74.5348 65.3636 74.7459 65.1456 74.9033 65.2605C75.8794 65.9671 77.1251 66.6339 77.9328 67.5199C78.5246 68.1691 78.6514 69.0445 78.3525 69.8437C78.2866 70.0218 77.9841 69.9574 78.0512 69.7769C78.4477 68.714 77.9816 67.8726 77.1044 67.2222C76.3076 66.6339 75.4975 66.0609 74.6947 65.4796Z" fill="#DD6B4B"/>
<path d="M76.4455 72.36C77.0726 73.1873 78.1744 73.5061 79.1504 73.0338C80.1582 72.5428 80.3901 71.242 79.6373 70.0936C79.5982 70.0338 79.5153 70.0479 79.4481 70.0795C79.4201 70.0912 79.3835 70.1135 79.3396 70.1416C78.8052 70.4861 77.219 71.89 76.5321 72.1408C76.5101 72.1455 76.4906 72.1619 76.4723 72.1795C76.4223 72.224 76.3991 72.3002 76.4455 72.36Z" fill="#DD6B4B"/>
<path d="M76.4722 72.1795C77.0725 72.5158 77.8045 72.5686 78.4792 72.2393C79.2455 71.8654 79.5627 71.0252 79.3394 70.1416C78.805 70.4861 77.2189 71.89 76.532 72.1408C76.51 72.1455 76.4905 72.1619 76.4722 72.1795Z" fill="white"/>
<path d="M70.9878 64.4098C69.7787 64.3676 68.5171 65.5172 68.2487 66.62C68.1633 66.9727 68.2463 67.418 68.6428 67.5622C68.8649 67.6407 69.0589 67.6079 69.2297 67.5153C69.348 67.4825 69.4664 67.4239 69.5774 67.3465C70.1923 66.9223 70.5791 66.3083 71.2441 65.9157C71.5735 65.7223 72.0554 65.4504 71.9822 65.0063C71.909 64.5668 71.3795 64.4239 70.9878 64.4098Z" fill="#7D443B"/>
<path d="M77.5044 60.2368C76.3099 60.0516 74.9092 61.0419 74.5017 62.1036C74.3712 62.4434 74.3956 62.8958 74.7701 63.0845C74.98 63.1911 75.1776 63.1806 75.3582 63.1079C75.4802 63.0903 75.6059 63.0458 75.7255 62.9825C76.3904 62.6356 76.8541 62.072 77.5629 61.7626C77.9155 61.6079 78.4292 61.3981 78.4133 60.947C78.3975 60.5028 77.8924 60.2977 77.5044 60.2368Z" fill="#7D443B"/>
<path d="M76.7297 57.2404C76.5979 57.1326 76.5198 56.9861 76.4393 56.8443C76.3258 56.822 76.2124 56.7986 76.1001 56.7834C76.1636 56.7177 76.1745 56.5935 76.0672 56.5361C75.1216 56.0252 74.1345 55.322 73.0804 55.0373C71.9957 54.7443 70.933 55.158 69.9581 55.5974C68.0047 56.4752 65.8879 57.2697 64.353 58.7744C62.8852 60.2123 61.9787 62.1306 61.8054 64.1369C61.7188 65.133 61.803 66.1361 62.058 67.1064C62.3459 68.208 62.7424 69.4056 63.2049 70.4533C63.5685 71.2736 64.231 71.658 65.1192 71.8279C66.5443 72.0974 67.7131 72.374 68.5745 73.6162C68.6782 73.765 68.8844 73.6326 68.8466 73.4791C68.594 72.4748 68.0572 71.7904 67.4069 70.9924C66.8713 70.3338 66.9115 70.0865 67.0482 69.2509C67.1019 68.9263 67.1299 68.7447 66.9933 68.4259C66.6468 67.6232 65.8244 67.1498 65.3071 66.4677C64.5665 65.4904 64.6665 64.2388 65.2485 63.2111C65.8086 62.2232 66.7139 61.4662 67.574 60.7302C68.3671 60.0529 69.1724 59.3838 70.0411 58.7966C71.9884 57.483 74.3822 56.7646 76.7443 57.3799C76.7382 57.3588 76.7333 57.3013 76.7297 57.2404Z" fill="#7D443B"/>
<path d="M69.1029 71.7761C69.1273 71.7433 69.1346 71.7011 69.109 71.6507C68.6893 70.8527 67.1459 71.1831 66.7408 71.8429C66.1795 72.7558 67.2239 73.7906 67.9792 74.2195C68.6515 74.6015 70.0229 74.9343 70.2742 73.8949C70.4706 73.0886 69.8057 72.2976 69.1029 71.7761Z" fill="#FFA57A"/>
<path d="M69.4859 72.9057C68.5098 73.4342 68.1902 72.0256 67.2666 72.2143C67.0738 72.253 67.097 72.5495 67.2922 72.5108C67.8571 72.3936 68.1402 73.0604 68.605 73.2444C68.9649 73.3862 69.3334 73.3276 69.6628 73.1495C69.8361 73.0557 69.658 72.8131 69.4859 72.9057Z" fill="#DD6B4B"/>
<path d="M70.5242 77.2103C69.7775 76.8775 68.4806 76.1298 67.6607 76.5623C67.2861 76.7591 67.136 77.1763 66.9981 77.5408C66.8664 77.8935 66.5955 78.4631 66.7798 78.8439C66.9652 79.2259 67.5728 79.3888 67.9352 79.5353C68.3695 79.7146 68.9979 80.0369 69.4762 80.0404C69.7995 80.0439 69.8642 79.8623 69.9301 79.5705C70.0899 78.8673 70.1838 78.1431 70.2924 77.4318C70.3168 77.4435 70.3437 77.4564 70.3681 77.467C70.5474 77.5466 70.7048 77.2912 70.5242 77.2103Z" fill="#32436D"/>
<path d="M72.0566 77.7175C71.1098 77.0003 69.7909 77.0542 69.01 77.9659C68.1498 78.9714 67.8778 80.6765 68.5415 81.7569C68.7892 82.3804 69.5286 82.6405 70.1923 82.8011C71.4722 83.1104 72.4812 82.0405 72.8472 80.98C73.2316 79.8644 73.0644 78.4839 72.0566 77.7175Z" fill="#2F1616"/>
<path d="M95.8413 116.015C95.4936 115.178 95.0397 114.383 94.5065 113.642C94.143 113.137 93.7062 112.378 93.0046 112.301C92.6178 112.26 92.1505 112.387 91.7747 112.439C91.1195 112.532 90.4643 112.627 89.8104 112.726C88.6013 112.907 87.3946 113.098 86.1891 113.298C83.7379 113.707 81.2941 114.157 78.8575 114.644C78.7709 114.574 78.6184 114.617 78.6025 114.722C78.5427 114.79 78.5733 114.906 78.6599 114.949C79.8641 118.69 78.0596 122.381 75.7414 125.351C75.623 125.505 75.8915 125.652 76.0086 125.501C78.3646 122.483 80.1704 118.717 78.9747 114.922C83.0461 114.112 87.1396 113.404 91.2525 112.812C91.7833 112.736 92.5141 112.511 93.029 112.643C93.5658 112.781 93.8526 113.265 94.1674 113.693C94.7164 114.441 95.1874 115.245 95.5436 116.093C96.2464 117.77 96.4672 119.587 95.9463 121.339C95.8914 121.522 96.1903 121.601 96.2452 121.418C96.7808 119.615 96.5612 117.742 95.8413 116.015Z" fill="#232C44"/>
<path d="M80.6658 85.0605C79.3579 83.2968 77.9804 81.5039 75.9025 80.5359C75.7244 80.4515 75.567 80.707 75.7464 80.7914C77.7766 81.7382 79.1212 83.4867 80.3986 85.2105C80.5133 85.3652 80.7817 85.2164 80.6658 85.0605Z" fill="#232C44"/>
<mask id="mask6_2366_485" style="mask-type:luminance" maskUnits="userSpaceOnUse" x="209" y="132" width="27" height="30">
<path d="M209.751 132.117H235.952V161.321H209.751V132.117Z" fill="white"/>
</mask>
<g mask="url(#mask6_2366_485)">
<path d="M225.665 133.912C223.503 133.337 221.437 132.371 219.18 132.187C217.954 132.088 216.718 132.139 215.482 132.214C214.562 133.877 213.735 135.593 213.305 137.436C212.688 140.084 212.962 142.811 212.804 145.495C212.64 148.248 211.851 150.894 211.105 153.54C210.739 154.842 210.384 156.149 210.131 157.477C209.982 158.252 209.503 159.652 210.066 160.351C210.611 161.03 211.846 160.888 212.612 160.907C214.148 160.944 215.686 160.982 217.223 161.019C220.195 161.092 223.166 161.163 226.137 161.236C226.907 161.255 227.674 161.273 228.443 161.293C228.835 161.302 229.345 161.385 229.689 161.142C230.001 160.922 230.083 160.518 230.179 160.181C230.378 159.484 230.54 158.777 230.682 158.068C231.209 155.446 231.437 152.778 231.985 150.159C232.29 148.7 232.718 147.285 233.28 145.897C233.826 144.55 234.381 143.221 234.574 141.776C234.78 140.243 234.712 138.686 235.038 137.167C235.234 136.252 235.544 135.37 235.952 134.531C232.515 134.321 229.049 134.812 225.665 133.912Z" fill="#F7E8E1"/>
</g>
<path d="M223.159 140.269C222.002 140.172 220.859 140.029 219.733 139.761C219.403 139.683 219.056 139.577 218.702 139.476C218.269 139.448 217.834 139.448 217.473 139.542C217.156 139.624 217.028 139.792 216.925 140.081C216.451 141.418 216.462 142.998 216.381 144.391C216.29 145.97 216.182 147.54 215.741 149.07C215.332 150.486 214.791 151.864 214.938 153.357C214.943 153.418 214.979 153.487 215.051 153.501C219.388 154.297 223.784 154.724 228.199 154.77C228.26 154.77 228.337 154.724 228.348 154.662C228.777 152.1 229.286 149.59 230.087 147.109C230.731 145.107 231.401 143.101 231.553 141.01C228.797 140.474 225.963 140.504 223.159 140.269Z" fill="#232C44"/>
<path d="M231.88 138.268C231.625 136.963 231.362 135.614 231.24 134.29C231.213 134.021 231.046 133.792 230.792 133.678C230.536 133.564 230.235 133.588 230.009 133.74C229.79 133.889 229.673 134.134 229.696 134.396C229.819 135.703 230.091 137.088 230.354 138.427C231.087 142.166 231.846 146.032 229.693 149.184C229.159 149.966 228.045 151.219 226.556 150.838C225.573 150.585 224.4 150.014 223.337 149.272C221.162 147.756 220.942 145.372 220.879 142.414C220.809 139.149 221.043 135.821 221.575 132.521C221.642 132.11 221.345 131.723 220.913 131.659C220.498 131.595 220.12 131.86 220.055 132.26C219.513 135.622 219.269 138.997 219.33 142.29C219.379 144.997 219.436 148.065 221.922 150.09C222.799 150.802 223.891 151.408 225.36 151.993C226.005 152.25 226.613 152.38 227.19 152.38C227.94 152.38 228.64 152.162 229.298 151.726C232.033 149.917 232.516 146.263 232.596 144.777C232.718 142.554 232.291 140.375 231.88 138.268Z" fill="#E3C8BB"/>
<path d="M42.9108 128.839C42.74 128.697 42.3105 128.536 42.2642 128.527C41.3869 128.386 40.7439 129.029 40.7695 129.853C40.8 130.781 41.8591 131.036 42.6326 130.69C43.3806 130.353 43.5453 129.36 42.9108 128.839Z" fill="#2F1616"/>
<path d="M41.0539 142.802C40.8831 142.661 40.4536 142.499 40.4072 142.49C39.53 142.349 38.887 142.992 38.9126 143.816C38.9431 144.744 40.0022 145.001 40.7757 144.652C41.5224 144.317 41.6883 143.324 41.0539 142.802Z" fill="#2F1616"/>
<path d="M39.2434 157.24C39.0714 157.098 38.6419 156.936 38.5955 156.929C37.7183 156.786 37.0753 157.43 37.1021 158.252C37.1326 159.183 38.1917 159.438 38.9652 159.09C39.7119 158.754 39.8766 157.76 39.2434 157.24Z" fill="#2F1616"/>
<path d="M37.3887 172.088C37.2166 171.947 36.7872 171.785 36.7408 171.777C35.8635 171.635 35.2206 172.279 35.2474 173.101C35.2779 174.031 36.3369 174.287 37.1105 173.939C37.8572 173.603 38.0219 172.61 37.3887 172.088Z" fill="#2F1616"/>
</svg>
