<svg width="224" height="230" viewBox="0 0 224 230" fill="none" xmlns="http://www.w3.org/2000/svg">
<path d="M195.232 119.008C194.44 113.774 193.699 108.529 192.838 103.305C192.025 98.3698 191.01 93.434 189.199 88.771C187.69 84.8866 185.606 81.2807 183.118 77.9742C178.169 71.4012 171.839 66.1082 165.54 60.9682C162.297 58.3228 159.032 55.7051 155.877 52.9488C152.732 50.1969 149.764 47.2521 146.828 44.2695C141.104 38.4518 135.301 32.3469 128.063 28.5169C124.516 26.6379 120.673 25.4089 116.69 25.044C111.898 24.607 107.067 25.3657 102.467 26.7377C93.1281 29.5207 84.8361 34.8459 76.1012 39.0818C71.6258 41.2514 67.0531 42.9706 62.26 44.2373C57.6333 45.4585 53.025 46.6709 48.9654 49.3617C45.2613 51.8175 42.1242 55.0674 39.1978 58.426C36.1818 61.8855 33.3591 65.5735 31.1878 69.6609C29.0414 73.6972 27.7029 78.0463 27.1617 82.6117C26.5525 87.7472 26.8301 92.9382 27.1617 98.0837C27.8628 108.945 28.5282 119.818 29.3946 130.667C29.7856 135.552 30.3333 140.453 31.5594 145.202C32.7952 149.987 34.8326 154.427 37.3917 158.612C39.7509 162.467 42.391 166.186 45.1792 169.728C47.8398 173.108 50.7846 176.314 54.2813 178.793C57.8634 181.333 61.9349 182.858 66.2569 183.358C70.915 183.897 75.6162 183.345 80.2256 182.631C88.4085 181.364 96.2705 179.99 104.581 180.864C105.065 180.914 105.566 180.975 105.986 181.227C106.634 181.615 106.969 182.367 107.3 183.059C111.277 191.393 119.953 196.67 128.92 196.805C133.257 196.872 137.402 195.672 141.271 193.707C158.188 185.119 174.137 171.814 186.854 157.541C197.239 145.884 197.455 133.742 195.232 119.008Z" fill="#FFF5F0"/>
<path d="M35.4644 75.0261C34.5224 68.3011 36.98 60.6677 40.9942 55.5222C43.7358 52.0061 47.7727 48.8827 51.5665 46.6599C56.8047 43.5907 62.5635 40.657 68.3719 39.062C74.2679 37.4403 80.6036 36.401 86.6454 35.5381V80.3624C86.6454 80.3624 65.2122 80.1749 57.1158 92.3859C52.3929 99.5091 54.8224 101.96 54.8224 101.96C54.8224 101.96 45.7948 101.353 45.0419 99.7997C44.29 98.2479 36.6591 78.8162 36.6591 78.8162L35.4644 75.0261Z" fill="#B9D386"/>
<path d="M80.6265 41.743C80.6265 41.783 80.6265 75.5265 80.6265 75.5265C80.6265 75.5265 80.5616 75.5321 80.4374 75.5487C78.8851 75.7262 67.926 77.1781 58.7525 83.2342C58.2232 83.5825 57.7036 83.943 57.1873 84.3246V49.1934C57.1873 48.915 59.1306 48.0454 59.3845 47.9123C60.4723 47.3555 61.6022 46.8885 62.7419 46.456C63.9928 45.9879 65.2481 45.532 66.5163 45.105C69.272 44.1777 72.0666 43.3769 74.9087 42.8212C76.151 42.5783 77.3933 42.3442 78.6356 42.1102C79.0482 42.0348 80.2268 41.58 80.6265 41.743Z" fill="white"/>
<path d="M186.964 123.794C186.392 122.121 185.455 120.546 184.129 119.392C182.626 118.085 180.792 117.649 178.888 117.35C174.147 116.608 169.326 115.916 164.519 116.144C159.944 116.36 155.698 117.593 151.737 119.958C149.64 121.208 147.642 122.625 145.538 123.863C143.365 125.145 141.075 126.192 138.762 127.174C136.098 128.305 133.392 129.586 130.538 130.11C127.855 130.603 125.108 130.204 122.457 130.962C120.14 131.626 118.059 132.859 116.229 134.424C112.701 135.598 109.328 137.207 106.283 139.465C103.451 141.564 100.961 144.181 99.1601 147.267C98.1652 148.972 97.3917 150.8 96.4206 152.517C95.376 154.365 94.0397 155.955 92.523 157.408C89.723 160.094 86.7232 162.472 84.1997 165.457C81.8686 168.215 79.8485 171.25 78.1914 174.483C74.9463 180.812 72.7372 188.252 73.1088 195.467C73.2795 198.787 74.0595 202.144 75.857 204.948C77.7064 207.835 80.5172 209.756 83.5624 211.11C97.5278 217.315 113.53 217.019 128.383 215.512C140.204 214.314 160.391 216.096 168.248 204.716C170.367 201.649 172.094 198.3 173.411 194.79C176.022 187.823 177.005 180.213 176.211 172.792C176.15 172.212 176.072 171.636 175.987 171.059C179.719 165.016 182.639 158.457 184.642 151.594C185.938 147.151 186.851 142.589 187.359 137.979C187.859 133.437 188.467 128.198 186.964 123.794Z" fill="#FFC46B"/>
<path d="M155.564 181.271C155.456 181.271 155.363 181.188 155.351 181.075C155.338 180.953 155.423 180.844 155.542 180.831C155.58 180.826 159.527 180.36 165.387 177.756C171.226 175.163 174.351 170.968 174.382 170.926C174.455 170.828 174.59 170.809 174.682 170.882C174.779 170.956 174.797 171.095 174.726 171.191C174.694 171.234 171.505 175.519 165.558 178.161C159.631 180.795 155.628 181.266 155.588 181.27L155.564 181.271Z" fill="#F8A948"/>
<path d="M135.907 194.189C135.791 194.189 135.696 194.095 135.692 193.974C135.689 193.852 135.782 193.751 135.9 193.746C136.006 193.744 146.66 193.358 155.698 188.417C164.753 183.467 171.856 175.976 171.928 175.901C172.009 175.814 172.146 175.812 172.231 175.896C172.316 175.982 172.319 176.121 172.236 176.208C172.165 176.283 165.013 183.824 155.9 188.807C146.772 193.799 136.021 194.186 135.913 194.189H135.907Z" fill="#F8A948"/>
<path d="M117.532 122.655L113.294 124.137L103.026 106.281L98.9062 107.532C98.9062 107.532 105.193 128.969 108.583 131.632C111.326 133.787 122.48 131.613 122.48 131.613C122.48 131.613 120.463 124.857 120.445 124.77C120.428 124.683 117.532 122.655 117.532 122.655Z" fill="#C16055"/>
<path d="M68.034 188.612L61.9479 199.324L61.7632 202.946L66.1619 202.387L73.9278 192.505L68.034 188.612Z" fill="#C16055"/>
<path d="M66.0993 205.587C65.9103 206.157 65.7083 206.545 65.5149 206.607C64.6896 206.881 50.5362 204.743 50.2575 204.346C50.1452 204.196 50.1322 203.746 50.197 203.229C50.304 202.376 50.6313 201.34 51.1347 201.112C51.7321 200.853 52.4148 200.729 53.0435 200.561C54.3538 200.213 55.6739 199.881 56.9896 199.537C57.0631 199.519 57.1311 199.496 57.2046 199.48C57.3418 199.443 57.4801 199.408 57.6216 199.369C58.1034 199.25 58.5808 199.123 59.0572 198.984C59.1955 198.941 59.3284 198.901 59.4655 198.856C59.7756 198.76 60.0856 198.653 60.3946 198.535C60.9109 198.331 62.123 198 62.204 198.887C62.2472 199.316 61.9339 199.7 62.2904 200.075C62.6134 200.424 62.824 200.672 63.2788 200.897C64.479 201.493 66.62 201.612 66.8858 202.001C67.1569 202.386 66.418 204.651 66.0993 205.587Z" fill="#8C433D"/>
<path d="M57.7501 201.136C57.5697 200.583 57.3893 200.031 57.2046 199.48C57.3418 199.443 57.4801 199.407 57.6216 199.369C57.8063 199.921 57.9824 200.473 58.1638 201.02C58.2535 201.29 57.8409 201.404 57.7501 201.136Z" fill="#DE8860"/>
<path d="M59.6297 200.729C59.4363 200.15 59.2505 199.567 59.0571 198.984C59.1954 198.941 59.3283 198.901 59.4655 198.856C59.6642 199.44 59.8533 200.027 60.0466 200.614C60.1363 200.884 59.7193 200.998 59.6297 200.729Z" fill="#DE8860"/>
<path d="M87.1931 176.824L91.8166 188.281L94.5129 190.624L96.7393 186.686L93.7751 174.358L87.1931 176.824Z" fill="#C16055"/>
<path d="M99.1829 188.673C99.5102 189.172 99.6895 189.573 99.6204 189.768C99.333 190.61 89.1161 200.895 88.6397 200.882C88.4549 200.884 88.0985 200.621 87.7366 200.256C87.1414 199.653 86.5343 198.759 86.6639 198.211C86.8238 197.563 87.1403 196.93 87.3898 196.316C87.9127 195.032 88.4539 193.752 88.9832 192.468C89.0134 192.396 89.0383 192.327 89.0685 192.256C89.1236 192.122 89.1798 191.987 89.2349 191.848C89.4336 191.382 89.6227 190.915 89.8053 190.441C89.8539 190.303 89.9036 190.168 89.9532 190.03C90.0656 189.718 90.1704 189.4 90.2654 189.076C90.4199 188.53 90.8952 187.339 91.633 187.808C91.9917 188.033 92.0997 188.521 92.6063 188.456C93.0719 188.404 93.3906 188.38 93.8411 188.144C95.0293 187.523 96.4164 185.844 96.8787 185.861C97.34 185.873 98.6492 187.847 99.1829 188.673Z" fill="#8C433D"/>
<path d="M90.6825 192.81C90.1456 192.625 89.6087 192.439 89.0686 192.256C89.1237 192.122 89.1799 191.987 89.235 191.848C89.7751 192.031 90.3098 192.22 90.8424 192.404C91.1059 192.492 90.9461 192.9 90.6825 192.81Z" fill="#DE8860"/>
<path d="M91.5033 191.029C90.9384 190.837 90.3745 190.635 89.8052 190.441C89.8538 190.302 89.9035 190.168 89.9532 190.029C90.5246 190.22 91.095 190.421 91.6664 190.618C91.93 190.706 91.7669 191.116 91.5033 191.029Z" fill="#DE8860"/>
<path d="M140.62 162.426C140.62 162.426 138.011 173.653 129.485 177.04C122.69 179.737 94.0171 173.948 93.5861 173.948C93.1572 173.948 89.5384 180.72 87.8186 182.154C86.0989 183.59 83.9135 185.65 83.4836 187.859C83.0537 190.066 79.2922 193.784 78.1094 194.557C76.9276 195.33 73.7203 200.511 73.7203 200.511L63.7432 194.74C63.7432 194.74 81.0271 163.734 85.2185 160.31C89.4109 156.885 94.9591 157.498 101.576 158.308C109.323 159.256 116.73 161.289 116.73 161.289C116.73 161.289 126.296 152.566 126.619 152.787C126.941 153.008 140.62 162.426 140.62 162.426Z" fill="#FFECCF"/>
<path d="M164.606 91.4621C164.505 90.4816 164.035 90.0312 163.244 89.5609C162.229 88.9564 162.114 87.7541 161 87.2072C160.265 86.8457 159.479 86.7403 158.781 86.2789C158.233 85.9173 157.778 85.4791 157.153 85.254C156.528 85.0288 155.88 85 155.255 85.1275C153.96 84.5729 152.554 84.0782 151.142 84.4543C150.202 84.7049 149.579 85.5379 148.62 85.7021C147.944 85.8186 147.55 85.6089 146.904 86.0116C146.316 86.3754 145.922 86.961 145.517 87.5134C145.042 88.1578 144.35 88.6658 143.97 89.3768C143.33 90.5714 143.725 91.9989 144.331 93.1103C144.41 93.2545 144.573 93.2634 144.682 93.2002C145.735 95.7923 147.937 97.4783 149.956 99.3317C152.588 101.748 155.22 104.162 157.852 106.578C157.922 106.642 158.062 106.648 158.134 106.581C160.216 104.621 162.211 102.282 162.968 99.4637C163.145 98.806 163.626 98.4588 163.863 97.8709C164.091 97.3075 164.14 96.6065 164.236 96.0097C164.464 94.5733 164.755 92.9195 164.606 91.4621Z" fill="#574566"/>
<path d="M147.18 90.2321C148.492 88.4729 150.89 88.4374 152.844 88.2811C153.969 88.1912 155.158 88.2112 156.145 88.7691C157.082 89.2993 157.722 90.2499 158.191 91.2348C159.371 93.7127 159.658 96.58 159.288 99.3119C158.917 102.045 157.915 104.655 156.63 107.078C155.91 108.44 155.039 109.79 153.856 110.777C153.539 111.043 147.012 111.375 145.272 110.189C143.144 108.737 142.793 106.781 142.823 104.095C142.854 101.494 144.157 95.1347 144.965 92.6834C145.71 90.4251 145.753 92.1466 147.18 90.2321Z" fill="#C16055"/>
<path d="M146.766 109.416C146.766 109.416 147.054 113.993 146.035 115.598C145.016 117.203 142.797 118.1 142.797 118.1L151.269 130.557L160.512 119.482C160.512 119.482 157.132 117.837 157.117 112.743C157.1 107.65 157.595 101.556 157.595 101.556C157.595 101.556 148.818 101.942 148.427 102.735C148.035 103.529 146.766 109.416 146.766 109.416Z" fill="#C16055"/>
<path d="M146.105 103.957C146.075 103.957 146.046 103.95 146.018 103.938C145.971 103.917 144.837 103.403 144.586 102.594C144.491 102.287 144.53 101.981 144.703 101.684C144.822 101.483 145.72 100.119 145.758 100.061C145.825 99.9608 145.959 99.933 146.057 100.002C146.154 100.069 146.181 100.208 146.114 100.308C145.792 100.796 145.163 101.759 145.072 101.913C144.964 102.096 144.939 102.276 144.996 102.459C145.155 102.972 145.912 103.408 146.19 103.533C146.299 103.582 146.349 103.713 146.301 103.824C146.265 103.907 146.187 103.957 146.105 103.957Z" fill="#AB463C"/>
<path d="M146.544 91.5961C146.973 91.5961 146.948 91.5184 147.383 91.6249C147.619 91.6837 147.825 91.7425 148.066 91.7602C149.067 91.8379 149.668 91.6305 150.685 92.0631C151.37 92.3548 151.859 92.652 152.602 92.7452C153.094 92.8073 153.587 92.7507 154.071 92.8883C154.844 93.1057 155.442 93.6436 155.945 94.2548L155.684 95.4705C155.566 96.0206 155.353 96.6085 155.494 97.1731C155.549 97.3893 155.645 97.68 155.766 97.9683C157.319 98.2445 158.358 99.8151 158.229 101.503C158.116 103.026 157.222 104.026 156.134 104.857C156.004 106.149 157.165 109.432 157.165 109.432C157.165 109.432 158.923 104.986 159.281 103.278C159.456 102.433 159.623 101.585 159.844 100.751C160.025 100.066 160.282 99.3959 160.27 98.6749C160.26 98.0915 160.163 97.4315 160.013 96.7749C160.257 94.0263 159.665 90.4425 157.188 89.1182C155.792 88.3728 153.996 87.968 152.438 87.8914C150.873 87.8149 149.129 87.8692 147.851 88.8908C147.734 88.9862 147.543 89.1381 147.327 89.3245C146.636 89.5563 145.999 89.9201 145.719 90.4769C145.38 91.1491 145.93 91.595 146.544 91.5961Z" fill="#574566"/>
<path d="M155.799 100.21L162.11 101.639C162.11 101.639 162.408 101.552 162.812 100.709C163.069 100.173 162.968 99.4637 162.968 99.4637L156.373 97.9619L155.799 100.21Z" fill="#44354F"/>
<path d="M158.122 98.7106C158.159 98.5376 158.325 98.4267 158.493 98.4644L158.658 98.4954C158.827 98.5332 158.933 98.704 158.897 98.8803L158.575 100.47C158.539 100.643 158.373 100.754 158.203 100.722L158.039 100.685C157.872 100.647 157.764 100.478 157.799 100.305L158.122 98.7106ZM159.59 99.0789C159.627 98.9058 159.793 98.7949 159.961 98.8315L160.126 98.8637C160.295 98.9014 160.407 99.0733 160.37 99.2497L160.048 100.839C160.012 101.012 159.845 101.123 159.671 101.09L159.513 101.054C159.341 101.017 159.232 100.846 159.267 100.673L159.59 99.0789ZM157.694 98.3357L157.24 100.585C157.202 100.757 157.311 100.928 157.484 100.967L160.121 101.532C160.289 101.57 160.456 101.458 160.492 101.281L160.947 99.0312C160.985 98.8593 160.876 98.6884 160.704 98.6496L158.066 98.0839C157.899 98.0473 157.731 98.1627 157.694 98.3357Z" fill="#A18DAD"/>
<path d="M156.047 94.7532C155.875 94.5591 155.626 94.4548 155.265 94.3572C154.57 94.1697 153.859 94.0433 153.152 93.9191C151.611 93.6507 150.058 93.4055 148.501 93.1937C146.918 92.9763 145.331 92.7944 143.748 92.6524C143.295 92.6125 142.45 92.4272 142.034 92.7112C141.608 93.004 141.391 94.8741 141.124 96.5578C140.858 98.2427 140.578 100.363 140.879 100.657C141.393 101.16 147.357 102.18 150.601 102.49C153.847 102.799 154.876 102.982 155.198 102.454C156.344 100.579 156.649 97.86 156.43 95.7026C156.383 95.2423 156.22 94.9484 156.047 94.7532Z" fill="#44354F"/>
<path d="M154.719 94.8674C154.562 94.6888 154.333 94.5923 154 94.5036C153.359 94.3294 152.704 94.213 152.052 94.0987C150.633 93.8503 149.201 93.6251 147.766 93.4288C146.306 93.2303 144.844 93.0605 143.384 92.9297C142.966 92.8931 142.187 92.7234 141.805 92.9851C141.412 93.2547 141.213 94.9794 140.967 96.5312C140.72 98.084 140.462 100.037 140.74 100.31C141.214 100.773 146.71 101.713 149.702 101.998C152.693 102.283 153.641 102.452 153.939 101.965C154.995 100.236 155.275 97.7313 155.074 95.7414C155.031 95.3177 154.88 95.0471 154.719 94.8674Z" fill="#574566"/>
<path d="M152.529 94.7465C151.972 94.3428 147.966 93.7904 145.301 93.4521C142.635 93.1138 140.67 92.8155 140.286 93.0617C139.909 93.3046 139.31 94.0533 139.07 96.2051C138.791 98.703 139.046 99.4972 139.317 99.7478C139.78 100.175 145.103 101.083 147.999 101.369C150.894 101.657 151.581 101.916 152.098 101.376C152.909 100.525 153.154 99.3352 153.3 98.1429C153.406 97.2655 153.628 95.5396 152.529 94.7465Z" fill="#A18DAD"/>
<path d="M141.181 93.9057C141.013 93.9057 140.898 93.919 140.846 93.9478C140.63 94.0765 140.107 94.5634 139.916 96.3315C139.688 98.4312 139.963 98.917 140.092 99.0268C140.446 99.3085 144.805 100.097 147.612 100.388C148.197 100.449 148.679 100.506 149.08 100.555C150.418 100.716 150.78 100.749 151.04 100.494C151.698 99.8565 151.889 98.9214 151.998 98.0052C152.084 97.2965 152.236 96.0154 151.385 95.4408C151.191 95.3088 150.12 94.9927 145.117 94.346L144.224 94.2296C143.016 94.0699 141.776 93.9057 141.181 93.9057ZM150.438 101.123C150.103 101.123 149.661 101.07 149.032 100.993C148.631 100.946 148.15 100.888 147.569 100.827C145.273 100.59 140.31 99.791 139.816 99.3651C139.556 99.1421 139.239 98.5787 139.488 96.2816C139.694 94.3838 140.294 93.7648 140.632 93.5652C140.971 93.3644 141.995 93.4909 144.278 93.7903L145.171 93.9079C150.412 94.5856 151.363 94.8962 151.621 95.0714C152.695 95.798 152.515 97.3109 152.427 98.0374C152.305 99.0567 152.091 100.082 151.336 100.815C151.104 101.04 150.853 101.123 150.438 101.123Z" fill="#574566"/>
<path d="M153.162 101.742C153.125 101.742 153.087 101.733 153.053 101.713C152.951 101.651 152.915 101.517 152.975 101.411C152.978 101.406 153.243 100.935 153.393 100.549C153.543 100.159 153.627 99.8577 153.627 99.8543C153.659 99.7367 153.779 99.668 153.892 99.7013C154.008 99.7356 154.073 99.8565 154.042 99.9741C154.037 99.9874 153.951 100.3 153.792 100.712C153.631 101.129 153.359 101.611 153.348 101.632C153.308 101.703 153.234 101.742 153.162 101.742Z" fill="#FAE3BF"/>
<path d="M154.004 99.457C153.992 99.457 153.982 99.4559 153.971 99.4536C153.854 99.4348 153.774 99.3216 153.791 99.2018L153.87 98.685C153.889 98.5641 154 98.4809 154.115 98.4997C154.233 98.5197 154.313 98.6317 154.295 98.7526L154.216 99.2695C154.2 99.3793 154.109 99.457 154.004 99.457Z" fill="#FAE3BF"/>
<path d="M147.793 105.001C147.765 104.953 147.723 104.915 147.68 104.882C147.551 104.797 147.372 104.78 147.213 104.767C146.601 104.732 145.99 104.693 145.379 104.655C144.94 104.628 144.828 104.843 144.939 105.207C144.951 105.249 144.967 105.291 144.987 105.339C145.167 105.797 145.436 106.22 145.77 106.575C146.019 106.846 146.367 107.097 146.725 107.019C146.89 106.985 147.035 106.881 147.163 106.765C147.511 106.44 147.754 105.99 147.829 105.51C147.838 105.471 147.843 105.437 147.848 105.397C147.862 105.26 147.864 105.118 147.793 105.001Z" fill="white"/>
<path d="M147.829 105.51C147.754 105.99 147.511 106.44 147.163 106.765C147.035 106.881 146.89 106.985 146.725 107.019C146.367 107.097 146.019 106.846 145.77 106.575C145.436 106.22 145.167 105.797 144.986 105.339C144.967 105.291 144.951 105.249 144.939 105.207C145.307 105.314 145.84 105.417 146.568 105.45C147.095 105.472 147.505 105.494 147.829 105.51Z" fill="#F35648"/>
<path d="M147.325 110.944C147.218 110.944 147.126 110.864 147.112 110.753C147.097 110.632 147.179 110.521 147.298 110.505C147.318 110.501 149.418 110.213 150.603 109.839C151.775 109.47 152.449 109.059 152.456 109.056C152.558 108.993 152.69 109.027 152.75 109.132C152.812 109.236 152.779 109.372 152.678 109.434C152.649 109.452 151.955 109.875 150.729 110.262C149.509 110.646 147.441 110.931 147.353 110.943L147.325 110.944Z" fill="#AB463C"/>
<path d="M146.32 90.8918C146.298 90.8918 146.275 90.8885 146.254 90.883C146.141 90.8453 146.079 90.7199 146.114 90.6046C146.138 90.5303 146.697 88.7633 147.727 88.364C147.865 88.3097 147.995 88.2609 148.117 88.2165C148.811 87.957 149.192 87.8139 149.672 87.3092L149.838 87.1317C150.308 86.6304 150.502 86.4241 151.373 86.0736C152.367 85.6743 153.41 86.1645 153.453 86.1867C153.561 86.2377 153.608 86.3697 153.558 86.4784C153.507 86.5893 153.381 86.6381 153.272 86.5871C153.262 86.5816 152.348 86.1556 151.53 86.4851C150.746 86.8012 150.608 86.9476 150.147 87.439L149.978 87.6175C149.433 88.1932 148.967 88.3673 148.264 88.6302C148.144 88.6768 148.017 88.7245 147.878 88.7766C147.184 89.0462 146.666 90.284 146.524 90.7388C146.496 90.832 146.41 90.8918 146.32 90.8918Z" fill="#44354F"/>
<path d="M151.677 88.0989C151.632 88.0989 151.586 88.0822 151.545 88.0534C151.451 87.9813 151.435 87.8349 151.506 87.7373C151.655 87.5288 152.794 86.9531 154.477 86.8843C156.187 86.81 157.172 87.4611 157.212 87.4899C157.311 87.5554 157.339 87.6918 157.274 87.7939C157.209 87.8959 157.075 87.9258 156.976 87.8593C156.969 87.8537 156.061 87.257 154.494 87.3247C152.878 87.3912 151.919 87.938 151.841 88.0146C151.8 88.0711 151.739 88.0989 151.677 88.0989Z" fill="#44354F"/>
<path d="M159.194 95.3939C158.128 95.3939 156.569 94.7461 156.492 94.7151C156.382 94.6685 156.33 94.5398 156.376 94.4267C156.42 94.3136 156.544 94.2592 156.655 94.3058C157.22 94.5432 158.846 95.1155 159.55 94.9114C159.859 94.8227 160.081 94.7362 160.276 94.6596C160.673 94.5032 160.955 94.3967 161.555 94.4178C162.312 94.4544 162.792 94.3701 163.023 94.1705C163.245 93.9786 163.33 93.7168 163.331 93.7146C163.366 93.5981 163.487 93.5349 163.6 93.5704C163.714 93.6059 163.776 93.7301 163.742 93.8466C163.736 93.8621 163.621 94.2315 163.3 94.5088C162.975 94.7894 162.434 94.8948 161.536 94.8593C161.029 94.836 160.803 94.9247 160.43 95.0722C160.226 95.151 159.994 95.243 159.667 95.3362C159.529 95.3761 159.368 95.3939 159.194 95.3939Z" fill="#44354F"/>
<path d="M161.054 93.575C160.556 93.575 160.3 93.5406 160.285 93.5372C160.167 93.5206 160.086 93.4097 160.102 93.2888C160.118 93.1679 160.228 93.0825 160.344 93.0991C160.35 93.1002 160.955 93.1834 162.145 93.0847C163.221 92.996 163.515 92.3282 163.527 92.2994C163.573 92.1896 163.7 92.1363 163.809 92.184C163.917 92.2317 163.97 92.3593 163.924 92.4702C163.908 92.509 163.531 93.4141 162.18 93.5239C161.721 93.5628 161.346 93.575 161.054 93.575Z" fill="#44354F"/>
<path d="M162.624 119.997C162.646 120.13 160.917 122.127 158.759 124.498C158.096 125.227 157.391 125.991 156.687 126.745C153.922 129.691 151.128 132.504 150.586 132.584C150.19 132.642 148.565 130.672 146.631 128.093C145.823 127.015 144.954 125.827 144.103 124.639C143.14 123.301 142.194 121.958 141.356 120.757C141.06 120.333 140.776 119.932 140.513 119.552C139.249 117.728 138.389 116.464 138.389 116.464L140.681 116.442L144.409 116.412C144.409 116.412 144.967 115.016 145.479 114.411C145.651 114.213 145.81 114.097 145.947 114.146C146.503 114.336 150.212 116.244 150.53 116.412C150.858 116.575 157.099 113.573 157.792 114.137C158.049 114.345 158.79 116.125 159.111 116.915C159.163 117.043 159.201 117.145 159.232 117.211C159.249 117.264 159.262 117.295 159.262 117.295C159.262 117.295 162.598 119.825 162.624 119.997Z" fill="#3A8EBA"/>
<path d="M117.267 148.701L113.936 150.138C113.936 150.138 91.58 139.468 86.4218 139.392C81.2626 139.319 79.2198 139.981 77.8231 141.968C76.4263 143.956 76.7482 151.243 77.8231 153.56C78.8979 155.879 89.4303 183.921 89.7533 183.921C90.0752 183.921 100.716 180.829 100.716 180.829L98.889 170.01C98.889 170.01 111.141 166.477 111.464 166.477C111.786 166.477 127.263 165.043 127.371 164.27C127.478 163.496 128.939 160.675 128.853 158.828C128.768 156.983 129.412 155.547 128.124 153.891C126.833 152.236 117.267 148.701 117.267 148.701Z" fill="#FFECCF"/>
<path d="M167.568 127.284C167.559 127.355 167.546 127.434 167.529 127.518C166.918 130.282 161.338 139.115 157.58 144.98C156.811 146.181 156.124 147.258 155.564 148.128C155.031 148.972 154.618 149.63 154.387 150.028C154.306 150.169 154.202 150.327 154.081 150.504C152.715 152.5 149.141 156.426 146.175 159.271C145.582 159.84 145.015 160.366 144.49 160.825C143.273 161.89 142.311 162.587 141.88 162.613C140.883 162.679 135.117 160.974 130.431 159.376C127.538 158.391 125.058 157.446 124.361 156.983C123.584 156.47 121.997 155.119 120.428 153.648C118.296 151.657 116.194 149.449 116.194 148.812C116.194 147.885 119.92 142.342 122.001 139.23C122.392 138.643 122.724 138.14 122.965 137.773C123.011 137.697 123.059 137.622 123.102 137.552C123.562 136.81 123.893 136.063 124.164 135.277C124.719 133.683 125.002 131.921 125.488 129.678C125.556 129.368 125.668 129.016 125.819 128.631C126.287 127.407 127.13 125.844 128.093 124.251C128.733 123.195 129.426 122.126 130.096 121.133C130.329 120.788 130.561 120.453 130.789 120.13C130.845 120.05 130.9 119.967 130.956 119.887C132.19 118.139 133.239 116.809 133.583 116.531C133.609 116.508 133.639 116.491 133.669 116.477C134 116.266 134.568 116.181 135.195 116.173C135.208 116.173 135.212 116.173 135.212 116.173C136.644 116.142 138.389 116.464 138.389 116.464L147.327 121.211L151.041 120.916L156.626 120.474L162.624 119.997C162.624 119.997 165.668 122.183 166.991 124.726L166.997 124.741C167 124.75 167.004 124.759 167.013 124.772C167.138 125.01 167.245 125.252 167.327 125.495C167.543 126.092 167.64 126.692 167.568 127.284Z" fill="#3A8EBA"/>
<path d="M88.0952 180.208C88.0088 180.208 87.9288 180.156 87.8953 180.068L81.9756 164.763C81.9324 164.649 81.9864 164.522 82.0966 164.476C82.2068 164.432 82.3321 164.486 82.3753 164.601L88.295 179.906C88.3382 180.019 88.2853 180.147 88.174 180.192C88.1481 180.203 88.1211 180.208 88.0952 180.208Z" fill="#F0D3A8"/>
<path d="M98.7453 173.874C98.6298 173.874 98.5347 173.78 98.5304 173.661C98.5293 173.615 98.3781 168.963 97.4717 166.671C96.5362 164.304 96.4509 164.034 96.5244 162.236C96.5881 160.673 95.6385 157.514 95.3264 156.477L95.2443 156.199C95.12 155.775 95.147 155.068 95.187 153.999C95.2237 153.057 95.268 151.884 95.2345 150.401C95.1654 147.365 94.0074 145.915 93.9955 145.902C93.9199 145.807 93.9307 145.669 94.0214 145.59C94.1111 145.512 94.2461 145.522 94.3239 145.616C94.3757 145.678 95.5921 147.184 95.6645 150.39C95.698 151.887 95.6526 153.068 95.6169 154.015C95.5791 155.005 95.5521 155.718 95.6558 156.073L95.7369 156.346C96.0879 157.513 97.0213 160.613 96.9543 162.254C96.883 164.008 96.9575 164.197 97.8703 166.504C98.8058 168.868 98.9549 173.452 98.9603 173.646C98.9635 173.769 98.8706 173.871 98.7518 173.874H98.7453Z" fill="#F0D3A8"/>
<path d="M111.459 159.818L96.4229 157.606C96.3052 157.589 96.2231 157.477 96.2403 157.356C96.2576 157.236 96.3678 157.157 96.4834 157.169L111.238 159.34C111.636 158.669 113.465 155.613 114.112 154.998C114.834 154.316 118.041 153.591 118.405 153.51C118.523 153.488 118.635 153.56 118.66 153.68C118.686 153.798 118.611 153.917 118.496 153.942C117.54 154.153 114.942 154.813 114.405 155.323C113.736 155.957 111.555 159.656 111.532 159.694L111.459 159.818Z" fill="#F0D3A8"/>
<path d="M73.9277 197.207C73.8445 197.207 73.7657 197.157 73.73 197.074L71.9649 192.911C71.9185 192.799 71.9682 192.669 72.0762 192.622C72.1864 192.573 72.3128 192.624 72.3592 192.736L74.1243 196.897C74.1719 197.009 74.1211 197.139 74.0131 197.188C73.985 197.2 73.9558 197.207 73.9277 197.207Z" fill="#F0D3A8"/>
<path d="M74.2401 193.044C74.1493 193.044 74.0651 192.983 74.0359 192.89L73.176 190.096C73.1404 189.98 73.203 189.855 73.3164 189.82C73.4299 189.783 73.5498 189.847 73.5854 189.963L74.4453 192.758C74.481 192.874 74.4183 192.998 74.3049 193.034C74.2843 193.042 74.2617 193.044 74.2401 193.044Z" fill="#F0D3A8"/>
<path d="M99.0317 176.868C98.9906 176.868 98.9474 176.856 98.9107 176.83C93.0547 172.695 92.9726 172.496 92.9423 172.42C92.8959 172.307 92.9477 172.178 93.0568 172.131C93.153 172.09 93.2643 172.125 93.3204 172.213C93.5862 172.498 97.0289 174.966 99.1538 176.465C99.2521 176.534 99.2769 176.672 99.2099 176.773C99.1678 176.835 99.1008 176.868 99.0317 176.868Z" fill="#F0D3A8"/>
<path d="M125.597 162.837C125.576 162.837 125.557 162.834 125.537 162.827C120.885 161.415 115.269 161.07 115.214 161.067C115.095 161.061 115.004 160.956 115.011 160.835C115.018 160.713 115.123 160.61 115.237 160.627C115.295 160.63 120.96 160.977 125.659 162.403C125.772 162.439 125.837 162.562 125.803 162.678C125.776 162.774 125.691 162.837 125.597 162.837Z" fill="#F0D3A8"/>
<path d="M111.5 159.545C111.486 159.545 111.472 159.544 111.457 159.541C111.34 159.517 111.265 159.398 111.289 159.28L112.973 150.867C112.997 150.748 113.111 150.671 113.227 150.695C113.343 150.719 113.418 150.835 113.394 150.954L111.71 159.367C111.689 159.472 111.6 159.545 111.5 159.545Z" fill="#F0D3A8"/>
<path d="M136.077 123.323C135.862 124.666 132.925 135.087 132.925 135.158C132.925 135.198 128.313 135.269 124.164 135.277C120.965 135.282 118.046 135.255 117.732 135.158C117.238 135.003 116.472 129.315 116.198 125.783C116.073 124.193 116.051 123.036 116.194 123.014C116.339 122.992 117.621 122.475 119.361 121.746C119.856 121.539 120.394 121.314 120.952 121.08C124.559 119.556 129.086 117.591 130.272 116.981C131.356 116.42 132.715 116.231 133.733 116.174C134.511 116.129 135.088 116.165 135.195 116.174C135.208 116.174 135.212 116.174 135.212 116.174C135.212 116.174 136.292 121.985 136.077 123.323Z" fill="#3A8EBA"/>
<path d="M158.348 151.206L158.904 155.769L139.802 162.483L140.161 166.881C140.161 166.881 161.871 164.896 165.096 162.025C167.705 159.702 167.891 148.041 167.891 148.041C167.891 148.041 161.042 148.702 160.955 148.702C160.868 148.702 158.348 151.206 158.348 151.206Z" fill="#C16055"/>
<path d="M171.114 148.186L168.265 148.861L157.615 151.38L156.819 145.114L156.496 136.191L164.088 127.893L166.338 125.439L166.991 124.727L166.996 124.741C167 124.75 167.004 124.759 167.013 124.772C167.069 124.869 167.206 125.125 167.395 125.495C167.627 125.964 167.942 126.618 168.26 127.368C168.814 128.684 169.373 130.309 169.537 131.775C169.58 132.143 169.631 132.646 169.692 133.246C169.816 134.456 169.975 136.068 170.143 137.791C170.293 139.386 170.452 141.075 170.599 142.613C170.887 145.696 171.114 148.186 171.114 148.186Z" fill="#3A8EBA"/>
<path d="M139.802 162.483L134.626 162.062V168.961L140.161 166.881L141.893 164.435L139.802 162.483Z" fill="#C16055"/>
<path d="M134.626 171.28C134.507 171.28 134.411 171.18 134.411 171.059V169.459C134.411 169.336 134.507 169.237 134.626 169.237C134.745 169.237 134.841 169.336 134.841 169.459V171.059C134.841 171.18 134.745 171.28 134.626 171.28Z" fill="#EECA94"/>
<path d="M133.05 149.008C132.646 148.089 131.89 147.351 130.969 147.002C130.419 146.79 129.826 146.738 129.267 146.556C128.098 146.177 127.771 145.258 127.797 144.078C127.818 143.148 127.861 142.219 127.822 141.284C127.788 140.529 127.827 139.565 127.517 138.854C127.052 137.813 125.849 137.703 124.865 137.609C124.276 137.552 123.686 137.534 123.102 137.552C123.059 137.622 123.011 137.697 122.965 137.773C122.724 138.14 122.392 138.643 122.001 139.23C119.92 142.343 116.194 147.885 116.194 148.812C116.194 149.094 116.605 149.683 117.249 150.425C117.274 150.285 117.304 150.142 117.346 149.999C117.616 149.072 118.169 148.317 118.727 147.55C119.73 146.17 120.39 144.432 121.476 143.141C123.115 141.195 124.914 142.38 125.201 144.554C125.426 146.265 125.128 147.698 126.671 148.828C127.481 149.422 128.448 149.838 128.824 150.867C129.444 152.561 128.206 154.507 127.677 156.043C127.438 156.735 127.223 157.446 127.051 158.168C128.031 158.54 129.193 158.955 130.431 159.376C130.428 158.484 130.544 157.596 130.854 156.683C131.692 154.244 134.28 151.781 133.05 149.008Z" fill="white"/>
<path d="M135.582 128.481C134.602 126.247 133.343 124.056 132.564 122.042C132.122 120.903 131.493 120.288 130.789 120.13C130.561 120.453 130.329 120.788 130.096 121.133C129.965 121.328 129.831 121.529 129.698 121.729C129.834 122.466 130.021 123.19 130.306 123.888C130.873 125.278 131.857 126.457 132.631 127.73C133.222 128.702 134.74 131.62 133.094 132.48C132.606 132.735 132.142 132.491 131.814 132.09C131.53 131.744 131.457 131.255 131.239 130.871C130.763 130.037 129.957 129.537 129.22 128.977C128.063 128.096 127.315 127.201 127.028 126.097C126.526 127.021 126.103 127.889 125.819 128.631C125.901 128.918 126.012 129.205 126.15 129.492C127.07 131.391 128.984 132.172 130.324 133.679C131.197 134.663 131.627 135.816 131.971 137.079C132.139 137.684 132.289 138.333 132.724 138.806C133.514 139.657 134.8 139.504 135.629 138.796C136.876 137.738 137.027 135.657 137.035 134.116C137.043 132.265 136.413 130.358 135.582 128.481Z" fill="white"/>
<path d="M119.361 121.746C119.258 123.036 118.941 124.409 118.003 125.209C117.5 125.637 116.824 125.862 116.198 125.782C116.073 124.193 116.051 123.036 116.194 123.014C116.339 122.992 117.621 122.475 119.361 121.746Z" fill="white"/>
<path d="M145.055 155.382C145.331 154.208 145.448 153.23 145.349 152.04C145.276 151.143 145.134 150.239 145.291 149.339C145.439 148.486 145.835 147.27 146.542 146.707C147.251 146.144 148.226 146.298 148.823 146.94C149.223 147.371 149.361 147.977 149.728 148.433C150.2 149.021 150.842 149.231 151.539 149.413C152.455 149.649 153.472 149.794 154.289 150.186C154.323 150.131 154.357 150.077 154.387 150.028C154.618 149.63 155.03 148.972 155.564 148.128C155.509 147.704 155.366 147.312 155.006 146.999C154.309 146.389 153.3 146.083 152.521 145.604C151.292 144.839 150.594 143.964 150.071 142.594C149.511 141.12 148.708 140.042 147.044 139.967C145.504 139.897 144.163 140.775 143.42 142.135C142.487 143.832 142.637 145.745 142.964 147.58C143.221 149.043 143.415 150.408 142.817 151.816C142.405 152.783 141.773 153.657 141.497 154.687C141.016 156.484 141.898 158.105 143.067 159.385C143.42 159.77 143.922 160.348 144.489 160.825C145.014 160.366 145.582 159.84 146.175 159.271L146.205 159.241C145.196 158.348 144.633 157.186 145.055 155.382Z" fill="white"/>
<path d="M167.271 125.252C166.926 125.357 166.579 125.443 166.23 125.495C165.267 125.635 164.637 125.347 163.824 124.833C163.026 124.327 161.977 123.838 161.282 123.202C160.189 122.203 160.588 120.282 160.776 118.961C160.799 118.805 160.831 118.666 160.866 118.529C160.051 117.895 159.262 117.295 159.262 117.295C159.262 117.295 159.249 117.264 159.232 117.21C158.771 117.604 158.359 118.055 157.972 118.527C157.533 119.065 156.893 119.728 156.652 120.386C156.644 120.417 156.63 120.444 156.626 120.474C156.321 121.525 157.452 122.276 157.981 123.009C158.307 123.464 158.566 123.963 158.758 124.498C159.017 125.203 159.15 125.964 159.154 126.714C159.167 128.008 159.619 129.011 161.094 128.79C161.682 128.706 162.224 128.432 162.774 128.211C163.153 128.062 163.603 127.964 164.088 127.893C165.151 127.743 166.398 127.717 167.529 127.518C167.778 127.478 168.024 127.429 168.26 127.367C167.942 126.617 167.627 125.964 167.395 125.495C167.351 125.407 167.31 125.326 167.271 125.252Z" fill="white"/>
<path d="M150.031 121.862C149.786 121.61 149.584 121.336 149.413 121.044C148.694 119.883 148.414 118.47 147.878 117.211C147.392 116.08 146.622 114.906 145.479 114.411C145.191 114.752 144.888 115.343 144.679 115.794C145.31 116.841 145.871 117.943 146.468 118.951C147.07 119.968 148.787 122.77 147.298 123.797C146.154 124.587 145.435 122.483 145.132 121.726C144.975 121.331 144.865 120.879 144.658 120.508C144.329 119.919 143.711 119.593 143.315 119.064C142.965 118.596 142.828 118.166 142.737 117.588C142.671 117.17 142.621 116.786 142.543 116.428L140.681 116.442C140.574 116.814 140.487 117.185 140.432 117.551C140.363 117.975 140.333 118.39 140.354 118.792C140.367 119.07 140.428 119.321 140.513 119.552C140.693 120.015 140.999 120.404 141.356 120.757C141.579 120.986 141.829 121.204 142.07 121.416C143.145 122.352 143.618 123.424 144.103 124.639C144.228 124.953 144.352 125.276 144.489 125.606C144.906 126.609 145.525 127.638 146.554 128.065C146.579 128.075 146.606 128.088 146.631 128.093C148.691 128.878 152.185 126.93 152.014 124.485C151.923 123.23 150.801 122.665 150.031 121.862Z" fill="white"/>
<path d="M170.143 137.791C169.975 136.068 169.816 134.456 169.692 133.246C169.546 133.202 169.399 133.166 169.249 133.149C166.153 132.783 167.147 137.866 167.568 139.53C167.765 140.313 167.994 141.12 168.535 141.704C169.063 142.273 169.834 142.547 170.599 142.613C170.452 141.075 170.293 139.386 170.143 137.791Z" fill="white"/>
<path d="M124.199 134.945C124.08 134.945 123.985 134.831 123.985 134.709C123.985 134.672 123.985 134.597 125.279 129.621C125.311 129.504 125.431 129.436 125.543 129.464C125.658 129.496 125.726 129.617 125.695 129.734C125.196 131.653 124.443 134.569 124.412 134.739C124.412 134.861 124.318 134.945 124.199 134.945Z" fill="#32436D"/>
<path d="M127.263 125.573C127.225 125.573 127.186 125.562 127.151 125.539C127.049 125.475 127.018 125.34 127.08 125.236L132.025 117.011C132.087 116.907 132.219 116.876 132.321 116.939C132.421 117.003 132.452 117.139 132.391 117.243L127.447 125.467C127.406 125.535 127.335 125.573 127.263 125.573Z" fill="#32436D"/>
<path d="M128.338 122.316C128.313 122.316 128.287 122.311 128.262 122.301C128.151 122.258 128.095 122.13 128.137 122.017L129.777 117.6C129.819 117.486 129.942 117.428 130.054 117.472C130.164 117.516 130.221 117.643 130.178 117.758L128.539 122.173C128.506 122.262 128.424 122.316 128.338 122.316Z" fill="#32436D"/>
<path d="M132.923 159.598C132.817 159.598 132.726 159.517 132.712 159.406C132.695 159.284 132.777 159.173 132.895 159.158C132.911 159.156 134.52 158.93 136.022 158.288C137.545 157.637 138.288 157.267 138.295 157.262C138.401 157.21 138.531 157.253 138.583 157.364C138.635 157.474 138.59 157.605 138.483 157.659C138.476 157.663 137.724 158.038 136.188 158.696C134.631 159.362 133.019 159.587 132.952 159.596L132.923 159.598Z" fill="#32436D"/>
<path d="M135.359 159.927C135.249 159.927 135.155 159.841 135.145 159.727C135.135 159.605 135.223 159.497 135.341 159.486L138.93 159.157C139.045 159.149 139.153 159.235 139.164 159.357C139.174 159.478 139.086 159.585 138.968 159.596L135.38 159.925L135.359 159.927Z" fill="#32436D"/>
<path d="M157.422 143.913C157.308 143.913 157.213 143.822 157.207 143.702C157.194 143.439 156.89 137.222 157.586 134.649C158.35 131.817 160.056 128.075 161.834 126.403C163.671 124.676 165.341 123.595 165.358 123.585C165.46 123.52 165.591 123.553 165.655 123.655C165.716 123.758 165.687 123.894 165.587 123.959C165.569 123.97 163.932 125.03 162.124 126.73C160.405 128.344 158.749 131.996 158 134.768C157.323 137.271 157.633 143.617 157.636 143.68C157.643 143.802 157.552 143.906 157.433 143.913H157.422Z" fill="#32436D"/>
<path d="M150.832 121.463C150.635 121.463 150.407 121.171 149.492 117.205C148.716 117.907 146.541 119.873 146.32 120.059C146.256 120.11 146.174 120.13 146.092 120.111C145.788 120.039 145.155 118.955 144.212 116.889C144.161 116.779 144.208 116.648 144.316 116.595C144.422 116.544 144.55 116.59 144.601 116.701C145.156 117.918 145.866 119.296 146.149 119.627C146.752 119.097 149.448 116.656 149.476 116.629L149.745 116.385L149.828 116.745C150.234 118.524 150.732 120.468 150.937 120.972C151.674 120.626 155.609 118.565 158.25 117.168C158.357 117.113 158.485 117.155 158.539 117.264C158.594 117.372 158.552 117.506 158.447 117.561C155.111 119.325 151.091 121.431 150.881 121.459C150.864 121.461 150.848 121.463 150.832 121.463Z" fill="#32436D"/>
<path d="M123.192 155.737H123.183C123.065 155.731 122.972 155.63 122.978 155.508C122.98 155.443 123.05 153.917 124.018 152.338C124.423 151.678 125.237 151.064 126.099 150.414C127.294 149.512 128.65 148.489 128.949 147.252C129.376 145.481 131.576 143.025 133.704 140.65C134.299 139.985 134.913 139.299 135.467 138.651C137.819 135.901 140.816 129.766 142.256 126.314C143.551 123.21 148.282 119.027 148.483 118.85C148.573 118.771 148.709 118.782 148.786 118.874C148.863 118.967 148.853 119.106 148.763 119.185C148.713 119.228 143.906 123.48 142.651 126.488C141.199 129.966 138.176 136.154 135.791 138.943C135.234 139.595 134.616 140.283 134.02 140.949C131.93 143.284 129.767 145.697 129.366 147.357C129.03 148.751 127.609 149.824 126.354 150.77C125.526 151.394 124.744 151.986 124.382 152.573C123.473 154.053 123.406 155.511 123.406 155.525C123.402 155.644 123.307 155.737 123.192 155.737Z" fill="#32436D"/>
<path d="M148.078 121.561C148.024 121.561 147.97 121.54 147.928 121.499C147.843 121.413 147.842 121.274 147.926 121.186L148.468 120.616C148.552 120.528 148.688 120.527 148.772 120.613C148.857 120.698 148.859 120.838 148.776 120.924L148.232 121.495C148.189 121.539 148.134 121.561 148.078 121.561Z" fill="white"/>
<path d="M139.328 134.985C139.289 134.985 139.25 134.974 139.216 134.952C139.114 134.889 139.083 134.753 139.145 134.649L139.55 133.968C139.612 133.864 139.745 133.832 139.846 133.895C139.947 133.959 139.978 134.095 139.917 134.199L139.512 134.88C139.471 134.948 139.399 134.985 139.328 134.985Z" fill="white"/>
<path d="M143.068 127.925C143.034 127.925 143.001 127.917 142.97 127.9C142.865 127.844 142.823 127.71 142.878 127.603L143.236 126.895C143.292 126.785 143.423 126.745 143.527 126.801C143.632 126.856 143.673 126.99 143.618 127.098L143.259 127.806C143.22 127.882 143.146 127.925 143.068 127.925Z" fill="white"/>
<path d="M124.088 155.72C124.067 155.72 124.047 155.717 124.026 155.712C123.913 155.676 123.848 155.553 123.883 155.435L124.106 154.672C124.14 154.556 124.26 154.489 124.374 154.525C124.488 154.559 124.551 154.683 124.518 154.799L124.294 155.563C124.266 155.658 124.181 155.72 124.088 155.72Z" fill="white"/>
<path d="M129.158 149.39C129.124 149.39 129.091 149.381 129.058 149.364C128.952 149.307 128.912 149.175 128.966 149.067L129.326 148.359C129.38 148.25 129.51 148.208 129.616 148.264C129.721 148.321 129.761 148.455 129.707 148.563L129.349 149.27C129.31 149.346 129.235 149.39 129.158 149.39Z" fill="white"/>
<path d="M134.508 141.855C134.456 141.855 134.404 141.835 134.363 141.797C134.275 141.715 134.269 141.574 134.35 141.484L134.875 140.897C134.956 140.807 135.092 140.803 135.179 140.884C135.266 140.966 135.273 141.106 135.192 141.195L134.666 141.783C134.624 141.831 134.566 141.855 134.508 141.855Z" fill="white"/>
<path d="M145.288 135.619C145.655 136.295 150.062 138.892 150.584 138.734C150.835 138.526 153.4 135.033 155.061 132.74L148.8 129.496C147.463 131.687 145.445 135.094 145.288 135.619ZM150.546 139.18C150.403 139.18 150.221 139.139 149.986 139.056C148.655 138.59 145.02 136.36 144.859 135.701C144.834 135.596 144.756 135.28 148.54 129.091L148.644 128.921L155.71 132.582L155.558 132.792C155.117 133.402 151.238 138.763 150.833 139.091C150.759 139.15 150.667 139.18 150.546 139.18Z" fill="#3A8EBA"/>
<path d="M154.002 134.784C153.966 134.784 153.932 134.775 153.898 134.757L147.543 131.182C147.44 131.123 147.402 130.989 147.459 130.881C147.516 130.774 147.647 130.735 147.751 130.794L154.105 134.37C154.21 134.428 154.247 134.563 154.19 134.669C154.152 134.742 154.078 134.784 154.002 134.784Z" fill="#32436D"/>
<path d="M141.839 176.511C141.153 175.764 140.332 175.173 139.432 174.775C139.444 174.773 139.457 174.77 139.468 174.767C139.741 174.717 139.626 174.292 139.354 174.342C139.116 174.387 138.874 174.433 138.631 174.485C137.994 174.294 137.327 174.191 136.646 174.205C135.431 174.229 134.284 174.496 133.057 174.38C129.673 174.058 126.104 174.934 122.829 175.757C120.01 176.465 117.377 177.598 114.809 178.975C113.369 179.748 111.042 180.619 111.175 182.674C111.311 184.755 113.377 185.66 115.114 185.918C119.755 186.602 124.714 185.731 128.992 183.826C130.986 182.936 133.269 181.736 134.032 179.48C134.516 178.05 134.575 176.81 135.943 175.921C136.745 175.4 137.686 175.131 138.623 174.934C139.745 175.282 140.729 175.946 141.535 176.822C141.725 177.03 142.029 176.717 141.839 176.511Z" fill="#FFC46B"/>
<path d="M141.893 176.276C141.876 176.276 141.861 176.273 141.845 176.271L134.987 174.706C134.871 174.681 134.799 174.562 134.823 174.443C134.849 174.324 134.964 174.25 135.081 174.275L141.939 175.839C142.055 175.865 142.128 175.984 142.102 176.103C142.08 176.206 141.991 176.276 141.893 176.276Z" fill="#F8A948"/>
<path d="M108.634 184.142C108.579 184.142 108.525 184.12 108.483 184.079C108.399 183.994 108.397 183.854 108.481 183.766C108.56 183.683 110.452 181.712 112.225 180.534C113.986 179.366 116.674 177.89 116.7 177.875C116.806 177.818 116.936 177.859 116.992 177.966C117.048 178.074 117.008 178.207 116.903 178.265C116.876 178.28 114.204 179.746 112.458 180.904C110.725 182.056 108.806 184.057 108.787 184.076C108.745 184.12 108.689 184.142 108.634 184.142Z" fill="#F8A948"/>
<path d="M105.41 180.343C105.31 180.343 105.22 180.272 105.199 180.167C105.174 180.048 105.249 179.932 105.365 179.906L113.14 178.221C113.255 178.199 113.37 178.273 113.394 178.392C113.418 178.512 113.345 178.629 113.227 178.654L105.454 180.338C105.439 180.341 105.424 180.343 105.41 180.343Z" fill="#F8A948"/>
<path d="M105.011 100.228C105.002 99.9595 104.901 99.7643 104.612 99.7931C104.112 99.8442 103.663 100.368 103.426 100.783C103.191 101.196 103.065 101.664 102.922 102.116C102.862 102.301 102.056 102.106 101.704 101.657C100.894 100.622 100.326 99.7965 99.9509 98.7727C99.6754 98.024 99.4324 97.2476 98.997 96.5776C98.8544 96.3591 98.5757 95.87 98.2581 95.9454C97.9989 96.0075 97.9319 96.4124 97.9103 96.6375C97.8476 97.2808 98.0885 97.8155 98.2527 98.4255C98.418 99.0411 98.9063 100.442 98.9063 100.442C98.9063 100.442 97.4976 99.0156 97.0213 98.2203C96.7274 97.7279 96.0944 95.7635 95.4063 95.8966C94.6285 96.0474 95.0336 97.3663 95.5024 98.7738C95.1697 98.2791 94.5421 97.435 93.9415 97.8166C93.2372 98.2625 94.5745 100.568 94.6847 100.841C94.554 100.879 94.1089 101.044 94.0257 101.242C93.5288 102.419 99.0683 107.789 99.0683 107.789C99.0683 107.789 102.545 107.887 102.778 107.684C103.71 106.877 103.934 105.792 104.164 104.568C104.323 103.725 104.145 102.361 104.451 101.561C104.521 101.375 105.026 100.652 105.011 100.228Z" fill="#C16055"/>
<path d="M100.894 106.379C100.872 106.379 100.85 106.376 100.828 106.368C100.715 106.331 100.653 106.205 100.691 106.09C100.702 106.052 100.986 105.168 101.343 104.537C101.703 103.904 102.334 103.236 102.361 103.208C102.443 103.119 102.579 103.118 102.664 103.204C102.75 103.288 102.752 103.429 102.669 103.515C102.662 103.522 102.049 104.173 101.715 104.76C101.38 105.35 101.101 106.218 101.098 106.226C101.069 106.319 100.985 106.379 100.894 106.379Z" fill="#AB463C"/>
<path d="M97.5377 101.781C97.4847 101.781 97.4318 101.761 97.3908 101.722C97.3702 101.702 96.8744 101.226 96.519 100.772C96.1604 100.317 95.4906 99.0776 95.4625 99.0255C95.4042 98.919 95.442 98.7848 95.5457 98.7249C95.6494 98.6672 95.7801 98.7039 95.8384 98.8114C95.8449 98.8236 96.5179 100.069 96.8528 100.495C97.1898 100.923 97.6792 101.394 97.6846 101.399C97.771 101.482 97.7753 101.622 97.6943 101.711C97.6522 101.757 97.5949 101.781 97.5377 101.781Z" fill="#AB463C"/>
<path d="M96.5934 102.931C96.5394 102.931 96.4854 102.91 96.4433 102.868L94.7819 101.204C94.6965 101.119 94.6954 100.979 94.7786 100.891C94.8607 100.805 94.9968 100.803 95.0822 100.888L96.7436 102.552C96.8289 102.637 96.8311 102.777 96.7479 102.863C96.7058 102.909 96.6496 102.931 96.5934 102.931Z" fill="#AB463C"/>
<path d="M74.0973 56.259C74.0973 59.6531 71.9617 62.4039 69.3291 62.4039C66.6955 62.4039 64.5598 59.6531 64.5598 56.259C64.5598 52.8649 66.6955 50.1152 69.3291 50.1152C71.9617 50.1152 74.0973 52.8649 74.0973 56.259Z" fill="#8EBA3A" fill-opacity="0.46"/>
<path d="M80.4372 75.5486C78.8849 75.726 67.9258 77.1779 58.7524 83.2341C58.6746 79.4307 59.1737 66.8703 68.9067 64.1639C77.6686 61.7259 79.882 70.9954 80.4372 75.5486Z" fill="#8EBA3A" fill-opacity="0.68"/>
<path d="M64.8094 58.2242C64.8094 58.2242 64.926 54.1602 65.7492 53.3139C66.5734 52.4665 71.5825 51.9751 72.4845 52.5042C73.3876 53.0333 73.4524 54.4142 73.6318 55.5744C73.8111 56.7357 73.9893 57.5665 73.9893 57.5665C73.9893 57.5665 74.4193 55.2461 74.3123 53.295C74.2043 51.344 73.8543 50.2958 74.1189 48.8971C74.3836 47.4984 72.9868 46.6887 71.374 46.7996C69.7623 46.9106 64.9887 48.1584 64.5598 48.9714C63.027 51.8786 64.8094 58.2242 64.8094 58.2242Z" fill="#8EBA3A" fill-opacity="0.74"/>
<path d="M67.3706 64.7042L70.3002 74.0701L71.8126 63.7647C71.8126 63.7647 70.3175 63.7281 69.4393 63.9122C68.5621 64.0963 67.3706 64.7042 67.3706 64.7042Z" fill="white"/>
<path d="M50.587 54.8801C42.5931 60.3628 38.0842 70.4564 39.2941 80.2593C39.3276 80.5377 39.7575 80.541 39.7229 80.2593C38.5336 70.6139 42.9269 60.6634 50.8041 55.2606C51.0331 55.1031 50.8181 54.7215 50.587 54.8801Z" fill="white"/>
<path d="M50.8828 60.3283C43.3102 66.411 39.5499 76.8229 41.4706 86.505C41.5246 86.78 41.9545 86.7501 41.8994 86.4717C40.009 76.9438 43.6656 66.685 51.1269 60.691C51.344 60.5168 51.101 60.153 50.8828 60.3283Z" fill="white"/>
<path d="M50.306 79.0427C45.7485 84.5287 45.2969 92.4327 49.2409 98.409C49.3943 98.643 49.7681 98.4223 49.6125 98.1872C45.782 92.3817 46.173 84.6962 50.6096 79.3555C50.7878 79.1392 50.4854 78.8264 50.306 79.0427Z" fill="white"/>
<path d="M86.6445 106.281V151.94C86.6445 151.94 82.7329 151.855 77.1869 151.114C69.999 150.155 60.0715 148.092 52.3855 143.69C38.7744 135.896 35.4764 124.726 35.4764 124.726L35.2615 72.4482C35.2615 72.4482 37.1962 84.9643 55.6825 97.6744C65.9362 104.722 86.6445 106.281 86.6445 106.281Z" fill="#B9D386"/>
<path d="M133.13 35.3418C130.612 35.7511 128.107 35.8243 125.863 35.8066C120.746 35.7644 115.629 35.7877 110.511 35.7822C109.125 35.7811 107.561 35.7012 106.642 34.6353C105.899 33.7746 105.815 32.5245 105.773 31.3743C105.669 28.4893 105.601 25.6021 105.567 22.7138C105.516 18.226 106.071 14.3073 111.117 14.071C116.265 13.8292 121.418 13.7006 126.571 13.6884C129.031 13.6817 131.505 13.7028 133.932 14.1143C137.129 14.6567 137.571 17.1956 137.594 20.0595C137.618 22.7471 137.635 25.4357 137.565 28.1233C137.51 30.2429 137.614 32.9482 135.595 34.3946C134.882 34.9059 134.039 35.1943 133.13 35.3418Z" fill="#B9D386"/>
<path d="M107.495 29.1216C107.495 29.1216 98.6103 41.7995 99.3254 42.495C100.043 43.1916 114.643 34.1029 114.643 34.1029L107.495 29.1216Z" fill="#B9D386"/>
<path d="M130.448 30.2597C130.28 30.2707 130.109 30.2719 129.944 30.2719C124.386 30.2719 118.828 30.273 113.271 30.273C112.65 30.273 111.958 30.2452 111.521 29.7905C111.13 29.3845 111.071 28.76 111.04 28.1888C110.919 25.9083 110.918 23.6201 111.038 21.3407C111.163 18.966 111.386 17.8989 113.965 17.8989C119.28 17.8989 124.596 17.9045 129.909 17.9189C130.549 17.92 131.258 17.9499 131.717 18.4047C132.201 18.8839 132.232 19.6548 132.232 20.3447C132.23 22.8348 132.229 25.3227 132.229 27.8128C132.228 28.5404 132.188 29.3634 131.656 29.8437C131.329 30.1388 130.892 30.2308 130.448 30.2597Z" fill="white"/>
<path d="M121.589 24.3334L112.124 19.4308C112.019 19.3753 111.976 19.2422 112.03 19.1335C112.083 19.026 112.213 18.9816 112.319 19.0359L121.59 23.8409L131.043 19.0359C131.148 18.9816 131.278 19.0271 131.331 19.1358C131.383 19.2456 131.34 19.3765 131.233 19.4319L121.589 24.3334Z" fill="#D892C0" fill-opacity="0.43"/>
<path d="M177.335 74.1578C174.525 74.7546 171.729 74.8621 169.224 74.8355C163.512 74.7745 157.798 74.8067 152.086 74.8011C150.539 74.7989 148.792 74.6825 147.766 73.1274C146.936 71.8685 146.842 70.0439 146.796 68.3646C146.679 64.1486 146.604 59.9337 146.566 55.7165C146.51 49.1602 147.127 43.4379 152.762 43.0918C158.51 42.7402 164.261 42.555 170.014 42.535C172.761 42.525 175.522 42.5561 178.233 43.1562C181.802 43.9492 182.294 47.6583 182.322 51.8377C182.348 55.7642 182.367 59.6919 182.29 63.6139C182.227 66.7108 182.342 70.6606 180.089 72.7736C179.292 73.52 178.352 73.9415 177.335 74.1578Z" fill="#B9D386"/>
<path d="M147.962 57.478C147.962 57.478 131.908 63.1193 132.122 64.2285C132.336 65.3377 151.335 66.753 151.335 66.753L147.962 57.478Z" fill="#B9D386"/>
<path d="M176.489 52.4388C176.489 55.3626 176.489 58.2853 176.484 61.2091V65.048C176.484 66.2747 176.441 67.6656 175.844 68.4742C175.474 68.9734 174.984 69.132 174.485 69.1808C174.297 69.1985 174.102 69.203 173.918 69.203H155.178C154.481 69.203 153.704 69.1542 153.214 68.3866C152.77 67.7011 152.705 66.6463 152.671 65.6824C152.624 64.4069 152.594 63.1269 152.581 61.8458C152.546 59.2714 152.577 56.6914 152.667 54.117C152.81 50.1073 153.058 48.3104 155.961 48.3104C161.931 48.306 167.907 48.3193 173.879 48.3415C174.596 48.3459 175.392 48.3936 175.912 49.1634C176.454 49.9698 176.489 51.273 176.489 52.4388Z" fill="white"/>
<path d="M175.575 60.4362V64.274C175.575 65.503 175.536 66.8928 174.979 67.7014C174.636 68.2005 174.18 68.3591 173.718 68.4079C173.542 68.4257 173.361 68.429 173.19 68.429H155.776C155.129 68.429 154.405 68.3824 153.949 67.6126C153.539 66.9283 153.479 65.8735 153.446 64.9107C153.403 63.634 153.374 62.3529 153.363 61.0729C154.609 59.8894 159.583 55.1909 160.09 55.1909C160.665 55.1909 168.512 62.2021 169.18 62.4217C169.847 62.6424 171.436 59.3448 172.834 58.686C173.641 58.3066 175.575 60.4362 175.575 60.4362Z" fill="#D892C0" fill-opacity="0.43"/>
<path d="M170.47 52.9822C170.47 51.8852 169.604 50.9956 168.535 50.9956C167.468 50.9956 166.6 51.8852 166.6 52.9822C166.6 54.0791 167.468 54.9687 168.535 54.9687C169.604 54.9687 170.47 54.0791 170.47 52.9822Z" fill="#D892C0" fill-opacity="0.43"/>
<path d="M46.7693 182.905C44.2761 183.31 41.7948 183.383 39.5727 183.367C37.665 183.35 35.7627 183.185 33.8636 183.018C32.3696 182.886 30.3993 183.102 29.3007 181.828C28.5639 180.974 28.4807 179.737 28.4397 178.597C28.336 175.74 28.2679 172.881 28.2355 170.021C28.1858 165.575 28.7346 161.694 33.7329 161.46C38.2343 161.25 43.1094 161.128 47.5644 161.884C50.7306 162.42 51.167 164.935 51.1908 167.771C51.2145 170.433 51.2318 173.095 51.1627 175.757C51.1076 177.855 51.2102 180.534 49.2107 181.967C48.5042 182.473 47.6702 182.759 46.7693 182.905Z" fill="#B9D386"/>
<path d="M43.5891 162.83C43.5891 162.83 55.2288 152.776 55.9579 153.458C56.6882 154.14 48.9623 169.778 48.9623 169.778L43.5891 162.83Z" fill="#B9D386"/>
<path d="M47.4056 172.285C47.4434 174.546 46.7596 176.604 44.8411 178.213C43.2294 179.564 41.1218 180.27 39.0423 180.031C36.507 179.738 34.1207 178.066 32.9584 175.723C31.5087 172.8 31.7485 169.554 33.8398 167.173C36.7252 163.887 42.0486 163.778 45.2008 166.616C46.8493 168.101 47.3721 170.297 47.4056 172.285Z" fill="white"/>
<path d="M40.0232 176.686C39.8439 176.686 39.6581 176.677 39.4636 176.657C35.5142 176.262 34.9374 173.163 34.932 173.132C34.9115 173.012 34.9892 172.898 35.1059 172.877C35.2237 172.852 35.3338 172.935 35.3555 173.056C35.376 173.17 35.8913 175.856 39.5058 176.218C43.1084 176.574 43.8894 173.191 43.9207 173.045C43.9467 172.928 44.0633 172.854 44.1778 172.878C44.2934 172.906 44.3669 173.024 44.3399 173.142C44.3323 173.18 43.5243 176.686 40.0232 176.686Z" fill="#D892C0" fill-opacity="0.43"/>
<path d="M36.9759 169.98C36.9759 170.633 36.7706 171.164 36.5168 171.164C36.264 171.164 36.0598 170.633 36.0598 169.98C36.0598 169.325 36.264 168.794 36.5168 168.794C36.7706 168.794 36.9759 169.325 36.9759 169.98Z" fill="#D892C0" fill-opacity="0.43"/>
<path d="M42.943 169.98C42.943 170.633 42.7389 171.164 42.4861 171.164C42.2333 171.164 42.0281 170.633 42.0281 169.98C42.0281 169.325 42.2333 168.794 42.4861 168.794C42.7389 168.794 42.943 169.325 42.943 169.98Z" fill="#D892C0" fill-opacity="0.43"/>
<path d="M144.399 191.759C144.399 191.759 141.389 213.793 141.533 214.619C141.676 215.444 142.342 215.177 142.568 214.641C143.205 213.134 146.383 191.759 146.383 191.759H144.399Z" fill="#8C433D"/>
<path d="M176.106 191.759C176.106 191.759 173.095 213.793 173.239 214.619C173.383 215.444 174.047 215.177 174.274 214.641C174.91 213.134 178.089 191.759 178.089 191.759H176.106Z" fill="#8C433D"/>
<path d="M178.901 192.335H143.206C142.663 192.335 142.222 191.945 142.222 191.462L142.719 189.487C142.719 189.003 143.16 188.612 143.704 188.612H179.398C179.941 188.612 180.382 189.003 180.382 189.487L179.885 191.462C179.885 191.945 179.444 192.335 178.901 192.335Z" fill="#DE8860"/>
<path d="M157.832 188.612H151.789C151.437 188.612 151.146 188.326 151.131 187.965L150.756 178.775C150.74 178.39 151.039 178.069 151.413 178.069H158.955C159.352 178.069 159.658 178.426 159.609 178.831L158.484 188.02C158.444 188.359 158.162 188.612 157.832 188.612Z" fill="white"/>
<path d="M150.756 180.761C149.871 180.761 149.153 181.79 149.153 183.053C149.153 184.315 149.871 185.343 150.756 185.343C151.64 185.343 152.358 184.315 152.358 183.053C152.358 181.79 151.64 180.761 150.756 180.761ZM150.756 186.227C149.397 186.227 148.293 184.803 148.293 183.053C148.293 181.303 149.397 179.878 150.756 179.878C152.113 179.878 153.218 181.303 153.218 183.053C153.218 184.803 152.113 186.227 150.756 186.227Z" fill="white"/>
<path d="M155.879 176.764C155.709 176.764 155.533 176.673 155.476 176.511C155.432 176.386 155.464 176.25 155.505 176.125C155.734 175.402 156.281 174.687 156.962 174.364C157.177 174.262 157.417 174.204 157.652 174.204C157.833 174.204 158.011 174.238 158.175 174.312C158.248 174.347 158.321 174.391 158.376 174.448C158.442 174.514 158.486 174.594 158.491 174.686C158.493 174.775 158.455 174.857 158.42 174.937C158.249 175.319 158.047 175.727 157.679 175.913C157.428 176.038 157.131 176.043 156.88 176.169C156.712 176.252 156.574 176.388 156.428 176.507C156.283 176.627 156.119 176.738 155.934 176.76C155.915 176.762 155.898 176.764 155.879 176.764Z" fill="#FFDCA6"/>
<path d="M153.964 177.185C153.585 176.779 153.574 176.212 153.55 175.665C153.514 174.907 153.488 174.114 153.833 173.42C154.125 172.828 154.607 172.336 154.911 171.764C155.388 170.871 155.297 169.616 156.153 168.963C156.76 168.499 157.583 168.322 158.344 168.322C158.439 168.322 158.534 168.325 158.627 168.33C158.735 168.336 158.831 168.352 158.917 168.375C159.635 168.575 159.715 169.388 159.668 170.031C159.64 170.411 159.619 170.816 159.543 171.202C158.803 172.729 156.664 173.305 155.547 174.494C155.147 174.92 154.571 175.523 154.236 176.16C154.057 176.499 153.946 176.847 153.964 177.185Z" fill="#FFDCA6"/>
<path d="M86.6445 139.402V151.94C86.6445 151.94 82.7329 151.855 77.187 151.114C76.6922 147.993 76.77 143.47 77.8232 141.968C79.22 139.981 81.2627 139.319 86.422 139.394C86.4944 139.394 86.5678 139.398 86.6445 139.402Z" fill="#496822"/>
</svg>
