<svg width="573" height="573" viewBox="0 0 573 573" fill="none" xmlns="http://www.w3.org/2000/svg">
<path d="M120.384 503.052C118.308 499.811 111.82 497.708 108.891 496.658C97.6278 492.615 85.9141 489.537 75.1151 484.546C64.6615 479.713 63.6115 469.854 73.4129 463.46C78.1244 460.387 83.7947 458.69 88.2989 455.344C92.2311 452.426 93.5961 448.43 92.0376 444.036C90.9572 440.988 87.3842 434.821 83.6289 434.246C81.6586 433.945 79.6608 434.481 77.7568 435.031C68.3505 437.744 59.0299 440.941 50.6681 445.722C41.5934 450.914 33.5439 458.171 29.3823 467.32C25.4225 476.03 24.9666 486.401 29.9516 494.856C34.3784 502.37 42.7899 508.004 52.2404 508.504C58.1042 508.814 63.7994 507.266 69.536 506.432C77.3009 505.299 83.1757 506.728 90.2249 509.662C96.0251 512.077 102.563 513.42 108.913 512.309C112.32 511.715 118.748 510.223 120.475 507.112C121.312 505.597 121.149 504.249 120.384 503.052Z" fill="#452B2B"/>
<path d="M41.071 484.079C40.5211 483.364 39.366 483.367 39.0814 484.342C39.0095 484.585 38.957 484.826 38.9184 485.066C38.8106 485.229 38.7332 485.42 38.7498 485.679C38.8824 487.697 39.261 489.943 41.2009 490.996C41.9635 491.411 42.7787 490.883 42.8395 490.057C42.9998 487.912 42.3808 485.79 41.071 484.079Z" fill="#5D5EA3"/>
<path d="M43.2956 478.763C43.0469 478.265 42.2677 478.055 41.8062 478.373C41.1734 478.807 40.7727 479.567 40.9855 480.327C40.8086 481.156 41.0518 481.999 41.6183 482.698C42.0356 483.214 43.0497 483.074 43.326 482.477C43.898 481.253 43.898 479.979 43.2956 478.763Z" fill="#5D5EA3"/>
<path d="M56.1477 488.89H55.6807C54.4759 488.89 54.4759 490.758 55.6807 490.758H56.1477C57.3497 490.758 57.3525 488.89 56.1477 488.89Z" fill="#E5EAFF"/>
<path d="M65.0318 495.904H64.562C63.36 495.904 63.3572 497.774 64.562 497.774H65.0318C66.2338 497.774 66.2366 495.904 65.0318 495.904Z" fill="#E5EAFF"/>
<path d="M44.459 464.109V464.579C44.459 465.784 46.3297 465.784 46.3297 464.579V464.109C46.3297 462.907 44.459 462.907 44.459 464.109Z" fill="#E5EAFF"/>
<path d="M470.125 256.347C463.849 268 449.48 255.907 444.805 249.557C440.881 244.227 437.949 238.178 433.447 233.273C428.802 228.216 423.148 225.862 416.588 224.229C412.764 223.276 408.84 222.552 405.237 220.877C401.188 218.998 392.263 211.471 398.552 206.897C415.259 206.461 435.114 207.237 444.47 223.381C447.706 228.962 450.315 233.328 455.681 237.109C461.354 241.102 474.914 247.449 470.125 256.347ZM473.394 251.865C472.584 245.827 466.541 241.64 461.876 238.573C458.599 236.415 455.137 234.417 452.346 231.618C449.052 228.307 447.598 223.939 445.026 220.145C434.928 205.261 415.602 204.314 399.191 204.706C398.889 204.452 398.461 204.363 398.022 204.634C397.966 204.667 397.922 204.706 397.87 204.742C397.394 204.753 396.919 204.767 396.449 204.781C395.325 204.817 395.115 206.223 395.808 206.751C394.101 209.321 394.299 212.83 395.911 215.754C399.003 221.366 405.712 223.767 411.556 225.262C416.171 226.442 420.916 227.252 425.191 229.465C429.637 231.77 432.906 235.663 435.719 239.703C439.836 245.62 443.13 252.177 448.552 257.074C453.017 261.108 459.096 264.004 465.212 262.501C470.011 261.315 474.087 257.093 473.394 251.865Z" fill="#E5EAFF"/>
<path d="M67.1207 265.745C64.2911 263.216 60.5247 259.798 56.6395 259.292C53.6524 258.9 51.0189 260.561 49.5571 263.103C48.1644 265.521 48.0926 268.152 48.5872 270.746C48.6756 272.808 49.2808 274.822 50.3861 276.56C50.4 276.599 50.4165 276.638 50.4303 276.676C50.5077 276.878 50.6293 277.019 50.7675 277.132C51.7623 278.506 53.0859 279.672 54.7328 280.49C59.5133 282.869 72.3489 282.535 72.6888 275.035C72.8518 271.443 69.5828 267.942 67.1207 265.745Z" fill="#452B2B"/>
<path d="M305.119 47.6782C282.012 43.4006 257.212 57.8555 246.333 78.0663C245.6 79.4259 244.937 80.8241 244.365 82.261C241.867 88.5089 240.035 95.08 236.929 101.076C233.942 106.854 229.103 111.245 225.229 116.382C221.319 121.569 218.163 127.803 216.235 134.004C214.604 139.238 214.049 144.938 215.591 150.2C217.893 158.064 225.074 163.038 232.895 164.417C239.811 165.636 246.99 164.997 253.7 163.013C261.415 160.728 269.354 155.779 277.818 156.776C286.149 157.76 292.129 165.486 300.817 165.191C304.569 165.061 308.228 164.016 311.793 162.812C320.494 159.877 329.138 155.464 333.684 146.817C338.572 137.527 333.885 127.168 337.768 117.518C339.708 112.693 342.407 108.197 343.969 103.221C347.553 91.8193 344.632 78.8594 337.958 68.9971C330.362 57.7781 318.239 50.1072 305.119 47.6782Z" fill="#422724"/>
<path d="M364.384 381.215C363.945 379.391 361.391 379.892 361.201 381.478C320.837 379.731 280.108 374.539 240.096 382.553C239.933 381.027 237.415 380.56 236.879 382.337C233.757 392.677 230.709 403.037 227.746 413.424C223.11 429.678 221.631 440.24 229.927 455.686C235.122 465.364 240.314 475.038 245.509 484.715C247.073 487.625 248.673 490.587 251.049 492.883C261.683 503.171 284.411 496.343 295.953 491.46C312.403 484.505 379.787 460.127 380.37 453.553C381.135 444.934 366.644 390.622 364.384 381.215Z" fill="#783E3E"/>
<path d="M350.371 395.275C314.489 399.801 278.16 400.075 242.212 396.096C241.516 396.015 241.522 397.107 242.212 397.184C278.16 401.163 314.489 400.89 350.371 396.364C351.056 396.278 351.065 395.186 350.371 395.275Z" fill="#452B2B"/>
<path d="M256.598 404.151C269.986 404.496 282.899 398.947 296.313 398.351C303.505 398.033 310.754 398.237 317.916 397.414C324.797 396.626 331.194 394.172 337.306 390.981C343.007 388.002 348.398 384.501 353.861 381.127C315.904 379.151 277.685 375.023 240.096 382.553C239.933 381.027 237.415 380.56 236.879 382.337C235.44 387.112 234.016 391.887 232.607 396.673C240.162 400.688 248.107 403.935 256.598 404.151Z" fill="#452B2B"/>
<path d="M432.278 311.149C431.753 309.143 431.173 307.15 430.557 305.177C426.984 293.801 423.925 282.239 420.684 270.755C420.463 269.975 419.86 269.63 419.238 269.608C419.059 269.558 418.863 269.536 418.636 269.564C412.358 270.293 406.099 271.155 399.865 272.214C396.156 272.844 392.412 273.457 388.742 274.3C387.165 274.665 385.426 274.927 384.393 276.353C382.279 279.263 384.213 285.082 384.94 288.177C386.598 295.251 388.789 302.218 390.903 309.167C392.945 315.888 395.026 322.6 396.875 329.378C398.298 334.593 398.978 340.857 402.277 345.331C408.439 353.679 421.178 354.92 429.595 352.245C434.837 350.578 436.708 346.679 436.973 341.954C437.515 332.133 434.765 320.619 432.278 311.149Z" fill="#F9B98E"/>
<path d="M436.656 299.952C438.554 295.978 436.575 290.435 435.409 285.298C431.151 266.541 428.927 246.388 422.076 228.36C415.759 211.736 402.869 198.972 388.356 189.08C365.199 173.293 337.585 167.617 309.936 167.633C309.184 167.633 308.43 167.642 307.675 167.647C306.172 167.661 304.666 167.703 303.163 167.769C275.836 169.032 240.356 176.33 218.462 192.929C210.813 198.723 205.436 206.767 200.895 215.151C200.028 216.754 199.196 218.373 198.392 220.009C197.56 221.698 196.75 223.405 195.996 225.132C194.194 229.258 203.203 240.831 205.093 244.069C210.045 252.553 216.467 261.058 218.912 270.688C219.83 274.306 220.161 278.039 220.487 281.755C221.839 297.072 224.566 312.237 225.754 327.566C227.114 345.074 226.47 362.789 224.232 380.198C223.723 384.139 225.342 383.951 228.227 385.012C244.898 391.127 263.015 389.552 280.529 389.48C301.535 389.389 322.633 388.223 343.604 388.95C352.808 389.268 373.92 392.531 379.8 382.937C381.116 380.801 381.638 378.286 382.138 375.83C385.407 359.813 392.697 311.956 395.866 311.157C405.618 308.695 423.16 307.786 432.408 303.754C434.591 302.801 435.918 301.494 436.656 299.952Z" fill="#9ABF7A"/>
<path d="M344.353 343.339C331.23 342.628 317.648 340.932 305.904 334.662C294.591 328.621 283.609 317.659 270.183 317.087C264.018 316.827 258.245 319.226 252.876 322.011C247.054 325.034 241.568 328.502 235.484 331.017C232.427 332.277 229.316 333.346 226.169 334.292C226.605 343.325 226.531 352.391 225.992 361.43C232.662 360.62 239.272 359.219 245.713 357.498C251.486 355.956 257.181 354.107 262.769 351.991C268.37 349.868 273.791 347.329 279.887 347.16C285.138 347.017 290.161 348.625 294.978 350.559C301.087 353.013 307.04 355.633 313.376 357.478C326.709 361.358 340.813 363.914 354.654 364.92C364.447 365.636 374.265 365.592 384.081 365.484C385.169 359.402 386.424 352.167 387.717 344.994C373.326 343.521 358.794 344.123 344.353 343.339Z" fill="#452B2B"/>
<path d="M209.771 265.905C201.766 264.383 193.761 262.86 185.753 261.337C185.545 261.296 185.355 261.301 185.175 261.326C184.487 261.009 183.614 261.097 183.119 261.94C175.993 274.032 168.523 285.911 161.814 298.25C155.472 309.914 147.688 321.978 145.903 335.424C145.289 340.045 145.566 345.809 150.042 348.409C151.579 349.302 153.245 349.984 154.953 350.471C163.237 352.825 170.071 350.103 176.636 345.008C197.419 328.878 216.044 280.797 219.559 272.625C222.499 265.781 213.391 266.593 209.771 265.905Z" fill="#C76C56"/>
<path d="M233.641 258.171C233.45 256.529 233.24 254.893 233.013 253.26C231.466 242.011 231.283 232.651 226.843 222.148C223.629 214.552 207.79 204.137 207.276 204.756C189.361 226.348 154.48 296.849 157.578 300.864C159.675 303.583 165.658 305.127 168.551 305.882C181.953 309.372 195.637 311.862 209.354 313.721C209.793 313.779 210.172 313.677 210.487 313.489C211.122 313.685 229.305 287.705 233.259 280.948C233.583 280.396 233.544 279.863 233.309 279.434C232.867 278.625 234.215 274.41 234.312 273.297C234.489 271.233 234.517 269.166 234.412 267.099C234.26 264.123 233.986 261.141 233.641 258.171Z" fill="#9ABF7A"/>
<path d="M341.402 179.239C338.716 173.912 330.066 169.88 325.623 166.078C319.745 161.043 318.751 150.985 317.311 143.805C315.031 132.415 313.926 120.837 312.815 109.283C312.804 109.165 312.76 109.065 312.721 108.966C312.754 108.902 312.793 108.839 312.826 108.775C313.484 107.534 311.605 106.434 310.947 107.672C304.956 118.949 295.569 127.519 283.828 132.515C282.598 133.037 283.56 134.747 284.759 134.43C287.025 144.499 290.554 155.511 291.256 166.288C286.055 171.331 277.041 173.354 270.832 175.799C264.778 178.184 263.584 178.839 265.314 185.302C267.339 192.868 270.727 200.086 275.251 206.475C278.873 211.584 283.051 216.428 289.866 215.483C297.321 214.452 304.556 209.398 310.56 205.19C318.466 199.652 326.073 193.656 333.786 187.85C336.273 185.979 343.35 183.102 341.402 179.239Z" fill="#C76C56"/>
<path d="M305.301 116.269C299.653 123.351 292.366 128.881 283.828 132.515C282.598 133.037 283.56 134.747 284.759 134.43C286.732 143.195 289.658 152.676 290.847 162.09C296.589 160.349 301.69 154.881 305.288 150.728C305.608 150.36 305.907 149.987 306.222 149.617C306.443 138.475 306.694 127.322 305.301 116.269Z" fill="#963E29"/>
<path d="M282.526 268.157C282.189 267.723 281.744 267.588 281.302 267.635C281.67 264.742 281.96 261.84 282.151 258.925C282.325 256.247 283.292 252.495 279.948 251.583C279.796 251.539 279.633 251.519 279.47 251.514C279.675 247.775 279.454 243.517 276.964 242.287C276.328 241.972 275.571 241.906 275.01 242.417C273.681 243.622 272.766 245.293 271.995 246.985C271.758 246.811 271.506 246.653 271.225 246.52C269.437 245.68 267.433 251.315 265.582 258.903C263.123 260.387 262.039 262.816 261.393 265.642C260.011 271.667 259.613 277.978 258.856 284.101C257.676 293.64 256.88 308.128 249.837 315.584C243.315 322.487 231.673 322.84 222.775 323.619C213.485 324.429 204.176 323.752 194.891 323.233C186.703 322.774 178.864 322.898 170.723 321.685C165.663 320.931 160.195 320.699 155.746 323.227C148.597 327.292 142.57 340.564 147.984 347.215C154.875 355.685 176.752 353.016 186.338 352.709C200.409 352.258 214.488 350.788 228.388 348.569C236.404 347.29 245.44 346.281 252.89 342.827C259.414 339.804 269.174 335.178 272.432 328.171C277.141 318.046 280.009 295.812 281.529 284.925C282.04 281.275 282.551 277.624 283.06 273.971C283.391 271.606 283.988 270.039 282.526 268.157Z" fill="#C76C56"/>
<path d="M330.835 76.1679C328.5 67.3667 323.849 58.4219 315.393 54.1719C303 47.9462 285.367 50.5575 274.159 58.0267C259.409 67.8558 253.448 85.8035 254.844 102.911C255.896 115.805 258.911 128.737 264.667 140.379C266.892 144.886 269.539 151.15 274.75 152.861C279.578 154.447 290.004 153.259 294.329 151.358C297.752 149.854 307.136 140.945 309.745 137.928C311.605 135.778 327.422 111.889 330.061 104.506C333.294 95.4641 333.28 85.3918 330.835 76.1679Z" fill="#C76C56"/>
<path d="M421.048 326.579C412.629 325.167 403.811 325.761 395.344 326.361C373.5 327.903 351.938 329.773 330.135 326.518C319.77 324.974 303.793 323.26 295.185 317.272C293.118 315.835 292.546 312.276 292.06 310.024C291.192 306.003 290.769 301.927 290.463 297.835C289.551 285.737 288.929 273.662 288.227 261.572C288.125 259.837 288 257.974 287.37 256.336C286.801 254.874 284.958 254.407 284.734 252.776C284.546 251.422 284.72 246.297 282.173 247.073C277.445 248.513 275.93 252.641 274.944 256.93C268.265 261.84 268.912 270.694 268.892 278.047C268.865 287.97 267.627 297.796 267.068 307.733C266.659 314.957 267.317 322.777 271.177 329.083C274.955 335.256 282.446 338.644 289.103 340.713C297.537 343.333 305.829 346.461 314.376 348.807C342.12 356.423 370.596 358.363 399.257 357.418C407.298 357.152 415.721 357.359 423.704 356.218C429.537 355.386 436.07 353.029 436.683 346.268C437.114 341.526 437.755 332.785 433.596 329.409C430.275 326.709 425.025 327.245 421.048 326.579Z" fill="#C76C56"/>
<path d="M190.616 498.697C190.599 499.145 190.585 499.609 190.751 500.024C191.086 500.861 192.039 501.237 192.915 501.356C200.821 502.442 208.652 504.636 216.494 506.167C216.685 506.294 216.912 506.393 217.185 506.44C244.1 511.281 272.385 511.856 299.645 509.118C299.999 509.082 300.297 508.957 300.546 508.781C301.449 508.797 302.295 508.217 302.182 507.037C301.267 497.736 296.064 488.81 292.494 480.368C292.336 479.998 292.109 479.749 291.855 479.592C291.471 479.202 290.93 478.959 290.266 479.056C280.794 480.426 271.302 481.23 261.768 481.501C253.321 474.029 243.865 470.658 234.329 480.103C230.703 483.693 227.769 487.307 222.535 488.241C218.763 488.915 214.839 488.465 211.034 488.951C206.875 489.482 195.28 491.438 191.688 495.981C191.041 496.802 190.652 497.703 190.616 498.697Z" fill="#C76C56"/>
<path d="M344.286 178.087C338.862 171.602 337.538 169.092 335.789 175.774C332.189 189.502 311.685 199.163 297.736 199.152C291.286 199.149 283.95 196.866 280.377 191.086C275.867 183.788 279.487 175.343 285.091 169.941C281.275 170.01 275.701 172.102 272.639 173.732C268.779 175.782 263.921 175.57 260.254 177.949C257.242 179.905 256.131 185.418 253.255 187.77C252.069 191.041 251.641 194.7 252.229 198.74C253.561 207.895 260.776 213.035 268.207 217.511C276.903 222.742 286.798 226.423 297.061 226.312C315.269 226.116 332.603 212.667 342.709 198.348C347.039 192.216 349.664 184.514 344.286 178.087Z" fill="#9ABF7A"/>
<path d="M294.002 468.975C291.231 448.253 277.445 431.706 267.405 414.032C267.856 413.248 267.745 412.206 266.643 411.891C266.474 411.844 266.306 411.8 266.137 411.75C266.018 411.532 265.894 411.311 265.775 411.089C265.109 409.849 263.509 410.02 262.857 410.838C222.808 399.663 181.643 392.783 140.108 390.644C112.257 389.212 59.7288 385.49 59.5437 425.602C59.4967 435.868 60.0107 446.468 61.4421 456.637C62.5225 464.327 65.6976 470.354 72.5865 474.242C80.2326 478.558 89.5532 480.374 98.056 482.231C108.736 484.563 119.557 486.185 130.362 487.802C151.393 490.946 172.494 493.817 193.783 494.312C214.715 494.798 235.638 493.386 256.46 491.328C262.429 490.736 268.392 490.092 274.352 489.427C279.232 488.879 284.883 488.993 289.592 487.589C296.451 485.544 294.729 474.413 294.002 468.975Z" fill="#783E3E"/>
<path d="M482.419 412.979C472.526 406.314 460.345 404.811 448.714 404.181C418.39 402.531 388.021 407.395 359.609 418.067C358.305 418.559 358.418 420.048 359.214 420.783C342.023 442.392 319.099 459.503 306.117 484.231C305.384 484.491 306.885 490.012 307.802 488.125C307.869 487.989 307.94 487.857 308.007 487.719C308.471 486.776 340.517 493.516 343.734 494.008C356.594 495.975 369.449 497.727 382.434 498.703C411.932 500.922 442.251 500.596 471.451 495.492C484.234 493.259 491.311 486.511 494.243 473.886C498.758 454.437 501.45 425.796 482.419 412.979Z" fill="#783E3E"/>
<path d="M490.919 421.631C489.838 420.236 452.086 426.84 435.995 431.706C394.413 444.291 351.377 450.834 308.96 459.851C300.521 461.647 291.593 462.99 283.654 466.485C277.317 469.415 280.307 479.05 280.879 484.466C281.987 494.964 284.425 509.944 286.613 520.271C286.577 520.453 349.224 524.653 353.364 524.852C386.689 526.488 421.336 525.029 453.315 514.672C469.934 509.289 486.088 504.097 496.418 489.263C509.712 470.172 504.006 438.468 490.919 421.631Z" fill="#783E3E"/>
<path d="M301.452 80.0226C302.088 81.5977 302.641 83.206 303.254 84.7341C307.106 94.3172 312.754 102.955 322.18 107.81C323.584 108.532 324.076 110.27 323.266 111.627C320.138 116.852 319.24 122.39 314.957 126.991C312.11 130.047 309.532 133.399 307.656 137.146C305.752 140.948 305.832 145.881 303.685 149.382C302.223 151.755 299.883 153.452 298.391 155.801C295.605 160.184 292.947 166.362 294.48 171.585C297.854 183.078 310.546 178.651 315.741 171.549C318.378 167.948 320.793 163.848 324.808 161.888C328.419 160.128 332.581 160.217 336.146 158.277C339.92 156.224 342.949 152.786 344.751 148.912C349.761 138.118 342.38 127.662 343.278 116.573C343.764 110.568 346.002 104.682 346.953 98.7275C348.21 90.8631 347.097 82.0509 343.999 74.7281C337.508 59.3862 320.005 48.4822 303.666 47.2995C297.705 46.8712 291.579 47.5482 285.895 49.4162C277.447 52.1878 269.395 56.9711 263.728 63.9181C256.905 72.2909 246.725 82.5428 245.045 93.0655C244.915 93.8834 242.494 118.17 243.71 118.256C244.929 118.347 250.994 113.821 251.121 112.854C252.467 102.455 256.283 92.2144 262.965 84.0516C269.569 75.9799 281.783 66.7173 292.831 70.6495C294.124 71.1082 295.334 71.7742 296.429 72.6004C298.905 74.4767 300.308 77.1847 301.452 80.0226Z" fill="#422724"/>
<path d="M334.413 517.355C331.105 512.602 319.652 509.941 315.534 509.154C311.768 508.435 307.822 508.645 304.097 507.739C298.932 506.484 296.227 502.699 292.828 498.896C283.889 488.882 274.242 491.665 265.355 498.606C255.852 497.752 246.429 496.371 237.059 494.42C236.401 494.282 235.846 494.492 235.44 494.856C235.174 494.997 234.937 495.232 234.754 495.591C230.673 503.798 224.934 512.39 223.45 521.616C223.262 522.791 224.074 523.415 224.975 523.457C225.213 523.65 225.5 523.794 225.854 523.849C241.024 526.322 256.643 526.491 271.976 526.601C282.764 526.681 334.949 529.135 335.201 523.888C335.226 522.893 335.01 518.215 334.413 517.355Z" fill="#C76C56"/>
<mask id="mask0_885_15855" style="mask-type:luminance" maskUnits="userSpaceOnUse" x="52" y="398" width="214" height="132">
<path d="M52.4836 398.978H265.985V529.696H52.4836V398.978Z" fill="white"/>
</mask>
<g mask="url(#mask0_885_15855)">
<path d="M265.043 488.462C267.66 478.727 262.338 468.613 252.766 465.452C233.967 459.251 214.964 453.678 196.311 447.004C171.911 438.278 147.95 428.333 124.805 416.663C109.607 408.995 74.7394 398.074 73.2499 399.078C53.1275 412.59 50.2481 442.511 54.0836 464.369C56.7972 479.816 65.3634 487.683 78.9396 494.166C109.333 508.67 183.235 527.03 241.234 529.685C245.274 529.871 249.096 527.734 251.005 524.17C257.021 512.929 261.708 500.867 265.043 488.462Z" fill="#783E3E"/>
</g>
<path d="M276.265 120.646C271.879 119.718 273.297 113.799 273.675 110.657C273.758 109.966 272.692 109.753 272.606 110.45C272.147 114.26 270.885 120.621 276.057 121.716C276.743 121.862 276.95 120.795 276.265 120.646Z" fill="#963E29"/>
<path d="M281.888 117.712L278.088 118.002C277.392 118.054 277.472 119.14 278.171 119.088L281.974 118.795C282.67 118.742 282.587 117.656 281.888 117.712Z" fill="#963E29"/>
<path d="M298.421 107.189C295.511 109.253 292.118 109.897 288.65 109.068C287.285 108.742 286.873 110.881 288.233 111.207C292.245 112.165 295.492 112.384 299.662 108.974C300.745 108.092 299.568 106.371 298.421 107.189Z" fill="#211717"/>
<path d="M267.765 109.678C265.742 110.356 263.537 110.215 261.746 109.134C260.436 108.347 258.953 109.866 260.108 110.85C262.647 113.008 265.363 113.08 268.594 111.779C270.064 111.187 269.282 109.17 267.765 109.678Z" fill="#211717"/>
<path d="M301.228 101.22C301.154 100.278 300.549 99.3437 299.811 98.722C297.368 96.6661 293.099 96.3428 290.178 96.7048C288.246 96.9424 286.055 97.6111 284.621 99.1199C281.791 102.104 283.665 105.934 287.445 104.859C290.219 104.069 292.955 103.693 295.845 103.765C297.222 103.801 299.424 104.155 300.562 103.002C301.093 102.466 301.275 101.842 301.228 101.22Z" fill="#422724"/>
<path d="M264.316 97.0529C261.901 96.9866 259.406 97.7824 258.143 99.1475C256.551 100.869 257.234 103.118 259.527 103.342C261.37 103.522 263.147 103.395 264.979 103.873C266.234 104.199 268.132 104.992 269.365 104.284C270.932 103.381 270.553 100.996 269.713 99.6228C268.55 97.7133 266.273 97.1054 264.316 97.0529Z" fill="#422724"/>
<path d="M287.616 129.107C287.323 128.522 285.61 129.248 285.204 129.339C284.005 129.602 282.786 129.784 281.562 129.881C279.199 130.063 276.674 130 274.352 129.497C274.225 129.469 274.12 129.491 274.029 129.533C273.894 129.511 273.756 129.489 273.617 129.464C273.164 129.386 272.78 129.914 273.067 130.309C276.577 135.093 284.135 133.429 288.078 130.155C288.647 129.679 288.241 128.571 287.616 129.107Z" fill="#963E29"/>
<path d="M280.219 247.488C278.022 248.706 276.582 250.61 275.701 252.948C275.11 254.526 275.093 256.292 274.339 257.787C273.651 259.149 272.465 259.798 271.506 260.962C267.577 265.734 268.304 273.598 267.994 279.338C267.148 295.008 264.863 311.132 269.132 326.482C269.32 327.157 270.37 326.872 270.183 326.195C266.206 311.898 268.127 297.1 268.911 282.504C269.099 279.031 269.268 275.555 269.475 272.081C269.666 268.928 269.937 265.549 271.572 262.76C272.346 261.442 273.499 260.6 274.433 259.591C274.449 259.599 274.46 259.613 274.482 259.619C275.842 260.066 274.93 265.234 274.855 266.264C274.692 268.569 274.582 270.876 274.529 273.184C274.421 277.807 274.549 282.421 274.866 287.031C274.913 287.727 276.002 287.732 275.955 287.031C275.543 281.001 275.46 274.96 275.778 268.923C275.922 266.231 276.486 263.332 276.179 260.641C276.071 259.707 275.886 259.088 275.134 258.715C275.444 258.248 275.698 257.726 275.845 257.098C276.663 253.586 277.317 250.345 280.766 248.427C281.379 248.087 280.832 247.145 280.219 247.488Z" fill="#963E29"/>
<path d="M268.058 258.845C267.867 258.171 266.817 258.455 267.008 259.132C267.552 261.058 267.776 263.004 267.693 265.004C267.663 265.706 268.751 265.703 268.779 265.004C268.87 262.91 268.627 260.862 268.058 258.845Z" fill="#963E29"/>
<path d="M273.264 247.59C272.799 247.062 272.034 247.836 272.495 248.361C274.12 250.207 273.131 254.255 272.739 256.385C272.612 257.071 273.662 257.364 273.789 256.676C274.292 253.948 275.295 249.894 273.264 247.59Z" fill="#963E29"/>
<path d="M282.405 256.706C282.609 254.191 283.098 251.688 282.681 249.182C282.565 248.493 281.515 248.786 281.631 249.472C282.081 252.174 281.432 255.037 281.236 257.745C281.031 260.522 280.918 263.308 280.86 266.09C280.747 271.664 280.871 277.24 280.993 282.814C281.006 283.513 282.098 283.516 282.081 282.814C281.951 276.892 281.822 270.967 281.974 265.046C282.045 262.263 282.178 259.48 282.405 256.706Z" fill="#963E29"/>
<path d="M285.754 256.897C285.795 256.195 284.707 256.198 284.665 256.897C284.154 265.626 284.16 274.361 284.687 283.087C284.729 283.784 285.818 283.789 285.776 283.087C285.251 274.361 285.243 265.626 285.754 256.897Z" fill="#963E29"/>
<path d="M191.757 323.037C183.887 322.114 176.012 322.332 168.2 323.653C167.512 323.769 167.802 324.819 168.49 324.703C176.202 323.396 183.987 323.213 191.757 324.128C192.451 324.208 192.445 323.119 191.757 323.037Z" fill="#963E29"/>
<path d="M422.891 327.59C414.48 326.071 405.974 325.532 397.439 325.996C396.745 326.035 396.737 327.123 397.439 327.085C405.878 326.626 414.284 327.137 422.601 328.638C423.287 328.765 423.582 327.715 422.891 327.59Z" fill="#963E29"/>
<path d="M225.088 300.714C221.858 286.486 219.545 272.081 218.161 257.56C218.094 256.869 217.005 256.861 217.072 257.56C218.464 272.178 220.788 286.682 224.038 301.002C224.193 301.684 225.24 301.397 225.088 300.714Z" fill="#5B7550"/>
<path d="M390.724 290.231C387.391 299.59 383.597 308.772 379.361 317.761C379.063 318.391 380.002 318.947 380.301 318.311C384.578 309.239 388.408 299.968 391.774 290.521C392.011 289.86 390.959 289.573 390.724 290.231Z" fill="#5B7550"/>
<path d="M368.487 415.87C364.014 418.161 359.399 420.084 354.621 421.642C353.958 421.858 354.243 422.908 354.911 422.693C359.775 421.106 364.481 419.144 369.035 416.809C369.656 416.489 369.109 415.552 368.487 415.87Z" fill="#452B2B"/>
<path d="M262.559 481.791C225.572 473.222 192.398 454.255 158.526 437.846C149.136 433.298 139.652 428.94 129.986 425.005C129.337 424.74 129.055 425.793 129.696 426.055C164.478 440.22 196.665 460.069 231.795 473.443C241.74 477.226 251.898 480.437 262.268 482.841C262.951 483.002 263.241 481.952 262.559 481.791Z" fill="#452B2B"/>
<path d="M427.94 439.007C405.261 440.574 383.02 446.728 360.769 451.052C349.401 453.26 338.008 455.338 326.593 457.281C320.798 458.267 314.995 459.224 309.189 460.141C303.812 460.995 298.233 461.495 293.01 463.1C288.932 464.352 285.005 466.524 282.465 470.047C279.111 474.695 280.155 480.004 280.642 485.345C280.702 486.036 281.794 486.044 281.73 485.345C281.266 480.252 280.158 475.06 283.405 470.595C286.483 466.367 291.579 464.396 296.514 463.324C306.852 461.08 317.507 459.936 327.936 458.154C349.15 454.523 370.253 450.362 391.309 445.91C403.418 443.351 415.574 440.95 427.94 440.096C428.636 440.046 428.645 438.957 427.94 439.007Z" fill="#452B2B"/>
<path d="M160.952 430.814C157.31 427.534 153.571 424.364 149.716 421.336C146.718 418.976 143.667 416.224 140.031 414.928C139.37 414.693 139.086 415.743 139.741 415.978C143.753 417.409 147.271 420.747 150.534 423.364C153.834 426.008 157.042 428.755 160.181 431.588C160.7 432.052 161.471 431.286 160.952 430.814Z" fill="#452B2B"/>
<path d="M336.599 190.746C324.797 205.469 304.213 211.7 286.232 205.955C285.563 205.74 285.276 206.79 285.942 207.002C304.257 212.855 325.338 206.522 337.37 191.514C337.804 190.972 337.038 190.196 336.599 190.746Z" fill="#5B7550"/>
<path d="M247.753 118.422C249.864 114.594 251.282 110.472 252.086 106.18C252.216 105.492 251.166 105.199 251.036 105.887C249.966 111.585 247.736 116.764 244.528 121.583C241.613 125.957 238.247 130.086 236.172 134.957C233.049 142.302 233.776 152.615 242.483 155.591C243.149 155.818 243.431 154.765 242.773 154.541C237.954 152.894 235.304 147.906 235.401 142.979C235.495 138.152 237.695 133.7 240.251 129.718C242.693 125.916 245.562 122.39 247.753 118.422Z" fill="#331A17"/>
<path d="M258.201 147.967C255.175 148.497 251.87 148.694 249.422 146.483C247.098 144.386 246.609 141.119 247.852 138.306C248.134 137.671 247.195 137.115 246.913 137.756C245.556 140.829 245.868 144.3 248.209 146.815C250.925 149.733 254.841 149.658 258.491 149.017C259.179 148.895 258.889 147.851 258.201 147.967Z" fill="#331A17"/>
<path d="M316.311 64.2028C315.821 63.7026 315.05 64.4708 315.542 64.971C327.145 76.809 325.888 94.345 324.451 109.546C324.385 110.242 325.474 110.24 325.54 109.546C327.007 94.0272 328.138 76.2674 316.311 64.2028Z" fill="#331A17"/>
<path d="M336.344 83.9051C336.157 83.2309 335.107 83.5183 335.294 84.1953C336.834 89.7274 334.855 94.9473 332.589 99.9544C332.302 100.587 333.241 101.143 333.529 100.504C335.916 95.2292 337.961 89.7136 336.344 83.9051Z" fill="#331A17"/>
<path d="M327.881 120.389C326.596 125.054 326.068 129.876 324.918 134.57C323.542 140.191 320.978 144.444 316.686 148.307C313.625 151.065 309.756 154.057 308.816 158.316C308.142 161.372 309.549 164.519 312.633 165.448C313.307 165.649 313.591 164.599 312.923 164.398C309.306 163.306 309.217 159.269 310.673 156.45C311.724 154.414 313.415 152.753 315.075 151.208C317.872 148.616 320.856 146.259 322.846 142.943C326.861 136.248 326.902 128.038 328.931 120.677C329.116 120.002 328.066 119.712 327.881 120.389Z" fill="#331A17"/>
<path d="M325.609 102.041C319.441 103.315 317.024 110.762 316.59 116.225C316.399 118.648 315.65 122.097 318.958 122.326C324.158 122.683 327.126 117.866 328.406 113.475C329.215 110.69 331.224 100.877 325.609 102.041Z" fill="#C76C56"/>
<path d="M326.386 105.266C321.652 106.758 319.947 111.522 318.715 115.868C318.521 116.543 319.593 116.747 319.781 116.076C320.911 112.105 322.412 107.659 326.756 106.291C327.425 106.081 327.057 105.055 326.386 105.266Z" fill="#963E29"/>
<path d="M92.1703 342.609C92.1841 341.879 91.4656 341.399 90.7914 341.559C89.6335 341.835 88.4039 342.175 87.5307 343.037C87.1659 343.397 86.8785 343.841 86.6961 344.319C86.091 345.383 86.1711 346.909 87.608 347.533C88.7327 348.232 90.3133 348.158 90.9544 346.804C90.9655 346.782 90.9627 346.762 90.971 346.74C92.0293 345.621 92.1426 344.038 92.1703 342.609Z" fill="#EB8382"/>
<path d="M59.914 364.45C59.646 363.831 59.2867 363.243 58.5849 363.066C57.9161 362.897 57.2364 363.251 56.8965 363.829C56.2001 365.003 56.703 366.677 57.4105 367.728C57.5845 367.985 57.8139 368.125 58.0543 368.183C58.4881 368.432 59.0159 368.501 59.4968 368.341C61.1299 367.794 60.3948 365.567 59.914 364.45Z" fill="#452B2B"/>
<path d="M101.532 336.991C100.562 337.135 99.8385 337.947 99.3052 338.71C98.968 339.194 99.2167 339.923 99.6976 340.202C99.7141 340.21 99.7335 340.21 99.7501 340.219C99.7722 340.271 99.7777 340.321 99.8053 340.371C100.04 340.793 100.504 341.084 100.991 341.095C102.066 341.114 102.917 339.887 103.185 338.956C103.508 337.84 102.699 336.823 101.532 336.991Z" fill="#452B2B"/>
<path d="M392.741 96.0278C386.253 96.6578 382.387 103.829 381.995 108.902C381.732 112.293 383.332 115.531 386.894 116.067C392.727 116.943 398.19 111.044 400.056 106.001C402.216 100.175 399.287 95.3922 392.741 96.0278Z" fill="#452B2B"/>
<path d="M391.404 107.929C391.334 107.366 390.89 106.91 390.392 106.843C390.11 106.758 389.804 106.774 389.566 106.951C389.011 107.382 388.599 107.954 388.499 108.631C388.405 108.816 388.314 109.007 388.234 109.206C388.007 109.748 388.477 110.403 388.994 110.543C389.48 110.676 389.875 110.472 390.138 110.121C390.942 109.69 391.528 108.899 391.404 107.929Z" fill="#D892C0"/>
<path d="M491.209 273.164C481.576 269.986 471.059 269.436 463.789 270.05C458.002 270.539 445.15 270.592 442.876 278.135C441.24 283.551 449.046 289.106 450.92 293.37C454.921 302.469 442.431 304.79 437.46 306.562C431.115 308.822 424.384 309.69 417.672 309.913C406.759 310.281 393.2 305.266 383.763 312.768C377.739 317.56 376.114 328.406 382.567 334.681C384.667 336.726 387.198 338.005 389.748 338.972C406.43 345.303 424.475 342.476 440.516 337.613C451.039 334.424 461.197 330.003 471.683 326.692C481.816 323.495 492.781 323.691 502.674 319.991C510.444 317.081 516.609 307.703 514.755 297.224C512.437 284.112 502.42 276.862 491.209 273.164Z" fill="#452B2B"/>
<path d="M479.981 287.141C479.829 287.047 479.669 286.978 479.506 286.92C479.205 286.658 478.821 286.483 478.381 286.453C477.859 286.417 477.403 286.602 477.027 286.895C476.986 286.901 476.942 286.909 476.9 286.917C476.334 287.028 476.016 287.685 476.138 288.216C475.922 288.481 475.809 288.829 475.922 289.161C476.204 289.982 476.925 290.557 477.724 290.739C478.199 290.96 478.716 291.104 479.175 291.101C480.144 291.095 480.957 290.413 481.087 289.454C481.208 288.559 480.758 287.611 479.981 287.141Z" fill="#D892C0"/>
<path d="M457.98 314.235C457.792 314.224 457.601 314.235 457.405 314.257C456.062 314.025 454.733 314.371 453.575 315.272C453.208 315.556 453.175 316.219 453.407 316.59C454.004 317.549 455.023 317.949 456.126 317.897C457.154 317.85 458.383 317.604 459.074 316.778C459.92 315.777 459.337 314.288 457.98 314.235Z" fill="#452B2B"/>
<path d="M394.999 324.529C394.161 323.598 392.664 323.037 391.611 323.628C391.26 323.799 391 324.087 390.856 324.424C390.84 324.451 390.818 324.471 390.801 324.501C389.851 326.43 392.407 327.516 393.896 327.563C394.391 327.579 394.706 327.309 394.847 326.96C395.745 326.375 395.64 325.242 394.999 324.529Z" fill="#452B2B"/>
<path d="M401.97 328.942C401.832 327.93 400.752 327.538 399.909 327.972C399.348 328.262 399.279 328.798 399.47 329.246C399.425 329.715 399.63 330.207 400.207 330.384C401.117 330.66 402.106 329.914 401.97 328.942Z" fill="#452B2B"/>
<path d="M495.356 300.587C495.276 300.256 494.947 299.883 494.596 299.827C493.397 299.64 492.206 299.952 491.385 300.889C490.999 301.331 490.949 301.991 491.385 302.428C491.596 302.64 491.911 302.743 492.22 302.732C492.9 303.177 493.674 303.237 494.411 302.801C495.191 302.339 495.561 301.458 495.356 300.587Z" fill="#452B2B"/>
<path d="M503.108 283.482C501.903 283.482 501.9 285.353 503.108 285.353C504.31 285.353 504.31 283.482 503.108 283.482Z" fill="#E5EAFF"/>
<path d="M504.818 287.224H504.663C503.461 287.224 503.456 289.095 504.663 289.095H504.818C506.023 289.095 506.023 287.224 504.818 287.224Z" fill="#E5EAFF"/>
<path d="M500.339 286.564C500.283 286.511 500.234 286.459 500.184 286.406C499.33 285.555 498.006 286.876 498.858 287.73C498.913 287.782 498.963 287.832 499.015 287.884C499.866 288.738 501.193 287.415 500.339 286.564Z" fill="#E5EAFF"/>
<path d="M456.662 277.561V277.718C456.662 278.92 458.533 278.923 458.533 277.718V277.561C458.533 276.359 456.662 276.356 456.662 277.561Z" fill="#E5EAFF"/>
<path d="M459.467 280.99H459.315C458.107 280.99 458.107 282.861 459.315 282.861H459.467C460.671 282.861 460.674 280.99 459.467 280.99Z" fill="#E5EAFF"/>
<path d="M433.287 318.861C432.085 318.861 432.08 320.732 433.287 320.732C434.489 320.732 434.495 318.861 433.287 318.861Z" fill="#E5EAFF"/>
<path d="M411.471 314.498H410.843C409.641 314.498 409.641 316.369 410.843 316.369H411.471C412.673 316.369 412.673 314.498 411.471 314.498Z" fill="#D892C0"/>
<path d="M238.333 266.56C238.258 266.292 238.106 266.118 237.929 265.993C235.265 258.516 224.519 254.238 218.022 251.116C205.278 244.99 191.837 240.132 180.035 232.204C168.396 224.384 157.865 212.664 156.367 198.154C155.035 185.236 162.944 173.68 174.019 167.609C176.393 166.31 179.828 164.522 178.894 161.209C176.017 151.043 158.979 148.196 150.238 148.929C137.4 150.001 123.534 155.179 115.921 165.942C108.261 176.78 104.298 190.226 105.064 203.49C106.02 220.053 114.44 234.79 126.93 245.44C140.851 257.308 158.954 262.437 175.683 268.95C189.884 274.474 203.998 281.219 219.197 282.28C230.156 283.046 241.955 279.854 238.333 266.56Z" fill="#D892C0"/>
<path d="M161.927 160.22C161.709 159.893 161.347 159.711 160.858 159.916C160.601 160.018 160.211 160.206 159.758 160.441C158.921 160.731 158.103 161.17 157.487 161.538C156.094 162.361 154.964 163.469 154.002 164.76C153.692 165.171 153.756 165.58 153.999 165.876C153.994 166.338 154.151 166.788 154.577 167.211C154.892 167.52 155.248 167.653 155.627 167.672C156.931 168.087 158.293 167.133 159.277 166.401C160.518 165.486 161.676 164.359 162.524 163.063C163.154 162.104 163.27 160.579 161.927 160.22Z" fill="#9ABF7A"/>
<path d="M124.924 222.029C124.515 220.653 123.752 218.44 122.589 217.008C121.818 215.751 120.754 214.621 119.499 214.858C117.233 215.29 118.247 218.998 118.778 220.385C118.88 220.648 119.046 221.021 119.262 221.441C119.552 222.342 119.991 223.375 120.599 224.116C121.146 224.934 121.834 225.591 122.702 225.865C125.357 226.705 125.435 223.734 124.924 222.029Z" fill="#9ABF7A"/>
<path d="M147.157 162.812C146.278 163.115 145.405 163.978 144.839 164.691C144.223 165.467 143.703 166.583 144.192 167.553C144.377 167.924 144.654 168.186 144.977 168.344C145.284 168.675 145.693 168.891 146.176 168.827C147.102 168.703 147.992 167.733 148.486 167.003C149.02 166.213 149.354 165.193 149.31 164.235C149.252 163.082 148.229 162.441 147.157 162.812Z" fill="#EB8382"/>
<path d="M193.83 254.26C193.611 253.434 192.733 252.807 192.05 252.37C191.326 251.906 190.409 251.494 189.541 251.425C188.626 251.353 187.927 252.017 187.994 252.94C188.007 253.116 188.06 253.288 188.123 253.456C188.118 253.705 188.187 253.965 188.397 254.2C189.176 255.078 190.461 256.278 191.763 256.421C191.796 256.424 191.826 256.427 191.859 256.43C192.147 256.449 192.434 256.432 192.719 256.33C193.562 256.021 194.067 255.147 193.83 254.26Z" fill="#FADAC3"/>
<path d="M168.33 242.339C168.012 240.635 166.921 239.159 165.417 238.308C164.771 237.938 164.055 238.297 163.82 238.957C163.762 239.117 163.726 239.278 163.696 239.441C163.596 239.648 163.552 239.886 163.635 240.173C163.641 240.19 163.649 240.206 163.654 240.223C163.729 241.309 164.34 242.334 165.301 242.903C165.456 242.994 165.608 243.044 165.757 243.058C166.133 243.309 166.545 243.519 166.99 243.68C167.838 243.981 168.468 243.086 168.33 242.339Z" fill="#FADAC3"/>
<path d="M126.969 183.528C126.706 182.862 125.714 182.337 125.15 183.047C124.664 183.663 124.338 184.346 124.192 185.064C123.76 185.261 123.457 185.683 123.653 186.269C123.774 186.637 123.896 187.004 124.017 187.372C124.294 188.201 125.195 188.378 125.838 187.853C127.076 186.844 127.56 185.017 126.969 183.528Z" fill="#9ABF7A"/>
<path d="M214.483 266.405C213.819 266.532 213.449 267.455 213.83 268.005C214.267 268.638 214.878 269.111 215.582 269.334C216.016 269.658 216.505 269.89 217.072 269.859C217.928 269.815 218.694 269.133 218.818 268.287C219.141 266.063 215.853 266.143 214.483 266.405Z" fill="#9ABF7A"/>
<path d="M150.277 208.522C149.072 208.522 149.072 210.393 150.277 210.393C151.479 210.393 151.482 208.522 150.277 208.522Z" fill="#E5EAFF"/>
<path d="M155.265 214.756C154.06 214.756 154.057 216.624 155.265 216.624C156.467 216.624 156.47 214.756 155.265 214.756Z" fill="#E5EAFF"/>
<path d="M134.07 160.521C132.865 160.521 132.863 162.392 134.07 162.392C135.272 162.392 135.275 160.521 134.07 160.521Z" fill="#E5EAFF"/>
<path d="M111.627 186.703C110.425 186.703 110.422 188.571 111.627 188.571C112.831 188.571 112.831 186.703 111.627 186.703Z" fill="#E5EAFF"/>
<path d="M159.004 249.041C157.802 249.041 157.799 250.911 159.004 250.911C160.208 250.911 160.211 249.041 159.004 249.041Z" fill="#E5EAFF"/>
<path d="M210.744 253.404C209.542 253.404 209.539 255.275 210.744 255.275C211.946 255.275 211.949 253.404 210.744 253.404Z" fill="#E5EAFF"/>
<path d="M329.926 420.805C324.634 409.208 300.405 408.152 289.99 407.519C271.769 406.403 253.501 409.393 235.304 408.086C213.148 406.494 190.945 404.623 169.184 400.241C147.564 395.886 129.845 384.683 109.886 376.266C104.127 373.84 94.9364 371.273 92.8777 364.459C92.0321 361.668 93.1651 358.581 95.0635 356.368C101.242 349.15 111.922 346.207 119.425 340.63C132.816 330.68 103.356 329.456 98.6586 329.677C86.757 330.24 75.0129 334.001 64.9185 340.324C42.7983 354.171 49.2506 382.014 65.6315 393.128C89.0726 409.031 126.825 408.586 153.693 411.902C170.433 413.96 187.015 417.293 203.253 421.855C219.609 426.451 235.185 434.298 252.147 436.194C275.179 438.767 298.283 442.815 320.061 432.419C324.432 430.336 332.755 427.012 329.926 420.805Z" fill="#D892C0"/>
<path d="M300.748 421.772C298.454 420.822 295.92 421.352 294.049 422.925C293.538 423.356 293.679 424.303 294.248 424.619C294.757 426.083 296.708 425.591 297.877 425.354C299.278 425.066 301.118 424.724 301.508 423.11C301.657 422.485 301.306 422.002 300.748 421.772Z" fill="#459ABF" fill-opacity="0.478431"/>
<path d="M106.144 396.278C105.401 394.819 104.318 393.595 102.961 392.677C101.928 391.976 99.9987 390.865 98.7663 391.652C97.5421 392.437 97.7439 394.136 98.6834 395.043C99.9656 396.281 101.969 397.082 103.5 397.975C103.983 398.259 104.442 398.121 104.749 397.82C104.807 397.837 104.857 397.861 104.915 397.875C105.871 398.154 106.562 397.096 106.144 396.278Z" fill="#EB8382"/>
<path d="M114.268 397.533C113.81 395.477 111.781 394.305 109.775 394.598C109.195 394.681 108.869 395.424 109.015 395.935C109.107 396.259 109.234 396.56 109.386 396.834C109.344 397.121 109.422 397.425 109.712 397.682C110.251 398.168 110.875 398.511 111.547 398.718C111.566 398.726 111.582 398.737 111.602 398.748C111.693 398.787 111.787 398.798 111.881 398.798C112.315 398.895 112.757 398.953 113.218 398.909C113.942 398.845 114.431 398.27 114.268 397.533Z" fill="#9ABF7A"/>
<path d="M217.707 418.114C216.503 416.812 214.773 416.32 213.051 416.633C212.236 416.782 212.015 417.92 212.57 418.454C213.319 419.169 214.184 419.556 215.176 419.717C215.745 419.871 216.328 419.96 216.936 419.973C217.915 419.998 218.326 418.785 217.707 418.114Z" fill="#9ABF7A"/>
<path d="M117.026 388.361C114.749 389.027 112.041 388.499 109.673 387.797C106.423 386.836 103.237 385.667 100.137 384.302C89.3047 379.535 83.5432 367.471 90.2718 356.655C91.8055 354.187 94.0465 352.013 96.854 351.261C99.6588 350.509 103.038 351.512 104.445 354.055C106.106 357.058 104.624 360.75 104.555 364.182C104.5 366.835 105.354 369.496 106.943 371.621C109.831 375.49 114.708 377.258 118.402 380.37C119.546 381.334 120.641 382.572 120.707 384.067C120.765 385.286 120.093 386.454 119.159 387.239C118.518 387.775 117.797 388.135 117.026 388.361ZM121.528 380.071C114.846 373.323 105.84 372.782 107.031 360.952C107.484 356.428 107.695 350.28 102.375 348.509C97.6333 346.931 92.4493 350.612 89.6501 354.104C86.9697 357.448 85.5963 362.063 85.1321 366.266C84.5518 371.475 85.7732 375.183 89.1665 379.126C93.2921 383.912 98.0312 385.836 103.837 388.024C108.617 389.831 117.479 392.639 122.285 389.204C125.802 386.689 124.026 382.594 121.528 380.071Z" fill="#E5EAFF"/>
<path d="M73.446 369.198C72.244 369.198 72.2412 371.071 73.446 371.071C74.6508 371.071 74.6508 369.198 73.446 369.198Z" fill="#E5EAFF"/>
<path d="M74.3829 377.148H73.9159C72.7111 377.148 72.7083 379.016 73.9159 379.016H74.3829C75.5849 379.016 75.5877 377.148 74.3829 377.148Z" fill="#E5EAFF"/>
<path d="M81.8631 384.628C80.6583 384.628 80.6556 386.499 81.8631 386.499C83.0652 386.499 83.0679 384.628 81.8631 384.628Z" fill="#E5EAFF"/>
<path d="M157.603 400.525C156.398 400.525 156.395 402.396 157.603 402.396C158.805 402.396 158.807 400.525 157.603 400.525Z" fill="#E5EAFF"/>
<path d="M237.548 415.953C236.346 415.953 236.343 417.824 237.548 417.824C238.753 417.824 238.756 415.953 237.548 415.953Z" fill="#E5EAFF"/>
<path d="M246.899 426.241V426.708C246.899 427.91 248.77 427.912 248.77 426.708V426.241C248.77 425.039 246.899 425.033 246.899 426.241Z" fill="#E5EAFF"/>
<path d="M265.131 425.307H264.197C262.995 425.307 262.992 427.175 264.197 427.175H265.131C266.336 427.175 266.339 425.307 265.131 425.307Z" fill="#E5EAFF"/>
<path d="M313.288 415.019H312.821C311.618 415.019 311.616 416.89 312.821 416.89H313.288C314.492 416.89 314.492 415.019 313.288 415.019Z" fill="#E5EAFF"/>
<path d="M379.903 409.774C371.795 412.267 366.708 421.888 375.271 427.492C381.378 431.491 391.793 428.996 394.946 422.212C399.475 412.468 387.762 407.362 379.903 409.774Z" fill="#452B2B"/>
<path d="M384.514 419.634C384.114 418.957 383.232 418.633 382.481 418.821C381.699 419.015 381.199 419.669 380.812 420.33C380.707 420.504 380.671 420.678 380.668 420.844C380.615 421.123 380.629 421.419 380.734 421.698C380.856 422.029 381.11 422.408 381.494 422.463C382.403 422.588 383.254 422.452 383.981 421.855C384.639 421.316 384.976 420.418 384.514 419.634Z" fill="#9ABF7A"/>
<path d="M388.718 413.615H388.405C387.201 413.615 387.198 415.486 388.405 415.486H388.718C389.92 415.486 389.92 413.615 388.718 413.615Z" fill="#E5EAFF"/>
<path d="M389.027 419.225C387.825 419.225 387.825 421.095 389.027 421.095C390.229 421.095 390.235 419.225 389.027 419.225Z" fill="#E5EAFF"/>
<path d="M541.114 434.274C541.04 434.111 540.968 433.947 540.89 433.787C537.641 426.868 531.94 420.849 525.974 416.177C520.939 412.236 516.023 407.92 510.334 404.875C495.829 397.118 505.166 428.338 504.05 433.616C502.312 441.834 496.315 445.907 489.338 448.706C481.51 451.848 481.302 462.827 489.031 466.204C489.095 466.231 489.159 466.262 489.222 466.287C499.587 470.821 511.378 473.175 522.277 470.139C537.859 465.792 548.092 449.787 541.114 434.274Z" fill="#452B2B"/>
<path d="M508.153 442.536C507.753 441.663 506.78 441.196 505.843 441.516C504.92 441.828 504.423 442.633 503.975 443.478C503.939 443.511 503.898 443.522 503.859 443.561C503.342 444.116 502.823 444.675 502.303 445.23C502.024 445.531 501.707 445.835 501.485 446.186C500.831 446.623 500.93 447.604 501.494 448.004C501.792 448.372 502.27 448.604 502.815 448.598C504.895 448.576 506.971 447.062 507.907 445.269C508.341 444.442 508.562 443.415 508.153 442.536Z" fill="#9ABF7A"/>
<path d="M511.406 433.491C510.367 432.549 509.259 433.456 508.844 434.506C508.441 435.534 508.538 436.609 508.963 437.601C508.98 438.358 509.751 439.087 510.558 438.551C512.077 437.543 512.967 434.906 511.406 433.491Z" fill="#D892C0"/>
<path d="M527.007 424.431C526.737 423.455 525.999 422.643 525.156 422.118C524.562 421.747 523.733 422.104 523.556 422.767C523.318 423.676 523.57 424.699 524.33 425.293C524.368 425.32 524.415 425.34 524.46 425.365C524.454 425.807 524.67 426.249 525.197 426.428C526.441 426.851 527.314 425.53 527.007 424.431Z" fill="#9ABF7A"/>
<path d="M524.438 456.449C524.045 455.264 522.617 455.374 521.705 455.816C521.066 456.123 520.561 456.648 520.246 457.273C519.884 457.684 519.624 458.154 519.433 458.685C519.35 458.906 519.392 459.141 519.483 459.353C519.281 459.693 519.262 460.155 519.453 460.486C519.773 461.033 520.411 461.127 520.942 460.876C521.865 460.445 522.719 459.826 523.393 459.063C524.007 458.37 524.766 457.436 524.438 456.449Z" fill="#9ABF7A"/>
<path d="M495.155 458.032H494.691C493.486 458.032 493.483 459.903 494.691 459.903H495.155C496.36 459.903 496.362 458.032 495.155 458.032Z" fill="#E5EAFF"/>
<path d="M522.274 441.198C521.072 441.198 521.066 443.069 522.274 443.069C523.479 443.069 523.479 441.198 522.274 441.198Z" fill="#E5EAFF"/>
<path d="M518.065 417.357C516.861 417.357 516.861 419.225 518.065 419.225C519.268 419.225 519.27 417.357 518.065 417.357Z" fill="#E5EAFF"/>
<path d="M507.468 461.304H507.156C505.954 461.304 505.954 463.175 507.156 463.175H507.468C508.673 463.175 508.676 461.304 507.468 461.304Z" fill="#E5EAFF"/>
<path d="M504.663 454.136V454.449C504.663 455.651 506.534 455.656 506.534 454.449V454.136C506.534 452.931 504.663 452.931 504.663 454.136Z" fill="#E5EAFF"/>
<path d="M509.181 412.203C508.452 417.022 504.738 419.694 500.789 415.497C498.916 413.505 498.117 411.264 495.854 409.567C491.654 406.425 486.268 405.98 481.33 404.795C480.018 404.477 476.406 403.833 475.792 402.88C473.656 401.291 473.383 399.011 476.74 395.974C477.478 395.731 478.227 395.538 478.987 395.386C482.582 394.606 486.323 394.62 489.924 395.352C495.846 396.56 501.099 399.602 505.086 404.026C506.645 405.903 509.59 409.52 509.181 412.203ZM509.09 405.809C509.079 405.637 509.024 405.461 508.891 405.281C508.294 404.457 507.653 403.684 506.987 402.927C506.852 402.764 506.722 402.601 506.587 402.44C506.559 402.407 506.523 402.393 506.493 402.363C500.389 395.797 491.634 392.064 482.518 392.686C479.144 392.921 473.944 393.498 471.81 396.56C469.799 399.448 471.534 402.551 474.104 404.344C479.241 407.925 486.227 407.182 491.806 409.799C495.42 411.496 496.841 414.054 499.126 416.981C500.458 418.683 501.908 420.076 504.166 420.222C507.258 420.418 509.961 418.199 510.942 415.356C512.113 411.952 510.917 408.68 509.09 405.809Z" fill="#E5EAFF"/>
</svg>
